<svg xmlns="http://www.w3.org/2000/svg" viewBox="0 0 268.02 198.78">
    <defs>
        <clipPath id="a">
            <path fill="none" d="M0 0h130.575v133.781H0z"/>
        </clipPath>
        <clipPath id="b">
            <path fill="none" d="M0 0h119.445v133.78H0z"/>
        </clipPath>
    </defs>
    <g>
        <g>
            <g fill="#fff" clip-path="url(#a)" transform="translate(137.445)">
                <path d="M122.207 113.136c.138 1.216.294 2.429.4 3.647a15.253 15.253 0 0 1 .03 1.968c-.006.166-.232.313-.294.491-.593 1.633-.709 1.679-2.213.763-.229.946-.705 1.253-1.7.865-.319-.126-.891.406-1.354.629-.3.142-.656.439-.9.368-1.066-.307-2.1-.725-3.261-1.145-.055-.759-.079-1.647-.193-2.528a2.2 2.2 0 0 0-.445-1.257c-1.206-1.17-.705-2.752-1.1-4.11a14.7 14.7 0 0 0-.839-3.1 9.039 9.039 0 0 1-.912-4.333c-.008-.2.037-.473-.067-.571-1.2-1.092-.567-2.488-.7-3.767a8.69 8.69 0 0 0-.7-3.4c-.847-1.458-.646-3-.867-4.494-.187-1.275-.087-2.591-.179-3.883-.059-.822-.24-1.635-.319-2.136-1.151 0-2-.057-2.843.022a1.912 1.912 0 0 0-1.227.522 4.333 4.333 0 0 0-1.03 3.355c.035.232-.158.5-.25.747-.116.325-.424.733-.323.958a1.6 1.6 0 0 1-.563 2.274.159.159 0 0 0-.041.108c-.071 1.781-.2 3.562-.187 5.343.006.747.705 1.537-.28 2.144.831 1.308-.674 2.53-.063 3.982.388.914-.118 2.2-.25 3.6.437.431.41 1.121.087 2.041a4.662 4.662 0 0 0 .039 3.813c.353.709.049 1.746.043 2.634 0 .294-.1.658.033.869.932 1.458.985 3.129 1.22 4.754a13.5 13.5 0 0 1 .286 2.877 8.373 8.373 0 0 1-.788 2.13c-.154.4-.294.8-.443 1.2l.3.268a35.194 35.194 0 0 0-3.8 2.112 4.786 4.786 0 0 1-4.668.522c-1.044-.4-2.51-1.036-2.4-2.808.032-.558-.493-1.127-.627-1.722-.292-1.308-.485-2.638-.745-3.954-.116-.579-.365-1.141-.428-1.724-.227-2.108-.317-4.238-.632-6.333-.2-1.316.274-2.68-.585-3.99-.424-.648-.154-1.748-.2-2.644a10.474 10.474 0 0 1 0-1.407c0-.786-.018-1.572.006-2.356.032-.928.134-1.854.136-2.78 0-.627-.13-1.255-.169-1.884a2.42 2.42 0 0 1 .126-.63c.085-.368.366-.867.225-1.084-.69-1.038-.258-1.962.055-2.963a8.3 8.3 0 0 0 .128-1.838c.108-1.391.219-2.782.347-4.169a5.028 5.028 0 0 1 .2-.78c.313-1.239.554-2.5.967-3.71a6.885 6.885 0 0 1 1.1-1.555c.16-.219.445-.453.435-.67-.095-2.2.971-4.161 1.415-6.24.236-1.107.473-2.274.739-3.4a3.759 3.759 0 0 0 .051-1.133c-.051-.638-.234-1.2.317-1.83.3-.339-.018-1.178.018-1.789.033-.55.183-1.092.244-1.641.079-.674.12-1.352.177-2.027.016-.183-.045-.433.053-.544 1.214-1.361.942-2.987.851-4.583a.864.864 0 0 1 .051-.347c.489-1.245 1-2.483 1.462-3.736a6.213 6.213 0 0 0 .2-1.111c.2-1.107.347-2.228.634-3.314.13-.5.617-.895.808-1.389.315-.824.532-1.69.782-2.54.138-.461.268-.924.424-1.482-1.231-.619-2.376-.02-3.547.475a7.691 7.691 0 0 1-1.206.294c-.173.039-.394.026-.512.13a4.445 4.445 0 0 1-3.3.829 1.329 1.329 0 0 0-.92.232c-.774.895-1.661.729-2.619.459a4.852 4.852 0 0 0-1.253-.154c-1.013-.006-2.035.63-3.042-.045a.292.292 0 0 0-.231 0 6.013 6.013 0 0 1-1.5.571 3.682 3.682 0 0 1-1.3-.39l-.323.2a18.558 18.558 0 0 0-.725-4.059c-.528-1.273-.2-2.55-.524-3.783-.144-.563.028-.877.53-1.336a22.724 22.724 0 0 0 2.492-3.121c.069-.091.11-.248.2-.274 2.027-.636 2.636-2.542 3.7-4.057.24-.347.741-.506 1.072-.8.522-.467 1.007-.979 1.681-1.641.53.136.914-.169 1.365-1.044a14.008 14.008 0 0 1 2.561-2.849.516.516 0 0 1 .313-.158c2.307-.126 3.127-2.181 4.52-3.489a3.056 3.056 0 0 1 .317-.321c.518-.355 1.048-.692 1.7-1.121.591.69 1.568-1.078 2.5.032.565.676 1.9.81 1.308 2.2 2.085.489 2.589 2.27 3.174 3.686-.189.753-.335 1.324-.5 2-.674.7-1.452 1.492-2.228 2.288a1.415 1.415 0 0 0-.1-.063L99.22 34.37c1.381.873 2.488.073 3.615-.256.27-.079.656-.516.627-.743-.142-1.145.6-1.359 1.426-1.618a1.875 1.875 0 0 0 .64-.5c1.025.26 1.935.447 2.81.739.311.1.5.558.808.686a8.305 8.305 0 0 0 4.392 1.009c.171-.026.374.234.562.238.63.01 1.1 1.028 1.893.272.122-.114.867.16 1.056.435.646.942 1.872 1.2 2.451 2.307a6.882 6.882 0 0 1 .571 1.275 5.782 5.782 0 0 0 .989 1.49c.408.567.873 1.1 1.226 1.7a13.684 13.684 0 0 1 1.921 3.609c.315 1.448 1.486 2.668 1.135 4.293-.055.264.274.6.388.912.625 1.748 1.239 3.5 1.86 5.249a.183.183 0 0 1 0 .112c-.833 1.4.223 2.571.495 3.832a1.323 1.323 0 0 0 .451.743c.5.361.68.7.319 1.279a1.4 1.4 0 0 0 0 .839q.3 1.847.648 3.686a16.873 16.873 0 0 1 .642 3.464c-.063 1.951.94 3.858.081 5.864-.26.607.189 1.5.227 2.262a2.818 2.818 0 0 1-.231 1.289c-.491 1.046-1.06 2.055-1.574 3.03-.969-.124-2.069-.268-3.174-.408-.077-.01-.187-.039-.231 0-1.3 1.2-2.287-.185-3.422-.386-.353-.063-.77.246-1.348.449-.112-.552-.441-1.168-.292-1.629a5.026 5.026 0 0 0-.274-3.381c-.221-.638-.1-1.4-.264-2.1.506-1.208.506-1.208-.156-2.191.211-.288.433-.6.656-.9l-.236-.014c-.035-.55-.075-1.1-.11-1.649 0-.039.035-.1.022-.112-1.186-.891.063-2.473-.965-3.409a.315.315 0 0 1-.053-.223 11.034 11.034 0 0 0-1.394-5.371c-.392-.8-.11-1.917-.227-2.879a12.134 12.134 0 0 0-.508-2.059c-.033-.106-.4-.236-.479-.177a.87.87 0 0 0-.337.565c-.033 1.767-.028 3.535-.045 5.3-.024 2.023-.087 4.047-.081 6.07 0 1.157.158 2.313.167 3.47.022 2.337 1.09 4.553.591 6.983-.236 1.166.506 2.571.166 3.669-.321 1.03-.1 1.5.28 1.795a14.412 14.412 0 0 1 .372 1.854 6.132 6.132 0 0 1-.169 1.352c-.02.1-.219.225-.2.278.688 1.557-.471 3.174.073 4.666.6 1.661.648 3.411 1.113 5.085a7.16 7.16 0 0 1-.043 1.6 1.886 1.886 0 0 0 .223 1.1 4.131 4.131 0 0 1 .926 3.241 6.178 6.178 0 0 0 .349 1.943c.38 1.314.853 2.6 1.229 3.913.29 1.017.487 2.059.741 3.085.142.567.319 1.125.483 1.687.057.02.116.037.177.057"
                />
                <path d="M2.585 12.836c.8-1.131 1.549-2.1 3.028-1.935.177.02.42-.213.571-.382a1.672 1.672 0 0 1 1.6-.6c.69.058 1.416-.527 2.146-.775.757-.256 1.61-.317 2-1.184.028-.063.142-.156.173-.142 1.2.552 2.031-.747 3.154-.627.327.035.851.008.987-.193.993-1.454 3.046-1 4.1-2.331.108-.136.52.008.759-.073a8.563 8.563 0 0 0 1.263-.573c.2-.106.4-.475.5-.439 1.858.634 3.038-1.417 4.784-1.194a.583.583 0 0 0 .449-.276c.524-1 1.45-.668 2.25-.682a8.367 8.367 0 0 0 2.24.057c1.176-.38 1.557.26 1.754 1.1a5.458 5.458 0 0 0 1.824 2.707 6.432 6.432 0 0 1 1.2 2.646 15.275 15.275 0 0 1 .749 3.223c.081.843.132 2.01-.349 2.512-.788.822-.388 1.624-.406 2.38-.039 1.8.225 3.578.11 5.406-.136 2.217.317 4.465.341 6.7a31.5 31.5 0 0 1-.471 4.045.559.559 0 0 0 .026.335c.916 1.438.315 2.953.278 4.451-.032 1.259.207 2.522.2 3.783-.01 2.219-.162 4.435-.16 6.654 0 1.639.217 3.281.223 4.922 0 1.734-.207 3.472-.16 5.2a6.09 6.09 0 0 0 .715 2.169c.855 1.9.743 2.189-1.017 3.093-1.919.987-3.775 2.1-5.692 3.087-1.535.794-3.141 1.458-4.679 2.244-.928.475-1.793 1.529-2.68 1.519-1.572-.016-2.563 1.691-4.181 1.139-.069-.024-.211-.026-.225.006-.43.908-1.285 1.056-2.138 1.259-.359.087-.684.506-1.015.495-1.4-.047-2.317.82-3.363 1.523-1.1.743-2.232 1.493-3.732 1.139-.674-.16-1.279 1.184-2.069.236-.485-.581-.879-1.237-1.365-1.933L5.1 74.644l-1.025-.861-.7.768c-.873-.53-1.7-1.017-2.506-1.533-.175-.11-.406-.319-.408-.487-.045-3.1-.774-6.189-.1-9.294a2.584 2.584 0 0 0-.1-.833 10.274 10.274 0 0 1-.14-1.119c-.018-.936.012-1.874 0-2.81-.021-.779-.07-1.558-.101-2.336-.006-.116-.047-.276.01-.341 1.032-1.141.189-2.364.189-3.552 0-1.226.167-2.451.152-3.677-.032-2.4-.14-4.8-.215-7.2 0-.077-.028-.181.01-.231 1.182-1.482-.051-3.093.24-4.628a3.889 3.889 0 0 0-.234-1.277c.642-.467.8-.932.262-1.8A2.954 2.954 0 0 1 .2 30.996c.685-1.391-.253-2.819.4-4.177.222-.455-.084-1.152-.107-1.742-.1-2.721-.307-5.446-.24-8.163a21.456 21.456 0 0 1 .91-3.724c.234-1.084.764-.839 1.423-.357m12.091 51.044v.116a9.487 9.487 0 0 1 1.671-1.052 32.579 32.579 0 0 0 4.3-1.476c.981-.54 2.384-.548 2.916-1.846.03-.073.349 0 .518-.047.867-.254 1.748-.475 2.585-.806a9.35 9.35 0 0 0 1.635-.942c.217-.144.516-.382.524-.587.057-1.635.061-3.273.065-4.908 0-1.846-.024-3.69-.018-5.535 0-1.247.091-2.494.055-3.74-.037-1.324-.171-2.646-.274-3.966a5.7 5.7 0 0 1-.152-2.033c.611-1.8-.317-3.621.2-5.4.053-.181-.116-.418-.116-.629 0-.9.014-1.8.037-2.7.016-.6.035-1.2.091-1.793.047-.516.319-1.078.189-1.531a6.923 6.923 0 0 1-.167-3.645c.193-.814-.353-1.773-.388-2.676-.073-1.787-.022-3.582-.022-5.349-.841.156-1.878.325-2.9.558-.179.039-.284.357-.449.516-.211.2-.514.331-.666.564-.776 1.182-2.185.363-3.255 1.127-1.117.8-2.745.881-4.059 1.625a35.5 35.5 0 0 1-3.444 1.289c-.8.345-1.367 1.174-2.4 1.06-.126-.014-.43.406-.43.625 0 .723.106 1.446.167 2.169.106 1.249.258 2.5.305 3.747a27.364 27.364 0 0 1-.071 3.29c-.132 1.6-.534 3.125-.02 4.792.591 1.915-.847 3.876-.242 5.879.045.15-.15.355-.167.542a4.873 4.873 0 0 0-.035 1.2c.1.636.361 1.253.408 1.89.077 1.021.057 2.049.039 3.074-.016.851-.089 1.7-.136 2.55a15.036 15.036 0 0 1 .041 2.246 10.487 10.487 0 0 0-.305 2.778 13.041 13.041 0 0 1-.022 5.125c-.026.14.063.3.067.443.008.567 0 1.135 0 1.7a3.448 3.448 0 0 0 .1 1.3c.075.339.087.865.294.967a2.251 2.251 0 0 0 1.336.142 21.9 21.9 0 0 0 2.195-.66"
                />
                <path d="M72.859 24.812c.033.751.063 1.5.1 2.25.012.232.16.534.063.682-.847 1.283-.1 2.587-.1 3.878-.008 1.454-.136 2.916-.053 4.364a9.2 9.2 0 0 0 .644 2.345c.4 1.176-.112 1.99-.849 2.95A3.428 3.428 0 0 1 70 42.711a3.835 3.835 0 0 0-2.014.581 1.3 1.3 0 0 0-.571.542c-.254.666-.674.723-1.312.611a2.139 2.139 0 0 0-1.055.355 56.87 56.87 0 0 0-2.66 1.271c-.569.3-1.072.739-1.655 1-2.264 1-4.5 2.073-6.837 2.869a5.669 5.669 0 0 1-5.1-.238.9.9 0 0 0-.784-.093c-1.015.818-2.211.28-3.087.516-.528-.52-.952-.928-1.361-1.348a.706.706 0 0 1-.24-.363c-.191-2-.366-4-.544-5.994-.03-.337-.089-.676-.091-1.013-.008-.826.02-1.653.02-2.479 0-.961.028-1.927-.039-2.884a26.591 26.591 0 0 1-.329-3.149 40.3 40.3 0 0 1 .636-4.055c.032-.185.069-.459-.03-.56-.958-.967-.286-2.018-.211-3.044.026-.374-.15-.757-.162-1.139a55.982 55.982 0 0 1-.016-2.656c.006-.378.1-.757.095-1.135a43.077 43.077 0 0 0-.106-4.762 3.892 3.892 0 0 1 .264-2.758 6.087 6.087 0 0 1 1.267-1.6c.108-.556.213-1.111.307-1.6.91-.424 1.71-.822 2.53-1.17 1.263-.538 2.546-1.042 3.818-1.562 1.838-.754 3.663-1.554 5.523-2.245 1.186-.443 2.435-.729 3.653-1.1.217-.067.52-.142.6-.305.711-1.4 2.25-1.407 3.416-1.937 1.207-.543 2.791-.313 3.923-.935 1.38-.753 2.032-.095 2.867.668a3.717 3.717 0 0 0 .93.428 1.281 1.281 0 0 0 .065 2.018 8.61 8.61 0 0 1 1.027 2.207c.15.319.554.615.534.9a11.6 11.6 0 0 1-.453 1.947c-.037.144-.185.3-.15.416a4.147 4.147 0 0 1-.487 3.684c-.3.461.258 1.47.394 2.232a9.075 9.075 0 0 1 .183 1.576c.006 1.612-.028 3.221-.063 4.833-.014.571-.108 1.143-.1 1.714s.087 1.17.134 1.756c.045.035.089.069.134.1M61.298 36.516a2.38 2.38 0 0 0 2.847-2.2c-.045-1.068-.3-2.126-.445-3.19a2.487 2.487 0 0 1 .035-.447c.1-2.148.252-4.3.276-6.447.018-1.488-.144-2.977-.221-4.465-.035-.686-.077-1.371-.085-2.057-.012-1.356 0-2.713 0-4.425-1.663.53-3.217 1.019-4.764 1.523-.374.12-.731.288-1.094.439-.64.266-1.294.506-1.909.818-.4.2-.717.556-1.111.764-.565.3-1.166.532-1.5.682 0 .694.028 1.19-.006 1.681-.1 1.472-1.32 2.979.144 4.406.039.039.012.148.016.225.1 2.161-.688 4.274-.189 6.486.221.979-.209 2.094-.274 3.15-.028.485.248 1.009.148 1.462a12.866 12.866 0 0 0 .187 5.19 31.6 31.6 0 0 0 4.25-1.665c1.237-.7 3.058-.244 3.7-1.931"
                />
                <path d="M119.519 25.638a10.471 10.471 0 0 1-2.173 1.287 9.033 9.033 0 0 1-2.847.321c-1.267-.041-2.668.1-3.728-.648-1.09-.772-2.544-1.088-3.117-2.646-.272-.737-1.052-1.332-1.021-2.254.055-1.564.144-3.127.223-4.689 0-.075.081-.166.059-.223-1-2.632 1.314-4 2.284-5.871a1.557 1.557 0 0 1 1.2-.619c1.212.012 2.42.181 3.627.3.11.012.238.144.319.114 1.9-.715 3.273.9 4.951 1.176.231.039.313.8.512 1.21a7.581 7.581 0 0 1 1.068 3.608 18.976 18.976 0 0 1-.435 4.536c-.223.863-.069 1.821-.234 2.705a8.225 8.225 0 0 1-.69 1.7"
                />
            </g>
        </g>
        <g>
            <g fill="#fff" clip-path="url(#b)" transform="translate(0 65)">
                <path d="M69.7 79.959c-.259.719-.462 1.243-.64 1.776-1.312 3.957-2.5 7.962-4.009 11.848-.346.894-1.739 1.386-2.651 2.063-.02.1-.089.22-.052.287a19.9 19.9 0 0 1 2.577 7.255c.343 2.653 1.485 5.2 2.226 7.806a9.067 9.067 0 0 1 .338 2.288 5.064 5.064 0 0 1-4.812 5.37c-1.107.133-2.181.511-3.286.709-.966.175-1.952.252-3.11.4-2.327-1.69-2.893-4.387-3.187-7.275a32.86 32.86 0 0 0-.956-3.584 7.725 7.725 0 0 1-.314-2.821 2.219 2.219 0 0 0-1.245-2.67c-1.939-1.045-3.856-2.129-5.926-3.276a5.457 5.457 0 0 0 .269.845c1.131 2.127 2.589 3.876 1.927 6.84-.563 2.525-.375 5.328-.776 8.011-.237 1.593.264 3.283.309 4.936.064 2.376.017 4.758.017 6.88-3.466 2.969-7.157 1.408-11.025 1.7-.42-4.951-.828-9.736-1.25-14.723-1.1-.074-2.241-.148-3.629-.242-.289 3.94-.966 7.759-.119 11.64a20.765 20.765 0 0 1 .3 2.888c.116 1.524-.753 2.552-1.761 3.55-.981.971-1.937 1.591-3.367.85-.331-.17-.919.156-1.388.252-2.292.469-4.224.3-6.075-1.633-1.341-1.4-1.087-2.89-1.183-4.313-.287-4.212-1.225-8.4-.519-12.668.1-.585-.413-1.272-.687-2.033l-3.36-.672c0 3.216.032 6.191-.022 9.162a7.074 7.074 0 0 1-.5 2.171c-.259.721-.655 1.4-1.1 2.325a13.249 13.249 0 0 0-3.7.067c-1.712.509-3.068-.445-4.54-.736a3.261 3.261 0 0 1-2.451-3.305c-.057-1.766-.007-3.538.007-5.3.037-4.212 0-8.424.17-12.631a7.3 7.3 0 0 1 1.122-3.565c.703-1.062 1.678-2.132 3.413-1.415a8.584 8.584 0 0 0 2.93.109c.576.012 1.294-.19 1.7.077 2.829 1.831 6.188 1.361 9.239 2.228a16.055 16.055 0 0 0 10.348-.284 38.534 38.534 0 0 1 5.22-1.136c-1.065-.553-1.544-1-2.055-1.038-2.9-.222-5.813-.237-8.7-.531a43.366 43.366 0 0 1-11.226-3.142c-1.5-.585-2.554-2.334-3.772-3.592-.254-.264-.237-.887-.509-1.025-2.426-1.229-1.977-3.783-2.01-5.592a130.307 130.307 0 0 1 .894-13.384 29.7 29.7 0 0 1 .791-6.193c1.062-3.463 2.725-6.746 3.752-10.217.912-3.073 2.727-5.6 4.3-8.258a18.783 18.783 0 0 1 4.663-5.779c.39-.292.9-.615 1.035-1.03.877-2.628 3.093-2.683 5.267-2.866.193-.015.422-.151.573-.086a64.749 64.749 0 0 1 6.86 3.061c1.287.739 2.315 1.475 3.938 1.186a8.932 8.932 0 0 1 3.038.548c2.27.467 4.523.912 6.843.185 2.964-.926 5.961-1.756 8.933-2.665a7.136 7.136 0 0 0 1.329-.778c-1.7-2.824-5.477-3.542-6.141-7.238a13.992 13.992 0 0 1 6.435-7.987l5.882 4.558c.669-3.13 1.131-5.734 1.8-8.283.455-1.732 1.492-3.248 1.68-5.131.119-1.186 1.512-1.339 3.491-.541 1.137-1.193 1.27-3.593 3.254-3.735 1.583-.114 3.224.568 4.839.9 1.541-1.223 2.04-3 2.72-4.745a45.274 45.274 0 0 1 2.992-6 1.945 1.945 0 0 1 1.746-.575 36.277 36.277 0 0 1 3.908 1.67c1.255.551 2.512 1.094 3.836 1.667.3 4.256-1.714 7.752-3.421 11.452 1.922.929 3.822 1.86 5.734 2.767 1.124.534 1.835.257 2.181-1.033.669-2.493 1.912-4.736 1.554-7.6-.183-1.485 1.487-3.229 2.421-4.792.168-.282 1.119-.489 1.223-.353.753.971 1.524.346 2.379.279a7.689 7.689 0 0 1 7.389 5.264 4.219 4.219 0 0 1-.1 1.739c-1.1 5.946-2.115 11.912-3.367 17.826-.929 4.382-2.213 8.688-3.253 13.048a4.322 4.322 0 0 0 .077 2.611c2.463 5.326 3.374 11.129 5.207 16.645.912 2.745 1.537 5.583 2.418 8.337 1.131 3.535 2.4 7.031 3.594 10.546.217.635.427 1.277.581 1.929.739 3.164.044 4.489-2.967 5.556-1.467.521-2.969.951-4.476 1.428a6.8 6.8 0 0 1-4.326-5.059c-1.322-4.879-2.935-9.676-4.471-14.493a17.755 17.755 0 0 0-1.186-2.352c-.4.543-.793.852-.865 1.223-.4 1.984-.694 3.99-1.055 5.981-.445 2.453-.909 4.9-1.378 7.349-.437 2.275-.84 4.558-1.346 6.818a669.137 669.137 0 0 1-3.162 13.557 26.739 26.739 0 0 1-1.517 4.412c-.936 2.112-3.041 2.048-4.829 2.013a23.919 23.919 0 0 1-5.383-.991 3.587 3.587 0 0 1-2.5-5.062c1.25-3 1.378-6.24 2.169-9.338.452-1.766.721-3.58 1.191-5.338a1.677 1.677 0 0 0-1.087-2.327c-2.063-.872-4.079-1.858-6.126-2.772-1.991-.887-3.995-1.744-6.151-2.683m1.23-31.034c-1.159 3.2-2.307 6.077-3.219 9.024-.479 1.549-.442 3.248-.813 4.839-.534 2.295.062 3.392 2.4 4 .665.173 1.727.161 1.927.566 1.206 2.455 4.57 1 5.761 3.318 2.325.114 4.182 1.492 6.243 2.312a1.52 1.52 0 0 0 2.3-1.042c.543-1.576 1.035-3.172 1.588-4.745.773-2.206 1.7-4.363 2.352-6.6 1.188-4.083 2.176-8.224 3.332-12.317.529-1.868 1.378-3.646 1.875-5.521 1.1-4.121 2.063-8.276 3.1-12.49-2.129-.776-4.227-1.5-6.287-2.307-1.089-.43-2.07-1.168-3.182-1.507-2.49-.761-5.062-1.26-7.539-2.048-2.579-.82-3.463-.516-4.143 1.9-.791 2.814-1.492 5.655-2.332 8.456a2.258 2.258 0 0 0 .934 2.814c.808.546 1.7.961 2.537 1.467 2.189 1.324 4.368 2.665 4.62 5.731a7.978 7.978 0 0 0-1.816 3.866c-.353 2.791-2.243 3.323-4.9 2.787-1.942-.39-3.226-1.628-4.741-2.5m-40.3 17.628c3.441-2.055 6.776-3.928 9.985-5.993 3.118-2.006 6.932-2.337 10.012-4.523a5.111 5.111 0 0 0-2.349.049c-.645.163-1.275.761-1.863.7-3.006-.314-6-.776-8.992-1.188-1.322-.183-2.643-.368-4.027-.561-2.327 3.063-3.083 6.02-2.767 11.517M44.9 82.869c.61-2.651-1.282-4.928-1.371-7.984-3.691 2.206-7.2 3.626-9.921 6.966a14.751 14.751 0 0 0 2.468.6c1.527.054 3.394.534 4.516-.153 1.863-1.139 2.547 1.507 4.308.568"
                />
                <path d="M20.904 22.015c-.166-2.759 1.564-4.489 2.883-6.388a2.047 2.047 0 0 1 1.252-.573c.573-.1 1.245.131 1.754-.077 2.782-1.136 4.647.746 5.931 2.4a16.233 16.233 0 0 1 3.707 11.953c-.054.479.059 1.178-.21 1.4a5.949 5.949 0 0 1-2.69 1.6c-1.727.17-2.614 2.88-4.911 1.356-1.3-.867-3.127-.756-4.086-2.465-1.663-2.967-3.869-5.684-3.629-9.2"
                />
            </g>
        </g>
    </g>
</svg>
