<svg id="Gruppe_45" data-name="Gruppe 45" xmlns="http://www.w3.org/2000/svg" xmlns:xlink="http://www.w3.org/1999/xlink" width="227.559" height="194.943" viewBox="0 0 227.559 194.943">
  <defs>
    <clipPath id="clip-path">
      <rect id="Rechteck_71" data-name="Rechteck 71" width="227.559" height="194.943" fill="none"/>
    </clipPath>
  </defs>
  <g id="Gruppe_44" data-name="Gruppe 44" clip-path="url(#clip-path)">
    <path id="Pfad_121" data-name="Pfad 121" d="M85.888,94.01c.683-1.471,2.35-1.567,3.46-.084a55.9,55.9,0,0,1,3.382,5.05,3.044,3.044,0,0,1,.282,3.249c-.113.193.03.534.048.807.042.635.065,1.272.125,1.906.039.418.142.831.195,1.249.087.683.13,1.452.268,2.035.224.934-.211,1.867.345,2.823a3.179,3.179,0,0,0,2.33,1.406,10.413,10.413,0,0,0,4.026.132,16.224,16.224,0,0,1,2.456-.331c.846-.016,1.694.119,2.542.15.214.008.427-.151.648-.192a7.648,7.648,0,0,1,1.9-.3c1.264.093,2.513.378,3.777.5a2.24,2.24,0,0,1,1.54.709,6.165,6.165,0,0,0,2.865,1.2c1.231.275,2.523.268,3.778.461a1.684,1.684,0,0,0,1.727-.694c.814-1.013,1.626-2.034,2.509-2.986.766-.826,1.667-1.528,2.44-2.35a18.566,18.566,0,0,0,1.455-1.916,6.506,6.506,0,0,0,.644-1.051,29.336,29.336,0,0,0,1.273-2.953c.409-1.221.7-2.483,1-3.736a4.453,4.453,0,0,0,.021-1.065,4.251,4.251,0,0,1-.026-.722,26.519,26.519,0,0,1,.678-3.571,6.194,6.194,0,0,0-.3-3.327c-.025-.117-.083-.281-.03-.352.625-.852-.161-1.642-.093-2.465.011-.139-.047-.3,0-.417.252-.661.527-1.313.844-2.091l1.891-.1c.061-.472.359-.789,1.154-.421.385.179,1.032-.13,1.352.088A4.264,4.264,0,0,1,137.83,86.2a22.605,22.605,0,0,1,.916,2.839,8.9,8.9,0,0,1,.666,4.27c-.206,1.341.055,2.746-.075,4.105-.092.965,0,2.012-.874,2.833-.328.31-.3,1.05-.34,1.6-.078,1.011-.092,2.027-.131,3.042,0,.06.028.155,0,.178-.843.65-.692,1.707-1.072,2.536a21.425,21.425,0,0,1-1.749,2.887c-.7,1.055-1.421,2.106-2.213,3.095-.615.768-1.37,1.424-2.031,2.158-.335.371-.584.821-.908,1.2s-.671.707-1.021,1.044c-.083.079-.3.085-.316.159-.3,1.191-1.589,1.685-1.972,2.819a.9.9,0,0,1-.427.413c-.424.23-.868.42-1.33.64-1.386.266-2.983-.127-4.328,1.083.07-.328.142-.655.249-1.153a7.462,7.462,0,0,1-1.08.274,12.55,12.55,0,0,1-1.678.053,5.423,5.423,0,0,1-1.736-.195c-1.159-.455-2.432.539-3.554-.363-.2-.163-.685-.019-1.03.038-2.227.372-4.332-.648-6.553-.538a41.979,41.979,0,0,1-4.2-.305c-.738-.038-1.488.141-2.223.087-2.008-.143-4.01-.368-6.017-.537-.491-.04-1,.093-1.481.01-1.157-.2-2.3-.479-3.451-.721-.487-.1-1.025.679-.9,1.3.429,2.12.184,2.7-1.61,3.7-1.5.836-2.93,1.831-4.729,1.941a.661.661,0,0,0-.424.158,4,4,0,0,1-4.265,1.158,26.854,26.854,0,0,0-3.135-.144c-.986-.1-1.955-.361-2.939-.5a5.939,5.939,0,0,0-1.148.053c-.027.08-.055.161-.082.241a15.643,15.643,0,0,1-2.052-2.145c-.544-.828-1.336-1.584-1.271-2.757a3.355,3.355,0,0,0-.492-1.324c-.236-.54-.925-.937-.512-1.678a.19.19,0,0,0-.042-.172c-.874-.836-.689-2.061-1.115-3.061a2.559,2.559,0,0,1-.145-.957c-.008-.839.093-1.685.011-2.513a22.669,22.669,0,0,0-.511-2.391c-.077-.368-.122-.743-.174-1.072a11.029,11.029,0,0,1-2.14-.392,8.261,8.261,0,0,1-3.373-1.841,14.856,14.856,0,0,0-1.68-1.544c-.2-.159-.546-.135-.759-.181,0,.947,0,1.789,0,2.631a.582.582,0,0,0,.073.351c.821.941.3,1.818-.094,2.717-.2.468-.287,1-.536,1.439a3.629,3.629,0,0,1-2.274,1.507c-.708.231-1.354.647-2.059.884a25.016,25.016,0,0,1-2.434.618,6.168,6.168,0,0,1-1.109.14c-1.332.05-2.668.162-3.995.1-1.15-.057-2.29-.335-3.438-.49a1.438,1.438,0,0,0-.723.093,44.131,44.131,0,0,1-4.843,2.023,32.141,32.141,0,0,0-2.908,1.476c-1.592.618-3.2,1.2-4.793,1.816-.325.125-.618.339-.945.458-.631.229-1.288.389-1.91.636s-1.221.6-1.851.854c-.855.342-1.746.6-2.6.953-.932.389-1.819.889-2.755,1.271-1,.408-2.046.693-3.035,1.117a3.417,3.417,0,0,0-1.485,1c-.53.782.486.935.767.939,1.073.016,1.669.935,2.626,1.182a27.64,27.64,0,0,1,3.44,1.336q.842.345,1.665.737,1.6.766,3.192,1.562a12.647,12.647,0,0,0,1.669.891c1.668.539,98.919,47.354,100.674,47.706a7.229,7.229,0,0,1,1.639.7,1.742,1.742,0,0,1,.517,2.443c-.254.4-.294.928-.525,1.346-.13.235-.452.363-.751.588.067.176.148.389.2.524a2.469,2.469,0,0,1-3.214,1.034c-.57-.2-97.013-46.055-97.556-46.319q-1.6-.781-3.183-1.614a5.983,5.983,0,0,1-.731-.56c-.305-.229-.65-.679-.92-.639-1.495.218-2.48-.894-3.713-1.328-1.495-.524-2.934-1.212-4.374-1.879-.983-.454-1.905-1.039-2.892-1.482-1.014-.455-2.08-.794-3.11-1.214a4.6,4.6,0,0,1-1.337-.7c-.836-.743-1.938-.792-2.871-1.243a10.983,10.983,0,0,1-1.854-1.327c-.064-.049-.023-.285.025-.414a21.975,21.975,0,0,0,1.175-3.2,8.291,8.291,0,0,1,1.109-2.053c1.062-2.2,3.076-2.6,4.977-3.063A4.479,4.479,0,0,0,9.646,120c.449-.454,1.344-.456,2.025-.7a9.894,9.894,0,0,0,1.152-.542c.341-.173.659-.4,1.012-.543a26.739,26.739,0,0,1,3.28-1.194c1.273-.312,2.261-1.339,3.473-1.508a8.221,8.221,0,0,0,2.489-1.108c1.431-.666,2.983-1.068,4.448-1.668,1.3-.534,2.521-1.271,3.837-1.756a1.288,1.288,0,0,0,.946-1.656c-.2-1.542-.233-3.1-.457-4.64-.2-1.372-.595-2.715-.843-4.081-.11-.6,0-1.243-.116-1.843a5.678,5.678,0,0,0-.578-1.3c-.076-.159-.275-.314-.261-.455a8.267,8.267,0,0,0-.945-4.217,1.083,1.083,0,0,1-.077-.451,16.227,16.227,0,0,0-.732-4.82,11.3,11.3,0,0,1-.021-3.012c0-.12.08-.262.04-.358-.813-1.931-.045-3.939-.282-5.92A32.044,32.044,0,0,1,28.34,72.7a15.719,15.719,0,0,1,.146-3.212c.3-1.071.041-2.347,1.005-3.218.127-.115.286-.344.249-.468-.269-.926.377-1.578.745-2.244.6-1.087.8-2.526,1.954-3.161,1-.55.809-1.436,1.145-2.2a6.6,6.6,0,0,1,1.81-2.107,29.087,29.087,0,0,1,2.655-1.907c1.117-.769,2.235-1.536,3.371-2.276.747-.485,1.517-.936,2.291-1.376.883-.5,1.773-.993,2.679-1.452.843-.428,1.7-.821,2.568-1.206s1.753-.777,2.649-1.116a2.478,2.478,0,0,1,1.244-.222c.9.176,1.722-.705,2.616-.131.77-.922,1.628-.2,2.456-.146.222.015.453-.153.685-.214.2-.05.523-.162.588-.083.93,1.146,2.614.193,3.542,1.292,1.591-.092,2.786,1.145,4.216,1.348,1.866.264,3.432,1.207,5.16,1.759a27.02,27.02,0,0,1,3.125,1.524c.56.264,1.166.426,1.735.672.537.233,1.044.534,1.582.767a6.3,6.3,0,0,0,.96.272,5.486,5.486,0,0,1,.909.226c.9.409,1.562-.252,2.146-.637A17.884,17.884,0,0,1,88.345,50.7c.868-.209,1.688-.6,2.55-.837.445-.122.939-.049,1.4-.131.6-.106,1.177-.331,1.777-.41A29.138,29.138,0,0,1,97.479,49a16.081,16.081,0,0,1,2.024.358,2.346,2.346,0,0,0,1.068-.132,2.255,2.255,0,0,1,2.925.623c.49.572.773,1.317,1.212,1.939a8.378,8.378,0,0,0,1.372,1.628,7.02,7.02,0,0,1,1.913,3.577c.017.053-.041.153-.016.177.856.768.33,1.989.955,2.864a3.851,3.851,0,0,1,.549,1.652,16.211,16.211,0,0,0,.578,3.2,11.851,11.851,0,0,1,.487,3.331c.032.612.026.877.747.645a3.226,3.226,0,0,1,1.19.072c1.172.113,2.347.2,3.509.366a3.957,3.957,0,0,1,1.088.572c1.341-1.476,2.936-2.855,3.667-4.9a.9.9,0,0,1,.282-.319,13.325,13.325,0,0,0,1.559-1.363c.5-.6.92-.55,1.484-.148a4.686,4.686,0,0,0,.917.375,5.026,5.026,0,0,0,1.05.37c.778.094,1.592.217,1.922.986.427,1,.957,2.025.006,3.118a5.935,5.935,0,0,0-.689,1.752,4.146,4.146,0,0,1-.553,1.263c-1,1.117-2.069,2.164-3.1,3.251-.764.8-1.447,1.7-2.281,2.418a6.626,6.626,0,0,1-2.181,1.257c-.724.24-1.755,1.589-1.567,2.365.053.214-.072.464-.059.7.019.371.1.74.126,1.112.03.407.025.816.047,1.224.017.305.06.609.082.916.076,1.135.477,2.387.127,3.372a7.366,7.366,0,0,0-.053,2.583c-.035.852-.118,1.7-.192,2.55-.016.177-.174.419-.106.51a14.738,14.738,0,0,0,1.507,1.807c.294.284.993-.408,1.1-.9a6.948,6.948,0,0,1,.645-1.591c.225-.442.552-.83.794-1.263a.839.839,0,0,1,1.276-.429c.107.056.305-.089.448-.066.432.072,1.049.037,1.248.3.5.666.973.8,1.633.325l.383,1.049c.025-.092.049-.184.075-.276l1.624-.14c.042.672,1.041,1.053.519,1.935a6.065,6.065,0,0,0-.369,1.475c-.378,1.363-.884,2.7-1.129,4.088A7.769,7.769,0,0,1,125.3,103.1c-.617.755-1.7.609-2.55.928a3.057,3.057,0,0,1-3.181-.765,2.5,2.5,0,0,0-1.441-.363,6.463,6.463,0,0,1-3.673-1.286c-.946-.652-2.16-.9-2.857-1.938-.077-.115-.344-.087-.5-.172-.476-.264-.926-.577-1.412-.818a4.78,4.78,0,0,0-1.178-.419c-.705-.14-1.147-.442-1.093-1.243a.971.971,0,0,0-.2-.6c-.4-.513-.83-1-1.143-1.367.39-1.213.735-2.235,1.049-3.267.465-1.529.939-3.058,1.351-4.6a7.988,7.988,0,0,0,.363-2.305c-.067-1.731-.267-3.456-.427-5.181-.068-.728-.171-1.452-.256-2.159-1.295.366-2.418.654-3.523,1a3.026,3.026,0,0,0-2.244,1.845,37.354,37.354,0,0,1-2.249,4.944,25.554,25.554,0,0,1-2.251,3.049c-.513.674-1.016,1.358-1.57,2A1.961,1.961,0,0,1,93.04,90.2a3.447,3.447,0,0,0-1.158-.75,4.812,4.812,0,0,1-.8-.385c-1.076-.939-2.5-1.544-3.2-2.83a10.764,10.764,0,0,1-1.1-3.365,1.6,1.6,0,0,1,.981-1.471c.617-.3,1.022-1.022,1.534-1.545a4.87,4.87,0,0,1,3.326-1.414,3.368,3.368,0,0,1,1.693.707c.525.329.89.219,1.125-.257.58-1.18,1.144-2.37,1.635-3.589a4.67,4.67,0,0,0,.174-1.448c.049-.861.124-1.726.088-2.585-.035-.817-.23-1.626-.293-2.443-.1-1.286-.04-2.592-.245-3.857-.169-1.045.161-2.2-.626-3.147-.155-.188-.06-.587-.07-.89a2.7,2.7,0,0,0,0-.637c-.385-1.323-.792-2.639-1.185-3.935l-2.474-.235a.4.4,0,0,0-.182,0q-1.476.651-2.947,1.311c-.219.1-.429.22-.65.316-.949.409-1.936.747-2.842,1.237A25.707,25.707,0,0,0,83.431,60.6a.661.661,0,0,0-.169.212c-.991,1.678-2.068,3.313-2.931,5.055a7.219,7.219,0,0,0-.562,2.785,33.252,33.252,0,0,0,.131,3.682,7.491,7.491,0,0,0,.236,1.327,1.893,1.893,0,0,1-.822,2.261,11.937,11.937,0,0,1-1.25.818,6.437,6.437,0,0,1-.992.211,4.215,4.215,0,0,0-.676.332c-.777-.309-1.6-.632-2.415-.958-.108-.042-.276-.067-.312-.148-.735-1.654-2.551-2.381-3.37-3.94a2.073,2.073,0,0,1-.178-1.436c.39-1.232-.269-2.248-.519-3.346-.044-.195-.265-.362-.276-.55-.1-1.7-1.177-3.076-1.57-4.648-.506-2.026-1.857-3.452-2.993-5.045a5.709,5.709,0,0,0-1.11-1.038A25.566,25.566,0,0,0,60.7,53.906a6.6,6.6,0,0,0-2.927-1.041,11.7,11.7,0,0,0-4.155.59,36.834,36.834,0,0,0-5.436,2.5,56.369,56.369,0,0,0-5.257,3.27,14.661,14.661,0,0,0-3.7,2.891,14.65,14.65,0,0,1-2.091,1.8c-.14.124-.159.381-.238.576a3.091,3.091,0,0,1-.47,1.055,1.436,1.436,0,0,0-.3,1.651,2.62,2.62,0,0,1-.276,1.324,12.65,12.65,0,0,0-1.114,4.538c.013.349.294.692.292,1.036,0,.682-.165,1.362-.178,2.045-.022,1.219.064,2.44.021,3.657-.061,1.741-.2,3.479-.3,5.219a1.183,1.183,0,0,0,.079.612,8.317,8.317,0,0,1,.747,3.733,18.1,18.1,0,0,0,.921,3.36c.093.344.006.746.13,1.071.274.721.106,1.593,1,2.13.379.228.432,1.091.523,1.683.111.711.089,1.442.152,2.162.074.842.622,1.659.125,2.53,1.069,1.424.325,3.2.921,4.724a.752.752,0,0,1-.04.429c-.231.815.032,1.32.868,1.469,1.191.212,2.393.366,3.558.539.563-1.593-.4-2.822-.51-4.172-.056-.689-.138-1.375-.208-2.062a5.071,5.071,0,0,0-.135-1.131A2.21,2.21,0,0,1,44,99.451c-.04-.259-.06-.529-.124-.788a1.842,1.842,0,0,1,.307-1.9c.713-.826.124-1.794-.1-2.687-.146-.579-.345-1.144-.5-1.721-.406-1.525-.877-3.039-1.166-4.586-.143-.767.241-1.629-.437-2.31-.045-.045-.007-.174,0-.265.03-.663.061-1.326.1-2.088l.865.164A2.932,2.932,0,0,1,45.7,81.71a4.711,4.711,0,0,0,1.382-.461c.06.219.119.435.163.6H49.4l.411-.376.218.045q-.092.746-.186,1.493a2.211,2.211,0,0,0-.058.534,28.363,28.363,0,0,0,.428,2.959,16.673,16.673,0,0,0,1.035,3.231,30.938,30.938,0,0,0,2.5,4.511,11.454,11.454,0,0,0,2.314,1.958c.158.13.378.231.457.4.266.565.834.891,1.243.608a1.6,1.6,0,0,0,.416-1.433,3.066,3.066,0,0,1,.086-1.836,9.881,9.881,0,0,0,.164-2.331c.031-1.345.007-2.691.055-4.035a15.5,15.5,0,0,1,.253-2.717c.151-.7.751-1.348.774-2.031.029-.86.575-1.341.908-1.982a1.14,1.14,0,0,1,1.385-.617c1.29.3,2.726.035,3.857.968,1.017-.392,1.444.5,1.7,1.057a4.444,4.444,0,0,1,.169,2.211c-.159,1.557-.5,3.1-.634,4.653a17.215,17.215,0,0,0,.023,3.779,32.09,32.09,0,0,0,.954,3.209c.262,1.05.866,1.957.793,3.176-.058.946.739,1.912.956,2.912.314,1.449.446,2.937.657,4.408.017.121.039.239.056.36.157,1.135.352,2.267.451,3.408a10.633,10.633,0,0,1-.133,1.716c-.012.145-.067.354.006.428.7.708.294,1.585.32,2.365.02.661-.066,1.262.491,1.755a.831.831,0,0,1,.28.558c-.058,1.361.968,2.217,1.529,3.279a1.806,1.806,0,0,0,1.074.723,15.011,15.011,0,0,0,1.877.2,3.457,3.457,0,0,0,2-.672,5.566,5.566,0,0,1,1.052-.505.862.862,0,0,0,.628-1.393c-.82-1.333-.549-2.864-.939-4.272a11.287,11.287,0,0,1-.422-3.138c.026-1.879.33-3.758.3-5.634a2.958,2.958,0,0,1,.595-2.308c.12-.129.245-.318.392-.345,1.036-.195,2.08-.348,3.119-.529.3-.051.587-.177.888-.22.316-.046.646,0,.96-.058a1.553,1.553,0,0,0,.767-.293c.1-.093.056-.473-.055-.635-.23-.338-.58-.593-.82-.927a9,9,0,0,1-.6-1.09c-.108-.208-.152-.482-.315-.624a2.367,2.367,0,0,1,.518-3.932,5.324,5.324,0,0,0,.577-.411c.263-.182.53-.359.795-.539l.21.138" transform="translate(0 5.421)"/>
    <path id="Pfad_122" data-name="Pfad 122" d="M81.154,177.863c.146-.552.276-1.11.444-1.656a3.926,3.926,0,0,1,.557-1.479c.473-.52.22-1.346,1.023-1.759a2.142,2.142,0,0,1,2-.082c1.6.755,3.164,1.605,4.724,2.452a15.176,15.176,0,0,0,3.278,1.813,27.405,27.405,0,0,1,3.694,1.66c1.373.543,2.7,1.192,4.066,1.761.759.316,1.565.523,2.314.86.613.276,1.168.68,1.76,1.006.29.159.6.273.908.406.692.3,1.382.614,2.077.909.814.347,1.654.637,2.443,1.031.765.38,1.462.9,2.226,1.283.549.277,1.162.428,1.737.655.385.152.758.335,1.134.51a3.392,3.392,0,0,0,3.014-.28c.887-.415,1.8-.774,2.7-1.161.42-.181.825-.409,1.259-.548a8.206,8.206,0,0,0,3.276-1.376c.307-.276.858-.262,1.267-.446,1.562-.7,3.364-.827,4.74-1.977a1.26,1.26,0,0,1,.34-.121c2.347-.9,4.645-1.969,7.055-2.637,1.6-.444,2.923-1.637,4.714-1.559.471.021.938-.625,1.457-.849,1.21-.522,2.457-.955,3.672-1.466.32-.133.548-.48.865-.623,1.542-.692,3.073-1.418,4.659-2a34.07,34.07,0,0,0,4.809-2.058c.525-.288,1.178-.335,1.739-.575.926-.4,1.812-.884,2.736-1.286a6.279,6.279,0,0,1,1.2-.292c.116-.025.3.04.352-.02.878-1.095,2.367-.841,3.451-1.607a18.765,18.765,0,0,1,3.664-1.564,2.515,2.515,0,0,0,.511-.378c.165-.13.357-.4.489-.376,1.335.275,2.124-1.149,3.42-1.064.367.025.758-.4,1.145-.6q1.191-.622,2.389-1.229a5.07,5.07,0,0,1,.834-.347,11.091,11.091,0,0,0,2.786-1.008,20.038,20.038,0,0,1,3.183-1.2c.666-.257,1.31-.569,1.958-.871,2.408-1.126,4.878-2.141,7.2-3.427a51.773,51.773,0,0,0,4.813-3.39,11.008,11.008,0,0,0,1.457-1.059c1.166-1.171,2.291-2.384,3.4-3.609a6.521,6.521,0,0,0,.558-1.03,21.971,21.971,0,0,0,1.3-2.139,13.712,13.712,0,0,0,.709-2.317c.237-.921.43-1.854.635-2.782.266-1.2.536-2.407.777-3.616a4.8,4.8,0,0,0-.037-.754,10.164,10.164,0,0,1,.087-1.211c.037-.256.262-.521.217-.745a11.523,11.523,0,0,1,.1-3.3c.134-1.57.056-3.157.124-4.736.083-1.927.269-3.853.319-5.78.025-.962-.24-1.93-.23-2.892.021-1.846.18-3.689.215-5.534.019-1.065-.1-2.132-.144-3.2a13.791,13.791,0,0,1-.053-3.1c.328-1.68.069-3.362.256-5.033.121-1.079.151-2.17.163-3.257.006-.487-.284-1.015-.177-1.46a10.765,10.765,0,0,0-.057-4.527,14,14,0,0,1,.107-2.5q.028-2.846-.009-5.691c-.022-1.538-.14-3.076-.131-4.614.006-.942.244-1.884.247-2.826.006-1.307-.144-2.614-.17-3.922-.032-1.643-.008-3.288-.008-5.172a9.491,9.491,0,0,1-1.34-.455c-.555-.266-1.041-.671-1.589-.957a11.191,11.191,0,0,1-2.317-1.329c-.455-.395-1.278-.328-1.86-.619-1-.5-1.933-1.145-2.919-1.683-.68-.371-1.4-.666-2.107-.991-.217-.1-.445-.177-.66-.28-1.111-.532-2.237-1.038-3.326-1.613-1.015-.536-1.964-1.2-2.99-1.711-.973-.489-2.006-.859-3.013-1.28-.411-.171-.828-.331-1.238-.511q-.983-.434-1.955-.891c-.376-.177-.75-.359-1.109-.569-.206-.121-.354-.385-.567-.442-.918-.244-1.853-.423-2.774-.654a1.434,1.434,0,0,1-.5-.339c-.134-.115-.227-.363-.361-.381a15.674,15.674,0,0,1-4.4-1.737c-2.114-.977-4.234-1.946-6.31-3-1.468-.745-2.861-1.635-4.3-2.435a4.385,4.385,0,0,0-1.035-.36,6.367,6.367,0,0,1-2.8-1.443,5.545,5.545,0,0,0-2.414-1.5,4.644,4.644,0,0,1-2.019-.531c-1.974-1.456-4.368-1.982-6.524-3.031-1.452-.705-2.84-1.545-4.29-2.254-.65-.318-1.42-.389-2.072-.7-.991-.477-1.927-1.067-2.885-1.612a3.1,3.1,0,0,0-.585-.364,11.78,11.78,0,0,1-1.7-.424c-1.191-.555-2.315-1.248-3.5-1.809-1.252-.591-2.555-1.078-3.821-1.641a11.756,11.756,0,0,1-3.158-1.565c-1.015-.918-2.321-.679-3.381-1.334a23.281,23.281,0,0,0-3.707-1.609c-.994-.395-2.034-.678-3.014-1.1-1.321-.568-2.594-1.245-3.907-1.832-1.374-.615-2.8-1.126-4.148-1.785-.761-.371-1.632-.359-2.336-1.088-.55-.571-1.645-.6-2.472-.929-1.05-.419-2.066-.921-3.11-1.353-.888-.366-1.793-.69-2.7-1.019-1.115-.4-2.27-.718-3.343-1.212A29.824,29.824,0,0,1,93.558,10.1c-.026-.016-.051-.045-.078-.046C91.872,10.006,90.8,8.7,89.35,8.306c-.131-.035-.487.241-.509.4-.132,1-.211,2-.275,3.006a4.814,4.814,0,0,0,.131.8c.149,1.292.342,2.585.41,3.883a20.86,20.86,0,0,1-.209,2.2,18.149,18.149,0,0,0,0,2.15,30.839,30.839,0,0,1,.078,6.028,22.5,22.5,0,0,0,.183,3.773c.017.408-.136.823-.125,1.232.032,1.207.176,2.415.146,3.619-.025,1.055-.246,2.105-.333,3.162-.025.294.17.6.172.9.009,1.475,0,2.95-.03,4.424-.012.555.353,1.346-.464,1.548-.948.235-1.8,1.1-2.934.437a1.737,1.737,0,0,0-1.973-.066c-.367.241-.8.159-.8-.46,0-.121.017-.285-.05-.357-.965-1.032-.288-2.207-.318-3.321-.028-1.06-.148-2.116-.176-3.176-.021-.859.035-1.721.053-2.58.006-.265.015-.531,0-.795-.064-1.187-.171-2.374-.193-3.561-.032-1.626-.02-3.252.013-4.878a3.108,3.108,0,0,1,.293-1.039c.446-1.1-.105-2.134-.177-3.2-.1-1.535-.018-3.082-.009-4.625,0-.243.044-.486.029-.728-.078-1.21-.173-2.418-.252-3.629-.067-1.026-.134-2.054-.167-3.081-.011-.369.124-.742.113-1.11-.044-1.462-.152-2.923-.169-4.384a6.941,6.941,0,0,1,.237-2.024c.273-.925.94-1.279,2.068-1.185a1.033,1.033,0,0,0,1.25-.85A1.482,1.482,0,0,1,87.418.181,3.663,3.663,0,0,0,88.4.494a3.655,3.655,0,0,1,.983.23c.909.561,1.759,1.222,2.673,1.774a10.891,10.891,0,0,0,1.469.559Q95,3.668,96.452,4.32c.315.141.591.372.908.512.511.228,1.035.426,1.563.616.8.286,1.609.542,2.4.836.728.268,1.449.557,2.163.86.983.418,1.952.87,2.935,1.287,1.373.584,2.806,1.05,4.111,1.756a9.507,9.507,0,0,0,2.693.935c.539.112.993.641,1.482.986.1.068.168.193.272.227,1.1.364,2.236.648,3.308,1.083,1.872.76,3.7,1.626,5.56,2.419.9.386,1.847.676,2.747,1.07.842.367,1.637,1.119,2.476,1.157,1.669.074,2.662,1.605,4.312,1.669.644.025,1.267.595,1.9.92q1.04.538,2.076,1.084c.942.5,1.874,1.023,2.826,1.5.547.275,1.125.489,1.692.722,1.034.426,2.071.847,3.106,1.272a2.054,2.054,0,0,1,.579.261,4.392,4.392,0,0,0,2.407,1.067c.632.088,1.165.739,1.794,1.022.973.437,1.995.764,2.985,1.163.181.073.306.278.468.407a2.236,2.236,0,0,0,.59.408,12.659,12.659,0,0,1,1.394.388,39.845,39.845,0,0,0,3.856,1.925,8.2,8.2,0,0,1,2.679,1.465c.328.277.988.121,1.405.339,1,.521,1.923,1.167,2.9,1.722a16.45,16.45,0,0,0,1.581.709c1.169.505,2.347.994,3.506,1.519.235.107.391.376.615.523.306.2.642.357.965.531a3.05,3.05,0,0,1,.449.246c.089.072.107.257.2.3.947.43,1.9.843,2.857,1.258q.527.228,1.059.444c1.466.595,2.936,1.176,4.395,1.785.655.273,1.287.6,1.931.9.587.272,1.186.519,1.759.817.456.239.859.588,1.325.8a15.353,15.353,0,0,0,1.816.645,16.918,16.918,0,0,1,1.731.472c.882.381,1.716.871,2.578,1.3a5.67,5.67,0,0,0,.8.281c.164.051.392.027.493.132a7.167,7.167,0,0,0,2.931,1.4,15.254,15.254,0,0,1,1.993,1.279c.547.321,1.145.553,1.714.837,1.692.844,3.369,1.72,5.074,2.538,2.049.983,4.1,1.971,6.194,2.857a7.9,7.9,0,0,1,3.158,2.376,22.811,22.811,0,0,1,1.419,2.616c.286.483.873.835,1.029,1.338a7.79,7.79,0,0,1,.281,2.407c-.031,1.668-.178,3.334-.236,5-.013.391.181.787.2,1.184a7.06,7.06,0,0,1-.063,1.649,3.069,3.069,0,0,0,.145,2.081c.241.515-.12,1.3-.174,1.973-.037.451-.017.908-.011,1.362.007.529.05,1.058.037,1.585-.032,1.25-.12,2.5-.125,3.75,0,.982-.486,1.989.126,2.945-.7,1.835.333,3.66.025,5.5-.173,1.034-.281,2.08-.421,3.118-.016.119-.1.258-.066.348.7,1.6.189,3.229.125,4.848-.018.443.151.889.158,1.334.015,1.022-.023,2.045-.028,3.067,0,1.235.023,2.471,0,3.705-.015.864-.11,1.726-.13,2.59-.019.815.019,1.631.021,2.446,0,1.291-.02,2.583,0,3.874.013.8.139,1.6.127,2.406q-.04,2.712-.178,5.422c-.022.42-.318.828-.329,1.247-.02.73.169,1.469.116,2.194-.085,1.172-.3,2.333-.447,3.5a6.871,6.871,0,0,0-.028.729,20.516,20.516,0,0,1-.1,3.2,33.317,33.317,0,0,1-1.068,3.662c-.053.173-.18.36-.149.515.371,1.855-.727,3.232-1.5,4.717-.278.534-.511,1.1-.818,1.613-.283.474-.641.9-.965,1.352-.054.074-.159.143-.16.217-.034,1.292-1.111,1.982-1.76,2.881a14.048,14.048,0,0,1-3.113,3.338c-1.639,1.153-2.908,2.853-4.977,3.42-.543.149-.938.775-1.462,1.076a15.391,15.391,0,0,1-1.773.757c-.138.057-.337.084-.4.188a5.219,5.219,0,0,1-2.158,1.611c-.341.2-.843.122-1.211.3a13.666,13.666,0,0,1-2.185,1.158,16.594,16.594,0,0,0-3.056,1.316c-1.149.552-2.5.66-3.713,1.106a19.4,19.4,0,0,0-2.425,1.324,1.14,1.14,0,0,1-.59.2c-.712-.08-1.147.334-1.7.692a22.468,22.468,0,0,1-2.886,1.341c-.633.291-1.252.612-1.883.91-.159.075-.338.111-.5.176-.916.361-1.829.728-2.745,1.088-.958.377-1.923.738-2.878,1.124-.984.4-1.936.892-2.946,1.207-1.559.487-2.817,1.614-4.519,1.859a11.529,11.529,0,0,0-2.895,1.325c-1.2.559-2.391,1.152-3.621,1.64-1.862.74-3.772,1.359-5.627,2.116-1.084.442-2.091,1.069-3.149,1.579-1.215.585-2.445,1.139-3.675,1.693-.461.207-.944.361-1.409.559-1.816.771-3.62,1.57-5.444,2.32a14.283,14.283,0,0,1-3.873,1.4c-1.488.134-2.594,1.025-3.921,1.335a19.486,19.486,0,0,0-3.4,1.352c-.813.354-1.649,1.263-2.774.863-.1-.035-.3.176-.427.3-.11.1-.162.325-.276.356-1.374.364-2.37,1.417-3.712,1.919-1.908.714-3.454-.017-5.052-.663-1.128-.456-2.138-1.2-3.246-1.713-1.18-.547-2.441-.918-3.616-1.471-1.074-.5-2.064-1.188-3.128-1.718-.6-.3-1.281-.419-1.91-.662-1.361-.525-2.74-1.015-4.056-1.638-1.087-.514-2.092-1.2-3.138-1.8a1.278,1.278,0,0,0-.506-.187,6.364,6.364,0,0,1-2.611-1.08c-1.422-.808-2.854-1.611-4.336-2.3-1.412-.656-2.929-1.088-4.33-1.764a14.358,14.358,0,0,1-2.2-1.614l.377-.173" transform="translate(9.534 0)"/>
    <path id="Pfad_123" data-name="Pfad 123" d="M191.534,126.713c-.731.686-1.32,1.258-1.93,1.806-.743.669-1.474,1.357-2.266,1.965a35.361,35.361,0,0,1-3.41,2.417,31.284,31.284,0,0,1-3.239,1.493,2.773,2.773,0,0,0-.594.235,2.974,2.974,0,0,1-2.44.594,4.139,4.139,0,0,0-1.841.39,7.533,7.533,0,0,1-4.652.338c-.116-.032-.256-.1-.351-.065a1.19,1.19,0,0,1-1.659-.66c-.066-.127-.3-.171-.458-.258.1-.171.187-.319.144-.247l-9.351-9.365c-.032.578-.08,1.218-.1,1.858-.037,1.257-.125,2.518-.066,3.771.05,1.09.287,2.172.419,3.26.1.828.132,1.668.268,2.49.047.286.358.519.476.806a4.5,4.5,0,0,1,.338,1.174c.082.709.088,1.425.142,2.423l-1.834.906c-.378.407-.6,1.12-1.185.651a8.36,8.36,0,0,1-2.143.96,2.068,2.068,0,0,1-2.105-1.366c-.274-.726-.635-1.42-.871-2.157a51.762,51.762,0,0,1-1.478-5.055,18.9,18.9,0,0,1-.022-3.1c-.038-1-.162-2-.258-3.113-1.635.107-3.149.216-4.667.3-.195.011-.4-.174-.594-.169s-.542.1-.572.216a18.755,18.755,0,0,0-.331,1.87c-.018.115.069.326.031.345-1.092.559-.263,1.637-.651,2.379a.127.127,0,0,0-.013.089c.473,1.371-.05,2.723-.123,4.076a8.012,8.012,0,0,0,.294,3.8,13.072,13.072,0,0,1,.6,3.646,20.285,20.285,0,0,1,.029,2.333c0,.3-.193.7-.063.882a4.64,4.64,0,0,1,.716,2.573,3.372,3.372,0,0,1-.926,2.3c-.818.8-2,.576-2.874,1.192-.13.092-.483-.133-.783-.227-.091.209-.184.424-.273.626a2.067,2.067,0,0,1-1.954-.817,19.094,19.094,0,0,1-1.027-1.938c-.441-1.338-1.1-2.672-.58-4.158a.607.607,0,0,0-.022-.442,7.382,7.382,0,0,1-.51-3.516,14.571,14.571,0,0,0-.411-2.523,2.961,2.961,0,0,1-.094-2.153c.181-.371-.105-.942-.031-1.4a3.57,3.57,0,0,0-.115-2.65,1.506,1.506,0,0,1,.08-1.294c.9-1.453.275-3.016.442-4.515,0-.03-.017-.068,0-.091.784-1.432.576-3.057.934-4.554.143-.6.324-1.247.5-1.87.221-.8.5-1.578.769-2.359.4-1.15.83-2.29,1.214-3.444.248-.743.441-1.5.656-2.258a2.419,2.419,0,0,1,.143-.512c.6-1.076,1.232-2.133,1.8-3.223.1-.2-.029-.518-.056-.812.17-.144.482-.278.514-.463.06-.345.085-.844-.112-1.042-.167-.167-.679-.035-1.022.039-.227.048-.417.249-.641.34-1.143.466-2.292.919-3.439,1.376-.083.032-.2.108-.246.078-1.172-.793-1.98.233-2.93.563a13.5,13.5,0,0,1-4.956.717,22.813,22.813,0,0,0-2.426.05,2.446,2.446,0,0,1-2.64-2.309,6.473,6.473,0,0,0-.168-1.685c0-.276.018-.553,0-.827a5.144,5.144,0,0,1-.127-1.4c.206-.951,1.135-1.311,1.873-1.562a27.893,27.893,0,0,1,2.953-.351c1.515-.328,3.129.113,4.6-.752.483-.285,1.268.116,1.917-.3a11.516,11.516,0,0,1,2.189-.973,7.471,7.471,0,0,1,1.311-.252c.12-.021.278.023.357-.04a21.622,21.622,0,0,1,4.2-2.145,4.221,4.221,0,0,0,1.071-1.034c.6-.667,1.18-1.356,1.766-2.036.02-.023.03-.058.054-.074a5.492,5.492,0,0,0,1.55-1.225,2.273,2.273,0,0,1,1.841-.416,5.49,5.49,0,0,0,2.184-.286,1.859,1.859,0,0,1,2.106.953,45.449,45.449,0,0,0,2.169,5.075c.97,1.654.856,3.545,1.574,5.235a13.451,13.451,0,0,1,.35,2.385,10.865,10.865,0,0,0,.624,1.721c.555,1.376,1.067,2.775,1.7,4.113a17.6,17.6,0,0,0,1.345,1.944c.21.321.322.7.512,1.04.527.931,1.054,1.863,1.613,2.775a17.226,17.226,0,0,0,1.316,1.943c.581.708,1.256,1.339,1.881,2.012a38.01,38.01,0,0,0,3.341,3.517c.531.442,1.237,1.536,2.3.628.063-.054.319.1.473.179a.805.805,0,0,0,1.118-.088,3.4,3.4,0,0,1,1.485-.5,10.507,10.507,0,0,0,3.412-1.524,7.516,7.516,0,0,1,1.471-.636c.225-.087.595-.045.684-.192a6.684,6.684,0,0,1,1.906-2.02,5.331,5.331,0,0,0,.47-.471c.263-.24.561-.446.8-.708.338-.368.613-.794.955-1.157a.654.654,0,0,0-.265-1.158,4.892,4.892,0,0,1-2.744-1.716,1.346,1.346,0,0,0-.853-.493,3,3,0,0,1-2.643-1.663c-.3-.574-1.216-.792-1.751-1.282a9.52,9.52,0,0,1-2.019-2.226,10.314,10.314,0,0,0-2.129-2.469,15.834,15.834,0,0,1-1.915-2.727c-.047-.069,0-.217-.058-.26a6.909,6.909,0,0,1-1.728-2.653,9.438,9.438,0,0,1-1.249-2.846,1.473,1.473,0,0,0-.328-.621c-.158-.219-.462-.383-.521-.617-.416-1.645-1.723-2.669-2.757-3.845-.354-.4-1.267-.307-1.923-.449-.843-.182-1.695-.339-2.522-.578a3.873,3.873,0,0,1-1.166-.621.855.855,0,0,1-.278-.618,5.1,5.1,0,0,1,.17-1.215c.153-.6.395-1.184.528-1.789.113-.519.106-1.063.189-1.591a1.614,1.614,0,0,1,2.189-1.262,2.652,2.652,0,0,0,.713.144,10.846,10.846,0,0,1,4.2,1.279c1.523.732,2.479,2.062,3.909,2.842.617.337.883,1.3,1.327,1.974.176.265.4.5.642.793l3.819-3.442c1.108.33,2.074.607,2.353,1.778.023.1.16.17.246.253.692.656.692.656.7,1.385.454.267,1.125.44,1.183.736.182.91.832,1.944-.233,2.762-.758.582-1.54,1.133-2.294,1.717a4.2,4.2,0,0,0-.683.7c-.209.261-.32.736-.565.807-.978.287-.846.7-.34,1.357.712.916,1.344,1.893,2.027,2.832.6.826,1.182,1.673,1.85,2.442a8.979,8.979,0,0,0,1.524,1.3c1.418,1.03,2.829,2.074,4.3,3.015a15.277,15.277,0,0,0,2.158.868c.342.149.626.427.963.594a1.717,1.717,0,0,0,.82.226c.613-.042,1.219-.183,1.831-.253.124-.013.369.1.379.18.072.543.478.464.849.568a9.9,9.9,0,0,1,2.14.8,2.812,2.812,0,0,1,.968,3.289,17.428,17.428,0,0,1-1.835,3.173c-.9,1.219-1.979,2.3-2.943,3.476a5.575,5.575,0,0,0-.584,1.033" transform="translate(14.68 10.384)"/>
    <path id="Pfad_124" data-name="Pfad 124" d="M151.027,89.459a3.781,3.781,0,0,1-1.1-.07c-2.092-.792-2.68-2.673-3.092-4.576a8.545,8.545,0,0,1-.115-4.709,16.032,16.032,0,0,1,.9-2.122,3.346,3.346,0,0,1,2.119-1.746c.074-.028.158-.176.184-.163,1.05.522,2.076-.263,3.117-.051.088.018.217.013.257.069.924,1.306,2.66,2,3.021,3.692a27.335,27.335,0,0,1,.318,3.682c.009.119-.087.265-.045.357.731,1.563-.3,2.729-.953,3.938-.193.359-.8.543-1.254.7-.565.2-1.232-.1-1.635.75-.278.586-1.042.53-1.584-.034-.042.094-.086.189-.129.284" transform="translate(17.282 8.968)"/>
    <path id="Pfad_125" data-name="Pfad 125" d="M99.152,98.608c-.283.54-.528,1.116-.865,1.631a1.916,1.916,0,0,1-2.328.873,5.349,5.349,0,0,0-2.379.266,2.488,2.488,0,0,1-3.174-2.986,21.126,21.126,0,0,0,.174-2.413c.028-.562,1.038-1.023,1.639-.779a1.732,1.732,0,0,0,.79.054c.666-.067,1.327-.207,1.993-.245.61-.035,1.232.092,1.836.029a1.514,1.514,0,0,1,1.7,1.036c.206.825.4,1.652.615,2.533" transform="translate(10.664 11.213)"/>
  </g>
</svg>
