<?xml version="1.0" encoding="utf-8"?>
<!-- Generator: Adobe Illustrator 27.7.0, SVG Export Plug-In . SVG Version: 6.00 Build 0)  -->
<svg version="1.1" id="Ebene_1" xmlns="http://www.w3.org/2000/svg" xmlns:xlink="http://www.w3.org/1999/xlink" x="0px" y="0px"
	 viewBox="0 0 90.3 97.5" style="enable-background:new 0 0 90.3 97.5;" xml:space="preserve">
<g>
	<path d="M71.4,55.2c-0.1-0.1-0.2-0.2-0.3-0.3c-0.1-0.1-0.1-0.1,0-0.2c0.2-0.2,0.3-0.4,0.3-0.6c0-0.1,0-0.3-0.1-0.4
		c-0.2-0.2-0.2-0.6,0-0.8c0.2-0.2,0.2-0.3,0-0.5c-0.2-0.2-0.2-0.3,0.1-0.4c0.2-0.1,0.2-0.1,0.1-0.2c-0.2-0.3-0.2-0.3,0.1-0.6
		c0,0,0.1-0.1,0.1-0.1c-0.1-0.3,0.3-0.2,0.3-0.5c0-0.2,0-0.5-0.2-0.7c-0.1-0.1-0.1-0.2,0-0.3c0.2-0.2,0.2-0.5,0.1-0.7
		c0-0.2,0-0.4,0.2-0.5c0.1-0.1,0.3-0.2,0.3-0.4c0-0.1,0.1-0.2,0-0.3c-0.1-0.2-0.1-0.5,0-0.8c0-0.1,0.3,0,0.2-0.2
		c-0.2-0.3-0.1-0.4,0.2-0.5c0.2-0.1,0.1-0.2,0-0.3c-0.2-0.2-0.1-0.3,0.1-0.3c0.1-0.1,0.2-0.2,0.3-0.3c0.1-0.3,0.2-0.5,0.4-0.8
		c0.1-0.2,0.1-0.5,0.3-0.7c0.1-0.1,0.1-0.3,0-0.4c-0.1-0.1-0.1-0.3,0-0.5c0-0.2,0.3-0.2,0.3-0.3c0.1-0.1-0.2-0.2-0.1-0.4
		c0,0,0-0.1,0-0.1c0-0.2,0.4-0.1,0.3-0.3c-0.1-0.1,0-0.2,0-0.3c0-0.1,0-0.3-0.1-0.4c-0.1-0.1,0.1-0.2,0.1-0.2
		c0.1-0.1,0.3-0.2,0.1-0.4c-0.1-0.1,0.1-0.2,0.1-0.3c0.2-0.2,0.2-0.5,0-0.7c-0.1-0.2-0.1-0.4,0-0.5c0.1-0.2,0.1-0.4,0.1-0.6
		c0-0.2,0.1-0.3,0.2-0.3c0.1-0.1,0.2-0.2,0.2-0.4c0-0.1-0.2-0.2,0-0.4c0.1-0.1,0-0.3,0-0.4c0-0.2,0.1-0.3,0.2-0.5
		c0.2-0.2,0.2-0.3,0-0.5c-0.1-0.1-0.1-0.2,0-0.3c0.1-0.1,0.2-0.1,0.1-0.2c-0.1-0.1,0.2-0.2,0.1-0.3c-0.1-0.1,0.1-0.2,0.2-0.2
		c0-0.1,0-0.2,0-0.2c0-0.4-0.1-0.8,0.1-1.2c0,0,0-0.1-0.1-0.1c-0.1,0-0.2,0-0.2,0c0,0.3-0.2,0.5-0.4,0.6C75,33.9,75,34,75,34.1
		c0,0.1,0,0.3,0,0.4c0,0.1,0,0.2,0,0.2c-0.4-0.1-0.3,0.3-0.3,0.4c-0.1,0.1-0.2,0.2-0.3,0.2c-0.2,0.1-0.4,0.3-0.4,0.5
		c0,0.3-0.1,0.4-0.4,0.5c-0.2,0.1-0.5,0.2-0.5,0.4c0,0.2-0.3,0.4-0.3,0.6c0,0.3-0.2,0.3-0.4,0.3c-0.1,0-0.3,0.1-0.4,0.1
		c-0.2,0-0.3,0.1-0.3,0.2c0,0.2,0,0.3-0.2,0.2c0,0-0.1,0-0.1,0c-0.2,0-0.3,0.3-0.5,0.2c-0.2-0.1-0.4,0-0.6,0c-0.3,0-0.6-0.1-0.8,0.1
		c-0.1,0-0.1,0-0.1-0.1c-0.1-0.1,0-0.1,0-0.2c0.1-0.2,0.1-0.2,0-0.3c0,0-0.1,0-0.2,0c-0.4-0.1-0.7-0.2-0.8-0.6c0-0.1-0.2,0-0.3-0.1
		c-0.2-0.1-0.4,0-0.5-0.2c-0.1-0.1-0.1-0.3-0.3-0.3c0,0,0-0.1,0-0.1c-0.2-0.1-0.4,0-0.5-0.3c0-0.2-0.1-0.3-0.2-0.5
		c-0.1-0.1,0-0.3-0.2-0.3c-0.2,0-0.4-0.2-0.3-0.5c0-0.1-0.1-0.2-0.2-0.2c-0.1,0-0.2-0.1-0.2-0.2c0-0.3,0-0.5-0.4-0.6
		c-0.1,0-0.1-0.1-0.1-0.2c0-0.2-0.1-0.5-0.4-0.4c-0.1-0.2-0.5-0.2-0.5-0.6c0-0.2-0.2-0.4-0.3-0.5c-0.1-0.2-0.4-0.3-0.4-0.6
		c0-0.1-0.2-0.1-0.3-0.2c-0.3-0.1-0.4-0.2-0.3-0.5c0-0.1,0-0.1,0-0.2c-0.1-0.1-0.2-0.1-0.3-0.2c-0.1-0.1-0.2-0.2,0-0.3
		c0.2-0.1,0.2-0.4,0.4-0.6c-0.3,0.1-0.6,0.2-0.9,0c-0.4,0.1-0.9,0.2-1.3,0.4c-0.3,0.2-0.6,0.2-0.9,0.1c-0.2-0.1-0.4-0.1-0.4,0.2
		c0,0.2-0.2,0.1-0.3,0.2c-0.3,0-0.5,0-0.8,0c-0.3-0.1-0.3-0.1-0.3,0.2c0,0.1,0,0.1,0,0.2c-0.2,0.1-0.2,0.3-0.2,0.5
		c0,0.2,0.1,0.4-0.2,0.5c0,0,0,0.1,0,0.1c0,0.2,0,0.4-0.2,0.4c0.1,0.1-0.2,0.2-0.1,0.3c0.1,0.1,0,0.1-0.1,0.1c-0.2,0-0.3,0-0.3,0.3
		c0,0.1-0.1,0.2-0.2,0.3c-0.1,0.2-0.2,0.3-0.4,0.2c-0.2-0.1-0.3,0.1-0.4,0.3c-0.1,0.2-0.2,0.3-0.4,0.4c-0.4,0-0.5,0.4-0.7,0.7
		c-0.1,0.2-0.1,0.3-0.4,0.3c-0.2,0-0.3,0.2-0.3,0.3c-0.1,0.2-0.1,0.4-0.5,0.4c-0.2,0-0.2,0.1-0.3,0.2c-0.2,0.2-0.4,0.4-0.8,0.4
		c-0.2,0-0.2,0.3-0.4,0.3c0,0.2-0.1,0.2-0.3,0.1c-0.1-0.1-0.1-0.2-0.3-0.2c-0.1,0-0.1,0.2-0.1,0.2c0,0.1-0.1,0.2-0.2,0.1
		c-0.3-0.3-0.7,0.1-1,0c-0.1,0.2-0.4,0-0.6,0.2c-0.1,0.1-0.4,0-0.6,0.1c-0.3,0.1-0.5,0-0.7-0.1c-0.2-0.1-0.4-0.2-0.7,0
		c-0.1,0.1-0.2,0-0.2-0.1c0-0.1-0.1-0.2-0.2-0.2c-0.2-0.1-0.2,0-0.3,0c0,0-0.1,0.1-0.1,0.1c-0.2-0.2-0.3,0-0.5,0
		c-0.2,0.1-0.3-0.2-0.5-0.1c-0.2,0.1-0.3,0-0.4,0c-0.1-0.1-0.2-0.1-0.3-0.1c-0.1,0-0.2,0.2-0.4,0c-0.1-0.1-0.3,0.1-0.4,0.2
		c-0.1,0.1-0.2,0.1-0.3,0c-0.1-0.1-0.2-0.1-0.2-0.3c0,0,0-0.1-0.1-0.1c-0.3,0.1-0.4-0.3-0.7-0.3c-0.4-0.1-0.6-0.4-0.9-0.4
		c-0.1,0-0.2-0.1-0.1-0.3c0.1-0.1,0.1-0.3-0.2-0.3c-0.2-0.3-0.6-0.6-0.9-0.7c-0.3-0.1-0.3-0.5-0.2-0.6c0.1-0.2-0.1-0.3,0-0.4
		c0.2-0.2,0-0.3,0-0.4c0.1-0.2-0.1-0.5,0-0.7c0-0.1,0-0.2,0.1-0.2c0.4,0,0.2-0.3,0.1-0.4c-0.1-0.2-0.1-0.3,0-0.4c0,0,0-0.1,0.1-0.1
		c0-0.8,0.1-0.9,0.6-1.4c0.1-0.1,0.2-0.2,0.3,0c0.1,0.1,0.1,0,0.2-0.1c0.2-0.1,0.2-0.4,0.5-0.4c0.1,0,0.1-0.1,0-0.2
		c-0.1-0.2,0.3-0.4,0.5-0.3c0.1,0,0.2,0.1,0.2-0.1c0-0.2,0.1-0.3,0.1-0.4c0-0.2,0.1-0.3,0.3-0.3c0.2,0,0.4-0.1,0.6-0.1
		c0.1,0,0.1-0.1,0.1-0.1c0-0.1,0.1-0.1,0.2,0c0,0,0.1,0.1,0.1,0.1c0.2-0.2,0.4-0.3,0.7-0.3c0,0,0,0,0,0c0-0.5,0.6-0.4,0.8-0.7
		c0.4,0,0.8-0.3,1.2,0c0.1,0,0.2,0.1,0.3-0.1c0.1-0.3,0.5-0.3,0.7-0.2c0.1,0,0.2,0,0.2,0c0-0.2,0.1-0.2,0.3-0.1
		c0.1,0.1,0.2-0.1,0.3-0.1c0.1,0,0.2,0.2,0.3,0.1c0,0,0.5,0.1,0.5,0.1c0,0,0,0.1,0.1,0.2c0.1-0.1,0.2-0.3,0.3-0.4
		c0.2,0.2,0.3,0.3,0.4,0.4c0.1,0,0.2,0,0.2-0.1c0-0.1,0-0.2,0.1-0.1c0.2,0.2,0.4,0.2,0.6,0.1c0.2-0.1,0.2-0.1,0.3,0.1
		c0,0.3,0.1,0.3,0.3,0.1c0.2-0.1,0.4-0.1,0.5-0.2c0.1,0,0.2,0,0.2,0.1c0.1,0.2,0.3,0.2,0.4,0.2c0.1,0.1,0.2,0,0.2-0.1
		c0-0.1-0.1-0.3,0.2-0.1c0.1,0.1,0.3,0.1,0.4,0c0.2-0.2,0.4-0.2,0.7-0.2c0.2,0,0.3,0.1,0.3,0.2c0,0.3,0.1,0.2,0.3,0.2
		c0.3,0,0.5-0.1,0.8-0.1c0.2,0,0.3,0,0.5,0c0.2,0,0.3,0.2,0.4,0.1c0.1-0.1,0.3-0.3,0.3-0.4c0.1-0.2,0.1-0.1,0.3-0.1
		c0.3,0.2,0.3,0.1,0.4-0.1c0.1-0.1,0.1-0.1,0.2-0.1c0.1,0.1,0.4,0.1,0.4,0.1c0.2-0.2,0.3-0.1,0.4,0.1c0.1,0.1,0.2,0.1,0.2,0
		c0.1-0.1,0.2-0.2,0.4-0.2c0.3,0,0.5-0.2,0.6-0.4c0.1-0.3,0.3-0.3,0.4-0.2c0.3,0.2,0.5,0.1,0.6-0.1c0.1-0.1,0.2-0.1,0.3,0
		c0.2,0.1,0.3-0.1,0.5-0.1c0.1,0,0.2-0.1,0.3,0c0.1,0.1,0.1,0,0.1,0c0-0.4,0.3-0.4,0.6-0.5c0.1,0,0.2,0,0.2-0.1
		c0-0.1-0.1-0.3,0.2-0.3c0.1,0,0.3,0.1,0.4,0.1c0.2,0.1,0.3,0.2,0.4-0.1c0.1-0.3,0.1-0.3,0.5-0.3c0.2,0,0.5,0,0.7,0
		c0.4,0,0.5,0.1,0.5,0.5c0,0.2,0,0.4,0,0.6c0,0.2,0.1,0.4,0.2,0.6c0.1,0.1,0.2,0.1,0.1,0.2c0,0.1-0.1,0.2-0.2,0.3
		c0,0.1-0.1,0.1-0.2,0.1c0,0.1,0.2,0.1,0,0.2c-0.2,0.2,0.1,0.2,0.1,0.4c0,0.1-0.1,0.3,0.2,0.3c0.1,0,0.1,0.2,0.1,0.3
		c-0.1,0.1-0.1,0.3,0,0.3c0.2,0,0.3,0.3,0.5,0.3c0.1,0,0.3,0.2,0.1,0.4c0,0,0,0.1,0.1,0.2c0.3,0.1,0.4,0.3,0.4,0.6
		c0,0.3,0.1,0.6,0.5,0.5c0.2,0,0.3,0.1,0.3,0.3c0,0.2-0.1,0.4,0.1,0.5c-0.2,0.2,0,0.3,0.1,0.3c0.1,0,0.2,0,0.3,0.1
		c0.2,0.3,0.6,0.4,0.9,0.4c0.4,0,0.5-0.2,0.6-0.5c0-0.1,0-0.2,0-0.3c0-0.1,0-0.1,0.1-0.1c0.3,0.1,0.2-0.2,0.3-0.3
		c0.2-0.4,0.3-0.9,0.8-1.1c0.2-0.1,0.4-0.3,0.3-0.5c0-0.4,0.2-0.6,0.4-0.7c0.2-0.1,0.2-0.2,0.2-0.3c0-0.1,0-0.3,0-0.4
		c0-0.3,0-0.5,0.3-0.7c0.2-0.1,0-0.4,0.2-0.5c0.2-0.1,0.3-0.2,0.2-0.4c0,0,0.1-0.1,0.1-0.1c0.2-0.5,0.3-0.5,0.2-1
		c0-0.2,0.1-0.4,0.1-0.5c0-0.1,0.1-0.2,0-0.3c-0.1,0,0-0.1,0.1-0.2c0.4-0.4,0.4-0.4,0.4-0.8c0.1-0.1,0.4,0,0.5-0.1
		c0.1-0.1,0.1,0,0.1,0.1c0.1,0,0.1,0.2,0.2,0.1c0.1,0,0.2-0.1,0.1-0.2C75.7,22,76,22,76.1,21.9c0.1-0.2,0.4-0.2,0.5-0.4
		c0.2-0.2,0.4-0.3,0.5-0.6c0-0.1,0.1-0.2,0.2-0.3c0.2-0.1,0.4-0.1,0.5-0.1c0.1,0,0.3,0.1,0.4,0c0.1-0.1,0.2,0,0.3-0.1
		c0.2-0.1,0.2,0.3,0.4,0.1c0.1-0.1,0.3-0.1,0.4-0.2c0.2-0.1,0.3-0.2,0.4,0c0.1,0.2,0.3,0.1,0.4,0c0.2-0.2,0.3-0.4,0.6-0.1
		c0,0,0.1-0.1,0.2-0.1c0.2,0,0.7,0.1,0.8,0.2c0.1,0.1,0.3,0.1,0.4,0c0.2-0.1,0.2,0,0.3,0.1c0.1,0.2,0.2,0.3,0.4,0.4
		c0,0,0.1,0.1,0.1,0c0.3-0.2,0.5,0,0.6,0.2c0.1,0.3,0.4,0.4,0.3,0.8c-0.1,0.2,0.1,0.5,0.3,0.5c0.4,0,0.4,0.3,0.4,0.6
		c0,0.2,0,0.3,0.2,0.3c0.1,0,0.2,0.1,0.2,0.3c0,0.2,0,0.4,0.2,0.5c0.1,0,0,0,0,0.1c-0.2,0.2,0,0.4,0.1,0.5c0.1,0.1,0.2,0.3,0.3,0.5
		c0,0.1,0,0.2,0.1,0.2c0.4-0.1,0.3,0.2,0.3,0.4c0,0.3,0,0.5,0.3,0.5c0.2,0,0.2,0.1,0.1,0.2C86,26.7,86.3,27,86,27.1
		c0.1,0.2,0.2,0.3,0.4,0.4c0.2,0.1,0.2,0.1,0.2,0.3c0,0.4,0,0.4,0.2,0.6c0.1,0.1,0.2,0.2,0,0.3c-0.1,0.1-0.1,0.1,0,0.2
		C87,29,87,29.1,87,29.2c-0.1,0.3,0.1,0.5,0.3,0.7c0.1,0.1,0.1,0.1,0,0.3c-0.1,0.1,0.1,0.4-0.1,0.6c-0.1,0.1,0,0.1,0.1,0.1
		c0.2,0,0.3,0.2,0.3,0.4c0,0.2,0,0.3,0,0.5c0,0.4,0,0.4,0.3,0.7c0.1,0.1,0,0.1,0,0.2c0,0.1-0.1,0.2-0.1,0.3
		c-0.1,0.2-0.1,0.2,0.1,0.3c0.1,0,0.2,0.1,0.1,0.3c-0.1,0.1-0.2,0.3-0.2,0.5c0,0.2,0,0.3,0.2,0.5c0.1,0.1,0.2,0.2,0.3,0.3
		c0.1,0.2,0.2,0.3,0.2,0.4c-0.2,0.2,0,0.5-0.1,0.7c-0.2,0.2,0,0.3,0.1,0.4c0.2,0.1,0.1,0.2,0.1,0.4c-0.2,0.3,0.3,0.2,0.2,0.4
		c0,0.1-0.2,0.3-0.1,0.4c0,0,0.1,0.1,0.1,0.1c0.1,0.1,0.2,0.2,0.1,0.2c-0.2,0.1,0.1,0.4-0.2,0.4c0,0-0.1,0.1-0.1,0.1
		c-0.1,0.1,0,0.1,0,0.1c0.2,0.1,0.2,0.3,0.2,0.5c0,0.2,0,0.3,0.1,0.4c0,0.1,0.2,0.3,0.1,0.4c-0.1,0.2,0.1,0.3,0,0.3
		c-0.1,0.1-0.1,0.3-0.1,0.4c0,0.1-0.1,0.1-0.1,0.1c0,0-0.1,0-0.1,0.1c0.2,0.2,0.1,0.4,0.1,0.6c0,0.2,0.1,0.3,0.1,0.5
		c-0.2,0.2,0,0.3,0.1,0.3c0.1,0,0.1,0.1,0,0.2c-0.3,0.3,0,0.7-0.2,0.9c-0.1,0.1,0.1,0.1,0.1,0.2c0,0.2,0.2,0.2,0.1,0.4
		c0,0.2-0.2,0.3-0.2,0.4c0,0.1,0.2,0.2,0.3,0.3c0,0,0,0.1,0,0.2c-0.2,0.3-0.2,0.6-0.5,0.8c0.1,0.1,0.2,0.2,0.3,0.2
		c0.2,0.1,0.2,0.3,0,0.5c-0.1,0.1-0.1,0.2,0,0.4c0.1,0.4,0.3,0.8,0,1.1c-0.1,0.1-0.1,0.2,0,0.3c0.2,0.3,0.3,0.7,0.1,1
		c-0.1,0.1,0.3,0.3,0,0.5c-0.1,0.1-0.1,0.3,0.1,0.5c0,0,0,0.1,0,0.2c0,0.1-0.3,0.2-0.2,0.2c0.1,0.2,0,0.2,0,0.3c0,0.1,0,0.2-0.1,0.3
		c0,0,0,0.1,0,0.2c0.2,0.2,0.1,0.5,0.1,0.7c0,0.2,0.2,0.3,0.1,0.4c0,0.1-0.1,0.2,0,0.3c0.1,0.1,0,0.2-0.1,0.3
		c-0.1,0.1-0.1,0.1-0.2,0.2c-0.1,0.2-0.2,0.3,0,0.4c0.1,0.1,0.1,0.2,0.1,0.2c0,0.1,0.1,0.1,0,0.2c-0.2,0.1-0.2,0.4-0.1,0.5
		c0.1,0.2,0,0.2,0,0.3c-0.1,0.2-0.2,0.5,0,0.7c0.2,0.2,0.2,0.3,0,0.4c-0.1,0.1-0.1,0.2,0,0.3c0.1,0.1,0.1,0.4,0,0.6
		c0,0.1,0,0.3,0,0.4c0.1,0.2,0.1,0.4,0,0.6c-0.1,0.1,0.2,0.3,0,0.4c0.1,0.2-0.1,0.3-0.1,0.4c-0.1,0.2,0.1,0.3,0.2,0.4
		c0.1,0.2,0.1,0.2,0,0.3c-0.1,0.2-0.3,0.5,0,0.7c0,0,0,0,0,0.1c0,0.1,0,0.2,0,0.3c0,0.1-0.1,0.1-0.1,0.2c0,0.1,0.2,0.1,0.1,0.2
		c-0.1,0.2-0.2,0.3,0,0.5c0.1,0,0,0.1,0,0.2c-0.3,0.1,0.1,0.3-0.1,0.5c-0.1,0.1,0,0.3,0,0.5c0,0.2,0,0.3-0.1,0.5
		c-0.2,0.1-0.2,0.4,0,0.5c0.1,0.1,0.3,0.2,0.1,0.4c0,0,0,0.1,0,0.2c0.2,0.2-0.1,0.4,0,0.6c0.1,0.1,0,0.2,0.1,0.3
		c0.1,0.2-0.1,0.3-0.1,0.4c0.1,0.1,0,0.3,0.1,0.4c0,0.2,0,0.4,0.2,0.6c0.2,0.3,0.2,0.6,0.2,0.9c0,0.2-0.2,0.2-0.3,0.3
		c-0.1,0.2-0.2,0.3,0,0.4c0.3,0.1,0.3,0.3,0.3,0.6c0.1,0.4,0.1,0.8,0.4,1.1c0.1,0.1,0.1,0.2,0.1,0.3c0,0.1,0,0.2,0.1,0.4
		c0.2,0.3,0.2,0.3,0,0.6c-0.1,0.3,0,0.6,0.3,0.6c0.1,0,0.2,0,0.2,0.2c0,0.2,0,0.4,0.2,0.6c-0.1,0.2,0,0.5-0.1,0.6
		c-0.2,0.3,0,0.5,0.1,0.7c0.1,0.2,0.2,0.3-0.1,0.4c-0.2,0.1-0.4,0.3-0.4,0.6c0.1,0.2-0.4,0.3-0.1,0.5c0,0-0.1,0.1-0.1,0.1
		c-0.2,0-0.3,0-0.5,0c-0.2,0-0.3,0-0.4,0.2c-0.1,0.2-0.4,0.3-0.6,0.5c0,0-0.1,0.1-0.1,0.1c-0.3-0.3-0.5,0.1-0.7,0.1
		c-0.1,0-0.2,0-0.3-0.1c-0.1-0.1-0.2-0.2-0.3-0.3c-0.1-0.1-0.2-0.2-0.3-0.2c-0.2,0-0.5,0-0.6-0.2c-0.1-0.2-0.4-0.1-0.4-0.4
		c0,0-0.1-0.2-0.2-0.2c-0.1,0-0.1-0.1-0.1-0.1c0.1-0.3-0.2-0.5-0.1-0.7c0-0.2-0.1-0.3-0.2-0.4c-0.1-0.1-0.2-0.2-0.2-0.4
		c0-0.1,0-0.1-0.1-0.1c-0.4-0.2-0.5-0.3-0.4-0.7c0,0,0-0.1,0-0.1c-0.1-0.1-0.2-0.2-0.3-0.3c-0.2-0.1,0.2-0.2,0-0.3
		c-0.1-0.1-0.1-0.2-0.2-0.3c0,0,0,0,0,0c0-0.2,0.2-0.3,0.1-0.5c-0.1-0.1-0.4-0.1-0.3-0.2c0.1-0.2,0-0.2-0.1-0.2c0,0-0.1-0.1-0.1-0.1
		c0.2-0.2,0-0.3,0-0.5c0-0.1,0.1-0.1,0.1-0.1c0.1-0.1,0.1-0.2,0-0.2c-0.4-0.1-0.1-0.4-0.2-0.6c0.2-0.2,0.1-0.3,0-0.5
		c-0.1-0.1-0.1-0.3,0-0.4c0.1-0.2,0.3-0.4,0-0.6c-0.1,0-0.1-0.1-0.1-0.2c0-0.3,0-0.6-0.3-0.7c-0.1,0-0.1-0.1-0.1-0.2
		c0-0.3-0.2-0.5,0.1-0.8c0.1-0.1,0.1-0.5,0-0.6c-0.1-0.1-0.2-0.2-0.2-0.3c0-0.1,0.2-0.2,0.1-0.3c-0.1-0.1,0-0.2-0.1-0.3
		c0,0,0-0.1-0.1-0.1c0.2-0.1,0-0.4,0.2-0.5c0.1,0,0.1-0.1,0.1-0.2c0-0.1-0.3-0.2-0.2-0.3c0.1-0.1,0-0.2,0.1-0.3
		c0-0.1-0.2-0.2-0.1-0.3c0-0.1,0.1-0.2,0.2-0.3c0,0,0-0.1,0-0.1c0-0.4,0-0.8,0.2-1.1c0,0,0-0.1,0-0.2c-0.3,0-0.2-0.2-0.1-0.4
		c0.1-0.1,0-0.2,0.1-0.3c0.1-0.2-0.2-0.3,0-0.5c0.1-0.1-0.1-0.3-0.2-0.4c-0.1-0.2,0-0.2,0.1-0.3c0.3-0.2,0.4-0.5,0.4-0.9
		c0-0.1-0.1-0.2-0.1-0.3c0-0.1-0.3-0.3,0-0.5c0.1-0.1-0.1-0.3-0.1-0.4c0-0.1,0.1-0.2-0.1-0.3c-0.2-0.1-0.3,0.3-0.5,0.2
		c-0.2-0.1-0.3-0.2-0.4-0.4c-0.1-0.1-0.2-0.1-0.2,0c-0.2,0.2-0.5-0.1-0.7,0.2c0,0.1-0.1,0-0.1-0.1c-0.1-0.1-0.2-0.2-0.4-0.3
		c-0.1-0.1-0.2-0.1-0.4,0c-0.3,0.1-0.5,0.1-0.8,0c-0.1-0.1-0.2-0.2-0.4,0c0,0-0.2,0-0.3-0.1c0,0-0.1-0.1-0.1-0.1
		c-0.3-0.4-0.6-0.5-1.1-0.4c0,0-0.1,0-0.1,0c-0.4,0-0.4,0-0.3,0.4c0,0.1,0.1,0.1,0,0.2c-0.3,0.3-0.2,0.8-0.3,1.2
		c-0.1,0.2-0.1,0.5,0.2,0.6c0.1,0.1,0.1,0.3,0,0.4c-0.1,0.2-0.1,0.4,0.1,0.6c0.2,0.2,0.1,0.5,0.2,0.7c0,0,0,0.1-0.1,0.1
		c-0.2,0.1-0.2,0.3-0.3,0.4c-0.1,0.1-0.1,0.2,0,0.4c0.3,0.3,0.6,0.6,0.7,1.1c0,0.3,0.3,0.3,0.6,0.3c0.2,0,0.4-0.1,0.4,0.2
		c0,0.1,0.2,0.2,0.3,0.1c0.1,0,0.2,0,0.2,0c0.1,0.2,0.1,0.4,0.3,0.5c0.1,0.1,0.4-0.1,0.6,0.1c0.1,0.1,0.2,0.2,0.3,0.3
		c0.1,0,0.1-0.2,0.2,0c0.1,0.1,0.2,0,0.2,0.2c0.1,0.2,0.2,0.4,0.4,0.6c0.1,0.1,0,0.1,0,0.2c-0.2,0.2-0.2,0.5-0.1,0.6
		c0.1,0.2,0,0.5,0.2,0.7c0.1,0.2,0.1,0.3-0.1,0.4c-0.2,0.2-0.2,0.4-0.2,0.6c0,0.2,0,0.4,0.2,0.6c0.1,0.1,0.2,0.1,0.1,0.2
		c-0.1,0.1-0.3,0.2-0.1,0.4c0.1,0.1-0.1,0.3-0.1,0.5c-0.1,0.1,0,0.1,0,0.2c0.1,0.2,0.3,0.4,0,0.5c-0.2,0.1-0.1,0.4-0.1,0.6
		c0,0,0.1,0.1,0.1,0.1c0.1,0.2-0.2,0.4-0.1,0.6c0.1,0.1,0.3,0.3,0.1,0.5c0,0,0,0.1,0,0.2c0.1,0.1,0.1,0.2,0,0.3c0,0-0.2,0.1-0.1,0.2
		c0.4,0.2,0,0.5,0.2,0.7c0.1,0.1-0.2,0.2-0.1,0.3c0.1,0.1,0.1,0.2,0,0.3c-0.1,0.1,0,0.3,0.1,0.4c0.1,0.1,0.2,0.2-0.1,0.3
		c-0.1,0-0.1,0.1,0,0.2c0.1,0.1,0.2,0.3,0.4,0.4c-0.2,0.2-0.4,0.4-0.5,0.5c0,0.2,0.1,0.2,0.2,0.3c0.1,0.1,0.1,0.2,0.1,0.3
		c0,0.2,0.1,0.5,0.2,0.8c0,0.1,0.1,0.2,0,0.3c-0.3,0.3-0.1,0.7-0.2,1c-0.1,0.1,0.1,0.2,0.2,0.2c0.1,0.1,0.2,0.1,0,0.3
		c-0.1,0.1-0.1,0.3,0,0.4c0.2,0.2,0,0.2-0.1,0.3c-0.1,0.1-0.1,0.2-0.1,0.3c0.1,0.2,0.1,0.2,0,0.5c-0.1,0.1-0.1,0.2-0.2,0.3
		c-0.1,0.1-0.1,0.2,0,0.3c0.2,0.2,0.4,0.4,0.4,0.7c0,0.3-0.3,0.4-0.5,0.6c0,0-0.1,0.1-0.1,0.1c0.1,0.1,0.1,0.2,0.2,0.2
		c0.3,0.1,0.4,0.2,0.2,0.5c-0.1,0.1,0,0.2,0.1,0.3c-0.4,0.3-0.2,0.6,0,0.9c0,0,0,0.1-0.1,0.1c-0.1,0.3-0.1,0.7,0.2,0.9
		c0,0,0.1,0.1,0.1,0.1c-0.1,0.2,0,0.3,0.1,0.5c0,0-0.1,0.1-0.1,0.1C81,84.4,81,84.5,81,84.7c0,0.3-0.2,0.6-0.1,1
		c0,0.1-0.1,0.2-0.2,0.3c-0.1,0.1-0.2,0.2-0.2,0.3c0,0.1-0.1,0.2-0.2,0.2c-0.1,0-0.2-0.1-0.3-0.2c0-0.3-0.1-0.1-0.2,0
		c-0.1,0-0.2,0-0.2-0.1c0,0,0-0.1,0-0.1c-0.1-0.1-0.1-0.1-0.2,0.1c-0.1,0.1-0.1,0.2-0.3,0.2c-0.2,0-0.4,0.1-0.6,0.1
		c-0.1,0-0.2,0.1-0.2,0.1c-0.2,0.1-0.2,0.4-0.5,0.4c0,0,0,0,0,0c0,0.4-0.3,0.3-0.5,0.3c-0.2,0-0.4,0-0.5,0.3c0,0.1-0.2,0.2-0.4,0.2
		c-0.2,0-0.4,0.1-0.6,0.1c-0.1,0-0.2,0-0.2,0.2c0,0.1-0.2,0.2-0.3,0.2c-0.1,0-0.3,0-0.3,0.1c-0.1,0.2-0.2,0.3-0.5,0.2
		c-0.2-0.1-0.5-0.1-0.6,0.1c-0.2,0.4-0.6,0.3-0.8,0.5c-0.1,0.1-0.1,0-0.2-0.1c-0.1-0.1-0.2,0-0.2,0c-0.2,0.3-0.4,0.4-0.6,0.4
		c-0.5-0.1-0.8,0.2-1.2,0.4c-0.1,0-0.1,0.2-0.1,0.2c-0.1,0.1-0.1,0.2-0.3,0c0,0-0.1,0-0.1,0c-0.2,0.4-0.5,0.2-0.8,0.2
		c-0.2,0-0.3,0-0.4,0.2c-0.1,0.3-0.4,0.3-0.6,0.2c-0.1-0.1-0.1,0-0.1,0.1c0,0.2,0,0.3-0.2,0.2c-0.3,0-0.5,0.2-0.7,0.1
		c-0.1,0-0.1,0.1-0.2,0.1c-0.1,0.1-0.1,0.3-0.3,0.3c-0.1,0.1-0.3-0.1-0.4,0.1c-0.2-0.3-0.2,0.2-0.3,0.1c-0.2,0-0.4,0-0.5,0.2
		c0,0-0.1,0.1-0.1,0c-0.2-0.3-0.3,0-0.4,0c-0.3,0.1-0.4,0.2-0.5,0.4c-0.1,0.1-0.2,0.2-0.3,0.2c-0.2,0-0.4,0-0.5,0.2
		c-0.1,0.1-0.1,0.1-0.2,0c-0.1-0.2-0.3,0-0.4-0.1c-0.1,0.1,0,0.3-0.1,0.5c0,0-0.1,0-0.2,0c-0.3-0.1-0.5-0.1-0.6,0.2
		c0,0.1-0.1,0.1-0.2,0.1c-0.2,0-0.4,0-0.5,0.2c-0.2-0.2-0.4,0-0.5,0.1c-0.1,0.1-0.3,0.1-0.4,0.3c-0.1,0.1-0.2,0.1-0.3,0
		c0,0-0.1,0-0.1,0.1c0,0.2-0.1,0.2-0.2,0.3c-0.3-0.2-0.5,0.2-0.8,0.1c-0.4-0.1-0.7,0.1-0.9,0.3c-0.1,0.1-0.2,0.1-0.3,0.1
		c-0.3,0-0.5,0.1-0.6,0.4c-0.1,0.2-0.2,0.1-0.2,0c-0.1-0.2-0.2-0.2-0.3,0c-0.1,0.1-0.2,0.1-0.3,0.1c-0.5,0-0.7,0.2-0.9,0.6
		c-0.1,0.2-0.1,0.2-0.3,0.1c-0.1,0-0.1,0-0.1,0.1c0,0.2-0.1,0.2-0.3,0.1c-0.1,0-0.1-0.1-0.2-0.1c-0.1,0-0.3,0-0.4-0.1
		c-0.1,0.1-0.1,0.2-0.1,0.3c0,0.2-0.2,0.2-0.2,0.3c-0.1,0.1-0.1,0.1-0.2,0.1c-0.3-0.2-0.7-0.2-1,0c-0.1,0.1-0.3,0-0.4-0.1
		c-0.2-0.3-0.5-0.4-0.8-0.5c-0.3,0-0.6-0.2-0.9-0.2c-0.1,0-0.1,0-0.1-0.1c-0.4-0.5-0.4-0.5-1-0.5c-0.2,0-0.3-0.2-0.5-0.1
		c-0.2,0.1-0.3-0.2-0.5-0.3c-0.2-0.1-0.4-0.1-0.6-0.2C48,95.3,47.9,95,47.7,95c0-0.3-0.3-0.3-0.5-0.4c-0.1,0-0.1-0.1-0.2,0
		c-0.2,0.1-0.4,0.1-0.5-0.2c0-0.1-0.1-0.1-0.2-0.2c-0.1-0.1-0.1,0-0.1,0c-0.1,0.3-0.3,0-0.4,0c-0.2,0-0.3,0-0.3-0.2
		c0,0-0.1-0.1-0.1-0.1c-0.2-0.1-0.3-0.2-0.5-0.2c0-0.3-0.3-0.2-0.4-0.2c-0.2,0-0.3-0.1-0.3-0.2c-0.1-0.3-0.2-0.3-0.4-0.3
		c-0.2,0-0.3,0-0.3-0.2c0-0.1-0.2-0.2-0.2-0.1c-0.2,0.2-0.3,0-0.5-0.1c-0.1-0.1-0.2-0.2-0.3-0.1c-0.3,0.1-0.4-0.2-0.6-0.4
		c-0.1-0.1-0.2-0.2-0.3-0.1c-0.1,0-0.3,0.1-0.4,0c-0.2-0.1-0.5,0-0.7-0.4c-0.1-0.3-0.5-0.4-0.8-0.6c-0.2,0.2-0.4-0.1-0.5,0
		c-0.2,0-0.4-0.1-0.4-0.2c-0.1-0.3-0.3-0.4-0.6-0.5C37.4,90,37.5,90,37.1,90c-0.1,0-0.2,0-0.2,0c-0.1-0.2-0.3-0.2-0.5-0.2
		c0,0-0.1,0-0.1,0c0-0.4-0.5-0.3-0.6-0.5c-0.1-0.1-0.2-0.1-0.2-0.1c-0.3,0.3-0.3,0-0.4-0.1c-0.1-0.2-0.4-0.2-0.6-0.2
		c-0.3,0-0.3,0-0.5-0.3c-0.1-0.1-0.1-0.2-0.3-0.2c-0.2,0-0.2-0.1-0.3-0.2c-0.1-0.1-0.3-0.1-0.4,0c-0.1,0.1-0.1,0.1-0.1,0
		c0-0.1-0.1-0.2-0.1-0.3c-0.1-0.2-0.2-0.3-0.4-0.2c-0.2,0-0.4,0-0.6,0c0-0.1,0-0.1,0-0.1c0-0.3,0-0.3-0.1-0.4
		c-0.1,0-0.3-0.1-0.4-0.2c-0.1,0.2-0.2-0.1-0.3,0c0,0-0.2-0.2-0.3-0.2c-0.1-0.1-0.2,0.1-0.3,0.1c-0.1,0-0.2,0-0.2-0.2
		c-0.1-0.2-0.3-0.5-0.6-0.6c-0.1-0.1-0.2,0-0.3-0.1c-0.1-0.1-0.3,0.2-0.4,0c-0.1-0.1-0.2-0.2-0.4-0.2c0,0-0.1-0.1-0.1-0.1
		c-0.1-0.3-0.3-0.3-0.5-0.2c-0.2,0-0.4,0-0.3-0.3c0,0,0-0.1-0.1-0.1c-0.2,0-0.4,0-0.5-0.2c-0.1-0.1-0.4,0.1-0.5-0.1
		c-0.1-0.2-0.2-0.3-0.4-0.4c0-0.3-0.3-0.2-0.5-0.3c-0.1-0.1-0.4,0-0.3-0.3c0,0-0.1-0.1-0.1-0.1c-0.3,0.1-0.4,0-0.5-0.2
		c0,0-0.2,0-0.3,0c-0.3,0.2-0.5,0-0.7-0.1c-0.1-0.1-0.3-0.3-0.4-0.3c-0.2,0-0.3-0.3-0.5-0.3c-0.1,0-0.2-0.1-0.3-0.2
		c-0.3,0-0.6-0.1-0.7-0.5c0-0.1-0.2-0.1-0.3,0c-0.3,0.1-0.4,0.1-0.6-0.2c-0.1-0.2-0.3-0.3-0.5-0.5c-0.1-0.1-0.3-0.1-0.4-0.1
		c-0.2,0-0.5,0.1-0.5-0.3c0-0.1-0.1-0.1-0.2-0.1c-0.3,0-0.6-0.1-0.7-0.4c-0.1-0.1-0.1-0.2-0.3-0.2c-0.3,0-0.4-0.3-0.7-0.3
		c-0.2,0.1-0.4,0-0.5-0.3c0-0.1-0.1-0.2-0.3-0.1c-0.1,0.1-0.3,0.1-0.4-0.2c-0.1-0.2-0.4-0.3-0.6-0.3c-0.3,0-0.5-0.1-0.6-0.3
		c-0.1-0.2-0.2-0.3-0.4-0.3c-0.2,0-0.3-0.1-0.5-0.2c-0.2-0.2-0.5-0.4-0.8-0.4c0,0,0,0-0.1,0c-0.3,0.1-0.4-0.4-0.6-0.3
		c-0.3,0.1-0.4,0-0.5-0.2c-0.1-0.1-0.2-0.3-0.3-0.3c-0.3,0-0.5-0.4-0.8-0.3c-0.1,0-0.3,0.1-0.3-0.2c0-0.1-0.1-0.1-0.2,0
		c-0.1,0.2-0.2,0.1-0.3,0c-0.2-0.2-0.2-0.2-0.3-0.2c-0.4,0-0.4,0-0.5-0.4c0-0.1-0.2-0.2-0.3-0.2c-0.1,0-0.1,0.1-0.2,0.2
		c-0.1,0.1-0.1,0.1-0.2,0c-0.1-0.1-0.2-0.2-0.3-0.3c-0.1-0.1-0.3-0.2-0.5-0.3c-0.2,0-0.4,0-0.4-0.3c0-0.1-0.1-0.1-0.1-0.1
		c-0.2,0-0.5-0.1-0.7-0.1c-0.2,0-0.3-0.1-0.3-0.2c0-0.1-0.1-0.2-0.2-0.1c-0.1,0-0.2,0-0.2,0c-0.2-0.3-0.5-0.2-0.7-0.1
		c-0.1,0-0.2,0-0.2-0.2c-0.1-0.3-0.4-0.4-0.8-0.4c-0.1,0-0.2,0-0.2-0.1c-0.1-0.4-0.3-0.4-0.6-0.4c-0.2,0-0.4,0.1-0.4-0.2
		c-0.1,0-0.2-0.1-0.3-0.1c-0.1,0-0.3,0-0.3-0.2c-0.2,0-0.2-0.2-0.4-0.2c-0.4-0.1-0.4-0.1-0.4-0.5c0-0.2-0.1-0.2-0.2-0.4
		c-0.1-0.2-0.2-0.3,0-0.4c0.1-0.1,0-0.1-0.1-0.1c-0.2-0.1-0.2-0.3-0.2-0.5c0.1-0.8,0.1-0.8,0-1.3c0-0.1,0-0.2,0-0.3
		c0.2-0.2,0.1-0.5,0-0.7c-0.1-0.2,0.2-0.4-0.1-0.5c0-0.2,0-0.3-0.1-0.5c-0.1-0.1,0.1-0.3,0-0.5c-0.1-0.1,0.1-0.2,0.2-0.3
		c0.2-0.2,0.2-0.3,0-0.5C1,66.2,1,66,1.2,65.8c0.1-0.2,0-0.4,0.1-0.5c0.1-0.1,0-0.1-0.1-0.2C1.1,65,1.1,64.8,1,64.7
		c0.2-0.1,0-0.2,0.1-0.4c0.2-0.2,0-0.5-0.1-0.6c-0.2-0.2-0.1-0.4,0.1-0.5c0.1,0,0.2-0.1,0.2-0.2c0.1-0.1,0.1-0.2,0-0.3c0,0,0,0,0,0
		c-0.4-0.3-0.3-0.7-0.1-1c0.1-0.2,0.1-0.3-0.1-0.3c-0.1,0-0.1-0.1,0-0.2c0,0,0.1-0.1,0-0.1c-0.3-0.2-0.2-0.5,0-0.6
		c0.3-0.3,0.2-0.6,0.2-0.9C1,59.4,1.1,59.2,1.1,59c0-0.2-0.1-0.3-0.1-0.5c0-0.1,0-0.3,0.1-0.4c0.2-0.1,0.2-0.3,0-0.4
		c-0.1-0.1-0.1-0.2-0.1-0.3c-0.1-0.2-0.1-0.5,0.1-0.7c0.1-0.1,0.2-0.1,0.3-0.2c-0.3-0.4-0.4-0.9-0.2-1.3c0,0,0,0,0-0.1
		C0.9,55,1,54.6,1,54.3c0-0.2,0-0.4,0.2-0.6c0.1,0,0.1-0.1,0.1-0.2c-0.2-0.3,0-0.8-0.3-1.1c-0.1-0.1,0-0.1,0-0.2
		C1,52.2,1,52.1,1,52.1c0-0.4,0-0.4,0.3-0.7c0.1-0.1,0.2-0.1,0.2-0.2c0-0.1,0.1-0.1,0.2-0.1c0.2,0,0.3-0.2,0.1-0.3
		c-0.2-0.2-0.3-0.5-0.4-0.8c0-0.1,0-0.2,0-0.2c0.5,0.1,0.2-0.5,0.5-0.5C1.9,49,2,49,2.2,49c0.3,0,0.6,0.1,0.8-0.2
		c0.3,0.1,0.5-0.3,0.8,0c0,0,0.2,0,0.3-0.1c0.2-0.2,0.4-0.3,0.7-0.2c0.1,0,0.2,0,0.2-0.1c0.1-0.2,0.4-0.2,0.4-0.4
		c0.4,0,0.6-0.3,0.9-0.4c0.1,0.1,0.2-0.1,0.4,0c0.2,0.1,0.3-0.2,0.4-0.1c0,0,0.1,0,0.1,0c0.1-0.4,0.7-0.3,0.8-0.5
		c0.1-0.2,0.3,0.2,0.3-0.1c0-0.2,0.2-0.1,0.3-0.1c0.2,0,0.2-0.2,0.3-0.2c0.1,0,0.2,0,0.2,0c0.4,0,0.8-0.1,1.1-0.4c0,0,0.1,0,0.2-0.1
		c-0.1-0.1-0.1-0.3-0.4-0.1c-0.1,0.1-0.4-0.2-0.5,0.1c-0.1-0.1-0.3-0.2-0.3-0.4c0-0.2-0.1-0.2-0.3-0.3c-0.2-0.1-0.5-0.1-0.7-0.4
		c-0.1-0.1-0.2-0.1-0.3-0.1c-0.2,0-0.3-0.1-0.3-0.2c0.1-0.4-0.4-0.4-0.6-0.7C6.9,43.9,7,43.7,7,43.5c0-0.1,0-0.1-0.1-0.1
		c-0.2,0-0.1-0.1-0.2-0.2c0-0.1,0-0.2-0.2-0.3c-0.2,0-0.3-0.2-0.4-0.3c-0.1-0.1-0.1-0.1,0-0.2C6.3,42.1,6.3,42,6.1,42
		c-0.1,0-0.1-0.1-0.2-0.2c-0.1-0.2-0.1-0.5-0.3-0.7c-0.1-0.1-0.2-0.3-0.2-0.5c0-0.1,0-0.2,0-0.3c0-0.1-0.1-0.1-0.2-0.1
		c0,0-0.1,0.1-0.1,0.1c-0.1,0.2-0.1,0.4,0,0.6c0.1,0.1,0,0.3,0.1,0.4c0.1,0.2,0.1,0.4,0,0.6c-0.2,0.4-0.2,0.8-0.3,1.3
		c0,0.3,0,0.4-0.1,0.5c-0.1,0.3-0.1,0.5-0.5,0.5c0,0-0.1,0.1-0.1,0.1c-0.1,0.4-0.5,0.3-0.7,0.4c-0.1,0.1-0.4,0.1-0.6-0.1
		c0-0.1-0.1,0-0.2,0c-0.1,0,0,0.3-0.2,0.2c-0.1,0-0.2-0.2-0.3-0.2c-0.1-0.1-0.2,0-0.2,0.1c0,0.1,0.1,0.2,0,0.3
		c-0.2,0-0.2-0.1-0.3-0.2c-0.1-0.1-0.2-0.1-0.3,0c-0.1,0.2-0.2,0.1-0.3,0c-0.3-0.1-0.5-0.3-0.6-0.6c0-0.1-0.1-0.2-0.2-0.2
		c-0.2-0.1-0.2-0.3-0.1-0.4c0.2-0.3,0.2-0.5,0.1-0.8c-0.1-0.3,0-0.5-0.1-0.8c0.2-0.1,0-0.2,0-0.3c0-0.2-0.3-0.2-0.2-0.4
		c0.1-0.1,0.1-0.3,0.2-0.3c0,0,0-0.1,0-0.1c-0.1-0.2-0.1-0.4,0-0.6c0.1-0.2-0.1-0.4,0.1-0.6c-0.2-0.1,0-0.3-0.2-0.5
		c-0.1-0.1-0.1-0.3,0-0.4c0.1-0.1,0.2-0.2,0.1-0.4c-0.1-0.1,0.2-0.2,0.1-0.4c-0.1-0.1,0.1-0.4-0.2-0.4c-0.1,0-0.1-0.2,0-0.3
		c0-0.3,0.2-0.6,0.1-1c0.2-0.2,0.1-0.3-0.1-0.4c-0.1-0.1-0.1-0.2,0-0.3c0.1-0.2,0.2-0.5,0-0.7c-0.1-0.2,0.2-0.3,0-0.5
		c-0.1-0.2,0-0.3,0.1-0.4c0.1-0.1,0.1-0.1,0-0.2c-0.1-0.2-0.2-0.4-0.1-0.6c0.1-0.2-0.1-0.4-0.2-0.5c-0.1-0.1-0.1-0.2,0-0.3
		c0,0,0.2-0.1,0.1-0.2c-0.2-0.3,0.3-0.6-0.1-0.9C0,31.3,0.1,31.1,0,31c0.2-0.1-0.2-0.4,0.1-0.5c0-0.2-0.1-0.4,0.1-0.5
		c0,0,0-0.1,0-0.2c0,0-0.1-0.1-0.1-0.1c0-0.3,0.1-0.5,0.1-0.7c-0.1-0.3-0.1-0.5,0-0.7c0.1-0.1,0.1-0.3-0.1-0.4
		C0,27.8,0,27.7,0.1,27.5c0.1-0.3,0-0.6,0.3-0.9c-0.1-0.2-0.1-0.3-0.2-0.5c0-0.1-0.2-0.3-0.1-0.3c0.2-0.2,0-0.2,0-0.4
		c0-0.1,0.1-0.2,0.1-0.2c0-0.1,0.1-0.1,0-0.2c-0.1-0.1-0.3-0.2-0.1-0.4c0,0,0.1-0.2,0-0.3C0,24.2,0,24.1,0,24c0.2-0.2,0-0.4,0.1-0.6
		c0.1-0.2,0-0.5,0-0.7c0-0.2,0-0.4-0.1-0.6C0,22,0,21.7,0.1,21.4c0.1-0.4,0-0.9,0.1-1.3c0-0.2-0.1-0.4,0.1-0.5
		c0.2-0.2,0.4-0.5,0.7-0.4c0.2,0,0.3-0.1,0.4-0.2c0.1-0.2,0.1-0.4,0.4-0.1C1.9,18.9,2,18.7,2,18.6c0.1-0.2,0.1-0.3,0.4-0.3
		c0.1,0,0.1-0.1,0.2-0.1C2.8,18,2.8,18,3.2,18.1c0.1,0,0.2,0,0.3-0.1c0.1-0.4,0.4-0.3,0.6-0.2c0.3,0.1,0.3,0.1,0.5-0.2
		c0.1-0.1,0.2-0.3,0.4-0.3c0.1,0,0.3-0.1,0.3-0.2C5.4,17,5.6,17,5.8,17c0.3,0,0.4-0.2,0.5-0.4c0.2-0.4,0.2-0.8,0.3-1.2
		c0,0,0-0.1,0-0.1c-0.2-0.1-0.1-0.3-0.1-0.4c0-0.2,0.1-0.3,0.3-0.3c0.1,0,0.2-0.1,0.2-0.3c0-0.1,0.1-0.1,0.1-0.3
		c0-0.1,0.2,0,0.3-0.2c0-0.2,0.2,0,0.3,0c0.1,0,0.4-0.1,0.5-0.2c0.1-0.1,0.1-0.1,0.2,0c0.1,0.1,0.2,0.1,0.1,0.2c0,0,0.1,0.1,0.1,0
		c0.1-0.4,0.4-0.1,0.6-0.3c0-0.1,0.2,0.1,0.3,0.2c0.1,0.2,0.2,0.2,0.2,0c0.1-0.3,0.2-0.2,0.4-0.1c0.1,0.1,0.2,0.2,0.3,0.2
		c0.1,0.1,0.1,0,0.1,0c0.1-0.1,0.2-0.1,0.2,0.1c0,0.1,0,0.2,0,0.3c0.1,0.1,0.1,0.3,0.3,0.1c0.2-0.1,0.3-0.1,0.5,0
		c0.2,0.1,0.4,0.1,0.5,0c0.2-0.1,0.5-0.2,0.5-0.4c0.1-0.4,0.4-0.4,0.7-0.4c0.3-0.1,0.5-0.2,0.7-0.4c0.1-0.1,0.1-0.1,0.2,0
		c0.3,0.1,0.7-0.1,1-0.1c0.2,0,0.3-0.3,0.4-0.5c0.2-0.2,0.3-0.3,0.6-0.2c0.1,0,0.1,0.1,0.2,0.1c0.1,0,0.3,0.1,0.3-0.2
		c0-0.1,0.1,0,0.2-0.1c0.2-0.1,0.4-0.1,0.5-0.4c0-0.2,0.2,0,0.3-0.1c0.2-0.2,0.5-0.3,0.7-0.2c0.1,0,0.1,0,0.1-0.1
		c0-0.4,0.3-0.2,0.5-0.2c0.2,0,0.3,0,0.5-0.2c0.2-0.2,0.5-0.2,0.8-0.4c0.2-0.2,0.6-0.1,0.8,0c0.1,0.1,0.1,0,0.1,0
		c0.1-0.1,0.3-0.3,0.4-0.4c0.1-0.2,0.3-0.2,0.4-0.4c0-0.1,0.2-0.1,0.2-0.1c0.1,0,0.3,0,0.4-0.1C23,9.7,23,9.7,23.3,9.7
		c0.1,0,0.2-0.1,0.3-0.1c0.2,0,0.4-0.2,0.6,0c0.1,0.1,0.2,0,0.3-0.1c0.1-0.1,0.1-0.2,0.1-0.3c0.2-0.2,0.4-0.4,0.6-0.2
		c0.2,0.1,0.3,0.1,0.4,0c0.2-0.2,0.3-0.3,0.5-0.5c0.1-0.1,0.2-0.1,0.3-0.1c0.2,0.2,0.3,0,0.4,0c0.1,0,0.3,0.1,0.4-0.1
		c0,0,0.1,0,0.2,0c0.2,0,0.4,0,0.4-0.2c0.5,0.1,0.6-0.2,0.8-0.5c0,0,0.1-0.1,0.1,0c0.1,0.1,0.2,0.1,0.3,0.2c0.3,0.2,0.6,0.2,0.8,0
		c0.1-0.1,0.2-0.1,0.3-0.1c0.2,0,0.1,0.2,0.2,0.3c0.2,0.1,0.3,0.3,0.5,0.4c0.2,0.1,0.2,0.2,0,0.4c-0.1,0.1-0.1,0.1,0,0.3
		C31,8.9,31,9.3,31.4,9.2c0.1,0,0.1,0.1,0.1,0.2c0,0.1,0,0.3,0.2,0.3c0.1,0,0.1,0.1,0,0.2c-0.1,0.1-0.1,0.1-0.2,0.2
		c-0.1,0.1-0.1,0.2,0.1,0.2c0,0,0.1,0,0.1,0c0.2,0.1-0.2,0.3,0,0.3c0.1,0,0.2,0.1,0.3,0.2c0.1,0.1,0,0.2-0.1,0.2
		c-0.1,0.1-0.3,0.2,0,0.3c0.1,0,0.1,0.1,0,0.2c0,0-0.1,0.1,0,0.1c0.4,0,0,0.2,0,0.2c-0.1,0-0.3,0.1-0.4,0.1c-0.4,0-0.7,0.3-1.1,0.1
		c-0.3-0.1-0.2,0.3-0.4,0.2c-0.2,0-0.4,0.1-0.6,0.1c-0.2,0-0.2,0.1-0.1,0.2c0.2,0.1,0.1,0.3,0.3,0.4c0.1,0.1,0.1,0.1,0.1,0.3
		c0,0.3,0,0.5,0.1,0.8c0,0.1,0,0.2,0,0.3c0,0-0.1,0.1-0.1,0.1c0.3,0.2,0.2,0.5,0.2,0.8c0,0.1,0,0.2,0,0.2c0.2,0.2,0.2,0.4,0,0.7
		c-0.1,0.1-0.1,0.3,0.1,0.5c0.1,0.1,0.2,0.2,0.3,0.3c0.1,0.1,0,0.1,0,0.2c-0.1,0.2,0,0.5,0,0.8c0,0.1,0.2,0.2,0,0.3
		c0,0,0,0.1,0.1,0.1c0.2,0.1,0.2,0.3,0,0.4c-0.1,0.1-0.2,0.2,0,0.3c0.1,0.1,0.1,0.2,0.2,0.3c0.1,0.1,0,0.3,0.1,0.4
		c0.1-0.2,0.4-0.2,0.6-0.3c0,0,0.1,0,0.2,0c0.2,0.4,0.6,0.2,0.9,0.2c0.1,0,0.2,0,0.2,0c0.1,0,0.2,0.1,0.2,0.2
		c0.1,0.1,0.1,0.4,0.4,0.3c0,0,0.1,0.1,0.2,0.2c0,0.1,0,0.1,0.1,0.1c0.2,0,0.2,0.1,0.3,0.2c0.1,0.1,0.3-0.1,0.4,0.1
		c0.1,0.1,0,0.3,0.1,0.4c0.1,0.1,0.1,0.2,0.3,0.2c0.2,0,0.1,0.1,0.1,0.2c0.1,0.1,0,0.4,0.2,0.4c0.2,0,0.3,0.1,0.2,0.3
		c0,0.1,0,0.2,0,0.2c0.2,0.1,0.2,0.3,0.2,0.5c0,0.1,0.2,0.3,0.2,0.3c-0.3,0.3,0.4,0.5,0.2,0.8c0.2,0.2,0.2,0.5,0.2,0.8
		c0.3,0.2,0.1,0.7,0.5,0.9c0.1,0.1,0.1,0.2,0,0.4c-0.1,0.2-0.1,0.4,0.1,0.6c0,0,0.1,0.1,0.1,0.1c-0.1,0.4,0.2,0.7,0.1,1
		c0,0.2-0.2,0.3,0.1,0.4c0.1,0,0.1,0.2,0,0.3c-0.3,0.3-0.2,0.6-0.1,0.9c0.1,0.2,0.1,0.4-0.1,0.5c-0.2,0.2-0.2,0.4-0.1,0.5
		c0.1,0.2,0.1,0.3,0,0.4c-0.3,0.1-0.3,0.3-0.2,0.6c0,0.4,0,0.5-0.2,0.8c-0.1,0.1,0.1,0.2,0.1,0.3c0,0.1-0.1,0.1-0.1,0.2
		c0,0.3-0.1,0.5-0.3,0.7c-0.1,0.1-0.2,0.2-0.1,0.2c0.3,0.3,0,0.4-0.2,0.6c-0.2,0.2-0.4,0.4-0.4,0.7c0,0.2-0.1,0.3-0.3,0.3
		c-0.1,0-0.2,0.1-0.3,0.1c-0.1,0-0.1,0.1-0.1,0.2c0,0.1,0,0.2,0,0.3c0,0,0,0.1,0,0.1c0,0.1-0.8,0.6-0.8,0.5c-0.1,0-0.2-0.1-0.2,0
		c-0.2,0.3-0.6,0.3-0.9,0.6c-0.2,0.2-0.4,0.3-0.7,0.1c-0.1-0.1-0.3-0.1-0.4,0.1c-0.1,0.1-0.2,0.1-0.3,0.1c-0.3,0.1-0.4-0.3-0.8-0.1
		c-0.2,0.1-0.5-0.1-0.7-0.3c-0.1-0.1-0.2-0.1-0.4,0c-0.1,0.1-0.2,0.1-0.4,0c-0.2-0.2-0.3,0-0.3,0.1c-0.1,0.2,0,0.4,0,0.6
		c0.2,0,0.2,0.2,0.3,0.3c0.2,0.2,0.4,0.4,0.2,0.7c0,0,0,0.1,0,0.2c0.2,0.2,0,0.3,0,0.5c0,0.1,0,0.3,0.2,0.3c0,0,0,0,0.1,0
		c0.2,0,0.2,0.3,0.3,0.4c0.1,0,0.3,0,0.4,0.1c0.2,0.2,0.6,0.2,0.9,0.5c0,0.1,0.2,0,0.3,0c0.1,0,0.1-0.1,0.2,0
		c0.1,0.2,0.3,0.1,0.5,0.1c0.2-0.1,0.4,0,0.4,0.2c0.1,0.5,0.5,0.4,0.8,0.5c0.1,0,0.2,0,0.2,0c0.2,0,0.2,0.1,0.3,0.2
		c0.2,0.3,0.2,0.3,0.4,0.3c0.1,0,0.2,0.1,0.3,0.1c0.1,0.1,0.3,0.2,0.4,0.2c0.3,0,0.4,0.2,0.5,0.4c0.1,0.2,0.3,0.2,0.3,0.1
		c0.2-0.2,0.3-0.1,0.4,0c0.2,0.1,0.5,0.1,0.6,0.3c0,0,0.1,0,0.1,0c0.1,0.1,0.3-0.2,0.4,0c0.1,0.1,0.2,0.1,0.4,0.2
		c0.1,0.1,0.3,0.1,0.4,0.1c0.1,0,0.2,0.1,0.2,0.2c0.1,0.2,0.1,0.3,0.3,0.3c0.3,0,0.5,0.2,0.8,0c0.1,0,0.2-0.1,0.2,0
		c0.1,0.2,0.5,0.2,0.5,0.5c0,0.1,0.2,0.4,0.5,0.2c0.1-0.1,0.1,0.1,0.2,0.1c0.2,0.2,0.4,0.3,0.6,0.2c0.2,0,0.4,0,0.5,0.2
		c0.1,0.1,0.2-0.1,0.3,0c0.1,0.1,0.1,0.2,0.1,0.3c0,0.1,0.1,0.1,0.2,0.1c0.1,0,0.3-0.1,0.4,0c0.1,0.1,0.3,0.1,0.4,0.1
		c0.1,0,0.2,0.2,0.3,0c0.1,0.1,0.2,0.3,0.4,0.3c0,0.2,0.1,0.2,0.3,0.2c0.2,0,0.1,0.2,0.2,0.3c0.1,0.1,0.1,0.3,0.3,0.2
		c0.3-0.1,0.5,0,0.7,0.3c0.1,0.1,0.3,0.2,0.5,0.2c0.1,0,0.2,0,0.2,0.1c0.1,0.1,0.2,0.2,0.4,0.1c0.2-0.1,0.4,0.2,0.7,0
		c0,0,0.1,0,0.1,0.1c0.2,0.2,0.3,0.2,0.5,0.3c0.1,0,0.2,0,0.2,0.1c0.1,0.4,0.5,0.3,0.7,0.4c0.2,0.1,0.5,0.3,0.8,0.3
		c0.1,0,0.2,0,0.2,0.2c0,0,0.1,0.1,0.1,0.1c0.4-0.1,0.6,0.2,0.9,0.4c0.2,0.1,0.3,0.3,0.6,0.2c0,0,0,0,0.1,0c0.2,0.2,0.4,0.5,0.8,0.5
		c0.3,0,0.5,0.3,0.8,0.3c0.3,0,0.5,0.1,0.8,0.4c0.1,0.1,0.4,0,0.6,0.2c0,0,0.1,0,0.2,0c0.2,0.1,0.3,0.4,0.6,0.2
		c0.2,0.1,0.3,0.3,0.5,0.4c0.3,0.1,0.5,0.3,0.7,0.5c0,0,0.1,0,0.1,0c0.2-0.1,1,0.1,1.3,0.3c0.3,0.2,0.5,0.4,0.9,0.5
		c0,0.2,0.2,0.2,0.3,0.3c0.1,0.1,0.1,0.1,0.2,0c0.1-0.1,0.2-0.1,0.3,0c0.1,0.1,0.2,0.4,0.4,0.2c0,0,0.1,0,0.1,0
		c0.1,0,0.1,0.3,0.3,0.1c0.1-0.1,0.2,0.1,0.3,0.2c0.1,0.2,0.4,0,0.5,0.2c0.4,0.1,0.4,0.1,0.8,0.4c0.1,0.1,0.4,0.1,0.5,0.2
		c0.1,0.1,0.2,0.3,0.4,0.1c0.2,0.3,0.6,0.2,0.8,0.4c0.1,0.1,0.2-0.1,0.3,0.1c0.1,0.2,0.3,0.1,0.3,0.1c0.1,0.3,0.3,0.2,0.5,0.2
		c0.2,0,0.5,0.1,0.6,0.2c0.2,0.2,0.5,0.3,0.8,0.4c0.3,0,0.8,0.1,0.8,0.6c0,0,0,0,0,0c0,0,0.1,0,0.1,0c0.3-0.1,0.2,0.3,0.4,0.2
		c0.3-0.1,0.5,0.1,0.7,0.1c0,0,0.1,0.1,0.1,0.1c0.2,0,0.5-0.1,0.6,0c0.1,0.1,0.2,0.3,0.4,0.4c0.2,0.3,0.6,0.2,0.9,0.3
		c0.1-0.2,0.3-0.1,0.3,0c0.2,0.4,0.5,0.5,0.9,0.6c0.1,0,0.2,0.1,0.3,0c0.1-0.1,0.2-0.3,0-0.4c0,0-0.1-0.1-0.1-0.1
		c-0.1-0.1-0.1-0.1,0-0.2c0.2-0.1,0.1-0.2,0.1-0.4c-0.1-0.2-0.3-0.5,0-0.8c-0.1-0.1-0.2-0.3-0.1-0.4c0.1-0.2-0.1-0.2-0.1-0.3
		c0-0.2-0.1-0.4,0.1-0.5C71.2,55.3,71.3,55.2,71.4,55.2z M25.6,67.2c0.2,0,0.4,0,0.6,0c0.2,0,0.2-0.3,0.1-0.4
		c-0.1-0.1-0.2-0.2-0.4-0.3c-0.1,0-0.2-0.1-0.1-0.2c0-0.1,0.1-0.1,0.2-0.1c0.2,0,0.2,0,0.3-0.3c0-0.1,0-0.1,0.1-0.1
		c0.2,0,0.3-0.1,0.4-0.3c0.1-0.1-0.2-0.2,0-0.3c0.1-0.1,0.2-0.2,0.3-0.3c0,0,0-0.1,0-0.1c-0.1-0.1,0-0.3,0.1-0.3
		c0.2,0,0.3-0.3,0.5-0.1c0.2,0.2,0.5,0.4,0.7,0.4c0.4-0.1,0.6,0.2,0.9,0.2c0.1,0,0.3,0,0.4,0.2c0,0.1,0.3,0.3,0.5,0.3
		c0.1,0,0.2,0,0.3,0c0.2,0,0.3,0.4,0.6,0.1c0.3,0.1,0.4,0.4,0.6,0.5c0.1,0,0.2,0.2,0.4,0.1c0.1-0.1,0.2,0.2,0.4,0.1
		c0.2-0.1,0.3,0,0.3,0.2c0,0,0.1,0,0.1,0c0.1-0.1,0.2-0.1,0.3,0c0.2,0.3,0.6,0.5,0.9,0.6c0.1,0.1,0.3-0.1,0.3,0.1
		c0,0.2,0.3,0.2,0.3,0.3c0.1,0.2,0.3,0.1,0.3,0.3c0.1,0.2,0.3,0.1,0.5,0.1c0.1,0,0.1,0.1,0.1,0.2c0,0.1,0.1,0.1,0.1,0.1
		c0.2,0,0.4,0,0.4,0.3c0,0.1,0.2,0.1,0.3,0.1c0.1,0,0.3-0.1,0.3,0.1c0.1,0.3,0.3,0.3,0.5,0.3c0.2,0,0.2,0.1,0.3,0.2
		c0.1,0.1,0.1,0.1,0.2,0.1c0.1-0.1,0.1-0.1,0.2,0c0,0,0.1,0.1,0.1,0.1c0.3,0.3,0.3,0.3,0.8,0.3c0,0,0.1,0,0.1,0
		c0.2,0.2,0.4,0.3,0.7,0.4c0.1,0,0.3,0.1,0.3,0.2c0.1,0.1,0.1,0.4,0.3,0.1c0,0,0.1,0.1,0.2,0.1c0,0.1,0.1,0.2,0.3,0.2
		c0.2,0,0.3,0.2,0.4,0.2c0.1,0,0.1,0.1,0.2,0.1c0.2-0.2,0.4,0,0.5,0.1c0,0,0.8,0.4,0.9,0.4c0.1,0,0.5,0.2,0.6,0.4
		c0.1,0.2,0.2,0.2,0.4,0.2c0.1,0,0.3,0,0.4,0.1c0.3,0.2,0.6,0.3,0.9,0.4c0.3,0.1,0.6,0.3,1,0.4c0.2,0.1,0.3,0.4,0.5,0.5
		c0.2,0.1,0.5,0,0.8,0.1c0.1,0,0.1,0.1,0.2,0.1c0.3-0.1,0.5,0.1,0.7,0.3c0.1,0.2,0.3,0.2,0.5,0.2c0.2-0.1,0.2-0.1,0.4,0.1
		c0.2,0.2,0.3,0.2,0.5-0.1c0.1-0.1,0.3-0.2,0.4-0.3c0.1-0.2,0.3-0.3,0.5-0.1c0.2,0.1,0.4,0,0.6,0c0.1,0,0.3-0.1,0.3-0.2
		c0.1-0.2,0.3-0.3,0.4-0.5c0.2-0.3,0.2-0.3,0.6-0.2c0.1,0,0.5-0.1,0.6-0.1c0.2,0,0.3-0.1,0.3-0.3c0-0.1,0-0.2,0.1-0.2
		c0.3,0,0.5-0.4,0.9-0.1c0,0,0.1,0,0.2-0.1c0.4-0.1,0.7-0.5,1.1-0.4c0,0,0,0,0,0c0.5-0.3,0.5-0.3,0.8-0.3c0.1,0,0.2,0,0.3-0.1
		c0.2-0.2,0.4-0.3,0.7-0.3c0,0,0.1,0,0.1,0c0.1-0.3,0.5-0.2,0.7-0.4c0-0.1,0.1,0,0.2,0c0.3,0.1,0.3,0.1,0.5-0.2
		c0.1-0.2,0.2-0.3,0.4-0.3c0.2,0,0.4-0.1,0.7-0.1c0.2,0,0.4-0.2,0.5-0.4c0.1-0.1,0.3-0.3,0.5-0.2c0.3,0.1,0.5-0.1,0.7-0.2
		c0.1-0.1,0.1-0.3,0.3-0.1c0.1,0.1,0.3,0.1,0.4-0.1c0.1-0.3,0.4-0.3,0.6-0.3c0.1,0,0.2,0,0.3-0.1c0.1-0.2,0.3-0.1,0.4-0.2
		c0.3-0.2,0.8,0,1.1-0.5c0,0,0.1,0,0.1,0c0.2,0.1,0.4-0.2,0.7-0.1c0.3,0.1,0.4-0.2,0.6-0.3c0,0,0.1-0.1,0.2-0.1
		c0.2,0.1,0.4-0.2,0.6,0c0.2-0.2,0.3-0.3,0.5-0.5c0.1-0.1,0.2-0.1,0.3-0.1c0.1,0.1,0.2,0.1,0.3,0c0.1-0.1,0.1-0.2,0.2-0.2
		c0.3,0.1,0.6-0.1,0.9,0c0.1-0.1,0.3-0.1,0.3-0.3c0.1-0.3,0.4-0.5,0.8-0.5c0.2-0.2,0.5-0.1,0.7-0.1c0.1,0,0.3,0,0.3-0.2
		c0.1-0.2,0.3-0.3,0.5-0.1c0.1,0.1,0.4-0.2,0.4-0.3c0,0,0-0.1,0-0.1c-0.3,0-0.4-0.4-0.7-0.4c-0.2-0.1-0.4,0-0.6,0
		c-0.2,0-0.2-0.4-0.5-0.4c-0.2,0-0.4-0.1-0.4-0.2c-0.1-0.2-0.4,0-0.4-0.2c0-0.1,0-0.2-0.1-0.1c-0.2,0.1-0.3,0.2-0.5,0
		c-0.1-0.2-0.3-0.2-0.5-0.3c-0.1,0-0.3-0.1-0.3-0.2c0-0.4-0.2-0.3-0.5-0.3c-0.2,0-0.3,0-0.5,0c0.1-0.4-0.1-0.6-0.4-0.8
		c-0.2-0.1-0.3,0.2-0.4,0c-0.2-0.2-0.5-0.1-0.7-0.1c-0.2,0-0.3-0.1-0.3-0.2c0-0.3-0.1-0.3-0.4-0.3c-0.1,0-0.2-0.1-0.2-0.2
		c-0.1-0.3-0.2-0.3-0.4-0.1c0,0-0.2,0.1-0.3-0.1c-0.1-0.2-0.1-0.2-0.4-0.3c-0.1,0-0.3,0.1-0.4-0.1c0-0.1-0.1-0.2-0.2-0.1
		c-0.3,0.1-0.4-0.1-0.5-0.3c-0.2-0.2-0.3-0.2-0.6-0.2c-0.2,0-0.3,0-0.4-0.2c-0.1-0.1-0.2-0.2-0.4-0.1c-0.1,0.1-0.2,0-0.3-0.1
		c-0.1-0.1-0.3-0.2-0.4-0.4c-0.1-0.2-0.4-0.2-0.5-0.5c-0.1-0.1-0.2,0.1-0.3,0.1c-0.1,0-0.1,0-0.1-0.1c-0.1-0.2-0.2-0.1-0.4-0.1
		c-0.3,0.1-0.3,0-0.3-0.3c0,0,0-0.1,0-0.1c-0.2,0.1-0.5,0.2-0.7,0c-0.1-0.1-0.1-0.1-0.2-0.1c-0.4,0.3-0.6,0-0.8-0.2
		C57.1,58.1,57,58,56.9,58c-0.3,0-0.5-0.1-0.6-0.4c-0.1-0.2-0.2-0.2-0.3-0.2c-0.1,0-0.1,0.1-0.2,0c-0.1-0.1-0.2-0.2-0.4-0.1
		c-0.3,0.1-0.5-0.2-0.7-0.4c-0.1-0.2-0.3-0.2-0.5-0.2c-0.1,0-0.3,0-0.3,0c-0.2-0.3-0.6-0.1-0.8-0.3c-0.2,0.1-0.3-0.3-0.5-0.2
		c-0.3,0.1-0.4-0.3-0.7-0.3c-0.2,0-0.1-0.3-0.3-0.3c-0.1,0-0.3,0.1-0.4,0.1c-0.4,0-0.6-0.2-0.8-0.5c0,0,0-0.1-0.1-0.1
		c-0.2,0.2-0.3-0.1-0.4-0.1c-0.2,0-0.3-0.3-0.5-0.3c-0.4,0.1-0.6-0.2-1-0.3c-0.2,0-0.3-0.3-0.5-0.1c0,0-0.1,0-0.2-0.1
		c0-0.1-0.1-0.2-0.2-0.2c-0.3-0.1-0.6-0.2-0.8-0.5c0,0-0.1,0-0.1,0c-0.2,0.2-0.3,0-0.4-0.1c-0.2-0.2-0.3-0.3-0.6-0.2
		c-0.2,0-0.3-0.1-0.3-0.2c-0.1-0.2-0.2-0.4-0.4-0.1c0,0-0.1,0-0.1,0c0-0.3-0.4-0.2-0.4-0.5c0-0.2-0.1-0.3-0.3-0.2
		c-0.2,0-0.4,0-0.5,0c-0.3,0-0.5-0.1-0.6-0.4c0-0.1-0.1-0.4-0.3-0.4c-0.3,0-0.5-0.1-0.7-0.2c-0.1-0.1-0.3,0-0.5,0.1
		c-0.2,0.1-0.1-0.4-0.4-0.3c-0.3,0-0.5-0.4-0.8-0.3c-0.1-0.3-0.8,0-0.8-0.5c0-0.1-0.1,0-0.2,0c-0.1,0-0.2,0-0.2,0
		c-0.1,0.1-0.2,0.1-0.3,0c-0.1-0.3-0.4-0.3-0.6-0.5c-0.1-0.1-0.2-0.1-0.3,0c-0.6,0.1-0.6,0.1-0.9-0.3c0-0.1-0.1-0.1-0.1-0.1
		c-0.1,0-0.2,0-0.3,0c-0.2,0-0.3,0-0.4-0.3c0-0.1-0.1-0.1-0.1-0.2c-0.2-0.3-0.2-0.4-0.5-0.3c-0.2,0.1-0.4-0.1-0.6,0
		c-0.1,0-0.1,0-0.1-0.1c0-0.3-0.2-0.4-0.4-0.4c-0.1,0-0.3,0.1-0.4-0.1c-0.1-0.3-0.3,0.1-0.4,0c-0.1-0.1-0.2-0.1-0.2-0.2
		c-0.2-0.2-0.3-0.5-0.6-0.4c-0.3,0.1-0.5-0.1-0.7,0c-0.1,0-0.1,0-0.2-0.1c-0.1-0.2-0.2-0.4-0.5-0.2c-0.1,0.1-0.2-0.1-0.3-0.2
		c-0.3-0.3-0.4-0.4-0.8-0.3c-0.1,0-0.3,0-0.3-0.1c-0.1-0.2-0.3-0.5-0.5-0.5c0-0.3-0.1-0.2-0.3-0.1c-0.1,0-0.3,0.2-0.4,0.1
		c-0.3-0.2-0.7-0.2-1.1-0.5c-0.3-0.2-0.4-0.2-0.7,0.1c-0.1,0.2-0.3,0.3-0.5,0.2c-0.1,0-0.1,0-0.2,0.1c-0.3,0.2-0.5,0.4-0.7,0.4
		c-0.1,0-0.2,0-0.3,0.1c-0.1,0.1-0.2,0.3-0.3,0.4c-0.1,0.2-0.3-0.1-0.4,0c-0.1,0.1-0.3,0-0.4,0.1c-0.1,0.2-0.2,0-0.3,0
		c-0.1,0-0.2-0.1-0.2,0.1c0,0.3-0.4,0.2-0.5,0.4c-0.1,0.1-0.1,0-0.2-0.1c-0.1-0.2-0.2-0.1-0.3,0c-0.1,0.1-0.1,0.3-0.3,0.2
		c-0.2-0.1-0.4-0.1-0.4,0.2c0,0-0.1,0.2-0.2,0.1c-0.2-0.2-0.3,0-0.3,0.1c-0.1,0.3-0.4,0.2-0.6,0.3c-0.2,0.1-0.4,0-0.7,0
		c-0.1,0-0.2,0-0.3,0.1c-0.3,0.3-0.3,0.3-0.5,0.3c-0.1,0-0.3,0-0.4,0.1c-0.1,0.1-0.2,0.4-0.5,0.1c0,0-0.1,0-0.2,0
		c-0.1,0.1-0.3,0.2-0.4,0.4c-0.1,0.2-0.1,0.2-0.3,0.1c-0.1-0.1-0.2-0.1-0.3,0c-0.2,0.3-0.3,0.3-0.6,0.2c-0.2-0.1-0.2-0.1-0.3,0.1
		c0,0.1-0.1,0.2-0.1,0.2c0,0.1-0.1,0.2-0.3,0.1c-0.4-0.2-0.4-0.2-0.7,0.1c-0.2,0.2-0.4,0.3-0.6,0.2c-0.1,0-0.1,0.1-0.2,0.1
		c-0.1,0.1-0.3,0.3-0.5,0.2c-0.1,0-0.1-0.1-0.1,0c-0.1,0.3-0.5,0.1-0.6,0.4c0,0-0.1,0-0.1,0c-0.1-0.1-0.2-0.1-0.3-0.1
		c-0.1,0-0.2,0-0.3,0.1c-0.1,0.1-0.1,0.2-0.3,0c-0.1,0.1,0,0.2-0.1,0.3c-0.1,0.1-0.1,0.2-0.3,0.2c-0.1,0-0.2,0-0.3-0.1
		c-0.3-0.1-0.6,0-0.9,0.3c-0.1,0.1-0.2,0.3-0.4,0.1c0,0-0.1,0-0.2,0c-0.3,0.2-0.3,0.2-0.7,0.2c-0.1,0-0.1,0-0.2,0
		c-0.2,0.2-0.5,0.3-0.7,0.4c-0.2,0.2-0.5,0.2-0.8,0.3c-0.1,0-0.1,0-0.2,0.1c-0.1,0.1-0.1,0.2-0.3,0.2c-0.2,0,0,0.3-0.2,0.2
		C7.6,53,7.5,53,7.4,53c0,0-0.1,0.1-0.1,0.1C7,53.1,7,53.1,7,53.3c0,0.1,0.1,0.2,0.1,0.3c0,0.3,0.1,0.4,0,0.6
		C7,54.3,6.9,54.5,7,54.5c0.1,0.2,0.2,0.4,0.1,0.5c-0.2,0.2,0.1,0.3,0.1,0.4c0,0,0,0.1,0,0.1C7,55.8,7.1,56,7.1,56.3
		c0,0.2-0.1,0.3-0.2,0.3c-0.1,0-0.2,0.2-0.1,0.3c0.1,0.1,0,0.2,0,0.3c0,0.2,0.1,0.3,0,0.5C6.7,57.9,7,57.9,7,58.1c0,0.1,0,0.2,0,0.3
		c-0.2,0.2,0,0.5,0.1,0.6c0.2,0.2,0.1,0.3,0,0.4c-0.2,0.3-0.3,0.5-0.1,0.9c0,0,0,0.2,0,0.2c-0.1,0.1-0.1,0.1,0,0.2
		c0.2,0.2,0.2,0.4-0.1,0.6c0,0,0,0.1,0,0.2c0,0.1,0.2,0.2,0,0.3c-0.1,0.1,0,0.4,0,0.5c-0.1,0.2,0,0.3,0.1,0.3c0.1,0,0.2,0,0.1,0.2
		c-0.1,0.1-0.2,0.2-0.1,0.4c0.1,0.3,0,0.6,0.2,0.8C7.2,64.1,7,64.3,7,64.5c0,0.2,0.3,0.4,0.1,0.7c-0.1,0.1-0.1,0.2,0,0.3
		c0.1,0.3,0.2,0.6,0,0.7c-0.2,0.2-0.3,0.4,0,0.7c0.1,0.1,0,0.2,0,0.3c0,0.3-0.2,0.6-0.2,0.9c0,0.1-0.2,0.1-0.1,0.2
		c0.1,0.1,0.2,0.3,0.4,0.2c0.2,0,0.2,0.1,0.3,0.2c0.1,0.1,0.3,0,0.4,0.2c0.2,0.3,0.6,0.3,0.8,0.6c0,0,0.1,0,0.2,0
		c0.2-0.1,0.3,0,0.5,0.1c0.2,0.2,0.4,0.4,0.7,0.4c0.1,0,0.2,0.1,0.1,0.2c0,0.2,0.1,0.2,0.2,0.2c0.2-0.1,0.3,0,0.4,0.1
		c0.1,0.2,0.4,0,0.5,0.2c0.1,0.2,0.3,0.2,0.5,0.2c0.2,0,0.3,0.1,0.4,0.3c0,0.2,0.1,0.3,0.3,0.2c0.1,0,0.2,0,0.2,0
		c0.1,0.3,0.5,0.1,0.6,0.3c0.1,0.2,0.4,0.2,0.6,0.3c0,0,0.1,0.1,0.1,0.1c0,0.2,0.2,0.2,0.3,0.2c0.2,0,0.3,0,0.5,0.1
		c0.2,0.1,0.1,0.2,0.2,0.3c0,0,0,0.1,0.1,0.1c0.2,0,0.4,0.3,0.6,0.1c0,0,0.1,0,0.2,0c0.4,0.4,1.1,0.2,1.3,0.8c0,0.1,0.1,0.1,0.1,0
		c0.1-0.1,0.3-0.1,0.4,0c0.1,0.1,0.2,0.2,0.3,0.4c0.1,0.2,0.3,0.5,0.6,0.2c0,0,0.1,0,0.1,0c0.1,0.2,0.4,0.1,0.5,0.3
		c0.2,0.2,0.3,0.2,0.5,0.2c0.1,0,0.1,0.1,0.2,0.2c0.1,0.1,0.2,0.3,0.3,0.3c0.3,0.1,0.6,0.4,0.8,0.2c0.2-0.1,0.3,0,0.4,0.1
		c0.1,0.1,0.1,0.3,0.2,0.4c0.3,0.1,0.5,0.5,0.9,0.4c0,0,0.1,0,0.1,0c0.1,0.2,0.3,0.2,0.5,0.2c0.1,0,0.2,0.1,0.2,0.1
		c0.1,0.4,0.4,0.4,0.6,0.3c0.2,0,0.4,0.1,0.7,0.1c0.1,0,0.2,0.2,0.2,0.3c0,0.1,0.1,0.1,0.2,0.1c0.3,0,0.5,0.3,0.9,0.3
		c0.2,0,0.2,0.4,0.4,0.2c0,0,0,0,0,0c0,0,0,0.1,0,0.1c0,0.1,0,0.2,0.2,0.2c0.4,0,0.7,0.1,1.1,0.2c0.2,0.1,0.2,0.1,0.3,0.3
		c0.1,0.3,0.2,0.4,0.4,0.2c0.1-0.1,0.2-0.1,0.3,0c0.1,0.1,0.2,0.2,0.3,0.1c0.1,0,0.2,0.1,0.3,0.1c0.1,0,0.3-0.1,0.3,0.1
		c0,0.2,0.2,0.1,0.2,0.2c0.1,0.1,0.3,0.1,0.3,0.3c0,0.1,0.1,0.2,0.2,0.2c0.1,0,0.2,0.1,0.3,0.1c0.2,0.2,0.2,0.2,0.5,0
		c0,0,0.1-0.1,0.1,0c0.2,0.2,0.6,0.2,0.8,0.5c0.1,0.1,0.1,0.2,0.3,0.2c0.2,0,0.3,0.1,0.4,0.2c0.1,0.1,0.1,0.3,0.3,0.4
		c0.1,0.1,0.1,0.2,0.3,0.2c0.2-0.1,0.3,0.1,0.5,0.2c0.1,0.1,0.3,0.3,0.5,0.1c0.1-0.1,0.3,0,0.3,0.1c0.1,0.2,0.3,0.2,0.4,0.3
		c0.4,0.1,0.4,0.1,0.6,0.6c0,0.1,0.1,0.1,0.2,0.1c0.3-0.2,0.5-0.1,0.6,0.2c0.1,0.1,0.2,0.2,0.4,0.1c0.1-0.1,0.3-0.1,0.3,0.2
		c0.3,0.1,0.5,0.6,0.9,0.4c0.3,0.2,0.7,0.1,0.9,0.4c0,0.1,0.1,0.1,0.2,0c0.2,0,0.3,0.1,0.4,0.2c0,0.1,0.2,0.2,0.3,0.3
		c0.2,0.1,0.5,0.2,0.7,0.4c0.1,0.1,0.2,0.2,0.4,0.1c0.1-0.1,0.2,0,0.2,0.2c0,0.2,0.2,0.3,0.4,0.2c0.1-0.1,0.2,0,0.3,0
		c0.1,0.1,0.1,0.1,0.1,0.2c0.1,0.2,0.3,0.4,0.6,0.2c0.1-0.1,0.2,0,0.3,0.1c0.1,0.1,0.2,0.3,0.4,0.2c0.3-0.1,0.4,0.1,0.4,0.3
		c0.1,0.1,0.1,0.2,0.2,0.1c0.3-0.1,0.3-0.1,0.5,0.2c0.1,0.2,0.3,0.4,0.5,0.5c0.1,0.1,0.2-0.1,0.4-0.1c0.2,0,0.3,0,0.4,0.2
		c0.1,0.1,0.2,0.2,0.3,0.2c0.2,0,0.2,0,0.5,0.3c0.1,0.1,0.2,0.1,0.3,0.1c0.2,0,0.4,0.1,0.5,0.3c0,0.1,0.2,0.2,0.3,0.1
		c0.2-0.2,0.3,0,0.4,0.1c0,0.1,0,0.2,0.1,0.2c0.3-0.1,0.4,0.1,0.6,0.3c0.2,0.2,0.5,0.3,0.8,0.3c0.2,0,0.3,0,0.4,0.3
		c0.1,0.3,0.4,0.4,0.7,0.5c0.1,0,0.1-0.1,0.2-0.1c0.1,0,0.1,0.2,0.3,0.2c0-0.2,0-0.3,0-0.5c0-0.3,0.1-0.7-0.1-1
		c-0.1-0.1,0-0.3,0-0.5c-0.1-0.1-0.1-0.3,0-0.4c0.2-0.2,0.1-0.4,0-0.6c0,0-0.2-0.1-0.1-0.3c0.1-0.1-0.1-0.1-0.1-0.3
		c0.1-0.5,0.1-0.5,0-0.9c0-0.2-0.1-0.4,0-0.6c0-0.1,0.1-0.1,0-0.2c-0.1-0.1-0.2-0.3-0.1-0.4c0.2-0.2-0.1-0.3-0.1-0.5
		c0-0.2,0.3-0.3,0.1-0.5c-0.1-0.1-0.1-0.1,0-0.2c0.2-0.2,0.1-0.4,0.1-0.6c0-0.2-0.1-0.5,0-0.6c0.3-0.4-0.1-0.6-0.1-0.9
		c0-0.1-0.1-0.1-0.1,0c-0.2,0.2-0.3,0-0.4-0.1c-0.2-0.2-0.5-0.3-0.8-0.3c-0.2,0-0.4,0.1-0.4-0.2c0-0.1-0.1-0.1-0.2-0.1
		c-0.3,0-0.3,0-0.5-0.2c-0.2-0.1-0.4-0.3-0.6-0.5c0-0.1-0.1-0.1-0.2-0.1c-0.4,0.3-0.5,0-0.7-0.2c-0.2-0.3-0.5-0.5-0.8-0.5
		c-0.3,0-0.4-0.1-0.6-0.3c-0.2-0.2-0.2-0.2-0.4-0.2c-0.2,0-0.4-0.1-0.4-0.2c-0.1-0.2-0.2-0.2-0.3-0.3c-0.2-0.1-0.5-0.1-0.7-0.3
		c-0.2-0.2-0.4-0.2-0.6-0.1c-0.1,0.1-0.1,0-0.2,0c-0.3,0-0.5-0.2-0.7-0.4c-0.1-0.1-0.1-0.1-0.2-0.1c-0.3,0-0.4,0-0.5-0.1
		c-0.1-0.1-0.2-0.3-0.4-0.1c0,0.1-0.1,0-0.2-0.1c-0.1-0.1-0.2-0.2-0.3-0.3c-0.1-0.1-0.1-0.1-0.2-0.1c-0.2,0.2-0.3,0-0.3-0.1
		c0-0.1-0.1-0.1-0.1-0.2c0-0.2-0.1-0.1-0.2-0.1c-0.4,0.1-0.4,0.1-0.6-0.2c-0.1-0.2-0.2-0.4-0.5-0.3c-0.2,0-0.4-0.1-0.5-0.2
		c-0.1,0-0.1-0.1-0.2-0.1c-0.1,0-0.3-0.1-0.4,0.1c-0.1-0.1-0.2-0.3-0.4-0.2c-0.4,0.1-0.6-0.3-1-0.3c0,0,0-0.1,0-0.1
		c-0.2-0.2-0.4-0.4-0.7-0.4c-0.2,0-0.2-0.1-0.4-0.2c-0.2-0.2-0.5-0.4-0.7-0.5c-0.4-0.2-0.5-0.2-0.8-0.5c-0.1-0.1-0.3-0.2-0.5-0.3
		c-0.1,0-0.1,0.2-0.2,0.1C32.3,73,32,73,31.8,72.7c-0.3-0.4-0.7-0.5-1.1-0.7c-0.2-0.1-0.5,0-0.5-0.4c0,0,0-0.1-0.1-0.1
		c-0.3,0.1-0.5-0.3-0.8-0.4c-0.2,0-0.4-0.2-0.6-0.3c-0.1-0.1-0.2-0.1-0.3,0c-0.2,0.1-0.4,0-0.4-0.2c0-0.2-0.1-0.2-0.2-0.3
		C27.7,70,27.7,70,28,69.8c-0.3-0.3-0.3-0.3-1-0.5c-0.1,0-0.1-0.1-0.1-0.1c0.1-0.3-0.1-0.2-0.3-0.2c-0.2,0-0.4-0.2-0.4-0.4
		c0,0-0.3-0.4-0.3-0.4c-0.1,0-0.2-0.1-0.2-0.1c0,0,0,0,0-0.1C25.6,67.7,25.6,67.5,25.6,67.2z M79.7,49.4c0.3,0,0.7-0.2,0.8-0.5
		c0-0.1-0.2-0.3,0-0.4c0.2-0.1,0.2-0.2,0.2-0.3c0-0.1,0.2-0.2,0.2-0.4c0-0.3,0.2-0.5,0.3-0.7c0,0,0.2-0.1,0.1-0.2
		c-0.1-0.1-0.1-0.2,0-0.3c0.4-0.4,0.6-0.8,0.5-1.3c0-0.2,0-0.4,0.2-0.4c0.3-0.1,0.3-0.3,0.3-0.5c0-0.3,0-0.5,0.2-0.7
		c0.2-0.2,0-0.5,0.2-0.7c-0.2-0.3,0-0.6,0.1-0.9c0.1-0.2,0.2-0.5,0.2-0.8c0-0.3,0.1-0.6,0.3-0.9c0.1-0.2,0.1-0.4,0.1-0.6
		c0-0.3,0-0.5,0.2-0.7c0.1-0.1,0.1-0.2,0-0.3c-0.2-0.2-0.1-0.4,0.1-0.6c0.2-0.2,0.2-0.4,0.2-0.6c0-0.3,0.1-0.5,0.2-0.8
		c0-0.1,0.1-0.2,0.1-0.3c0-0.6,0.2-1.1,0.3-1.7c0.1-0.4,0.3-0.8,0-1.3c0-0.1,0-0.2,0.1-0.3c0.1-0.1,0.2-0.2,0.2-0.4
		c0-0.2,0.1-0.4,0-0.5c0-0.2,0.2-0.3,0.1-0.4c-0.2-0.2,0.2-0.3,0.1-0.4c-0.3-0.3,0-0.4,0.1-0.6c0.1-0.1,0.3-0.3,0.1-0.4
		c-0.1-0.1,0-0.3-0.2-0.4c-0.1-0.1,0.2-0.2,0-0.3c-0.2-0.2,0.1-0.3,0.1-0.4c0-0.1,0-0.1-0.1-0.2c-0.1-0.2-0.2-0.4-0.2-0.6
		c0-0.3-0.8-0.8-1.1-0.8c0,0,0,0-0.1,0c-0.2,0.2-0.5,0.1-0.7-0.1c-0.1-0.1-0.3-0.1-0.3,0c0,0.3-0.2,0.2-0.3,0.1
		c-0.3-0.1-0.5,0-0.8,0c-0.2,0-0.3,0.1-0.4,0.3c-0.1,0.1-0.1,0.4-0.3,0.4c-0.4,0.1-0.3,0.3-0.3,0.5c0,0.3,0.1,0.6-0.2,0.8
		c-0.1,0,0,0,0,0.1c0.1,0.1,0.1,0.2,0,0.3c0,0.1,0.1,0.2,0.1,0.3c0.1,0.5-0.2,1-0.3,1.5c0,0.2,0.1,0.2,0.1,0.3
		c0,0.1-0.2,0.2-0.2,0.3c0,0.3-0.1,0.6-0.1,1c0,0.1,0,0.3,0.1,0.4c0.1,0.2-0.2,0.2-0.2,0.4c0,0.3-0.3,0.6,0,0.9
		c0,0.1,0.1,0.2-0.1,0.3c-0.2,0.1-0.2,0.3-0.2,0.5c0,0.2-0.2,0.3-0.1,0.5c0.1,0.2,0,0.3,0,0.5c0,0.2,0,0.5-0.2,0.7
		c-0.2,0.3-0.2,0.5-0.1,0.8c0,0,0.1,0.1,0.1,0.1c-0.1,0.1-0.2,0.2-0.3,0.3c-0.1,0.2,0.2,0.3,0.1,0.5c-0.1,0.1-0.2,0.2-0.2,0.3
		c-0.1,0.1,0.1,0.2,0.1,0.3c-0.1,0.1-0.2,0.1-0.2,0.2c0,0.1,0.1,0.3-0.1,0.4c-0.1,0.1-0.2,0.2-0.1,0.3c0.1,0.1-0.1,0.3-0.1,0.4
		c0,0.1,0,0.1-0.1,0.2c-0.2,0.2-0.2,0.4-0.3,0.7c0,0.3-0.3,0.5-0.3,0.7c0,0.2,0,0.4-0.3,0.5c-0.1,0-0.1,0.1-0.1,0.2
		c0,0.2-0.1,0.4-0.2,0.6c-0.1,0.3-0.4,0.5-0.3,0.8c0,0.1,0,0.1-0.1,0.1c-0.1,0-0.2,0.1-0.2,0.2c-0.1,0.4-0.4,0.8-0.4,1.2
		c0,0.1-0.1,0.3-0.1,0.4c-0.1,0.2,0.1,0.3,0.2,0.5c0.2,0.2,0.3,0.4,0.5,0.5c0.2,0.1,0.3,0.4,0.5,0.5c0,0,0.1,0.1,0.1,0.1
		c0.2-0.3,0.4,0,0.4,0c0.1,0.2,0.4,0,0.5,0.2c0.1,0.2,0.3,0.2,0.5,0.2C79.3,49.4,79.5,49.2,79.7,49.4z M20,42.3
		c-0.2-0.1-0.3-0.3-0.2-0.5c0.2-0.4-0.4-0.6-0.1-1c0,0,0-0.1-0.1-0.1c-0.2-0.1-0.2-0.3-0.2-0.5c0-0.5,0-0.6-0.4-1.2
		c-0.1-0.1-0.2-0.2-0.1-0.4c0.1-0.2-0.2-0.3-0.1-0.4c-0.3,0-0.2-0.2-0.2-0.4c0-0.3,0-0.5-0.2-0.7c-0.1-0.1-0.2-0.3-0.1-0.5
		c0.1-0.3,0-0.5-0.2-0.7c-0.2-0.2-0.1-0.3,0-0.4c0.1-0.1,0.1-0.1,0-0.2C18,35.2,17.7,35,18,34.7c0,0,0-0.1-0.1-0.1
		c-0.1-0.1-0.2-0.2-0.3-0.3c-0.1-0.1-0.2-0.2,0-0.3c0.1-0.1,0.1-0.2,0-0.3c-0.1-0.1-0.2-0.1-0.2-0.3c0-0.1,0.1-0.2,0.1-0.3
		c0-0.1,0-0.3-0.1-0.4c-0.1-0.1-0.1-0.2-0.1-0.3c0-0.1,0.2-0.2,0-0.4c-0.1-0.1,0.2-0.2,0.1-0.4c0-0.1,0-0.2-0.1-0.3
		c-0.1-0.1,0-0.1,0-0.1c0,0,0-0.1,0-0.1c0,0-0.1-0.1-0.1-0.1c0-0.1,0-0.1,0-0.2c0-0.1,0-0.1,0.1-0.2c0,0,0.1-0.1,0.1-0.1
		c0,0,0.1-0.1,0.1-0.1c0.2-0.2,0.1-0.2-0.1-0.3c-0.1,0-0.2,0-0.1-0.1c0.1-0.2,0.2-0.4,0.3-0.6c0.3,0,0.3-0.3,0.4-0.4
		c0.1-0.1,0.3-0.3,0.2-0.5c0-0.2-0.1-0.4-0.2-0.6c-0.2-0.2-0.2-0.4-0.1-0.6c0.1-0.2,0.1-0.3-0.1-0.4c-0.2-0.2-0.3-0.4-0.2-0.6
		c0.1-0.4-0.2-0.7-0.1-1.1c0,0,0-0.1-0.1-0.1c-0.3-0.2-0.1-0.3,0-0.5c0-0.1,0.1-0.2,0-0.2c-0.3-0.3-0.2-0.6-0.1-0.9
		c0-0.1,0.1-0.1,0-0.2C17.2,23,17,22.7,17,22.3c-0.2-0.1-0.3-0.3,0-0.4c0.1-0.1,0-0.1,0-0.1c-0.1-0.1-0.1-0.2-0.2-0.4
		c0-0.3-0.1-0.5-0.2-0.8c-0.1-0.2-0.1-0.4,0.1-0.5c0.1-0.1,0.1-0.1,0-0.2c-0.2-0.2-0.2-0.3-0.3-0.9c0-0.1-0.2-0.3-0.1-0.4
		c0.2-0.2,0.1-0.6,0.5-0.7c0.1,0,0.1-0.1,0.1-0.2c0,0,0-0.1-0.1-0.1c-0.1,0-0.3,0-0.4-0.1c-0.1,0-0.2,0-0.2,0
		c-0.2,0.3-0.4,0.2-0.7,0.2c-0.1,0-0.2,0.1-0.3,0.2c-0.2,0.2-0.5,0.5-0.7,0.6c-0.2,0.1-0.3,0.1-0.4,0c-0.1-0.1-0.1,0-0.2,0
		c-0.3,0.1-0.6,0.4-0.9,0.4c-0.1,0,0,0.2-0.1,0.2c-0.1,0-0.1-0.1-0.3-0.1c0,0,0,0-0.1,0c-0.1,0.1-0.2,0.3-0.4,0.3c0,0.1,0,0.1,0,0.2
		c0,0,0.1,0,0.1,0.1c-0.1,0.1-0.1,0.2-0.2,0.3c0,0.1,0.1,0.2,0.1,0.4c0,0.2,0,0.3,0,0.5c0,0.1-0.1,0.2,0,0.3c0.1,0.2,0.2,0.4,0,0.6
		c-0.1,0.1-0.1,0.3,0,0.3c0.1,0.1,0.1,0.2,0,0.3c-0.1,0.1-0.2,0.2,0,0.3c0.1,0.1,0.2,0.2,0.2,0.4c0,0.2,0,0.3-0.2,0.4
		c-0.1,0.1-0.1,0.2,0,0.2c0.2,0.2,0.3,0.4,0.1,0.6c-0.1,0.1,0,0.1,0,0.1c0.1,0.1,0.1,0.2,0.2,0.4c0,0.1-0.2,0.2-0.1,0.4
		c0,0.1-0.2,0.1,0,0.3c0.2,0.1-0.1,0.3,0,0.4c0.2,0.2,0,0.4-0.1,0.5c-0.1,0.1-0.1,0.2,0,0.3c0.1,0.2,0,0.5,0.1,0.7
		c0.1,0.2-0.1,0.5-0.2,0.7c-0.1,0.2,0.2,0.3,0,0.4c0,0,0,0.1,0,0.2c0.2,0.2,0.3,0.4,0.1,0.7c0,0,0,0.1,0,0.2
		c0.2,0.2,0.2,0.7,0.5,0.8c0.1,0,0.1,0.1,0.1,0.1c0,0.3,0.2,0.2,0.4,0.1c0.4-0.1,0.4-0.1,0.7,0.2C14,31,14,31.3,14.2,31
		c0.1-0.1,0.4,0,0.4,0.2c0,0.2,0.1,0.3,0.3,0.4c0.1,0.1,0.4,0.1,0.4,0.4c0,0.1,0.1,0.1,0.1,0.1c0.2,0,0.2,0.1,0.3,0.2
		c0.1,0.1,0.1,0.3,0.2,0.4c0.2,0.1,0.1,0.3,0.2,0.4c0.1,0.2,0,0.5,0.2,0.7c0.2,0.2,0.6,0.3,0.5,0.7c0,0,0.1,0.1,0.2,0.2
		c0.1,0.1,0.3,0.2,0.1,0.4c-0.1,0,0,0.1,0.1,0.2c0.2,0.2,0.2,0.5,0.2,0.7c0,0.1,0,0.2,0,0.3c0,0.2,0,0.4,0.2,0.5
		c0.1,0.1,0.1,0.2,0,0.2c-0.1,0-0.1,0.1,0,0.2c0.2,0.3,0.1,0.6,0.1,0.9c0,0.1,0,0.2,0.1,0.3c0.1,0.1-0.1,0.2-0.1,0.3
		c0,0.1-0.1,0.3-0.2,0.4c0,0.1-0.1,0.1-0.1,0.1c0.3,0.2-0.2,0.5,0.1,0.7c0.1,0.1-0.3,0.3,0,0.4c0,0,0,0.1,0,0.1
		c-0.2,0.2-0.3,0.4-0.1,0.6c0,0,0.1,0.1,0,0.1c-0.3,0.2-0.2,0.4-0.2,0.6c0,0.2-0.1,0.5-0.3,0.6c-0.3,0.1-0.3,0.3-0.3,0.6
		c0,0.3,0,0.5,0.1,0.6c0.1,0.2,0.3,0.2,0.4,0c0.1-0.1,0.2-0.1,0.3-0.1c0.2,0,0.3,0,0.4-0.3c0-0.1,0.1-0.1,0.2-0.2
		c0.3,0.4,0.3-0.2,0.4-0.2c0.1,0,0.1-0.1,0.2-0.1c0.2,0.1,0.4-0.2,0.7-0.1c0.3,0.1,0.4-0.2,0.7-0.2C19.9,42.4,20,42.4,20,42.3z
		 M24.7,14.3c-0.1,0.1-0.2,0.3-0.2,0.4c-0.1,0.3-0.2-0.2-0.3,0c-0.2-0.1-0.3-0.2-0.4,0.1c0,0.1,0,0.1-0.1,0.1
		c-0.2,0-0.2,0.2-0.3,0.2c-0.3,0-0.5,0.2-0.7,0.1c-0.2,0-0.5-0.1-0.4,0.3c0,0-0.1,0-0.1,0.1c-0.3,0.1-0.6,0.3-0.9,0.3
		c-0.2,0.1-0.5,0.3-0.8,0.1c-0.1-0.1-0.2,0-0.3,0c-0.1,0-0.3,0.1-0.4,0.1c-0.1,0-0.1,0.3-0.3,0.3c-0.1,0-0.1,0.2-0.2,0.1
		c-0.3-0.2-0.4-0.1-0.6,0.2c0,0-0.1,0.1-0.2,0.1c-0.2,0-0.5-0.1-0.5,0.3c0,0.1-0.1,0-0.2,0c-0.1,0-0.3,0-0.4,0
		c0,0.1,0.1,0.1,0.2,0.1c0,0.1,0,0.1,0.1,0.2c0.1,0.2,0.2,0.2,0.4,0c0,0,0.1-0.1,0.1-0.1c0.1-0.2,0.2-0.2,0.4,0c0,0,0.2,0.1,0.2,0.1
		c0.1-0.2,0.3-0.1,0.4-0.2c0.1-0.1,0.4,0,0.5-0.2c0.2,0.1,0.3,0.2,0.5,0c0,0,0.1,0,0.1,0c0,0.3,0,0.5,0.4,0.5c0,0,0,0,0,0.1
		c0,0.2,0.1,0.3,0.2,0.4c0.3,0.2,0,0.7,0.4,0.9c0,0-0.1,0.1-0.1,0.1c0,0.1-0.1,0.3,0,0.3c0.1,0.2,0.2,0.3,0,0.5c0,0,0,0.1,0,0.2
		c0.3,0.1,0.2,0.2,0.1,0.4c-0.1,0.1,0,0.1,0,0.2c0.4,0.3,0.4,0.3,0.2,0.7c-0.2,0.4-0.1,0.7,0.1,0.9c0.2,0.3,0.3,0.5,0.3,0.8
		c0,0.2,0.1,0.3,0,0.5c-0.1,0.1-0.1,0.4,0,0.5c0.2,0.3,0.5,0.5,0.2,0.8c0.2,0.1,0,0.5,0.2,0.6c0.1,0.5,0.3,1,0.2,1.5
		c0,0.1,0,0.2,0,0.3c0,0.1,0.2,0.3,0.3,0.2c0.1-0.1,0.2,0,0.3,0c0.1,0,0.2,0,0.3,0.1c0.1,0,0.1-0.2,0.2-0.3c0.1-0.1,0-0.1,0-0.2
		c-0.1-0.2-0.2-0.3-0.1-0.5c0.1-0.2,0.3-0.4,0.1-0.7c0,0,0-0.1,0.1-0.1c0.2-0.1,0.2-0.3,0.1-0.5c-0.1-0.2,0-0.4,0.1-0.6
		c0,0,0.2-0.1,0.1-0.2c0,0,0.1-1.1,0.1-1.1c0,0,0.1-0.1,0.1-0.1c0.1-0.1,0.2-0.2,0.3-0.3c0.1-0.1,0.2-0.3,0.1-0.4
		c-0.2-0.2,0.1-0.3,0.1-0.5c0.5-0.2,0.7-0.7,1-1c0.2-0.2,0.4-0.4,0.6-0.4c0.2,0,0.2-0.1,0.1-0.2c-0.3-0.4-0.4-0.7-0.3-1.2
		c0-0.1,0.1-0.2,0-0.3c-0.2-0.3,0.1-0.6-0.2-0.9c0-0.1,0.1-0.2,0.2-0.4c0.1-0.1,0-0.1-0.1-0.2c-0.2-0.1-0.2-0.4-0.2-0.6
		c0-0.1,0-0.3-0.1-0.4c0.2-0.1,0-0.3,0-0.4c0-0.2-0.2-0.3,0-0.4c-0.2-0.2,0.1-0.6-0.2-0.8c-0.1-0.1-0.2-0.1-0.2-0.2
		C25.2,14.4,24.8,14.5,24.7,14.3z M5.1,36C5.1,36,5.1,36,5.1,36c0,0.2-0.1,0.3,0.1,0.3c0.2,0,0.2-0.1,0.1-0.2c0-0.2,0.1-0.3,0.2-0.4
		c0.1-0.1-0.1-0.3-0.1-0.4c0-0.1,0.1-0.1,0.1-0.1c0,0,0.1-0.1,0.1-0.1c-0.3-0.3,0.1-0.4,0.2-0.5c0-0.1,0.1-0.1,0.1-0.2
		c0-0.1,0.1-0.3,0.2-0.3c0.2,0,0.2-0.1,0.2-0.3c0-0.1,0.1-0.2,0.2-0.2c0.2,0,0.2-0.1,0.2-0.2c0-0.2,0.1-0.2,0.1-0.4
		c0.1-0.2,0.2-0.4,0.5-0.5c-0.1-0.3,0.2-0.4,0.4-0.6c0.1-0.1,0.1-0.2,0.1-0.3c0-0.2,0-0.7-0.1-0.8c-0.1-0.1-0.1-0.2,0-0.3
		c0.1-0.1,0.2-0.2,0-0.4c-0.1-0.1,0-0.3,0-0.5c0-0.1,0.1-0.2,0-0.3c-0.3-0.2-0.2-0.4,0-0.6c0,0,0-0.1,0-0.2c-0.1-0.2-0.1-0.3,0-0.5
		c0-0.1-0.2-0.3-0.2-0.4c0-0.2,0.2-0.3,0.1-0.5c0,0,0,0,0,0c-0.1-0.1-0.1-0.2,0-0.4c0.1-0.1,0.1-0.2,0-0.2c-0.2-0.1,0.1-0.3,0-0.4
		c-0.2-0.2,0-0.3,0.1-0.4c0.1-0.1,0.1-0.3,0-0.4c-0.2-0.2,0-0.4-0.1-0.6c0-0.2,0.2-0.2,0.2-0.3c0.1-0.2-0.3-0.2-0.2-0.4
		c0.2-0.2,0-0.4-0.1-0.5c0-0.1-0.1-0.2,0-0.3c0.2-0.1,0.2-0.4,0.1-0.5c-0.1-0.3-0.1-0.5,0-0.7c0.1-0.1,0.2-0.4-0.2-0.4
		c-0.1,0-0.1-0.1,0-0.2c0-0.2-0.1-0.2-0.2-0.3c-0.1,0.2-0.4,0-0.4,0.2c-0.1,0.3-0.3,0.3-0.6,0.4c-0.4,0.1-0.8,0.2-0.9,0.7
		c0,0,0,0,0,0c-0.2,0.2-0.3,0.4-0.3,0.7c0,0.2,0.1,0.4,0,0.5c-0.2,0.2-0.1,0.3,0,0.5c0.2,0.2-0.3,0.3-0.1,0.5c0.1,0.1-0.1,0.2,0,0.4
		c0.1,0.2-0.1,0.5,0.1,0.7c-0.2,0.1,0,0.3-0.2,0.4c-0.1,0.1-0.1,0.1,0,0.2C5.2,26.7,5,27,5,27.3c0,0.3,0,0.4,0.1,0.6
		c0,0,0.1,0.1,0,0.1c-0.3,0.2-0.2,0.5-0.2,0.7c0,0.4,0,0.4,0,0.6c0.1,0.3,0.3,0.5,0.2,0.8c-0.1,0.5-0.1,0.6,0,1.2c0,0,0,0.1,0,0.2
		C4.8,31.6,4.9,31.8,5,32c0.1,0.1,0.1,0.3,0,0.4c0,0-0.1,0.1,0,0.1c0.2,0.3-0.1,0.6,0.2,0.9c0,0,0,0.1,0,0.1c-0.3,0.1,0,0.3,0,0.4
		c0,0.2,0.3,0.3,0,0.5c0,0,0,0.2,0,0.2c0.1,0.1,0.1,0.2,0,0.3c-0.1,0.1-0.1,0.3,0,0.4c0.1,0.1,0.1,0.2,0,0.3C5,35.8,5.1,35.9,5.1,36
		z M29.1,24C29,24,29,23.9,28.9,24c-0.1,0.2-0.3,0.4-0.2,0.6c0.1,0.1,0,0.2,0,0.3c-0.1,0.1-0.2,0.3-0.1,0.4c0,0.2-0.1,0.4-0.2,0.5
		c-0.2,0.2-0.2,0.3,0,0.4c0.1,0.1,0.1,0.1,0,0.2c-0.2,0.2,0,0.4-0.2,0.6c0.1,0.3,0.3,0.6,0,0.9c0.3,0.2,0,0.3-0.1,0.5
		c0,0.1,0,0.1,0,0.2c0,0.1,0,0.3-0.1,0.4c0.2,0.1-0.2,0.4,0.1,0.5c0,0,0,0.2-0.1,0.3c0,0,0,0.1,0,0.2c0.1,0.1,0.1,0.2,0.3,0.2
		c0.1,0,0.1,0,0.2,0.2c0,0.2-0.1,0.2-0.1,0.4c0,0.3,0.3,0.1,0.3,0.3c0,0,0,0.1,0,0.1c0.1,0.2,0.1,0.4,0.4,0.5c0.1,0,0.1,0,0.1,0.1
		c0.1,0.4,0.4,0.7,0.7,1c0.2,0.2,0.5,0.3,0.7,0.2c0.3-0.1,0.6-0.2,0.8-0.4c0.2-0.2,0.4-0.5,0.5-0.8c0-0.2,0-0.5,0.3-0.6
		c0.2-0.1,0.2-0.2,0.3-0.3c0.2-0.2-0.2-0.3,0-0.5c0,0-0.1-0.1-0.1-0.1c0-0.1,0-0.1,0-0.2c0.3,0,0.2-0.2,0.1-0.4
		c-0.1-0.2-0.1-0.5,0.1-0.7c0.1-0.1,0-0.1,0-0.2c-0.1-0.5-0.2-0.9-0.2-1.4c0-0.2-0.1-0.4-0.2-0.6c-0.2-0.3-0.3-0.5-0.3-0.8
		c0-0.1,0-0.2-0.1-0.3c-0.3-0.1-0.3-0.2-0.1-0.5c0.1-0.2,0-0.3,0-0.4c-0.1-0.2-0.4-0.3-0.4-0.5c0-0.2-0.1-0.2-0.2-0.2
		c-0.3,0-0.6,0.1-0.8-0.1c-0.2-0.2-0.4-0.2-0.5,0C29.3,24.1,29.2,23.8,29.1,24z M12.3,34.5c-0.1,0.2,0.1,0.5-0.1,0.6
		c-0.2,0.2-0.3-0.3-0.5-0.2c-0.1,0-0.1-0.1-0.2-0.2c-0.1-0.1-0.2-0.1-0.2,0c0,0.3-0.2,0.2-0.4,0.3c-0.1,0.1-0.3,0.3-0.4,0
		c0,0-0.1,0-0.1,0c-0.1,0.2-0.5,0-0.5,0.3c-0.2,0-0.2,0.2-0.3,0.3c-0.1,0.1-0.2,0.3-0.3,0.3c-0.2,0.1-0.1,0.3-0.1,0.4
		c0,0.1,0,0.2,0.1,0.3c-0.1,0.1-0.1,0.2-0.1,0.3c0,0.1-0.1,0.3-0.1,0.4c-0.2,0.2,0,0.4,0,0.6c0,0.1,0.2,0.2,0.2,0.3
		c0.1,0.1-0.1,0.2-0.1,0.3c0,0.1,0.2,0.2,0.1,0.2C9,38.7,9.1,38.9,9.2,39c0.1,0.2,0.1,0.3,0.2,0.5c0.1,0.2-0.2,0.4-0.1,0.5
		c0.1,0.1,0.4,0.1,0.5,0.3c0.1,0.2,0.2,0.5,0.2,0.7c0,0.1,0.1,0.2,0.1,0.1c0.1-0.1,0.3,0,0.4,0c0.1-0.2,0.3,0,0.5-0.2
		c0.1-0.1,0.3-0.1,0.4,0.1c0.1,0.2,0.3,0.3,0.6,0.4c0.3,0.1,0.5,0.3,0.7-0.1c0.1-0.2,0.4-0.3,0.6-0.4c0.2-0.1,0.4-0.2,0.6,0
		c0.1,0,0.2,0,0.2-0.1c0.1-0.4,0.3-0.7,0.4-1.1c0-0.1,0-0.1-0.1-0.2c-0.4-0.3-0.4-0.3-0.5-0.7c0,0,0-0.1-0.1-0.1c0,0-0.1,0-0.2,0
		c0-0.1,0.1-0.1,0.1-0.1c0.1,0,0.1,0,0.2-0.2c0.1-0.1,0.1-0.3,0.3-0.4c0.2-0.2,0.1-0.3-0.1-0.4c-0.1,0-0.2-0.1-0.2-0.2
		c-0.1-0.1,0-0.2,0.1-0.2c0-0.1,0.1-0.3,0-0.4c-0.1-0.2,0.1-0.4-0.2-0.5c0.1-0.1,0.1-0.2,0.2-0.3c0.1-0.1,0.1-0.2-0.1-0.2
		c-0.2,0-0.2-0.3-0.2-0.4c0.2-0.2,0-0.3-0.2-0.3c-0.2,0-0.2-0.1-0.2-0.3c0,0,0-0.1,0-0.1c-0.1,0-0.1,0.1-0.1,0.1c0,0,0,0.2-0.1,0.1
		c-0.1-0.2-0.4-0.2-0.6-0.2C12.4,34.6,12.3,34.5,12.3,34.5z"/>
	<path d="M56.4,22.5c-0.1,0.4-0.3,0.5-0.6,0.5c-0.1,0-0.2,0-0.2,0.1c0,0.2-0.2,0.2-0.3,0.3c-0.3,0.2-0.5,0.1-0.7-0.1
		c-0.1-0.1-0.2-0.1-0.3,0c-0.1,0.1-0.2,0.1-0.3,0.2c-0.1,0.1-0.2,0.1-0.3,0c-0.1-0.1-0.2-0.2-0.3,0c-0.1,0.1-0.1,0.1-0.2,0
		c-0.3,0-0.5-0.3-0.8,0c-0.2-0.1-0.5-0.2-0.7-0.1c-0.1,0.1-0.2,0.1-0.3,0c0-0.1-0.1-0.1-0.2-0.1c-0.2,0.1-0.4,0-0.5-0.1
		C50.6,23,50.4,23,50.3,23c-0.1,0-0.2,0-0.3-0.1c-0.1-0.1-0.2-0.2-0.3,0c-0.2,0.2-0.4-0.1-0.5-0.2c-0.2-0.2-0.5-0.3-0.8-0.2
		c-0.1,0-0.3,0.1-0.4-0.1c-0.1-0.1-0.3-0.3-0.4-0.4c-0.1-0.2-0.3-0.3-0.5-0.3c-0.1,0-0.2-0.1-0.3-0.1c-0.2-0.1-0.1-0.3-0.3-0.4
		c-0.1-0.1-0.4,0.1-0.4-0.2c-0.4,0.1-0.4-0.4-0.8-0.4c-0.1,0-0.1-0.2-0.2-0.2c-0.1,0-0.1-0.2-0.1-0.4c-0.1-0.4-0.2-0.7-0.7-0.7
		c-0.1,0-0.4-0.1-0.3-0.4c-0.2-0.1-0.1-0.4-0.3-0.3c-0.1,0-0.1,0-0.1-0.1c-0.1-0.4-0.3-0.8-0.2-1.2c-0.2-0.2,0.1-0.5-0.1-0.7
		c0.1-0.2,0.3-0.4,0.3-0.7c0-0.1,0.1,0,0.2,0c0.1,0,0.2,0.2,0.3,0.2c0.1-0.1,0-0.2,0-0.3c0-0.1-0.1-0.3,0.1-0.3c0.2,0,0.3-0.2,0.5,0
		c0.1,0.2,0.2,0.2,0.4,0c0.1-0.1,0.2-0.3,0.4-0.4c0.2-0.2,0.4-0.5,0.7-0.3c0.1,0,0.2,0,0.2,0c0.1-0.1,0.2-0.1,0.3,0
		c0.1,0.1,0.2,0.2,0.3,0.2c0.1,0,0.2,0.1,0.2,0.2c0,0.2-0.1,0.5,0.3,0.5c0.1,0.3,0.5,0.4,0.4,0.8c0,0.1,0.1,0.1,0.1,0.1
		c0.2,0,0.3,0.1,0.3,0.3c0.1,0.3,0.2,0.6,0.7,0.7c0.2,0,0.3,0.2,0.5,0.2c0.2,0,0.1,0.1,0.1,0.2c0,0,0,0,0,0.1c0,0,0,0.1,0.1,0.1
		c0.4-0.1,0.4,0.4,0.6,0.4c0.2,0,0.4,0,0.4,0.2c0.1,0.3,0.2,0.3,0.5,0.3c0.2,0,0.4-0.1,0.6,0.1c0.1,0.1,0.1,0,0.2-0.1
		c0.1-0.1,0.2-0.1,0.3,0c0.2,0.2,0.4,0.1,0.6,0.1c0.1,0,0.2-0.2,0.3-0.1c0.1,0.1,0.3,0.2,0.4,0.3c0.2-0.1,0.3-0.4,0.6-0.1
		c0.1,0.1,0.2-0.1,0.3-0.1c0.2,0.2,0.5,0.1,0.7,0c0.1-0.1,0.2,0,0.2,0.1c0.1,0.1,0.3,0.2,0.4,0.1c0.2-0.2,0.3,0.1,0.3,0.1
		c0,0.2,0.1,0.4,0.3,0.5c0.1,0.1,0.1,0.2,0,0.3c-0.1,0.1,0.1,0.2,0.1,0.2c0.3,0.3,0.3,0.3-0.2,0.6c0.2,0.2,0.5,0.4,0.4,0.7
		c0.2,0.1-0.1,0.2,0,0.4c0,0,0,0,0,0c-0.2-0.1-0.1,0.3-0.3,0.3c-0.1,0-0.1,0.1-0.1,0.2C56.2,22.3,56.3,22.4,56.4,22.5z"/>
	<path d="M76.1,9.5c0.1-0.2,0.2-0.4,0.2-0.7c0-0.1,0-0.2,0-0.2c-0.2-0.4-0.2-0.4,0.1-0.6c0.1-0.1,0.2-0.3,0.3-0.4
		c0.2-0.1,0.1-0.2,0-0.4c-0.1-0.2-0.2-0.4,0.1-0.5c0,0,0.2-0.6,0.2-0.7c-0.1-0.2-0.1-0.2,0.1-0.3c0.3-0.1,0.5-0.4,0.2-0.7
		c-0.1-0.1,0.2-0.2,0.1-0.3c-0.2-0.1,0-0.2,0-0.3c0,0,0.1-0.1,0-0.2c-0.1-0.2-0.1-0.4,0.1-0.4c0.3-0.1,0.3-0.5,0.5-0.7
		c0.1-0.1-0.2-0.3,0-0.4c0.2-0.1-0.1-0.2,0-0.4c0.1-0.2,0.2-0.3,0.1-0.5c-0.1-0.2-0.1-0.4,0.2-0.5c0.2-0.1,0.4-0.3,0.3-0.6
		c-0.1-0.2,0.1-0.3,0-0.4c-0.1-0.2,0.3-0.1,0.2-0.3c0,0,0,0,0,0c0.4,0,0.8-0.2,1.2-0.1c0.2,0.1,0.5,0,0.6,0.2c0,0,0.1,0,0.1,0
		c0.3-0.2,0.5,0,0.7,0.1c0.1,0,0.2,0,0.3-0.1c0.3-0.1,0.3-0.1,0.5,0.2c0,0,0,0.1,0.1,0.1c0.3,0,0.5,0.4,0.9,0.4c0.1,0,0.1,0,0.1,0.1
		c-0.1,0.5,0.4,0.3,0.5,0.4c0.2,0,0.1,0.2,0.2,0.3c0,0,0,0.1,0,0.1c-0.3,0-0.1,0.5-0.4,0.5c-0.1,0-0.1,0.1-0.1,0.1
		c0.2,0.2,0,0.3-0.1,0.4c-0.2,0.2-0.2,0.2-0.1,0.6c0,0.2-0.1,0.2-0.2,0.3c-0.2,0.1-0.1,0.3-0.1,0.4c0.1,0.2,0.2,0.3,0,0.4
		c-0.2,0.1,0,0.5-0.3,0.5c0,0.2-0.1,0.4-0.2,0.5c-0.1,0,0,0.2,0,0.3c0.1,0.6,0,0.9-0.3,1.3c0,0.1-0.1,0.1-0.1,0.2
		c0,0.1,0.1,0.4-0.2,0.4c-0.1,0,0,0,0,0.1c0.2,0.2,0.1,0.4,0.1,0.6c0,0.3-0.2,0.4-0.4,0.6c-0.1,0.2-0.2,0.4-0.5,0.4
		c-0.1,0-0.1,0.1-0.1,0.2c-0.1,0.3-0.3,0.6-0.3,0.9c0,0.2,0,0.2-0.2,0.2c-0.4,0-0.7-0.1-1-0.3c-0.3-0.2-0.6-0.4-0.9-0.6
		c-0.1-0.1-0.2-0.1-0.3-0.1c-0.1,0-0.2,0-0.3-0.1c-0.2-0.3-0.5-0.2-0.8-0.1c-0.1,0-0.2,0-0.3,0.1c-0.1,0-0.1-0.3-0.3-0.2
		C76.5,9.6,76.3,9.5,76.1,9.5z"/>
	<path d="M80.1,12.8c-0.2,0.3,0,0.6,0,1c0,0.2,0.3,0.4,0.1,0.6c-0.2,0.2,0,0.4-0.2,0.6c-0.1,0-0.1,0.2,0,0.3c0.2,0.4,0,1,0.3,1.4
		c0,0.1,0,0.2-0.1,0.2c-0.4,0.1-0.3,0.4-0.4,0.7c-0.1,0.2-0.1,0.4-0.2,0.6c-0.2,0.1-0.3,0.2-0.2,0.4c0,0.1,0,0.1-0.1,0.1
		c-0.4,0-0.7,0.3-1,0.6c0,0-0.1,0-0.1,0c-0.3-0.2-0.5,0-0.7,0.1c-0.1,0.1-0.3,0.1-0.4-0.1c-0.1-0.1-0.3-0.1-0.3,0
		c-0.2,0.1-0.4,0.1-0.5-0.1c-0.1-0.1-0.2,0-0.2,0.1c-0.2,0.2-0.3,0.2-0.5-0.1c0,0-0.6-0.3-0.6-0.4c-0.1-0.1-0.4-0.1-0.3-0.4
		c0-0.2-0.1-0.4-0.3-0.6c-0.1,0-0.1-0.2-0.2-0.3c-0.1-0.1-0.1-0.2,0-0.2c0.1-0.1,0.1-0.2,0-0.2c-0.4-0.2-0.2-0.4-0.1-0.6
		c0.1-0.2,0.1-0.3-0.1-0.4c-0.1-0.1-0.2-0.2-0.2-0.3c0-0.1-0.2-0.1-0.2-0.3c0-0.1,0.1-0.1,0.2-0.2c0.1,0,0.1-0.1,0.1-0.2
		c-0.2-0.2-0.1-0.3,0-0.5c0.1-0.3,0-0.6,0-0.9c0-0.1,0-0.2,0-0.2c0.1-0.1,0.3-0.1,0.3-0.2c0-0.1-0.1-0.2,0-0.3
		c0.2-0.2,0.3-0.4,0.5-0.6c0.1-0.1,0.1-0.1,0.1-0.2c0-0.1-0.1-0.2,0-0.3c0,0,0.1,0.1,0.2,0.1c0.1,0,0-0.2,0.1-0.2c0.1,0,0.2,0,0.2,0
		c0.1,0,0.4,0.1,0.4-0.2c0-0.1,0.1-0.1,0.2,0c0.2,0.2,0.3,0.2,0.4,0c0.1-0.2,0.3-0.1,0.4,0c0.2,0.2,0.3,0.3,0.5,0.1
		c0,0,0.2,0,0.2,0.1c0,0.1,0.1,0.2,0.2,0.2c0.1,0.1,0.3,0.1,0.3,0c0-0.3,0.3-0.2,0.4-0.2c0.1,0,0.2,0.2,0.4,0c0-0.1,0.1,0,0.2,0.1
		c0.1,0.1,0.2,0.2,0.3,0.3c0.1,0.1,0.3,0,0.3,0.2c0,0,0.1,0.1,0.1,0.1c0.1,0,0.2,0.1,0.3,0.2C80.1,12.6,80,12.8,80.1,12.8z"/>
	<path d="M25.8,61.5c-0.2-0.4-0.2-0.4-0.6-0.3c-0.1,0-0.2,0-0.2,0c-0.2,0-0.2-0.2-0.1-0.4c0,0,0.1-0.1,0.1-0.1c0-0.1,0-0.1,0-0.2
		c-0.1-0.1-0.1-0.1-0.2,0c-0.3,0.1-0.6-0.1-0.9-0.1C23.6,60,23.3,60,23,60c-0.2,0-0.3-0.1-0.2-0.4c0.1-0.2,0.1-0.3,0-0.5
		c-0.1-0.2,0-0.4-0.2-0.6c0.2-0.2,0-0.6,0.2-0.8c0.1-0.2,0.1-0.3,0-0.5c-0.1-0.2-0.1-0.3,0.1-0.4c0.2-0.1,0.1-0.3,0.1-0.4
		c0-0.3,0-0.6,0.1-0.7c0.2-0.2,0.5-0.4,0.8-0.5c0.1,0,0.2,0,0.3-0.1c0.3-0.2,0.6-0.4,1-0.4c0.2,0,0.2-0.1,0.2-0.2
		c0-0.1,0-0.1,0.1-0.1c0.3,0,0.6,0,0.8,0c0.1,0,0.2,0.1,0.3,0.1c0.1-0.1,0.3-0.2,0.3-0.3c0-0.2,0.1-0.2,0.3-0.2c0.1,0,0.2,0,0.3,0
		c0.1,0,0.2,0,0.3,0c0.1-0.3-0.1-0.7,0.1-1c-0.2-0.2,0.2-0.3,0-0.5c-0.1-0.1-0.3-0.2-0.3-0.4c-0.4-0.1-0.2-0.4-0.2-0.6
		c0-0.2,0-0.3-0.2-0.4c-0.2-0.1-0.3-0.3-0.2-0.5c0-0.1,0.2-0.1,0.1-0.3c-0.1-0.2-0.2-0.2-0.3-0.2c-0.2,0-0.3,0-0.4-0.2
		c-0.1-0.2-0.3-0.2-0.5-0.2c-0.1,0-0.3,0.1-0.4-0.1c0,0-0.1,0-0.2,0c0,0.3-0.2,0.2-0.4,0.3c-0.1,0.1-0.3,0.2-0.4,0.3
		c-0.3,0.2-0.5,0.2-0.8-0.1c-0.1,0.1-0.2,0.2-0.2,0.3c-0.1,0.1-0.2,0.1-0.2,0c-0.1-0.1-0.2-0.1-0.2,0c-0.2,0.2-0.5,0.3-0.8,0.3
		c-0.1,0-0.3,0.1-0.3,0.2c-0.1,0.3-0.4,0.4-0.6,0.5c-0.2,0.2-0.5,0.2-0.7,0c0,0-0.1,0-0.1,0c-0.1,0.3-0.5,0.2-0.7,0.5
		c-0.1,0.2-0.4,0-0.5,0.2c-0.1,0.2-0.2,0.3-0.4,0.4c-0.2,0.1-0.3,0.2-0.2,0.5c0,0,0.1,0.1,0,0.1c-0.1,0.1-0.3,0.2-0.2,0.4
		c0.1,0.2,0,0.3-0.1,0.4c-0.1,0.1-0.1,0.3,0,0.4c0.1,0.1,0.1,0.2,0,0.3c-0.3,0.2-0.4,0.5-0.2,0.8c0.1,0.1,0.1,0.3,0,0.4
		c-0.2,0.2,0,0.4-0.1,0.5c-0.2,0.2,0,0.3,0,0.4c-0.1,0.2-0.1,0.5-0.1,0.7c0,0.2-0.2,0.3-0.3,0.4c-0.2,0.1-0.3-0.1-0.4-0.2
		c-0.2-0.3-0.3-0.4-0.8-0.3c-0.1,0-0.1,0-0.2,0c-0.1-0.1-0.3,0-0.4-0.2l-0.9-0.4c-0.1-0.2-0.4-0.3-0.5-0.5c0,0,0-0.1-0.1-0.1
		c-0.4,0.1-0.7-0.2-1-0.3c-0.4-0.1-0.9-0.3-1.3-0.4c-0.2,0-0.2-0.1-0.3-0.3c-0.1-0.1-0.3-0.2-0.3-0.4c0-0.1-0.1-0.1-0.1-0.1
		c-0.3,0.2-0.4-0.3-0.7-0.2c0,0-0.1,0-0.1-0.1c0-0.1,0.2-0.2,0.1-0.4c-0.1-0.1,0-0.2,0-0.3c0.1-0.3,0.4-0.5,0.2-0.9
		c0.3-0.1,0.6,0.1,0.8-0.3c0.4,0.1,0.6-0.2,0.9-0.4c0.2-0.1,0.5-0.1,0.7-0.1c0.2,0,0-0.1,0-0.2c0-0.3,0.2-0.4,0.4-0.3
		c0.2,0.1,0.4-0.1,0.5,0.1c0,0,0.1,0,0.1-0.1c0-0.1,0.1-0.2,0.2-0.2c0,0,0.1,0,0.1,0c0.1-0.5,0.7-0.3,0.9-0.5c0,0,0,0,0,0
		c0.7-0.1,0.7-0.1,1-0.4c0.1-0.1,0.1-0.1,0.5-0.1c0.1,0,0.2,0,0.3,0c0.1-0.2,0-0.5,0.1-0.7c0.1-0.2,0.1-0.1,0.2,0
		c0.1,0.1,0.2,0,0.4,0.1c0.1,0.1,0.3,0.1,0.5-0.1c0.1-0.1,0.1-0.2,0.2-0.1c0.5,0.2,0.7-0.1,1-0.3c0.2-0.1,0.2-0.2,0.4-0.1
		c0.1,0.1,0.3,0.1,0.4-0.2c0.1-0.2,0.3-0.4,0.5-0.3c0.3,0.1,0.3-0.2,0.5-0.2c0.2,0,0.4,0.1,0.6-0.1c0.2-0.2,0.4-0.2,0.6-0.4
		c0.1-0.1,0.2-0.1,0.3,0c0.2,0.2,0.2,0,0.3-0.1c0,0,0-0.1,0-0.2c0.1-0.2,0.3-0.2,0.4-0.1c0.1,0.1,0.2,0.1,0.3,0.2
		c0.2,0.1,0.2,0.1,0.4,0c0.1-0.1,0.1-0.1,0.7-0.1c0.2-0.2,0.5,0,0.7-0.2c0,0,0.1,0,0.2,0c0,0.2,0.2,0.3,0.3,0.4
		c0.1,0.2,0.4,0.3,0.6,0.2c0,0,0,0,0,0c0.2,0.1,0.3-0.2,0.5-0.1c0.1,0.1,0.2,0.2,0.3,0.4c0.1,0.2,0.3,0.3,0.5,0.4c0,0,0,0,0.1,0
		c0.2-0.2,0.3-0.1,0.5,0c0.3-0.3,0.4,0,0.5,0.2c0.1,0.2,0.3,0.3,0.4,0.3c0.1,0,0.2,0.3,0.4,0.1c0.2,0.1,0.4,0,0.6,0.2
		c0.1,0.2,0.3,0.3,0.5,0.4c0,0,0.2,0,0.2,0c0.1,0,0.2,0,0.2,0.2c0,0,0.1,0.1,0.1,0.1c0.3,0.1,0.6,0.3,1,0.4c0.6,0.1,1.2,0.4,1.7,0.8
		c0.1,0.1,0.2,0.1,0.4,0.1c0.5,0,1,0.3,1.4,0.5c0.1,0.1,0.2,0.2,0.2,0.3c0,0.2,0.1,0.2,0.2,0.2c0.1,0,0.2,0,0.3,0.1
		c0.1,0.1,0.2,0.4,0.5,0.1c0,0,0.1,0.1,0.2,0.1c0,0.2,0.2,0.2,0.3,0.2c0.4,0,0.7-0.1,1.1,0.2c0.1,0.1,0.1,0.2,0,0.3
		c0,0-0.1,0.1-0.1,0.1c-0.2,0-0.1,0.2-0.2,0.2c-0.1,0-0.1,0.1,0,0.1c0.4,0,0.3,0.3,0.3,0.5c0,0.3,0.1,0.3,0.3,0.4
		c0.2,0.1,0.5,0,0.5,0.3c0,0.2-0.3,0.2-0.5,0.4c-0.1,0.1-0.3,0.2-0.5,0.3c-0.2,0-0.2,0.3-0.3,0.3c-0.1,0-0.3,0-0.4,0.1
		c-0.1,0.1-0.3,0.1-0.4,0.2c-0.1,0.1-0.2,0.1-0.2-0.1c0-0.1-0.1-0.1-0.1-0.1c-0.1,0-0.1,0.1-0.1,0.1C37.7,57,37.7,57,37.4,57
		c-0.3,0-0.5,0-0.6,0.3c-0.1,0.1-0.1,0-0.2,0c-0.2,0-0.5,0-0.5,0.2c-0.1,0.1-0.2,0.2-0.3,0.1c-0.3-0.2-0.4,0-0.6,0.1
		c-0.1,0.1,0,0.3-0.2,0.2c-0.2,0-0.4,0.1-0.6-0.1c-0.1-0.1-0.1-0.1-0.2-0.2c-0.1-0.1-0.2-0.1-0.2,0c0,0.2-0.2,0.3-0.3,0.4
		c-0.1,0.1-0.1,0.4-0.3,0.4c-0.1,0-0.3-0.2-0.4-0.2c-0.2,0-0.4-0.2-0.5,0.2c-0.2,0-0.3,0.1-0.4,0.3c-0.1,0.1-0.3,0.1-0.4,0.2
		c-0.4,0.3-0.4,0.2-0.8,0.3c-0.4,0-0.8,0.1-1,0.5c-0.1,0.3-0.6,0.4-0.9,0.3c-0.1-0.1-0.2,0-0.3,0.1c-0.1,0.1-0.1,0.2-0.2,0.3
		c-0.1,0.2-0.1,0.4-0.4,0.2c-0.1-0.1-0.1,0-0.1,0.1c-0.1,0.1-0.2,0.2-0.4,0c0-0.1-0.1,0-0.2,0.1c-0.1,0.1-0.1,0.3-0.2,0.4
		c0,0.1-0.1,0.2-0.2,0c0,0-0.1,0-0.2,0C26.5,61.3,26,61.1,25.8,61.5z"/>
	<path d="M52.3,66.3c0.2,0,0.2,0,0.3,0c0.1,0,0.2,0,0.2,0.1c0,0.1,0.1,0.2,0.1,0.3c0.1,0.1,0.2,0.2,0.3,0.2c0.2,0,0.2,0.2,0.3,0.3
		c0.2,0.1,0.4,0.1,0.6,0c0,0,0.1-0.1,0.1-0.1c0.2,0,0.7,0.5,0.6,0.7c-0.1,0.2,0,0.3-0.1,0.5c0,0.1-0.1,0.3-0.2,0.1
		c-0.1-0.1-0.2,0-0.2,0.1c-0.1,0.3-0.4,0.4-0.5,0.7c0,0.2-0.2,0.2-0.3,0.1c-0.1,0-0.1,0-0.2,0.1c0,0.2-0.3,0.2-0.3,0.4
		c-0.4,0-0.6,0.4-0.8,0.6c-0.1,0-0.1,0-0.2,0c-0.3,0-0.6-0.1-0.7,0.2c-0.2-0.1-0.3,0.1-0.4,0.2c-0.1,0.1-0.2,0.2-0.4,0
		c-0.1-0.1-0.3-0.1-0.4,0c-0.1,0.1-0.3,0.3-0.5,0.1c0,0-0.1,0-0.2,0.1c-0.1,0.2-0.4,0.2-0.5,0.3c-0.2,0.1-0.4-0.2-0.6-0.1
		c-0.1,0-0.2-0.2-0.2,0.1c0,0.3-0.1,0.1-0.2,0.1c-0.3,0-0.6-0.1-0.8-0.1c-0.1,0-0.2-0.1-0.2-0.1c-0.1-0.4-0.5-0.5-0.8-0.6
		c-0.2-0.1-0.3-0.3-0.4-0.2c-0.4,0.1-0.6-0.2-0.8-0.5c0,0-0.1-0.1-0.1-0.1c-0.2,0-0.4-0.1-0.6-0.3c-0.1-0.2-0.4-0.3-0.6-0.5
		c-0.1-0.2-0.2-0.4-0.4-0.6c-0.2-0.3-0.1-0.7-0.2-1.1c0-0.1,0-0.1,0.1-0.1c0.3-0.1,0.4-0.4,0.8-0.3c0.3,0,0.5-0.2,0.7-0.4
		c0.4-0.2,0.8-0.3,1.1-0.7c0.1-0.1,0.1,0,0.2-0.1c0.2,0,0.4,0.1,0.5-0.1c0.1-0.2,0.2-0.1,0.3-0.3c0.2-0.3,0.5-0.4,0.9-0.4
		c0.2,0,0.4-0.1,0.5,0.2c0,0.1,0.3,0,0.4-0.2c0.1-0.2,0.3-0.2,0.5-0.1c0.2,0.3,0.7,0.5,1,0.4c0.3-0.1,0.5,0,0.7,0.1
		c0.2,0.1,0.3,0.1,0.5-0.1c0.1-0.1,0.3-0.1,0.3-0.2c0-0.1,0.2,0,0.2,0c0,0.3,0.3,0.3,0.4,0.4c0,0,0.1,0,0.2,0.1
		C52.6,65.9,52.6,65.9,52.3,66.3z"/>
	<path d="M42.6,58.7c-0.1-0.2-0.4,0-0.5-0.1c0,0-0.2-0.1-0.1-0.2c0.1-0.1,0.3-0.1,0.4-0.3c0,0,0.3,0,0.4,0c0.1,0,0.2,0.1,0.2,0.1
		c0.1-0.5,0.6,0,0.8-0.4c0.1-0.1,0.3,0,0.4-0.2c0,0,0.2,0,0.2-0.1c0-0.2,0-0.3,0.3-0.3c0,0,0.1,0,0.1-0.1c0-0.4,0.5-0.6,0.6-0.9
		c0-0.1,0.1-0.1,0.2-0.2c0.2-0.2,0.2-0.2,0.5,0c0.2,0.1,0.6,0.3,0.8,0.2c0.2-0.1,0.3,0.2,0.6,0c0.1-0.1,0.4,0,0.6-0.1
		c0.2-0.1,0.4,0,0.6-0.1c0.2,0,0.3,0.1,0.5,0.1c0.3,0.1,0.5,0.4,0.8,0.3c0.1,0,0.1-0.2,0.2-0.1c0.1,0,0,0.1,0.1,0.2
		c0.1,0.1,0.2,0.2,0.4,0.3c0.1,0,0.4,0,0.4,0.3c0,0,0.1,0.1,0.1,0.1c0.2,0,0.5-0.1,0.6,0.2c0.2,0,0.3,0,0.5,0c0.1,0,0.2,0,0.3,0
		c0.2,0.3,0.5,0.3,0.7,0.5c0.1,0.1,0.1,0.1,0.2,0.1c0.2-0.1,0.4,0.1,0.5,0.2c0.1,0.1,0.2,0.1,0.3,0.2c0.1,0.1,0.3,0,0.4,0.1
		c0.1,0,0,0.2,0.2,0.2c0.1,0,0.1,0.2,0.3,0c0.1-0.1,0.2,0,0.3,0c0.1,0,0.1,0.1,0.2,0.2c0,0-0.1,0.1-0.1,0.1
		c-0.1,0.2-0.3,0.3-0.5,0.4c-0.2,0.1-0.3-0.2-0.4-0.1c0,0-0.1,0-0.2,0c0,0,0,0.1,0,0.2c0.1,0.1,0.2,0.2,0.2,0.2
		c0,0.1-0.3,0.2-0.2,0.4c-0.2-0.1-0.4,0.3-0.6,0.1c-0.2-0.1-0.3-0.1-0.4,0.2c0,0-0.1,0.1-0.1,0.1c0,0.2-0.1,0.3-0.3,0.1
		c-0.2-0.1-0.5,0-0.8-0.1c-0.1,0,0,0.3-0.3,0.2c-0.2,0-0.2,0.1-0.2,0.2c-0.1,0.1-0.2,0.3-0.3,0.2c-0.1-0.1-0.2,0.2-0.3,0
		c0-0.1-0.1,0-0.2,0.1c-0.1,0.3-0.2,0.3-0.5,0.2c-0.2-0.1-0.3,0-0.5-0.1c-0.1,0-0.6,0-0.6,0c-0.1,0.1,0,0.2-0.1,0.3
		c-0.1,0.1-0.1,0.2-0.3,0.1c-0.2-0.1-0.5,0-0.7-0.2c-0.3,0-0.7-0.1-1,0.2c-0.1,0.1-0.2,0.1-0.3,0c-0.2-0.2-0.5-0.4-0.8-0.1
		c-0.1,0.1-0.3,0-0.4-0.1c-0.4,0.1-0.6-0.2-0.9-0.3c-0.2-0.1-0.3-0.3-0.5-0.2c-0.1,0-0.2-0.1-0.2-0.2c0-0.1,0-0.2,0-0.4
		c0-0.1,0-0.1,0-0.2c-0.1-0.1-0.3-0.1-0.3-0.2c0-0.1,0.2-0.2,0.2-0.3c-0.2-0.2-0.5,0.1-0.7-0.2c-0.1-0.1-0.2,0-0.3,0
		c-0.1,0-0.1-0.2-0.2-0.3c0-0.1-0.1-0.1-0.2-0.1c-0.1,0-0.1,0-0.2,0c-0.1,0-0.2-0.1-0.2-0.2C42.3,58.6,42.6,58.8,42.6,58.7z"/>
	<path d="M57.7,66.4c-0.2-0.2-0.3-0.3-0.5-0.5c0,0-0.1-0.1-0.1-0.1c-0.2-0.2-0.4,0.3-0.6,0c-0.1-0.2-0.3-0.3-0.5-0.1
		c0,0-0.1,0-0.2,0c-0.2-0.3-0.6-0.3-0.9-0.4c-0.1,0-0.1-0.1-0.1-0.1c0-0.1,0.2-0.1,0.2-0.1c0.1,0,0.1,0,0.1-0.1c0,0,0-0.1,0-0.1
		c0,0-0.1,0-0.2,0c-0.1-0.1-0.2-0.1-0.2-0.3c0-0.1,0.2,0,0.2-0.2c-0.3,0-0.6,0.1-0.6-0.3c0,0-0.1,0-0.2,0c-0.1,0.1-0.2,0.2-0.3,0
		c-0.1-0.1-0.3-0.1-0.1-0.3c0.1-0.1-0.2,0-0.2-0.2c-0.1-0.1-0.2-0.2-0.1-0.4c0-0.1,0-0.2,0-0.3c0-0.1,0-0.2,0-0.2
		c0.4,0.1,0.3-0.4,0.6-0.4c0.1-0.2,0.3-0.1,0.4-0.1c0.1,0,0.2,0.1,0.3,0c0.1-0.1,0.1-0.3,0.4-0.4c0.2,0,0.3-0.2,0.5-0.2c0,0,0,0,0,0
		c-0.2-0.1-0.5,0.1-0.5-0.2c0-0.1,0.2-0.3,0.3-0.4c0.1-0.2,0.4-0.1,0.4-0.4c0.2,0,0.3,0,0.4,0c0.2,0.1,0.4,0.1,0.6-0.1
		c0.1-0.1,0.2-0.2,0.2,0c0.1,0.2,0.2,0.1,0.4,0.1c0.3,0,0.5,0.1,0.8,0.1c0.1,0,0.2,0.1,0.3,0.1c0.1,0,0.1-0.2,0.3,0
		c0.1,0.1,0.1-0.1,0.2-0.1c0.1-0.1,0.2-0.1,0.2,0c0.1,0.3,0.3,0.2,0.5,0.2c0.1-0.1,0.3-0.1,0.3-0.1c0.1,0.2,0.4,0,0.5,0.2
		c0.1,0.2,0.4,0.1,0.4,0.4c0,0.1,0.1,0.1,0.2,0.1c0.2,0,0.3,0,0.5,0.1c0.1,0,0.1,0.1,0.1,0.2c0,0.2,0.1,0.3,0.2,0.2
		c0.2-0.1,0.2-0.1,0.4,0.1c0.1,0.1,0.3,0.1,0.4,0.3c0,0.1,0.1,0.1,0.2,0.1c0.2,0,0.3,0,0.4,0.2c0,0,0.1,0.1,0.1,0.1
		c0.3-0.3,0.5,0.3,0.9,0.1c0,0,0.1,0,0.1,0.1c0.3,0.4,0.4,0.5,0.8,0.5c0.1,0,0.2,0,0.2,0.1c0,0.1-0.1,0.1-0.1,0.1
		c-0.1,0-0.1,0.1-0.1,0.2c0,0.1,0,0.3-0.1,0.4c-0.1,0.1,0,0.2-0.2,0.2c-0.1,0-0.3-0.1-0.4,0c-0.1,0.1-0.4,0.1-0.3,0.4
		c0,0.1,0,0.2-0.2,0.2c-0.3,0.1-0.5,0.4-0.8,0.1c-0.1,0-0.1,0-0.1,0.1c-0.2,0.2-0.3,0.5-0.7,0.2c0,0-0.2,0-0.2,0
		c-0.3,0-0.4,0.1-0.4,0.4c0,0.2,0,0.3-0.2,0.2c-0.3,0.3-0.7,0.2-1.1,0.2c-0.2,0-0.3,0.1-0.4,0.2c-0.1,0.2-0.2,0.4-0.3,0.4
		c-0.2,0-0.3,0-0.4,0.1c-0.1,0.1-0.2-0.1-0.2-0.1c0.1-0.3-0.2-0.3-0.3-0.4c-0.1-0.1-0.2-0.1-0.2-0.2c0-0.1-0.1-0.3-0.3-0.1
		c0,0-0.1,0-0.1,0c-0.1-0.2-0.3-0.1-0.4,0C57.9,66.3,57.7,66.2,57.7,66.4z"/>
	<path d="M36.4,59.9c0.1,0.1,0.2,0.2,0.3,0.3c0,0,0.1,0.1,0.1,0.1c0.2-0.2,0.4-0.1,0.6,0c0.1-0.2,0.4,0.2,0.5-0.1
		c0.1,0.2,0.2,0,0.3,0.1c0.2,0.1,0.4,0.2,0.7,0.2c0.1,0,0.2,0,0.2,0.1c0.1,0.3,0.3,0,0.4,0.1c0.2,0.1,0.3-0.2,0.5-0.1
		c0.1,0.1,0.1,0.3,0.3,0.4c0.2,0.1,0.3,0.3,0.5,0.5c0.1,0.1,0.2,0.2,0.4,0.1c0.2-0.1,0.4,0.2,0.5,0.4c0,0.1,0,0.2,0.2,0.2
		c0.2,0,0.4,0.1,0.6,0.1c0.3,0.1,0.6,0.2,0.8,0.4c0.3,0.3,0.3,0.3,0.3,0.5c-0.1,0.3,0.1,0.5,0.3,0.7c0.1,0,0.1,0.1,0,0.2
		c0,0.1-0.1,0-0.1,0c-0.1-0.1-0.3-0.1-0.4,0c-0.1,0.1-0.2,0.2-0.3,0.1c-0.1-0.1-0.2,0.1-0.3,0.2c0,0.1,0,0.2,0,0.4
		c0,0.2,0,0.2-0.1,0.2c-0.1,0-0.2,0-0.3,0.1c0,0.1-0.2,0.1-0.2,0.1c-0.1-0.1-0.2-0.1-0.3,0c-0.1,0.1-0.1,0.2-0.1,0.3
		c0,0.2-0.2,0.1-0.3,0.2c-0.1,0.1-0.2-0.2-0.4,0c-0.1,0.1-0.3,0.2-0.4,0.3c-0.1,0.1-0.2,0.1-0.3,0c-0.1-0.1-0.2-0.1-0.4,0.1
		c-0.1,0.2-0.4,0.4-0.7,0.3c-0.2,0-0.3,0-0.5,0.3c-0.1,0.1-0.3-0.2-0.3,0.1c0,0.2-0.2,0.1-0.3,0c-0.1-0.1-0.1,0-0.2,0
		c-0.2,0.1-0.3,0-0.4-0.1c-0.1-0.2-0.2-0.2-0.3-0.2c-0.1,0-0.2-0.1-0.3-0.1c-0.3-0.2-0.6-0.2-1,0c-0.2,0.1-0.3,0.1-0.4-0.1
		c-0.3-0.2-0.3-0.2-0.7-0.3c0.1-0.1,0.2-0.1,0.3-0.2c-0.1-0.2-0.3-0.3-0.4-0.5c0-0.1-0.1-0.1-0.2-0.1c-0.2,0-0.2-0.3-0.4-0.2
		c-0.1,0-0.3,0.1-0.4-0.2c0-0.1-0.3,0-0.5-0.1c0,0-0.1,0-0.1-0.1C33.4,64,32.9,64,33,63.6c-0.2-0.1-0.2-0.2-0.3-0.4
		c0-0.1-0.3-0.2-0.3-0.4c-0.1-0.2,0.3-0.2,0.2-0.4c0-0.1,0-0.2,0.1-0.3c0.1-0.1,0.1,0,0.2,0c0,0,0.1,0,0.1-0.1
		c0.1-0.4,0.5-0.4,0.8-0.5c0.2-0.1,0.4,0,0.5-0.2c0-0.1,0.1-0.1,0.2,0c0.3,0.1,0.6-0.1,0.7-0.3c0.2-0.2,0.5-0.2,0.6-0.5
		C35.9,60.3,36.2,60.1,36.4,59.9z"/>
</g>
</svg>
