<?xml version="1.0" encoding="utf-8"?>
<!-- Generator: Adobe Illustrator 27.7.0, SVG Export Plug-In . SVG Version: 6.00 Build 0)  -->
<svg version="1.1" id="Ebene_1" xmlns="http://www.w3.org/2000/svg" xmlns:xlink="http://www.w3.org/1999/xlink" x="0px" y="0px"
	 viewBox="0 0 133.2 72.6" style="enable-background:new 0 0 133.2 72.6;" xml:space="preserve">
<g>
	<path d="M101.3,20.4c0.3-0.1,0.4-0.2,0.5-0.5c0.1-0.2,0.4-0.4,0.5-0.7c0,0,0.1-0.1,0.1-0.1c0.3,0,0.4-0.2,0.5-0.4
		c0.1-0.2,0.3-0.4,0.6-0.3c0.1,0,0.2,0,0.3-0.1c0.2-0.2,0.4-0.3,0.5-0.4c0.3-0.3,0.6-0.4,0.9-0.5c0.2,0,0.3,0,0.3-0.2
		c0-0.1,0.1-0.1,0.2-0.1c0.3,0,0.5-0.1,0.8,0.1c0.1,0.1,0.3,0.1,0.5,0.1c0.4,0,0.5,0,0.5,0.5c0,0.2,0,0.3,0.2,0.3
		c0.4,0.1,0.4,0.5,0.4,0.8c0,0.3,0.1,0.6,0.3,0.8c0,0,0,0,0,0c0,0.3,0.1,0.7,0.3,1c0,0.1,0,0.2-0.1,0.3c-0.2,0.2-0.5,0.4-0.5,0.8
		c0,0.1-0.1,0.1-0.2,0.1c-0.2,0.1-0.5,0.1-0.6,0.4c0,0.1-0.2,0.1-0.3,0.2c-0.1,0.2-0.3,0.1-0.5,0.2c-0.2,0.1-0.1,0.4-0.4,0.3
		c-0.2-0.1-0.2,0.3-0.5,0.3c0.2,0.2,0.3,0.3,0.5,0.5c0.1,0.1,0.1,0.1,0.2,0.1c0.5-0.1,0.5,0.3,0.6,0.7c0.1,0.1,0.2,0,0.4,0
		c0.3,0,0.5,0,0.6,0.2c0.1,0.1,0.2,0.2,0.4,0.1c0.2-0.1,0.4-0.1,0.6,0c0.3,0.2,0.6,0.1,0.8-0.1c0.2-0.2,0.5,0.1,0.6-0.1
		c0.2-0.2,0.4-0.2,0.6-0.2c0,0,0.1,0,0.1,0c0.2-0.4,0.6-0.3,1-0.4c0.1,0,0.2-0.1,0.3-0.2c0.1-0.1,0.1-0.1,0.2-0.2
		c0.2-0.1,0.3,0.3,0.5,0c0.1-0.2,0.3-0.1,0.5-0.1c0.1,0,0.2,0,0.2-0.2c0,0,0.1-0.1,0.1-0.1c0.3,0,0.5-0.1,0.7-0.2
		c0.2-0.1,0.5-0.2,0.8-0.2c0.1,0,0.3,0.1,0.4,0c0.3-0.2,0.5-0.1,0.7,0.2c0.1,0.2,0.3,0.1,0.4,0.1c0.2,0,0.4,0.1,0.5,0.3
		c0.1,0.3,0.1,0.6,0.3,0.8c0,0,0,0.1,0,0.2c-0.2,0.3,0.1,0.5,0,0.7c0.2,0.2,0,0.6,0.2,0.8c0,0,0,0.2,0,0.2c-0.3,0.3-0.3,0.7-0.3,1
		c0,0.2-0.2,0.3-0.2,0.4c-0.1,0.6-0.6,0.5-1,0.6c-0.2-0.1-0.4,0-0.6,0c-0.2,0-0.4,0-0.6,0.1c-0.2,0.1-0.3,0.2-0.5,0c0,0-0.2,0-0.2,0
		c0,0.3-0.2,0.2-0.4,0.2c-0.2-0.1-0.3,0.2-0.4,0.1c-0.1,0-0.3,0-0.3,0.2c0,0-0.1,0-0.1,0c-0.3-0.1-0.5,0-0.7,0.3
		c-0.1,0.1-0.1,0.1-0.2,0.1c-0.2,0-0.3,0-0.4,0.2c-0.1,0.1-0.2,0.1-0.3,0.1c-0.1,0-0.2,0-0.3,0.1c0,0-0.1,0.1-0.1,0.1
		c-0.6,0-1.2,0.3-1.8,0.2c0,0-0.1,0-0.1,0c-0.1-0.1-0.2-0.1-0.2,0.1c-0.1,0.1-0.4,0.1-0.5,0c-0.2-0.1-0.3-0.1-0.5,0
		c-0.3,0.1-0.6,0.1-0.8-0.1c-0.1-0.1-0.3-0.2-0.5-0.2c-0.3,0-0.6-0.3-0.9-0.3c-0.1,0,0-0.3-0.3-0.2c-0.1,0-0.3-0.1-0.4-0.1
		c-0.2,0.1,0.1,0.2,0.1,0.3c0,0.2,0,0.4-0.1,0.7c-0.1,0.1-0.1,0.3,0,0.6c0,0.2,0.1,0.4-0.1,0.6c0,0,0,0.1,0,0.2c0.1,0.2,0,0.3,0,0.5
		c-0.1,0.6-0.3,1.1-0.3,1.6c0,0.2-0.2,0.4-0.1,0.7c0,0.2-0.1,0.5-0.1,0.7c-0.1,0.5,0,1.1,0,1.6c0,0.2,0.2,0.4,0.4,0.4
		c0.1,0,0.3,0,0.4,0c0.3-0.1,0.4,0.2,0.6,0.2c0.2,0,0.4-0.3,0.6-0.1c0.5,0.4,1.1,0.2,1.6,0.2c0.2,0,0.3,0,0.4,0.2
		c0.2,0.2,0.5,0.3,0.8,0.2c0.3-0.1,0.6-0.1,0.7,0.2c0.1,0.1,0.2,0.1,0.4,0.1c0.3,0,0.7,0,1,0.1c0.3,0.1,0.4,0.4,0.7,0.5
		c0.2,0.1,0.3,0.2,0.5,0.1c0.2-0.1,0.4,0,0.6,0c0,0,0.1,0,0.1,0.1c0.1,0.4,0.3,0.3,0.5,0.2c0.2-0.1,0.4,0,0.4,0.2
		c0,0.1,0,0.2,0.1,0.1c0.1-0.1,0.3-0.1,0.4,0c0.1,0.1,0.3,0.2,0.4,0.3c0.1,0.2,0.3,0.1,0.4,0c0.1-0.3,0.1-0.6,0.1-0.9
		c0-0.2,0-0.4,0.2-0.5c0.2-0.1,0.3-0.3,0.3-0.6c0,0,0-0.1,0-0.1c0-0.1,0.3-0.2,0.2-0.3c-0.1-0.1,0-0.3,0-0.4
		c-0.1-0.3,0.2-0.6,0.2-0.9c0.1-0.2,0.2-0.4,0.1-0.6c0-0.1,0-0.2,0.1-0.3c0.1-0.1-0.1-0.4-0.3-0.3c-0.3,0.2-0.5,0.1-0.8,0.2
		c-0.3,0.2-0.7-0.1-1-0.2c-0.3-0.2-0.6-0.2-0.9-0.3c-0.1,0-0.2,0-0.2-0.1c0.1-0.3-0.2-0.4-0.2-0.6c0-0.1-0.1-0.2-0.1-0.3
		c-0.2-0.2-0.2-0.4,0-0.5c0.3-0.3,0.2-0.6,0.1-0.9c-0.1-0.3-0.2-0.6,0.1-0.9c0.1-0.1-0.2-0.3,0-0.4c0.1-0.1,0.3-0.2,0.3-0.4
		c0-0.1,0-0.3,0-0.5c0.3,0,0.6,0,0.8-0.3c0-0.1,0.1-0.1,0.1-0.1c0.3,0.2,0.6-0.1,0.9,0.1c0.1,0.1,0.4,0,0.6,0c0.1,0,0.2-0.1,0.2-0.2
		c0.1-0.3,0.2-0.3,0.4-0.3c0.2,0,0.3,0,0.5,0c0.4,0,0.4,0,0.6-0.2c0.1-0.1,0.3-0.1,0.4,0c0.1,0.1,0.3,0.2,0.5,0c0,0,0.1,0,0.1-0.1
		c0.1-0.1,0.2,0.1,0.4,0.1c0.1,0,0.3-0.2,0.4-0.2c0.1,0,0.3-0.1,0.4,0.1c0,0.1,0.1-0.1,0.2-0.1c0-0.2,0.1-0.2,0.3-0.2
		c0.7,0.1,1.4-0.2,2.2-0.1c0,0,0.1,0,0.1,0c0.2-0.4,0.6-0.2,0.9-0.2c0.2,0,0.3-0.1,0.3-0.2c0.1-0.3,0.2-0.3,0.5-0.2c0,0,0.1,0,0.1,0
		c0.4-0.1,0.6,0.3,0.9,0.3c0,0.3,0.2,0.2,0.4,0.2c0.2,0,0.1,0.3,0.3,0.3c-0.1,0.3,0.1,0.5,0.2,0.7c0.1,0.2,0.2,0.3,0.3,0.6
		c0,0.2,0.2,0.4,0.4,0.6c0.2,0.2,0.3,0.5,0.1,0.8c-0.1,0.2-0.1,0.4,0,0.6c0.1,0.1,0.1,0.3,0,0.4c-0.2,0.5-0.4,1.1-0.3,1.7
		c0,0.2-0.2,0.2-0.2,0.3c-0.1,0.1-0.2,0.3-0.3,0.4c-0.3,0.3-0.7,0.2-1.1,0.3c-0.2,0.1-0.4-0.1-0.6,0c-0.2,0.1-0.4,0-0.7,0
		c-0.2,0-0.4-0.2-0.6,0c-0.1,0.1-0.4,0-0.6,0.1c-0.1,0-0.2,0.1-0.3,0c-0.1-0.1-0.3-0.1-0.4-0.1c-0.6,0-0.5,0-0.9,0.5
		c-0.2,0.3-0.1,0.6-0.1,0.9c0,0.1,0.1,0.1,0.2,0.1c0.3,0,0.6,0.1,0.8-0.2c0.2,0,0.4-0.1,0.7-0.1c0.2,0,0.2,0.1,0.4,0.1
		c0.2,0.2,0.3,0.1,0.5-0.1c0.1-0.1,0.2-0.1,0.3-0.1c0.2,0,0.2,0.2,0.4,0.1c0.2,0,0.5,0,0.7,0c0.2,0,0.3,0.3,0.6,0.3
		c0,0,0.2,0.1,0.3,0.1c0.2,0,0.5-0.1,0.6,0.1c0.1,0.2,0.4,0.1,0.5,0.3c0.1,0.1,0.2,0.1,0.3,0.2c0.1,0.2,0.2,0.3,0.4,0.3
		c0,0,0.1,0,0.1,0c0,0.3,0.4,0.3,0.5,0.4c0.2,0.2,0.4,0.5,0.7,0.5c0.2,0,0.1,0.1,0.1,0.2c0,0.3,0.1,0.4,0.4,0.4
		c0.1,0,0.2,0.1,0.2,0.3c0,0.1,0,0.2,0,0.2c0.4,0,0.3,0.4,0.5,0.6c0.2,0.1,0.3,0.3,0.3,0.6c0,0.1,0.1,0.3,0.2,0.3
		c0.2,0,0.2,0.1,0.2,0.3c0,0.1,0,0.2,0.1,0.3c0.2,0.2,0.5,0.2,0.4,0.6c0,0,0.1,0.2,0.1,0.2c0.2,0,0.2,0.2,0.2,0.3
		c0,0.4,0,0.4,0.2,0.7c0.1,0.1,0.2,0.2,0.2,0.4c0,0.2,0.1,0.3,0.1,0.4c0.2,0.4,0.1,0.8,0.3,1.2c-0.1,0.3-0.2,0.6,0.1,0.8
		c0,0,0,0.2,0,0.3c-0.1,0.2-0.1,0.4,0,0.6c0.1,0.1,0.1,0.3,0,0.4c-0.3,0.3-0.2,0.6-0.1,1c0,0.1,0.1,0.3,0,0.3
		c-0.2,0.3-0.1,0.6-0.1,0.9c0,0.2,0,0.3-0.2,0.5c-0.1,0.1-0.1,0.3-0.1,0.6c0,0.2-0.2,1.1-0.4,1.3c-0.1,0.1-0.2,0.3-0.2,0.4
		c-0.1,0.3,0.1,0.6-0.2,0.9c0.1,0.3-0.3,0.5-0.3,0.9c0,0-0.1,0.1-0.1,0.1c-0.3,0.1-0.4,0.3-0.3,0.6c0,0.1-0.1,0.2-0.2,0.3
		c-0.3,0.3-0.4,0.6-0.6,1.1c-0.1,0.2-0.2,0.5-0.4,0.6c-0.2,0.1-0.4,0.2-0.5,0.5c-0.1,0.1-0.3,0.1-0.3,0.2c0.1,0.4-0.4,0.4-0.4,0.7
		c0,0-0.1,0.1-0.1,0.1c-0.4,0-0.6,0.4-0.8,0.6c-0.1,0.1-0.2,0.2-0.4,0.2c-0.2,0-0.3,0.1-0.3,0.2c-0.1,0.2-0.2,0.4-0.4,0.5
		c-0.2,0.1-0.3,0.4-0.5,0.2c-0.2,0.1-0.4,0.3-0.6,0.2c-0.1,0.2-0.3,0.2-0.5,0.3c-0.2,0.1-0.4,0.2-0.6,0.3c-0.1,0-0.1,0-0.2,0
		c-0.2-0.2-0.5,0.1-0.7,0c-0.2-0.1-0.3-0.2-0.4,0.1c0,0.1-0.3,0.1-0.4,0c-0.2-0.1-0.5-0.1-0.7,0c-0.2,0.1-0.4,0.1-0.5,0
		c-0.3-0.1-0.5-0.1-0.8-0.1c-0.2,0-0.5,0-0.6-0.2c-0.1-0.1-0.3,0-0.4-0.1c-0.2-0.3-0.5-0.1-0.7-0.1c-0.1,0-0.2,0-0.3,0
		c-0.1,0-0.2,0-0.2-0.1c0-0.5-0.3-0.3-0.5-0.3c-0.1,0-0.2,0-0.2-0.2c0-0.2-0.3-0.3-0.4-0.3c-0.2,0-0.3-0.2-0.5-0.2
		c-0.4-0.1-0.5-0.5-0.9-0.7c-0.1-0.1-0.2-0.2-0.2-0.3c0-0.3-0.2-0.4-0.4-0.5c-0.3,0-0.3-0.2-0.3-0.4c0-0.2,0-0.4-0.3-0.5
		c-0.1,0-0.2-0.2-0.2-0.3c0-0.3,0-0.3-0.2-0.6c-0.2-0.3-0.2-0.3-0.3-1c-0.1,0.1-0.1,0.3-0.3,0.3c-0.2-0.1-0.4,0.1-0.6,0.2
		c-0.2,0.1-0.2,0.4-0.5,0.3c-0.2-0.1-0.3,0.2-0.6,0.1c-0.2,0-0.2,0-0.2,0.2c0,0.4,0,0.4,0.1,0.6c0.2,0.2,0.2,0.5,0.2,0.8
		c0,0.2,0,0.4,0,0.5c0,0.2,0,0.4,0.2,0.6c0.2,0.2,0.2,0.4,0,0.6c-0.1,0.1-0.2,0.2-0.2,0.4c0,0.2-0.3,0.2-0.4,0.3
		c-0.4,0.2-0.4,0.2-0.4,0.6c-0.3,0.1-0.5,0-0.6-0.2c-0.3,0.1-0.3,0.5-0.7,0.5c0,0-0.1,0-0.1,0.1c-0.1,0.3-0.2,0.4-0.5,0.2
		c-0.2,0.2-0.4-0.1-0.6,0.1c-0.1,0.1-0.4,0.2-0.4-0.2c0,0,0,0,0,0c-0.5,0.1-0.5-0.3-0.7-0.5c-0.2-0.1-0.2-0.3-0.1-0.5
		c0.1-0.1,0-0.2-0.1-0.2c-0.2-0.2-0.4-0.3-0.1-0.6c0,0,0-0.2-0.1-0.2c-0.2,0-0.3-0.2-0.3-0.4c0-0.2-0.2-0.4-0.2-0.6
		c0-0.1-0.1-0.1-0.1-0.1c-0.2,0-0.5-0.1-0.7,0.2c0,0.1-0.1,0.1-0.2,0.1c-0.3,0-0.6-0.1-0.7,0.2c-0.3-0.1-0.5,0.2-0.9,0.1
		c-0.2,0-0.4,0-0.5,0.2c-0.1,0.1-0.1,0-0.2,0.1c-0.1,0-0.2-0.1-0.4-0.1c-0.1,0-0.2,0.1-0.3,0.2c-0.2,0.2-0.4,0.1-0.7,0
		c-0.1,0-0.2-0.1-0.2,0c-0.2,0.3-0.5,0.2-0.7,0.4c0,0-0.1,0.1-0.1,0.1c-0.2,0-0.4,0-0.6-0.1c0,0.4-0.3,0.1-0.5,0.2
		c-0.2,0-0.3,0.1-0.6,0.3c-0.1,0.1-0.2,0.1-0.3,0c-0.2-0.2-0.5-0.2-0.7,0.1c0,0,0,0,0,0c-0.3,0-0.7,0.1-1,0.1c-0.2,0-0.4,0-0.5,0.1
		c-0.1,0.1-0.1,0.2-0.3,0.2c-0.3,0.1-0.7,0.1-1,0.2c-0.1,0-0.2,0-0.3,0.1c-0.4,0.3-0.8,0.4-1.3,0.4c-0.2,0.2-0.6,0-0.8,0.2
		c-0.1,0.1-0.2,0-0.3,0c-0.4-0.1-0.8,0.1-1.3,0.1c-0.1,0-0.2,0-0.2,0.1c-0.1,0.1-0.2,0.2-0.4,0.1c-0.2,0-0.4,0-0.6,0.1
		c-0.1,0.1-0.2,0.1-0.4,0.1c-0.1,0-0.2-0.1-0.3,0.1c-0.1,0.2-0.4,0.1-0.6,0.2c-0.2,0.1-0.4,0.1-0.5,0c-0.1-0.1-0.1,0-0.2,0.1
		c-0.2,0.2-0.4,0.3-0.6,0.1c-0.1-0.1-0.3-0.1-0.5,0c-0.3,0.2-0.6,0.5-1,0.2c-0.2,0-0.5-0.1-0.7,0.2c-0.1,0.1-0.1,0.1-0.2,0.1
		c-0.3-0.1-0.5,0.2-0.9,0.1c-0.1,0-0.1,0-0.2,0c-0.2,0.2-0.4,0.2-0.6,0.2c-0.2,0-0.5,0.1-0.7,0.1c-0.2,0-0.5,0.4-0.7,0
		c-0.2,0.2-0.5,0.1-0.8,0.1c-0.1,0-0.3,0-0.3,0c-0.2,0.4-0.5,0.2-0.8,0.1c-0.1,0-0.2,0-0.2,0c-0.2,0.2-0.3,0.1-0.5,0.1
		c-0.1,0-0.3,0-0.4,0.1c-0.3,0.2-0.6,0.2-0.9,0c-0.1-0.1-0.2-0.1-0.2,0c-0.1,0.2-0.3,0.2-0.5,0.2c-0.2,0-0.5-0.1-0.7,0.2
		c0,0.1-0.1,0-0.2,0c-0.5,0-1,0-1.5,0.2c-0.1,0-0.2,0-0.2,0c-0.3-0.3-0.5,0-0.6,0.1c-0.2,0.2-0.5,0.2-0.7,0.1
		c-0.2-0.1-0.4-0.1-0.6-0.1c-0.1,0-0.3,0-0.4,0.1c-0.1,0.1-0.2,0.1-0.4,0.1c-0.1,0-0.1-0.1-0.2,0c-0.1,0.2-0.3,0.2-0.5,0.2
		c-0.3,0-0.6,0.2-0.9,0.1c-0.2,0-0.4-0.2-0.6,0.1c-0.3,0.1-0.5-0.1-0.7-0.2c-0.1-0.1-0.1-0.1-0.2,0c-0.1,0.1-0.3,0.1-0.4,0
		c-0.1-0.1-0.3-0.1-0.2-0.3c0-0.4-0.1-0.4-0.5-0.6c-0.4-0.1-0.8-0.3-1.1-0.6c0-0.1-0.1-0.1-0.1-0.2c0-0.3-0.2-0.3-0.4-0.4
		c-0.2-0.1-0.4,0.1-0.5-0.1c-0.1-0.2-0.2-0.2-0.3-0.3c-0.1-0.2-0.2-0.3-0.4-0.3c-0.2,0,0-0.2-0.2-0.2c-0.1,0-0.3,0-0.3,0
		c-0.2-0.2-0.5-0.2-0.6-0.5c-0.1-0.2-0.3-0.5-0.6-0.4c-0.1,0-0.2-0.1-0.3-0.2c-0.2-0.2-0.4-0.4-0.7-0.5c-0.2-0.1-0.5-0.3-0.6-0.5
		c0,0-0.1,0-0.1,0c-0.5,0-0.6-0.3-0.8-0.6c-0.2-0.3-0.5-0.6-0.7-0.9c0-0.1-0.2-0.2-0.4-0.2c-0.3-0.1-0.3-0.2-0.3-0.4
		c0-0.2,0.1-0.5-0.3-0.6c-0.2,0-0.3-0.3-0.1-0.4c0.1-0.1,0.1-0.2,0-0.3c-0.2-0.2-0.2-0.5-0.3-0.6c-0.2-0.2-0.1-0.4-0.2-0.7
		c0,0.3-0.2,0.4-0.3,0.5c-0.1,0.1-0.2,0.2-0.1,0.3c0,0.1,0,0.3-0.1,0.3c-0.4,0.1-0.3,0.4-0.2,0.6c0.1,0.2,0.2,0.3,0.2,0.6
		c0,0.1,0.1,0.1,0.1,0.1c0.3,0,0.3,0.2,0.3,0.4c0,0.3,0,0.6,0.4,0.7c0,0,0.1,0.1,0.1,0.1c0,0.3,0.2,0.5,0.2,0.8
		c0,0.3,0.1,0.5,0.3,0.7c0.1,0.1,0.1,0.2,0.1,0.3c0,0.2,0,0.4,0,0.5c0,0.1,0,0.3,0.1,0.4c0.3,0.2,0.3,0.5,0.2,0.7
		c-0.1,0.1,0,0.2,0,0.3c0.1,0.3,0,0.7,0.1,1c0.1,0.1-0.1,0.4-0.1,0.5C60,63.4,60,63.6,60,63.8c0,0.1,0,0.1,0,0.2
		c-0.1,0.2-0.3,0.4-0.2,0.6c0,0.2,0,0.5,0,0.7c-0.2,0-0.2,0.2-0.4,0.2c-0.1,0-0.2,0.2-0.2,0.3c0,0.2,0,0.4,0,0.7
		c0,0.1,0,0.2-0.2,0.2c-0.1,0-0.2,0-0.2,0.2c0.1,0.5-0.2,0.7-0.5,1C58.1,67.9,58,68,58,68.2c0,0.2,0,0.3-0.2,0.4
		c-0.1,0-0.1,0.2-0.2,0.3c-0.1,0.1,0,0.4-0.3,0.3c0,0,0,0,0,0c0,0.3-0.3,0.6-0.4,0.9c0,0.2-0.1,0.2-0.2,0.2c-0.1,0-0.2,0-0.4,0
		c-0.1,0-0.1,0-0.2,0.1c-0.3,0.5-0.7,0.8-1.2,1.1c-0.4,0.2-0.4,0.3-0.6,0.2c-0.2,0-0.4,0-0.4,0.2c0,0.1-0.2,0.1-0.3,0.1
		c-0.2,0-0.4-0.1-0.5,0.2c0,0-0.2,0.1-0.2,0c-0.2-0.2-0.3,0-0.5,0.1c-0.2,0.1-0.4,0.2-0.7,0.1c-0.4-0.1-0.9-0.1-1.3,0
		c-0.2,0.1-0.3,0.1-0.5-0.1c-0.2-0.3-0.5-0.4-0.8-0.3c-0.2,0-0.4,0.1-0.4-0.2c-0.5,0.1-0.8-0.3-1.1-0.5c0,0,0,0-0.1,0
		c-0.2,0-0.2-0.1-0.3-0.2c-0.1-0.2-0.2-0.5-0.5-0.4c-0.1,0-0.1-0.1-0.2-0.1c-0.1-0.1-0.2-0.3-0.3-0.4c-0.1-0.1-0.3-0.2-0.4-0.3
		c-0.1-0.1,0-0.4-0.2-0.4c0-0.2-0.2-0.3-0.3-0.4c0-0.1-0.1-0.1-0.1-0.2c0-0.3,0-0.5-0.2-0.7c0-0.3-0.2-0.4-0.3-0.7
		c-0.1-0.4-0.6-0.7-0.4-1.2c0,0,0-0.1,0-0.1c-0.3-0.2-0.2-0.5-0.2-0.8c0-0.1,0-0.2,0-0.3c0-0.2-0.1-0.2-0.1-0.4c0-0.2,0-0.5,0-0.7
		c0-0.4,0.1-0.7-0.1-1.1c-0.1-0.2,0.1-0.3,0.1-0.5c0-0.3,0.2-0.5,0.2-0.8c0-0.1,0.2,0,0.2-0.1c0-0.1-0.1-0.1-0.1-0.2
		c-0.2-0.3-0.1-0.6,0-0.9c0.1-0.2,0.3-0.5,0.3-0.8c0.3-0.2,0.2-0.7,0.5-0.9c0.1-0.1,0.2-0.3,0.2-0.4c0-0.2,0.1-0.3,0.2-0.3
		c0.1,0,0.2-0.1,0.1-0.2c0-0.2,0.2-0.4,0.1-0.7c0-0.1,0.1-0.1,0.1-0.2c0.3-0.3,0.4-0.3,0.5-0.6c0-0.1,0-0.1,0.1-0.1
		c0.3,0,0.3-0.4,0.6-0.4c0,0,0.1-0.1,0.1-0.1c0.2-0.1,0-0.4,0.3-0.5c0.2-0.1,0.4-0.2,0.4-0.4c0.1-0.2,0.1-0.2,0.2-0.2
		c0,0,0.1,0,0.1,0c0.1-0.5,0.7-0.5,1-0.8c0.1-0.1,0.4-0.1,0.5-0.4c0-0.1,0.1-0.1,0.2-0.1c0.3,0.1,0.3-0.2,0.6-0.3
		c0.2,0,0.4,0.2,0.6,0.1c0,0,0.1,0,0.1,0c0.2-0.4,0.5-0.2,0.8-0.1c0.2,0,0.5,0.1,0.7-0.1c0.2,0.1,0.5-0.2,0.6,0.2
		c0,0.1,0.1,0.1,0.2,0.1c0.3-0.2,0.5-0.2,0.8,0c0.1,0,0.1,0,0.1-0.1c0.1,0,0.2-0.1,0.2-0.2c0-0.3,0.3-0.4,0.4-0.6c0-0.1,0-0.1,0-0.2
		c-0.1-0.3,0.1-0.5,0.3-0.6c0.1-0.1,0.1-0.1,0.1-0.2c-0.1-0.3,0.1-0.5,0.3-0.7c0,0,0.1-0.1,0.1-0.1c0-0.2,0-0.4,0-0.6
		c0-0.2,0.3-0.2,0.2-0.4c-0.1-0.3,0.1-0.4,0.3-0.6c0.2-0.1,0.3-0.3,0.2-0.5c0-0.1,0-0.3,0.1-0.4c0.1-0.1,0.1-0.3,0-0.3
		c-0.1-0.2-0.1-0.3-0.1-0.5c0-0.1-0.1-0.2-0.1-0.3c-0.2-0.3-0.3-0.5-0.4-0.8c-0.1-0.2-0.1-0.4-0.2-0.6c0-0.2-0.1-0.4-0.1-0.6
		c0-0.2,0-0.4-0.3-0.5c-0.1,0-0.1-0.1-0.1-0.2c-0.1-0.3,0-0.6-0.3-0.8c0-0.3-0.2-0.5-0.1-0.8c0-0.1,0-0.2-0.1-0.3
		c-0.4-0.4-0.6-0.9-0.6-1.4c0-0.2,0-0.3-0.3-0.6c0,0-0.1-0.1-0.1-0.2c0-0.1,0-0.2,0-0.2c-0.2-0.5-0.2-0.6,0-1.1c0-0.1,0-0.1,0-0.2
		c-0.2-0.1-0.2-0.4-0.3-0.6c-0.4-0.1-0.1-0.5-0.2-0.7c0-0.2,0.2-0.2,0.2-0.3c-0.1-0.1-0.1-0.1-0.2-0.1c-0.1,0-0.3-0.1-0.2-0.2
		c0-0.3-0.1-0.6,0-0.9c0.1-0.2,0.2-0.3-0.1-0.4c-0.1,0-0.1-0.4,0-0.5c0.2-0.2,0.3-0.6,0.6-0.6c0.1,0,0.3,0,0.4-0.1
		c0.1-0.2,0.4-0.2,0.5-0.1c0.2,0.1,0.3,0,0.3-0.1c0.1-0.3,0.3-0.4,0.6-0.5c0.1,0,0.3-0.1,0.4,0c0.2,0.2,0.4-0.1,0.6-0.1
		c0-0.3,0.2-0.2,0.4-0.2c0.1,0,0.2,0,0.4,0c0.2,0,0.4,0,0.5-0.2c0.1-0.2,0.4-0.2,0.5-0.1c0.2,0.2,0.3,0,0.4-0.1
		c0.1-0.1,0-0.3,0.2-0.3c0.3,0,0.5-0.3,0.8-0.1c0.2,0.1,0.3,0,0.3-0.1c0-0.2,0.1-0.2,0.2-0.2c0.4,0,0.6,0,1.1-0.2
		c0.1,0,0.1,0,0.2-0.1c0.1,0,0.2,0.2,0.3,0c0.1-0.1,0.2-0.1,0.2-0.2c0-0.1,0.2,0,0.3,0c0.2,0,0.4,0,0.5-0.2c0.1-0.2,0.3-0.1,0.4-0.1
		c0.2,0.2,0.4,0,0.5,0c0.3,0,0.3-0.3,0.6-0.3c0.2,0.1,0.4-0.1,0.6-0.2c0.2-0.1,0.4-0.1,0.6,0c0.2,0,0.5,0,0.6-0.2
		c0.2-0.2,0.5-0.2,0.7-0.2c0.3,0,0.6,0.1,0.8-0.2c0.4,0,0.8-0.3,1.3-0.3c0.1,0,0.2,0,0.3,0.1c0.2,0.1,0.4,0,0.5-0.2
		c0.1-0.1,0.1-0.3,0.3-0.2c0.3,0.1,0.5-0.2,0.8-0.1c0.2,0,0.5,0,0.7-0.1c0.4-0.1,0.8,0,1.2,0c0.2,0,0.3,0,0.4-0.1
		c0.2-0.3,0.5-0.2,0.9-0.2c0.3,0.1,0.3,0.1,0.5-0.2c0-0.1,0.1-0.1,0.2-0.1c0.2,0,0.4,0,0.5,0c0.1,0,0.3,0,0.3-0.2
		c0-0.1,0.3-0.1,0.4,0c0.2,0.1,0.4,0.2,0.6,0c0.1-0.1,0.2,0,0.4,0c0.1,0,0.2,0,0.2,0c0.3-0.5,0.8-0.1,1.2-0.3c0,0,0.1,0,0.2,0
		c0.2,0.1,0.3,0.2,0.5,0.1c0.3-0.1,0.6-0.2,0.9-0.2c0.1,0,0.1-0.1,0.2-0.1c0.2-0.2,0.3-0.2,0.5,0c0.3,0.3,0.6,0.1,0.9,0.1
		c0-0.3,0.2-0.2,0.4-0.2c0.2,0,0.3-0.3,0.4-0.3c0.4,0,0.8-0.3,1.2,0c0.2,0.1,0.3,0.1,0.5,0c0.3-0.1,0.6-0.2,0.8-0.4
		c0-0.1,0.1-0.1,0.2,0c0.4,0,0.8-0.1,1.2-0.1c0.2,0,0.4,0,0.5,0.2c0.1,0.1,0.2,0.1,0.3,0c0.1-0.1,0.3-0.2,0.4-0.3
		c0.2-0.1,0.4-0.3,0.6-0.1c0.1,0.1,0.3,0,0.3,0c0.1-0.1,0.3-0.1,0.4-0.1c0.2,0,0.3,0,0.4-0.1c0.2-0.2,0.4-0.2,0.5,0
		c0.1,0.2,0.2,0.1,0.4,0c0.1,0,0.2,0,0.3,0c0.1-0.1,0.3-0.1,0.4-0.1c0.1,0.1,0.4,0.1,0.4,0.4c0,0.2,0.2,0.2,0.4,0.2
		c0.5,0,0.9,0.2,1.4,0.1c0.1,0,0.2,0.1,0.2,0.2c0.2,0,0.3,0.3,0.5,0.1c0.1-0.1,0.3,0,0.4,0.3c0,0.1,0,0.2,0.2,0.2
		c0.4,0,0.5,0.1,0.9,0.4c0.2,0.2,0.4,0.2,0.7,0.2c0.2,0,0.3,0,0.2,0.2c0,0.1,0,0.2,0.1,0.1c0.3-0.1,0.5,0.2,0.8,0.2
		c0.1,0,0.1,0,0.2,0c0.2-0.1,0.3,0.1,0.3,0.2c0.1,0.3,0.3,0.4,0.5,0.2c0.2-0.1,0.4-0.1,0.5,0.1c0.2,0.2,0.6,0.3,0.6,0.6
		c0,0,0.1,0,0.1,0c0.3-0.1,0.5,0.3,0.9,0.3c0.1,0,0.2,0.1,0.2,0.2c0.1,0.4,0.5,0.4,0.8,0.4c0.1,0,0.2,0,0.2-0.2c0-0.1,0.2-0.3,0-0.5
		c-0.1-0.1-0.1-0.3,0-0.5c0-0.1-0.1-0.3,0-0.5c0.1-0.2,0-0.3,0.2-0.5c0.1-0.1,0.1-0.2,0.1-0.3c-0.1-0.4,0.1-0.8,0.1-1.3
		c0-0.2,0-0.3,0-0.5c-0.1-0.4,0.1-0.7,0.2-1.1c0-0.2,0.1-0.4,0-0.5c0-0.3-0.2-0.5,0-0.8c-0.2-0.2,0-0.5-0.2-0.7
		c-0.2-0.1-0.4-0.3-0.1-0.6c-0.2-0.1,0-0.4-0.1-0.5c-0.2-0.2-0.1-0.4,0.1-0.6C101.1,21.7,101.4,21.1,101.3,20.4z M60.5,38.2
		c0.3,0.1,0.5,0.2,0.4,0.5c0,0.1,0,0.1,0.1,0.1c0.5,0.1,0.6,0.2,0.9,0.6c0.1,0.1,0.3,0.2,0.4,0.3c0.2,0.1,0.6,0.1,0.7,0.5
		c0,0.1,0.1,0.2,0.2,0.1c0.1,0,0.1,0,0.2,0.1c0.3,0.3,0.7,0.3,1,0.4c0.3,0.1,0.7,0.2,1,0.4c0.1,0.1,0.2,0.3,0.3,0.4
		c0.1,0.1,0.4,0,0.6,0.1c0.1,0,0.1,0.1,0.2,0.2c0.1,0.1,0.1,0.2,0.3,0.2c0.1,0,0,0.3,0.2,0.2c0.4,0,0.6,0.3,1,0.3
		c0.2,0,0.3,0.2,0.3,0.3c0.2,0.4,0.4,0.8,0.7,1.1c0.1,0.1,0.3,0.3,0.3,0.5c0,0.4,0.1,0.7-0.1,1.1c-0.1,0.1-0.1,0.4,0.1,0.5
		c0.1,0,0.1,0.1,0.2,0.2c0.1,0.1,0.2,0.3,0.1,0.5c-0.1,0.2-0.1,0.3,0.1,0.4c0.2,0.2,0.2,0.4,0.3,0.7c0,0.3,0.1,0.6,0.3,0.8
		c0.1,0.2,0.1,0.3,0.2,0.5c0,0.3,0.1,0.6,0.2,0.7c0.2,0.2,0.3,0.5,0.3,0.7c0,0.1,0.1,0.3,0.2,0.3c0.2,0.1,0.2,0.2,0.2,0.3
		c0,0.4,0,0.8,0.3,1.1c0.1,0.2,0.3,0.4,0.1,0.7c-0.1,0.1,0,0.1,0,0.1c0.1,0,0.2,0.1,0.2,0.2c0,0.2,0.1,0.3,0.2,0.5
		c0.3,0.5,0.3,0.5,0.3,0.8c0,0.1,0,0.2,0.1,0.2c0.2,0,0.2,0.1,0.2,0.2c0,0.2,0,0.3,0.2,0.4c0.1,0.1,0.2,0.2,0.2,0.3
		c0,0.1,0.1,0.3-0.1,0.4c0.1,0.1,0.2,0.2,0.3,0.3c0,0,0,0.1,0,0.2c0,0.1-0.1,0.3,0.1,0.4c0.2-0.2,0.4-0.2,0.7-0.2
		c0.1,0,0.3,0,0.4-0.1c0.2-0.2,0.2-0.2,0.5,0c0.1,0.1,0.2,0.1,0.2,0c0.1-0.2,0.4-0.2,0.6-0.2c0.2,0,0.5,0.2,0.7-0.1c0,0,0.2,0,0.2,0
		c0.3,0.2,0.7,0.1,1,0c0.2-0.1,0.4-0.1,0.6,0.1c0.1,0.1,0.2,0.1,0.2,0.1c0.1-0.2,0.3-0.1,0.5-0.2c0.1-0.1,0.4-0.1,0.5,0
		c0.3,0.2,0.2-0.2,0.4-0.1c0,0,0.1,0,0.1,0c0.2,0,0.4,0,0.7,0c0.1,0,0.2,0,0.3,0.1c0.1-0.1,0.2-0.1,0.2-0.3c0-0.1,0.1-0.1,0.1-0.1
		c0.3,0,0.6,0.1,0.8-0.2c0-0.1,0.3-0.1,0.3,0c0.2,0.2,0.3,0.1,0.4-0.1c0,0,0.1-0.1,0.1-0.1c0.2,0,0.4,0,0.7-0.1
		c0.2-0.1,0.4,0.1,0.6,0c0.1,0,0.2,0,0.3,0.1c0.1,0.1,0.3,0.1,0.4,0c0.1-0.2,0.3-0.2,0.5-0.2c0.5,0,0.9-0.1,1.3-0.3
		c0.2-0.1,0.4-0.1,0.6-0.1c0.1,0,0.2,0.1,0.3,0c0.1-0.1,0.1-0.1,0.2-0.1c0.1,0,0.3,0,0.4-0.1c0.1-0.2,0.3-0.2,0.5-0.1
		c0.1,0.1,0.3,0.1,0.4,0.1c0.5,0,1-0.3,1.6-0.3c0.2,0,0.4,0,0.6-0.1c0.7-0.3,1.4-0.2,2.1-0.6c0.1-0.1,0.3,0,0.5-0.2
		c0.1-0.1,0.1-0.1,0.2-0.1c0.2,0,0.3-0.1,0.4-0.3c0.2-0.5,0.3-0.5,0.8-0.2c0.1,0.1,0.3,0.1,0.3,0c0.1-0.3,0.3-0.3,0.5-0.2
		c0,0,0.1,0.1,0.1,0c0.1-0.2,0.4-0.2,0.6-0.2c0.4,0,0.7-0.1,1-0.3c0.1-0.1,0.3-0.2,0.4-0.3c0.1-0.1,0.2-0.1,0.2-0.2
		c0-0.5,0.2-0.9,0.3-1.4c0-0.3-0.1-0.5,0-0.7c0.1-0.2,0.1-0.4,0.1-0.6c0-0.2,0.1-0.4,0.1-0.6c0.1-0.3-0.1-0.6,0-0.8
		c0.1-0.3,0.1-0.7,0.1-1c0-0.2-0.1-0.5,0.2-0.7c0.1-0.1,0-0.1,0-0.1c-0.1-0.3-0.3-0.7,0-1c-0.1-0.3,0.2-0.6,0.1-1c0-0.4,0-0.8,0-1.1
		c0-0.4-0.1-0.7,0.1-1.1c0.1-0.3,0-0.7,0-1.1c0-0.1,0-0.2,0-0.2c0.3-0.3,0.1-0.6,0-0.9c0-0.2-0.1-0.4,0-0.6c0.1-0.1,0-0.2,0-0.3
		c0-0.1-0.2-0.1-0.3-0.1c-0.1,0-0.1-0.1-0.1-0.2c-0.1-0.2-0.1-0.4-0.5-0.3c-0.2,0.1-0.5-0.1-0.6-0.3c-0.1-0.2-0.3-0.3-0.4-0.5
		c-0.1-0.2-0.3-0.2-0.5-0.2c-0.2,0-0.4,0.1-0.6-0.2c0,0-0.1-0.1-0.1-0.1c-0.3,0-0.6-0.2-0.8-0.3c-0.1,0-0.2-0.1-0.3-0.2
		c-0.1-0.3-0.4-0.3-0.6-0.4c-0.2-0.1-0.5,0.1-0.6-0.3c0-0.1-0.1,0-0.2-0.1c-0.2,0-0.3,0.1-0.4-0.1c-0.1,0.2-0.3,0.2-0.5,0.1
		c-0.3-0.1-0.7-0.3-0.9-0.5c-0.2-0.1-0.3-0.1-0.4-0.1c-0.2,0-0.1-0.3-0.3-0.4c-0.5-0.1-0.9-0.4-1.3-0.6c-0.4-0.2-0.6-0.3-1.1-0.3
		c-0.1,0-0.1-0.1-0.2-0.1c-0.4-0.1-0.7-0.4-1.2-0.2c0,0-0.1,0-0.1,0c-0.2-0.2-0.4,0-0.6,0c-0.2,0.1-0.3,0.1-0.4,0.1
		c-0.2,0-0.4,0-0.6,0c-0.1,0-0.2,0-0.2,0.1c0,0.3-0.2,0.2-0.3,0.2c-0.1,0-0.3-0.1-0.4,0.1c-0.4,0-0.8,0.3-1.3,0.1c0,0-0.1-0.1-0.1,0
		c-0.1,0.3-0.5,0.2-0.7,0.3c-0.3,0.1-0.7,0.2-1,0.2c-0.1,0-0.2-0.1-0.4,0c-0.3,0.3-0.8,0.4-1.2,0.3c-0.1-0.1-0.2-0.1-0.4,0
		c-0.3,0.2-0.5,0.3-0.9,0.1c-0.1-0.1-0.1,0-0.1,0.1c0,0.2-0.1,0.1-0.2,0.1c-0.2,0-0.4,0-0.7,0c-0.4,0-0.5,0-0.7,0.2
		c-0.1,0.1-0.2,0-0.3,0c-0.1,0.2-0.4,0-0.5,0.2c-0.2,0.1-0.4,0.1-0.6,0.1c-0.3,0-0.5,0-0.7,0.2c-0.2,0.1-0.4,0.1-0.5,0.1
		c-0.3-0.2-0.5,0.2-0.8,0c0,0,0,0.1-0.1,0.1c-0.1,0.4-0.4,0.3-0.6,0.2c-0.2-0.1-0.4,0-0.6,0c-0.3,0.1-0.6,0.1-0.9,0.3
		c-0.3,0.1-0.6,0-0.8-0.1c-0.1,0.1-0.2,0.2-0.3,0.3c-0.1,0.1-0.1,0.1-0.2,0.1c-0.3,0-0.6,0.1-0.9-0.1c-0.3-0.1-0.5-0.1-0.6,0.1
		c-0.2,0.3-0.7,0.2-1,0.4c-0.1,0.1-0.2,0.1-0.3,0c-0.1-0.1-0.1,0-0.2,0c-0.1,0.2-0.4,0.2-0.5,0.1c-0.2-0.1-0.2,0-0.3,0
		c-0.2,0-0.4,0.2-0.6,0.2c-0.5,0-0.9,0.2-1.4,0.1c-0.2,0-0.4,0-0.5,0.2c-0.2,0.3-0.4,0.3-0.7,0.3c-0.2,0-0.3,0.1-0.5-0.1
		c-0.1,0-0.1-0.1-0.1,0c-0.1,0.2-0.4,0.2-0.6,0.2c-0.3,0-0.5,0.2-0.8,0.1C61.1,38.2,60.8,38.2,60.5,38.2z M119,52.8
		c0.1,0.1,0.2,0.2,0.2,0.3c0,0.2,0,0.4,0.3,0.4c0.1,0,0.1,0.1,0.1,0.2c0,0.1,0,0.2,0.1,0.2c0.2,0,0.4,0.1,0.4,0.3
		c0,0.1,0.1,0.2,0.2,0.2c0.3,0.2,0.5,0.5,0.9,0.6c0.1,0,0,0.2,0.1,0.2c0.3,0,0.6,0.1,1,0.1c0.3,0,0.7,0,1,0c0.3,0,0.5-0.2,0.7-0.1
		c0,0,0.1,0,0.1-0.1c0.1-0.4,0.5-0.4,0.8-0.4c0.1,0,0.2-0.1,0.2-0.1c0-0.3,0.2-0.3,0.4-0.4c0.1,0,0.2-0.1,0.3-0.3
		c0-0.1,0.1-0.2,0.3-0.2c0.1,0,0.2,0,0.2-0.2c0-0.1,0.1-0.1,0.2-0.2c0.4-0.3,0.7-0.8,0.8-1.4c0-0.2,0.1-0.3,0.2-0.5
		c0-0.1,0.1-0.1,0.1-0.2c0-0.2,0.1-0.4,0.2-0.6c0.1-0.2,0.2-0.4,0.3-0.5c0,0,0.1-0.1,0.1-0.1c-0.1-0.4,0.2-0.8,0.1-1.3
		c0-0.2,0-0.5,0.1-0.7c0.1-0.2,0.1-0.5,0.1-0.8c0-0.3,0-0.5,0-0.8c0.3-0.2-0.2-0.5,0.1-0.7c-0.4-0.3-0.1-0.9-0.5-1.1
		c-0.1,0-0.1-0.1-0.1-0.2c0.1-0.6-0.2-1-0.6-1.3c-0.1-0.1-0.1-0.2-0.1-0.3c0-0.2-0.1-0.2-0.2-0.3c-0.2-0.1-0.3-0.2-0.3-0.4
		c0-0.1-0.1-0.2-0.2-0.2c-0.1,0-0.2-0.1-0.2-0.1c0-0.2-0.2-0.2-0.4-0.2c-0.1,0-0.2,0-0.2-0.1c-0.1-0.2-0.3-0.2-0.5-0.3
		c-0.2-0.1-0.4-0.1-0.6-0.2c-0.1-0.1-0.2-0.2-0.4-0.1c-0.2,0.1-0.4-0.1-0.5-0.1c-0.2,0.1-0.3,0.2-0.5,0.2c-0.3,0-0.7,0.3-1,0.2
		c0,0,0,0,0,0c-0.3,0.2-0.6,0.5-0.8,0.7c-0.1,0.1,0,0.3,0.1,0.3c0.3,0.1,0.6,0.2,0.8,0.4c0.2,0.2,0.2,0.5,0.5,0.4
		c0,0,0.1,0.1,0.1,0.2c0,0.1,0.1,0.2,0.2,0.2c0.2,0.1,0.3,0.2,0.4,0.4c0.2,0,0.3,0.2,0.5,0.4c0.1,0.1,0.2,0.2,0.2,0.3
		c0,0.1,0.1,0.2,0.2,0.3c0.3,0.2,0.6,0.4,0.5,0.9c0,0,0,0,0,0c0.2,0.5,0.3,1,0,1.5c-0.1,0.1-0.1,0.3,0,0.4c0.1,0.2,0.1,0.5,0,0.7
		c-0.1,0.1-0.1,0.2,0,0.4c0.1,0.1,0,0.3-0.2,0.3c-0.2,0.1-0.4,0.2-0.5,0.5c-0.1,0.3-0.6,0.3-0.6,0.6c-0.2,0-0.4-0.1-0.5,0.2
		c0,0-0.2,0-0.3,0c-0.1,0,0,0.2-0.2,0.2c-0.3,0-0.5,0.2-0.7,0.2c-0.1,0-0.3,0.1-0.3,0.2c0,0.2-0.2,0.2-0.3,0.3
		c-0.1,0.1-0.3-0.1-0.4,0.2c0,0.2-0.3,0.1-0.4,0.1c-0.1,0-0.3,0-0.4,0.1c-0.1,0.3-0.2,0.4-0.5,0.3c-0.1,0-0.2,0.1-0.2,0.2
		C119.3,52.7,119.1,52.8,119,52.8z M113.9,44.6c-0.3-0.3-0.3-0.3-0.8-0.3c-0.2,0-0.3,0-0.5-0.1c-0.1-0.1-0.2-0.2-0.3-0.1
		c-0.2,0.1-0.4-0.1-0.6-0.1c-0.3,0-0.4-0.2-0.6-0.3c-0.1,0-0.1-0.2-0.3,0c-0.1,0.1-0.3,0.1-0.4,0c-0.3-0.2-0.7-0.1-1-0.4
		c0,0,0,0-0.1,0c-0.3,0.2-0.4-0.1-0.7-0.2c-0.1,0,0-0.2-0.2-0.1c-0.3,0.2-0.7,0-1,0.1c-0.1,0-0.2,0.1-0.3,0
		c-0.1-0.2-0.5-0.1-0.6-0.4c0-0.1-0.1-0.1-0.1,0c-0.2,0.2-0.6-0.1-0.8,0.3c0,0-0.2,0.1-0.2,0c-0.3-0.1-0.6-0.1-0.9-0.3
		c-0.1-0.1-0.3-0.1-0.4-0.1c-0.3,0-0.4,0.1-0.4,0.3c0,0.1-0.2,0.3-0.1,0.4c0.1,0.1,0.1,0.3,0,0.5c0,0.1-0.1,0.3-0.1,0.4
		c0,0.1-0.1,0.3,0,0.4c0.1,0.2,0.1,0.4-0.2,0.6c0,0,0,0.1-0.1,0.1c0,0.1,0.1,0.2,0.1,0.3c0,0.1-0.2,0.2-0.1,0.3
		c0.1,0.1,0.1,0.3,0,0.4c-0.1,0.2,0.2,0.2,0.1,0.4c0,0,0,0.1,0,0.1c-0.3,0.3-0.2,0.6-0.2,1c0,0.2,0.1,0.5-0.2,0.6
		c-0.1,0-0.1,0.1,0,0.2c0.1,0.1,0.1,0.3,0.1,0.3c-0.2,0.3,0.2,0.6-0.1,0.8c0.3,0.2,0.1,0.5,0,0.7c-0.2,0.4,0,0.8-0.4,1.2
		c0.4-0.1,0.7,0.1,1-0.2c0,0,0.1,0,0.1,0c0.4,0.1,0.7-0.2,1-0.3c0.1,0,0.4-0.1,0.2-0.4c-0.1-0.1-0.1-0.4,0-0.6
		c0.1-0.2,0.1-0.4-0.1-0.5c-0.1-0.1-0.1-0.2,0-0.3c0.1-0.1,0.1-0.1,0-0.2c-0.1-0.2-0.2-0.4-0.1-0.6c0-0.1,0-0.2-0.1-0.2
		c-0.2-0.1-0.2-0.3-0.2-0.5c0-0.4,0.2-0.9,0.1-1.3c0-0.2,0-0.4,0-0.5c0-0.1,0-0.1,0.1-0.2c0.1-0.1,0.5,0,0.4-0.4c0.1,0,0.1,0,0.2,0
		c0.2,0,0.5,0.1,0.4-0.3c0-0.1,0.2-0.1,0.2-0.1c0.2,0.2,0.4,0.1,0.7,0.1c0.2,0,0.3,0,0.3-0.2c0-0.1,0-0.1,0.1-0.1
		c0.2-0.1,0.4,0.1,0.5,0.1c0.2,0.1,0.4-0.2,0.6-0.1c0,0,0.1,0.1,0.1,0.1c0.3,0,0.5,0.3,0.8,0.3c0.4,0.1,0.5,0.4,0.4,0.8
		c-0.1,0.2-0.2,0.5,0,0.6c0.2,0.2,0.1,0.5,0.2,0.7c0,0.1,0.1,0.1,0.2,0.1c0.1,0,0.2,0,0.1,0.1c0,0.3,0.2,0.5,0.1,0.8
		c-0.1,0.3,0,0.5,0.2,0.8c0.1,0.1,0.3,0.2,0.4,0.2c0.2,0.2,0.5,0,0.7,0c0.2,0,0.5-0.1,0.7-0.1c0.1,0,0.2-0.1,0.3-0.1
		c0.2-0.1,0.5-0.3,0.8-0.4c0.2-0.1,0.3-0.2,0.3-0.4c0-0.3,0-0.6,0.1-0.9c0.2-0.5,0.2-1.1,0.2-1.6C113.6,45.3,113.6,44.9,113.9,44.6z
		 M53.1,67c0.1-0.1-0.1-0.4,0.1-0.4c0.1-0.1,0.2-0.2,0.4-0.1c0.1,0,0.1,0,0.1-0.1c-0.1-0.3,0.2-0.4,0.4-0.4c0.2-0.1,0.2-0.2,0.3-0.4
		c0-0.1,0.1-0.2,0.1-0.2c0.2-0.2,0.2-0.6,0.4-0.7c0.1-0.1,0.2-0.1,0.2-0.3c0-0.1,0-0.2,0.1-0.3c0.1-0.2,0.3-0.5,0.3-0.7
		c0-0.4,0.2-0.7,0-1.1c-0.1-0.2,0-0.5-0.1-0.8c-0.1-0.1,0.1-0.3-0.1-0.3c-0.3,0-0.1,0.2-0.1,0.4c0,0,0,0.1-0.1,0.1
		c-0.1,0.3-0.3,0.5-0.3,0.8c0,0.1-0.1,0.2-0.2,0.2c-0.3,0.1-0.5,0.3-0.4,0.6c-0.2,0.2-0.2,0.4-0.3,0.6c-0.2,0.2-0.3,0.5-0.5,0.8
		c-0.1,0.1-0.1,0.2-0.2,0.3c-0.5,0.1-0.6,0.6-0.8,0.9c-0.1,0.1-0.1,0.2-0.2,0.2c-0.1,0-0.2,0.2-0.4,0.1c-0.2,0-0.2-0.2-0.4-0.3
		c0,0-0.1-0.1-0.1-0.1c-0.3,0.1-0.2-0.1-0.3-0.3c-0.1-0.2-0.1-0.4-0.4-0.3c-0.1,0-0.3,0-0.4-0.1c-0.1-0.2-0.4-0.3-0.4-0.6
		c0-0.3-0.1-0.3-0.4-0.4c-0.1,0-0.1,0-0.2,0c-0.3-0.1-0.4-0.2-0.4-0.6c0-0.2,0-0.3,0.1-0.4c-0.1-0.5,0.2-0.7,0.6-0.9
		c0.1,0,0.2-0.1,0.2-0.3c-0.1-0.2,0.1-0.3,0.1-0.4c0-0.1,0.2-0.2,0.1-0.3c-0.1-0.3,0.1-0.4,0.3-0.6c0.3-0.3,0.6-0.6,0.6-1.1
		c0-0.1,0-0.1,0.1-0.1c0.3,0,0.4-0.2,0.5-0.4c0-0.1,0.1-0.2-0.1-0.1c-0.3,0.1-0.5,0.1-0.7,0.4c-0.1,0.2-0.4,0.2-0.4,0.5
		c-0.4,0-0.4,0.3-0.6,0.5c-0.1,0.2-0.2,0.2-0.3,0.4c0,0.2-0.3,0.2-0.4,0.3c-0.1,0.1-0.2,0.1-0.1,0.2c0.1,0.3-0.1,0.5-0.1,0.7
		c-0.1,0.4-0.3,0.7-0.2,1.1c0,0-0.1,0.1-0.2,0.2c-0.1,0.1-0.1,0.1,0,0.2c0.2,0.2,0,0.4,0.1,0.6c0,0.2-0.1,0.3-0.1,0.4
		c0.1,0.1,0,0.3,0,0.5c0,0.1,0,0.2,0.1,0.3c0.2,0.1,0.1,0.3,0.2,0.5c0,0.2-0.1,0.4,0.1,0.5c0.2,0.2,0.2,0.5,0.5,0.6
		c0.1,0,0.1,0.1,0.1,0.1c0.1,0.4,0.5,0.4,0.8,0.5c0.2,0,0.3,0,0.4,0.2c0.1,0.2,0.2,0.1,0.4,0.1c0.1,0,0.2,0,0.4,0.1
		c0.3,0.2,0.4,0.2,0.6,0c0.2-0.2,0.4-0.3,0.6-0.4C52.7,67,52.9,67.1,53.1,67z"/>
	<path d="M22.9,42.8c0.3,0.1,0.4,0.2,0.4,0.5c0,0.2,0,0.3,0.2,0.3c0,0.2,0.3,0.3,0.3,0.6c0,0.1,0.1,0.1,0.1,0.2
		c0.3,0.2,0.4,0.5,0.6,0.8c0.1,0.1,0.1,0.4,0.3,0.4c0,0,0.1,0.1,0.1,0.1c-0.1,0.3,0.2,0.3,0.3,0.5c0.1,0.2,0.3,0.3,0.4,0.4
		c0.3,0.3,0.6,0.6,0.6,1.1c0,0.1,0.4,0.6,0.5,0.7c0.2,0,0.3,0.1,0.3,0.2c0,0.1,0,0.2-0.1,0.3c0,0,0,0.2,0.1,0.2
		c0.3,0.1,0.4,0.3,0.4,0.6c0,0.2,0.2,0.4,0.3,0.4c0.2,0.1,0.3,0.2,0.3,0.4c-0.1,0.3,0.1,0.5,0.2,0.8c0.1,0.3,0.3,0.7,0.7,0.7
		c0.2,0,0.2,0.1,0.2,0.2c0,0.2-0.1,0.4,0.3,0.4c0.1,0,0.2,0.1,0.2,0.2c0,0.2,0,0.5,0.2,0.6c0,0,0,0.2,0,0.3c0,0.1,0,0.1,0.1,0.1
		c0.3-0.1,0.4,0.2,0.6,0.2c0.4,0.2,0.7,0.5,0.6,0.9c-0.1,0.4-0.1,0.8-0.2,1.2c-0.1,0.2-0.1,0.3-0.1,0.5c0,0.1-0.1,0.2-0.1,0.2
		c-0.3,0-0.2,0.2-0.3,0.4c-0.1,0.2,0,0.4-0.3,0.5c-0.2,0-0.1,0.4-0.4,0.3c0,0-0.1,0-0.1,0.1c0,0.2-0.2,0.3-0.2,0.4
		c-0.3-0.1-0.5,0.2-0.8,0.1c-0.1,0-0.2-0.1-0.2,0.2c0,0.1-0.1,0.2-0.2,0.2c-0.2,0-0.4,0-0.6,0c0,0,0-0.1,0-0.1
		c-0.1-0.2-0.2-0.3-0.4-0.1c-0.2,0.1-0.3,0-0.4-0.3c-0.1-0.3-0.2-0.6-0.5-0.7c-0.1,0-0.2-0.1-0.2-0.2c0-0.4-0.3-0.5-0.6-0.7
		c-0.2-0.1-0.3-0.3-0.3-0.5c0-0.4-0.3-0.5-0.6-0.6C24,55.7,24,55.7,24,55.4c0-0.2-0.1-0.4-0.2-0.5c-0.1-0.1-0.4-0.1-0.5-0.2
		c-0.1-0.1,0-0.4-0.1-0.5c-0.1-0.1-0.1-0.2-0.2-0.2c-0.3-0.2-0.4-0.4-0.4-0.6c0-0.2-0.1-0.3-0.3-0.4c-0.2-0.1-0.4-0.1-0.3-0.4
		c0-0.1-0.1-0.2-0.2-0.2c-0.3-0.2-0.3-0.6-0.5-0.8c-0.1,0,0-0.2,0-0.3c0-0.4-0.1-0.6-0.6-0.8c-0.1,0-0.1-0.1-0.1-0.2
		c0-0.2,0.1-0.5-0.3-0.6c-0.1,0,0-0.3-0.2-0.4c-0.2-0.1,0-0.4-0.2-0.4c-0.2,0-0.2-0.2-0.3-0.3c-0.2-0.2-0.3-0.3-0.3-0.6
		c0-0.1,0-0.3-0.3-0.3c-0.1,0-0.1-0.1-0.1-0.1c0-0.2-0.1-0.3-0.2-0.3c-0.3-0.1-0.4-0.4-0.4-0.7c0-0.2-0.1-0.3-0.3-0.4
		c-0.4-0.1-0.6-0.5-0.9-0.7c-0.1,0,0-0.2,0-0.3c0-0.2-0.1-0.3-0.3-0.3c-0.3,0-0.4-0.1-0.5-0.3C16,44,15.9,44,15.5,44.1
		c-0.3,0.1-0.7,0-1,0.3c-0.1,0.1-0.3,0.1-0.4,0c-0.1-0.1-0.2,0-0.3,0c-0.2,0.1-0.4,0.3-0.6,0c-0.1-0.1-0.2,0-0.2,0.1
		c-0.1,0.3-0.2,0.2-0.4,0.2c-0.3,0-0.6,0-0.8-0.2c-0.1-0.1-0.2-0.1-0.3-0.1c-0.2,0-0.4,0-0.5-0.2c-0.1-0.1-0.2-0.1-0.2,0.1
		c-0.1,0.4-0.2,0.4-0.5,0.2c-0.1-0.1-0.2-0.1-0.3-0.1c-0.1,0-0.2,0-0.1-0.1c0.1-0.3-0.2-0.2-0.3-0.4c-0.1,0.3,0,0.6-0.3,0.7
		c0.1,0.1,0.2,0.2,0.3,0.3c0.1,0.1,0.1,0.1,0.1,0.2c-0.1,0.4-0.2,0.8-0.2,1.2c0,0.1-0.1,0.1-0.1,0.1c-0.1,0-0.1,0.1-0.1,0.2
		c0.3,0.2,0.3,0.5,0.3,0.8c0,0.2,0.2,0.4,0,0.6c-0.1,0.1,0.1,0.3,0.1,0.4c0.1,0.3,0.1,0.5,0,0.7c0,0,0,0,0,0c0,0.2,0,0.4,0,0.6
		c0,0.2-0.1,0.3,0,0.5c0.1,0.1,0,0.4,0.1,0.6c0.1,0.1,0.1,0.3,0,0.4c-0.1,0.2-0.1,0.3,0,0.5c0.1,0.1,0.2,0.3,0.1,0.4
		c-0.1,0.1-0.1,0.3-0.1,0.4c0.3,0.3,0,0.6,0,0.8c-0.1,0.2-0.1,0.4-0.1,0.6c0,0.5,0,1,0,1.5c0,0.1,0,0.2-0.1,0.3
		c-0.1,0.2-0.1,0.3-0.1,0.7c0.1,0.3,0,0.7-0.2,1c-0.2,0.2-0.2,0.5-0.1,0.7c0.2,0.4,0,0.6-0.2,0.9c-0.2,0.2-0.3,0.5-0.1,0.7
		c0.2,0.4,0,0.8-0.2,1.1C8.1,61,8,61.2,8,61.5c0,0.2-0.3,0.3-0.2,0.5c0,0.2,0,0.4,0,0.5c0,0.1-0.1,0.2-0.2,0.2c-0.1,0-0.2,0-0.2,0.1
		c0,0.3-0.2,0.3-0.4,0.5c0,0-0.2,0.1-0.2,0.2c-0.3,0.4-0.7,0.4-1.1,0.4c-0.3,0-0.6,0.1-0.9-0.1c-0.1,0-0.1,0-0.2,0.1
		c-0.2,0.2-0.4,0.2-0.6,0.1c-0.5-0.2-0.9-0.4-1.4-0.4c-0.1,0-0.1-0.1-0.2-0.1C2.3,63.2,2,63,1.7,62.8c-0.3-0.2-0.3-0.3-0.2-0.7
		c0.1-0.2,0.1-0.3,0.1-0.5c0-0.1,0-0.2,0-0.2C2,61.3,1.9,61,1.9,60.7c0-0.4,0-0.8,0.3-1.1c0.1-0.1,0-0.2,0.1-0.3c0-0.2,0-0.4,0-0.5
		c0-0.1,0-0.1,0.1-0.2c0.3-0.2,0.3-0.3,0.2-0.7c0-0.1-0.1-0.2-0.1-0.2c0-0.1-0.2-0.4,0.2-0.4C2.7,57,3,56.8,2.8,56.6
		c-0.1-0.1-0.1-0.2,0-0.3c0.2-0.1,0.2-0.3,0.1-0.5C2.8,55.7,3,55.5,3,55.3c0-0.1,0-0.3,0.1-0.4c0.1-0.1,0.1-0.3,0-0.4
		C3,54.4,3,54.3,3,54.2c0.1-0.4,0-0.8,0.3-1.2c0.1-0.1,0.1-0.2,0-0.3c-0.2-0.1-0.2-0.3-0.2-0.5C3.2,52,3,51.9,3,51.8
		c0-0.2,0.2-0.2,0.1-0.4c0-0.1,0-0.2-0.1-0.3C2.9,51,3,50.8,3,50.7c0.2-0.4,0.2-0.8,0-1.2c0-0.1,0-0.2,0-0.2c0.1-0.1,0.1-0.2,0-0.3
		c-0.2-0.3-0.2-0.4,0-0.7c0,0,0.1-0.1,0.1-0.1c-0.1-0.3-0.3-0.6-0.1-1c0,0,0,0,0,0c-0.2-0.4-0.3-0.8-0.3-1.3c0-0.3-0.1-0.5-0.1-0.7
		c0-0.3-0.1-0.5,0-0.8c0.1-0.2-0.1-0.3-0.2-0.4c-0.3-0.3-0.3-0.5,0-0.8c0.1-0.1,0.1-0.1,0-0.2c-0.2-0.3-0.4-0.5-0.2-0.9
		C2,42.1,2.1,41.9,2,41.7c-0.3-0.4-0.4-0.9-0.1-1.4c0.1-0.2,0-0.3-0.1-0.4c-0.1-0.2-0.2-0.3-0.2-0.5c0-0.1,0-0.2-0.1-0.3
		c-0.1-0.1-0.2-0.2-0.1-0.3c0.2-0.3,0-0.5-0.1-0.7C1.2,37.8,1,37.4,1.1,37c0.1-0.2,0-0.2-0.1-0.2c-0.1-0.1-0.2-0.1-0.2-0.3
		c-0.2-0.3,0-0.6,0.2-0.8c0.1-0.1,0.1-0.1,0-0.2c-0.2-0.2-0.4-0.4-0.2-0.7c0.1-0.1,0.1-0.3-0.1-0.5c-0.2-0.1-0.1-0.4-0.2-0.6
		c0-0.1,0-0.3,0.1-0.4c0.2-0.1,0.2-0.3,0-0.5c-0.1-0.2-0.2-0.4-0.3-0.5c-0.1-0.2-0.2-0.3,0-0.6c0.1-0.2,0.1-0.5-0.2-0.7
		C0,31,0,30.9,0,30.7c0-0.3,0-0.6,0-0.9c0-0.1,0-0.1,0-0.2c0-0.2,0.3-0.2,0.1-0.5c-0.1-0.1-0.1-0.3,0.1-0.5c0.1-0.1-0.1-0.2-0.1-0.3
		C0,28.2,0,28.1,0,28c0.1-0.3,0.4-0.7,0.1-1.1c0-0.2-0.1-0.4,0.1-0.6c0,0,0-0.1,0-0.1c-0.3-0.3,0-0.5,0.1-0.7c0.1-0.2,0.1-0.4,0-0.6
		c-0.3-0.3-0.3-0.6-0.1-0.9c0.2-0.3,0.3-0.8,0.3-1c0-0.3,0-0.6,0.3-0.8C1,22,1,21.9,0.9,21.7c-0.1-0.2-0.1-0.4,0.1-0.6
		c0.1-0.1,0.1-0.2,0.1-0.3c0-0.4,0.3-0.7,0.3-1c0-0.2,0.4-0.1,0.3-0.3c0-0.2,0-0.4,0-0.5c0.1-0.2,0-0.4,0.3-0.5
		c-0.1-0.2,0.1-0.1,0.2-0.2c0.1-0.1-0.1-0.1-0.1-0.2c0.2-0.3,0-0.7,0.3-1c0.2-0.1,0-0.4,0.1-0.6c0.1-0.1,0.3-0.2,0.3-0.4
		C2.9,16,3,16,3.1,16c0.3,0,0.3-0.3,0.3-0.5c0-0.2,0.1-0.4,0.1-0.5c0-0.1,0-0.2,0.2-0.2c0.2,0,0.2-0.1,0.2-0.2
		c0.2-0.4,0.5-0.6,0.9-0.5c0,0,0.1,0,0.1,0c0.1-0.1,0-0.3,0.1-0.4C5.3,13.4,5,13.4,5,13.3c0.1-0.1,0.2-0.3,0.4-0.4
		c0.1,0,0.2,0,0.2,0c0.2,0,0.3-0.1,0.4-0.2c0.1-0.1,0.2-0.3,0.4-0.4C6.6,12.2,6.7,12,7,12c0.1,0,0.2-0.2,0.3-0.2
		c0.4-0.2,0.9-0.5,1.4-0.5c0.1,0,0.1,0,0.2,0.1c0.2,0.2,0.2,0,0.3-0.1c0.1-0.3,0.3-0.4,0.5-0.3c0.3,0.2,0.6,0,0.9-0.1
		c0.3-0.1,0.5-0.1,0.7,0.1c0.1,0.1,0.2,0,0.2,0c0.2-0.1,0.4-0.2,0.6-0.2c0.2,0,0.2,0.2,0.4,0.2c0.1,0,0.3-0.2,0.4-0.1
		c0.3,0.2,0.7,0.1,1,0.1c0.1,0,0.3,0,0.3,0.2c0,0.1,0.1,0.1,0.2,0.2c0.3,0.3,0.3,0.3,0.7,0.2c0.4-0.2,0.4-0.2,0.7,0.2
		c0.1,0.1,0.1,0.2,0.2,0.3c0.1,0.3,0.3,0.5,0.7,0.5c0.1,0,0.3,0,0.4,0.1c0.1,0.2,0.3,0.2,0.6,0.2c0.4,0,0.4,0.1,0.4,0.4
		c0,0.2,0.1,0.2,0.3,0.3c0.2,0.1,0.4,0.2,0.5,0.4c0,0.1,0,0.3,0.3,0.3c0,0,0.2,0.1,0.1,0.2c0,0.4,0.3,0.4,0.5,0.5
		c0.2,0.1,0.3,0.1,0.4,0.3c0.1,0.2,0.2,0.4,0.3,0.5c0.1,0.1,0.1,0.3,0.3,0.2c0.1,0,0.2,0.1,0.2,0.2c0,0.2,0.1,0.2,0.2,0.2
		c0.2,0.1,0.3,0.4,0.6,0.4c0,0,0,0,0,0c0.1,0.2,0.2,0.5,0.5,0.4c0,0,0,0,0,0c0,0.2,0,0.4,0.2,0.4c0.3,0,0.3,0.2,0.4,0.3
		c0.1,0.1,0.3,0,0.3,0.1c0.2,0.3,0.5,0.5,0.8,0.6c0,0,0,0.1,0,0.2c0,0.1,0,0.2,0.1,0.2c0.1,0,0.3,0.1,0.3,0.1
		c0.4-0.1,0.5,0.2,0.7,0.4c0.1,0.3,0.4,0.3,0.6,0.3c0.1,0,0.2,0,0.2,0.1c0,0.2,0,0.3,0.2,0.2c0.1,0,0.2,0,0.3,0.2
		c0,0.1,0.2,0.2,0.3,0.4c0,0.2,0.4,0,0.3,0.3c0,0,0.1,0,0.1,0.1c0.3,0.1,0.4,0.1,0.7,0.4c0.1,0.1,0.2,0,0.2,0.1
		c0.1,0.2,0.4-0.1,0.5,0.2c0,0.2,0.3,0.2,0.4,0.3c0.1,0.2,0.4,0.2,0.5,0.4c0.1,0.1,0.2,0.1,0.4,0.1c0.3-0.1,0.6-0.1,0.8,0.3
		c0.1,0.1,0.2,0.2,0.4,0.3c0.1,0.1,0.2,0,0.3,0c0.3-0.1,0.5-0.1,0.7,0.1c0.1,0.1,0.2,0.3,0.5,0.3c0.1,0,0.1,0.2,0.2,0.3
		c0.1,0,0.2,0.1,0.3,0.2c0.1,0.1,0.2,0.2,0.4,0.2c0.1,0,0.2,0.1,0.2,0.2c0,0.2,0,0.2,0.2,0.3c0.2,0.1,0.2,0.3,0.2,0.5
		c0,0.1,0.1,0.3-0.2,0.4c-0.1,0,0,0.1,0,0.2c0.1,0.3,0,0.6-0.2,0.7c-0.3,0.2-0.3,0.4-0.2,0.6c0.1,0.2,0.3,0.4-0.1,0.6c0,0,0,0,0,0
		c0,0.2,0,0.3,0,0.5c0,0.2-0.2,0.1-0.2,0.3c0,0.1,0,0.3,0,0.4c0,0.1-0.1,0.2-0.2,0.3c-0.1,0.1-0.2,0.1-0.3,0c-0.1-0.1-0.1-0.1-0.1,0
		c0,0.3-0.2,0.2-0.4,0.3c-0.3,0.1-0.4,0.6-0.2,0.9c0.1,0.1,0.1,0.2,0.1,0.3c0,0.4-0.1,0.8,0.1,1.2c0,0,0,0.1,0,0.1
		c-0.3,0.2-0.2,0.6-0.3,0.8c-0.1,0.3,0,0.6-0.2,0.8c0.2,0.2,0,0.6,0.2,0.8c0.1,0.2,0.1,0.3,0,0.4c-0.1,0.1-0.2,0.3,0.1,0.5
		c0,0,0,0,0,0c-0.2,0.5,0.4,1.1,0,1.6c0,0.3-0.1,0.6,0.1,0.9c0,0.1,0,0.2,0,0.3c0,0.3,0,0.6,0,0.8c0,0.3,0.1,0.7,0,0.9
		c-0.2,0.3-0.5,0.5-0.7,0.8c-0.2,0.2-0.3,0.2-0.6,0.2c-0.3,0-0.6,0.2-0.9,0.1c-0.2,0-0.3,0.2-0.4,0.3c-0.1,0.1-0.2,0.2-0.3,0.1
		c-0.3-0.2-0.5,0-0.8,0c-0.3,0-0.5,0.1-0.8,0.1c-0.1,0-0.1,0.1-0.2,0.1c0,0-0.1,0.1-0.1,0.1c-0.5-0.1-0.9,0.3-1.3,0.3
		c-0.3,0-0.6,0.1-0.8,0.1c-0.1,0-0.2-0.1-0.4-0.1c-0.1,0-0.2,0.1-0.3,0.2c-0.1,0.1-0.3,0-0.5,0c-0.2,0-0.4,0-0.5,0
		C23,42.6,23,42.7,22.9,42.8z M26.9,36.8c-0.1-0.1-0.3-0.1-0.3-0.2c0-0.3-0.1-0.7,0.1-1c0.1-0.2,0-0.4-0.1-0.4
		c-0.1,0-0.2-0.1-0.2-0.2c0-0.2,0-0.4,0.1-0.6c0.1-0.2-0.1-0.4-0.1-0.7c0-0.1,0.1-0.2,0.1-0.3c0-0.1,0.1-0.3,0-0.3
		c-0.3,0-0.2-0.3-0.2-0.4c0-0.4-0.1-0.8-0.2-1.2c-0.1-0.3-0.3-0.7-0.1-1c0.1-0.2-0.1-0.5,0.1-0.7c0,0,0-0.1,0-0.2
		c-0.1-0.2-0.2-0.3-0.3-0.5c0,0-0.1-0.2-0.2-0.1c-0.2,0.1-0.4,0.1-0.6,0c-0.2,0.2-0.4,0.1-0.6,0.1c0,0-0.1,0-0.1,0
		c-0.2-0.2-0.3,0-0.4,0.1c-0.1,0.3-0.2,0.3-0.4,0.3c-0.1,0-0.2-0.2-0.3-0.1c-0.1,0-0.2,0.1-0.3,0.1c-0.3,0-0.7,0-1,0
		c-0.2,0-0.3,0-0.4,0.2c-0.2,0.2-0.4,0.3-0.7,0.1c0,0-0.1,0-0.2,0c-0.3,0.2-0.5,0.2-0.8,0c-0.1,0-0.2,0-0.2,0
		c-0.2,0.2-0.5,0-0.6,0.2c-0.2,0.3-0.5,0-0.7,0.1c-0.1,0.1-0.3,0.1-0.3,0.2c-0.1,0.2-0.3,0.2-0.4,0.1c-0.2-0.1-0.4,0-0.6,0
		c-0.2,0-0.4-0.1-0.6-0.1c-0.2,0-0.3,0.2-0.5,0.2c-0.2,0-0.4,0-0.6,0c0.2,0.2,0.5,0.3,0.5,0.6c0,0,0,0.1,0.1,0.1
		c0.3-0.1,0.4,0.2,0.6,0.3c0.1,0.1,0.2,0.2,0.4,0.1c0.3-0.1,0.4,0.1,0.5,0.3c0,0.2,0.2,0.3,0.3,0.2c0.3-0.2,0.4,0,0.6,0.1
		c0.2,0.1,0.1,0.3,0.4,0.4c0.2,0.1,0.5,0.2,0.4,0.5c0,0,0.1,0.2,0.2,0.2c0.3,0,0.2,0.3,0.2,0.4c-0.2,0.5-0.2,1.1-0.3,1.6
		c0,0.1-0.1,0.2-0.2,0.2c-0.3,0-0.4,0.1-0.4,0.4c0,0.1-0.1,0.3-0.1,0.4c0,0.1-0.1,0.1-0.2,0.2c-0.2,0.1-0.4,0.3-0.3,0.6
		c0,0.1,0,0.1,0,0.2c-0.1,0-0.1,0-0.2,0c-0.2,0-0.5-0.1-0.4,0.3c0,0.1-0.1,0.2-0.2,0.2c-0.2,0-0.5,0.1-0.6-0.3c0-0.1,0-0.1-0.1-0.1
		c-0.3,0-0.6-0.2-0.9-0.1c-0.3,0-0.6,0.2-0.7-0.2c-0.3,0.1-0.3-0.2-0.4-0.4c-0.1-0.3-0.1-0.3-0.4-0.3c-0.1,0-0.3,0-0.3-0.2
		c-0.1-0.1-0.3,0-0.5-0.1c-0.1,0-0.2-0.1-0.2-0.2c0-0.1-0.1-0.2-0.2-0.2c-0.1,0-0.2,0-0.2-0.1c-0.1-0.2-0.1-0.5-0.4-0.4
		c0,0,0-0.1,0-0.1c0-0.2-0.1-0.2-0.2-0.3c-0.2-0.1-0.3-0.1-0.4-0.3c-0.1-0.1-0.2-0.2-0.4-0.2c-0.1,0,0-0.3-0.3-0.2
		c-0.3,0.1-0.4-0.1-0.5-0.3c-0.1-0.1-0.1-0.2-0.2-0.3c-0.2-0.1-0.6-0.4-0.6-0.6c0-0.3-0.2-0.3-0.4-0.3c-0.2,0-0.2,0-0.2-0.2
		c0-0.2,0-0.4-0.2-0.5C8.3,31.9,8,31.8,8,31.4c-0.4-0.1-0.4-0.4-0.6-0.7c-0.1-0.2-0.2-0.5-0.5-0.5c-0.1,0-0.2-0.1-0.2-0.2
		c0-0.2-0.1-0.3-0.3-0.3c-0.2,0-0.4,0-0.6,0C5.8,30,6,30.2,5.8,30.4c-0.2,0.2-0.1,0.4,0,0.6c0.1,0.2,0.1,0.5,0.3,0.7
		c0.1,0.2,0.1,0.3,0,0.5c-0.1,0.1-0.1,0.2,0,0.3c0.2,0.3,0.3,0.5,0.3,0.8c0,0.1,0.2,0.3,0.1,0.4c-0.2,0.3-0.1,0.5-0.1,0.8
		c0.3,0.1,0.5,0.1,0.5,0.5C6.8,35,6.9,35,7,35.1c0.1,0.1,0.3,0.2,0.4,0.3c0.2,0.1,0.4,0.2,0.4,0.5c0,0.2,0.1,0.2,0.3,0.3
		c0.2,0.1,0.5,0.1,0.5,0.5c0,0.1,0.1,0.1,0.2,0.1c0.5,0.1,0.5,0.1,0.6,0.6c0,0,0,0.1,0.1,0.1c0.2,0,0.3,0,0.5,0
		c0.2,0,0.3,0.1,0.4,0.3c0.1,0.2,0.2,0.4,0.5,0.4c0.2,0,0.2,0.1,0.3,0.2c0.1,0.2,0.1,0.2,0.4,0.2c0.1,0,0.1,0,0.2,0.1
		c0.2,0.2,0.3,0.4,0.5,0.6c0.2,0.2,0.5,0.2,0.7,0.4c0,0,0.1,0,0.1,0c0.2-0.2,0.3-0.1,0.5,0c0.2,0.1,0.2-0.3,0.5-0.2
		c0.1,0.1,0.2-0.1,0.4-0.1c0.1-0.1,0.2,0.2,0.4,0c0.1-0.1,0.3,0,0.4,0c0.1,0,0.2,0,0.3-0.1c0.1-0.2,0.3-0.2,0.5-0.2
		c0.3,0,0.5,0,0.8,0c0.1,0,0.2,0,0.3-0.1c0.1-0.2,0.3-0.2,0.5-0.2c0.3,0,0.7,0,1,0c0.1,0,0.2,0.1,0.3,0c0.2-0.2,0.4-0.2,0.6-0.2
		c0.2,0,0.4,0.1,0.6-0.1c0.2-0.1,0.5-0.4,0.8-0.3c0.1,0,0.1,0,0.1-0.1c0.2-0.2,0.4-0.2,0.6-0.1c0.2,0.1,0.4,0.1,0.5,0
		c0.2-0.2,0.6,0,0.7-0.4c0.2,0,0.4-0.1,0.6-0.1c0.1,0,0.3,0,0.4,0.1c0,0.1,0.1,0.1,0.2,0.1c0.2,0.1,0.3-0.3,0.5-0.3
		c0.2,0,0.3,0.3,0.5,0.1c0.2-0.2,0.4-0.2,0.7-0.2c0.1,0,0.1,0,0.2-0.1c0.2-0.3,0.5-0.3,0.8-0.3C26.6,36.9,26.8,36.9,26.9,36.8z
		 M14.4,21.7c0.1,0.2,0.2,0.4,0.1,0.7c0,0,0,0.1,0,0.1c0.2,0,0.2,0.2,0.4,0.2c0.1-0.2,0.3,0,0.4-0.2c0.1-0.2,0.3-0.2,0.5-0.2
		c0.1,0,0.8-0.2,0.9-0.2c0.2-0.2,0.3-0.2,0.5,0c0.1,0.1,0.3,0.2,0.4,0c0.1-0.1,0.1,0,0.2-0.1c0.3,0,0.2,0,0.2-0.3
		c0-0.3-0.1-0.4-0.4-0.3c-0.1,0-0.2,0.1-0.2-0.1c0-0.3-0.3-0.2-0.4-0.3c-0.1-0.1-0.1-0.4-0.3-0.5c-0.1,0-0.1-0.1-0.2-0.1
		c-0.2,0-0.3-0.1-0.3-0.2c0-0.2-0.1-0.2-0.3-0.2c-0.1,0-0.2-0.1-0.2-0.1c-0.1-0.4-0.4-0.4-0.6-0.6c0,0-0.1-0.1-0.1-0.1
		c-0.2,0-0.6,0.3-0.6,0.5c0.1,0.4-0.2,0.8,0.1,1.2c0,0.1,0.1,0.2,0,0.3C14.4,21.4,14.4,21.5,14.4,21.7z"/>
	<path d="M17.4,5.9c-0.2,0.7-0.1,1.5-0.1,2.2c0,0.2-0.2,0.5-0.1,0.7C17.2,8.9,17,9,17,9c-0.3,0-0.3,0.2-0.3,0.4c0,0.1,0,0.3-0.2,0.3
		c-0.1,0,0,0.3-0.1,0.4c-0.1,0.1-0.2,0.1-0.3,0.1c-0.3-0.1-0.6,0.1-0.8,0.3c-0.2,0.2-0.4,0.3-0.6,0.3c-0.2,0-0.3,0-0.4-0.2
		c-0.1-0.1-0.2-0.1-0.3,0c-0.1,0.1-0.3,0.1-0.4,0c-0.2-0.2-0.4-0.2-0.6-0.1c-0.1,0.1-0.3,0.1-0.4,0.1c-0.1,0-0.3,0.1-0.3-0.2
		c-0.2,0-0.3-0.4-0.6-0.3c-0.1,0-0.1,0-0.1-0.1c-0.1-0.2-0.3-0.5-0.3-0.7c-0.1-0.4-0.2-0.6-0.4-0.9c-0.1-0.1-0.2-0.2-0.2-0.4
		c0.1-0.5-0.2-1-0.1-1.4c0-0.2-0.1-0.3-0.2-0.4c-0.1-0.2-0.1-0.4-0.1-0.5c0.1-0.1,0-0.3,0.1-0.4c0.1-0.1-0.1-0.2-0.1-0.3
		c0-0.2-0.1-0.4,0-0.6c0.1-0.2-0.1-0.3,0-0.4c0.1-0.2,0.2-0.5,0.4-0.7c0.1-0.1,0.1-0.1,0-0.3c-0.1-0.1,0-0.2-0.1-0.3
		c-0.1-0.1-0.1-0.3,0.1-0.4c0.1-0.1,0.1-0.1,0.2-0.2c0.1-0.2,0.2-0.3,0.3-0.5c0-0.2,0.3,0,0.5-0.1c0.1-0.1,0.2-0.1,0.2-0.1
		c0.2-0.3,0.5-0.3,0.8-0.4c0.1,0,0.1,0,0.2-0.1c0.1-0.4,0.4-0.3,0.6-0.3c0.1,0,0.2,0,0.2-0.2C13.8,0,14-0.1,14.3,0.1
		c0.2,0.1,0.3,0.2,0.4,0c0.1-0.1,0.2,0,0.4,0c0.1,0,0.1,0,0.2,0.1c0.1,0.3,0.4,0.4,0.7,0.4c0.2,0,0.2,0,0.3,0.2
		c0,0.2,0.1,0.3,0.1,0.5c0,0.2,0.3,0.2,0.2,0.4c0,0,0.1,0.1,0.1,0.1c0.1,0.3-0.1,0.6,0.1,0.8C16.9,2.9,17,3.1,17,3.4
		c0,0.1,0.2,0.2,0.1,0.4c-0.1,0.5,0.2,1,0.1,1.5C17.3,5.4,17.5,5.6,17.4,5.9z"/>
	<path d="M66.7,39c0-0.2,0-0.4,0-0.6c0-0.2,0-0.3,0.2-0.3c0.2,0,0.3-0.2,0.4-0.4c0.2-0.3,0.5-0.3,0.8-0.2c0.1,0.1,0.2,0.1,0.3,0
		c0.1-0.2,0.3-0.2,0.5-0.1c0.1,0.1,0.2-0.1,0.3-0.1c0.1,0,0.2,0.2,0.3,0.1c0,0,0.1,0,0.1-0.1c0.1-0.3,0.4-0.3,0.6-0.4
		c0.1-0.1,0.2-0.1,0.4,0c0.2,0.1,0.5,0.1,0.7,0c0.2-0.1,0.5,0,0.7-0.3c0,0,0.2,0,0.3,0c0.4,0,0.7,0,1.1,0c0.3,0,0.6-0.1,0.8-0.3
		c0,0,0.1-0.1,0.1-0.1c0.4,0.1,0.9-0.3,1.3,0c0,0,0.1,0,0.2-0.1c0.1-0.3,0.5-0.1,0.7-0.3c0.1,0,0.2,0,0.2,0c0.2,0,0.7-0.1,0.9-0.2
		c0.2-0.1,0.3,0,0.4,0.1c0.1,0.1,0.2,0.2,0.3,0c0.1-0.1,0.3,0,0.5-0.1c0.1,0,0.2,0,0.3-0.1c0.2-0.3,0.4-0.2,0.7-0.1
		c0.2,0.1,0.3,0,0.4,0c0.4-0.1,0.9-0.3,1.4-0.3c0.2,0,0.3-0.1,0.5-0.1c0.5-0.2,1.1,0,1.7-0.3c0.1-0.1,0.3,0,0.4,0
		c0.2,0.1,0.5,0,0.6-0.1c0.1-0.1,0.3-0.2,0.4-0.1c0.3,0.1,0.7,0.2,1,0.2c0.1,0.2,0.3,0,0.5,0.2c0.1,0.1,0.2,0.2,0.2,0.2
		c0.1-0.2,0.3-0.1,0.4-0.1c0.2-0.2,0.3-0.1,0.5-0.1c0.1,0,0.1,0,0.2,0.1c0.1,0.3,0.3,0.3,0.5,0.2c0.2,0,0.4,0,0.4,0.2
		c0,0.1,0.1,0.1,0.2,0.1c0.2,0,0.3,0.1,0.3,0.2c0.1,0.2,0.3,0.2,0.5,0.2c0,0.3,0.2,0.2,0.4,0.2c0.2,0,0.4,0.2,0.6,0.3
		c0.1,0,0.1,0.3,0.1,0.4c0,0.2,0,0.2,0.2,0.2c0.1,0,0.2,0,0.2,0.1c0.2,0.3,0.6,0.3,0.8,0.6c0.1,0.1,0.1,0,0.2,0
		c0.2-0.1,0.4-0.1,0.6,0.1c0.1,0.1,0.1,0.2,0.3,0.2c0.2,0,0.4,0,0.4,0.3c0,0.1,0.1,0.1,0.1,0.1c0.2,0.1,0.5,0.4,0.5,0.6
		c0,0.3,0,0.6,0.1,0.9c0.1,0.1,0.1,0.4-0.2,0.4C93.7,41,93.2,41,92.9,41c-0.3,0.1-0.6,0-1,0.1c-0.3,0.1-0.7-0.1-1,0.1
		c-0.1,0.1-0.2,0-0.4,0c-0.6,0-0.6,0-1.4,0.3c-0.3,0.1-0.6,0.1-0.9,0c-0.2-0.1-0.5,0-0.7-0.1c-0.1,0-0.1,0.1-0.2,0.1
		c-0.2,0.2-0.5,0.1-0.7,0.2c-0.1,0.1-0.2-0.1-0.2-0.1c-0.1-0.1-0.1-0.1-0.2,0c0,0.1-0.1,0.1-0.2,0.1c-0.2,0-0.4,0.1-0.5,0
		c-0.2-0.1-0.3,0-0.4,0.1C84.9,42,84.7,42,84.5,42c-0.4,0-0.7,0.2-1.1,0.1c-0.1,0-0.1,0.1-0.2,0.1c-0.5,0.3-0.5,0.2-1.2,0.1
		c-0.2,0-0.5-0.1-0.6,0.2c-0.1,0.1-0.2,0.1-0.3,0.1c-0.3,0-0.6,0-1,0c-0.2,0-0.4,0-0.6,0.2c-0.1,0.1-0.3,0-0.4,0.1
		c-0.2,0-0.5,0-0.7,0.2c-0.1,0.1-0.4,0.1-0.6,0.2c-0.1,0.1-0.3,0-0.4,0.1c-0.2,0.1-0.4,0-0.5-0.1c-0.2-0.1-0.5-0.3-0.7-0.2
		c-0.1,0-0.1,0-0.2,0c-0.3-0.2-0.6-0.3-1-0.4c-0.2,0-0.4-0.1-0.5-0.3c0-0.1-0.1-0.1-0.2-0.1c-0.3,0-0.6-0.1-0.8-0.3c0,0-0.4,0-0.6,0
		c-0.2,0-0.4,0.1-0.4-0.2c0-0.1-0.1-0.2-0.3-0.2c-0.2,0-0.3,0-0.5,0c-0.1,0-0.2,0-0.2,0c-0.2-0.3-0.6-0.3-0.9-0.5
		c-0.2-0.2-0.4-0.3-0.6-0.4c-0.3-0.1-0.6-0.1-0.8-0.4c0,0-0.2-0.1-0.3-0.1c-0.2-0.1-0.6,0-0.7-0.3c-0.2,0.1-0.3-0.1-0.5,0
		c-0.1,0.1-0.3,0.1-0.4-0.2C67.3,39.2,67.1,38.9,66.7,39z"/>
</g>
</svg>
