<?xml version="1.0" encoding="utf-8"?>
<!-- Generator: Adobe Illustrator 27.7.0, SVG Export Plug-In . SVG Version: 6.00 Build 0)  -->
<svg version="1.1" id="Ebene_1" xmlns="http://www.w3.org/2000/svg" xmlns:xlink="http://www.w3.org/1999/xlink" x="0px" y="0px"
	 viewBox="0 0 151.5 97.7" style="enable-background:new 0 0 151.5 97.7;" xml:space="preserve">
<g>
	<path d="M91.6,69.6c-0.3,0-0.5,0-0.8,0c0,0.3,0.1,0.7-0.4,0.6c-0.1,0-0.2,0.1-0.2,0.1c0,0.3-0.2,0.1-0.3,0.1c-0.1,0-0.2,0-0.2,0.2
		c0,0.2-0.2,0.3-0.2,0.4c0,0.1-0.1,0.1-0.2,0.1c-0.1,0-0.2,0-0.2,0c0,0.2-0.2,0.2-0.3,0.3c-0.3,0.4-0.4,0.5-0.8,0.6
		c-0.2,0-0.3,0.1-0.3,0.3c-0.1,0.2-0.2,0.3-0.5,0.4c-0.1,0-0.3,0.2-0.4,0.3c-0.1,0.2-0.2,0.3-0.4,0.3c-0.1,0-0.1,0-0.1,0.1
		c-0.1,0.1,0.2,0.3-0.1,0.2c-0.2-0.1-0.1,0.2-0.2,0.2c-0.1,0.2-0.2,0.4-0.5,0.3c-0.2-0.1-0.1,0.3-0.3,0.2c-0.2,0-0.3,0.1-0.4,0.2
		c0,0,0,0.1-0.1,0c-0.2-0.1-0.3-0.5-0.7-0.2c0,0,0,0,0,0c-0.2-0.5-0.7-0.5-1-0.8c-0.3,0-0.2-0.4-0.4-0.4c-0.2,0-0.4-0.2-0.6-0.2
		c-0.1,0,0-0.1,0-0.2c0-0.1-0.1-0.2,0-0.4c0.1-0.2-0.2-0.1-0.3-0.3c-0.1-0.2-0.1-0.3,0-0.4c0.2-0.2,0-0.3-0.1-0.4
		c-0.1,0-0.2-0.1-0.3-0.2c-0.2,0-0.3-0.2-0.2-0.3c0-0.2-0.1-0.4-0.2-0.6c-0.2-0.2-0.4-0.4-0.4-0.7c0-0.1-0.1-0.3-0.1-0.4
		c0-0.2-0.1-0.4-0.4-0.3c-0.3,0-0.4-0.1-0.4-0.4c0-0.2-0.1-0.2-0.2-0.3c-0.2-0.3-0.3-0.6-0.5-0.9c-0.1-0.2-0.1-0.3-0.2-0.5
		c-0.1-0.2-0.4-0.1-0.4-0.4c-0.2,0-0.3-0.1-0.2-0.3c0-0.2,0-0.4-0.3-0.4c-0.1,0-0.2-0.2-0.2-0.3c-0.1-0.3-0.1-0.7-0.4-0.9
		c-0.1-0.1,0-0.2-0.1-0.3c-0.2-0.3-0.7-0.5-1-0.3c-0.1,0.1-0.3,0.1-0.3,0c-0.1-0.1-0.2-0.2-0.3,0c0,0-0.1,0-0.2,0
		c-0.2-0.3-0.4-0.1-0.5,0c-0.1,0.1-0.2,0.1-0.2,0c-0.3-0.2-0.6-0.1-0.9-0.1c-0.2,0-0.3,0.2-0.5,0c-0.2,0.1-0.3-0.1-0.5,0
		c-0.1,0.1-0.1-0.1-0.1-0.1c-0.1-0.2-0.2-0.2-0.3-0.1c-0.2,0.2-0.3,0.4-0.6,0.1c0,0-0.2-0.1-0.3,0c-0.1,0.2-0.3,0.1-0.4,0.1
		c-0.4,0-0.8,0.1-1.1-0.2c-0.1,0.2-0.3-0.1-0.4,0c-0.2,0.2-0.4,0.2-0.6,0c-0.1-0.1-0.1,0-0.2,0c-0.2,0.2-0.3,0.3-0.5,0.1
		c-0.1-0.1-0.3-0.2-0.4,0.1c-0.1,0.1-0.2,0.1-0.3,0.1c-0.2-0.2-0.5,0-0.6-0.2c-0.1-0.2-0.3,0.2-0.5,0.1c-0.2-0.1-0.4-0.1-0.5-0.1
		c-0.2,0-0.3-0.2-0.5,0c-0.1,0.1-0.2-0.1-0.3-0.1c-0.1,0.1-0.3,0-0.3,0.1c-0.1,0.1-0.2,0.1-0.3,0c-0.1,0.1-0.2,0.1-0.3,0.1
		c-0.3-0.1-0.7-0.2-1.1-0.2c-0.1,0-0.3,0.1-0.4,0c-0.2-0.2-0.4,0-0.6,0c-0.2,0-0.3,0.1-0.4,0.3c0,0.2-0.1,0.4-0.2,0.6
		c-0.2,0.2-0.1,0.4,0.1,0.6c0.2,0.1,0.3,0.3,0,0.4c-0.1,0.1-0.1,0.3-0.2,0.3c-0.1,0,0,0.2,0,0.3c0.1,0.1,0.3,0.2,0.2,0.4
		c-0.1,0.2,0.1,0.3,0.1,0.5c-0.1,0.1,0.1,0.3-0.1,0.4c-0.1,0.1,0,0.2,0,0.2c0.3,0.1,0,0.3,0,0.4c0,0-0.1,0.1-0.1,0.1
		C61,68,61,68,61.3,68.3c0.2,0.2,0.2,0.3,0,0.5c0,0-0.1,0.1-0.1,0.1c0,0,0,0.1,0,0.1c0.2,0.2-0.1,0.4,0,0.6c0.2,0.2,0,0.4,0,0.6
		c0,0.2,0.1,0.5,0,0.7c-0.1,0.2,0,0.3,0,0.5c0,0.2-0.1,0.4,0.1,0.5c0,0.1,0.1,0.1,0,0.1c-0.2,0.1-0.2,0.3-0.1,0.5c0,0,0,0.1,0,0.1
		c-0.1,0.1-0.1,0.3,0,0.4c0.1,0.1,0.1,0.3,0.1,0.5c0,0.1,0.2,0.2,0,0.4c0,0,0,0.2,0,0.2c0.1,0.2,0.1,0.4,0,0.7
		c-0.1,0.2-0.1,0.4,0,0.6c0.1,0.2,0.1,0.3,0,0.4c0.1,0.3-0.4,0.2-0.2,0.4c0.2,0.3-0.3,0.3-0.1,0.5c-0.1,0.1-0.2,0.2,0,0.3
		c0.1,0.1,0,0.3,0,0.4c0,0.3-0.1,0.4-0.4,0.4c-0.3,0-0.5,0.2-0.9,0.1c-0.1,0-0.2,0.1-0.2,0.3c0,0.1-0.1,0.2-0.3,0.1
		c-0.1-0.1-0.3,0-0.5-0.1c-0.2-0.1-0.5,0-0.6,0.2c-0.1,0.2-0.2,0.2-0.3,0.1c-0.2-0.2-0.4-0.4-0.7-0.3c-0.1-0.2-0.5-0.2-0.4-0.5
		c0-0.1-0.1-0.1-0.1-0.1c-0.3,0-0.4-0.1-0.3-0.4c0-0.3-0.1-0.6-0.2-0.9c0-0.2-0.1-0.3,0-0.5c0.1-0.1,0-0.2-0.1-0.2
		c-0.2-0.2-0.2-0.3,0-0.5c0.2-0.2,0.3-0.4,0.1-0.7c-0.1-0.2-0.1-0.5-0.2-0.7c0,0,0-0.1,0-0.1c0.1-0.1,0.2-0.2,0.2-0.3
		c0-0.1-0.2-0.2-0.2-0.3c0-0.1,0-0.2,0-0.3c0.1-0.1,0.1-0.2,0-0.3c-0.1-0.1-0.1-0.2,0-0.3c0.1-0.1,0.1-0.2,0-0.3
		c-0.1-0.1-0.1-0.3-0.1-0.3c0.2-0.1,0-0.3,0.2-0.4c0.2-0.2,0.3-0.4,0.2-0.7c0-0.1,0-0.2,0-0.3c0-0.2-0.1-0.4-0.3-0.5
		c0.1-0.1,0.2-0.2,0.3-0.2c0.3-0.3,0.3-0.3,0-0.7c-0.1-0.2-0.2-0.2-0.1-0.4c0.1-0.2-0.2-0.5-0.1-0.7c-0.2-0.2-0.1-0.4,0.1-0.5
		c0.2-0.1,0.2-0.2,0.1-0.4c-0.1-0.2-0.3-0.5,0.1-0.6c0.1-0.1,0-0.1,0-0.1c-0.1-0.1-0.1-0.2-0.2-0.3c-0.1-0.1-0.2-0.2,0-0.3
		c0.3-0.3,0.3-0.6,0.1-0.9c-0.1-0.2-0.1-0.4-0.1-0.6c0-0.2,0.1-0.5-0.1-0.7c0,0,0-0.1,0-0.2c0.1-0.2,0.2-0.4,0.1-0.7
		c-0.1-0.2,0.1-0.5-0.1-0.7c0,0,0-0.1,0-0.1c0.3-0.4,0.4-0.8,0.7-1.2c0,0,0.2-0.1,0.1-0.1c-0.1-0.1-0.2-0.3,0-0.4
		c-0.1-0.1-0.2-0.3-0.2-0.4c0.1-0.2,0.2-0.3,0.4-0.4c0.1-0.1,0.1-0.1,0-0.2c-0.2-0.2,0-0.4-0.1-0.6c0-0.1,0.1-0.1,0.1-0.2
		c0.1-0.1,0.2-0.2,0.1-0.4c-0.1-0.1,0-0.2,0-0.3c0.1-0.5,0.3-1,0.3-1.6c0-0.2-0.1-0.3-0.2-0.4c-0.1-0.1-0.2-0.1-0.2-0.2
		c0-0.1-0.3-0.3,0-0.4c0.1-0.1-0.1-0.2-0.1-0.2c0-0.1,0.2-0.1,0.2-0.2c0.1-0.1,0.1-0.3,0-0.4c-0.1-0.1-0.1-0.2-0.2,0
		c-0.1,0.2-0.2,0.1-0.3,0c0-0.1-0.1-0.1-0.1-0.2c0,0,0,0,0,0c-0.1,0.2-0.2-0.2-0.3,0c-0.2,0.2-0.3,0.1-0.5,0.1c-0.2,0-0.4,0-0.6,0.1
		c-0.1,0-0.2,0.1-0.2,0.2c-0.1,0.2-0.3,0.3-0.6,0.2c-0.1,0-0.2-0.1-0.3,0.1c0,0.1,0,0.2,0.1,0.3c0.2,0.1,0.4,0.2,0.2,0.5
		c-0.1,0.1-0.1,0.4,0,0.6c0.1,0.2,0.1,0.5-0.1,0.7c-0.2,0.2-0.1,0.5-0.3,0.7c0,0,0,0.1,0,0.1c0.1,0.2,0.1,0.5,0,0.7
		c-0.1,0.1,0,0.2,0,0.2c0.2,0.2,0.2,0.3,0,0.6c-0.1,0.1-0.1,0.2,0,0.4c0.2,0.2,0.3,0.6,0.1,0.9c-0.2,0.4-0.2,0.4,0.1,0.9
		c0.1,0.1,0.1,0.2-0.1,0.2c-0.2,0-0.1,0.2-0.1,0.2c0,0.1,0.1,0.2,0.2,0.3c0.1,0.1,0.1,0.2,0,0.3c0,0-0.1,0.1-0.1,0.1
		c0.2,0.2,0,0.3,0,0.5c0,0.2-0.2,0.3-0.2,0.5c-0.1,0.1,0.1,0.3,0.1,0.5c0,0.1-0.1,0.2-0.1,0.4c-0.1,0.3-0.2,0.6,0.1,0.9
		c0.1,0.1,0.1,0.3,0,0.4c-0.2,0.1-0.1,0.3-0.2,0.4c0,0.1,0,0.3-0.1,0.4c-0.1,0.2,0.1,0.4,0.1,0.5c0.1,0.1,0.2,0.2-0.1,0.3
		c-0.1,0.1-0.3,0.2-0.2,0.4c0.1,0.4-0.1,0.6-0.4,0.8c-0.1,0-0.1,0.1-0.1,0.2c0,0.1,0,0.2,0,0.4c0,0.2,0,0.4-0.2,0.6
		c-0.1,0-0.2,0.1-0.1,0.2c0.1,0.4-0.2,0.7-0.1,1.1c0,0.2,0,0.4-0.1,0.6c-0.1,0.2,0,0.3-0.1,0.5c-0.1,0.1-0.3,0.1-0.2,0.4
		c0,0-0.1,0.1-0.1,0.1c-0.1,0-0.1,0-0.1-0.1c0-0.1,0-0.2,0-0.3c-0.2,0.2-0.4,0.3-0.4,0.6c-0.3-0.1-0.5,0.1-0.8-0.1
		c-0.1-0.1-0.3,0-0.5,0c-0.2,0-0.2,0-0.2-0.1c0,0,0-0.1,0-0.1c-0.2,0.2-0.3-0.2-0.5-0.1c-0.1,0-0.2,0-0.2-0.2c0,0,0,0-0.1-0.1
		c-0.2,0.3-0.4-0.1-0.7,0c-0.1,0.1-0.2,0-0.2-0.2c0-0.1-0.1-0.1-0.2,0c-0.1,0.1-0.1,0.1-0.2,0.2c-0.1,0.1-0.2,0.1-0.2-0.1
		c-0.1-0.2-0.1-0.4-0.3-0.5c-0.2-0.1-0.3-0.3-0.4-0.4c-0.1-0.2,0.2-0.3,0.1-0.5c0-0.1,0-0.2,0-0.3c-0.1-0.1-0.1-0.1,0-0.2
		c0.3-0.1,0-0.3,0-0.4c0-0.1-0.2-0.2,0-0.3c0,0,0,0,0,0c0.1-0.3,0.2-0.6,0.4-0.9c0,0,0-0.1,0-0.2c-0.1-0.2-0.2-0.3,0.1-0.4
		c0.1,0,0-0.1,0-0.1c0-0.1,0-0.1,0-0.2c0.3-0.1,0.2-0.5,0.4-0.7c0,0,0.1-0.1,0-0.1c-0.1-0.2-0.2-0.5,0.1-0.7c0,0-0.1-0.2-0.1-0.3
		c0-0.1-0.1-0.1-0.1-0.2c0.1-0.1,0.2-0.2,0.2-0.3c0.1-0.1-0.2-0.2-0.1-0.3c0.2-0.2,0.3-0.5,0.2-0.6c-0.1-0.2-0.1-0.5-0.1-0.7
		c0-0.1,0-0.2,0.1-0.3c-0.1-0.1-0.1-0.1-0.1-0.2c0-0.2,0.1-0.4,0.2-0.5c0.2-0.2,0.2-0.3,0.2-0.5c0-0.3,0-0.6,0-0.8
		c0-0.2-0.1-0.4-0.2-0.5c0.2-0.1,0.1-0.4,0.2-0.5c-0.2-0.1,0-0.4-0.1-0.5c-0.2-0.2,0.1-0.2,0-0.3c-0.1-0.1-0.2-0.2-0.2-0.3
		c0.3-0.2-0.1-0.3,0-0.5c0,0-0.1-0.1-0.1-0.1c0.1-0.2,0.3-0.3,0.4-0.5c0-0.1,0.1-0.2,0-0.2c-0.3-0.3-0.2-0.7-0.1-1
		c0-0.2,0-0.4,0.1-0.6c0-0.2-0.1-0.3-0.1-0.4c0-0.1,0.2-0.2,0.1-0.4c0-0.1,0-0.2-0.2-0.2c-0.2,0-0.3-0.3-0.2-0.4
		c0.2-0.3,0.1-0.7,0.3-1.1C48,52.5,48,52.2,47.9,52c-0.1-0.1-0.1-0.1,0-0.2c0.2-0.1,0.2-0.2,0-0.4c-0.1-0.1,0.2-0.2,0-0.3
		c-0.1-0.1-0.1-0.2,0.1-0.4c0.1-0.1,0.1-0.2,0-0.3c-0.2-0.2-0.1-0.3,0.1-0.5c0.2-0.2,0.1-0.4,0-0.6c-0.1-0.1-0.1-0.2,0-0.3
		c0.1-0.1,0.2-0.1,0.1-0.2c0-0.2,0-0.4,0-0.6c0-0.2,0.2-0.3,0.1-0.5c0-0.2,0-0.4-0.1-0.7c-0.1-0.1-0.1-0.3,0-0.6
		c0.2-0.3,0.2-0.6,0.1-1c0-0.2-0.1-0.4,0.1-0.6c0.1-0.1,0.1-0.4,0.1-0.6c0-0.3-0.1-0.6,0.2-0.8c0-0.4,0.3-0.6,0.4-1
		c0-0.2-0.1-0.5,0.2-0.6c-0.4-0.3,0.2-0.4,0.1-0.6c-0.1-0.3,0.2-0.4,0.4-0.6c0.1-0.1,0.1-0.1,0.1-0.2c-0.1-0.2,0.1-0.3,0.1-0.5
		c0-0.1,0.1-0.2,0.1-0.3c0-0.2-0.2-0.4,0.1-0.5c0.1-0.1,0.2-0.3,0.2-0.5c0.3,0,0.2-0.4,0.4-0.6c0.1-0.1,0.4-0.3,0.1-0.6
		c-0.1-0.1,0.1-0.1,0.1-0.2c0-0.1,0.2,0,0.2-0.1c0-0.4,0.4-0.7,0.5-1.1c0-0.1,0-0.2,0.1-0.2c0.3,0.1,0.2-0.2,0.4-0.2
		c0.3-0.1,0.3-0.2,0.3-0.5c0-0.1,0-0.2,0-0.2c0-0.3,0.1-0.3,0.4-0.4c0.2,0,0.2,0,0.3-0.4c0-0.2,0.2-0.3,0.2-0.5c0-0.2,0-0.4,0.3-0.3
		c0.2,0,0.2-0.1,0.3-0.2c0-0.1,0-0.1,0.2-0.2c0.3-0.1,0.2-0.2,0.1-0.5c0-0.1-0.1-0.2,0.1-0.2c0.1,0,0.2-0.2,0.3-0.1
		c0.1,0,0.1,0,0.2-0.1c0.2-0.4,0.2-0.4,0.5-0.6c0.1,0,0.1-0.1,0.1-0.2c0.1-0.2,0.2-0.4,0.2-0.6c0,0,0.1-0.1,0.1-0.1
		c0.4,0.1,0.4-0.3,0.5-0.4c0.1-0.1,0.1-0.2,0.2-0.2c0.3,0,0.4-0.2,0.4-0.4c0-0.3,0.4-0.4,0.3-0.6c0,0,0.1-0.1,0.1-0.1
		c0.3-0.1,0.3-0.3,0.5-0.5c0.1-0.1,0.2-0.3,0.3-0.1c0,0,0.1,0,0.1-0.1c0-0.4,0.2-0.4,0.5-0.4c0.3,0,0.5-0.1,0.7-0.3
		c0.1-0.1,0.3-0.1,0.5-0.3c0.1-0.1,0.1,0.1,0.3,0.1c0.3-0.1,0.7-0.2,0.9-0.4c0.1,0,0.1-0.1,0.2,0c0.3,0.3,0.7,0,0.9-0.1
		c0.3-0.2,0.6-0.2,0.9-0.1c0.2,0,0.2,0.1,0.3-0.1c0.1-0.2,0.2-0.2,0.4,0c0.1,0.1,0.2,0.1,0.3,0c0.1-0.1,0.2-0.1,0.3-0.1
		c0.1-0.1,0.2-0.1,0.3,0c0.2,0,0.2,0.2,0.4,0.3c0.1,0.1,0.3-0.2,0.4,0c0.1,0.2,0.3,0.2,0.4,0.2c0.1,0,0.2,0,0.2,0
		c0.1,0,0,0.2,0.2,0.2c0.2,0,0-0.3,0.2-0.2c0.2,0,0.3-0.2,0.4-0.1c0.1,0.1,0.3,0,0.4,0c0.2,0,0.3,0.1,0.4,0.2
		c0.2,0.1,0.4,0.2,0.6,0.2c0.1,0,0.2,0,0.2,0.2c0,0,0.1,0.1,0.1,0.1c0.3,0.3,0.3,0.3,0.3,0.6c0,0.3,0.1,0.6,0.4,0.7
		c0.1,0,0,0.2,0.1,0.2c0.1-0.3,0.3-0.3,0.4-0.1c0.1,0.2,0.3,0.4,0.4,0.7c0,0.1,0.3,0.2,0.3,0.4c0,0.1-0.2,0.3-0.2,0.4
		c0.1,0.2-0.1,0.3-0.1,0.5c0,0.2,0.1,0.4,0.2,0.5c0.2,0.2,0.2,0.4,0.1,0.6c0,0.1,0,0.2,0,0.3c0.2,0.2,0.2,0.4,0,0.6
		c-0.3,0.3-0.1,0.6-0.1,1c0,0.1,0.1,0.2,0.2,0.2c0.2,0.1,0.2,0.4,0.1,0.5c-0.1,0.2,0,0.3,0.1,0.4c0.1,0.2,0.2,0.4,0.2,0.7
		c0,0.2,0.1,0.5-0.2,0.6c-0.1,0.1,0,0.1,0,0.2c0.1,0.1,0.2,0.2,0,0.4c-0.1,0.1-0.1,0.2,0.1,0.3c0.1,0.1,0.1,0.3,0.3,0.4
		c0.2,0.1,0.2,0.3,0,0.4c-0.1,0.1-0.1,0.2,0,0.3c0.4,0.4,0.5,1,0.5,1.6c0,0.1-0.1,0.2,0,0.3c0.1,0.1,0.3,0.2,0.4,0.4
		c0.1,0.3,0.4,0.2,0.6,0.2c0.2,0.1,0.2,0,0.4-0.2c0.1-0.1,0.1-0.1,0.2-0.2c0,0,0-0.1,0-0.1c0,0,0,0,0,0c-0.1-0.1-0.1-0.3-0.3-0.4
		c0.4-0.2,0.4-0.6,0.5-1c0.1-0.5,0-0.5,0.2-0.8c0.1-0.1,0.2-0.3,0-0.4c-0.1-0.2,0.2-0.3,0.1-0.5c0.1-0.1,0.1-0.2,0.1-0.4
		c0-0.3,0-0.6,0.3-0.7c0,0,0.1-0.1,0.1-0.1c-0.1-0.5,0.3-0.8,0.2-1.3c0-0.1,0.1-0.2,0.1-0.2c0.1-0.1,0.3-0.2,0.3-0.4
		c0-0.3,0.2-0.5,0.1-0.7c-0.1-0.3,0.2-0.5,0.1-0.7c0,0,0-0.1,0-0.1c0.2,0,0.3-0.2,0.4-0.3c-0.2-0.2,0.1-0.3,0.1-0.4
		c0.1-0.2,0.1-0.4,0.2-0.4c0.2-0.1,0.1-0.3,0.2-0.5c0.1-0.1,0.2-0.3,0.2-0.5c0-0.2,0.4-0.1,0.2-0.4c0.2-0.2,0.1-0.4-0.1-0.5
		c0.2-0.2,0.5-0.4,0.4-0.7c0-0.2,0.1-0.3,0.3-0.3c0.2,0,0.3-0.1,0.3-0.2c0-0.2,0.2-0.3,0.3-0.5c0.2-0.2,0.2-0.2,0.3-0.7
		c0.1-0.4,0.1-0.4,0.3-0.6c0.1-0.1,0.1-0.2,0-0.3c-0.1-0.1,0.1-0.3,0.3-0.2c0.1,0.1,0.2,0.1,0.3,0c0.2-0.1,0.3-0.2,0.5-0.4
		c-0.4-0.4,0.1-0.4,0.3-0.5c0.2-0.2,0-0.3,0.1-0.5c0.1,0,0.1,0,0.2,0c0.3,0.1,0.5-0.1,0.6-0.3c0.1-0.2,0.2-0.4,0.5-0.4
		c0.2-0.1,0.4-0.3,0.6-0.5c0.2-0.2,0.1-0.2,0.6-0.2c0,0,0.1,0,0.1,0c0.2-0.3,0.6-0.2,0.9-0.2c0.2-0.3,0.6-0.2,0.9-0.5
		c0.1-0.1,0.3-0.1,0.6-0.1c0.2,0,0.3-0.2,0.5-0.1c0.1,0,0.3,0.1,0.4,0c0.1-0.1,0.3,0,0.4,0.1c0,0,0.1,0,0.1,0c0.1,0,0.2-0.3,0.2-0.2
		c0.2,0.1,0.2,0,0.3-0.1c0.3-0.1,0.5-0.2,0.9,0.1c0.2,0.1,0.4,0.4,0.7,0.2c0.2,0.3,0.5,0.3,0.9,0.3c0.1,0,0.1,0.1,0.2,0.1
		c0.2,0.2,0.4,0.3,0.6,0.2c0.2,0,0.3,0.2,0.5,0.1c0.1,0,0.3-0.1,0.4,0c0.3-0.1,0.5,0.2,0.8,0.2c0.3,0.4,0.6,0.2,1,0.2
		c0.2,0,0.4,0,0.4,0.2c0,0.3,0.1,0,0.2,0c0.1,0,0.3-0.1,0.3,0.2c0,0.1,0.1,0.2,0.3,0.2c0.2-0.1,0.1,0.3,0.3,0.2c0.2,0,0.3,0,0.5,0
		c0.1,0,0.2,0.1,0.3,0.2c0.2,0.1,0.3,0.4,0.5,0.3c0.1,0,0.1,0.1,0.1,0.2c0,0.1,0.1,0.2,0.1,0.3c0,0.1,0.1,0.1,0.2,0.1
		c0.3-0.3,0.5,0,0.6,0.1c0.2,0.3,0.4,0.3,0.6,0.3C97,26,97,26,97,26c-0.1,0.4,0.3,0.2,0.5,0.3c0,0,0,0.1,0,0.1
		c0,0.2-0.1,0.4,0.1,0.4c0.3,0,0.2,0.4,0.4,0.4c0.2,0,0.3,0.2,0.2,0.3c-0.1,0.3,0.1,0.4,0.3,0.6c0.2,0.1,0.2,0.2,0.1,0.4
		c-0.1,0.1-0.2,0.3,0,0.4c0.1,0,0.1,0.1,0.1,0.2c0,0.3,0,0.5,0.2,0.7c0.1,0.1,0,0.5,0.2,0.6c0,0,0,0.1,0,0.1
		c-0.2,0.1-0.4,0.2-0.2,0.5c0.1,0.2-0.1,0.4,0.2,0.5c0,0,0,0.1,0,0.1c-0.1,0.1-0.2,0.2-0.3,0.4c-0.1,0.2-0.1,0.2,0,0.3
		c0,0-0.1,0.1-0.1,0.1c-0.4,0.2-0.6,0.6-0.9,0.9c0,0-0.1,0.1-0.1,0.2c0,0.2,0.1,0.4-0.2,0.4c0,0,0,0.1,0,0.2c0,0.1-0.1,0.3-0.2,0.3
		c-0.2,0-0.3,0.1-0.4,0.3c-0.4,0-0.5,0.3-0.6,0.6c-0.1,0.1-0.1,0.2-0.2,0.1c-0.4-0.1-0.5-0.1-0.7,0.2c-0.1,0.1-0.2,0.3-0.3,0.4
		C95.1,36,95,36,95,36c-0.1-0.1-0.2-0.1-0.2,0.1c0,0.2,0,0.3-0.2,0.3c-0.3,0-0.4,0.1-0.6,0.3c-0.2,0.2-0.5,0.3-0.6,0.5
		c-0.2,0.1-0.2-0.1-0.3-0.1c-0.4-0.2-0.4-0.2-0.6,0.1c-0.2,0.2-0.3,0.2-0.5,0c-0.1-0.2-0.3-0.2-0.5-0.2c-0.3,0-0.4-0.1-0.4-0.4
		c0-0.2-0.2-0.5,0-0.7c0-0.1,0-0.1-0.1-0.1c-0.1,0-0.2,0-0.1-0.1c0.1-0.3-0.2-0.5-0.1-0.8c0-0.2-0.3-0.3-0.3-0.6
		c-0.2-0.1-0.1-0.3-0.1-0.4c0-0.1,0-0.2,0.1-0.2c0.1,0,0.2-0.1,0.2-0.3c0-0.1,0-0.2,0.2-0.2c0.2,0,0.3-0.1,0.3-0.2
		c0.1-0.3,0.2-0.3,0.4-0.3c0.1,0,0.2,0,0.4,0c0.2,0,0.3-0.1,0.3-0.2c0-0.3,0.1-0.3,0.3-0.2c0.2,0,0.3,0,0.4-0.2
		c0-0.1,0.1-0.1,0.2-0.1c0.3,0.1,0.4-0.1,0.5-0.4c0-0.1,0.1-0.3,0.3-0.4c0.2,0,0.2-0.2,0.3-0.3c0.1-0.1,0.3,0.1,0.3-0.1
		c0-0.1-0.2-0.2-0.1-0.2c0.1-0.1,0.1-0.1,0-0.2c-0.2-0.1-0.2-0.4-0.5-0.5c0-0.3-0.2-0.4-0.3-0.6c-0.1-0.1-0.1-0.3-0.3-0.2
		c-0.2,0-0.5,0.1-0.6-0.3c0-0.1-0.2-0.2-0.3-0.2c-0.3,0-0.5-0.2-0.8-0.1c-0.1,0-0.2,0-0.2-0.1c0-0.3-0.3-0.1-0.4-0.2
		c-0.1-0.1-0.2-0.2-0.4-0.3c-0.3-0.1-0.3-0.1-0.3,0.2c0,0.1,0,0.1-0.1,0.2c-0.3,0.1-0.1,0.5-0.3,0.7c0.1,0.1,0.1,0.3,0,0.4
		c-0.2,0.1,0,0.3-0.1,0.4c-0.2,0.2-0.1,0.5,0.1,0.6c0.2,0.1,0.2,0.2,0.2,0.3c0,0.1-0.1,0.2-0.1,0.2c0.1,0.1,0.2,0.3,0.2,0.5
		c0,0.1-0.2,0.2-0.2,0.4c0,0.1,0,0.5,0,0.6c0.2,0.2,0.1,0.4,0,0.6c-0.1,0.2-0.2,0.4,0,0.6c0.1,0.1-0.1,0.2-0.1,0.2
		c0,0.1,0.1,0.1,0.1,0.3c0,0.2-0.1,0.5,0.1,0.6c0.1,0.1,0,0.1,0,0.1c0,0.1-0.2,0.2-0.1,0.3c0,0.1,0.1,0.2,0.1,0.2
		c0.1,0.1,0.1,0.3,0.1,0.4c0,0.3,0.1,0.6,0.3,0.8c0.1,0.1,0.1,0.2,0,0.3c-0.1,0.1-0.2,0.2-0.1,0.3c0.1,0.1-0.1,0.3,0.1,0.4
		c0.4,0.2,0.1,0.6,0.3,0.9c-0.2,0.2-0.2,0.4,0,0.5c0.1,0.2,0,0.4,0.1,0.5c0.1,0.1,0,0.1,0,0.2c-0.1,0.2-0.2,0.4,0.1,0.5
		c0,0.2,0.2,0.4,0.2,0.7c0,0.2,0,0.3,0.2,0.3c0.1,0,0.1,0.1,0.2,0.1c0.1,0.1,0.1,0.1,0.2,0c0.2-0.2,0.6-0.2,0.8-0.1
		c0.2,0,0.4,0.2,0.6-0.1c0,0,0.3,0.2,0.4,0.1c0.2-0.3,0.3,0.2,0.5,0c0.1-0.1,0.4-0.1,0.5-0.2c0.1,0,0.2,0,0.3-0.1
		c0.2-0.2,0.5-0.3,0.7-0.1c0.2,0.1,0.3,0.1,0.4-0.1c0.3-0.3,0.6-0.3,0.9-0.1c0.1,0.1,0.1,0,0.2,0c0.5-0.1,1-0.2,1.4-0.4
		c0.1,0,0.1,0,0.1,0c0.2,0.1,0.3,0.1,0.5,0c0.1-0.1,0.3,0,0.5,0c0.2,0,0.3,0,0.5-0.1c0.2-0.1,0.3-0.2,0.5,0c0.1,0.1,0.1,0,0.2,0
		c0.2-0.1,0.5-0.1,0.7,0c0,0,0.1,0.1,0.1,0.1c0.2,0.1,0-0.3,0.2-0.2c0.1,0.1,0.3,0.1,0.4,0c0.1-0.1,0.4,0.1,0.3-0.2
		c0,0,0.1-0.1,0.1,0c0.2,0.2,0.3,0.2,0.5,0c0.2,0.3,0.4,0.2,0.5-0.1c0,0,0.1,0,0.1,0c0.2,0.2,0.4,0.1,0.5,0c0.1-0.1,0.4-0.1,0.3-0.3
		c0.2-0.1,0.4-0.2,0.6-0.2c0.2,0,0.3-0.1,0.3-0.2c0-0.3,0.2-0.4,0.4-0.4c0.3,0.1,0.2-0.3,0.4-0.3c0.2,0,0.3-0.1,0.5-0.2
		c0.1,0,0.2-0.2,0.4-0.4c0.1-0.1,0.3-0.2,0.4-0.2c0.2-0.1,0.2-0.4,0.5-0.4c0.1,0,0-0.1,0-0.2c0-0.1,0-0.2,0.1-0.2
		c0.4,0,0.6-0.3,0.6-0.6c0-0.1,0.1-0.1,0.2-0.1c0.3,0,0.5-0.1,0.6-0.3c0.1-0.1,0.2-0.2,0.4-0.1c0.2,0,0.2,0,0.2-0.2
		c0-0.3,0.1-0.4,0.4-0.4c0.2,0,0.2-0.2,0.3-0.2c0.5-0.1,0.6-0.6,1-0.8c0.1,0,0.1-0.1,0.2-0.1c0.1,0,0.1-0.1,0.2-0.2
		c0.1-0.2,0.2-0.5,0.6-0.6c0.1,0,0.3-0.2,0.3-0.4c0,0,0,0,0-0.1c0.1-0.1,0.3-0.2,0.3-0.3c0.1-0.1,0-0.3,0.1-0.4
		c0.1-0.1,0.3-0.1,0.2-0.3c0,0,0-0.1,0.1-0.1c0.3,0.1,0.3-0.2,0.4-0.4c0.1-0.1,0.2-0.2,0.4-0.3c0.3-0.2,0.5-0.4,0.5-0.7
		c0-0.2,0.1-0.3,0.2-0.3c0.2-0.1,0.1-0.4,0.2-0.6c0.1-0.1,0-0.3,0.1-0.3c0.2,0,0.2-0.2,0.3-0.3c0.1-0.1,0.4-0.4,0.5-0.4
		c0.1,0,0.1,0,0.1-0.1c0-0.1,0-0.2,0-0.2c0-0.2,0.1-0.3,0.3-0.4c0.3-0.1,0.3-0.1,0.3-0.4c0-0.1,0-0.2,0-0.4c0.2,0,0.5,0,0.8,0
		c-0.1-0.1-0.2-0.2-0.2-0.2c-0.1-0.1-0.1-0.1-0.1-0.2c0-0.1,0.1-0.1,0.2-0.1c0.1,0,0.8,0.2,0.9,0.2c0.1,0,0.1,0,0.2,0
		c0.4-0.1,0.6,0.1,0.8,0.4c0.2,0.2,0.4,0.2,0.6,0.4c0.1,0,0.1,0,0.2,0c0.2,0.1,0.1,0.6,0.5,0.4c0.2,0.2,0.5,0.3,0.6,0.5
		c0.2,0.2,0.5,0.3,0.8,0.5c0.1,0.1,0.2,0.3,0.4,0.3c0.1,0,0.1,0.2,0.1,0.3c0,0.2,0,0.4,0.3,0.5c0.1,0.2,0.4,0.1,0.4,0.4
		c0,0.3,0.3,0.3,0.4,0.5c0,0.1,0.1,0.2,0.1,0.2c0.3,0,0.4,0.4,0.7,0.5c0.3,0.1,0.3,0.2,0.3,0.5c0,0,0,0.1,0,0.1
		c0.2,0,0.2,0.2,0.4,0.2c0.2,0.1-0.2,0.3,0.1,0.3c0.1,0,0.1,0.1,0.1,0.1c0,0.1,0.1,0.2,0.1,0.3c0.1,0.2,0.5,0.2,0.6,0.4
		c0.1,0.2,0.1,0.4,0.3,0.5c0.1,0,0.1,0.1,0.1,0.2c0,0.3,0.2,0.4,0.3,0.6c0.1,0.1,0.2,0.1,0.2,0.3c0,0.1,0.1,0.2,0.2,0.3
		c0.1,0,0.2,0,0.2,0.2c0,0.3,0.1,0.5,0.4,0.6c0.1,0,0.2,0.2,0.3,0.2c0.1,0.1,0.1,0.1,0,0.2c-0.2,0.2-0.1,0.3,0.1,0.3
		c0.1,0,0.1,0,0.1,0.1c0,0,0,0.1,0,0.1c0,0.6,0,0.6,0.3,1c0.2,0.2,0.3,0.4,0.1,0.7c0,0.1,0,0.2,0.1,0.2c0.2,0,0.3,0.2,0.3,0.4
		c0,0.1,0.1,0.1,0.1,0.1c0.2,0.2,0.3,0.5,0.3,0.8c-0.2,0.1,0,0.2,0.1,0.3c0.2,0.2,0.2,0.5,0.1,0.7c-0.2,0.2-0.1,0.4,0.1,0.5
		c0.2,0.1,0.3,0.3,0.2,0.5c0,0.2,0.1,0.3,0.1,0.4c0,0.2-0.1,0.2-0.1,0.4c0,0.3,0.1,0.6,0.2,0.9c0.1,0.2,0.1,0.5,0,0.7
		c-0.1,0.1,0,0.3-0.1,0.4c0,0.1,0.1,0.2,0.1,0.4c0,0.1-0.1,0.2-0.2,0.3c-0.1,0.1,0,0.2,0.1,0.2c0.2,0.1,0.2,0.3,0.1,0.5
		c-0.1,0.2-0.3,0.3-0.1,0.5c-0.3,0.3-0.1,0.5,0,0.7c0.1,0.2,0.1,0.4,0.1,0.6c-0.1,0.2,0.1,0.3,0,0.5c0,0.2,0,0.4-0.1,0.6
		c-0.1,0.1-0.1,0.2-0.2,0.3c-0.2,0.2-0.2,0.4-0.1,0.5c0.1,0.1,0,0.3,0.1,0.4c0.1,0.1-0.1,0.2-0.1,0.3c0.1,0.2-0.2,0.2-0.2,0.3
		c-0.1,0.2-0.1,0.4,0,0.6c0.1,0.2,0,0.3-0.1,0.3c-0.2,0.1-0.3,0.2-0.4,0.2c0,0.2,0,0.2,0.1,0.3c0.1,0.1,0.1,0.2,0,0.3
		c-0.2,0.2-0.3,0.4-0.3,0.6c0,0.1-0.1,0.2-0.1,0.3c-0.1,0.2-0.3,0.4-0.3,0.7c0,0-0.1,0.1-0.1,0.2c-0.1,0.1-0.1,0.2,0,0.3
		c0.2,0.2-0.1,0.5,0.2,0.7c0,0,0,0.1,0,0.2c-0.3,0.3-0.4,0.6-0.5,0.9c0,0.1-0.1,0.1-0.1,0.2c-0.1,0.2,0.3,0.4,0.1,0.7
		c-0.2,0.2,0,0.4-0.1,0.6c-0.1,0.2,0.2,0.3,0.1,0.4c-0.2,0.2,0,0.3,0,0.4c0,0.1,0,0.2,0,0.2c-0.3,0.2-0.2,0.4-0.3,0.7
		c-0.1,0.3-0.2,0.5,0,0.7c0.1,0.1-0.2,0.2-0.1,0.3c0.1,0.1,0.2,0.2,0.2,0.3c0,0.1,0,0.2,0,0.3c0,0-0.1,0.1-0.1,0.1
		c0,0.2,0.2,0.3,0.1,0.6c-0.1,0.2,0,0.5,0,0.7c0,0.1,0,0.2-0.1,0.3c-0.2,0.2-0.1,0.4,0.1,0.6c0.2,0.2,0.2,0.3-0.1,0.3
		c-0.1,0-0.1,0.1-0.2,0.1c0.1,0.1,0.2,0.2,0.3,0.2c0.1,0,0.2,0.1,0.2,0.3c0,0.1-0.2,0.2-0.1,0.3c0.1,0.1,0.1,0.3,0,0.4
		c-0.1,0.1,0,0.2-0.2,0.3c0,0,0,0.1,0,0.1c0,0,0.1,0.1,0.1,0.1c0.1,0.1,0.3,0.2,0.2,0.3c-0.1,0.2,0,0.4-0.2,0.5
		c-0.2,0.2-0.4,0.4-0.2,0.6c0.2,0.3,0,0.3-0.1,0.5c-0.1,0.1-0.2,0.1-0.2,0.2c0,0.3-0.3,0.3-0.4,0.4c0,0-0.2,0-0.2-0.1
		c0-0.1-0.1-0.2-0.2-0.2c-0.1,0-0.2,0.1-0.3,0.1c-0.1,0.3-0.3,0.3-0.6,0.3c-0.1,0-0.1,0.1-0.2,0.2c-0.2,0.2-0.5,0.3-0.8,0.3
		c-0.2,0-0.4-0.1-0.5-0.2c-0.1-0.2-0.4-0.2-0.5-0.1c-0.2,0.2-0.3,0-0.3-0.1c-0.1-0.2-0.2-0.5-0.6-0.5c-0.1,0-0.3-0.1-0.1-0.4
		c0.1-0.2,0-0.5,0-0.7c0-0.1-0.1-0.2-0.3-0.3c-0.2,0-0.2-0.2-0.1-0.3c0.2-0.3,0.1-0.5,0-0.8c-0.1-0.3-0.1-0.4-0.1-0.7
		c0-0.2,0.1-0.4-0.1-0.5c0,0,0-0.2,0-0.2c0.2-0.1,0-0.2,0-0.3c-0.1-0.2-0.1-0.3-0.1-0.5c0-0.2,0.1-0.3,0-0.5c-0.1-0.1,0-0.3-0.1-0.5
		c-0.1-0.1,0.1-0.2,0.1-0.3c0.1-0.1,0.1-0.2,0-0.2c-0.1-0.1-0.3-0.3-0.1-0.5c-0.3-0.1,0.1-0.3-0.1-0.4c-0.2-0.2,0-0.3,0.1-0.5
		c0.1-0.2-0.1-0.3,0-0.5c0.1-0.2,0-0.4,0.1-0.5c-0.4-0.3,0.3-0.7-0.1-1.1c0,0,0-0.1,0-0.1c0.4-0.2,0.2-0.6,0.2-0.9
		c-0.2-0.1-0.1-0.2,0-0.3c0.1-0.2,0.1-0.3,0.1-0.5c0-0.4,0-0.7,0-1.1c0-0.1,0.1-0.2,0.1-0.3c0.2-0.4,0.4-0.8,0.3-1.2
		c0-0.2,0.2-0.3,0.1-0.6c0-0.2,0-0.3,0.2-0.5c0.1-0.1,0.1-0.1,0.1-0.2c0-0.3,0.2-0.6,0.1-0.9c0,0,0-0.1,0-0.1
		c0.3-0.1,0.2-0.3,0.1-0.5c0-0.1,0-0.1,0-0.2c0.2-0.3,0.1-0.6,0.4-0.9c0.1,0,0-0.1,0-0.2c0-0.2,0-0.4,0.2-0.6c0,0,0-0.1,0-0.2
		c0-0.1,0-0.2-0.1-0.1c-0.1,0.1-0.2,0.1-0.2,0c-0.4-0.2-0.8-0.1-1.2-0.2c-0.1,0-0.1-0.1-0.2-0.2c0-0.1-0.2-0.1-0.2,0
		c0,0.1-0.1,0.2-0.1,0.2c0,0.2-0.1,0.2-0.2,0.3c-0.1,0.1,0,0.3,0,0.4c0,0.1-0.1,0.1-0.1,0.2c-0.3,0.2-0.3,0.2-0.2,0.6
		c0,0.1,0,0.1-0.1,0.2c-0.1,0.1-0.2,0.2-0.3,0.2c-0.2,0.1-0.1,0.1-0.1,0.2c0,0.2-0.1,0.4,0,0.6c-0.2,0.2-0.1,0.5-0.1,0.7
		c0,0.1-0.1,0.1-0.1,0.2c-0.4,0.3-0.4,0.4-0.3,0.9c0,0.2,0,0.3,0,0.5c0,0.2-0.2,0.3,0,0.5c0.1,0.1,0,0.3,0.1,0.4
		c0.1,0.1,0,0.2,0,0.3c0,0.2,0,0.3,0.2,0.4c0,0,0.1,0.1,0.1,0.1c-0.3,0.3,0.1,0.6,0,1c-0.1,0.2,0,0.4,0.1,0.7
		c0.1,0.2,0.2,0.4-0.1,0.6c-0.1,0.1-0.1,0.3,0,0.4c0.2,0.2,0.2,0.5,0.3,0.8c0.1,0.2,0,0.3-0.1,0.5c-0.1,0.1-0.1,0.2,0,0.3
		c0.1,0.2,0.3,0.3,0.1,0.6c-0.1,0.1,0,0.3,0.3,0.4c0.1,0,0.2,0,0.2,0.1c0,0.1-0.1,0.1-0.1,0.1c-0.1,0-0.2,0.1-0.2,0.2
		c0.1,0.2,0.3,0.2,0.3,0.3c0,0.1-0.1,0.3-0.2,0.4c-0.1,0.1-0.1,0.2,0,0.2c0.3,0.1,0.1,0.2,0,0.3c0,0-0.1,0.1-0.1,0.1
		c0.1,0.1,0.2,0.2,0.3,0.3c0.1,0,0.1,0.1,0,0.2c-0.2,0.2,0,0.3,0,0.4c0,0.2-0.1,0.4,0.1,0.5c0,0,0,0.1,0,0.1c-0.2,0.2,0,0.5-0.2,0.7
		c-0.1,0.1,0,0.2,0.1,0.3c0.3,0.3,0.3,0.5,0.1,0.9c-0.2,0.3-0.1,0.6-0.1,0.8c0,0.1,0.2,0.2,0.1,0.3c-0.1,0.1-0.2,0.2-0.1,0.3
		c0,0.2-0.1,0.2-0.1,0.4c0,0.1,0.1,0.3,0.2,0.3c0.1,0.1,0,0.1,0,0.2c0,0.2-0.1,0.4,0,0.5c0.2,0.3,0.1,0.4-0.1,0.6
		c-0.1,0-0.1,0.1,0,0.2c0.1,0.2,0.2,0.5,0,0.7c0.2,0.2,0.2,0.5,0,0.7c0,0,0,0.1,0,0.1c0,0.1,0.2,0.1,0.2,0.3c-0.1,0.1-0.1,0.2,0,0.2
		c0,0,0.1,0.1,0,0.1c-0.1,0.1-0.3,0.2-0.1,0.4c0.1,0.1-0.2,0.2,0,0.4c0.1,0,0,0.1,0,0.2c-0.1,0.1-0.1,0.2,0,0.3
		c0.1,0.2,0.1,0.3,0,0.5c0,0,0,0.1,0,0.1c-0.1,0.2,0.2,0.2,0.1,0.4c-0.1,0.1-0.2,0.3-0.1,0.4c0.1,0.2,0,0.5,0,0.7c0,0.2,0,0.5,0,0.7
		c0,0.3,0.1,0.5,0,0.8c0,0.2,0,0.3-0.1,0.5c-0.1,0.2,0.2,0.4,0.1,0.6c-0.1,0.1-0.3,0.2-0.4,0.3c-0.1,0.1-0.2,0.2-0.1,0.4
		c0.1,0.2,0,0.4-0.2,0.5c-0.2,0.3-0.3,0.3-0.5,0c-0.1-0.2-0.3-0.2-0.5-0.1c0,0,0,0,0,0.1c0,0.2-0.1,0.1-0.2,0.1
		c-0.1,0-0.3,0-0.4,0.1c-0.2,0.2-0.2,0.2-0.5,0c-0.1-0.1-0.2-0.2-0.3-0.3c-0.1-0.1-0.2-0.1-0.3,0c-0.1,0,0,0.4-0.2,0.2
		c-0.2-0.1-0.2,0-0.3,0c-0.2,0-0.3,0.1-0.4-0.1c-0.1-0.1-0.2-0.2-0.3-0.2c-0.2,0-0.2-0.2-0.3-0.3c-0.1-0.1-0.3-0.2-0.1-0.4
		c0,0-0.1-0.2-0.2-0.3c-0.1-0.1-0.2-0.1-0.2-0.3c0-0.1-0.1-0.2-0.1-0.3c0-0.1,0.1-0.2,0.1-0.3c0-0.3-0.1-0.6,0.2-0.8
		c0.1,0,0-0.1-0.1-0.2c-0.2-0.1-0.3-0.3-0.1-0.5c0.1-0.1,0.1-0.1,0-0.2c-0.1-0.1-0.1-0.1-0.1-0.2c0.3-0.3,0-0.5-0.1-0.8
		c0-0.1-0.1-0.2,0.1-0.2c0.2,0,0.1-0.2,0.1-0.3c-0.2-0.2-0.1-0.4,0-0.6c0-0.1,0-0.2,0-0.3c0-0.1,0-0.3,0-0.4c0.2-0.3,0.1-0.5,0-0.7
		c-0.1-0.1-0.1-0.2,0-0.3c0.1-0.1,0.1-0.5,0-0.7c0-0.1,0-0.2,0-0.4c0-0.1,0.1-0.2,0.1-0.2c-0.1-0.1-0.1-0.2,0-0.3
		c0.1-0.1,0-0.2,0-0.2c-0.1-0.1-0.1-0.2,0-0.2c0.2-0.1,0.1-0.3,0.1-0.4c-0.2-0.5-0.2-0.5,0-1c0-0.1,0.2-0.2,0-0.3c0,0-0.1-0.2,0-0.2
		c0.2-0.2,0.1-0.5,0.1-0.8c0-0.2-0.1-0.5,0.2-0.6c0,0,0-0.2,0-0.3c-0.1-0.1-0.2-0.2-0.2-0.3c0,0-0.1-0.1-0.1-0.1
		c-0.3,0.2-0.5,0-0.7,0c-0.1,0-0.2,0.1-0.3,0.2c-0.1,0.1-0.2,0.2-0.4,0.1c-0.1-0.1-0.1,0-0.2,0c-0.1,0.1-0.2,0.1-0.2,0
		c-0.2-0.3-0.4-0.2-0.6-0.2c-0.1,0-0.2,0-0.3-0.1c-0.1-0.1-0.2-0.1-0.3,0c-0.3,0.2-0.7,0.3-1,0.1c-0.1,0-0.1,0-0.2,0.1
		c-0.1,0.1-0.2,0.1-0.3,0c-0.3-0.1-0.5-0.1-0.8,0c-0.2,0.1-0.4,0.3-0.6,0c0-0.1-0.1,0-0.1,0c-0.3,0.1-0.6,0-0.9-0.1
		c-0.4-0.2-0.5-0.2-0.7,0c-0.2,0.1-0.3,0-0.5,0.1c-0.1,0-0.3,0.2-0.4,0c-0.1-0.1-0.2-0.1-0.3-0.1c-0.3,0.2-0.5,0.1-0.7-0.1
		c0,0-0.1,0-0.2-0.1c-0.1-0.1-0.1,0-0.1,0.1c0,0,0,0.1-0.1,0.1c-0.3-0.2-0.5,0-0.7,0.1c-0.3,0.2-0.3,0.2-0.6,0
		c-0.1-0.1-0.2-0.2-0.4-0.1c0,0-0.2,0-0.3,0c-0.1-0.1-0.3-0.1-0.4,0c-0.2,0.2-0.5,0.2-0.6,0.1c-0.2-0.1-0.4-0.1-0.6-0.1
		c-0.3,0-0.5-0.1-0.8,0c-0.1,0-0.2,0-0.2-0.1c-0.1-0.2-0.4-0.1-0.4,0c-0.1,0.2-0.4,0-0.5,0.2c0,0-0.1,0-0.2,0
		c-0.1-0.2-0.4,0-0.5-0.2c-0.1,0.1-0.3,0.1-0.4,0.1c-0.2,0-0.3,0-0.4-0.1c0,0-0.2-0.1-0.2-0.1c-0.1,0.1-0.2,0.1-0.2,0.1
		c-0.1,0.1-0.2,0.1-0.3,0c-0.1-0.1-0.2,0.1-0.3,0.1c-0.1-0.1-0.3-0.1-0.4-0.1c-0.1,0-0.2,0-0.4,0c-0.1,0-0.1,0-0.1,0.1
		c-0.1,0.3-0.3,0.4-0.6,0.4c-0.3,0-0.3,0.3-0.4,0.4c-0.1,0.1,0,0.3-0.3,0.3c-0.2,0.3-0.7,0.3-0.7,0.7c0,0.1-0.1,0.1-0.2,0.1
		c-0.1,0.2-0.5,0.1-0.4,0.4c0,0.1-0.1,0.1-0.1,0.1c-0.4,0-0.6,0.2-0.7,0.6c-0.1,0.2-0.2,0.4-0.4,0.4c-0.4,0-0.6,0.2-0.8,0.5
		c0,0,0,0.1-0.1,0.2c-0.1,0.2-0.4,0-0.5,0.3c-0.1,0.2-0.1,0.3-0.2,0.4c-0.1,0.1-0.3-0.1-0.3,0.1c0,0.3-0.1,0.3-0.3,0.3
		c-0.1,0-0.3,0-0.3,0.2C91.6,69.4,91.6,69.5,91.6,69.6z M89.3,58.5c0.2-0.2,0.2-0.3,0.3-0.4c0.1-0.2,0.3-0.2,0.5,0c0,0,0.1,0,0.2,0
		c0.1,0.2,0.2,0,0.3,0c0.2-0.2,0.3-0.3,0.6-0.2c0.2,0,0.4,0.1,0.5,0c0.2-0.3,0.5-0.2,0.7-0.3c0.1-0.1,0.3-0.2,0.4-0.1
		c0.2,0.1,0.3-0.3,0.5-0.1c0.2,0.1,0.2-0.2,0.3-0.2c0,0,0,0,0.1,0c0.3,0.2,0.5,0,0.7-0.2c0,0,0.1-0.1,0.1-0.1c0.2,0.2,0.5-0.1,0.7,0
		c0.1,0,0.2,0,0.3-0.1c0.3-0.3,0.6-0.2,0.9-0.1c0.1,0,0.1,0,0.2,0c0.4-0.2,1-0.1,1.3-0.5c0.1-0.1,0.1-0.1,0.2,0c0.3,0,0.5-0.2,0.8,0
		c0.2-0.2,0.5,0,0.8-0.2c0.1,0,0.1,0,0.1,0c0.2,0.3,0.5,0.1,0.7,0c0.4-0.3,0.8-0.4,1.3-0.6c0.1-0.1,0.3-0.2,0.4-0.1
		c0.3,0.2,0.5,0.1,0.6-0.1c0,0,0.1,0,0.1,0c0.2,0,0.4,0,0.4-0.1c0.3-0.3,0.6-0.2,1-0.1c0.1,0,0.1,0.1,0.2,0c0.2-0.1,0.4-0.2,0.5-0.3
		c0.2-0.1,0.3-0.3,0.5-0.1c0.1-0.1,0.2-0.2,0.3-0.3c0.2-0.2,0.4-0.2,0.6-0.1c0,0,0.1,0.1,0.1,0.1c0.2-0.2,0.6,0,0.8-0.4
		c0.1-0.1,0.2-0.1,0.3,0c0.1,0.1,0.3,0.2,0.3,0.1c0.1-0.2,0.4-0.1,0.6-0.3c0.2-0.2,0.4-0.2,0.6-0.1c0.1,0.1,0.1,0.1,0.2,0
		c0.3-0.3,0.6-0.2,0.9-0.2c0.1,0,0.1,0,0.2,0c0.2-0.1,0.5-0.1,0.5-0.3c0.1-0.5,0.3,0.1,0.5-0.1c0,0,0,0,0,0c0.2-0.3,0.5-0.2,0.6-0.1
		c0.2,0.1,0.3,0.2,0.3-0.1c0.1,0,0.2-0.2,0.4-0.1c0.1,0.1,0.2,0,0.2,0c0-0.1,0-0.2,0.1-0.2c0.1,0,0.3,0,0.4,0c0.1,0,0-0.3,0.3-0.2
		c0.1-0.2,0.4-0.1,0.5-0.2c0.1-0.2,0.2-0.1,0.4-0.1c0.2,0.1,0.5,0.2,0.7-0.1c0.1-0.1,0.2-0.1,0.3-0.1c0.1,0,0.3,0.1,0.3,0
		c0.1-0.2,0.2,0.1,0.3,0.1c0.5,0,0.6-0.1,0.5-0.6c0-0.2,0-0.3,0-0.5c0,0,0-0.1-0.1-0.1c-0.1,0-0.3,0-0.4-0.1c0.2-0.3-0.2-0.7,0-1
		c0-0.1,0-0.1-0.1-0.1c-0.1-0.1-0.2-0.1-0.2-0.2c0-0.2-0.1-0.3-0.3-0.4c-0.2-0.1-0.2-0.3-0.3-0.5c0,0-0.1,0-0.1-0.1
		c-0.3-0.1-0.6,0.1-0.9,0.2c-0.2,0.1-0.3,0.3-0.2,0.5c0,0.2,0,0.2-0.2,0.2c-0.1,0-0.1,0-0.2,0c-0.4,0.1-0.6,0.5-0.8,0.9
		c-0.2,0.4-0.5,0.5-0.9,0.5c-0.2,0-0.4,0-0.4,0.3c0,0.1-0.2,0.3-0.4,0.1c-0.1-0.1-0.2,0-0.3,0c-0.3,0.1-0.3,0-0.4-0.2
		c0-0.1,0.1-0.3-0.1-0.3c-0.1,0-0.2,0-0.3,0.1c-0.1-0.1-0.3-0.1-0.4-0.1c-0.1,0-0.2-0.1-0.2-0.3c0-0.2-0.1-0.2-0.2-0.3
		c-0.3-0.1-0.3-0.2-0.2-0.5c0-0.2-0.1-0.4-0.2-0.6c-0.1-0.2-0.3-0.3-0.4-0.5c0.2-0.2,0.3-0.4,0.6-0.5c0.1,0,0.2-0.1,0.2-0.3
		c0-0.3,0.2-0.4,0.4-0.6c0.1-0.1-0.2-0.2,0-0.3c0.2-0.1,0.3-0.2,0.4-0.3c0.1-0.1,0.2-0.3,0.4-0.3c0.2,0,0.1-0.3,0.3-0.4
		c0.1,0,0.1-0.1,0.3-0.1c0.1,0,0.2,0,0.2-0.1c0.1-0.2,0.3-0.2,0.4-0.4c0.1-0.2,0.2-0.3,0.3-0.4c0.2-0.2,0.3-0.6,0.6-0.7
		c0.1-0.2,0.2-0.4,0.4-0.6c0.1-0.1-0.2-0.1,0-0.3c0.1-0.1,0-0.2,0-0.3c0-0.1-0.1-0.1-0.1,0c-0.1,0.1-0.2,0.1-0.3,0
		c-0.1,0,0-0.2-0.1-0.3c-0.1-0.2,0-0.6-0.4-0.5c0,0-0.1-0.1,0-0.1c0.2-0.2-0.1-0.4,0.1-0.7c0.1-0.1-0.1-0.1-0.1-0.1
		c-0.1,0-0.1,0.2-0.2,0.1c0-0.1,0-0.2,0-0.3c0-0.2,0-0.4,0-0.6c0-0.1,0-0.3,0.1-0.3c0.2-0.1,0.4-0.2,0.4-0.5c0-0.1,0.1-0.1,0.2-0.1
		c0.2,0,0.3,0,0.5,0c0.1,0,0.1,0,0.2-0.1c0.2-0.3,0.3-0.3,0.5-0.1c0.2,0.2,0.3,0.3,0.5,0.3c0.1,0,0.3-0.1,0.4,0.1
		c0,0.2-0.2,0.2-0.2,0.3c0,0.2-0.2,0.2-0.2,0.4c0.1,0,0.2,0,0.3,0c0.3-0.1,0.3-0.1,0.3,0.1c0,0.2,0.1,0.4,0.2,0.6
		c0.1-0.1-0.1-0.4,0.1-0.5c0.3-0.1,0.5-0.3,0.6-0.6c0.1-0.1,0.2-0.1,0.3-0.1c0.3,0,0.3-0.1,0.4-0.4c0.1-0.5,0.2-1.1,0.7-1.3
		c0.1,0,0.1-0.1,0.1-0.2c0.1-0.4,0.2-0.8,0.5-1c0.1-0.1,0.2-0.3,0.2-0.5c0-0.2,0.1-0.3,0.2-0.3c0.1,0,0.2-0.1,0.2-0.2
		c0-0.1,0-0.3-0.1-0.4c-0.1-0.2-0.1-0.5-0.2-0.8c-0.2,0-0.2-0.2-0.2-0.3c0-0.1-0.3-0.2-0.3-0.4c-0.1,0.1,0,0.3-0.2,0.5
		c-0.3,0.2-0.3,0.3-0.5,0.6c0,0.1,0,0.1-0.1,0.1c-0.3-0.1-0.4,0.3-0.6,0.3c-0.2,0-0.2,0.2-0.3,0.3c-0.1,0.3-0.3,0.6-0.6,0.7
		c-0.2,0.1-0.3,0.2-0.4,0.4c0,0,0,0.2,0,0.2c-0.3,0-0.3,0.3-0.4,0.4c-0.1,0.2-0.1,0.2-0.3,0.2c-0.2,0-0.3,0-0.4,0.2
		c-0.1,0.2-0.3,0.2-0.3,0.4c0,0.1-0.2,0.1-0.3,0.3c-0.4-0.1-0.5,0.3-0.7,0.4c-0.1,0.1-0.2,0.3-0.2,0.4c-0.1,0.2-0.3,0-0.5,0.1
		c-0.1,0.1-0.2,0.2-0.3,0.2c-0.1,0-0.1,0.1-0.2,0c-0.1-0.1-0.2-0.1-0.2,0.1c-0.1,0.1-0.1,0.4-0.3,0.4c-0.2,0-0.2,0.3-0.3,0.4
		c0,0-0.1,0-0.2,0c-0.2,0-0.3,0-0.4,0.2c-0.1,0.2-0.2,0.2-0.5,0.3c-0.3,0.1-0.6,0.1-0.8,0.3c-0.2,0.2-0.4,0.3-0.6,0.5
		c-0.3,0.2-0.5,0.4-0.9,0.5c-0.2,0.1-0.3,0.1-0.4,0.2c-0.1,0.2-0.4,0-0.5,0.2c-0.1,0.3-0.4,0.4-0.6,0.6c-0.1,0.1-0.1,0.1-0.1,0.2
		c0,0.2,0,0.3-0.2,0.2c-0.3,0-0.5,0-0.5,0.4c0,0.1-0.1,0.2-0.1,0.2c-0.2,0-0.3,0.2-0.4,0.4c-0.1,0.1-0.4,0-0.5,0.1
		c-0.1,0.1-0.2,0.1-0.3,0.2c-0.3,0.2-0.6,0.4-0.9,0.3c-0.2-0.1-0.3,0.2-0.6,0.3c0.1-0.3,0.2-0.6,0.1-0.9c-0.1,0.1-0.3-0.1-0.5,0.1
		c0,0-0.1,0-0.2,0c-0.1-0.1,0.1-0.1,0.1-0.2c-0.1-0.1-0.2-0.3-0.4-0.3c-0.2,0-0.2,0-0.1-0.2c0,0,0-0.1,0-0.2c-0.1-0.1-0.1,0-0.1,0.1
		c-0.1,0-0.2,0-0.2-0.1c0.1-0.3-0.1-0.5-0.3-0.6c0,0-0.1-0.1-0.1-0.1c-0.1-0.1-0.1-0.2,0-0.2c0.2-0.1,0.2-0.3,0.3-0.5
		c-0.1,0-0.2,0-0.3,0c-0.2,0-0.4,0.1-0.3-0.3c0-0.1-0.4-0.2-0.4-0.2c-0.1,0.1-0.2,0.1-0.3,0.1c-0.5,0-0.9,0.2-1.3,0.3
		c-0.2,0.1-0.4,0.3-0.6,0c0-0.1-0.1,0-0.2,0.1c-0.2,0.2-0.6,0.1-0.8,0.4c-0.1-0.1-0.1,0-0.2,0c-0.1-0.2-0.2-0.1-0.4,0
		c-0.2,0.2-0.4,0.3-0.6,0.1c-0.1-0.1-0.3-0.1-0.4,0c-0.1,0.1-0.2,0.2-0.4,0.1c-0.2,0.2-0.5,0-0.7,0.1c-0.3,0.1-0.5,0.1-0.7,0
		c-0.1,0-0.1,0.1-0.1,0.1c-0.3,0-0.4,0.3-0.7,0.3c-0.3,0-0.6,0.3-0.9,0c0,0-0.1,0-0.1,0c-0.2,0.1-0.4,0.1-0.6,0.2
		c-0.1,0-0.1,0.1-0.2,0.1c-0.4-0.2-0.8,0-1.2,0.1c-0.1,0-0.2,0.1-0.3,0.1c-0.2,0-0.4,0-0.6,0.2c-0.1,0.1-0.2,0.1-0.3,0
		c-0.1-0.1-0.3,0-0.4-0.1c0,0-0.1,0-0.2,0c-0.1,0.1-0.3,0.1-0.4,0.2c0,0-0.1,0.1-0.1,0.1c-0.2-0.2-0.5,0.2-0.7-0.1
		c-0.1-0.1-0.1,0-0.1,0c-0.1,0.1-0.3,0.2-0.4,0.3c-0.3,0.3-0.3,0.3-0.7,0c0,0-0.1,0.1-0.1,0.1c-0.2,0.2-0.3,0.4-0.6,0.1
		c0,0-0.1,0-0.1,0c-0.2,0.1-0.3,0.1-0.4-0.1c-0.1,0.1-0.2,0.2-0.3,0.3c-0.1,0-0.1-0.1-0.1-0.1c-0.1,0-0.2,0-0.2,0
		c0,0.3-0.3,0.5-0.3,0.9c0,0.2,0,0.4,0.2,0.5c0,0,0.1,0,0.1,0.1c-0.1,0.2,0,0.4,0.2,0.5c0,0,0.1,0,0.1,0.1c-0.1,0.3,0.2,0.5,0.1,0.7
		c0,0.1,0,0.2,0.1,0.3c0.2,0.2,0.3,0.6,0.6,0.7c0.1,0.1-0.1,0.2,0,0.3c0.2,0.2,0.2,0.4,0.3,0.6c0.3,0.3,0.3,0.8,0.6,1.1
		c0.1,0.1,0.2,0.2,0.1,0.3c0,0.1,0.1,0.2,0.1,0.2c0.2,0.1,0.2,0.1,0.2,0.3c0,0.2,0,0.4,0.1,0.5c0.2,0.1,0.2,0.3,0.3,0.4
		c0.1,0.1,0,0.3,0.2,0.3c0.1,0.2,0.1,0.4,0.3,0.6c-0.2,0.2,0,0.3,0.1,0.4c0.1,0.1,0.1,0.3,0.1,0.5c0,0-0.1,0.1,0,0.1
		c0.3,0,0.3,0.4,0.5,0.5c0,0,0,0,0,0.1c-0.2,0.2,0.1,0.3,0.1,0.4c0,0,0,0.1,0.1,0c0.2-0.2,0.4,0.1,0.6,0.1c-0.2,0.3-0.2,0.3,0.1,0.4
		c0,0,0.1,0.1,0.1,0.1c0.1,0.3,0.3,0.4,0.5,0.5c0.1,0.1,0.2,0.4,0.5,0.1c0-0.1,0.1,0,0.2,0.1C89.1,58.2,89.2,58.3,89.3,58.5z
		 M84.8,68.6c0.3,0,0.5,0,0.6-0.2c0-0.1,0.1-0.1,0.2-0.1c0.3,0.1,0.4-0.1,0.5-0.3c0.1-0.2,0.3-0.3,0.4-0.5c0.1-0.2,0.3-0.4,0.6-0.4
		c0.2,0,0.5-0.1,0.6-0.5c0-0.1,0.1-0.2,0.3-0.2c0.2,0.1,0.4-0.1,0.5-0.3c0.1-0.1,0.1-0.2,0.3-0.2c0.4,0,0.8-0.2,1-0.7
		c0-0.1,0.1-0.2,0.1-0.3c0-0.1,0.1-0.2,0.2-0.2c0.5,0,0.7-0.5,1-0.8c0,0,0-0.1,0.1-0.1c0.5,0,0.7-0.7,1.2-0.7c0,0,0-0.1,0.1-0.1
		c0-0.3,0.2-0.3,0.5-0.3c0.1,0,0.2,0,0.1-0.1c0-0.1,0-0.2-0.1-0.2c-0.3-0.2-0.6,0-0.8,0.1c-0.4,0.2-0.8,0.2-1.2,0.3
		c-0.3,0.1-0.6,0.2-1,0.1c-0.1,0-0.2,0.1-0.2,0.2c-0.2,0.2-0.3,0.2-0.5,0.1c-0.3-0.1-0.3-0.1-0.4,0.1c0,0.1-0.1,0.2-0.2,0.2
		c-0.6-0.1-1.1,0.2-1.7,0.1c-0.2,0-0.3,0-0.4,0.2c-0.2,0.2-0.4,0.2-0.6,0.1c-0.4-0.1-0.7-0.4-1.1-0.3c-0.1,0-0.1-0.1-0.1-0.2
		c0-0.1,0-0.2,0.1-0.3c-0.1,0-0.2-0.1-0.2-0.1c0.1-0.2-0.3-0.5,0-0.7c0,0,0-0.1,0-0.1c-0.3,0-0.2-0.3-0.3-0.3
		c-0.2-0.1,0-0.3-0.1-0.5c-0.1-0.1-0.1-0.2,0-0.3c0.1-0.1,0-0.1-0.1-0.1c-0.2-0.1-0.3-0.3-0.2-0.6c-0.3-0.3-0.3-0.6-0.5-0.9
		c-0.1-0.2-0.2-0.4-0.2-0.6c0-0.2-0.1-0.4-0.4-0.4c-0.1,0-0.2-0.2-0.2-0.3c-0.1-0.2-0.3-0.4-0.3-0.6c0-0.3-0.2-0.5-0.4-0.6
		c-0.1-0.1-0.1-0.2-0.2-0.4c0-0.1-0.3-0.1-0.3-0.3c0,0-0.1-0.1-0.1-0.1c0.3-0.2,0-0.4,0-0.6c0-0.2,0-0.4-0.3-0.4
		c-0.1,0-0.2-0.3-0.1-0.3c0.2-0.2,0-0.3,0-0.5c-0.1-0.5-0.3-0.7-0.7-0.7c-0.2,0-0.3-0.1-0.2-0.3c0.1-0.2,0-0.2,0-0.3
		c0-0.2-0.1-0.2-0.2-0.2c-0.1,0-0.3-0.1-0.4-0.2c0.3-0.2,0.2-0.7,0.7-0.9c-0.3-0.1-0.4-0.5-0.7-0.6c0.1-0.1-0.2-0.2-0.1-0.3
		c0.1-0.2,0.1-0.3-0.1-0.3c-0.2,0-0.3-0.1-0.3-0.3c0-0.1,0-0.2-0.1-0.2c-0.2,0-0.2-0.2-0.3-0.2c-0.1,0-0.3-0.1-0.4-0.1
		c-0.1-0.1-0.3,0-0.4,0c-0.2,0-0.3,0.1-0.4,0.2c-0.2,0.1-0.2-0.2-0.3,0c-0.1,0.1-0.3,0.2-0.3,0.4c-0.1,0.3-0.1,0.3-0.4,0.2
		c-0.1,0-0.1-0.1-0.2,0c-0.1,0.1-0.2,0.2-0.3,0c0-0.1,0-0.2-0.1-0.2c0,0-0.1,0.1-0.2,0.1c-0.2-0.2-0.2-0.2-0.4,0
		c-0.1,0.1-0.2,0.2-0.3,0c-0.1,0.1-0.2,0.2-0.2,0.3c0,0-0.1,0-0.1,0c-0.2,0-0.4,0-0.5,0c-0.2,0-0.3,0-0.4,0.2
		c-0.1,0.1-0.1,0.1-0.2,0.1c-0.2-0.2-0.3,0-0.4,0c-0.1,0.1-0.2,0.3-0.4,0.2c-0.2-0.1-0.3-0.3-0.5,0c0,0-0.2,0-0.3,0
		c-0.1,0-0.3-0.1-0.3,0.1c0,0.1,0,0.2-0.1,0.1c-0.3-0.1-0.5,0.1-0.6,0.3c-0.1,0.1-0.2,0.1-0.2,0.3c0,0.1,0,0.2-0.1,0.3
		c-0.1,0.2,0.1,0.6,0.2,0.6c0.4-0.1,0.5,0.5,0.9,0.4c0,0,0,0.1,0,0.1c0,0.2,0.1,0.2,0.2,0.3c0.2,0.2,0.5,0.3,0.6,0.7
		c0,0.1,0.3-0.2,0.2,0.1c0,0.2,0.1,0.3,0.3,0.4c0.1,0.1,0.4,0.1,0.4,0.2c0.1,0.3,0.3,0,0.5,0.1c0.1,0.1,0.3,0.1,0.4,0.1
		c0.2,0,0,0.3,0.2,0.4c0.1,0,0.1,0.1,0.1,0.1c0.2,0,0.2,0.2,0.3,0.2c0.2,0.2,0.4,0.4,0.7,0.4c0,0,0.1,0.1,0.1,0.1
		c0.1,0.2,0.3,0.3,0.5,0.3c0.3-0.1,0.5,0.1,0.5,0.3c0,0.4,0.3,0.4,0.6,0.5c0.2,0,0.3,0,0.4,0.3c0.1,0.2,0.1,0.4,0.4,0.3
		c0.1,0.2,0.4,0.2,0.5,0.4c0.2,0.3,0.5,0.5,0.8,0.5c0.2,0,0.3,0.1,0.3,0.2c0,0.1,0,0.2,0.1,0.3c0.2,0.1,0.3,0.3,0.3,0.5
		c0,0.1,0.1,0.2,0.2,0.2c0.4,0.1,0.5,0.4,0.6,0.7c0.1,0.2,0.1,0.2,0.3,0.3c0.1,0,0.2,0.1,0.2,0.2c0,0.3,0.3,0.4,0.3,0.7
		c0,0.3,0.5,0.5,0.4,0.8c0,0,0,0,0,0c0.3,0.1,0.2,0.3,0.3,0.5c0.1,0.2,0.1,0.5,0.3,0.6c0.1,0.1,0.2,0.2,0.1,0.4c0,0.2,0,0.3,0.2,0.4
		c0.2,0.1,0.2,0.4,0.5,0.5c0,0,0,0.2,0,0.3c0.1,0.2,0.2,0.5,0.4,0.7c0.2,0.2,0.5,0.3,0.5,0.7c0,0,0.1,0.1,0.1,0.1
		c0.2,0,0.2,0.2,0.2,0.3c0,0.2,0,0.4,0.3,0.4c0.2,0,0.2,0.2,0.2,0.4C84.8,68.4,84.8,68.5,84.8,68.6z M60.6,41
		c-0.2-0.2-0.4-0.5-0.8-0.5c-0.1,0-0.1-0.1-0.1-0.1c0-0.1,0-0.1,0.1-0.1c0,0,0,0,0.1,0c0.2-0.1,0.2-0.1,0.1-0.3
		c0-0.1-0.1-0.3,0.1-0.3c0.1,0,0.2-0.1,0.3-0.2c0.1-0.1-0.1-0.2-0.2-0.3c0,0-0.1-0.1,0-0.1c0.1-0.2,0-0.4,0.1-0.6
		c0-0.1,0-0.2,0.1-0.3c0.2-0.1,0.2-0.3,0-0.5c0,0-0.1,0,0-0.1c0.2-0.3,0.1-0.5,0.1-0.8c0-0.3,0.1-0.5,0.1-0.8c0-0.2-0.2-0.4-0.1-0.5
		c0.1-0.2,0-0.3,0-0.4c0-0.2,0.1-0.4,0-0.5c-0.1-0.1-0.1-0.1,0-0.1c0.1,0,0.2-0.1,0.3-0.1c0.1,0,0.1-0.1,0.1-0.2
		c0-0.1-0.1-0.1,0-0.3c0.1-0.1,0-0.3,0-0.4c0-0.4-0.2-0.6-0.6-0.8c-0.1-0.1-0.2,0.1-0.2,0c-0.5-0.3-1-0.4-1.5-0.6
		c-0.2,0-0.4,0.1-0.5-0.1c-0.2-0.3-0.2,0.1-0.3,0.1c0,0-0.1,0-0.1,0C57.1,32,57,32.1,57,32.5c0,0.3,0,0.6-0.3,0.7
		c-0.1,0-0.1,0.1-0.1,0.2c0,0.2-0.1,0.4-0.1,0.6c0,0.2-0.2,0.4,0,0.6c0,0,0,0.1,0,0.1c-0.1,0.1-0.1,0.2-0.2,0.3
		c-0.1,0.1,0.2,0.2,0.1,0.4c0,0,0,0.1,0,0.1c-0.3,0.3-0.2,0.7-0.4,0.9c-0.1,0.1-0.1,0.2,0,0.3c0.1,0.1,0.1,0.1,0,0.2
		c-0.1,0.2-0.3,0.3-0.2,0.5c0.1,0.1,0,0.3,0,0.5c0,0.2,0.1,0.5-0.1,0.7c0,0,0,0.1,0,0.2c0.3,0.3,0.2,0.6,0.2,0.9
		c-0.1,0.7-0.2,0.7,0.2,1.3c0,0.1,0.1,0.1,0,0.2c-0.1,0.1-0.1,0.3-0.1,0.3c0.2,0.2,0.1,0.3,0,0.4c-0.1,0-0.1,0.1,0,0.2
		c0.2,0.3,0.4,0.7,0.3,1.1c0,0,0,0.1,0,0.1c0.3,0.1,0.1,0.4,0.2,0.5c0.2,0.3,0,0.6,0.1,0.8c0.1,0.2,0,0.3,0,0.4c0,0.3,0,0.5,0.1,0.8
		c0,0,0.1,0,0.1,0.1c0.4,0.3,0.5,0.5,0.3,1c-0.1,0.3,0.1,0.5,0.1,0.7c0.3,0,0.2,0.2,0.2,0.4c0,0.3,0,0.5,0.1,0.8
		c0.1,0.3,0.2,0.7,0.4,1c0.1,0.2,0.1,0.3,0.1,0.5c0,0.2,0.4,0.1,0.3,0.4c-0.1,0.1,0.1,0.2,0.1,0.3c0.1,0.2,0.3,0.4,0.4,0.6
		c0.1,0.2,0.3,0.3,0.5,0.4c0.2,0.1,0.4,0.1,0.4,0c0.1-0.3,0.3-0.1,0.4-0.2c0.2-0.1,0.5-0.1,0.5-0.4c0-0.1,0.2-0.3,0.4-0.1
		c0.1,0.1,0.1,0,0.1-0.1c0,0,0-0.1,0.1-0.1c0.2,0.2,0.3,0,0.4-0.2c0.2-0.5,0.4-0.9,0.6-1.4c0.1-0.1,0.1-0.2,0-0.3
		c-0.1-0.2-0.3-0.4,0-0.7c0,0,0-0.1,0-0.2c0-0.1-0.2,0-0.2-0.1c0-0.1,0.1-0.1,0.1-0.3c0-0.1,0-0.1-0.1-0.1c-0.2-0.2-0.3-0.3-0.3-0.5
		c0-0.1,0-0.1-0.1-0.2c-0.3,0-0.2-0.3-0.1-0.4c0.2-0.2,0.1-0.4-0.1-0.5c-0.2-0.2-0.3-0.3-0.1-0.5c0.1-0.1,0-0.2,0-0.3
		c-0.1-0.2-0.1-0.6-0.4-0.7c-0.1,0-0.1-0.1-0.1-0.2c0-0.1,0-0.3-0.1-0.4c-0.2-0.1-0.1-0.2,0-0.3c0.2-0.1,0.2-0.3,0-0.4
		c-0.1-0.1-0.2-0.3-0.1-0.4c0.2-0.2-0.1-0.3,0-0.5c0.2-0.3-0.1-0.3-0.1-0.4c0-0.1-0.1-0.1,0-0.2c0.2-0.2,0-0.5-0.1-0.6
		C60.2,41.3,60.4,41.2,60.6,41z M66.1,39.9c0-0.2-0.1-0.3-0.2-0.3c-0.3,0-0.2-0.2-0.1-0.3c0.1-0.2,0.1-0.4,0-0.6
		c-0.1-0.2-0.1-0.3-0.1-0.4c-0.1-0.4-0.2-0.8-0.2-1.2c-0.2-0.1,0-0.2,0-0.3c0-0.1-0.1-0.2-0.2-0.3c-0.1-0.1,0-0.1,0-0.2
		c0.1-0.1,0.1-0.1,0-0.3c-0.2-0.2-0.2-0.4,0-0.6c0.1-0.1,0.2-0.1,0.1-0.2c0-0.1,0-0.2-0.1-0.2c-0.2,0-0.3-0.1-0.4-0.1
		c-0.2,0-0.1,0.2-0.1,0.2c-0.2,0-0.2,0.2-0.4,0.2c-0.4,0.1-0.7,0.1-0.8,0.6c0,0-0.1,0-0.1,0c-0.4,0.3-0.6,0.8-0.5,1.3
		c0,0.1,0,0.1,0,0.1c0,0.2-0.2,0.3-0.3,0.4c-0.1,0.1-0.2,0.3,0,0.4c0.1,0.1,0.1,0.2,0,0.2c-0.2,0.1-0.2,0.3-0.3,0.5
		c-0.1,0.2-0.1,0.4,0,0.6c0.1,0.1,0.1,0.1,0,0.2c-0.1,0-0.1,0.1-0.2,0.2c-0.2,0.1,0.1,0.3-0.1,0.5c0,0,0,0.1,0.1,0.2
		c0.3,0.2,0.4,0.6,0.7,0.9c0.1,0.1,0.3-0.1,0.4,0.1c0.2-0.1,0.5-0.1,0.7-0.1c0.1,0,0.1,0,0.2,0c0.2-0.2,0.3-0.4,0.6-0.1
		c0,0,0.1,0,0.2,0c0.1-0.3,0.3-0.2,0.5-0.1c0.1,0,0.2,0.2,0.3,0c0.1-0.1,0.2-0.1,0.3-0.1c0.1,0,0.2,0,0.4,0c0.1,0,0.1,0,0.1-0.1
		c0-0.2-0.1-0.4-0.2-0.6C65.9,40.2,66,40,66.1,39.9z M81,32c0,0-0.1,0.1-0.1,0.1c-0.1,0-0.3,0-0.1,0.2c0,0,0,0.1,0,0.2
		c-0.1,0.1-0.2,0.2-0.3,0.3c-0.2,0.1-0.4,0.2-0.3,0.4c0.1,0.4-0.3,0.6-0.3,1c-0.4,0.3-0.4,0.9-0.6,1.2c-0.1,0.1-0.1,0.2,0,0.3
		c0.2,0.2,0,0.3-0.1,0.4c-0.1,0.1-0.2,0.2-0.2,0.4c0,0.2,0,0.4-0.2,0.5c-0.2,0.1-0.3,0.3-0.2,0.6c0.1,0.2-0.1,0.6-0.2,0.8
		c-0.1,0.2,0.1,0.2,0.1,0.3c-0.3,0.6-0.3,0.7-0.3,1.1c0,0.2,0,0.3-0.1,0.4c0.1,0.3-0.3,0.5-0.1,0.8c0.1,0,0.3-0.1,0.4,0.1
		c0.1,0.1,0.2,0,0.3,0c0.1,0,0.2,0,0.2,0c0.1,0,0.1-0.1,0.2,0c0.1,0.1,0.2,0,0.2-0.1c0.2-0.2,0.3-0.2,0.4,0c0.1,0.2,0.3,0,0.4,0.2
		c0.1,0.1,0.1-0.1,0.2-0.2c0.1,0,0.3,0,0.2-0.1c-0.2-0.2,0-0.3,0-0.5c-0.1-0.3,0-0.5,0.1-0.6c0.1-0.2,0.2-0.3,0-0.5
		c-0.1-0.2-0.1-0.4,0.1-0.5c0.2-0.2,0.2-0.4,0-0.6c-0.1-0.1-0.2-0.2,0-0.3c-0.2-0.1,0-0.5-0.2-0.6c-0.1-0.1-0.1-0.3,0.1-0.4
		c0.1,0,0.1-0.1,0.2-0.1c0.1,0,0.1-0.1,0-0.2c-0.3-0.3-0.3-0.5-0.1-0.8c0,0,0-0.1,0-0.1c-0.1-0.1-0.1,0-0.1,0.1c-0.1,0-0.2,0-0.2,0
		c0,0,0-0.1,0-0.2c0.1-0.1,0.1-0.1,0.2-0.2c0.2-0.2,0.1-0.4,0.2-0.6c-0.3-0.2,0.2-0.6-0.1-0.8c0.3-0.3,0-0.8,0.3-1.1
		c0.1-0.1,0.1-0.1,0-0.2C81,32.4,81.2,32.2,81,32z"/>
	<path d="M44.6,0c0.4,0.3,0.7,0.7,1.1,0.9C45.8,1,45.9,1.1,46,1.2c0.5,0.3,0.5,0.3,0.7,0.8c0,0.1,0,0.1,0.1,0.2
		C47.4,2.9,47.4,3,47.1,4c0,0.2,0.1,0.5,0.2,0.5c0.3,0.1,0.2,0.2,0.1,0.4c-0.1,0.2-0.1,0.3,0,0.4c0.2,0.5,0.3,0.5,0.1,0.8
		c-0.1,0.2,0,0.4-0.2,0.5c-0.1,0.1-0.2,0.3-0.2,0.5c0,0.2-0.1,0.2-0.2,0.3c-0.2,0-0.4,0.1-0.5,0.3c0,0.1-0.1,0.1-0.1,0.1
		c-0.4-0.1-0.5,0.4-0.9,0.4c-0.2,0-0.3-0.3-0.5,0c-0.1,0.1-0.3,0.1-0.4,0.3c-0.1,0.1-0.3,0.1-0.3,0.3c0,0.1-0.1,0.2-0.2,0.2
		c-0.1,0-0.1,0.1-0.1,0.1c0.2,0.2,0,0.5,0.2,0.7c0.1,0.1,0.2,0.2,0,0.3c0.1,0.4-0.4,0.7,0,1.1c-0.2,0.2-0.1,0.4-0.1,0.7
		c0,0.2,0,0.3,0.2,0.5c0.1,0.1,0.1,0.3,0,0.4c-0.2,0.3,0.2,0.5,0.1,0.7c-0.1,0.2-0.1,0.4-0.1,0.7c0.3,0.2-0.1,0.4,0.1,0.6
		c0.1,0.1-0.1,0.1-0.1,0.1C44,14.9,43.9,15,44,15.3c0.1,0.2,0,0.5,0.2,0.8c0,0,0,0.1,0,0.1c-0.2,0.2-0.2,0.5,0,0.7c0,0,0,0.2,0,0.2
		c-0.1,0.4-0.1,0.4,0,0.9c0,0.1,0,0.2-0.1,0.2c-0.2,0.1-0.1,0.3-0.1,0.5c0.1,0.2,0.1,0.4,0.1,0.6c-0.1,0.3,0.1,0.6,0.1,1
		c0,0.2,0.4,0.2,0.3,0.4c-0.1,0.2,0,0.3-0.1,0.5c0,0.1,0,0.1,0.1,0.1c0.3,0.1,0.3,0.1,0.1,0.3c-0.2,0.3-0.3,0.5-0.2,0.9
		c0,0.2-0.1,0.3-0.2,0.3c-0.2,0-0.3,0-0.4,0.3c0,0.1-0.1,0.1-0.2,0.1c-0.1,0-0.2,0-0.3,0.1c-0.1,0.2-0.2,0.1-0.3,0
		c-0.2,0-0.4,0.1-0.5,0.3c0,0.1-0.1,0.2-0.2,0.2c-0.2,0.1-0.5-0.2-0.6,0.2c-0.2,0-0.4,0.1-0.6,0.3c-0.2,0.1-0.2-0.2-0.4-0.1
		c-0.1,0.1-0.1,0.2-0.2,0.3c0,0-0.1,0-0.1,0c-0.1-0.2-0.2,0-0.3,0c-0.1,0.1-0.2,0.2-0.2,0.1c-0.1-0.1-0.2-0.1-0.3-0.1
		c-0.3,0.2-0.6,0.1-0.9,0.2c-0.1,0.1-0.2,0.1-0.2,0.2c0,0,0,0.1,0,0.1c-0.1,0.1-0.4-0.1-0.4,0.1c0,0.3-0.3,0.1-0.4,0.2
		c-0.1,0.1-0.3,0-0.4,0.1c-0.1,0-0.3-0.1-0.4,0.1c0,0.2-0.3,0-0.4,0.2c-0.1,0.1-0.3,0.2-0.5,0.2c-0.3-0.1-0.5,0.1-0.7,0.3
		c-0.1,0.1-0.3,0.2-0.5,0.2c-0.3,0-0.5,0.2-0.7,0.1c-0.1,0-0.1,0.1-0.1,0.2c-0.1,0.1-0.3,0.1-0.4,0.1c-0.1-0.1-0.2-0.1-0.3,0
		c-0.1,0.2-0.3,0.2-0.5,0.2c-0.2,0-0.3,0.2-0.5,0c-0.1-0.1-0.2,0-0.2,0.1c-0.1,0.2-0.2,0.4-0.5,0.4c0,0-0.1,0-0.1,0
		c-0.2,0.3-0.4,0.3-0.7,0.2c-0.1,0-0.2,0-0.2,0.1c-0.2,0.3-0.4,0.3-0.7,0.3c-0.2,0-0.3,0.1-0.4,0.3c0,0.1-0.2,0.2-0.3,0.1
		c-0.1-0.1-0.2,0-0.3-0.1c-0.1-0.1-0.2-0.1-0.3,0c0,0-0.1,0.1-0.1,0.1c-0.3,0.3-0.7,0.6-1.2,0.5c-0.1,0-0.2,0-0.2,0
		c-0.4,0-0.4,0.1-0.2,0.4c0,0.1,0.1,0.1,0,0.2c-0.1,0.1-0.2,0.3-0.1,0.4c0.1,0.1,0,0.2,0.1,0.4c0.1,0.3-0.1,0.6,0,0.8
		c-0.3,0.1,0.1,0.3-0.1,0.4c0.1,0.1,0.1,0.3,0,0.4c0.2,0.1,0,0.3,0,0.4c0,0.1,0,0.2,0,0.2c0.2,0.4,0.2,0.9,0,1.4
		c0,0.1,0.1,0.1,0.1,0.2c0,0.1,0,0.3,0,0.4c-0.3,0.2-0.1,0.4,0,0.6c0,0.1,0.1,0.2,0.2,0.2c0.1,0.1,0.1,0.2,0,0.3
		c-0.2,0.1-0.3,0.3-0.3,0.6c0,0.2,0,0.4-0.3,0.5c-0.1,0-0.1,0.2-0.2,0.3c-0.1,0.2-0.1,0.1-0.2,0.1c-0.2,0-0.3,0.2-0.5,0
		c0,0-0.1,0-0.1,0.1c-0.1,0.1-0.2,0.3-0.4,0.1c0,0-0.2,0.1-0.3-0.1c-0.1-0.2-0.2,0.1-0.3,0c-0.1-0.1-0.2-0.2-0.2,0
		c0,0.1-0.1,0.1-0.2,0.1c-0.1-0.1-0.3-0.1-0.4-0.1c-0.2,0-0.3-0.1-0.4-0.2c-0.1-0.2-0.2-0.1-0.4-0.1c-0.2,0.1-0.3-0.1-0.2-0.3
		c0.1-0.2,0.1-0.3-0.1-0.3c-0.1,0-0.3-0.1-0.3-0.2c0-0.1,0.1-0.3,0.2-0.4c-0.1-0.1-0.2-0.2-0.3-0.3c-0.1-0.1-0.1-0.2,0-0.2
		c0.1-0.1,0.1-0.3,0-0.4c-0.1-0.1-0.1-0.2,0-0.3c0.1-0.1,0-0.3,0-0.5c0-0.1-0.1-0.1-0.2-0.2c-0.1-0.1,0-0.1,0-0.2
		c0.1-0.2,0.3-0.4,0.3-0.6c0-0.2,0-0.4,0-0.6c0-0.2,0.1-0.4-0.1-0.5c0.2-0.2,0.1-0.4,0.1-0.6c0-0.1,0-0.3-0.2-0.2
		c-0.1-0.3-0.2-0.3-0.4-0.1c-0.1,0.1-0.2,0-0.3,0.1c-0.3,0.1-0.3,0.1-0.5,0.2C21,31.7,21,32,20.7,31.8c-0.1-0.1-0.2,0.2-0.3,0.2
		c-0.2,0-0.3-0.1-0.4,0.2c0,0.1-0.3,0-0.4,0.2c-0.1,0.2-0.2,0-0.2,0c-0.1,0,0,0.2-0.1,0.2c-0.1,0.1-0.2,0.1-0.3,0
		c-0.1-0.1-0.3-0.2-0.3,0.1c0,0.2-0.2,0.3-0.4,0.2c-0.5-0.3-0.8,0.1-1,0.4c-0.1,0.1-0.1,0.1-0.2,0.1c-0.1,0-0.2,0-0.4-0.1
		c0,0.1-0.1,0.2-0.2,0.3c-0.2,0.1-0.2,0.1-0.6,0.2c-0.2,0-0.4,0-0.5,0.2c-0.1,0.2-0.3,0.2-0.5,0.2c-0.2,0-0.4,0.2-0.7,0.1
		c0,0,0,0,0,0c0.1,0.2-0.2,0.1-0.3,0.3c0,0.2-0.1,0.2-0.4,0.1c-0.4-0.1-0.4-0.1-0.6,0.2c-0.2,0.3-0.2,0.3-0.8,0.3
		c-0.2,0-0.2,0.1-0.3,0.2c-0.1,0.2-0.2,0.4-0.4,0.1c-0.2,0.1-0.6,0-0.8,0.3c-0.1,0.2-0.3,0.2-0.5,0.2c-0.1,0-0.3-0.1-0.3,0.2
		c0,0.1-0.1,0.1-0.2,0.1c-0.1,0-0.2,0-0.3,0.2c-0.1,0.2-0.4,0.2-0.6,0.3c-0.2,0.1-0.5,0-0.6,0.2c0,0.1-0.2,0-0.3,0
		c-0.2,0-0.2,0.3-0.3,0.3c-0.1,0.1-0.3-0.1-0.4,0.1c-0.2,0.3-0.6,0.3-0.9,0.4C6.1,38,6,38,6,38.1c0,0.1-0.2,0.3-0.4,0.1
		c-0.1-0.1-0.1-0.1-0.2,0.1c-0.3,0.4-0.3,0.4-0.7,0.4c-0.1,0-0.2,0-0.3,0.1c-0.3,0.3-0.8,0.3-1.1,0.5c-0.1,0-0.1,0-0.2-0.1
		c0-0.2-0.2-0.3-0.4-0.2c-0.2,0-0.2-0.2-0.3-0.3c-0.1-0.1-0.2-0.2,0-0.4c0.1-0.1,0-0.2-0.1-0.2C2,38,1.9,38,1.9,37.7
		c0-0.2-0.1-0.4-0.3-0.4c-0.2,0-0.4-0.2-0.5-0.4c-0.1-0.2-0.2-0.2-0.3-0.2c-0.2-0.1-0.3-0.2-0.2-0.4c0-0.2-0.1-0.4-0.2-0.5
		c-0.1-0.1-0.2-0.3-0.2-0.3c0.3-0.4-0.1-0.7,0-1.1c0-0.1,0.1-0.2,0.1-0.2c0.2-0.1,0.1-0.3,0-0.4c-0.1-0.1-0.2-0.1-0.2-0.2
		c0,0,0.1-0.1,0.1-0.2c0,0,0-0.1,0-0.1c-0.2-0.4-0.1-0.6,0.2-0.8c0.1-0.1,0-0.1-0.1-0.2c-0.1-0.1-0.2-0.2-0.1-0.3
		c0.3-0.6,0.1-1.1-0.2-1.6C0,30.1,0,30,0.1,30c0.2-0.1,0.2-0.4,0.1-0.5c-0.2-0.3-0.1-0.5,0.1-0.7c0.1-0.1,0.1-0.2,0-0.4
		c-0.1-0.3-0.1-0.5,0-0.8c0-0.1,0-0.2,0.1-0.3c0.1-0.2-0.1-0.2-0.1-0.4c0-0.2,0.2-0.2,0.1-0.4c0-0.1-0.1-0.2-0.1-0.2
		c-0.2-0.1-0.1-0.2,0-0.3c0.1-0.1,0.2-0.2,0-0.3c-0.3-0.2-0.2-0.5-0.1-0.7c0.1-0.1,0.1-0.2,0-0.3c-0.2-0.2,0.2-0.4,0.1-0.6
		c-0.1-0.2-0.2-0.4,0-0.6c0.1-0.1,0.1-0.2,0-0.3c0,0-0.1-0.1,0-0.1c0.2-0.3,0.3-0.6,0-0.9c0,0,0-0.1,0.1-0.1c0.3-0.3,0.3-0.6,0-0.9
		C0.1,21.2,0.1,21,0.1,21c0.2-0.3,0-0.5,0-0.7c-0.1-0.3-0.1-0.3,0-0.6l-0.1-0.6c-0.2-0.2-0.1-0.5,0.1-0.7c0.1-0.1,0.1-0.2,0-0.3
		c-0.1-0.5,0-0.7,0.4-0.9c0.2-0.1,0.4,0.1,0.5-0.1c0.1-0.3,0.3,0,0.4-0.2c0-0.1,0.1-0.1,0.2-0.1c0.2,0,0.4,0,0.6-0.2
		c0.1-0.1,0.2-0.1,0.3-0.1c0.2,0,0.4,0,0.5-0.2c0.1-0.1,0.2-0.1,0.3-0.1c0.3,0,0.6-0.1,0.9-0.4c0.1-0.1,0.2-0.1,0.3-0.1
		c0.1,0,0.2,0,0.3-0.1c0.1-0.1,0.2-0.1,0.3,0c0.2,0.1,0.5,0.1,0.7-0.1C6,15.2,6.3,15,6.7,14.9c0.1,0,0.1-0.1,0.2-0.1
		c0.2-0.1,0.3-0.2,0.6-0.1c0.1,0,0.2-0.2,0.3,0c0,0,0.1-0.2,0.1-0.3c0.1-0.2,0.2-0.3,0.5-0.3C8.6,14.1,8.8,14,9,14
		c0.4,0,0.4,0,0.7-0.3c0.1-0.1,0.1-0.2,0.3,0c0,0,0.2,0.1,0.3-0.1c0-0.1,0.3-0.3,0.5-0.2c0.2,0.1,0.2,0.1,0.2-0.1
		c0-0.1,0.1-0.1,0.2-0.2c0.1-0.1,0.1,0,0.2,0c0.4,0.1,0.4,0,0.7-0.2c0.2-0.2,0.3-0.5,0.7-0.2c0.1,0.1,0.3,0.1,0.3,0
		c0.3-0.2,0.7-0.2,1-0.6c0.1-0.1,0.2-0.2,0.3,0c0.1-0.1,0.4,0,0.5-0.2c0.1-0.2,0.3-0.2,0.5-0.3c0.1-0.1,0.3,0,0.4,0
		c0.1,0,0.1-0.2,0.2-0.3C15.9,11,16,11,16,11c0.2,0.1,0.4-0.2,0.6,0c0.1,0.1,0.1-0.1,0.2-0.1c0.2-0.2,0.4-0.3,0.6-0.2
		c0.2,0,0.2-0.4,0.4-0.3c0.2,0.1,0.4-0.2,0.4-0.3c0.1-0.2,0.3-0.2,0.3-0.2c0.1,0.1,0.3,0.1,0.4,0.1c0.2,0,0.3-0.1,0.4-0.2
		c0-0.1,0.1-0.1,0.1-0.2c0-0.2,0.1-0.2,0.3-0.1c0.3,0.2,0.4,0.1,0.7-0.1c0.1-0.1,0.2-0.2,0.3-0.3c0-0.1,0.1-0.1,0.2,0
		c0.3,0.3,0.5,0,0.7-0.2c0.1-0.1,0.2-0.1,0.3-0.1c0.2,0.2,0.4,0,0.5-0.1c0.1-0.3,0.4-0.2,0.6-0.2c0.3,0,0.5,0,0.7-0.2
		C23.7,8.2,23.9,8.1,24,8c0.3-0.2,0.6-0.4,1-0.3c0.2,0,0.7-0.2,0.8-0.4c0.3-0.3,0.7-0.4,1-0.3C27,7.1,27,7.1,27.1,7
		c0.1-0.1,0.1-0.3,0.3-0.3c0.1,0,0.2-0.2,0.3,0c0,0,0.1,0,0.2,0c0.1-0.3,0.4-0.1,0.6-0.3C28.7,6,29,6,29.3,6.1c0.1,0,0.1,0.1,0.2,0
		c0.1-0.1,0.2-0.2,0.3-0.3c0.1-0.1,0.2-0.2,0.3-0.3c0.2,0.2,0.3-0.1,0.4-0.1c0.1,0,0.3,0,0.4-0.1c0,0,0.1,0,0.2,0.1
		c0.2,0.2,0.2,0.2,0.5,0c0.2-0.2,0.4-0.4,0.7-0.5c0.1,0,0.2-0.1,0.3-0.1c0.3,0,0.2,0,0.5-0.3c0.2-0.2,0.5-0.4,0.8-0.3
		c0.1,0,0.3,0,0.4-0.1c0.1-0.1,0.1-0.1,0.3-0.1c0.1,0,0.3,0,0.4-0.1c0-0.1,0.1-0.1,0.2-0.1c0.6,0,0.9-0.1,1.3-0.5
		c0.2-0.2,0.3-0.3,0.6-0.2c0.2,0,0.3,0,0.5-0.2c0.1-0.1,0.2-0.1,0.2,0c0.2,0.1,0.3,0.1,0.4-0.1c0.2-0.2,0.4-0.3,0.6-0.5
		c0.2-0.1,0.2-0.2,0.4,0c0,0,0.1,0,0.2,0c0-0.4,0.5-0.1,0.5-0.4c0,0,0,0,0,0c0.2-0.1,0.3,0.2,0.4,0c0.1-0.2,0.4,0,0.5-0.2
		c0,0,0,0,0.1,0c0.2,0.2,0.3,0,0.4-0.1c0.1-0.1-0.1-0.3,0.1-0.3c0.2,0,0.5-0.3,0.7-0.1c0.2,0.2,0.4,0.1,0.6-0.1
		c0.1-0.1,0.1-0.1,0.2-0.1c0.2,0.2,0.3,0,0.5-0.2c0.2-0.2,0.3-0.5,0.7-0.2c0,0,0.1,0,0.1-0.1C44.3,0.3,44.4,0.2,44.6,0z M39.6,10.7
		c0-0.1-0.2-0.2-0.3-0.2c-0.2,0.2-0.4,0.1-0.6,0.1c-0.1,0-0.1-0.1-0.2,0c-0.2,0.2-0.4,0.4-0.7,0.5c-0.2,0.1-0.4,0.1-0.5,0.2
		c-0.1,0.1-0.2,0.1-0.3,0c0,0-0.2,0-0.2,0.1c0,0.1-0.1,0.2-0.2,0.2c-0.3,0.2-0.8,0.2-1.1,0.5c-0.1,0.1-0.2,0-0.2,0
		c-0.3,0-0.6,0.3-0.9,0c0,0-0.1,0-0.1,0.1c-0.1,0.1-0.2,0.1-0.2,0.3c0,0.2-0.2,0.2-0.4,0.2c-0.2,0-0.4,0-0.5,0.2c0,0-0.1,0-0.1,0
		c-0.3-0.3-0.6,0.3-0.9-0.1c-0.3,0.1-0.6,0.1-0.8,0.4c-0.2,0.2-0.5,0.3-0.6,0.6c-0.1,0.2-0.3,0.2-0.5,0.2c-0.1,0-0.2-0.1-0.4-0.1
		c-0.2,0.1-0.6,0-0.6,0.4c0,0-0.1,0-0.1,0c-0.4,0-0.6,0.5-1,0.4c0,0-0.2,0.1-0.2,0.2c-0.1,0.3-0.3,0.3-0.6,0.3c-0.1,0-0.1-0.2-0.2,0
		c-0.2,0.3-0.5,0.2-0.8,0.2c-0.4,0-0.7,0-0.8,0.4c0,0.1-0.2,0.3-0.4,0.1c-0.1-0.1-0.2,0-0.2,0c0,0.3-0.2,0.1-0.3,0.2
		c-0.1,0.1-0.1,0.2-0.2,0.3c-0.1,0.1-0.2,0.1-0.3,0c-0.2-0.2-0.3-0.1-0.3,0.1c-0.1,0.2-0.2,0.3-0.4,0.3c-0.1,0-0.3-0.1-0.3,0.2
		c-0.2,0-0.3,0.2-0.5,0.2c-0.2-0.1-0.3-0.1-0.4,0.2c-0.1,0.3-0.3,0.2-0.4,0.1c-0.2-0.1-0.3-0.2-0.4,0.1c0,0.1-0.2,0.2-0.3,0.1
		c-0.2-0.1-0.3,0-0.5,0.1c-0.2,0.2-0.5,0.4-0.8,0.4c-0.1,0-0.2,0.2-0.3,0.1c-0.3-0.2-0.5-0.1-0.7,0.2c-0.1,0.1-0.3,0.2-0.4,0.1
		c-0.3-0.2-0.4,0-0.6,0.1c-0.2,0-0.2,0.3-0.5,0.3c-0.2,0-0.2,0.3-0.4,0.4c-0.2,0.1-0.2,0.2-0.5,0.1c-0.2-0.1-0.5-0.3-0.6,0.2
		c0,0.1-0.2,0.2-0.3,0.2c-0.2,0-0.3,0-0.4,0.2c-0.2,0.2-0.3,0.3-0.5,0c0-0.1-0.1,0-0.1,0c-0.2,0.1-0.4,0.1-0.5,0.3
		c-0.1,0.1-0.1,0.5-0.4,0.2c-0.1-0.1-0.1,0-0.2,0.1c-0.2,0.2-0.4,0.3-0.7,0.3c-0.1,0-0.3-0.1-0.3,0c-0.1,0.3-0.4,0.2-0.6,0.3
		c-0.1,0.1-0.4,0.2-0.6,0.3c-0.3,0.1-0.6,0.3-0.9,0.3c-0.2,0-0.3,0.2-0.5,0.3c-0.1,0.1,0,0.4-0.2,0.1c-0.1,0.1-0.2,0.3-0.4,0.2
		c-0.1,0-0.2,0.1-0.2,0.1c-0.2-0.2-0.4,0-0.5,0.1c-0.1,0-0.2,0.2-0.4,0.2c-0.1,0-0.2,0.1-0.2,0.2c0,0.2-0.2,0.2-0.3,0.2l-0.6,0.1
		c-0.3,0.1-0.6,0.3-0.9,0.3c-0.1,0-0.2,0.2-0.4,0.1c-0.2-0.1-0.4-0.1-0.4,0.2c-0.2,0-0.3,0.5-0.6,0.2c-0.1,0.1-0.3,0.1-0.4,0.1
		c-0.1,0,0,0.1,0,0.2c0,0.2,0.2,0.3,0.2,0.5c0,0.2-0.1,0.3-0.2,0.5c0,0,0,0,0,0.1C4.8,26,4.9,26.5,4.7,27c0.2,0.3,0,0.7,0.1,1
		c0.1,0.3,0,0.6-0.1,0.9c0,0.4-0.3,0.8,0,1.2c0,0,0,0.1,0,0.2c-0.2,0.2,0,0.4,0,0.5C5,31,5,31.4,4.9,31.6c-0.2,0.4,0,0.8,0.1,1.1
		c0,0.2,0,0.3-0.1,0.4c-0.1,0.1-0.3,0.2-0.2,0.4c0.1,0.1,0.3,0.1,0.4,0c0.1-0.1,0.2,0.1,0.3,0.1c0.1-0.1,0.2-0.2,0.2-0.3
		c0-0.1,0.1-0.1,0.2,0c0.2,0,0.3,0,0.4-0.2c0.1-0.1,0.3-0.3,0.5-0.3c0.3,0,0.5-0.2,0.7-0.4c0,0,0.1-0.2,0.2-0.1
		c0.1,0.1,0.3,0.1,0.3,0c0.1-0.3,0.5,0,0.5-0.3c0.2,0,0.4-0.2,0.6-0.3c0.1-0.1,0.4-0.1,0.5-0.2c0.2-0.2,0.3,0,0.4,0
		c0.2-0.1,0.3-0.2,0.4-0.3c0,0,0.1,0,0.1,0c0.1,0,0.2,0.1,0.2,0.1c0.1,0,0-0.2,0.1-0.2c0.1,0,0.1-0.1,0.2-0.1c0.2,0,0.3,0,0.4-0.2
		c0,0,0.1-0.1,0.1-0.1c0.3,0.1,0.6,0,0.9-0.2c0.2,0.1,0.2-0.2,0.3-0.2c0.2-0.1,0.4-0.1,0.5-0.3c0,0,0-0.1,0.1,0
		c0.3,0.2,0.5,0,0.6-0.2c0.1-0.2,0.3-0.3,0.5-0.2c0.3,0,0.6,0,0.7-0.3c0.1-0.2,0.2-0.1,0.3-0.1c0.2,0,0.3,0,0.4-0.1
		c0.1-0.1,0.1-0.1,0.2-0.1c0.2,0,0.3,0,0.5,0c0.1,0,0.2,0,0.2-0.1c0-0.3,0.3-0.3,0.5-0.3c0.4,0.1,0.7-0.1,0.9-0.4
		c0,0,0.1-0.1,0.1-0.1c0.1-0.2,0.4-0.1,0.5-0.2c0-0.1,0.2,0,0.3,0.1c0.3,0.1,0.4,0.1,0.6-0.3c0-0.1,0.1-0.2,0.2-0.2
		c0.1,0.1,0.2,0.1,0.3,0C20,27,20.2,27,20.4,27c0.1,0,0.3,0,0.4-0.1c0-0.1,0.1-0.1,0.2-0.1c0.2,0,0.4-0.1,0.5-0.2
		c0.1-0.2,0.2-0.1,0.3,0c0,0,0.1,0,0.2,0c0.2-0.2,0.5-0.2,0.6-0.3c0.1-0.1,0.3-0.4,0.5-0.1c0,0,0.1,0,0.2-0.1
		c0.1-0.3,0.6-0.2,0.8-0.5c0.1-0.1,0.1,0,0.1,0.1c0.1,0,0.2,0.1,0.2-0.1c0-0.1,0-0.1,0.1-0.1c0.3,0.1,0.5-0.1,0.8-0.1
		c0.3,0,0.7,0.1,0.8-0.3c0-0.1,0.1,0,0.2,0c0.2,0,0.3,0,0.4-0.2c0.1-0.2,0.3-0.2,0.5-0.2c0.3,0.1,0.4-0.4,0.7-0.1
		c0.1-0.1,0.2-0.2,0.3-0.4c0.1-0.2,0.2-0.2,0.4-0.1c0.1,0,0.3,0.1,0.3-0.1c0-0.1,0.1-0.1,0.2-0.1c0.2,0,0.3,0,0.5,0
		c0.1,0,0.2,0,0.2-0.1c0-0.3,0.2-0.3,0.4-0.3c0.2,0,0.4,0,0.6-0.2c0.1-0.2,0.2-0.2,0.4,0c0,0,0,0.1,0.2,0.1c0.1-0.1,0.2-0.2,0.3-0.3
		c0.1-0.1,0.3,0,0.5-0.1c0,0,0,0,0,0c0.1-0.3,0.4-0.3,0.6-0.4c0.2-0.1,0.3-0.1,0.4-0.1c0.2,0.1,0.3,0.1,0.3-0.1
		c0-0.1,0.1-0.2,0.2-0.2c0.2,0,0.4-0.1,0.4-0.2c0.1-0.3,0.3,0,0.4,0c0.1-0.1,0.1-0.3,0.2-0.2c0.2,0.1,0.2,0,0.3,0
		c0.5-0.4,1.2-0.5,1.8-0.7c0.3-0.1,0.5-0.1,0.7-0.3c0.1-0.1,0.3-0.1,0.4-0.1c0.2,0.2,0.3,0,0.4-0.1c0.1-0.1,0.5-0.3,0.6-0.2
		c0.1,0.1,0.2,0.1,0.3,0c0.1-0.1,0.1-0.2,0.2-0.2c0.4,0.1,0.3-0.2,0.3-0.4c0-0.1,0.1-0.3,0.1-0.4c0-0.3,0.2-0.6-0.1-0.9
		c-0.1-0.1-0.1-0.1,0-0.2c0.2-0.3,0.2-0.6,0-1c-0.1-0.3-0.1-0.5,0.1-0.7c0.1-0.2,0.1-0.3,0-0.5c-0.1-0.1-0.3-0.2-0.1-0.4
		c0.2-0.2-0.1-0.2-0.1-0.3c0-0.1,0-0.2,0-0.2c0.2-0.1,0.1-0.3,0.1-0.5c0-0.2,0-0.5,0-0.7c0-0.1,0-0.2,0-0.3c0.3-0.3,0.2-0.6,0.1-1
		c-0.1-0.2-0.1-0.4-0.2-0.5c-0.2-0.2,0.1-0.4,0.1-0.5c0,0,0,0,0-0.1C39.5,11.2,39.4,11,39.6,10.7z"/>
	<path d="M40.1,78.9c0.1-0.2,0.3-0.1,0.4-0.2c0.1,0,0.1-0.1,0.2,0c0.2,0.4,0.6,0.3,0.9,0.4c0.3,0.1,0.7,0,1,0.2c0.1,0,0.1,0,0.2-0.1
		c0.1-0.1,0.2-0.1,0.2,0.1c0,0.1,0.1,0.3,0.3,0.2c0.2,0,0.2,0.1,0.2,0.2c0.2,0.3,0.5,0.3,0.8,0.4c0.2,0.1,0.4,0.1,0.4,0.4
		c0,0.1,0,0.1,0.1,0.1c0.3,0,0.4,0.3,0.7,0.3c0.1,0.2,0.5,0,0.4,0.4c0,0.1,0.1,0.1,0.2,0.1c0.2,0,0.3,0,0.4,0.2c0,0,0,0.1,0,0.1
		c0.2,0,0.3,0.2,0.4,0.3c0.2,0.1,0.2,0.3,0.4,0.4c0.1,0.1,0.2,0.2,0.4,0.1c0.1-0.1,0.2,0.1,0.3,0.2c0.1,0.1,0.2,0.2,0.3,0
		c0.1-0.1,0.2,0,0.2,0.1c0.1,0.1,0.2,0.2,0.3,0.4c0.1,0.2,0.3,0,0.4,0.1c0.1,0.1,0.2,0.2,0.4,0.3c0.1,0,0.1,0,0.1,0.1
		c0,0.2,0.2,0.4,0.4,0.6c0.1,0.1,0.3,0.2,0.2,0.4c-0.1,0.2,0,0.6-0.4,0.7c-0.1,0-0.1,0.1-0.1,0.2c0.1,0.1,0.1,0.2,0,0.3
		c0,0-0.1,0.1-0.1,0.1c0.1,0.4-0.3,0.6-0.5,0.8c0.1,0.1,0.1,0.2,0.3,0.2c0.1,0,0.2,0,0.2,0.1c0,0.1,0,0.1-0.1,0.1
		c-0.2,0.1-0.4,0.4-0.7,0.3c0,0.2-0.3,0-0.3,0.3c-0.2,0.1-0.3,0.1-0.5,0.2c-0.1,0-0.1,0.1-0.1,0.2c0,0.1,0.2,0.1,0.1,0.2
		c-0.1,0-0.2,0-0.2,0c-0.1-0.1-0.2-0.2-0.3-0.2c0,0-0.2,0.2-0.2,0.1c-0.2-0.2-0.5,0-0.6-0.1c-0.1-0.2-0.2-0.3-0.4-0.5
		c-0.3-0.3-0.8-0.4-1.2-0.6c0,0-0.1,0-0.1,0c-0.2,0-0.1-0.3-0.3-0.4c-0.1,0-0.3,0.1-0.4-0.1c-0.1-0.1-0.3-0.2-0.4-0.3
		c-0.1,0-0.1-0.1-0.1-0.2c0-0.1,0-0.2-0.1-0.2c-0.3,0-0.4-0.4-0.7-0.4c0,0-0.1,0-0.1,0c-0.1-0.4-0.4-0.4-0.7-0.4c0,0-0.1,0-0.1-0.1
		c0-0.4-0.4-0.2-0.5-0.4c-0.3,0-0.5-0.2-0.7-0.4c-0.1-0.2-0.3-0.3-0.5-0.2c-0.2,0-0.3,0-0.3-0.2c0-0.2-0.1-0.2-0.3-0.2
		c-0.2,0-0.5,0.1-0.7-0.1c0,0-0.2,0-0.3,0c-0.4,0.1-0.7,0.2-1.1,0c-0.1-0.1-0.2-0.1-0.3,0c-0.1,0.2-0.3,0.1-0.4,0.1
		c-0.3-0.1-0.6,0-0.8,0.3c-0.1,0.2-0.1,0-0.2,0c-0.1,0-0.3-0.1-0.3,0.2c0,0.1-0.1,0.1-0.2,0.2c-0.1,0.1-0.1,0.2-0.3,0
		c-0.1-0.1-0.3,0-0.4,0c-0.1,0-0.1,0-0.1,0.1c-0.1,0.3-0.2,0.2-0.6,0.4c-0.3,0.1-0.5,0.2-0.8,0.2c-0.1,0-0.2,0.1-0.2,0.1
		c-0.2,0-0.3,0.3-0.4,0.3c-0.3-0.2-0.2,0.1-0.3,0.2c-0.1,0-0.1,0.1-0.3,0.1c-0.3-0.1-0.4,0.2-0.5,0.3c0.1,0.1,0.1,0.2,0.2,0.2
		c0.3,0,0.5,0.1,0.8,0.2c0.3,0.1,0.7,0.2,0.8,0.5c0.1,0.2,0.2-0.1,0.3,0c0.1,0.1,0.2,0.1,0.2,0.2c0.1,0.1,0.1,0.3,0.3,0.2
		c0.2-0.1,0.4,0.1,0.6,0.2c0.1,0.1,0.2,0.2,0.3,0c0-0.1,0.1,0,0.2,0.1c0.3,0.2,0.4,0.6,0.6,0.8c0.1,0.1,0.2,0.2,0.2,0.1
		c0.2-0.2,0.3,0,0.4,0.1c0.2,0.3,0.8,0.7,1.2,0.8c0.1,0,0.1,0.1,0.2,0.1c0.1,0.1,0,0.2,0.1,0.3c0.1,0.1,0.2-0.2,0.3-0.1
		c0.1,0.2,0.2,0.2,0.4,0.2c0.1,0,0,0.1,0,0.2c0,0.1,0,0.2,0.1,0.3c0.1,0.2,0.4,0,0.5,0.2c0.1,0.1,0.1,0.2,0.3,0.3
		c0.2,0.1,0.3,0.1,0.3,0.4c0,0.1,0.1,0.2,0.1,0.2c0.1,0.1,0.2,0.3,0.3,0.4c-0.2,0.3,0,0.6-0.1,0.9c0,0.1-0.1,0.2-0.2,0.1
		c-0.1-0.1-0.1,0-0.1,0.1c0,0.2,0,0.4-0.3,0.3c-0.1,0.3-0.3,0.2-0.6,0.2c0.1,0.1,0.1,0.2,0.1,0.2c0,0.2,0.3,0.2,0.2,0.4
		c0,0.2-0.3,0-0.4,0.2c0,0-0.1,0.1-0.1,0.1c0.2,0.2,0,0.3-0.1,0.5c-0.2,0.2-0.4,0.1-0.6,0.1c0,0-0.1,0,0,0.1c0,0,0.1,0.1,0,0.1
		c-0.1,0-0.2,0.1-0.3,0.1c-0.1,0-0.3,0.1-0.4,0.2c-0.2,0.2-0.3,0.2-0.4,0c-0.1-0.1-0.2-0.4-0.4-0.1c-0.1,0.1-0.1,0-0.1-0.1
		c-0.1-0.1-0.1-0.2-0.2-0.3c-0.1-0.2-0.2-0.4-0.5-0.3c-0.1,0-0.2,0-0.2-0.1c-0.1-0.3-0.3-0.4-0.6-0.4c-0.1,0-0.4,0-0.3-0.3
		c0,0-0.1-0.1-0.1-0.1c-0.2-0.2-0.4-0.3-0.5-0.5c0-0.1-0.1-0.1-0.2-0.1c-0.3,0-0.4-0.1-0.4-0.4c0-0.2-0.1-0.4-0.5-0.4
		c0,0-0.1,0-0.1,0c-0.2-0.4-0.5-0.3-0.8-0.3c-0.2-0.1-0.5,0-0.6-0.3c0,0-0.1-0.1-0.1-0.1C31.3,91.8,31,92,31,91.8
		c0-0.2-0.1-0.3-0.2-0.4c-0.1-0.1-0.1-0.1-0.2,0c0,0-0.1,0-0.2,0c-0.2-0.2-0.4-0.3-0.6-0.1c-0.1,0.1-0.2-0.1-0.2-0.1
		c-0.1-0.1-0.1-0.3-0.3-0.4c-0.1-0.1-0.2-0.2-0.3,0c-0.1,0.1-0.1,0-0.2-0.1c-0.1-0.1-0.3-0.2-0.4-0.4c-0.1-0.1-0.1-0.1-0.2,0
		c-0.1,0.1-0.1,0-0.2-0.1c-0.3-0.3-0.6-0.5-1-0.3c-0.3,0.1-0.3,0.1-0.3-0.1c-0.1-0.3-0.3-0.4-0.5-0.2c-0.2,0.1-0.4,0.1-0.5-0.1
		c-0.1-0.1-0.1-0.1-0.2-0.1c-0.2,0.1-0.4,0.2-0.4-0.2c0-0.2-0.2-0.2-0.5-0.1c-0.1,0-0.3,0.2-0.4-0.1c0-0.1-0.2-0.3-0.5-0.1
		c-0.2,0.2-0.5-0.1-0.8-0.1c0,0,0-0.1-0.1-0.1c-0.3,0.2-0.5,0-0.7-0.2c-0.1-0.1-0.1-0.1-0.2-0.1c-0.1,0-0.3,0-0.4,0.1
		c-0.1-0.1-0.1-0.2-0.2-0.3c-0.1-0.1-0.3-0.1-0.4,0c-0.2,0.2-0.4,0-0.5-0.1c-0.1-0.1-0.1-0.2-0.2-0.2c-0.2-0.1-0.3-0.2-0.6-0.2
		c-0.3,0-0.5,0-0.8-0.2c-0.1-0.1-0.1,0-0.2,0c-0.3,0-0.5,0-0.8,0c-0.1,0-0.2-0.1-0.2-0.2c-0.1-0.1-0.2-0.3-0.5-0.2
		c-0.1,0-0.2-0.1-0.2-0.1c-0.1-0.1-0.3-0.2-0.4-0.4c-0.1-0.2-0.5-0.1-0.6-0.4c-0.3,0.1-0.4-0.2-0.5-0.3c-0.3-0.4-0.7-0.6-1-1
		c-0.1-0.2-0.5-0.2-0.4-0.5c-0.2-0.2-0.4-0.3-0.5-0.6c0-0.2-0.1-0.2-0.2-0.3c-0.2-0.1-0.2-0.3-0.3-0.5c0,0,0-0.1,0-0.1
		c-0.1-0.2-0.4-0.3-0.4-0.7c0.1-0.3-0.2-0.5-0.3-0.7c0-0.1-0.1-0.1-0.1-0.2c0.1-0.3-0.2-0.4-0.3-0.6c-0.1-0.1-0.2-0.1-0.2-0.3
		c0-0.1,0-0.3,0-0.4c0-0.2-0.2-0.1-0.3-0.2c0-0.2-0.1-0.4-0.2-0.5c0-0.1,0-0.1,0.1-0.1c0.2-0.1,0.1-0.3,0.2-0.4
		c0.1-0.1,0.1-0.2,0-0.2c-0.4-0.1-0.3-0.4-0.2-0.7c0,0,0.1-0.1,0-0.1c-0.1-0.1-0.3-0.2-0.1-0.4c0,0,0-0.1-0.1-0.1
		c-0.2-0.2-0.2-0.4-0.1-0.6c0.1-0.2-0.1-0.5-0.1-0.7c0-0.1-0.1-0.2,0-0.2c0.2-0.3,0-0.6-0.1-0.9c0-0.1,0-0.1,0.1-0.1
		c0.1-0.1,0.1-0.2,0-0.3c-0.2-0.2,0-0.5,0-0.7c0.1-0.5,0.2-0.7,0-1.1c0,0-0.1-0.1-0.1-0.1c0.2-0.2,0.2-0.3,0.1-0.5
		c-0.1-0.1,0.3-0.3,0.1-0.5c0,0,0.1-0.1,0.1-0.1c0.1-0.1,0.1-0.1,0.1-0.2c0-0.3-0.2-0.6,0.1-0.8c0,0,0-0.1,0-0.1
		c0-0.1-0.1-0.2-0.1-0.4c0-0.1,0.2-0.1,0.2-0.3c0-0.3,0.3-0.4,0.3-0.8c0-0.2,0.3-0.4,0.2-0.7c0-0.1,0-0.1,0.1-0.1
		c0.1-0.1,0.2-0.2,0.1-0.3c-0.1-0.1,0-0.2,0.1-0.2c0.3-0.1,0.4-0.3,0.2-0.6c-0.1-0.1-0.1-0.2,0-0.2c0.2-0.1,0.2-0.3,0.5-0.3
		c0.1,0,0.1-0.1,0.1-0.1c-0.3-0.2,0.1-0.5,0-0.7c0-0.1,0.1-0.2,0.2-0.2c0.3,0,0.3-0.2,0.4-0.4c0.1-0.1-0.1-0.3,0.2-0.4
		c0.1,0,0-0.3,0.2-0.4c0.2-0.1,0.1-0.3,0.2-0.4c0.1-0.1,0.2-0.1,0.3-0.2c0,0,0.1-0.1,0.1-0.1c0.1-0.4,0.5-0.5,0.7-0.9
		c0-0.1,0.1-0.2,0.2-0.1c0.1,0,0.3-0.1,0.3-0.2c0.1-0.4,0.4-0.3,0.7-0.4c0.1,0,0.1,0,0.2,0.1c0.3,0.2,0.4,0.3,0.6,0
		c0.2-0.4,0.7-0.1,0.9-0.3c0,0,0.2,0.1,0.2,0.1c0.2,0.1,0.4,0.2,0.6,0.1c0.2-0.1,0.4-0.1,0.5,0.1c0.1,0.1,0.1,0,0.1-0.1
		c0.1,0,0.2,0,0.2,0c0,0.3,0.1,0.2,0.3,0.1c0.1-0.1,0.2,0,0.2,0.1c0,0.2,0.1,0.3,0.2,0.5c0.2-0.2,0.3-0.2,0.5-0.1
		c0.1,0.1,0.2,0.3,0.4,0.2c0.1,0,0.1,0.1,0.1,0.1c0,0.2,0.2,0.4,0.3,0.4c0.4,0,0.3,0.4,0.6,0.5c0,0,0,0.1,0,0.1
		c-0.3,0.3,0.1,0.3,0.2,0.5c0.2,0.2,0.3,0.4,0.3,0.6c0,0.3,0.2,0.5,0.2,0.9c0,0.1,0.1,0.2,0.2,0.2c0.1,0,0.2,0.1,0.2,0.2
		c0,0,0,0.1,0,0.1c0.4,0.1,0.3,0.5,0.4,0.7c0.1,0.3,0.2,0.6,0.6,0.7c0.2,0,0.4,0.2,0.3,0.5c-0.1,0.3,0.3,0.4,0.4,0.4
		c0.3,0.1,0.4,0.1,0.4,0.4c0,0.1,0,0.1,0.1,0.2c0.2,0.2,0.4,0.3,0.5,0.6c0.3,0,0.3,0.3,0.5,0.5c0.1,0.1,0.3,0.2,0.6,0.3
		c0,0,0,0,0.1,0c0.1,0.1,0.3,0.3,0.4,0.4c0.1,0.1,0.3,0.1,0.3,0.3c0,0.2,0.2,0.2,0.4,0.2c0.2,0,0.4,0,0.5,0.2
		c0.1,0.2,0.2,0.1,0.4,0.1c0.1,0,0.2,0,0.2,0.2c0,0.1,0.1,0.1,0.2,0.2c0.1,0.1,0.2,0,0.2-0.1c0.1-0.1,0-0.1,0-0.2
		c-0.1-0.2-0.1-0.3,0.1-0.3c0.4,0.1,0.8-0.2,1.3-0.1c0.1,0,0.2,0,0.3-0.1c0.1-0.1,0.2-0.3,0.4-0.1c0.1-0.2,0.3-0.1,0.5-0.1
		c0.2,0,0.3,0,0.3-0.2c0.1-0.2,0.3-0.3,0.6-0.3c0.2,0,0.3,0.1,0.5-0.1c0.1-0.1,0.2-0.4,0.5-0.4c0.2,0,0.4-0.2,0.6-0.1
		c0.2,0,0.3-0.1,0.4-0.2c0.2-0.2,0.4-0.4,0.7-0.6c0.2-0.1,0.3-0.2,0.5-0.2c0.2,0,0.5,0.1,0.6-0.2c0.1-0.1,0.1,0,0.2,0
		c0.2,0,0.4,0,0.5-0.2c0,0,0.1-0.1,0.1-0.1c0.2,0.1,0.5-0.1,0.7,0.2c0.2,0.2,0.4,0.4,0.7,0.4c0.1,0,0.3,0.1,0.2,0.3
		c-0.1,0.1,0,0.3,0.2,0.4c0.2,0.1,0.4,0.2,0.6,0.4c0.2,0.2,0.2,0.3,0,0.4c-0.1,0-0.1,0.1-0.1,0.2c0.3,0.3,0.1,0.4-0.1,0.6
		c-0.2,0.2-0.2,0.3,0,0.4c0.1,0.1,0.1,0.1,0,0.2c-0.1,0.1-0.2,0.6-0.2,0.7c0.2,0.2,0,0.3-0.1,0.5c-0.1,0.1-0.2,0.2-0.2,0.3
		c0,0.1-0.1,0.1-0.1,0.2c0.1,0.3,0.1,0.5,0,0.8c0,0-0.1,0.1,0,0.1c0.2,0.1,0.1,0.3,0.1,0.4c0,0,0.1,0.1,0.1,0.2
		c0.1,0.2,0.2,0.3,0,0.5c0,0-0.1,0.1-0.1,0.1c0.2,0.2,0,0.3-0.1,0.4c-0.1,0.1-0.1,0.2,0.1,0.2c0,0,0.1,0,0.1,0c0.1,0,0.1,0,0.1,0.1
		c0,0.1,0,0.1-0.1,0.1c-0.2,0-0.2,0.2-0.1,0.2c0.1,0.1,0.3,0.1,0.3,0.2c0,0.2,0,0.4,0,0.6C40.1,78,40,78.4,40.1,78.9z M15.1,76.7
		c0,0.1,0,0.2,0.1,0.3c0.4,0.2,0.5,0.7,0.8,1c0.4,0.4,0.7,0.8,1,1.3c0.1,0.1,0.4,0.2,0.3,0.5c0,0.1,0,0.1,0.1,0.1
		c0.1,0,0.2,0,0.3,0.1c0.1,0.1,0.3,0.2,0.4,0.4c0,0.3,0.3,0.1,0.4,0.3c0,0,0.1,0.1,0.1,0.1c0,0.1,0,0.2,0.1,0.1
		c0.3-0.1,0.4,0.2,0.6,0.3c0.1,0.1,0.2,0.3,0.5,0.3c0.2,0,0.3,0.2,0.5,0.3c0,0,0.1,0,0.1,0c0.2-0.2,0.3-0.1,0.3,0.1
		c0,0.1,0.1,0.1,0.2,0.1c0,0,0.1-0.1,0.1,0c0.1,0.1,0.3,0.1,0.4,0.2c0.1,0.1,0.3-0.4,0.4,0c0.2,0,0.2,0.2,0.4,0.2
		c0.3,0,0.5,0,0.8,0.1c0.2,0.1,0.6-0.2,0.7-0.4c0,0,0-0.1,0-0.1c-0.2-0.2-0.2-0.3,0.1-0.3c0.1,0,0.2-0.1,0.2-0.2
		c0-0.2,0.1-0.2,0.1-0.4c0-0.1,0.1-0.3-0.1-0.4c0.1-0.1,0.2-0.2,0.2-0.3c0,0,0,0,0-0.1c-0.1-0.1-0.1-0.1,0-0.2
		c0.3-0.2,0.3-0.3,0.1-0.6c-0.1-0.1-0.1-0.2-0.2-0.1c-0.1,0-0.2,0-0.2-0.1c-0.1-0.2-0.2-0.2-0.4-0.3c-0.1,0-0.3-0.1-0.4-0.2
		c-0.2-0.2-0.4-0.2-0.6-0.2c-0.1,0-0.2,0-0.4,0c-0.1,0-0.2,0-0.2-0.1c-0.1-0.3-0.3-0.4-0.6-0.4c-0.1,0-0.2-0.1-0.2-0.2
		c0-0.1,0-0.2-0.2-0.2c-0.2,0-0.5,0.1-0.5-0.3c0-0.1-0.1,0-0.1-0.1c-0.2-0.1-0.5-0.2-0.5-0.4c-0.1-0.3-0.5-0.3-0.5-0.5
		c0-0.3-0.3-0.1-0.4-0.3c-0.2-0.5-0.3-1-0.7-1.3c0,0,0-0.1,0-0.2c0-0.4-0.1-0.8-0.3-1.1c-0.1-0.1-0.1-0.2,0-0.2
		c0.2-0.2,0.1-0.4,0-0.6c-0.1-0.3-0.1-0.5-0.1-0.8c0-0.2,0-0.3-0.2-0.4c-0.1,0-0.1-0.1,0-0.2c0.2-0.3,0.2-0.3,0-0.5
		c-0.1-0.2-0.1-0.3,0.1-0.4c0.2-0.1,0.2-0.2,0.2-0.3c0-0.1,0.1-0.3-0.1-0.4c-0.1,0-0.1-0.1,0-0.2c0.2-0.3,0.3-0.5-0.1-0.6
		c0-0.1-0.1-0.2-0.2-0.3c-0.1-0.1-0.1-0.1-0.2-0.1c-0.1,0-0.3,0.1-0.4-0.2c-0.1-0.2-0.3,0-0.4,0.1c-0.1,0-0.1,0-0.1-0.1
		c0-0.1,0-0.1-0.1-0.2c-0.2-0.2-0.2-0.2-0.4,0c-0.1,0.1-0.1,0.1-0.2,0c-0.3-0.2-0.3-0.2-0.5-0.1c-0.1,0-0.1,0.1-0.2,0.1
		c-0.1-0.1-0.2-0.2-0.3,0c-0.1,0.1-0.3,0.2-0.2,0.3c0.1,0.3-0.1,0.4-0.3,0.5c-0.1,0.1-0.1,0.2,0,0.3c0.1,0,0.1,0.1,0,0.2
		c-0.2,0.2-0.3,0.5-0.2,0.7c0.1,0.3-0.1,0.5,0,0.8c0,0.2-0.1,0.4,0.1,0.5c0,0,0,0.2,0,0.2c-0.1,0.6-0.1,0.6,0,1.1c0,0,0,0,0,0.1
		c0,0.2,0.1,0.4,0.1,0.6c0,0.2,0,0.5,0.2,0.6c0,0,0,0.1,0,0.1c-0.2,0.2-0.1,0.4,0.1,0.5c0.1,0.1,0.1,0.1,0.1,0.2
		c0,0.3,0.1,0.5,0.2,0.7c0.1,0.2,0.2,0.4,0.3,0.5C15.4,76.3,15,76.5,15.1,76.7z M36.9,78.5c-0.1-0.1-0.2-0.2-0.3-0.3
		c0.2-0.2-0.1-0.2-0.1-0.3c0-0.1,0-0.3-0.1-0.3c-0.1,0-0.1-0.1-0.2-0.2c0.2-0.1,0.1-0.2,0.1-0.4c0.1-0.2,0.3-0.1,0.3-0.3
		c0-0.1-0.2-0.3-0.1-0.4c0-0.1,0-0.1,0-0.2c0.2-0.3,0.1-0.7-0.1-1c-0.1-0.1,0-0.1,0.1-0.1c0.1,0,0.3-0.1,0.2-0.2
		c-0.2-0.2,0.1-0.6-0.3-0.8c0,0,0,0,0-0.1c0.2-0.2,0-0.3-0.1-0.3c-0.2,0-0.4-0.2-0.7-0.1c-0.1,0-0.3,0.1-0.5,0
		c-0.3-0.2-0.5-0.2-0.7,0.1c-0.1,0.1-0.2,0.1-0.2,0c-0.3-0.1-0.4,0.1-0.6,0.3c-0.1,0.1-0.2,0.2-0.3,0.3c-0.2,0-0.3,0.3-0.5,0.1
		c-0.1-0.1-0.2,0-0.3,0c-0.1,0-0.1,0.2-0.1,0.2c0,0.1,0,0.1-0.1,0.2c0,0.1-0.1,0.1-0.2,0.2c0,0-0.1-0.1-0.2-0.1
		c-0.1-0.1-0.1-0.1-0.2,0c-0.1,0.1-0.2,0.2-0.4,0.2c-0.1,0-0.2,0-0.3,0.1c-0.2,0.2-0.4,0.2-0.6,0.1c-0.2-0.1-0.3-0.1-0.4,0.1
		c-0.1,0.1-0.1,0.1-0.2,0.1c-0.2-0.1-0.3,0.1-0.5,0.2C29.2,75.7,29,76,29,76.2c-0.1-0.1-0.3-0.4-0.5-0.1c-0.2-0.2-0.2-0.1-0.3,0.1
		c0,0.1-0.1,0.5-0.4,0.2c-0.1,0.1-0.1,0.1-0.2,0.2c0.3,0.2-0.1,0.4,0,0.6c0.1,0.2,0,0.5,0,0.6c0.1,0.2-0.1,0.4,0.1,0.5
		c0.1,0.1,0,0.3-0.2,0.2c-0.1,0-0.2,0.1-0.2,0.2c0,0.1,0,0.2,0.2,0.2c0.3,0,0.4,0.1,0.3,0.4c0,0.2,0.2,0.3,0.1,0.4
		c-0.1,0.1-0.3,0.1-0.4,0.3c0,0-0.1,0-0.1,0c-0.1,0.1-0.1,0.1,0,0.2c0.2,0.1,0.2,0.1,0,0.2c-0.1,0.1-0.3,0.2-0.1,0.3
		c0.1,0,0.1,0.1,0.1,0.2c-0.2,0.1,0,0.2,0,0.3c0,0.1,0,0.3,0,0.4c0,0.4,0.2,0.5,0.6,0.4c0.2-0.1,0.3-0.1,0.5,0
		c0.3,0.1,0.5,0.1,0.6-0.2c0-0.1,0.1-0.1,0.2,0c0.2,0.1,0.2,0,0.1-0.2c0,0-0.1-0.1,0-0.1c0.3,0,0.5-0.3,0.8-0.3
		c0.1,0,0.2,0.2,0.3,0.1c0.1-0.1,0.2-0.4,0.5-0.1c0.2-0.1,0.4-0.2,0.5-0.4c0.1-0.2,0.2-0.3,0.4-0.1c0.1,0.1,0.2,0,0.2,0
		c0.2-0.2,0.3-0.2,0.5-0.3c0.2,0,0.3-0.2,0.6-0.1c0.1,0,0.2-0.1,0.2-0.2c0-0.2,0-0.3,0.2-0.2c0.3,0,0.6,0,0.7-0.3
		c0.1-0.2,0.3-0.2,0.5-0.2c0.2-0.1,0.3,0.1,0.5,0.1c0.2,0,0.2-0.3,0.4-0.2c0.3,0.1,0.3-0.2,0.4-0.3c0.1-0.1,0.1-0.2,0.2-0.2
		C36.6,78.5,36.7,78.5,36.9,78.5z"/>
	<path d="M138.4,51c0,0.2,0,0.3,0,0.4c0,0.2,0.1,0.3,0.2,0.1c0.1-0.1,0.1,0,0.1,0c0.1,0.1,0.5,0.6,0.5,0.7c0.1,0.1,0,0.2-0.1,0.3
		c0,0.1,0.1,0.1,0.1,0.3c0,0.1,0.1,0.2,0.1,0.2c0.1,0.1,0.2-0.2,0.3,0c0.1,0.1,0,0.3,0.1,0.3c0.1,0.1,0.3,0.2,0.5,0.2
		c0.1,0,0.1,0,0.1,0.1c-0.1,0.2-0.1,0.2,0.1,0.3c0.3,0.1,0.4,0.2,0.2,0.4c-0.2,0.2,0,0.4-0.2,0.5c0,0.3-0.2,0.4-0.4,0.4
		c-0.2,0-0.3,0.1-0.4,0.2c-0.1,0.1-0.1,0.2-0.2,0.3c-0.1,0.1-0.3,0-0.3,0.2c0,0.2-0.2,0.1-0.2,0.2c-0.2,0.2-0.4,0.4-0.5,0.6
		c-0.1,0.2,0,0.5-0.4,0.4c-0.1,0.2-0.4,0.4-0.4,0.7c0,0.2-0.2,0.3-0.1,0.5c0.1,0.2-0.1,0.3-0.1,0.4c0,0.2,0,0.5,0,0.8
		c0.4,0.2,0.7-0.1,0.9-0.3c0.1-0.1,0.2-0.2,0.4-0.2c0.1,0,0.6-0.3,0.7-0.4c0.1-0.2,0.3,0,0.4-0.1c0.1-0.1,0.2,0,0.3,0
		c0.3,0,0.5-0.1,0.5-0.3c0-0.1,0-0.1,0.1-0.1c0.3,0,0.4-0.2,0.5-0.4c0-0.1,0.1-0.2,0.1-0.2c0.3,0,0.2-0.2,0.2-0.4
		c0-0.1,0.1-0.1,0.1-0.2c0.1-0.1,0.3,0,0.4-0.1c0.1-0.1-0.1-0.2,0.1-0.3c0,0,0.1,0,0.1,0c0-0.4,0.2-0.5,0.6-0.5
		c0.1,0,0.1-0.1,0.1-0.1c0-0.2,0.1-0.4,0.2-0.5c0.1-0.1,0.2-0.2,0.1-0.3c0-0.1,0.1-0.2,0.2-0.2l0.4-0.4c0.1-0.1,0.1-0.2,0.3-0.3
		c0.2-0.1,0.4,0,0.5-0.3c0,0,0.1,0,0.1,0c0.1-0.1,0.2,0.2,0.3,0.1c0.1-0.1,0.2-0.1,0.3-0.2c0.3-0.1,0.3-0.2,0.5,0.1
		c0.2,0.2,0.3,0,0.4,0.1c0.1,0.1,0.2-0.2,0.3-0.1c0.1,0.1,0.2,0,0.3-0.1c0.1,0,0.3,0.1,0.4,0.1c0.1,0,0.2,0,0.3-0.1
		c0.1-0.1,0.1-0.1,0.2-0.2c0.3-0.1,0.3-0.1,0.5,0.1c0.1,0.2,0.2,0.4,0.4,0.5c0.2,0.1,0.3,0.1,0.5,0.2c0.1,0.1,0.3,0.2,0.4,0.3
		c0.1,0.1,0.2,0.2,0.4,0.1c0.3-0.1,0.7,0.3,0.7,0.6c0.1,0.6,0.1,0.6,0.5,0.9c0.1,0.1,0.1,0.1,0.1,0.2c0,0.3,0.1,0.6-0.2,0.9
		c-0.1,0.1-0.1,0.3-0.2,0.5c-0.1,0.2,0.1,0.4,0.2,0.6c0.1,0.1,0.1,0.1,0,0.2c-0.2,0-0.1,0.3-0.3,0.4c-0.2,0.1-0.1,0.4,0,0.5
		c0.1,0.2,0.1,0.3-0.1,0.4c-0.1,0.1-0.1,0.2-0.2,0.2c-0.1,0-0.1,0.1-0.1,0.1c0.2,0.2,0.1,0.4-0.1,0.5c0,0-0.1,0.2,0,0.2
		c0.3,0.3,0,0.5-0.2,0.5c-0.2,0.1-0.2,0.2-0.2,0.3c0.1,0.2-0.2,0.4,0,0.6c0.1,0.1,0,0.2-0.1,0.2c-0.4,0.2-0.4,0.7-0.6,1
		c0,0.1,0,0.2,0.1,0.3c0.2,0.1,0.2,0.3,0,0.4c-0.2,0.1-0.2,0.3-0.1,0.5c-0.2,0.1-0.1,0.4-0.2,0.6c-0.1,0.2-0.1,0.4-0.1,0.6
		c0,0.2,0,0.4-0.2,0.5c-0.1,0.1,0,0.1,0,0.2c0,0.1,0,0.1,0,0.2c-0.5,0.4-0.5,0.5-0.5,1c0,0.2-0.1,0.3-0.1,0.5
		c-0.1,0.2-0.2,0.3,0,0.5c0,0,0.1,0.1,0,0.1c-0.3,0.1-0.1,0.4-0.2,0.6c-0.1,0.2,0,0.6-0.4,0.7c-0.2,0.1-0.2,0.4-0.2,0.6
		c0.1,0.5-0.1,1-0.4,1.4c-0.1,0.1-0.1,0.2-0.1,0.2c0.1,0.2,0,0.4,0,0.6c0,0.2-0.1,0.3-0.1,0.4c-0.2,0.3-0.2,0.6-0.3,0.9
		c0,0.1,0,0.2-0.1,0.3c-0.1,0.1,0,0.2,0.1,0.3c0.2,0.3,0.2,0.4,0,0.7c0,0,0,0,0,0c-0.2,0.2-0.5,0.4-0.4,0.7c-0.2,0.2-0.2,0.5,0,0.7
		c0,0.1,0,0.2,0,0.3c0,0.1,0,0.2-0.2,0.2c-0.2,0.2-0.4,0.4-0.5,0.8c0,0.2-0.1,0.3,0,0.6c0.1,0.1,0,0.4-0.1,0.6
		c-0.1,0.1-0.1,0.2-0.2,0.4c0,0.2,0.2,0.3,0.1,0.4c0,0.1-0.3,0.2-0.2,0.4c0,0.2-0.2,0.3-0.1,0.5c0.1,0.1-0.2,0.3,0.1,0.4
		c0,0,0,0.1,0,0.2c-0.3,0.2-0.2,0.5-0.4,0.7c0,0-0.1,0.1,0,0.1c0.3,0.1,0.1,0.3,0,0.5c0,0.1-0.1,0.1-0.1,0.2c0,0.2,0.2,0.4,0,0.7
		c-0.1,0.2,0,0.5,0,0.7c0,0.1,0,0.2,0.2,0.2c0.1,0,0.1,0.2,0.1,0.3c-0.2,0.5-0.1,0.9-0.1,1.4c0,0.1,0,0.1,0.1,0.1
		c0.3,0.1,0.4,0.3,0.2,0.6c-0.1,0.2,0.1,0.4,0.2,0.5c0.2,0.2,0,0.3,0,0.4c0,0.1,0,0.1-0.1,0.2c0,0.1,0,0.2,0,0.2
		c-0.1,0.3,0.4,0.3,0.2,0.5c-0.1,0.2-0.2,0.3-0.2,0.5c0,0.1,0.1,0.4-0.2,0.4c-0.1,0,0,0,0,0.1c0.2,0.2,0.1,0.4-0.2,0.5
		c-0.1,0-0.2,0.1-0.2,0.2c0,0.2-0.2,0.3-0.4,0.3c-0.2,0-0.3,0.2-0.5,0c0,0-0.2,0-0.2,0.1c0,0.1,0,0.2-0.1,0.3c0,0-0.1-0.1-0.2-0.1
		c-0.2,0.1-0.5,0.1-0.7,0c-0.1,0-0.1,0-0.1,0.1c0,0.4-0.3,0.2-0.4,0.2c-0.3,0-0.5,0.1-0.7,0.3c-0.1,0.1-0.3,0-0.3-0.1
		c0-0.1,0-0.2,0-0.4c-0.1-0.2-0.2-0.4-0.3-0.6c-0.2-0.2-0.4-0.5-0.4-0.8c0-0.1,0-0.2-0.2-0.2c-0.1,0-0.1-0.1-0.1-0.2
		c0.1-0.2,0.2-0.4,0-0.6c0.2-0.2-0.1-0.5,0-0.7c0-0.1,0-0.2-0.1-0.2c-0.2-0.2-0.2-0.2-0.1-0.5c0.1-0.1,0.1-0.1,0-0.2
		c-0.1-0.1-0.2-0.2-0.3-0.4c0-0.1-0.1-0.1-0.1-0.1c0.2-0.3,0-0.5-0.1-0.7c0-0.1-0.1-0.2,0-0.2c0.3-0.3,0.1-0.6,0-0.8
		c-0.1-0.3,0-0.6-0.1-0.9c0.2-0.1,0.3-0.3,0.2-0.5c0-0.2-0.1-0.4,0.1-0.6c0.1-0.1,0-0.2-0.1-0.2c-0.2-0.1-0.1-0.3-0.2-0.5
		c-0.2-0.1,0.1-0.3,0.1-0.4c0.1-0.1,0.1-0.3,0-0.4c-0.2-0.2-0.1-0.3,0.1-0.5c0.1-0.1,0.3-0.2,0.1-0.4c0,0,0.1-0.1,0.2-0.2
		c0.2-0.1,0.3-0.3,0.1-0.5c-0.1-0.1-0.1-0.2,0-0.3c0.1-0.1,0.1-0.2,0-0.2c-0.1-0.1,0-0.3-0.1-0.4c-0.1-0.1-0.2,0.2-0.4,0.1
		c-0.1,0-0.1,0-0.2,0c-0.2,0.1-0.3,0.4-0.5,0.4c-0.2,0-0.5,0.1-0.7,0.2c-0.1,0.1-0.3,0.1-0.3,0c-0.2-0.1-0.3,0-0.4,0
		c-0.2,0-0.3,0.1-0.1,0.3c0.2,0.3,0,0.5-0.2,0.7c-0.1,0.2-0.2,0.3-0.1,0.5c0.1,0.1,0.1,0.2,0,0.4c-0.1,0.1,0.1,0.2,0.1,0.3
		c0,0.1-0.3,0.2-0.1,0.4c0.2,0.1,0,0.2-0.1,0.3c0,0.2,0.1,0.3,0.2,0.4c0.1,0.1,0.1,0.2-0.1,0.3c-0.1,0-0.2,0.2-0.3,0.3
		c-0.1,0.1-0.1,0.3,0,0.3c0.3,0,0.2,0.2,0.1,0.3c-0.1,0.2-0.1,0.3,0,0.4c0.1,0.1,0.1,0.2,0,0.3c-0.3,0.2-0.3,0.4,0,0.6
		c0,0,0,0.1,0,0.2c-0.1,0.1-0.3,0.3-0.4,0.4c0.2,0.2,0.4,0.4,0.2,0.6c-0.1,0.2,0,0.3-0.1,0.4c-0.1,0.1-0.1,0.2,0,0.3
		c0.1,0.1-0.4,0.2-0.1,0.4c0.2,0.1,0.1,0.3,0.2,0.5c0.1,0.1-0.2,0.2,0,0.4c0.1,0.1,0.1,0.2,0.2,0.3c0,0.1,0,0.1,0,0.2
		c-0.1,0.1-0.1,0.2-0.2,0.3c-0.1,0.1,0.1,0.2,0.1,0.3c0,0,0,0,0,0.1c0.1,0.2-0.4,0.2-0.1,0.4c0.1,0.1,0.1,0.3,0.2,0.4
		c0.1,0.1,0.2,0.2,0.1,0.4c-0.3,0.4-0.2,0.7-0.1,1.1c0,0.1,0.2,0.3,0,0.4c0.1,0.1,0.2,0.3,0.2,0.4c0.1,0.2-0.1,0.3-0.2,0.5
		c-0.1,0.2-0.1,0.2,0,0.3c0.1,0.1,0.2,0.2,0.1,0.4c-0.1,0.2-0.1,0.4,0,0.6c0.1,0.2,0.1,0.4,0,0.6c0,0.1-0.1,0.1,0,0.2
		c0.1,0.3,0.1,0.3,0,0.6c-0.2,0.5-0.6,0.7-0.9,1c-0.1,0.1-0.1,0.1-0.2,0c-0.2-0.1-0.5-0.2-0.7,0c-0.1,0.1-0.5,0.1-0.7,0.1
		c-0.3,0-0.6,0-0.8,0c-0.2,0.4-0.4,0.1-0.6-0.1c-0.1-0.1-0.2-0.1-0.2,0c-0.1,0.2-0.2,0.1-0.3,0c0,0-0.1,0-0.2-0.1
		c-0.1-0.1-0.4-0.2-0.3-0.4c0-0.1,0-0.1,0-0.2c-0.2-0.3-0.3-0.6,0-0.9c0,0,0-0.1,0-0.2c-0.1-0.3-0.2-0.6-0.4-0.9
		c-0.1-0.1-0.1-0.2,0-0.2c0.1,0,0.1-0.1,0-0.2c-0.3-0.2-0.2-0.5-0.1-0.7c0-0.2-0.2-0.4,0-0.5c-0.1-0.2-0.2-0.3-0.2-0.6
		c0,0-0.1-0.1-0.1-0.1c0.2-0.2,0.1-0.3,0-0.5c0,0,0-0.2,0.1-0.2c0.2-0.1,0.1-0.2,0-0.3c-0.1-0.1-0.2-0.3-0.1-0.4
		c0.2-0.2,0.2-0.5,0.1-0.8c0-0.1,0-0.2,0-0.2c0.2-0.1,0.1-0.2,0-0.3c-0.2-0.1-0.1-0.3,0-0.4c0.1,0,0.1-0.1,0.1-0.2
		c0-0.1-0.1-0.2-0.2-0.3c-0.2-0.1,0.2-0.2,0-0.3c-0.1-0.1-0.1-0.2-0.2-0.3c-0.1-0.1-0.1-0.3,0-0.4c0.2-0.2,0.2-0.3,0-0.5
		c0-0.1-0.2-0.2-0.1-0.3c0-0.1,0-0.2,0.1-0.2c0.3-0.2,0.3-0.2,0.2-0.6c0-0.1-0.1-0.3,0-0.3c0.3-0.2,0.1-0.4,0-0.6
		c-0.1-0.2-0.2-0.4-0.2-0.7c0-0.1,0-0.2,0-0.2c0.3-0.2,0.2-0.5,0.2-0.8c0-0.1,0-0.2,0.1-0.3c0.1-0.1,0.2-1,0.1-1.1
		c-0.2-0.2-0.2-0.3,0-0.4c0.1-0.1,0.1-0.2,0-0.3c-0.1-0.1-0.1-0.2,0-0.4c0.1-0.1,0.3-0.2,0.1-0.4c-0.1-0.1,0.1-0.2,0-0.4
		c-0.1-0.2-0.1-0.4,0.1-0.6c0.1-0.1,0.1-0.1,0.2-0.2c0.1-0.1,0.1-0.2,0-0.3c-0.1-0.2-0.3-0.3,0-0.5c0.1-0.1,0.1-0.1,0.1-0.4
		c0-0.1,0.2-0.2,0-0.4c-0.2-0.2,0-0.6,0.1-0.8c0-0.1,0.2-0.2,0-0.4c-0.1-0.1,0-0.2,0.1-0.2c0.2-0.2,0.4-0.3,0.1-0.6
		c0.2-0.1,0.1-0.4,0.1-0.5c0,0,0.1-0.1,0.1-0.1c0.3-0.3,0-0.6,0.2-0.9c0.2-0.2,0.4-0.4,0.2-0.7c0,0,0,0,0,0c0.3-0.2,0.2-0.5,0.1-0.8
		c0-0.1,0.1-0.2,0.2-0.2c0.3,0,0.2-0.2,0.2-0.3c0,0-0.1-0.1-0.1-0.1c0.1-0.1,0.2-0.2,0.3-0.3c-0.2-0.1-0.1-0.2-0.1-0.4
		c0,0,0-0.1,0-0.1c0.3-0.3,0.3-0.7,0.4-1c0-0.2,0.1-0.3,0.3-0.4c0.2-0.1,0.3-0.3,0.2-0.6c0-0.2,0-0.5,0.2-0.6
		c0.2-0.1,0.3-0.3,0.2-0.6c0-0.2,0.1-0.3,0.2-0.3c0.2-0.1,0.2-0.2,0.2-0.4c0-0.2-0.1-0.4-0.3-0.5c-0.1-0.1-0.1,0-0.1,0
		c-0.3,0.1-0.4,0-0.6-0.2c-0.3-0.2-0.4-0.6-0.6-0.8c0-0.5-0.3-0.8-0.6-1.1c-0.1-0.1-0.1-0.3,0.1-0.5c0.2-0.1,0.2-0.4,0.1-0.5
		c-0.1-0.2-0.1-0.3,0-0.5c0.1-0.1-0.3-0.2-0.2-0.4c0.1-0.1,0.2-0.3,0.1-0.4c-0.4-0.2-0.2-0.6-0.2-0.9c-0.1-0.4-0.3-0.6-0.6-0.8
		c-0.1,0-0.1-0.1-0.1-0.2c0.2-0.2,0.1-0.3-0.1-0.4c-0.3-0.3-0.3-0.3-0.4-0.8c0-0.2-0.2-0.4-0.1-0.4c0.2-0.2,0-0.5,0.2-0.7
		c0.1-0.1,0.1-0.2,0-0.3c-0.1-0.3,0-0.4,0.2-0.6c0.1-0.1,0.2-0.2,0.3-0.3c-0.3-0.3,0.1-0.4,0.2-0.6c0-0.1,0-0.2,0-0.3
		c0-0.3,0.1-0.6,0.3-0.8c0.2-0.1,0.2-0.3,0.1-0.5c-0.1-0.1-0.2-0.3,0.1-0.3c0.1,0,0.1-0.2,0.1-0.2c0.1-0.1,0.2,0,0.3,0
		c0.1,0,0-0.2,0.1-0.3c0.1,0,0.1-0.1,0.2-0.1c0.2,0,0.3-0.1,0.3-0.3c0-0.1,0.1-0.2,0.1-0.2c0.1-0.2,0.4-0.3,0.6-0.3
		c-0.1-0.3,0.1-0.4,0.2-0.6c0.1-0.2,0.3-0.3,0.4-0.5c0.1-0.2,0.2-0.3,0.4-0.4c0.2-0.1,0.3-0.4,0.5-0.5c0.2-0.1,0.1-0.3,0.3-0.3
		c0.1,0,0.3,0,0.4-0.1c0.1-0.2,0.2-0.2,0.4,0c0.1,0.1,0.2-0.1,0.2-0.1c0,0.1,0.1,0.1,0.1,0.2c0,0,0.1,0,0.1,0c0.1-0.1,0.1-0.1,0.2,0
		c0.1,0.1,0.1,0.1,0,0.2c-0.1,0.1-0.1,0.1,0,0.2c0.1,0.1,0.1-0.1,0.2-0.1C138.2,51.2,138.3,51.1,138.4,51z"/>
	<path d="M141.2,44.9c0,0,0.1,0,0.2,0.1c0.1,0.1,0.1,0.1,0.2,0c0.3-0.3,0.7-0.4,1.1-0.5c0.1,0,0.2-0.1,0.2,0
		c0.1,0.1,0.2,0.1,0.3,0.2c0.1,0.1,0.2,0.3,0.3,0.3c0.2,0,0.4,0.1,0.6,0c0.3,0,0.4,0,0.5,0.3c0,0.3,0.2,0.4,0.5,0.4
		c0.1,0,0.2,0.1,0.2,0.2c0,0.2,0,0.3,0.2,0.3c0.1,0,0,0.1,0,0.2c0,0.1,0,0.2,0,0.3c0,0.1,0.1,0.3,0.2,0.4c0.2,0.1,0,0.3,0.1,0.3
		c0.1,0.1,0,0.3,0.2,0.4c0.2,0.1,0.1,0.3,0,0.4c-0.1,0.1-0.1,0.2,0,0.3c0.2,0.1,0.2,0.2,0,0.4c-0.1,0-0.2,0.1-0.1,0.2
		c0.2,0.3-0.2,0.6-0.1,0.9c0,0.1-0.1,0.3-0.1,0.4c0,0.2,0.1,0.5-0.3,0.5c-0.1,0-0.2,0.1-0.2,0.3c0,0.1,0,0.2-0.2,0.2
		c-0.1,0-0.1,0-0.2,0.1c-0.2,0.1,0.1,0.5-0.3,0.4c-0.2,0-0.3,0.2-0.5,0.2c-0.2,0.1-0.4,0.1-0.6,0.1c-0.1,0-0.2,0-0.2,0.1
		c-0.1,0.1-0.1,0.1-0.3,0c-0.1-0.1-0.3-0.1-0.5,0c-0.2,0.2-0.3,0.1-0.5-0.1c-0.1-0.1-0.3-0.2-0.4-0.4c-0.1-0.2-0.4,0.1-0.5-0.1
		c-0.1-0.2-0.2-0.2-0.3-0.4c0-0.1-0.1,0-0.2,0c-0.1,0-0.3,0.1-0.4-0.1c-0.1-0.1-0.1-0.2-0.2-0.3c0,0-0.1,0-0.1-0.1
		c0.2-0.3,0-0.5-0.2-0.7c-0.1-0.1-0.2-0.2,0-0.4c-0.1-0.3-0.1-0.6-0.2-1c0-0.1-0.1-0.1-0.1-0.2c0.1-0.4-0.1-0.8-0.1-1.1
		c0-0.2,0-0.4,0.1-0.5c0.2-0.2,0.3-0.4,0.2-0.6c0-0.1,0-0.2,0.2-0.2c0.1,0,0.1-0.1,0.1-0.2c0-0.1,0-0.2,0.1-0.3
		c0.1-0.1,0.3-0.2,0.4-0.3c0.1-0.1,0.1-0.3,0.2-0.4C141,44.9,141.1,44.9,141.2,44.9z"/>
	<path d="M70.1,19.3c0.2,0.3,0.5,0.4,0.8,0.4c0.3,0,0.6,0.1,0.9,0.2c0.2,0.1,0.5,0.1,0.7,0.3c0.2,0.1,0.3,0.2,0.3,0.5
		c0,0.2,0,0.4,0.2,0.4c0.2,0.1,0.2,0.3,0.3,0.4c0.1,0.1,0,0.3,0,0.4c-0.1,0.2-0.1,0.5,0,0.8c0.1,0.3-0.2,0.5-0.2,0.7
		c-0.1,0.2,0.1,0.5-0.2,0.7c-0.1,0-0.1,0.1-0.1,0.2c0,0.1,0.1,0.3-0.2,0.3c-0.1,0,0,0.1,0,0.2c0,0.1,0,0.2-0.1,0.3
		c-0.1,0.1-0.1,0.2-0.1,0.3c0,0.2-0.1,0.3-0.2,0.3c0,0-0.4,0.5-0.4,0.5c0,0.2-0.1,0.2-0.3,0.3c-0.1,0.1-0.3,0.1-0.4,0.3
		c-0.1,0.1-0.2,0.2-0.3,0.3c-0.1-0.2-0.4,0-0.5-0.1c-0.2-0.1-0.3-0.1-0.5,0c-0.2-0.2-0.3-0.1-0.4,0.1c-0.2,0.2-0.5,0.1-0.6-0.1
		c-0.1-0.2-0.3-0.1-0.4-0.3c0,0-0.1,0-0.2,0c-0.2,0-0.4-0.1-0.5-0.2c-0.2-0.1-0.1-0.3-0.2-0.5c0.1-0.3-0.2-0.3-0.4-0.5
		c-0.1-0.1-0.2-0.1-0.1-0.3c0.1-0.1,0.1-0.3,0-0.4c-0.3-0.3-0.2-0.6-0.1-0.9c0,0,0.1-0.1,0.1-0.1c-0.3-0.3,0-0.4,0.2-0.6
		c0.1-0.1,0.2-0.2,0.2-0.3c0.1-0.6,0.4-1,0.6-1.5c0,0,0,0,0,0c0-0.5,0.4-0.6,0.7-0.8c0.2-0.1,0.4-0.2,0.4-0.5c0-0.1,0-0.1,0.1-0.1
		c0,0,0.1,0,0.1,0C69.5,19.9,69.8,19.8,70.1,19.3z"/>
	<path d="M19.7,53.9c0.2,0.2,0.4,0.1,0.5,0c0,0,0.1-0.1,0.1-0.1c0.2-0.1,0.5-0.3,0.7-0.4c0.2,0.2,0.5,0.3,0.6,0.5
		c0.1,0.1,0.3-0.1,0.3,0.1c0.1,0.1,0.2,0.1,0.3,0.2c0.1,0.1,0.2,0.2,0.4,0.3c0.1,0,0.2,0,0.2,0.2c0,0.2,0,0.3,0.2,0.5
		c0.1,0.1,0.2,0.2,0.2,0.3c0,0.4,0.3,0.7,0.4,1.1c0.1,0.3,0.4,0.5,0.3,0.8c0.3,0.2,0.2,0.5,0.3,0.8c0.1,0.1,0.1,0.2,0,0.3
		c-0.2,0.1-0.2,0.3-0.2,0.5c0,0.1,0,0.3,0,0.4C24,59.7,24,60,23.6,60c-0.1,0-0.2,0.1-0.3,0.2c-0.1,0.1-0.2,0.2-0.4,0.2
		c-0.1,0-0.1,0.1-0.2,0.1c-0.2,0.3-0.4,0.4-0.8,0.3c-0.1,0-0.2,0-0.3,0.1c-0.1,0.1-0.2,0.1-0.2,0c-0.2-0.2-0.4-0.2-0.6-0.1
		c-0.1,0.1-0.3,0.1-0.4-0.1c-0.1-0.2-0.4-0.3-0.6-0.4c-0.3-0.1-0.4-0.5-0.6-0.7c0-0.3-0.2-0.4-0.4-0.5c-0.3-0.3-0.3-0.7-0.6-0.9
		c-0.2-0.1,0-0.3-0.1-0.5C18,57.5,18,57.2,18,57c0-0.1,0.1-0.2-0.1-0.3c0,0,0,0,0,0c0-0.1-0.1-0.3,0-0.4c0.3-0.2,0.2-0.6,0.3-0.8
		c0.2,0,0.2-0.1,0.2-0.2c0-0.1,0.2-0.2,0.1-0.3c0-0.2,0.1-0.2,0.2-0.2c0.1-0.1,0.3-0.1,0.4-0.1c0.2-0.1,0.5-0.1,0.5-0.4
		C19.6,54,19.7,53.9,19.7,53.9z"/>
	<path d="M95.2,16c0.1,0.5,0.2,1,0.4,1.5c0,0.1,0.2,0.2,0,0.3c-0.2,0.2-0.2,0.5-0.2,0.7c0,0.1,0,0.2,0,0.3c-0.1,0.1-0.3,0.1-0.3,0.2
		c0,0.1,0.1,0.2,0.2,0.3c0,0,0.1,0.3-0.1,0.3c-0.1,0.2-0.2,0.4-0.2,0.6c0,0.1,0,0.3-0.2,0.4c0,0-0.1,0.1-0.1,0.1
		c0.1,0.3-0.2,0.6-0.2,0.9c0,0.1-0.1,0.1-0.2,0.1c-0.3,0-0.4,0.1-0.6,0.3c-0.1,0.2-0.3,0.2-0.4,0.3c-0.1,0.1-0.3,0.1-0.5-0.1
		c-0.1-0.1-0.2,0-0.3,0c-0.4,0.1-0.7,0.1-1.1,0.1c-0.1,0-0.2-0.1-0.3-0.2c0,0,0-0.2-0.1-0.2c-0.4,0-0.4-0.3-0.5-0.6
		c0-0.1,0-0.1-0.1-0.2c-0.3-0.1-0.4-0.3-0.4-0.6c0-0.1,0-0.1-0.1-0.1c-0.1,0-0.2,0-0.2,0.1c0,0.1-0.1,0.1-0.1,0.1
		c-0.1,0-0.1-0.1-0.1-0.2c0-0.3-0.1-0.6,0.2-0.8c0,0,0-0.1,0-0.1c-0.3-0.1-0.1-0.5-0.3-0.7c-0.1-0.1,0-0.2,0.1-0.2
		c0.2-0.3,0.3-0.5,0.2-1c0-0.1,0-0.2,0.1-0.3c0.2-0.2,0.3-0.3,0.4-0.6c0-0.1,0.2-0.3,0.2-0.5c-0.1-0.2,0.3-0.1,0.2-0.3
		c-0.1-0.2,0.1-0.2,0.2-0.2c0.1,0,0.2-0.1,0.2-0.2c0.2-0.2,0.5-0.3,0.6-0.6c0.1-0.1,0.1-0.2,0.3-0.2c0.2,0,0.4,0,0.5-0.2
		c0-0.1,0.1,0,0.1,0c0.1,0.1,0.2,0.2,0.3,0.2c0.3-0.1,0.5,0.2,0.7,0.3C94.5,16,94.5,16,95.2,16z"/>
	<path d="M114.9,25.6c-0.1,0.3-0.4,0.3-0.4,0.6c0,0.1,0,0.6,0.1,0.8c0,0.1,0,0.1-0.1,0.1c-0.3,0.2-0.3,0.2-0.2,0.5
		c0,0.1,0,0.2-0.2,0.2c-0.1,0-0.1,0-0.2-0.1c-0.3-0.1-0.3-0.1-0.3,0.2c0,0.3-0.1,0.3-0.4,0.3c-0.1,0-0.1,0-0.1,0.1
		c0,0.3,0,0.3-0.2,0.3c-0.3,0-0.5,0-0.8,0.2c-0.1,0.1-0.3,0.1-0.3,0c-0.2-0.3-0.5-0.2-0.8-0.2c-0.2,0-0.4-0.1-0.5-0.2
		c-0.2-0.2-0.3-0.4-0.6-0.4c-0.1,0-0.1-0.1-0.1-0.2c0-0.2,0-0.5-0.3-0.5c-0.1,0-0.1-0.1-0.2-0.2c-0.1-0.3-0.3-0.6-0.4-0.9
		c-0.1-0.3-0.1-0.6-0.2-0.8c0-0.1,0-0.2,0-0.2c0.3-0.2,0.2-0.4,0-0.6c-0.1-0.1-0.1-0.2-0.1-0.2c0.1-0.1,0.1-0.1,0.1-0.2
		c0-0.2,0.4-0.3,0.1-0.6c0,0,0.1-0.1,0.1-0.2c0.2,0,0.2-0.2,0.2-0.3c0-0.3,0.1-0.5,0.4-0.5c0.1,0,0.2,0,0.2-0.1
		c0.2-0.3,0.5-0.5,0.9-0.4c0.1,0,0.1,0,0.2-0.1c0.1-0.1,0.1-0.2,0.3,0c0.1,0.1,0.2,0,0.2-0.1c0.1-0.1,0.2-0.2,0.4-0.1
		c0.2,0.1,0.5,0,0.7,0c0.2,0,0.2,0.5,0.5,0.5c0.1,0,0.2,0.2,0.4,0.1c0,0,0.1,0,0.1,0.1c-0.1,0.3,0.3,0.4,0.4,0.6l0.2,0.7
		c0.1,0.3,0,0.6,0.3,0.8c0.1,0,0.1,0.1,0,0.2C114.4,25.2,114.7,25.3,114.9,25.6z"/>
</g>
</svg>
