<?xml version="1.0" encoding="utf-8"?>
<!-- Generator: Adobe Illustrator 27.7.0, SVG Export Plug-In . SVG Version: 6.00 Build 0)  -->
<svg version="1.1" id="Ebene_1" xmlns="http://www.w3.org/2000/svg" xmlns:xlink="http://www.w3.org/1999/xlink" x="0px" y="0px"
	 viewBox="0 0 186.8 132.2" style="enable-background:new 0 0 186.8 132.2;" xml:space="preserve">
<g>
	<path d="M150,101.2c-0.1,0.2-0.1,0.5-0.4,0.5c-0.1,0-0.2,0.1-0.3,0.2c-0.1,0.1-0.1,0.2-0.1,0.2c-0.1,0-0.1-0.1-0.2-0.1
		c0,0-0.1,0-0.1,0c-0.4,0.3-1,0.2-1.2,0.8c-0.2,0-0.3,0.3-0.5,0.1c-0.1-0.1-0.3,0-0.5,0c-0.1,0-0.1,0-0.1,0.1c0,0.4-0.3,0.3-0.5,0.3
		c-0.2,0-0.2,0.1-0.2,0.2c-0.1,0.1-0.2,0.2-0.4,0.1c-0.3-0.2-0.4-0.1-0.5,0.2c-0.1,0.3-0.4,0.3-0.6,0.5c-0.1,0.1-0.4,0.1-0.6,0.2
		c-0.2,0.1-0.4,0.2-0.6,0.2c-0.3,0-0.6,0.1-0.9,0.2c-0.1,0-0.1,0.1-0.3,0.1c-0.2,0-0.3,0.1-0.4,0.2c-0.1,0.1-0.2,0.3-0.3,0.3
		c-0.3,0-0.5,0.2-0.7,0.1c-0.3,0-0.5,0-0.6,0.3c0,0.1-0.5,0.3-0.6,0.2c-0.1-0.1-0.2-0.1-0.3-0.1c-0.2,0.2-0.4,0-0.6,0.2
		c-0.3,0.2-0.5,0.4-0.9,0.4c-0.2,0.3-0.6,0.1-0.7,0.5c0,0.1-0.1,0.1-0.2,0.1c-0.2,0.1-0.5,0.1-0.7,0.3c-0.1,0.1-0.2,0.1-0.2,0
		c-0.4-0.1-0.7,0.2-1.1,0.2c0,0-0.1,0.1-0.1,0.1c-0.3,0.3-0.3,0.3-0.5,0.3c-0.1,0-0.2,0-0.3,0.1c-0.1,0.5-0.6,0.2-0.9,0.4
		c-0.1,0-0.2-0.2-0.3-0.1c-0.1,0-0.3-0.1-0.3,0.2c0,0.1-0.1,0.2-0.3,0.2c-0.4,0-0.6,0.2-0.8,0.5c0,0.1-0.1,0.2-0.2,0.2
		c-0.3-0.1-0.6,0.1-0.9,0.1c0,0-0.1,0-0.1,0c-0.1,0.1-0.2,0.2-0.3,0.4c-0.1,0.1-0.3,0-0.5,0.1c-0.5,0.3-0.9,0.6-1.5,0.5
		c-0.3,0-0.7,0.1-0.9,0.3c-0.2,0.3-0.5,0.4-0.9,0.3c-0.2-0.1-0.3,0.2-0.6,0.1c-0.2,0-0.4,0-0.5,0c-0.1,0.1-0.1,0.2-0.1,0.3
		c0,0.2-0.1,0.3-0.3,0.3c-0.1,0-0.2,0-0.3,0.1c-0.1,0.1-0.1,0.2-0.3,0c-0.2-0.2-0.5-0.2-0.5,0.2c0,0.1,0,0.2-0.2,0.2
		c-0.3,0-0.6-0.1-0.7,0.2c-0.5,0-0.8,0.3-1.1,0.6c-0.1,0.1-0.2,0-0.3,0c-0.2,0-0.2,0-0.5,0.3c-0.1,0.1-0.3,0.2-0.5,0.2
		c-0.2,0-0.4,0-0.7,0c-0.2,0-0.3,0-0.3,0.2c0,0.1-0.1,0.2-0.2,0.1c-0.3,0-0.3,0.3-0.6,0.4c-0.2,0-0.4,0-0.6,0.1
		c-0.3,0.1-0.6,0.2-0.8,0.4c-0.1,0.1-0.1,0.1-0.2,0.1c-0.2,0-0.4,0-0.4,0.3c0,0.1-0.1,0.1-0.2,0.1c-0.2,0-0.3,0-0.5,0
		c-0.1,0-0.1,0-0.2,0.1c0,0.2-0.2,0.2-0.4,0.3c-0.4,0.1-0.9,0.2-1.3,0.5c-0.1,0.1-0.3,0-0.5,0.1c-0.1,0-0.3,0-0.3,0.1
		c-0.1,0.3-0.5,0.3-0.7,0.5c-0.3,0.2-0.6,0.3-0.9,0.2c-0.3,0-0.5,0.2-0.7,0.1c-0.1,0.1-0.1,0.3-0.4,0.2c-0.2,0-0.3,0.2-0.4,0.1
		c-0.1,0-0.1,0-0.1,0.1c-0.1,0.4-0.7,0.3-0.8,0.7c0,0,0,0,0,0c-0.2-0.2-0.4,0-0.6,0.1c-0.2,0.1-0.5,0-0.7,0.1
		c-0.2,0.1-0.5,0-0.6,0.3c0,0-0.1,0.1-0.1,0.1c-0.1,0.1-0.4,0-0.4,0.1c-0.1,0.2-0.2,0.2-0.3,0.2c-0.2-0.1-0.3,0.2-0.5,0.2
		c-0.2-0.1-0.4-0.1-0.5,0.1c-0.1,0.2-0.4,0.1-0.6,0.2c0,0-0.1,0-0.1,0.1c-0.1,0.3-0.3,0.4-0.6,0.3c0,0,0,0-0.1,0
		c-0.5,0-0.5,0-0.8,0.4c-0.1,0.1-0.4,0.3-0.5,0.2c-0.2-0.1-0.3,0-0.5-0.1c-0.2,0-0.3,0-0.4,0.2c-0.2,0.3-0.5,0.5-1,0.4
		c-0.2,0.2-0.6,0.1-0.8,0.5c-0.1,0.2-0.3,0-0.4,0.2c-0.1,0.2-0.2,0.1-0.3,0c-0.1,0-0.2,0-0.3,0.1c-0.1,0.2-0.3,0.2-0.5,0.3
		c-0.1,0-0.1,0.1-0.2,0c-0.2-0.2-0.5-0.1-0.7-0.1c-0.1,0-0.1,0-0.2,0.1c-0.1,0.3-0.4,0.4-0.5,0.6c-0.1,0.1-0.1,0.1-0.2,0.1
		c-0.2,0-0.4,0-0.5,0c-0.2,0-0.1,0.4-0.4,0.2c-0.4,0.2-0.7,0.4-1.1,0.4c-0.1,0-0.3,0.1-0.4,0.2c-0.1,0.1-0.1,0.3-0.3,0.4
		c-0.2,0-0.3-0.2-0.4-0.1c-0.1,0-0.1,0-0.2,0c0,0.3-0.3,0.2-0.5,0.3c-0.3,0.1-0.7,0.1-0.8,0.5c0,0.1-0.1,0.1-0.2,0.1
		c-0.3,0-0.6,0.1-0.9,0.4c-0.1,0.1-0.1,0-0.2,0c0,0-1,0.2-1,0.2c-0.1,0-0.1,0-0.1,0.1c0,0.4-0.2,0.3-0.4,0.2c-0.2-0.1-0.5,0-0.7-0.1
		c-0.1,0-0.2,0.1-0.2,0.2c-0.1,0.2-0.3,0.3-0.5,0.3c-0.2,0-0.4,0.1-0.5,0.2c-0.1,0.2-0.3,0.3-0.5,0.3c-0.2,0-0.4,0.1-0.5,0.2
		c-0.1,0.2-0.3,0.3-0.6,0.2c-0.2,0-0.4,0.1-0.6,0.1c-0.1,0-0.2,0-0.2,0.2c0,0.1-0.1,0.2-0.3,0.2c-0.3,0-0.5,0-0.6,0.3
		c-0.2,0-0.3,0.3-0.6,0.3c0,0.3-0.2,0.2-0.3,0.1c-0.4-0.1-0.6,0-0.6,0.4c0,0.1,0,0.2,0,0.3c-0.3,0-0.5,0-0.6,0.2
		c-0.1,0.1-0.2,0.1-0.3,0.1c-0.1,0-0.3,0.1-0.4,0.2c-0.1,0.1-0.2,0.2-0.3,0.2c-0.4,0.1-0.7,0.4-1.1,0.4c-0.3,0-0.4,0.1-0.5,0.3
		c-0.1,0.2-0.3,0.2-0.5,0.3c-0.1,0-0.2,0-0.2,0c-0.3-0.1-0.6,0.1-0.8,0.3c-0.1,0.1-0.2,0.1-0.3,0.1c-0.3,0-0.7-0.1-1-0.2
		c-0.3-0.1-0.7,0-1-0.3c0,0-0.1,0-0.2,0c-0.3,0.1-0.7,0-1-0.1c-0.2-0.1-0.5-0.1-0.7-0.1c-0.2,0-0.3,0-0.3-0.3c0-0.1-0.2-0.3-0.3-0.3
		c-0.3-0.1-0.5-0.3-0.8-0.3c-0.2,0-0.4-0.1-0.5-0.3c-0.1-0.2-0.2-0.2-0.3-0.2c-0.2,0.1-0.4-0.2-0.6-0.1c-0.2,0-0.3-0.2-0.5-0.3
		c-0.1-0.1-0.2-0.1-0.4-0.1c-0.3,0-0.5,0-0.7-0.3c-0.1-0.1-0.3-0.2-0.6-0.2c-0.2,0-0.4,0.1-0.4-0.2c-0.2,0-0.3-0.2-0.5-0.1
		c-0.2,0-0.2-0.1-0.4-0.1c-0.1-0.1-0.1-0.3-0.2-0.3c-0.1,0-0.3,0-0.3,0c-0.2-0.2-0.4,0-0.5-0.1c-0.1-0.1-0.2-0.3-0.5-0.2
		c-0.1,0-0.2-0.1-0.2-0.2c-0.1-0.2-0.3-0.3-0.4-0.4c-0.2-0.2-0.4-0.3-0.7-0.1c-0.1,0.1-0.3,0-0.4-0.1c0-0.1,0-0.2-0.1-0.2
		c-0.2,0-0.4,0.1-0.5-0.1c-0.1-0.2-0.2-0.3-0.3-0.4c-0.3-0.1-0.6-0.3-1-0.3c-0.1,0-0.2,0-0.3-0.1c-0.1-0.1,0-0.3-0.2-0.3
		c-0.1,0-0.2,0-0.4,0c0,0-0.1,0-0.1,0c-0.2-0.1-0.4-0.2-0.5-0.5c-0.2,0-0.5,0.1-0.6-0.2c0-0.1-0.1-0.1-0.2-0.1
		c-0.3,0.1-0.5-0.2-0.7-0.3c-0.2-0.1-0.4-0.3-0.6-0.4c-0.3,0.1-0.4-0.3-0.7-0.2c0,0-0.1-0.1-0.2-0.1c-0.1-0.1-0.2-0.3-0.5-0.2
		c-0.1,0-0.1-0.1-0.2-0.1c-0.2-0.1-0.3-0.2-0.5-0.2l-1-0.7c-0.1-0.2-0.3-0.1-0.5-0.1c-0.2,0-0.3,0-0.3-0.2c0-0.3-0.1-0.4-0.5-0.4
		c-0.2,0-0.4,0-0.6,0.1c-0.1,0.1-0.3-0.1-0.3-0.3c0-0.1,0-0.2-0.1-0.2c-0.3,0.1-0.4-0.2-0.6-0.2c-0.3-0.1-0.3-0.1-0.3-0.4
		c-0.2-0.1-0.3,0-0.5,0c-0.2,0-0.4,0-0.4-0.3c0-0.1-0.1-0.1-0.2-0.1c-0.3,0-0.5,0.1-0.7-0.2c-0.4,0.1-0.5-0.3-0.7-0.5
		c-0.1,0-0.1-0.1-0.2-0.1c-0.2,0-0.4,0.1-0.4,0c-0.1-0.2-0.1-0.2-0.3-0.2c0,0-0.1,0-0.1,0c0-0.5-0.3-0.3-0.5-0.3
		c-0.3,0-0.5-0.2-0.7-0.1c-0.1,0-0.1-0.1-0.1-0.2c0-0.4-0.3-0.6-0.7-0.6c-0.2,0-0.3,0-0.5,0c-0.2,0-0.5,0.1-0.5-0.3
		c0,0-0.1-0.1-0.1-0.1c-0.3,0-0.3-0.3-0.4-0.5c-0.1,0-0.3,0-0.5,0c-0.2,0-0.4,0.1-0.5-0.2c0,0-0.1,0-0.1,0c-0.2,0-0.5,0.1-0.5-0.2
		c-0.2,0-0.4-0.1-0.6-0.3c0,0-0.1-0.1-0.1-0.1c-0.3,0-0.5-0.1-0.6-0.4c-0.1-0.2-0.3-0.3-0.5-0.3c-0.4,0.1-0.8-0.2-1.1-0.1
		c-0.1-0.2-0.4-0.2-0.4-0.4c-0.1-0.3-0.2-0.2-0.4-0.1c-0.2,0.1-0.2,0.1-0.3-0.1c0-0.1-0.1-0.2-0.2-0.2c-0.3,0.1-0.5-0.2-0.7-0.3
		c-0.2,0-0.1-0.1-0.2-0.2c-0.1-0.1-0.3,0-0.3-0.1c0-0.1-0.1-0.2-0.2-0.2c-0.1,0-0.2-0.1-0.2-0.1c-0.1-0.4-0.4-0.4-0.6-0.3
		c-0.1,0-0.2,0-0.3,0c-0.2,0-0.3-0.1-0.5-0.2c-0.2-0.3-0.2-0.3-0.5-0.3c-0.2,0-0.4,0.1-0.6-0.2c0,0-0.1-0.1-0.1-0.1
		c-0.3,0.1-0.4-0.1-0.5-0.4c0-0.1,0-0.1-0.1-0.1c-0.1,0-0.2,0-0.2,0c-0.3,0.1-0.5-0.1-0.6-0.3c-0.2-0.3-0.4-0.6-0.8-0.3c0,0,0,0,0,0
		c-0.2-0.3-0.4-0.2-0.7-0.2c-0.2,0-0.1-0.2-0.2-0.3c-0.2-0.4-0.5-0.5-0.9-0.5c-0.4,0-0.6-0.1-0.7-0.5c0-0.1-0.1-0.1-0.2-0.1
		c-0.1,0-0.2,0-0.2,0c-0.1,0.1-0.2,0.1-0.3,0c-0.3-0.3-0.6-0.4-1-0.4c-0.1,0-0.2,0-0.2,0c0-0.2-0.2-0.3-0.3-0.4
		c-0.1-0.1-0.3,0.1-0.4-0.2c0-0.1-0.2-0.2-0.4-0.2c-0.4,0-0.6-0.3-0.9-0.4c-0.1-0.4-0.5-0.3-0.8-0.4c-0.2,0-0.3-0.1-0.5-0.1
		c-0.2,0-0.3-0.1-0.3-0.2c0-0.2-0.2-0.2-0.2-0.3c-0.2-0.3-0.5-0.4-0.9-0.2c-0.1,0.1-0.1,0-0.1,0c0-0.1-0.1-0.1-0.2-0.2
		c-0.5-0.1-1-0.2-1.3-0.7c-0.1-0.1-0.2-0.2-0.3-0.1c-0.3,0.1-0.5-0.1-0.6-0.3c-0.1-0.1-0.1-0.2-0.2-0.2c-0.2,0-0.4,0-0.6-0.1
		c-0.3-0.1-0.5-0.1-0.7-0.3c-0.2-0.1-0.3-0.2-0.5-0.3c-0.2-0.1,0-0.3-0.2-0.4c-0.1,0-0.3,0.1-0.4,0c-0.2-0.1-0.4-0.3-0.6-0.2
		c0-0.3-0.4-0.2-0.5-0.3c-0.1-0.1-0.2-0.3-0.3-0.4c-0.1-0.1-0.3-0.1-0.2-0.3c0-0.1-0.1-0.2-0.2-0.2c-0.4,0-0.7-0.5-1.2-0.2
		c0,0-0.1,0-0.1,0c0-0.3-0.2-0.2-0.3-0.2c-0.3,0-0.5-0.1-0.7-0.3c-0.1-0.1-0.2-0.2-0.3-0.3c0,0,0-0.1,0-0.1
		c-0.5,0.1-0.9-0.6-1.4-0.4c-0.2-0.1,0-0.3-0.1-0.4c-0.1-0.1-0.2-0.1-0.4-0.1c-0.3,0-0.5-0.1-0.6-0.3c-0.1-0.2-0.2-0.2-0.4-0.3
		c-0.3-0.1-0.5-0.3-0.8-0.1c-0.1,0-0.2,0-0.2-0.1c-0.2-0.4-0.6-0.5-0.9-0.8c0,0-0.2,0-0.3,0c-0.1,0-0.4,0.1-0.4-0.2
		c0-0.1-0.1,0-0.2,0c-0.2,0-0.4,0-0.5-0.2c-0.1-0.1-0.2-0.1-0.3-0.1c-0.2,0-0.4,0-0.3-0.3c0,0-0.1-0.1-0.1-0.1
		c-0.3,0-0.5-0.3-0.8-0.3c-0.2,0-0.4-0.3-0.6,0c0,0.1-0.1,0-0.1-0.1c-0.1-0.1-0.2-0.2-0.3-0.3c-0.1-0.1-0.3-0.2-0.5-0.2
		c-0.3,0-0.7,0-0.8-0.4c0-0.1-0.2-0.1-0.3-0.2c-0.2-0.1-0.5-0.1-0.5-0.4c0-0.1-0.2-0.1-0.3-0.1c-0.1,0-0.2,0.1-0.3,0.1
		c-0.1,0-0.4,0.1-0.2-0.2c0.1-0.2,0-0.4-0.2-0.4c-0.2,0-0.3-0.1-0.4-0.1C2,95.8,2,95.5,2.2,95.3c0.2-0.1,0.2-0.1,0-0.4
		c0,0-0.1-0.1-0.1-0.1c0-0.2,0-0.4-0.2-0.5c-0.2,0-0.1-0.4-0.4-0.3c-0.1,0-0.2-0.3-0.5-0.2C1,93.9,1,93.7,1,93.7
		c0.1-0.3,0-0.6-0.2-0.9c-0.1-0.2-0.2-0.3,0-0.5c0.1-0.1,0-0.2,0-0.3c0-0.4-0.1-0.7,0.1-1.1c0.1-0.1,0-0.3,0-0.5
		c0-0.1-0.1-0.2,0-0.3c0.1-0.2-0.1-0.3-0.2-0.4c-0.1-0.1-0.1-0.2,0-0.3c0.2-0.5,0.2-1,0.2-1.5c0-0.1-0.2-0.2,0.1-0.2
		c0.1-0.2,0.1-0.3,0-0.5c-0.1-0.1-0.1-0.1-0.2-0.2c0,0-0.1-0.1-0.1-0.1c0.2-0.3,0.1-0.6,0.1-0.9c0,0,0.1-0.1,0.1-0.1
		c0-0.1,0.1-0.2-0.1-0.3c-0.1-0.1-0.2-0.2-0.2-0.4c0-0.1-0.1-0.2-0.1-0.2c0-0.1,0.1-0.2,0.1-0.3c0.1-0.5,0.1-1,0.3-1.5
		c0.1-0.2,0.1-0.5-0.1-0.6c-0.1-0.1-0.1-0.2-0.1-0.3c0-0.3,0.1-0.6-0.2-0.8c-0.1-0.1-0.1-0.4,0-0.6c0.2-0.3,0.1-0.5,0.1-0.8
		c0-0.2,0-0.5,0.2-0.6c0.1-0.1,0.1-0.2,0-0.3c-0.2-0.3-0.2-0.7-0.2-1.1c0-0.4,0.1-0.8-0.1-1.2c-0.1-0.2-0.1-0.4,0-0.6
		c0.1-0.2,0.1-0.3,0.1-0.4c-0.1-0.4-0.1-0.7-0.1-1.1c0-0.1-0.1-0.3,0.1-0.4c0.1-0.1,0.1-0.3,0-0.4c-0.2-0.3-0.2-0.7,0-1
		c0-0.1,0.1-0.2,0-0.3c-0.1-0.1-0.1-0.1-0.1-0.2c0.2-0.2,0.1-0.5,0-0.7c-0.2-0.4-0.2-0.8,0-1.2c0-0.1,0-0.3,0.1-0.4
		c0.1-0.1,0.1-0.4,0-0.4c-0.4-0.2-0.1-0.6-0.3-0.8c-0.1-0.1,0-0.2,0.1-0.2c0.2-0.2,0.3-0.3,0.4-0.5c0.1-0.2,0.1-0.4,0-0.5
		c-0.1-0.1-0.2-0.1-0.1-0.2c0.1-0.5-0.2-1-0.1-1.6c0-0.2,0-0.3-0.1-0.5c-0.1-0.1-0.1-0.3,0.1-0.5c0,0,0.1-0.1,0.1-0.1
		c0-0.2,0.1-0.4-0.1-0.6c0-0.1,0.2-0.2,0.2-0.4c0-0.3-0.1-0.6-0.5-0.8c0.1,0,0.2-0.1,0.2-0.1c0.3-0.3,0.3-0.4,0-0.6
		c-0.2-0.2,0-0.5-0.2-0.6c0,0,0.1-0.2,0.2-0.3c0.2-0.3,0.2-0.3,0-0.5c-0.2-0.3-0.1-0.5,0-0.8c0.1-0.2,0.1-0.3,0-0.4
		c0-0.1-0.1-0.1,0-0.2c0.2-0.3,0.2-0.5,0-0.8c-0.1-0.1-0.1-0.3,0-0.4c0.1-0.1,0.1-0.3,0-0.4c-0.1-0.2-0.1-0.4,0-0.6
		c0.2-0.3,0-0.6,0.2-0.9c0,0,0-0.1,0-0.1c-0.3-0.2-0.2-0.6-0.2-0.9c0-0.1-0.1-0.1-0.2-0.2c-0.1-0.1,0-0.1,0-0.2
		c0.2-0.3,0.2-0.5,0-0.8c-0.1-0.1,0-0.2,0-0.3c0.1-0.5,0.1-1.1,0.3-1.6c0-0.1,0.1-0.2-0.1-0.3c-0.2-0.1-0.2-0.3-0.1-0.5
		c0,0,0-0.2,0-0.2c-0.4-0.2,0.1-0.6-0.2-0.8c0.1-0.1,0.2-0.2,0.3-0.3c0.3-0.3,0.3-0.6,0.1-0.9c-0.1-0.1-0.1-0.3-0.1-0.4
		c0-0.3,0.1-0.7-0.1-1c0,0,0-0.2,0-0.2c0.1-0.5,0.1-0.7-0.1-1.1c0-0.1,0-0.1,0-0.2c0.3-0.4,0.2-0.8,0-1.2c-0.1-0.2-0.1-0.3-0.1-0.4
		c0.2-0.3,0.1-0.7,0.1-1c0-0.2-0.1-0.3,0-0.6c0.1-0.2-0.1-0.4-0.1-0.6c0-0.2,0.2-0.4,0.2-0.6c0,0,0-0.1,0-0.2
		c-0.3-0.2-0.2-0.4-0.2-0.6c0-0.3,0.1-0.6-0.1-0.8c0,0,0-0.1,0-0.2c-0.1-0.2,0.2-0.3,0.3-0.4c0.1-0.2-0.2-0.3-0.1-0.5
		c0.2-0.2,0.1-0.5,0-0.8c-0.1-0.1,0-0.2,0-0.3c0.1-0.3,0.2-0.7,0.3-0.9c0.2-0.3,0.1-0.5,0-0.7c0-0.1-0.1-0.1,0-0.2
		c0.1-0.2,0.2-0.5,0.2-0.7c0-0.2,0-0.4,0-0.6c0-0.3,0-0.4,0.4-0.5c0.2,0,0.5-0.2,0.4-0.4c0-0.3,0.3-0.3,0.3-0.5
		c0-0.2,0.2-0.3,0.3-0.5c0-0.2,0.2-0.3,0.5-0.3c0.4,0,0.8-0.2,1.1-0.5c0.1-0.1,0.3-0.3,0.5-0.3c0.4-0.1,0.6-0.4,1-0.3
		c0.1-0.2,0.4-0.1,0.6-0.1c0.2,0,0.5,0,0.6-0.3c0.2,0,0.4-0.2,0.5-0.4c0.1-0.1,0.1,0,0.2,0c0.2,0,0.4,0,0.6,0c0.2,0,0.4,0,0.5-0.2
		c0-0.1,0.1-0.1,0.2-0.1c0.2,0,0.4-0.1,0.5-0.3c0.1-0.2,0.4-0.2,0.6-0.2c0,0,0.1,0,0.1,0c0.3,0,0.5-0.1,0.6-0.4
		c0.1-0.1,0.1-0.3,0.3-0.2c0.3,0,0.6-0.1,0.8-0.3c0.1-0.1,0.3-0.1,0.4-0.1c0.1,0,0.3,0,0.3-0.1c0.1-0.2,0.2-0.3,0.4-0.2
		c0.3,0,0.6-0.2,0.9-0.2c0.1,0,0.1-0.1,0.1-0.2c0-0.1,0-0.2,0.2-0.2c0.2,0,0.3,0,0.4-0.2c0-0.1,0.1-0.1,0.2-0.1c0.2,0,0.3,0,0.5-0.2
		c0.3-0.2,0.7-0.4,1.1-0.4c0.2,0,0.4,0,0.4-0.2c0.1-0.2,0.3-0.3,0.5-0.2c0.4,0.1,0.7,0,0.9-0.3c0.1-0.1,0.2-0.2,0.3-0.1
		c0.1,0,0.2,0,0.2,0c0.3,0,0.6,0,0.7-0.4c0.1-0.2,0.3-0.4,0.6-0.3c0.2,0,0.4,0,0.4-0.2c0,0,0.1-0.1,0.1-0.1c0.2-0.1,0.4,0.1,0.5-0.1
		c0.1-0.3,0.4,0,0.5-0.2c0.1-0.2,0.4,0,0.6-0.1c0.1,0,0.1,0,0.1-0.1c0-0.3,0.3-0.3,0.5-0.3c0.2,0,0.4-0.1,0.5-0.3
		c0.1-0.2,0.5,0.1,0.4-0.3c0-0.1,0.1,0,0.1,0c0.2,0.2,0.4,0,0.5-0.2c0-0.1,0.1-0.2,0.2-0.1c0.1,0,0.3,0,0.4,0c0.2,0,0.4,0.2,0.5-0.2
		c0-0.1,0.2,0,0.3,0c0.2,0,0.3,0,0.3-0.2c0.1-0.2,0.5,0,0.5-0.4c0.1,0.1,0.2,0.1,0.3,0.1c0.2,0,0.4,0.1,0.4-0.3c0,0,0-0.1,0.1-0.1
		c0.3,0.1,0.5-0.2,0.7-0.2c0.1,0,0.1,0,0.2,0c0.1,0,0.1,0,0.2-0.1c0-0.2,0.2-0.2,0.4-0.2c0.1,0,0.3,0.1,0.3-0.2c0-0.1,0.2,0,0.3,0
		c0.2,0,0.5,0.1,0.7-0.1c0.2,0.1,0.1-0.2,0.3-0.2c0.1,0,0.3,0,0.4,0c0.1,0,0.2-0.1,0.3-0.2c0.1-0.1,0.2-0.1,0.3-0.2
		c0.5-0.1,0.5-0.1,0.9-0.5c0.2-0.2,0.3-0.2,0.6-0.2c0.2,0,0.4,0,0.6-0.1c0.1-0.1,0.2,0,0.3-0.2c0-0.1,0.2-0.2,0.3-0.2
		c0.1,0,0.2,0,0.4,0c0.3,0.1,0.5,0,0.6-0.4c0-0.1,0-0.1,0.1-0.1c0.2,0.1,0.3-0.1,0.5-0.2c0.2-0.1,0.4,0,0.5-0.2c0-0.1,0,0,0.1,0
		c0.4,0.3,0.7-0.1,1.1,0c0.1,0,0.1-0.1,0.1-0.2c0-0.2,0-0.2,0.2-0.1c0.1,0.1,0.3,0,0.4-0.1c0.1-0.1,0.2-0.2,0.3-0.3
		c0,0,0.1-0.1,0.1,0c0.3,0.2,0.4-0.1,0.4-0.2c0.1-0.2,0.2-0.3,0.4-0.2c0.2,0.2,0.4,0.1,0.5-0.1c0.1-0.1,0.2-0.2,0.4-0.2
		c0.3,0,0.5-0.3,0.9-0.2c0,0,0-0.1,0.1-0.1c0-0.1,0.1-0.1,0.1-0.2c0.1-0.1,0.4,0.1,0.4-0.1c0-0.3,0.2-0.2,0.4-0.2
		c0.4-0.1,0.8-0.1,1.1-0.3c0.1-0.1,0.2-0.2,0.4-0.1c0.2,0,0.4,0.1,0.4-0.2c0.2,0,0.5-0.1,0.7-0.1c0.2,0,0.5,0,0.6-0.2
		c0.2-0.2,0.5-0.1,0.6-0.5c0,0,0.1,0,0.2,0c0.1,0,0.3,0,0.4-0.1c0.2-0.1,0.4-0.2,0.7-0.2c0.2,0,0.3,0,0.3-0.2c0-0.3,0.2-0.1,0.3-0.1
		c0,0,0.1,0,0.1,0c0.1-0.1,0.2-0.3,0.4-0.2c0.2,0,0.4,0,0.5,0c0.2,0,0.2-0.1,0.2-0.2c0-0.1,0.1-0.1,0.1-0.1c0.2-0.1,0.5-0.2,0.7-0.1
		c0.2,0,0.3,0,0.4-0.2c0-0.1,0.1-0.3,0.3-0.2c0.1,0,0.1,0,0.1-0.1c0.2-0.3,0.6-0.4,0.9-0.4c0.3,0,0.5-0.2,0.8-0.3
		c0.1,0,0.1-0.2,0.2-0.3c0.1,0,0.2,0.1,0.3,0.1c0.1,0,0.1-0.1,0.2-0.1c0.1-0.1,0.1-0.1,0.2-0.1c0.2,0,0.4-0.1,0.6-0.2
		c0.2-0.1,0.5-0.1,0.7-0.4c0.1-0.1,0.1,0,0.1,0c0.2,0.1,0.4,0.1,0.5-0.1c0.2-0.2,0.4-0.2,0.6-0.2c0.2,0,0.3,0,0.5,0
		c0.1-0.3,0.4-0.3,0.5-0.5c0.1-0.2,0.1-0.2,0.3-0.2c0.2,0,0.3,0,0.5,0c0.1,0,0.2,0,0.3-0.1c0.2-0.3,0.5-0.3,0.7-0.4
		c0.1,0,0.2,0,0.2-0.2c0-0.1,0.1-0.1,0.2-0.1c0.2,0.2,0.5,0,0.7,0.1c0.1-0.2,0-0.3,0.1-0.5c0.1,0,0.3,0,0.4,0c0.2,0,0.4,0,0.6-0.2
		c0,0,0.1-0.1,0.1-0.1c0.3,0,0.6-0.2,0.9-0.2c0.2,0,0.5-0.1,0.6-0.3c0.2-0.2,0.4-0.2,0.6-0.2c0.1,0,0.2,0,0.3,0
		c0.2,0,0.3-0.1,0.4-0.2c0.1-0.3,0.2-0.3,0.4-0.3c0.2,0,0.4,0,0.6-0.2c0.1-0.1,0.2-0.1,0.3-0.1c0.2,0,0.4,0.1,0.4-0.2
		c0-0.1,0.1,0,0.2,0c0.2,0,0.4,0,0.5-0.2c0.1-0.1,0.2-0.1,0.3-0.1c0.2,0,0.4,0.1,0.4-0.2c0-0.1,0.1-0.1,0.2-0.1
		c0.2,0,0.5-0.1,0.7-0.1c0.3,0,0.5-0.1,0.7-0.3c0.4-0.2,0.8-0.4,1.2-0.7c0.1-0.1,0.2-0.1,0.4-0.1c0.2,0,0.5,0.1,0.6-0.2
		c0.1-0.1,0.1-0.1,0.2,0c0.2,0,0.2,0,0.3-0.2c0-0.1,0.2-0.2,0.4-0.1c0.3,0.2,0.5,0,0.7-0.3c0.1-0.2,0.2-0.3,0.4-0.3
		c0.2,0,0.3,0,0.3-0.2c0-0.1,0.1,0,0.2,0c0.3,0.1,0.5-0.1,0.7-0.3c0.1-0.1,0.2-0.2,0.4-0.2c0.2,0.1,0.4-0.1,0.6-0.1
		c0.1,0,0.2-0.1,0.2-0.1C74.1,3.1,74.3,3,74.5,3c0.2,0,0.5-0.1,0.7-0.3c0.1-0.2,0.3-0.1,0.5-0.1c0.3-0.1,0.6-0.2,1-0.2
		c0.2,0,0.4,0,0.5-0.2c0.2-0.4,0.6-0.5,1-0.5c0.2,0,0.4-0.1,0.5-0.2c0.3-0.3,0.7-0.3,1.1-0.3c0.2,0,0.2-0.1,0.3-0.2
		c0.2-0.3,0.4-0.5,0.8-0.6c0.1,0,0.2-0.1,0.3-0.2c0.3-0.3,0.3-0.3,0.7,0c0,0,0,0,0,0c0.1,0.2,0.4,0,0.5,0.2c0.1,0.1,0.3,0.3,0.4,0.4
		c0.3-0.1,0.5,0.3,0.9,0.2c0.1,0,0.1,0.1,0.2,0.1c0.2,0,0.2,0.2,0.3,0.3c0.2,0,0.3,0,0.5,0c0.2,0,0.1,0.4,0.4,0.3
		c0.1-0.1,0.2,0.3,0.4,0.2c0.2-0.1,0.3,0.2,0.4,0.3c0.3,0.1,0.6,0.3,0.8,0.4C87.1,2.7,87.3,3,87.6,3c0,0,0,0,0,0
		c0.1,0.3,0.4,0.2,0.5,0.4c0,0,0.1,0.1,0.1,0.1c0.3-0.1,0.5,0.3,0.7,0.2c0.4-0.1,0.7,0.2,1,0.4c0.1,0,0.2,0.1,0.3,0.1
		c0.3,0,0.5,0.3,0.8,0.3c0.1,0.3,0.5,0.3,0.5,0.6c0,0.2,0.2,0.2,0.4,0.2c0.1,0,0.1,0,0.2,0c0.2,0,0.5-0.1,0.6,0.2
		c0.3,0,0.5,0.2,0.7,0.2c0.2,0.1,0.3,0.1,0.4,0.2c0.1,0.1,0.2,0.2,0.4,0.2c0.3-0.1,0.3,0.3,0.6,0.3c0.2,0,0.4,0,0.6,0.1
		c0.3,0.1,0.4,0.2,0.5,0.4c0.1,0.1,0.1,0.2,0.2,0.1c0.4-0.2,0.7,0,0.8,0.3c0.1,0.2,0.3,0.3,0.4,0.3c0.2,0,0.2,0.1,0.2,0.3
		C97.6,8,97.7,8,97.8,8c0.2,0,0.3,0,0.5,0c0.2,0,0.4,0,0.4,0.3c0,0.1,0.1,0.1,0.2,0.1c0.1,0,0.2,0,0.4,0c0.1,0,0.2,0,0.2,0.2
		c0,0.3,0.1,0.3,0.4,0.3c0.4,0,0.6,0.1,1,0.3c0.2,0.1,0.4,0.3,0.7,0.3c0.1,0,0.2,0.1,0.2,0.2c0,0.1,0,0.2,0,0.2c0.1,0,0.3,0.1,0.3,0
		c0.1-0.1,0.2-0.1,0.3,0c0.1,0.1,0.2,0.2,0.3,0.2c0.4-0.1,0.4,0.3,0.6,0.4c0.2,0.1,0.1,0.4,0.3,0.3c0.3,0,0.2,0.2,0.3,0.3
		c0.2,0.1,0.5,0.2,0.8,0.1c0.2-0.1,0.1,0,0.2,0.1c0.1,0.3,0.3,0.5,0.7,0.5c0.2,0,0.4-0.2,0.5,0.2c0,0.1,0.1,0,0.2,0.1
		c0.1,0,0.4-0.1,0.4,0.2c0,0.1,0.3,0,0.4,0c0.2,0,0.4,0,0.5,0.2c0.1,0.2,0.4,0.2,0.4,0.5c0.2,0.1,0.5,0.1,0.7,0.2
		c0.1,0.1,0.3,0,0.4,0c0.1,0,0.3-0.1,0.4,0c0.1,0.1,0.1,0.2,0.2,0.3c0.1,0.1,0,0.3,0.2,0.3c0.2,0,0.3,0,0.5-0.1
		c0,0.2,0.1,0.4,0.3,0.3c0.3-0.1,0.5,0.3,0.7,0.3c0,0,0.1,0.1,0.1,0.1c0.1,0.1,0.4,0,0.4,0.1c0.1,0.2,0.2,0.3,0.3,0.2
		c0.1,0,0.2,0.1,0.3,0.1c0.2,0,0.1,0.2,0.2,0.2c0.1,0,0.2,0,0.4,0c0.2,0,0.3,0.2,0.4,0.3c0.1,0.1,0,0.2,0.2,0.2
		c0.3,0,0.5,0.1,0.7,0.3c0.2,0.2,0.4,0.3,0.7,0.3c0.3,0,0.6,0.1,0.8,0.4c0.1,0.2,0.3,0.4,0.6,0.2c0.1-0.1,0.3,0.1,0.5,0.1
		c0,0.3,0.2,0.2,0.4,0.2c0.1,0,0.2,0,0.3,0.1c0.2,0.1,0.2,0.4,0.5,0.4c0,0,0,0.1,0,0.1c0.1,0.3,0.4,0.4,0.7,0.4
		c0.2,0,0.4,0.1,0.6,0.1c0.1,0,0.3,0.1,0.3,0.2c0.1,0.3,0.2,0.3,0.5,0.3c0.1,0,0.2,0.2,0.3,0.1c0.1,0.3,0.3,0.3,0.5,0.2
		c0.3,0,0.4,0.1,0.6,0.3c0.1,0.3,0.5,0.3,0.7,0.4c0.1,0,0.3-0.1,0.3,0.2c0,0.1,0.2,0,0.3,0c0.2,0,0.5,0,0.6,0.3
		c0,0.1,0.1,0.1,0.1,0.1c1,0.4,1,0.3,1.8,1.1c0.2,0.2,0.4,0.4,0.7,0.2c0.1-0.1,0.3,0,0.4,0.1c0.2,0.2,0.5,0.5,0.8,0.6
		c0.1,0.2,0.4,0,0.5,0.2c0.1,0.1,0.3,0.2,0.5,0.2c0.1,0,0.1,0,0.2,0c0.2,0.3,0.6,0.3,0.8,0.5c0.2,0.2,0.5,0.4,0.8,0.3
		c0.1,0,0.1,0,0.2,0.2c0.1,0.2,0.2,0.1,0.4,0.1c0.2,0,0.3,0.1,0.3,0.2c0,0.3,0.2,0.3,0.4,0.3c0.4,0,0.6,0.1,1,0.3
		c0.3,0.2,0.7,0.3,1.1,0.4c0.2,0,0.1,0.3,0.3,0.3c0.3-0.1,0.4,0.2,0.5,0.2c0.3,0,0.4,0.2,0.6,0.3c0.1,0,0.1,0.1,0.2,0.2
		c0.3,0.3,0.6,0.6,1,0.5c0.3,0,0.5,0.2,0.7,0.1c0.1,0.3,0.5,0.2,0.6,0.5c0,0.1,0.1,0.1,0.2,0.1c0.4,0,0.4,0,0.5,0.1
		c0.1,0.2,0.3,0.2,0.5,0.2c0.1,0,0.2,0,0.3,0c0.1,0.2,0.1,0.3,0.2,0.5c0.1,0.1,0.2,0.2,0.3,0.1c0.1,0,0.1,0,0.2,0
		c0.4,0,0.5,0,0.6,0.4c0,0.2,0.2,0.2,0.2,0.1c0.2-0.2,0.4,0,0.6,0c0.2,0.1,0.5,0.1,0.6,0.4c0,0,0.1,0.1,0.1,0.1
		c0.5,0.2,0.5,0.2,0.9,0.5c0.2,0.2,0.5,0.3,0.7,0.4c0,0,0.1,0,0.2,0c0.1,0,0.1-0.2,0.2,0c0.1,0.2,0.3,0.3,0.5,0.4
		c0.3,0,0.2,0.4,0.4,0.4c0.2,0,0.4,0,0.6,0c0.1,0,0.3,0.1,0.4,0.3c0,0.2,0.2,0.4,0.5,0.3c0.1,0,0.1,0,0.1,0.1
		c0.1,0.1,0.1,0.2,0.2,0.3c0.1,0,0.2,0,0.4,0c0.1,0,0.2,0,0.2,0.1c0.2,0.3,0.6,0.5,0.8,0.7c0.2,0.2,0.4,0.4,0.7,0.2
		c0.1-0.1,0.3,0,0.4,0.1c0.1,0.2,0.2,0.3,0.4,0.2c0.2,0,0.3,0,0.3,0.2c0,0,0.2,0,0.3,0c0.1,0,0.2,0.1,0.3,0.2
		c0.2,0.4,0.3,0.5,0.8,0.5c0.1,0,0.3-0.1,0.3,0.2c0,0.1,0,0.1,0.1,0.1c0.1,0,0.2,0,0.3,0c0.1-0.1,0.1-0.1,0.2,0
		c0.1,0.1,0.2,0.2,0.3,0.4c0.2,0.3,0.5,0.6,0.9,0.6c0.3,0,0.3,0.2,0.4,0.3c0.2,0.3,0.2,0.4,0.5,0.3c0.1,0,0.1-0.1,0.1,0.1
		c0,0.2-0.1,0.4,0.2,0.4c0,0,0,0.1,0,0.1c0,0.2,0.1,0.4,0.1,0.7c0.1,0.3,0.3,0.6,0,0.9c0.1,0.3,0.1,0.6,0.2,0.9c0,0.1,0.1,0.2,0,0.3
		c0,0,0,0.1,0,0.2c0,0.2,0.2,0.3,0,0.5c-0.1,0.1,0,0.3,0,0.5c0,0.2,0,0.4,0,0.5c0,0.2,0,0.4,0,0.6c0.1,0.2-0.1,0.3,0,0.5
		c0,0.2,0,0.4-0.1,0.6c-0.1,0.2,0.3,0.4,0,0.6c0,0.2,0,0.4,0,0.7c0.1,0.3,0.1,0.5-0.1,0.8c-0.1,0.1-0.1,0.3,0,0.4
		c0.1,0.3,0.1,0.5,0,0.8c-0.1,0.2-0.1,0.4,0.1,0.7c0.1,0.2,0.3,0.4,0,0.7c-0.1,0.1,0,0.3,0,0.5c0,0.2-0.2,0.3-0.1,0.4
		c0,0.1,0,0.2,0,0.2c0.2,0.1,0,0.3,0.1,0.4c0.1,0.1-0.1,0.3,0,0.4c0.1,0.1,0.1,0.2,0,0.3c-0.1,0.1,0.1,0.3,0.1,0.3
		c-0.1,0.2,0,0.3-0.1,0.5c0,0.1,0.1,0.2,0.1,0.4c0.1,0.2,0.1,0.4,0,0.5c-0.1,0.2-0.1,0.4-0.1,0.7c0,0.1,0,0.2-0.1,0.4
		c-0.2,0.2-0.1,0.3,0,0.6c0.1,0.2,0.3,0.3,0.1,0.6c-0.1,0.1-0.1,0.4,0,0.5c0.1,0.2-0.1,0.3,0,0.4c0.1,0.1,0,0.3,0,0.5
		c0,0.1,0.1,0.1,0,0.2c-0.2,0.1-0.2,0.4-0.1,0.6c0.2,0.3,0.1,0.6,0.1,0.9c0,0.3,0,0.6,0.1,0.9c0.1,0.2,0.1,0.5-0.2,0.8
		c-0.3,0.3-0.3,0.7-0.1,1c0.1,0.4,0.1,0.9,0.3,1.2c0.1,0.1,0,0.2-0.1,0.3c-0.2,0.1-0.3,0.4-0.3,0.6c0,0.2,0,0.4,0.2,0.6
		c0.1,0.1,0.1,0.2,0.2,0.3c0.1,0.1,0.1,0.3,0.1,0.4c-0.2,0.5-0.1,0.9-0.1,1.4c0,0.4-0.1,0.7-0.3,1c-0.1,0.2-0.2,0.4,0,0.5
		c0.2,0.1,0.1,0.3,0.1,0.4c-0.2,0.4-0.1,0.7,0,1.1c-0.3,0.2,0.1,0.5-0.1,0.8c-0.2,0.3,0,0.6,0.1,0.9c0.1,0.2,0.1,0.2,0,0.4
		c-0.1,0.2-0.3,0.5,0.1,0.8c0.1,0.1,0.1,0.2,0,0.2c-0.1,0.2,0,0.4,0,0.6c-0.2,0.1-0.2,0.4-0.2,0.6c0,0.1-0.1,0.3,0.1,0.4
		c0.1,0,0.1,0.2,0,0.3c-0.1,0.2-0.1,0.5,0,0.7c-0.2,0.2,0,0.5-0.2,0.8c0,0-0.1,0.2,0,0.3c0.2,0.2,0.1,0.5,0.3,0.8
		c0,0.1,0,0.1-0.1,0.2c-0.3,0.2-0.2,0.5-0.1,0.8c0.1,0.3,0.1,0.5-0.1,0.7c-0.1,0.1-0.1,0.2,0,0.3c0.1,0.2,0.3,0.4,0.2,0.6
		c-0.1,0.2-0.1,0.4-0.1,0.6c0,0.1-0.1,0.1-0.1,0.2c-0.1,0.1-0.1,0.2-0.1,0.4c0.1,0.3,0.2,0.6,0.2,0.9c0,0.2-0.2,0.4,0,0.7
		c-0.2,0.2-0.1,0.4-0.2,0.7c-0.1,0.3-0.1,0.6-0.2,0.9c0,0.2,0,0.5,0.1,0.6c0.2,0.2,0,0.4,0.2,0.6c0.1,0,0,0.1-0.1,0.1
		c-0.3,0.4-0.4,0.7-0.1,1c0.2,0.2,0.2,0.4,0.1,0.5c-0.1,0.2-0.2,0.4,0,0.6c0.1,0.1,0.1,0.1,0,0.2c-0.2,0.2-0.1,0.4,0.1,0.6
		c0,0,0.1,0.1,0.1,0.1c-0.3,0.2,0,0.6-0.2,0.9c-0.1,0.1,0,0.3,0,0.4c0,0.1,0,0.2,0,0.2c-0.1,0.1-0.2,0.2-0.2,0.4
		c0,0.4,0,0.8,0.2,1.1c0.1,0.1,0.2,0.3,0.2,0.4c-0.2,0.3,0.1,0.6-0.2,0.9c-0.1,0.1-0.1,0.3,0,0.4c0.1,0.2,0.2,0.3,0,0.6
		c-0.1,0.1-0.1,0.3,0,0.5c0.1,0.4,0.1,0.7,0,1.1c-0.1,0.2,0.2,0.4,0.1,0.6c-0.1,0.2-0.3,0.3-0.2,0.6c0,0.1,0,0.2,0.1,0.3
		c0.2,0.1,0.1,0.2,0,0.3c-0.1,0.1-0.1,0.3,0,0.5c0,0.1,0.1,0.2,0.1,0.2c0.1,0.2,0.1,0.5-0.1,0.7c-0.2,0.2-0.3,0.4-0.1,0.6
		c0.1,0.2,0,0.2-0.1,0.3c-0.1,0.1-0.2,0.1-0.4,0.1c-0.2,0-0.3,0.1-0.3,0.3c0,0.2,0,0.3,0.2,0.3c0.1,0,0.2,0.1,0.3,0.1
		c0.1,0,0.2,0.1,0.1,0.2c0,0.1-0.1,0.1-0.1,0.2c0,0.1,0,0.2,0.2,0.2c0.2,0,0.2,0.1,0.1,0.2c-0.2,0.2-0.3,0.3-0.1,0.6
		c0.1,0.1-0.1,0.2-0.1,0.2c-0.1,0.1-0.3,0.1-0.2,0.3c0.1,0.3-0.2,0.3-0.3,0.4c-0.1,0-0.2,0-0.3,0c-0.3,0-0.6,0-0.7,0.4
		c0,0.1-0.1,0.1-0.2,0.1c-0.2-0.1-0.4,0.2-0.6,0.1c-0.1,0-0.3,0.1-0.3,0.3c0,0.1-0.2,0.1-0.3,0.2c-0.1,0.1-0.2-0.1-0.3-0.1
		C150.4,101.2,150.4,101.2,150,101.2z M44.9,111.5c0,0.2,0,0.3,0.1,0.5c0.1,0.1,0.2,0.1,0.3,0.1c0.1,0,0.2,0,0.3-0.1
		c0.1-0.1,0.3-0.1,0.3,0.2c0,0.2,0.2,0.3,0.4,0.3c0.1,0,0.3-0.1,0.3,0c0,0.3,0.2,0.2,0.3,0.2c0.1,0,0.2,0,0.2,0.1
		c0,0.3,0.2,0.2,0.3,0.2c0.1,0,0.3-0.1,0.4,0.1c0.1,0.1,0.3,0.3,0.5,0.3c0,0.2,0.2,0.3,0.3,0.5c0.1,0.1,0.2,0.2,0.4,0.1
		c0.4,0,0.6,0.4,1,0.2c0,0,0,0.1,0.1,0.1c0.1,0.3,0.3,0.4,0.6,0.4c0.2,0.2,0.5,0,0.6,0.2c0.1,0.2,0.3,0.2,0.5,0.2
		c0.1,0,0.2,0,0.3,0.2c0.1,0.3,0.7,0.5,1,0.6c0.1,0,0.2,0,0.2,0.1c-0.1,0.3,0.3,0.3,0.4,0.4c0.1,0.2,0.3,0.3,0.5,0.1
		c0.1-0.1,0.1,0,0.1,0c0,0.3,0.3,0.3,0.5,0.3c0.2,0,0.5,0.1,0.6,0.2c0.3,0.2,0.3,0.2,0.5,0.3c0.3,0.1,0.6,0.1,0.7,0.4
		c0.1,0.3,0.3,0.2,0.4,0.2c0.2,0,0.4-0.1,0.4,0.2c0.3,0.2,0.6,0.5,1,0.4c0.1,0,0.1,0,0.1,0.1c0.1,0.3,0.3,0.4,0.6,0.4
		c0.1,0,0.3,0.1,0.4,0.2c0.1,0.2,0.3,0.2,0.5,0.2c0.3,0,0.5,0.1,0.7,0.2c0.2,0.1,0.2,0.5,0.5,0.2c0,0,0.1,0.1,0.1,0.1
		c0,0.1,0,0.2,0.1,0.1c0.3-0.1,0.5,0.1,0.5,0.4c0.1,0.3,0.2,0.4,0.5,0.3c0.3,0,0.7,0.1,0.9,0.4c0.2,0.2,0.3,0.2,0.6,0.2
		c0.2,0,0.4,0,0.6,0.1c0.2,0.1,0.1,0.2,0.2,0.2c0.1,0,0.3,0,0.3,0c0.1,0.1,0.3,0.1,0.4,0.2c0.3,0.3,0.6,0.5,1,0.6
		c0.4,0.2,0.7,0.5,1.1,0.3c0.1,0.1,0.3,0.1,0.4,0.1c0.1,0,0.1,0.1,0.1,0.1c0,0.1,0.1,0.2,0.1,0.3c0,0.1,0.1,0.2,0.2,0.1
		c0.1,0,0.2,0,0.2,0c0.2-0.3,0.4,0.1,0.5,0.1c0,0.3,0.2,0.2,0.4,0.1c0.1-0.1,0.2-0.1,0.2,0.1c0,0.2,0.1,0.3,0.3,0.3
		c0.4,0.1,0.8,0.2,1.1,0.6c0.1,0.1,0.1,0,0.2,0c0.2,0,0.3,0.3,0.5,0.3c0.1,0,0.4,0,0.4,0.3c0.3,0,0.5,0.3,0.7,0.1
		c0.1-0.1,0.2-0.1,0.2,0.1c0,0.1,0.2,0.2,0.1,0.4c0,0.1,0,0.1,0.1,0.1c0.3-0.1,0.4,0.2,0.7,0.1c0.2,0,0.3,0,0.4,0.1
		c0,0.1,0.1,0.1,0.2,0.1c0.2,0,0.3,0.1,0.4,0.2c0.2,0.1,0.5,0.2,0.6,0c0.1-0.1,0.3-0.1,0.4-0.1c0.1,0,0.2,0,0.3-0.1
		c0.1-0.1,0.2-0.1,0.4-0.1c0.2,0,0.3,0,0.5,0c0.1,0,0.2,0,0.2-0.1c0.1-0.3,0.3-0.3,0.5-0.2c0.1,0,0.2,0,0.2-0.1
		c0.1-0.3,0.3-0.3,0.5-0.2c0.2,0,0.4,0,0.5-0.2c0.1-0.2,0.3-0.3,0.5-0.4c0.2,0,0.4,0.2,0.5-0.1c0.3,0.3,0.4,0,0.6-0.2
		c0,0,0.1-0.1,0.1-0.1c0.2,0,0.4-0.2,0.5-0.3c0-0.2,0.2-0.3,0.3-0.3c0.3,0,0.4-0.1,0.6-0.3c0-0.1,0.1,0,0.2,0
		c0.4,0.1,0.4,0.1,0.6-0.2c0.1-0.1,0.2-0.2,0.2-0.2c0.3,0.1,0.5-0.2,0.7-0.4c0.1-0.1,0.2-0.1,0.3,0c0.1,0.1,0.3,0.1,0.5-0.1
		c0.2-0.1,0.4-0.2,0.6-0.2c0.1,0,0.1,0,0.2-0.1c0.2-0.5,0.2-0.5,0.7-0.5c0.2,0,0.4,0,0.6-0.2c0.1-0.1,0.3-0.2,0.5-0.1
		c0.2,0.1,0.4-0.2,0.6-0.1c0-0.3,0.2-0.3,0.4-0.2c0.4,0,0.7-0.1,0.9-0.4c0.1-0.2,0.4,0,0.4-0.2c0.1-0.3,0.3-0.1,0.4-0.1
		c0.2-0.1,0.3-0.1,0.4-0.2c0.3-0.2,0.6-0.3,1-0.3c0.2,0,0.4-0.2,0.6-0.2c0.1-0.3,0.5-0.4,0.7-0.7c0.1-0.1,0.1-0.1,0.2-0.1
		c0.2,0,0.4-0.1,0.6-0.2c0.1,0,0.1-0.1,0.2,0c0.3,0.3,0.5,0,0.7-0.2c0.1-0.1,0.2-0.4,0.5-0.3c0.1,0,0-0.2,0.1-0.2
		c0.1,0,0.1,0.1,0.3,0.1c0.3,0,0.6,0,0.7-0.3c0-0.2,0.2-0.1,0.4-0.1c0.3,0,0.5,0,0.6-0.3c0-0.1,0.1-0.1,0.2-0.2
		c0.4-0.2,0.8-0.3,1.2-0.2c0.1,0,0.2,0,0.3-0.1c0.3-0.4,0.7-0.6,1.2-0.6c0.1,0,0.2,0,0.3-0.1c0.1-0.1,0.2-0.1,0.4-0.1
		c0.2,0,0.4,0,0.6,0c0.1,0,0.1-0.1,0.2-0.1c0.2-0.2,0.6-0.3,0.8-0.6c0,0,0.1,0,0.1,0c0.4,0.1,0.6-0.2,0.9-0.4c0.1-0.1,0.2-0.1,0.3,0
		c0.4,0.2,0.9,0,1.3-0.1c0.3-0.1,0.4-0.4,0.8-0.5c0,0,0.1-0.1,0.1-0.1c0-0.3,0.2-0.2,0.3-0.1c0.4,0.1,0.4,0.1,0.7-0.3
		c0.1-0.2,0.3-0.4,0.6-0.4c0.1,0,0.2,0,0.4-0.1c0.3-0.1,0.7-0.3,1.1-0.3c0.1,0,0.2,0.1,0.3,0c0.1-0.2,0.3-0.2,0.5-0.2
		c0.3,0,0.5-0.1,0.6-0.3c0.1-0.2,0.4-0.4,0.7-0.4c0.3,0,0.5-0.1,0.6-0.3c0.2-0.3,0.4-0.5,0.8-0.4c0.1,0,0.2,0,0.3-0.1
		c0.1-0.1,0.1-0.1,0.2-0.1c0.2,0.1,0.4-0.1,0.7-0.1c0.2,0,0.4-0.2,0.6-0.2c0.2,0,0.5,0.1,0.5-0.2c0.2,0,0.4,0,0.5,0
		c0.2,0,0.1-0.3,0.3-0.3c0.1,0,0.2,0,0.3-0.1c0.2-0.3,0.4-0.3,0.7-0.3c0.3,0,0.6-0.1,0.8-0.3c0.2-0.2,0.2-0.2,0.5-0.2
		c0.2,0,0.3-0.2,0.4-0.1c0-0.3,0.3-0.2,0.5-0.2c0.3,0,0.5-0.1,0.6-0.3c0.1-0.2,0.2-0.2,0.3-0.2c0.1,0,0.2,0,0.3,0
		c0.2,0,0.2,0,0.3-0.2c0-0.1,0-0.3,0.2-0.3c0.2,0,0.5,0.1,0.7-0.2c0.1,0,0.3-0.1,0.4,0.1c0.1,0.1,0.2,0.1,0.3,0
		c0.2-0.4,0.2-0.4,0.5-0.4c0.4-0.1,0.7-0.3,1.1-0.4c0,0,0.1-0.1,0.1-0.1c0.1-0.3,0.2-0.4,0.5-0.3c0,0,0.1,0,0.1,0
		c0-0.3,0.2-0.2,0.4-0.2c0.1,0,0.2,0,0.2,0c0.1-0.2,0.5-0.1,0.6-0.4c0-0.1,0.1,0,0.1,0c0.3,0.3,0.7-0.2,1,0c0.1,0,0.2-0.1,0.2-0.2
		c0-0.3,0.2-0.4,0.5-0.4c0.2,0,0.4-0.1,0.6-0.2c0.1-0.1,0.2-0.2,0.3,0c0,0,0.1,0,0.2,0c0.2,0,0.3,0,0.3-0.2c0-0.3,0.4-0.6,0.6-0.5
		c0.5,0.4,0.7-0.2,1.1-0.2c0,0,0-0.1,0-0.1c-0.1-0.2,0.1-0.3,0.3-0.2c0.2,0,0.2-0.1,0.3-0.2c0.1-0.1,0.2,0.1,0.3,0.1
		c0,0,0.1,0,0.1,0c0-0.3,0.2-0.2,0.4-0.2c0.2,0,0.3,0.1,0.5-0.1c0.1-0.1,0.2-0.3,0.4-0.4c0.2,0,0.3,0.1,0.5,0.1
		c0.2,0,0.2-0.1,0.3-0.2c0-0.1,0.1-0.1,0.1-0.2c0.2-0.2,0.5-0.1,0.6-0.4c0.3-0.1,0.5,0,0.8,0c0,0,0.1,0,0.1,0c0.1,0,0.2-0.1,0.2-0.2
		c0-0.4,0.2-0.3,0.5-0.3c0.2,0,0.3,0,0.5-0.1c0.2-0.1,0.2-0.1,0.3-0.2c0.1-0.1,0.3,0,0.5,0c0.1,0,0.1-0.1,0.1-0.2
		c0-0.2,0.1-0.2,0.2-0.1c0.4,0.1,0.4,0.1,0.6-0.2c0.2-0.2,0.3-0.3,0.7-0.2c0.2,0,0.4,0.1,0.5-0.1c0.1-0.1,0.3-0.1,0.4-0.3
		c0.1-0.2,0.3-0.2,0.5-0.2c0.1,0,0.2-0.1,0.3-0.1c0.2,0,0.4-0.2,0.7-0.1c0.2,0,0.3-0.1,0.4-0.2c0-0.1,0-0.1,0.1-0.1
		c0.3,0,0.4-0.4,0.7-0.2c0.2-0.2,0.4-0.3,0.6-0.2c0,0,0.1-0.1,0.1-0.1c0-0.3,0.3-0.2,0.4-0.2c0.5,0,0.6,0,0.9-0.2
		c0.1-0.1,0.2-0.3,0.4-0.2c0.2-0.3,0.5-0.2,0.7-0.3c0.3-0.1,0.7-0.2,1-0.3c0.1,0,0.2,0,0.2-0.1c0-0.2,0.1-0.2,0.2-0.2
		c0.2,0,0.3,0,0.3-0.2c0-0.1,0.1-0.2,0.2-0.2c0.3,0.1,0.5-0.2,0.7-0.1c0.2,0,0.3-0.1,0.3-0.2c0.1-0.1,0.1-0.2,0.3-0.1
		c0.2,0.1,0.5,0,0.4-0.2c0-0.3,0.2-0.5,0.1-0.8c-0.1-0.3-0.2-0.6-0.1-1c-0.2-0.1-0.1-0.3-0.2-0.5c-0.1-0.1,0.1-0.3,0.1-0.5
		c0-0.1,0-0.3,0-0.5c0.2-0.3,0.1-0.6,0-0.8c-0.1-0.2-0.1-0.2,0-0.4c0.2-0.2,0.2-0.5,0-0.6c-0.2-0.1-0.3-0.1-0.1-0.3
		c0.2-0.2,0.1-0.4,0-0.6c0,0-0.1-0.1,0-0.1c0.3-0.1,0.2-0.2,0.1-0.4c-0.1-0.1,0-0.2,0-0.3c0.1-0.3,0.2-0.6-0.1-0.8
		c-0.1-0.1-0.1-0.3,0-0.4c0.1-0.1,0-0.2,0.1-0.3c0-0.2-0.2-0.3-0.1-0.4c0.1-0.1,0.1-0.3,0.1-0.4c0-0.2,0-0.3-0.1-0.5
		c0.2-0.2,0.1-0.4,0.1-0.6c0-0.2,0.2-0.4,0.1-0.5c0-0.2-0.1-0.4,0-0.6c0.1-0.2,0-0.4,0-0.7c0-0.1,0-0.2,0-0.3
		c-0.3-0.4,0-0.9,0.1-1.3c0.1-0.5,0.1-1-0.1-1.5c-0.1-0.3-0.1-0.4,0.1-0.6c0.3-0.2,0.3-0.3,0.1-0.5c-0.1-0.2-0.2-0.5-0.2-0.7
		c0-0.2-0.1-0.3,0-0.5c0.1-0.2,0-0.4,0-0.6c0-0.1-0.1-0.2,0-0.4c0.1-0.2,0.1-0.5,0.2-0.7c0.1-0.2,0.1-0.4-0.2-0.6
		c-0.2-0.1-0.1-0.1,0-0.2c0.2-0.3,0.3-0.6,0.2-0.9c0-0.1-0.1-0.1-0.2-0.2c0.1-0.1,0.1-0.1,0.1-0.3c0-0.2,0-0.3,0-0.5
		c-0.2-0.4-0.2-0.8,0.1-1.2c0.1-0.2,0.1-0.3,0-0.4c-0.2-0.3-0.1-0.7-0.3-1c0,0,0-0.1,0-0.1c0.3-0.3,0.2-0.6,0-0.9
		c-0.1-0.1,0-0.2,0-0.3c0.1-0.3,0.5-0.7,0-1c-0.1-0.1,0-0.2,0-0.2c-0.1-0.3,0.1-0.6,0.1-1c0-0.2,0-0.5,0.1-0.7
		c0.1-0.1,0.1-0.4-0.1-0.5c-0.1,0-0.1-0.1-0.1-0.2c0.2-0.2,0.1-0.5,0.2-0.7c0.1-0.1,0.2-0.2,0.1-0.2c-0.2-0.2,0-0.5-0.2-0.8
		c-0.1-0.1-0.1-0.3,0-0.4c0.2-0.2,0.1-0.5,0.1-0.7c0-0.2,0.1-0.5-0.1-0.7c-0.3-0.3,0.3-0.3,0.1-0.6c-0.1-0.1-0.1-0.2-0.2-0.3
		c-0.1-0.1-0.1-0.1,0-0.2c0.3-0.2,0.2-0.4,0.1-0.6c0-0.2,0-0.4,0.1-0.7c0.1-0.2,0.1-0.4-0.1-0.6c-0.1-0.1-0.1-0.3-0.1-0.3
		c0.2-0.2,0-0.5,0.2-0.6c0.1-0.1,0.1-0.3-0.1-0.5c-0.1-0.1-0.1-0.2-0.1-0.4c0.3-0.5,0.3-0.6,0.1-1c-0.1-0.2,0.1-0.3,0.1-0.5
		c0-0.2-0.2-0.3-0.1-0.5c0-0.1,0.1-0.1,0.2-0.2c0.1-0.1,0.1-0.3,0-0.3c-0.3-0.1-0.2-0.2-0.2-0.4c0-0.3,0-0.6,0-0.8
		c0-0.3-0.1-0.5,0-0.8c0-0.1,0-0.2,0-0.3c-0.1-0.2-0.2-0.5,0.1-0.7c0.1-0.1,0.1-0.3,0.1-0.4c-0.1-0.2-0.1-0.4-0.2-0.6
		c-0.1-0.3,0-0.6,0-0.9c0-0.3-0.2-0.6,0-0.9c0.1-0.2,0.1-0.3,0-0.5c0-0.1-0.1-0.1,0-0.2c0.2-0.2,0.1-0.4-0.1-0.5
		c-0.1-0.1-0.1-0.2,0-0.3c0.1-0.1,0.1-0.3,0.1-0.4c0-0.1-0.1-0.3-0.1-0.3c0.1-0.1,0.1-0.3,0.1-0.4c0-0.3,0-0.5,0.2-0.7
		c0.1-0.1,0.1-0.2,0.1-0.3c-0.2-0.4-0.1-0.7,0-1.1c0.1-0.3,0.2-0.5,0-0.8c-0.2-0.2-0.2-0.5-0.1-0.7c0.1-0.2,0.1-0.4-0.1-0.6
		c-0.2-0.2-0.2-0.4,0-0.6c0.2-0.2,0.2-0.4,0.1-0.5c0-0.1-0.1-0.1-0.1-0.2c0.1-0.5-0.2-1-0.1-1.5c0-0.1,0-0.2-0.1-0.2
		c-0.1-0.1-0.1-0.1,0-0.2c0.1-0.5,0.1-0.5,0-1.2c0-0.1,0-0.1,0.1-0.2c0.1-0.1,0.1-0.2,0-0.3c-0.1-0.1,0-0.3-0.1-0.4
		c-0.1,0-0.2,0-0.3,0c-0.1,0-0.3,0.1-0.4-0.1c-0.1-0.2-0.4-0.3-0.5-0.5c-0.1-0.1-0.1-0.2-0.2-0.2c-0.1,0-0.3,0-0.4,0
		c-0.1,0-0.3-0.1-0.3-0.2c-0.1-0.3-0.2-0.5-0.5-0.2c-0.1,0.1-0.1,0-0.1-0.1c0-0.1-0.1-0.1-0.1-0.2c0-0.3-0.1-0.4-0.4-0.2
		c-0.1,0-0.1,0-0.1,0c-0.1-0.2-0.3-0.2-0.5-0.2c-0.2,0-0.3-0.1-0.3-0.2c0-0.1-0.1-0.3-0.2-0.3c-0.1,0-0.3-0.1-0.4,0.1
		c0,0.1-0.2,0-0.2-0.1c0-0.3-0.2-0.3-0.4-0.3c-0.1,0-0.1-0.1-0.1-0.1c-0.3-0.2-0.4-0.6-0.9-0.6c-0.1,0-0.1-0.1-0.1-0.1
		c0-0.2-0.2-0.2-0.3-0.2c-0.2-0.1-0.4,0-0.5-0.3c-0.3,0.1-0.4-0.6-0.9-0.3c0,0,0,0,0,0c0.1-0.2-0.2-0.1-0.2-0.3
		c-0.1-0.4-0.3-0.3-0.6-0.2c0,0-0.1,0.1-0.1,0c0-0.3-0.2-0.2-0.4-0.3c-0.1-0.1-0.3-0.2-0.5-0.1c-0.1,0-0.1,0-0.1-0.1
		c0.1-0.3-0.2-0.3-0.4-0.3c-0.2-0.1-0.5,0-0.8,0c-0.2-0.1-0.4-0.4-0.6-0.5c-0.1-0.1-0.3-0.2-0.4-0.3c-0.2-0.2-0.5-0.1-0.6-0.4
		c-0.1-0.2-0.3-0.3-0.6-0.3c-0.2,0-0.5,0-0.6-0.3c-0.2-0.3-0.4-0.3-0.7-0.3c-0.4,0.1-0.7-0.3-1.1-0.3c-0.1,0-0.2-0.2-0.2-0.4
		c0-0.1-0.2-0.1-0.2-0.1c-0.4,0-0.7-0.2-1-0.3c-0.2-0.1-0.6,0-0.7-0.4c0-0.1-0.1,0-0.2-0.1c-0.1,0-0.2,0-0.3-0.1
		c-0.2-0.2-0.6-0.3-0.8-0.3c-0.2,0-0.2-0.1-0.3-0.2c0-0.1-0.1-0.1-0.2-0.2c-0.1-0.3-0.2-0.4-0.5-0.3c-0.3,0.1-0.5-0.2-0.8-0.1
		c-0.1-0.1-0.1-0.3-0.2-0.4c-0.1-0.1-0.2-0.1-0.3-0.1c-0.2,0-0.4,0.1-0.4-0.1c0-0.2-0.3-0.2-0.3-0.3c-0.1-0.3-0.2-0.2-0.4-0.1
		c-0.1,0.1-0.3,0.1-0.4,0c-0.1,0,0-0.2-0.1-0.3c0-0.1-0.1-0.1-0.1-0.2c0-0.3-0.2-0.2-0.4-0.2c-0.1,0-0.1,0.1-0.2,0.1
		c-0.1,0-0.3,0.1-0.3,0c-0.1-0.3-0.3-0.3-0.5-0.3c0-0.2-0.3-0.1-0.3-0.3c0-0.2-0.2-0.2-0.4-0.3c-0.2-0.1-0.5-0.1-0.6-0.4
		c0-0.1-0.2-0.1-0.3,0c-0.2,0.2-0.3,0.1-0.4,0c-0.1-0.1-0.2-0.1-0.3-0.1c-0.1,0-0.2,0-0.2-0.1c-0.1-0.3-0.3-0.3-0.5-0.3
		c-0.2,0-0.4,0-0.3-0.3c0-0.1,0-0.1-0.1-0.1c-0.4,0.1-0.7-0.2-1.1-0.3c-0.2-0.1-0.4,0.1-0.5-0.1c-0.2-0.2-0.4-0.3-0.5-0.5
		c-0.1-0.2-0.2-0.2-0.3-0.1c-0.2,0.1-0.3,0.1-0.3-0.1c0-0.2-0.2-0.2-0.3-0.2c-0.2-0.1-0.5-0.1-0.7-0.3c-0.1-0.1-0.4,0-0.5-0.2
		c-0.1-0.2-0.4-0.1-0.5-0.3c-0.2-0.2-0.4-0.3-0.7-0.3c-0.1,0-0.1,0-0.2-0.1c-0.2-0.2-0.5-0.3-0.7-0.6c-0.2-0.2-0.5-0.3-0.7-0.3
		c-0.3,0-0.6-0.1-0.8-0.2c-0.1,0-0.2-0.2-0.3-0.1c-0.3,0-0.6,0-0.8-0.3c-0.1-0.1-0.2,0-0.3-0.1c-0.1,0-0.6-0.3-0.5-0.3
		c0-0.2-0.1-0.3-0.3-0.3c-0.1,0-0.1,0-0.2-0.1c-0.2-0.2-0.4-0.5-0.8-0.4c0,0-0.1-0.1-0.1-0.1c-0.2-0.3-0.5-0.3-0.8-0.3
		c-0.1,0-0.3,0.1-0.3-0.2c0-0.1-0.3,0-0.4-0.1c-0.1-0.1-0.2-0.1-0.1-0.2c0-0.2-0.1-0.2-0.3-0.2c-0.4,0-0.7,0-0.7-0.1
		c-0.1-0.2-0.4-0.3-0.5-0.4c-0.2-0.2-0.4-0.2-0.6-0.2c-0.2,0-0.2,0-0.3-0.1c-0.1-0.3-0.3-0.4-0.6-0.5c-0.2,0-0.2,0.2-0.4,0.1
		c-0.1-0.1-0.1-0.3-0.2-0.3c-0.1,0-0.2-0.1-0.2-0.1c-0.4-0.1-0.8-0.2-1.1-0.6c-0.1-0.1-0.2,0-0.3,0c-0.2,0-0.4,0-0.3-0.3
		c0-0.1,0-0.1-0.1-0.1c-0.4,0.1-0.6-0.2-1-0.3c-0.2,0-0.4-0.2-0.5-0.4c-0.1-0.2-0.2-0.3-0.4-0.3c-0.2,0-0.5,0.1-0.5-0.3
		c0-0.1-0.1-0.1-0.1-0.1c-0.2,0.1-0.4-0.2-0.6-0.1c-0.2,0-0.1-0.3-0.3-0.2c-0.3,0.1-0.4-0.3-0.7-0.3c0,0-0.1-0.1,0-0.1
		c0-0.2-0.1-0.3-0.3-0.3c-0.2,0-0.5,0.1-0.6-0.3c0-0.1-0.1-0.1-0.2-0.1c-0.2,0.1-0.4-0.2-0.7-0.1c-0.3,0.1-0.3-0.4-0.6-0.3
		c0,0-0.2-0.1-0.2-0.2c0-0.1-0.1-0.1-0.1-0.1c-0.2,0-0.3-0.1-0.4-0.3c-0.2-0.2-0.3-0.5-0.7-0.3c-0.1,0-0.2,0-0.2-0.1
		c-0.1-0.1-0.1-0.1-0.3-0.1c-0.1,0-0.2,0.1-0.2,0.1c-0.1,0,0-0.2-0.1-0.2c-0.3-0.1-0.5-0.4-0.8-0.3c-0.1,0-0.2,0-0.2,0
		c0-0.3-0.2-0.2-0.3-0.2c-0.1,0-0.2,0-0.2,0c-0.3,0-0.5-0.5-0.9-0.4c0,0-0.1,0-0.1-0.1c-0.2-0.1-0.3-0.3-0.5-0.3
		c-0.2-0.3-0.5-0.4-0.8-0.3c-0.2-0.2-0.5-0.1-0.7-0.2c-0.1-0.1-0.2-0.1-0.2-0.2c0-0.2-0.1-0.4-0.3-0.2c-0.3,0.2-0.4,0.1-0.5-0.1
		c-0.1-0.1-0.2-0.1-0.2-0.2c0-0.2-0.1-0.2-0.3-0.2c-0.3,0.1-0.5-0.1-0.7-0.3c-0.1-0.2-0.3-0.2-0.5-0.1c-0.2,0.1-0.4,0.1-0.5-0.1
		C86.2,8,86,7.8,85.8,7.8c-0.2,0-0.4-0.3-0.7-0.1c-0.1,0.1-0.1,0-0.1,0c-0.1-0.2-0.3-0.1-0.5-0.2c-0.1-0.2-0.3-0.2-0.5-0.2
		c-0.3,0-0.4-0.1-0.6-0.2c-0.1-0.1-0.2-0.3-0.4-0.2c-0.2,0-0.4-0.1-0.5-0.2c-0.1-0.2-0.3-0.3-0.6-0.3c-0.1,0-0.3,0-0.3-0.1
		C81.7,5.9,81.5,6,81.3,6c-0.1,0-0.3,0.2-0.5,0c-0.1-0.1-0.3,0-0.4,0c-0.1,0-0.1,0.2-0.2,0.3c0,0.1-0.1,0.1-0.2,0.2
		c-0.1,0.1-0.2,0.2-0.4,0.1c-0.2-0.1-0.5,0-0.6,0.2C79,6.9,78.9,7,78.7,6.9c-0.1,0-0.2,0-0.2,0c-0.2,0-0.4,0-0.5,0.3
		c0,0.1-0.1,0.2-0.2,0.2c-0.1,0-0.3,0-0.4,0c-0.2-0.1-0.1,0.3-0.3,0.2c-0.3,0-0.5,0.2-0.8,0.1c-0.1,0-0.2,0-0.2,0
		c0,0.3-0.2,0.2-0.4,0.2c-0.3,0-0.5,0.1-0.7,0.3c-0.2,0.2-0.5,0.4-0.8,0.3c-0.1,0-0.1,0-0.2,0.1c-0.1,0.3-0.3,0.4-0.6,0.4
		c-0.4,0-0.6,0.5-1,0.4c0,0-0.1,0-0.1,0.1c-0.2,0.3-0.5,0.3-0.8,0.3c-0.2,0-0.4-0.1-0.4,0.2c-0.1,0.2-0.3,0.2-0.5,0.2
		c-0.1,0-0.2-0.1-0.3,0c-0.1,0-0.1,0.2-0.2,0.3c0,0.2,0,0.1-0.2,0.1c-0.2-0.1-0.5-0.1-0.6,0.1c-0.1,0.1-0.2,0.1-0.3,0.1
		c-0.3-0.1-0.6,0.1-0.7,0.4c-0.1,0.2-0.3,0.3-0.5,0.3c-0.2,0-0.4-0.1-0.5,0.1c-0.1,0.2-0.4,0.3-0.6,0.2c-0.3,0-0.4,0.1-0.6,0.3
		c-0.1,0.1-0.2,0.2-0.3,0.2c-0.3,0-0.5,0.2-0.7,0.4c0,0,0,0.1-0.1,0.1c-0.2-0.1-0.4-0.1-0.5,0c-0.2,0.4-0.5,0.4-0.8,0.4
		c-0.1,0-0.3,0-0.3,0c0,0.3-0.2,0.2-0.3,0.2c-0.1,0-0.3,0-0.4,0c-0.2,0-0.4,0.1-0.6,0.2c0,0.4-0.3,0.3-0.5,0.3c-0.2,0-0.4,0-0.4,0.2
		c-0.1,0.4-0.4,0.4-0.6,0.3c-0.3-0.2-0.5,0-0.7,0.2c-0.3,0.3-0.6,0.5-1,0.4c-0.1,0-0.2,0-0.2,0.1c0,0.2-0.2,0.3-0.4,0.3
		c-0.2,0-0.2,0.3-0.4,0.2c-0.2,0-0.2,0.2-0.4,0.1c-0.2,0-0.4,0-0.5,0c-0.2,0-0.1,0.3-0.3,0.3c-0.2,0-0.5-0.1-0.5,0.3
		c0,0.1-0.1,0-0.2,0.1c-0.2,0-0.4-0.1-0.5,0c-0.2,0.2-0.5,0.3-0.7,0.4c-0.1,0-0.3,0-0.3,0.2c0,0-0.1,0.2-0.2,0.2
		c-0.4-0.1-0.8,0.2-1.2,0.1c-0.2,0-0.3,0-0.4,0.2c-0.1,0.2-0.3,0.3-0.5,0.4c-0.3,0-0.5,0.2-0.7,0.3c-0.3,0-0.5,0.4-0.8,0.3
		c0,0-0.1,0.1-0.1,0.1c0,0.2-0.1,0.2-0.3,0.2c-0.3,0-0.6,0-0.8,0c-0.2,0-0.4-0.1-0.3,0.3c0,0.1-0.1,0.1-0.2,0.1
		c-0.1,0-0.3-0.1-0.4,0.1c-0.1,0.3-0.2-0.1-0.4,0c-0.1,0.1-0.2,0.1-0.2,0.2c0,0.1,0,0.1-0.1,0.2c-0.2,0.2-0.5,0-0.7,0.2
		c-0.2,0.1-0.2,0.4-0.5,0.5c-0.2,0.1-0.4,0-0.6,0c-0.2,0-0.3,0-0.4,0.1c-0.1,0.2-0.4,0.3-0.6,0.2c-0.3-0.1-0.4,0.1-0.7,0.1
		c-0.2,0-0.1,0.2-0.2,0.2c-0.3,0-0.5,0.2-0.7,0.3c-0.1,0.1-0.3,0.3-0.5,0c-0.1-0.1-0.4,0-0.6,0.1c-0.2,0.1-0.2,0.3-0.4,0.4
		c-0.1,0.1-0.4,0-0.6,0.1c-0.3,0.1-0.6,0.4-1,0.3c0,0-0.1,0.1-0.1,0.1c-0.2,0.2-0.5,0.2-0.6,0.3c-0.2,0.2-0.5,0.2-0.7,0.2
		c-0.1,0-0.2,0.1-0.2,0.1c-0.1,0.1-0.1,0.3-0.3,0.1c-0.3,0.1-0.7,0-0.9,0.3c0,0.1-0.1,0.2-0.2,0.1c-0.3-0.1-0.4,0.2-0.6,0.4
		c-0.1,0.2-0.2,0.2-0.4,0c0,0-0.3-0.1-0.3,0.1c0,0.2-0.2,0.2-0.4,0.2c-0.3,0-0.5,0-0.8,0c0,0.1,0,0.1,0,0.2c0,0.1,0.1,0.3-0.2,0.3
		c-0.2,0.3-0.8-0.1-0.9,0.4c0,0-0.1,0-0.1,0c-0.3-0.2-0.5-0.2-0.7,0.1c-0.3-0.1-0.4,0.2-0.5,0.3c-0.2,0.3-0.3,0.3-0.6,0.2
		c-0.2-0.1-0.4-0.1-0.4,0.1c-0.1,0.4-0.4,0.3-0.7,0.3c-0.1,0-0.2,0-0.3,0c-0.1,0-0.1,0-0.1,0.1c0,0.1-0.1,0.2-0.1,0.3
		c0,0.1-0.2,0.2-0.4,0.1c-0.1-0.1-0.4-0.2-0.5,0.2c-0.2,0.1-0.3,0.4-0.6,0.3c-0.1,0-0.2,0-0.2,0.1c-0.1,0.2-0.3,0.2-0.5,0.2
		c-0.2,0-0.4,0-0.5,0c-0.2,0-0.4-0.1-0.4,0.3c0,0.2-0.2,0-0.3,0.1c-0.1,0.1,0,0.3-0.1,0.3c-0.1,0-0.1,0-0.2,0c-0.1,0-0.2,0-0.2,0.1
		c-0.1,0.4-0.4,0.3-0.7,0.3c-0.1,0-0.3,0-0.3,0c-0.1,0.4-0.4,0.2-0.6,0.2c-0.1,0-0.2,0-0.2,0.1c0,0.1-0.1,0.2-0.2,0.2
		c-0.1,0-0.2,0-0.3,0c-0.3,0.2-0.6,0.3-0.9,0.2c-0.1,0-0.1,0-0.1,0.1c0,0.3-0.2,0.4-0.5,0.4c-0.1,0-0.3-0.1-0.4,0.1
		c0,0.1-0.1,0.2-0.2,0.2c-0.1,0-0.3,0-0.4,0c-0.1,0.1-0.2,0.1-0.4,0c-0.2-0.1-0.2,0.1-0.3,0.2c-0.3,0.2-0.4,0.6-0.9,0.6
		c0,0-0.1,0.1-0.1,0.1c-0.1,0.1-0.2,0.1-0.3,0.1c-0.3-0.1-0.4,0.1-0.5,0.3c-0.1,0.1-0.1,0.1-0.3,0.1c-0.3-0.1-0.6,0-0.9,0.2
		c0,0.2-0.1,0.2-0.2,0.2c-0.3-0.1-0.4,0.1-0.6,0.3c-0.1,0.1-0.2,0.3-0.4,0.3c-0.4,0-0.7,0.2-1,0.5c-0.3,0.3-0.6,0.5-1,0.2
		c-0.1,0-0.2-0.1-0.3,0.1c-0.1,0.2-0.4,0.4-0.6,0.5c0,0-0.1,0.1-0.2,0.1c-0.2,0-0.4,0.1-0.6,0c-0.1-0.1-0.3,0-0.4,0.1
		c-0.2,0.5-0.5,0.5-0.9,0.5c-0.4-0.1-0.6,0.4-0.9,0.4c-0.1,0-0.1,0-0.1,0.1c0,0-0.1,0.1-0.1,0.1c-0.1,0.1-0.2,0.3-0.2,0.4
		c-0.2,0.3-0.2,0.6-0.5,0.8C9.3,36,9.3,36.1,9.1,36c-0.3-0.2-0.6-0.1-0.8,0.2c-0.1,0.1-0.1,0.2-0.3,0.2c-0.3,0-0.6,0.2-1,0.1
		c-0.2,0-0.3,0-0.5,0.2c-0.1,0.1-0.2,0.2-0.4,0.2C6,36.9,5.9,37,5.8,37c-0.3,0.1-0.4,0.3-0.3,0.6c0.1,0.3,0.1,0.5-0.1,0.8
		c-0.2,0.2-0.2,0.2,0,0.5c0.1,0.2,0.2,0.4,0.2,0.6c0,0.2,0,0.4-0.1,0.6c-0.1,0.2,0.1,0.4,0.1,0.6c0,0,0,0.1,0,0.1
		c-0.1,0.1-0.1,0.2-0.1,0.4c0,0.2,0,0.4,0,0.5s0,0.4,0,0.5c0,0.2,0,0.3,0.1,0.5c-0.2,0.1-0.1,0.3-0.1,0.5c0,0.1,0,0.2,0.1,0.3
		c-0.1,0.1-0.2,0.1-0.2,0.2c0,0,0,0.1,0,0.2c0,0.2,0.1,0.5,0,0.7c0,0.1,0.1,0.3,0,0.5c-0.1,0.2,0,0.4-0.1,0.6
		c-0.1,0.1-0.1,0.3,0,0.3c0.2,0.2,0.1,0.3,0.1,0.5c0,0.2,0,0.4,0.2,0.7c0.1,0.1-0.2,0.4-0.2,0.6c0,0.1,0,0.1,0,0.2
		c0.1,0.2,0.1,0.4,0,0.6c-0.1,0.2,0.1,0.4,0.1,0.7c0,0.3-0.3,0.5-0.1,0.7c0.1,0.2,0,0.4,0.1,0.5c0.2,0.2,0,0.3,0,0.5
		c0,0.1,0,0.1,0,0.2c0.1,0.3,0.2,0.7-0.1,1c-0.2,0.2-0.1,0.6,0,0.8c0.2,0.4,0.2,0.7,0,1c-0.1,0.1,0,0.2-0.1,0.3
		c-0.1,0.3-0.1,0.3,0.1,0.5c0.2,0.1,0.2,0.2,0.2,0.4c0,0.1,0,0.3,0,0.4c0,0.1,0,0.2-0.1,0.2c-0.3,0.1-0.2,0.3-0.2,0.5
		c0.1,0.3,0.1,0.6,0.3,0.9c0,0,0.1,0.1,0,0.1c-0.3,0.2-0.3,0.4-0.1,0.7c0,0,0,0.1,0,0.1c-0.1,0.3-0.2,0.5,0,0.8c0,0.1,0,0.2-0.1,0.3
		c-0.3,0.3-0.3,0.6,0,0.9c0.1,0.1,0.1,0.2,0.1,0.3c-0.2,0.2-0.1,0.5-0.1,0.7c0,0.2,0,0.3,0.2,0.4c0,0,0.1,0.1,0.1,0.1
		c-0.3,0.3,0,0.6-0.2,0.9c-0.2,0.2,0,0.3,0,0.5c0,0.2-0.1,0.3-0.1,0.5c0,0.1,0.1,0.2,0.2,0.2c0.1,0.1,0.1,0.1,0,0.2
		c-0.3,0.2-0.1,0.5-0.3,0.7c-0.1,0.2,0,0.3,0.1,0.5c0.1,0.2,0.2,0.4,0,0.6c-0.1,0.1,0,0.2,0,0.3c0,0.2,0.1,0.3,0.1,0.5
		c0.1,0.2-0.2,0.3-0.1,0.5c0,0.1,0,0.2,0.1,0.3c0.2,0.2,0,0.6,0.1,0.8c-0.2,0.2-0.1,0.4-0.1,0.6c0,0.2-0.1,0.4,0.1,0.7
		c0.1,0.1,0,0.4-0.1,0.6c-0.1,0.2-0.3,0.5-0.1,0.8c0.1,0.1,0,0.3,0.1,0.4c-0.1,0.1-0.1,0.2-0.2,0.3c-0.1,0.1,0,0.3,0,0.4
		c0,0.1,0.1,0.1,0.1,0.2c-0.1,0.2-0.1,0.5,0,0.8c0.1,0.2,0.1,0.4-0.1,0.7c-0.2,0.2-0.1,0.4,0,0.6c0.1,0.1,0.1,0.2,0.2,0.3
		c0.2,0.3,0,0.6,0.2,0.8c-0.3,0.3,0.1,0.5,0,0.8c0,0.1,0,0.2-0.1,0.3c-0.2,0.1-0.2,0.3-0.2,0.4c0,0.2-0.1,0.4,0.1,0.5
		c0.2,0.2-0.1,0.3-0.1,0.5c0.1,0.4,0.1,0.8-0.1,1.2c0,0.1-0.1,0.3,0,0.3c0.2,0.2,0.1,0.4,0.1,0.6c0,0.1,0,0.3,0.1,0.4
		c0.1,0.2,0.2,0.5,0.1,0.8c0,0.1-0.1,0.3,0,0.4c0.1,0.1-0.1,0.3-0.1,0.4c0,0.1,0,0.1,0,0.2c0.2,0.2,0.1,0.5,0.1,0.7
		c-0.1,0.2,0,0.5-0.1,0.7c0,0.2,0.1,0.3,0.1,0.5c0,0.2-0.2,0.3-0.1,0.5c0,0.1,0,0.2,0.1,0.3c0.1,0.3,0.1,0.6-0.1,0.9
		c-0.2,0.4-0.3,0.4,0,0.7C5.9,86.7,6,87,5.8,87.3c0,0.1,0,0.2,0,0.2c-0.1,0.6,0.1,1.3,0.2,1.9c0,0.4,0,0.8,0,1.2
		c0,0-0.1,0.1-0.1,0.1c-0.2,0.3-0.1,0.6-0.1,0.8c0.2,0.1,0.2,0.5,0.6,0.4c0.2,0,0.2,0.2,0.4,0.2c0.3,0,0.5,0.2,0.9,0.1
		c0.2,0,0.3,0.2,0.4,0.1c0,0.3,0.2,0.2,0.4,0.2c0.1,0,0.3,0,0.4,0c0.3,0.1,0.6,0.1,0.6,0.4c0,0.2,0.1,0.2,0.3,0.2
		c0.2,0,0.2,0.1,0.2,0.2c0,0.1-0.1,0.2,0.1,0.2c0.3,0,0.3,0.4,0.6,0.4c0.1,0,0.1,0,0.1,0.1c0.3,0.6,0.8,0.8,1.5,0.8
		c0.1,0,0.2,0,0.2,0.1c0,0.5,0.5,0.6,0.8,0.7c0.1,0,0.2,0,0.3,0.1c0.1,0.2,0.4,0.3,0.6,0.2c0.3-0.1,0.5,0.2,0.8,0.1
		c0.1,0,0.1,0.3,0.3,0.3c0.1,0.1,0.2,0.1,0.3,0.1c0.4,0.1,0.7,0.3,1,0.7c0.1,0.2,0.3,0.3,0.6,0.3c0.2,0,0.6,0.1,0.8,0.2
		c0,0,0.1,0.1,0.1,0c0.3-0.1,0.2,0.2,0.4,0.3c0.1,0,0,0.2,0.1,0.2c0.2,0,0.3,0.1,0.3,0.2c0.1,0.2,0.3,0.2,0.5,0.2c0.2,0,0.3,0,0.5,0
		c0.1,0,0,0.3,0.2,0.2c0.2-0.1,0.4,0.2,0.5,0.2c0.3,0,0.3,0.2,0.5,0.3c0.2,0.2,0.4,0.5,0.8,0.4c0.1,0,0.2,0,0.3,0.1
		c0,0.2,0.2,0.4,0.5,0.3c0.1,0,0.1,0,0.2,0c0.1,0.2,0.3,0.3,0.6,0.2c0.1,0.2,0.3,0.2,0.5,0.3c0.2,0.1,0.4,0.2,0.4,0.4
		c0.1,0.3,0.3,0.3,0.5,0.3c0.1,0,0.1,0,0.2,0c0.3,0.1,0.7,0,0.8,0.4c0,0.1,0.2,0.2,0.3,0.2c0.2,0,0.3,0,0.4,0.2
		c0.1,0.2,0.3,0.3,0.5,0.3c0.1,0,0.3-0.1,0.3,0c0.1,0.3,0.2,0.2,0.4,0.2c0.1,0,0.2,0,0.2,0.2c0,0.1,0.1,0.1,0.2,0.1
		c0.3,0,0.5,0,0.7,0.3c0.2,0.3,0.8,0.5,1.3,0.5c0.1,0,0.2,0,0.2,0.1c0,0.2,0.2,0.2,0.3,0.3c0.1,0.1,0.4,0.1,0.4,0.4
		c0,0.1,0.2,0.1,0.2,0.1c0.2-0.1,0.3-0.1,0.4,0.1c0.2,0.3,0.2,0.4,0.6,0.2c0.2-0.1,0.1,0,0.2,0.1c0,0.2,0.4-0.1,0.4,0.3
		c0.3,0.1,0.6,0.5,1,0.4c0.1,0,0.2,0,0.2,0.1c0,0.3,0.3,0.3,0.5,0.4c0.3,0.1,0.7,0.1,0.8,0.4c0,0,0.1,0,0.1,0c0.1,0,0.4-0.1,0.4,0.2
		c0.2,0,0.3,0.1,0.5,0.2c0.1,0,0.2,0.1,0.2,0.2c0,0.2,0.1,0.2,0.2,0.2c0.3,0,0.6,0.1,0.7,0.4c0,0.1,0.1,0.2,0.3,0.2
		c0.2,0,0.4,0.1,0.6,0.1c0.3,0,0.6,0,0.8,0.3c0.1,0.2,0.3,0.2,0.5,0.2c0.2,0,0.4,0,0.5,0.2c0.1,0.1,0.2,0.2,0.3,0.3
		c0.1,0.2,0.3,0.2,0.5,0.2c0.1,0,0.3-0.1,0.3,0c0.1,0.3,0.4,0.2,0.6,0.3c0.2,0.1,0.6-0.2,0.5,0.3c0,0.1,0.1,0.1,0.1,0.1
		c0.1,0,0.2,0,0.3,0c0.1,0,0.2,0,0.1,0.1c0,0.2,0,0.2,0.2,0.2c0.2,0,0.4,0,0.6,0c0.1,0,0.1,0,0.1,0.1c-0.1,0.3,0.2,0.2,0.3,0.3
		c0.1,0.1,0.3,0,0.4,0.1c0,0.3,0.2,0.2,0.3,0.2C44.7,111.5,44.7,111.5,44.9,111.5z"/>
	<path d="M166.2,120.8c0.2-0.2,0.4-0.4,0.3-0.6c-0.1-0.3-0.1-0.5-0.1-0.8c0,0-0.1-0.1-0.1-0.1c0.1-0.2,0.2-0.3,0.2-0.5
		c-0.1-0.2-0.1-0.3,0-0.5c0.1-0.2,0-0.4-0.2-0.6c-0.1-0.1-0.1-0.2,0-0.3c0.2-0.3,0.2-0.5,0-0.8c-0.1-0.1-0.1-0.2,0-0.3
		c0.1-0.3,0-0.6,0.3-0.8c0,0,0,0,0-0.1c-0.2-0.2-0.2-0.4,0-0.6c0.1-0.1,0.1-0.4,0-0.4c-0.2-0.2,0-0.3,0-0.5c0-0.2,0.1-0.3,0.2-0.4
		c0.1-0.1,0.1-0.2,0-0.3c-0.2-0.4,0-0.7,0.1-1c0.1-0.1,0.2-0.2,0-0.4c0.1-0.2,0-0.4,0.2-0.6c0.1-0.1,0.2-0.2,0.1-0.2
		c-0.2-0.2-0.1-0.2,0.1-0.3c0.3-0.2,0.4-0.5,0.6-0.8c0.1-0.1,0.1-0.3,0-0.4c-0.1-0.1,0-0.3-0.1-0.5c0-0.1,0-0.1,0.1-0.1
		c0.4,0,0.3-0.3,0.3-0.5c0-0.1,0.1-0.3,0.1-0.4c0-0.3,0.2-0.5,0.1-0.8c0-0.2,0.1-0.3,0.2-0.3c0.2,0,0.2-0.2,0.2-0.3
		c0-0.1-0.1-0.2-0.1-0.3c0.1-0.1,0.1-0.3,0.1-0.4c0-0.1,0.1-0.2,0.1-0.3c0-0.2,0.1-0.3,0-0.5c-0.1-0.3-0.1-0.6,0.1-0.8
		c0.1-0.1,0.1-0.1,0-0.3c-0.1-0.2,0-0.5-0.1-0.8c0-0.1,0.1-0.2,0-0.3c0.3-0.1,0.2-0.5,0.3-0.7c0.1-0.2-0.1-0.4-0.1-0.6
		c0.1-0.2,0.3-0.3,0.4-0.5c0,0,0-0.1,0-0.1c-0.2-0.2-0.1-0.4,0-0.6c0.1-0.2-0.1-0.4,0.1-0.6c0,0,0-0.1,0-0.2c-0.3-0.3,0-0.6,0.1-0.8
		c0.1-0.1,0.1-0.2,0.2-0.3c0.1-0.1,0.1-0.1,0.1-0.2c-0.3-0.3,0-0.5,0.2-0.7c0.1-0.1,0.3-0.2,0.1-0.4c0,0,0-0.1,0-0.2
		c0.1-0.1,0.2-0.2,0.2-0.3c0.1-0.1-0.2-0.2-0.1-0.3c0-0.1,0-0.2,0-0.2c0.4-0.1,0.1-0.4,0.2-0.6c-0.2-0.1,0-0.4,0-0.4
		c0.3-0.1,0.3-0.5,0.5-0.7c0.1-0.1,0.1-0.3,0-0.5c-0.1-0.1-0.1-0.2,0.1-0.2c0.2,0,0.2-0.1,0.1-0.2c-0.1-0.1-0.1-0.2,0-0.3
		c0.1-0.1,0.2-0.2,0.3-0.3c0.1-0.1,0.1-0.1,0-0.2c-0.1-0.1-0.1,0-0.2,0.1c-0.1,0.1-0.2,0.2-0.3,0.1c-0.3-0.2-0.6,0.1-0.9,0.1
		c-0.2,0-0.4,0.1-0.5,0.4c0,0.1-0.2,0.1-0.3,0c-0.1-0.1-0.2-0.1-0.3,0c-0.2,0.2-0.4,0.3-0.7,0.3c-0.3,0-0.5,0.2-0.8,0.1
		c-0.3-0.2-0.3,0.1-0.5,0.1c0,0.3-0.3,0.3-0.4,0.3c-0.2,0-0.5,0.1-0.7,0c-0.4-0.3-0.8-0.1-1.2,0c-0.3,0-0.5,0.1-0.7-0.1
		c-0.1-0.1-0.1-0.1-0.3,0c-0.1,0.1-0.3,0.1-0.4,0.3c-0.1,0.1-0.3,0-0.3,0c-0.1-0.4-0.3-0.1-0.5-0.1c-0.2,0-0.2-0.1-0.1-0.3
		c0-0.1,0.1-0.1,0-0.1c-0.2-0.1-0.3-0.2-0.3-0.4c0,0,0,0,0-0.1c0.2-0.2,0-0.3-0.1-0.4c-0.1-0.1-0.3-0.2-0.1-0.4
		c0.1-0.1,0-0.2-0.1-0.4c-0.1-0.2-0.3-0.4,0-0.6c0,0,0-0.1,0-0.2c-0.2-0.2,0-0.4,0-0.5c-0.1-0.2,0-0.4-0.1-0.6c0-0.1,0-0.2,0.1-0.2
		c0.3,0,0.3-0.4,0.6-0.4c0.1,0,0.2-0.2,0.1-0.3c-0.1-0.1,0.1-0.2,0.1-0.2c0.3-0.1,0.5-0.3,0.4-0.6c0-0.1,0-0.1,0.1-0.1
		c0.5-0.1,0.8-0.4,1-0.8c0.1-0.1,0.1-0.3,0.2-0.3c0.3-0.1,0.4-0.3,0.4-0.6c0-0.1,0.1-0.2,0.2-0.2c0.1-0.1,0.3,0,0.4-0.2
		c0-0.1,0.3,0.1,0.4-0.1c0.1-0.1,0-0.3,0.1-0.4c0.1-0.2,0.2-0.3,0.4-0.2c0.2,0.2,0.3,0.1,0.3-0.1c0.1-0.3,0.2-0.6,0.5-0.7
		c0.3-0.1,0.5-0.3,0.5-0.6c0.3-0.2,0.4-0.5,0.8-0.4c0.3,0.1,0.5-0.1,0.6-0.3c0.2-0.3,0.5-0.4,0.7-0.7c0.2-0.2,0.4-0.5,0.6-0.7
		c0-0.1,0.2-0.1,0.2-0.1c0.1,0.1,0.2,0.1,0.3,0c0.1-0.1,0.1-0.2,0.1-0.3c0-0.2,0.2-0.3,0.4-0.2c0.2,0.2,0.4,0.1,0.6,0
		c0.2-0.2,0.4-0.1,0.5,0.1c0.2,0.2,0.5,0.3,0.6,0.5c0.1,0.1,0.1,0.2,0,0.3c-0.1,0.1-0.1,0.3,0,0.3c0.1,0,0.4-0.2,0.4,0.1
		c0,0.2,0.4,0.1,0.3,0.4c0.3,0,0.4,0.2,0.4,0.5c0.2,0.1,0.2,0.3,0.3,0.5c0,0,0,0,0,0c0.1,0.1,0.1,0.2,0,0.4
		c-0.1,0.1-0.3,0.2-0.1,0.3c0.1,0.1,0.1,0.2,0,0.4c0,0-0.1,0.1-0.1,0.1c-0.4,0.2-0.5,0.3-0.5,0.7c0,0.1-0.1,0.1-0.1,0
		c-0.1-0.1-0.1,0-0.2,0c-0.1,0-0.2,0-0.3,0c0,0.1,0,0.2,0,0.3c0,0.1-0.1,0.2-0.2,0.2c-0.3,0-0.1,0.3-0.3,0.4c-0.1,0-0.4-0.1-0.4,0.1
		c0,0.2-0.1,0.3-0.3,0.3c-0.2,0-0.3,0.2-0.4,0.3c-0.1,0.1,0,0.1,0,0.2c0.1,0.1,0.2,0.2,0.2,0.1c0.1-0.1,0.4-0.1,0.4-0.3
		c0-0.3,0.2-0.2,0.3-0.2c0.2,0,0.4,0.3,0.6-0.1c0,0,0.2,0,0.3,0c0.2-0.1,0.4-0.1,0.5-0.2c0.2-0.1,0.1-0.3,0.1-0.5
		c0-0.2,0.1-0.3,0.3-0.3c0,0,0,0,0.1,0c0.1-0.1,0.1-0.2,0.3-0.1c0.1,0.1,0.2-0.1,0.2-0.2c0.2-0.3,0.3-0.3,0.5,0
		c0.1,0.1,0.1,0.1,0.2,0.1c0.3-0.1,0.5,0.2,0.8,0.1c0.1,0,0.1,0,0.1,0.1c0.1,0.3,0.4,0.2,0.6,0.5c0,0,0.1,0.1,0.1,0.1
		c0.2-0.1,0.4-0.2,0.5,0.1c0.1,0.2,0.4-0.1,0.5,0.2c0,0,0.1,0,0.1,0c0.2,0.1,0.4-0.3,0.6,0c0.1,0.2,0.4,0,0.5,0.3c0,0.1,0.1,0,0.1,0
		c0-0.1,0-0.2,0.1-0.1c0.2,0,0.5-0.1,0.5,0.3c0,0.2,0.3,0,0.3,0.3c0,0.1,0.3,0,0.2,0.2c0,0,0.1,0,0.1,0c0.2,0,0.2,0.1,0.3,0.2
		c0.1,0.1,0.1,0.4,0.3,0.3c0.1,0,0.1,0,0.1,0.1c0,0.1,0,0.2,0,0.3c0,0.1-0.1,0.4,0,0.4c0.3,0,0.2,0.4,0.4,0.4c0.2,0,0.3,0.2,0.4,0.4
		c0,0.1,0.3,0.2,0.1,0.4c0.1,0.1,0.1,0.2,0.2,0.3c0.3,0.1,0.3,0.3,0.3,0.6c0,0.2,0.1,0.4,0.2,0.5c0.2,0.1,0.2,0.4,0.3,0.6
		c-0.1,0.4,0.3,0.6,0.3,0.9c0,0.1,0,0.1,0.1,0.1c0.2,0,0.2,0.1,0.1,0.2c-0.1,0.3-0.1,0.5,0.1,0.7c0.1,0.2,0.2,0.5,0.4,0.6
		c0,0-0.1,0.1-0.1,0.1c-0.1,0.1-0.2,0.2,0,0.4c0.1,0.1,0.3,0.2,0.2,0.3c0,0.1-0.1,0.3,0.1,0.3c0,0.2,0,0.3,0,0.5
		c0,0.1,0,0.1,0.1,0.1c0.2,0,0.2,0.1,0.1,0.2c-0.1,0.1-0.1,0.2-0.2,0.3c-0.1,0.1,0,0.2,0,0.3c0,0.2,0.3,0.2,0.2,0.4
		c0,0.1-0.1,0.2,0,0.3c0,0,0.1,0.1,0.1,0.1c0,0.2,0,0.4,0.1,0.5c0.1,0.1,0.3,0.2,0.4,0.3c0.1,0.1,0.1,0.3,0,0.4
		c-0.2,0.1-0.1,0.3,0,0.4c0.1,0.2,0.1,0.3,0.2,0.5c0,0.1,0,0.1,0,0.2c0.1,0.2-0.2,0.2-0.1,0.4c0.1,0.1,0.2,0.1,0.3,0.2
		c0.1,0.1,0,0.1-0.1,0.2c0,0.1-0.1,0.2-0.1,0.2c0.1,0.1,0.1,0.2,0.1,0.2c0.2,0.2,0.2,0.5,0.3,0.8c0.1,0.1-0.1,0.3-0.1,0.5
		c0.1,0.2,0.1,0.3,0,0.5c-0.1,0.3-0.1,0.3,0.1,0.7c0.1,0.1,0.1,0.1,0.2,0.2c-0.2,0.1-0.1,0.3-0.1,0.4c-0.1,0.1-0.1,0.2-0.2,0.3
		c-0.1,0-0.1,0.1,0,0.1c0.3,0.1,0.1,0.3,0,0.5c-0.1,0.1-0.1,0.3,0,0.4c0.2,0.2-0.2,0.3,0,0.5c0.1,0.1,0.1,0.3,0.2,0.5
		c0,0.1,0,0.1-0.1,0.2c-0.2,0.2-0.2,0.4-0.4,0.5c-0.1,0-0.1,0.1-0.1,0.2c0.1,0.2-0.1,0.4-0.2,0.5c-0.1,0.3-0.2,0.3-0.2,0.3
		c-0.1-0.1-0.4,0.1-0.4-0.2c0-0.1-0.1-0.1-0.2,0c-0.1,0.1-0.3,0.1-0.4,0.1c-0.1,0-0.1,0.1-0.2,0c-0.3-0.2-0.4-0.2-0.7,0.1
		c-0.1,0.1-0.2,0.1-0.2,0.1c-0.2-0.1-0.3-0.1-0.4-0.2c-0.1-0.1-0.2-0.2-0.3,0c-0.1,0.1-0.1,0-0.1,0c-0.1-0.1-0.2-0.2-0.3-0.3
		c-0.1,0.1-0.1,0.2-0.2,0.2c-0.2,0.1-0.2,0.1-0.4-0.1c-0.2-0.3-0.1-0.5,0-0.8c0.1-0.2,0.3-0.4,0-0.6c0-0.3-0.3-0.7-0.1-1
		c0.1-0.2,0.1-0.3,0-0.4c-0.1-0.1-0.1-0.1-0.2-0.2c0.1-0.1,0.1-0.2,0.2-0.3c0.2-0.3,0.2-0.3,0-0.5c0,0-0.1-0.1-0.1-0.1
		c0.1-0.1,0.2-0.2,0.3-0.2c0.1-0.1,0.1-0.1,0.1-0.3c0-0.1-0.1-0.1-0.2-0.2c-0.1-0.1-0.1-0.3-0.1-0.4c0.2-0.2,0.1-0.3,0-0.4
		c-0.1-0.1-0.3-0.3-0.1-0.5c0-0.3,0.1-0.6-0.2-0.8c0,0-0.1-0.7-0.1-0.7c0.1-0.3-0.1-0.8-0.2-1c-0.1-0.2-0.2-0.3-0.2-0.6
		c0,0,0-0.1,0-0.1c-0.4-0.1-0.2-0.4-0.1-0.6c0-0.1,0-0.2-0.1-0.3c-0.1-0.2-0.3-0.3,0-0.5c0,0,0-0.2,0-0.2c-0.1-0.2-0.2-0.4-0.2-0.7
		c0-0.1-0.1-0.1-0.2-0.2c-0.1,0.1-0.2,0.1-0.2,0.2c0,0.1,0,0.3,0,0.3c0.1,0.1,0.1,0.2,0,0.3c0,0,0,0,0,0.1c0.2,0.3,0,0.6-0.1,0.9
		c0,0.1,0,0.2,0,0.3c0,0.2-0.1,0.4,0.1,0.6c0.1,0.1-0.2,0.3-0.1,0.5c0,0.1,0,0.2,0,0.2c0.1,0.1,0.1,0.3,0,0.4
		c-0.2,0.2,0.2,0.2,0,0.3c-0.1,0.1-0.1,0.1,0,0.2c0.2,0.1,0.2,0.3,0.1,0.5c-0.1,0.2-0.1,0.3-0.1,0.5c-0.1,0.2-0.2,0.4,0.1,0.6
		c0,0,0.1,0.2,0,0.2c-0.1,0.1,0,0.2,0,0.3c0.1,0.2-0.2,0.4-0.1,0.5c0.1,0.2,0.1,0.3,0,0.5c0,0,0.2,0.7,0.2,0.8
		c0.2,0.1,0.2,0.3,0.1,0.5c-0.1,0.1,0.1,0.2,0.1,0.3c0,0.2-0.1,0.3-0.1,0.5c0.1,0.2,0.1,0.3,0,0.5c-0.1,0.2-0.2,0.4,0.1,0.5
		c0,0,0,0.3-0.1,0.4c-0.1,0.1,0,0.2,0,0.3c0,0,0.1,0.1,0,0.2c-0.1,0.1-0.1,0.2,0,0.3c0.2,0.2,0,0.2,0,0.3c-0.2,0.2-0.2,0.3,0,0.5
		c0.2,0.2,0.4,0.3,0.1,0.6c0,0,0,0.2,0,0.2c0.3,0.2,0.1,0.5,0.2,0.7c0,0,0.1,0.1,0,0.1c-0.4,0.2-0.1,0.5,0,0.7c0,0.1,0.1,0.2,0,0.2
		c-0.4,0.3-0.2,0.7-0.2,1c0,0.1,0,0.2,0,0.4c0,0.1,0.1,0.2,0.2,0.3c0.1,0.1,0.1,0.3,0.1,0.4c-0.2,0.3-0.1,0.6,0,0.8
		c0.1,0.1,0.1,0.3,0.2,0.4c-0.1,0.1-0.1,0.2,0,0.3c0.1,0.1,0,0.3,0,0.5c0,0.1,0,0.2-0.1,0.4c-0.1,0.2,0.1,0.4,0.2,0.5l0.4,0.6
		c-0.2,0.2,0.1,0.3,0,0.5c-0.1,0.1,0,0.3,0,0.4c0,0-0.1,0.1,0,0.1c0.3,0.2,0.2,0.4,0.2,0.6c0,0.2,0.2,0.3,0.3,0.5
		c0,0.2-0.2,0.3-0.1,0.5c0.1,0.3,0.1,0.6,0.4,0.8c-0.1,0.1,0.2,0.2,0,0.4c0,0-0.1,0.2,0,0.3c0.2,0.2,0.1,0.5,0.3,0.8
		c0.1,0.2-0.3,0.3,0,0.5c0.1,0.1,0.3,0.2,0.4,0.3c0.1,0.1,0.1,0.1,0,0.2c-0.1,0.2-0.1,0.4,0,0.6c0.1,0.2,0.2,0.5,0.1,0.7
		c0,0.1,0,0.2,0,0.2c0.4,0.4,0.1,0.7-0.1,1.1c0,0.1-0.1,0.2-0.1,0.3c-0.1,0.4-0.4,0.5-0.8,0.3c0,0-0.1-0.1-0.1-0.1
		c-0.1,0.1-0.1,0.3-0.2,0.4c0,0.1,0,0.1-0.1,0.1c-0.1,0-0.3,0-0.4,0c-0.1,0-0.2-0.2-0.3-0.2c-0.1,0,0,0.3-0.2,0.2
		c-0.3-0.1-0.3,0.2-0.3,0.3c-0.1,0.2-0.1,0.2-0.3,0.1c-0.1-0.1-0.2,0-0.3-0.1c-0.1-0.1-0.2-0.2-0.4-0.2c-0.3,0-0.5-0.2-0.9-0.1
		c0,0-0.3-0.1-0.1-0.3c0,0,0-0.1,0-0.2c-0.2-0.3-0.1-0.7-0.1-1c0-0.3-0.3-0.4-0.3-0.6c0-0.1-0.1-0.2-0.2-0.3
		c-0.1-0.2-0.1-0.4-0.1-0.6c0-0.2,0.1-0.4-0.1-0.6c0,0,0-0.2,0-0.2c0-0.1,0.2-0.1,0-0.2c-0.2-0.2-0.3-0.4-0.3-0.7
		c0-0.2,0-0.2-0.2-0.6c-0.1-0.2-0.2-0.3-0.2-0.5c0.2-0.2,0-0.4,0-0.6c0-0.2,0-0.3-0.2-0.4c-0.1-0.1-0.1-0.1,0-0.2
		c0.1-0.3,0.1-0.6-0.1-0.8c-0.2-0.2-0.4-0.3-0.1-0.6c0,0,0-0.1,0-0.2c-0.1-0.1-0.1-0.1-0.1-0.2c0-0.1,0.2-0.2,0.1-0.4
		c0-0.1-0.2-0.2,0-0.3c0.1,0,0.1-0.2-0.1-0.3c-0.1-0.1-0.1-0.2-0.2-0.3c-0.1-0.2-0.1-0.5-0.1-0.7c-0.1-0.2-0.2-0.4-0.3-0.6
		c-0.1-0.1,0.2-0.2,0.1-0.3c-0.2-0.1,0.2-0.2,0-0.4c-0.2-0.1-0.1-0.3-0.1-0.5c0-0.2,0-0.3-0.1-0.4c0,0,0-0.2,0-0.2
		c0.1-0.2,0.1-0.4-0.1-0.6c-0.1-0.1-0.1-0.1-0.1-0.2c0.2-0.8,0.2-0.8,0-1.3c-0.1-0.2,0-0.3,0-0.5c0-0.1,0-0.1-0.1-0.1
		c-0.1,0-0.1,0-0.2,0.1c-0.1,0.2-0.1,0.4-0.2,0.5c-0.2,0.1-0.3-0.2-0.5-0.1c-0.2,0-0.4,0.1-0.5-0.1c0,0-0.1,0-0.2,0
		c-0.1,0.3-0.6,0.5-0.5,0.9c0,0.2-0.1,0.2-0.1,0.4c0,0.1-0.2,0.2,0,0.4c0,0,0.1,0.2,0,0.3c-0.1,0.1-0.1,0.2-0.1,0.2
		c-0.2,0.3-0.2,0.6,0,0.9c0,0.1-0.1,0.2-0.2,0.3c-0.2,0.2-0.4,0.3-0.2,0.7c0.2,0.3-0.1,0.7-0.1,1.1c-0.1,0.3-0.1,0.6,0,0.9
		c0.1,0.2-0.1,0.2-0.1,0.3c0,0.1,0.2,0.2,0.2,0.3c0,0.1,0,0.2-0.1,0.3c-0.3,0.2-0.3,0.4-0.1,0.6c0.2,0.2,0.1,0.3-0.1,0.4
		c-0.2,0.1,0.1,0.2,0,0.3c-0.1,0.1-0.2,0.1-0.2,0.2c0,0.1,0,0.2,0.1,0.3c0.1,0.2,0.3,0.5,0.1,0.7c-0.1,0.1,0,0.3,0,0.5
		c0,0.1,0.1,0.3,0,0.4c-0.1,0.1-0.1,0.2,0,0.3c0.2,0.3,0.2,0.5,0,0.8c-0.2,0.2,0,0.5-0.2,0.6c0.2,0.1,0,0.3,0,0.4
		c0,0.3,0,0.6,0.3,0.8c0.1,0.1,0.1,0.2,0,0.3c-0.1,0.1-0.1,0.4,0,0.5c0.2,0.2,0.1,0.4-0.1,0.5c-0.1,0.1,0,0.1,0,0.2
		c0,0.2,0.2,0.3,0.3,0.4c0.1,0.2,0,0.3,0.1,0.5c0.1,0.1,0.1,0.3,0.1,0.5c0.1,0.3,0.2,0.7,0.1,1c0,0.1-0.1,0.2,0.1,0.3
		c0.2,0.1,0.1,0.2,0,0.3c-0.1,0.1-0.1,0.2,0,0.3c0.1,0.1,0.1,0.3,0.1,0.4c0,0.1,0,0.2-0.1,0.2c-0.2,0.1-0.3,0.2-0.2,0.4
		c0,0.1,0,0.1-0.1,0.1c-0.2,0-0.2,0.1-0.1,0.2c0.1,0.3,0.1,0.3-0.1,0.4c-0.1,0.1-0.4,0.1-0.4,0.4c0,0.1-0.2,0.2-0.3,0.2
		c-0.2,0-0.2,0.2-0.4,0.3c-0.1,0.1-0.2,0.1-0.2,0c0,0-0.1-0.1-0.1,0c-0.1,0.1-0.1,0.4-0.3,0.3c-0.2,0-0.3,0-0.5,0.1
		c-0.1,0.1-0.3-0.2-0.5,0c-0.1,0.1-0.3-0.1-0.4,0c-0.2,0.1-0.3-0.1-0.5-0.1c-0.2,0-0.3-0.1-0.3-0.3c-0.1-0.2-0.2-0.3-0.4-0.3
		c-0.3,0-0.4-0.2-0.3-0.4c0-0.1,0-0.2,0-0.4c0-0.1,0-0.3-0.1-0.4c-0.2-0.2-0.2-0.5-0.1-0.7c0-0.1,0-0.2,0-0.2
		c-0.3,0-0.2-0.2-0.2-0.4c0-0.2-0.2-0.3-0.2-0.4c0.2-0.1,0.2-0.4,0.1-0.4c-0.4-0.3-0.1-0.9-0.4-1.2c-0.1,0-0.1-0.1,0-0.2
		c0.2-0.2,0.2-0.5,0-0.7c0,0,0-0.1,0-0.2c0.1-0.1,0.1-0.2,0-0.4c0-0.1,0-0.2-0.1-0.3c-0.1-0.1-0.1-0.1,0-0.2
		c0.2-0.2,0.1-0.4,0.1-0.6c0-0.1-0.2-0.3,0-0.4c-0.1-0.1-0.1-0.2,0-0.4c0-0.2-0.1-0.4-0.2-0.6c0-0.1-0.1-0.1-0.1-0.2
		c0-0.4,0-0.8,0-1.1C166.5,121.1,166.5,121.1,166.2,120.8C166.3,120.9,166.3,120.8,166.2,120.8z"/>
	<path d="M182.2,78.9c0,0.2-0.1,0.5,0.1,0.7c0.1,0.1-0.1,0.3-0.1,0.5c0,0.2,0,0.3,0,0.5c0,0.2-0.1,0.3-0.2,0.5
		c-0.1,0.2-0.1,0.3-0.1,0.4c0.1,0.2,0.2,0.4,0,0.6c-0.1,0.2-0.1,0.4-0.3,0.5c-0.2,0.1-0.2,0.3-0.1,0.5c0.1,0.1,0,0.3-0.2,0.3
		c-0.1,0-0.1,0-0.2,0c-0.2,0-0.5-0.1-0.6,0.3c0,0.1-0.5,0.2-0.7,0.2c0,0-0.1,0-0.1,0c-0.2-0.1-0.3,0.2-0.4,0.1
		c-0.2-0.1-0.3-0.1-0.5-0.1c-0.2,0-0.3,0-0.5,0c-0.2,0-0.5,0.1-0.7-0.2c-0.1-0.1-0.1,0-0.2,0c-0.1,0-0.2,0-0.3-0.1
		c-0.1-0.2-0.4-0.3-0.6-0.4c-0.2-0.1-0.3-0.3-0.5-0.3c-0.1,0-0.1,0-0.1-0.1c0.1-0.3-0.2-0.5-0.3-0.6c-0.1-0.1-0.2-0.2-0.1-0.4
		c0.1-0.1,0-0.2,0-0.2c-0.3-0.1,0-0.3-0.1-0.4c0,0,0-0.6,0-0.6c-0.1-0.2-0.2-0.3,0-0.5c0.1-0.1-0.1-0.2-0.1-0.3
		c0-0.1,0.2-0.2,0.2-0.3c0-0.1,0-0.2,0-0.3c-0.3-0.4-0.3-0.4,0.1-0.8c0.1-0.1,0.2-0.3,0.2-0.4c0.1-0.4,0.3-0.7,0.5-1
		c0.1-0.1,0.2-0.1,0.2-0.3c0.1-0.2,0.3-0.3,0.5-0.3c0.2,0,0.5-0.1,0.7,0.1c0.1,0.1,0.2,0.1,0.3,0c0.2-0.2,0.4,0.1,0.4,0
		c0.2-0.2,0.3,0,0.4,0.1c0.1,0.1,0.1,0,0.2,0c0.2-0.2,0.3-0.2,0.5,0c0,0,0.1,0.1,0.1,0.1c0.5-0.1,0.9,0.4,1.4,0.4
		c0.2,0,0.3,0.1,0.3,0.3c0,0.2,0.1,0.3,0.2,0.4c0.2,0.2,0.2,0.6,0.4,0.8C182.3,78.4,182.2,78.6,182.2,78.9z"/>
	<path d="M73.6,47.9c-0.2-0.2-0.3-0.4-0.5-0.4c-0.2,0-0.4,0.2-0.6,0.2c-0.1,0-0.2,0.1-0.2,0.1c-0.2,0.2-0.3,0.2-0.5,0
		c-0.2-0.2-0.1,0-0.2,0.1c-0.1,0.2-0.2,0.2-0.3,0c0,0,0,0,0-0.1c-0.2-0.2-0.4-0.3-0.5-0.5c-0.1-0.2-0.1-0.4-0.2-0.6
		c-0.2-0.2-0.2-0.4-0.1-0.5c0.1-0.2,0.1-0.4-0.1-0.5c-0.1-0.1-0.1-0.2-0.1-0.2c0,0-0.1-0.1,0-0.1c0.3-0.2,0.1-0.5,0-0.7
		c0-0.1-0.1-0.3,0-0.4c0.1-0.1,0.1-0.3,0.1-0.4c-0.2-0.2-0.1-0.3,0.1-0.5c0.1-0.1,0.1-0.2,0-0.3c-0.2-0.2-0.1-0.3-0.1-0.5
		c0-0.2,0.1-0.4-0.2-0.4c-0.1-0.3-0.1-0.6,0-0.7c0.1-0.3,0.1-0.5,0.1-0.7c0-0.2-0.2-0.3-0.1-0.4c0.1-0.1,0-0.2,0-0.3
		c0-0.1,0-0.2,0-0.2c0.1-0.1,0.1-0.2,0-0.3c-0.1-0.1-0.1-0.3,0-0.3c0.1-0.2,0.1-0.4,0-0.6c0,0,0-0.2,0-0.2c0.1-0.2,0.1-0.3,0-0.5
		c0-0.1-0.1-0.2,0-0.3c0.1-0.1,0.1-0.1,0.1-0.2c-0.1-0.4,0.2-0.8,0.1-1.2c0-0.1-0.2-0.3,0.1-0.4c0-0.2,0-0.4-0.1-0.6
		c0-0.1-0.2-0.3-0.1-0.4c0.1-0.2,0-0.2-0.1-0.4c0-0.1,0-0.2,0.1-0.3c0.1-0.3,0.2-0.6-0.1-0.8c-0.2-0.1-0.1-0.3-0.1-0.4
		c0.1-0.5,0.1-0.5,0-0.9c0-0.1,0-0.2,0.1-0.3c0.1-0.2,0.2-0.4,0.1-0.6c0-0.1,0-0.1,0-0.2c0-0.1-0.3-0.1-0.1-0.3
		c0.1-0.1-0.1-0.2-0.1-0.3c0-0.1,0.1-0.2,0.1-0.4c0.1-0.2,0-0.3,0-0.4c-0.1-0.2-0.1-0.3,0-0.4c0.1-0.1,0.2-0.1,0.1-0.2
		c-0.4-0.4-0.1-0.8,0-1.1c0-0.1,0.1-0.1,0-0.2c-0.3-0.2-0.2-0.6-0.1-0.9c0.1-0.2,0.1-0.5,0-0.7c-0.1-0.1,0.2-0.2,0-0.3
		c-0.1-0.1,0.1-0.2,0.1-0.3c0-0.1,0.1-0.2-0.1-0.3c-0.1-0.1-0.2,0-0.2,0.1c-0.1,0.1-0.1,0.1-0.2,0.2c-0.1,0.1-0.1,0.2-0.3,0
		c-0.1,0.1-0.1,0.1-0.2,0.2c-0.1,0.1-0.2,0-0.3,0c-0.2,0-0.4,0-0.5,0.2c0,0-0.1,0.1-0.1,0.1c-0.3-0.1-0.6,0.1-0.8,0.3c0,0,0,0,0,0
		c-0.1,0-0.3-0.1-0.4-0.1c-0.1,0.1-0.2,0.2-0.3,0.3c-0.1,0.1-0.3,0.1-0.4,0.3c0,0.1-0.1,0.1-0.2,0c-0.2-0.3-0.3,0-0.5,0.1
		c-0.2,0.1-0.3,0.4-0.6,0.2c-0.1-0.1-0.1,0-0.1,0.1c0,0.2-0.1,0.2-0.2,0.1c-0.2-0.1-0.4,0.3-0.6,0c0,0-0.2,0.1-0.2,0.2
		c-0.1,0.3-0.2,0.4-0.4,0.2c-0.1-0.1-0.3,0-0.4,0.2c-0.1,0.1-0.2,0.3-0.4,0.1c-0.1-0.1-0.2,0.1-0.3,0.2c0,0.1,0,0.2-0.2,0.2
		c-0.4-0.1-0.6,0.2-0.8,0.4c-0.1,0.1-0.2,0.1-0.2,0.1c-0.3-0.3-0.3,0-0.4,0.1c-0.1,0.1-0.2,0.1-0.3,0.1c-0.4-0.1-0.6,0-0.8,0.3
		c-0.1,0.1-0.1,0.1-0.2,0.1c-0.3,0-0.5,0.1-0.6,0.3c-0.1,0.1-0.2,0.1-0.3,0c-0.2-0.1-0.4,0-0.6-0.1c0,0.3-0.4,0.2-0.5,0.5
		c-0.1,0.3-0.1,0.3-0.4,0.2c-0.1,0-0.2-0.1-0.3,0c-0.2,0.1-0.2,0.1-0.5,0.2c-0.1,0-0.1,0-0.2,0.1c-0.1,0.3-0.4,0.4-0.6,0.3
		c-0.5,0.3-1,0.2-1.5,0.5c-0.3-0.1-0.3,0.3-0.6,0.3c-0.3-0.1-0.4,0.3-0.5,0.4c-0.2,0.1-0.3-0.2-0.5,0c-0.1,0.1-0.2,0.3-0.4,0.2
		c-0.1-0.1-0.2,0-0.2,0c-0.1,0.2-0.3,0.3-0.6,0.2c-0.1,0-0.2,0-0.2,0.2c0,0.1-0.2,0.3-0.4,0.1c0,0,0,0,0,0c-0.2,0-0.2,0.4-0.5,0.2
		c-0.1-0.1-0.3,0.1-0.4,0.2c-0.1,0.2-0.3,0-0.4,0.1c-0.2,0.1-0.4,0.2-0.6,0.2c-0.2,0-0.4,0.3-0.6,0.2c-0.1,0-0.3,0.1-0.4,0.2
		c-0.1,0-0.1,0.1-0.2,0.1c-0.2,0-0.4-0.2-0.5,0.1c-0.2,0-0.4,0.2-0.6,0.3c-0.2,0.1-0.4,0.2-0.6,0.3c-0.2,0.1-0.5,0.1-0.7,0.4
		c-0.1,0.2-0.2,0.1-0.3,0c-0.1,0.1-0.2,0.1-0.3,0.1c-0.2,0-0.4,0.1-0.6,0.2c0.1,0.2-0.2,0.2-0.3,0.2c-0.3,0.1-0.6,0.1-0.7,0.4
		c-0.1,0.1-0.2,0.1-0.3,0c-0.3-0.3-0.5,0-0.7,0.1c-0.1,0.1-0.2,0.2-0.3,0.3c-0.1,0.1-0.2,0.2-0.4,0.2c-0.2,0-0.4-0.1-0.5,0.2
		c-0.3-0.1-0.5,0.2-0.7,0.1c-0.1,0-0.2,0.2-0.3,0.1c-0.1-0.2-0.2,0.1-0.4,0.1c-0.2,0-0.3,0.1-0.3,0.2c0,0.1-0.1,0.1-0.1,0.1
		c-0.2,0.1-0.4,0-0.6,0.2c-0.2,0.1-0.3,0.2-0.5,0.2c-0.1,0-0.2,0-0.3,0.1c-0.1,0.1-0.3,0.1-0.3,0.3c-0.2,0-0.3,0.2-0.5,0.2
		c-0.5,0.1-0.9,0.6-1.5,0.4c-0.1,0-0.2,0-0.2,0.2c0,0.1-0.1,0.2-0.3,0.1c-0.1-0.1-0.2,0.1-0.3,0.2c0,0,0,0.2-0.1,0.2
		c-0.2,0-0.5-0.1-0.6,0.2c-0.2,0-0.4,0.1-0.6,0.2c0,0,0,0,0,0c-0.1-0.2-0.2,0.1-0.4,0c-0.2-0.1-0.3,0-0.3,0.2
		c-0.1,0.2-0.3,0.1-0.5,0.2c-0.1,0.1-0.3,0.3-0.6,0.1c-0.1-0.1-0.1,0-0.1,0.1c0,0.2-0.1,0.3-0.3,0.3c-0.3-0.1-0.5,0.3-0.8,0.3
		c0,0.3-0.5,0.1-0.5,0.4c-0.3-0.2-0.4,0.3-0.6,0.2c-0.2,0.2-0.4,0.4-0.7,0.2c0,0-0.1,0-0.1,0C28.3,41.9,28.2,42,28,42
		c-0.1,0-0.2,0.2-0.2,0.3c0,0.1-0.1,0.2-0.3,0.1c-0.3-0.2-0.5,0.2-0.7,0.3c-0.2,0.1-0.2,0.3-0.5,0.1c0,0-0.1,0-0.2,0
		c-0.1,0.2-0.2,0.4-0.5,0.4c0,0-0.1,0.1-0.1,0.1c-0.1,0.1-0.1,0.2-0.2,0.3c-0.1-0.1-0.2-0.1-0.3-0.1c-0.1,0-0.2,0-0.2,0
		c-0.1,0.3-0.4,0.4-0.7,0.4c0,0,0,0.2-0.1,0.2c-0.4-0.1-0.5,0.2-0.7,0.4c-0.1,0.1-0.1,0.1,0,0.3c0.1,0.1-0.1,0.2-0.1,0.3
		c-0.2,0.3-0.1,0.7-0.1,1c0,0.1,0.1,0.2,0.2,0.2c0.2,0.1,0.2,0.3,0.1,0.5c0,0.1-0.1,0.1-0.1,0.2c0.1,0.1,0.2,0.2,0.3,0.3
		c-0.2,0.2-0.3,0.3-0.1,0.6c0.1,0.1,0,0.4,0,0.5c0,0.2-0.2,0.5,0,0.7c0,0.1,0,0.1-0.1,0.2c-0.1,0.1-0.1,0.3,0.1,0.4
		c0.2,0.2,0.1,0.4,0,0.6c-0.1,0.2-0.3,0.4,0,0.6c0.1,0.1,0,0.1,0,0.1c-0.1,0.2-0.1,0.4,0,0.5c0.2,0.3,0.1,0.5,0,0.7
		c-0.1,0.2-0.2,0.3,0.1,0.3c0.1,0,0.1,0.2,0,0.3c-0.1,0.1-0.1,0.3-0.1,0.4c0,0.3,0,0.4,0.1,0.6c0.1,0.1,0.1,0.3,0.1,0.4
		c-0.1,0.2-0.1,0.2,0.1,0.3c0.1,0.1,0.1,0.1,0,0.2c-0.1,0.1-0.1,0.2-0.2,0.2c-0.1,0.2-0.1,0.3,0,0.4c0.1,0.1,0.1,0.2,0.1,0.5
		c0,0.3,0.1,0.6-0.1,0.9c-0.1,0.1,0.2,0.3,0.1,0.5c-0.1,0.2,0,0.3,0,0.4c0,0.2,0.1,0.4,0,0.6c-0.1,0.2-0.1,0.4,0.1,0.6
		c-0.2,0.2-0.1,0.4-0.1,0.6c0,0.1,0,0.2,0.1,0.3c0.1,0.2,0.1,0.5-0.1,0.7c-0.2,0.2-0.1,0.4,0.1,0.5c0.3,0.1,0.2,0.2,0.1,0.3
		c0,0.1-0.1,0.2-0.1,0.3c-0.1,0.2-0.1,0.3,0,0.5c0.2,0.1,0.1,0.3,0,0.5c-0.1,0.2-0.3,0.5-0.1,0.7c0,0,0,0.1,0,0.1
		c0,0.2-0.2,0.3-0.1,0.5c0.1,0.1,0.1,0.3,0.1,0.4c0,0.2,0.2,0.4,0.1,0.7c0,0.2,0.1,0.4,0,0.5c-0.1,0.1-0.2,0.3-0.3,0.4
		c0.4,0.2,0.4,0.3,0.3,0.6c-0.1,0.2-0.1,0.5-0.2,0.7c0,0.2,0,0.5,0.1,0.7l0.1,0.6c0,0.1,0,0.2-0.1,0.2c-0.3,0.2-0.1,0.5,0,0.6
		c0.2,0.2,0.2,0.5,0.2,0.7c0,0.1-0.2,0.3,0.1,0.4c0.1,0,0,0.1,0,0.1c0,0.4-0.2,0.7-0.2,1.1c0,0.2,0,0.4,0.1,0.5
		c0.1,0.2,0.1,0.3,0.1,0.5c0,0.2,0,0.5,0.1,0.7c0.1,0.1,0.1,0.3-0.1,0.4c-0.2,0.1-0.1,0.3-0.2,0.5c-0.1,0-0.1,0.1,0,0.1
		c0,0,0.1,0,0.1,0c0.2-0.3,0.5-0.3,0.7-0.2c0.2,0,0.2-0.1,0.3-0.2c0.2-0.2,0.3-0.4,0.6-0.5c0,0,0-0.1,0.1,0c0.2,0.2,0.4,0.1,0.6,0
		c0.3,0.1,0.5-0.2,0.7-0.4c0.1-0.1,0.2-0.2,0.3-0.3c0-0.1,0.1-0.1,0.2-0.1c0.2,0.3,0.3,0,0.5,0c0.2,0,0.3,0.1,0.4,0.1
		c0.1-0.1,0.2-0.2,0.3-0.3c0.1-0.1,0.3-0.3,0.5-0.1c0,0,0.1,0,0.1,0c0.2-0.3,0.6-0.2,0.7-0.5c0.1-0.1,0.2-0.1,0.3-0.1
		c0.2,0,0.4-0.1,0.6-0.2c0.4-0.2,0.8-0.5,1.2-0.5c0.2,0,0.3-0.4,0.6-0.2c0.2-0.2,0.5-0.2,0.7-0.4c0,0,0.1-0.1,0.1-0.1
		c0.5-0.1,0.5-0.1,0.8-0.4c0,0,0.1,0.1,0.1,0.1c0.1,0.1,0.1,0.1,0.2,0c0.1-0.2,0.2-0.3,0.4-0.3c0.2,0,0.3-0.1,0.5-0.2
		c0.2-0.1,0.3-0.2,0.6-0.2c0.1,0,0.1-0.1,0.2-0.2c0.1-0.2,0.3-0.3,0.6-0.2c0,0,0.1,0,0.1,0c0.3-0.3,0.7-0.3,1-0.3c0.1,0,0.1,0,0.2,0
		c0.2-0.1,0.1-0.3,0.3-0.3c0.1,0,0.3,0,0.4-0.1c0.1-0.1,0.3-0.4,0.6-0.2c0.1,0,0.1-0.1,0.2-0.1c0.1-0.1,0.2-0.2,0.2-0.1
		c0.1,0.2,0.2,0.1,0.3,0c0.2-0.3,0.4-0.3,0.8-0.3c0,0,0.1,0,0.1,0c0.1-0.1,0.2-0.3,0.4-0.3c0.2,0,0.3-0.1,0.3-0.3
		c0.3,0,0.4-0.3,0.7-0.3c0.2,0,0.4,0.1,0.6,0.1c0-0.3,0.3-0.2,0.4-0.3c0.1-0.1,0.4-0.1,0.4,0c0.1,0.1,0.2,0,0.3,0
		c0.3,0,0.2-0.4,0.4-0.4c0.3,0,0.4-0.2,0.5-0.3c0.1-0.4,0.5-0.2,0.7-0.4c0.1,0,0.1,0,0.1,0.1c0.1,0.1,0.2,0.1,0.2,0
		c0-0.3,0.2-0.3,0.5-0.3c0.1,0,0.1-0.1,0.2-0.1c0.1,0,0.1-0.2,0.3-0.2c0.1,0,0.2,0.2,0.3,0.2c0.3,0.1,0.5,0.2,0.7,0.3
		c0.2,0,0.5,0.2,0.5,0.5c0,0.1,0.2,0.2,0.1,0.3c-0.1,0.2,0.1,0.2,0.1,0.3c0,0.1,0,0.2,0,0.3c0,0.1,0.1,0.1,0.1,0.1
		c0.4,0.3,0.4,0.4,0.4,0.9c0,0.2,0,0.3,0,0.5c0,0.1,0,0.1-0.1,0.2c-0.3,0-0.3,0.3-0.3,0.5c0,0.1-0.2,0.2-0.3,0.2
		c-0.3,0-0.5,0.1-0.6,0.3c-0.1,0.1-0.2,0.1-0.3,0c0,0,0,0-0.1,0c-0.2,0.3-0.6,0.3-0.8,0.6c-0.1,0.1-0.2,0.1-0.3,0.1
		c-0.1,0-0.2,0-0.3,0.1c-0.1,0.1-0.2,0.3-0.4,0.1c-0.1-0.1-0.2,0.2-0.3,0.3c-0.1,0.1-0.2,0.2-0.4,0.2c-0.2-0.1-0.3,0.1-0.4,0.3
		c-0.1,0.2-0.2,0-0.4,0.1c-0.2,0.1-0.5,0-0.7,0.2c0,0-0.2,0-0.3,0c-0.2-0.1-0.2,0.1-0.3,0.2c-0.1,0.1-0.2,0.2-0.3,0.1
		c-0.1-0.1-0.1,0.1-0.2,0.1c-0.1,0-0.2,0-0.3,0.1c-0.2,0.2-0.7,0.2-0.8,0.6c0.2,0.2,0.4-0.3,0.6,0c0.1,0.1,0.4,0.1,0.6,0.2
		c0.1,0.1,0.1-0.2,0.2,0c0,0.1,0.1,0.1,0.2,0.2c0.1,0.1,0.2,0.2,0.3,0.1c0.2-0.1,0.4,0.1,0.5,0.3c0.1,0.3,0.4,0.5,0.7,0.7
		c0,0,0.1,0,0.1-0.1c0-0.2,0.1-0.4-0.1-0.6c0.2-0.2,0.3-0.3,0.5-0.5c0.1-0.1,0.1-0.3,0.2-0.4c0.1-0.1,0.2-0.3,0.4-0.1
		c0,0,0.1,0,0.2,0c0.2-0.3,0.5,0,0.8-0.1c0.1,0,0.2,0.1,0.4-0.1c0.1-0.1,0.2,0,0.3,0c0.1,0.1,0.3,0.2,0.4,0c0.1-0.1,0.2-0.1,0.3-0.1
		c0.2,0,0.4,0,0.5,0c0.2,0,0.4-0.1,0.6,0.1c0.2,0.2,0.4,0.5,0.4,0.8c0,0.3,0,0.5,0.2,0.8c0,0,0.1,0.1,0,0.1
		c-0.1,0.2-0.2,0.4-0.1,0.5c0.1,0.2,0.2,0.3,0,0.5c0.2,0.3-0.2,0.6,0.1,0.9c-0.2,0.2,0,0.4,0,0.6c0,0.2,0,0.4,0,0.7
		c0,0.1-0.1,0.3,0,0.3c0.3,0.2,0.1,0.4,0,0.5c-0.3,0.3-0.4,0.6-0.6,1c-0.1-0.1-0.1-0.1-0.2-0.2c0,0-0.1-0.1-0.1,0
		c0,0.2-0.1,0.3-0.2,0.1c-0.1-0.2-0.2-0.1-0.4-0.1c-0.2,0-0.4,0.2-0.6,0c-0.2,0.2-0.4,0.2-0.6,0.1c-0.2-0.1-0.2,0-0.3,0
		c-0.2,0.1-0.2,0.2-0.1,0.4c0.1,0.3,0.1,0.7,0.2,1c0,0.1,0,0.1,0,0.2c-0.1,0.1-0.1,0.2-0.2,0.3c-0.2,0.3-0.2,0.5,0.2,0.6
		c0.2,0.1,0.2,0.2,0.2,0.4c0,0.2-0.1,0.2-0.2,0.4c-0.1,0.2-0.1,0.4,0.1,0.6c0.2,0.2,0.1,0.3,0,0.5c-0.1,0.2-0.4,0.1-0.4,0.3
		c-0.4,0.3-0.3,0.8-0.5,1.2c0.1,0.2,0.1,0.3-0.1,0.4c-0.2,0.1-0.4,0.2-0.4,0.5c0,0,0,0.1,0,0.1c-0.2,0.1-0.5,0.1-0.6,0.5
		c-0.1,0.2-0.4,0.3-0.6,0.5c-0.2,0.2-0.4,0.2-0.6,0.2c-0.1,0.2-0.1,0.4-0.4,0.4c-0.1,0.2-0.3,0.1-0.5,0.1c-0.1,0-0.1,0-0.2,0
		c-0.5,0.2-0.5,0.2-1.1,0.1c-0.3-0.1-0.6,0-0.9,0.3c-0.1,0.1-0.2,0.1-0.3,0c-0.1-0.1-0.2-0.1-0.3-0.1c-0.3,0-0.5,0-0.8,0
		c-0.1,0-0.3,0-0.4,0.1c-0.1-0.1-0.2-0.2-0.3-0.3c-0.1,0-0.2,0-0.3,0c-0.1,0-0.2-0.2-0.3-0.1c0,0-0.1,0-0.2,0
		c-0.1-0.4-0.4-0.3-0.6-0.3c-0.3,0-0.5-0.1-0.7-0.3c-0.4-0.3-0.4-0.3-0.6-0.6c-0.1-0.1-0.1-0.2-0.1-0.3c0-0.2-0.1-0.3-0.2-0.4
		c-0.3-0.1-0.3-0.3-0.4-0.5c0-0.1,0-0.2-0.1-0.3c-0.2-0.1-0.2-0.3,0-0.5c0.1-0.1,0.1-0.2,0-0.3c-0.1-0.1-0.1-0.1-0.2-0.2
		c-0.1-0.1-0.1-0.2,0-0.2c0.2-0.1,0.1-0.2,0-0.3c-0.1-0.2-0.2-0.4,0-0.6c0.2-0.2,0.2-0.4,0.2-0.5c-0.1-0.2-0.1-0.5-0.3-0.7
		c-0.1-0.1-0.3-0.2-0.2-0.3c0.2-0.2-0.1-0.3,0-0.4c0,0,0.1-0.1,0.1-0.1c0.1-0.1-0.1-0.2-0.1-0.4c0.1-0.1,0.1-0.2,0.2-0.3
		c0-0.1,0-0.2-0.1-0.3c-0.1-0.2-0.1-0.4-0.2-0.6c-0.1-0.2-0.1-0.3,0-0.4c0.1-0.1,0.1-0.3,0.1-0.5c0-0.1-0.1-0.3,0.2-0.3
		c0.1,0,0.1-0.2,0-0.3c0-0.1-0.1-0.2-0.2-0.3c-0.1-0.2-0.1-0.4,0.1-0.5c0.2-0.1,0.3-0.3,0.2-0.5c0,0,0-0.1,0.1-0.2
		c0.1-0.1,0.4-0.1,0.4-0.3c0-0.2,0.1-0.2,0.3-0.3c0.1,0,0.2-0.2,0.2-0.3c0-0.2,0.2-0.1,0.2-0.2c-0.3-0.1-0.6-0.1-0.7,0.1
		c-0.2,0.2-0.5,0.1-0.6,0.4c0,0.1-0.1,0-0.2,0c-0.1,0-0.3,0-0.2,0.2c0,0,0,0,0,0c-0.1,0-0.3,0-0.4,0c-0.1,0,0,0.3-0.2,0.2
		c-0.1,0-0.2,0-0.2,0c-0.2,0.1-0.5,0.1-0.7,0.3c-0.2,0.2-0.6,0.2-0.8,0.4c-0.1-0.1-0.1-0.1-0.2,0c-0.1,0.1-0.2,0.2-0.3,0.1
		c-0.3-0.1-0.5,0.2-0.9,0.1c-0.1,0-0.2,0.2-0.3,0.3c-0.1,0.2-0.3,0.3-0.5,0.2c-0.2-0.1-0.2,0.2-0.4,0.1c-0.1-0.1-0.1,0.1-0.1,0.1
		c0,0.2-0.1,0.4-0.3,0.2c-0.1,0-0.2,0-0.2,0c-0.1,0-0.2,0-0.3,0.2c-0.1,0.2-0.3,0.4-0.6,0.3c-0.2,0-0.4,0-0.6,0.1
		c-0.1,0.1-0.2,0.2-0.3,0.1c-0.1-0.1-0.1,0-0.1,0.1c-0.1,0.3-0.4,0.3-0.6,0.5c0,0-0.2,0-0.2,0c-0.1,0-0.1,0-0.1,0.1
		c0.1,0.3-0.2,0.3-0.4,0.3c-0.1,0-0.1,0.1-0.2,0.1c-0.1,0.1-0.1,0.1-0.3,0.1c-0.3-0.1-0.4,0.1-0.6,0.3c-0.1,0.2-0.3,0.3-0.5,0.2
		c-0.1-0.1-0.3,0.2-0.5,0.2c-0.1,0-0.3-0.2-0.4-0.2c-0.5,0.3-0.7-0.2-1.1-0.2c-0.1,0-0.1-0.1-0.2,0c-0.2,0.3-0.4,0-0.6-0.1
		c-0.3-0.1-0.3-0.3-0.2-0.7c0-0.1,0.1-0.2,0-0.2c-0.3-0.1-0.3-0.4-0.5-0.6c0-0.1-0.1-0.1-0.1-0.1C20,77.1,20,77.1,20,76.8
		c0-0.5-0.1-0.9-0.3-1.3c0,0-0.1-0.1,0-0.1c0.3-0.2,0-0.3,0-0.4c0-0.1-0.1-0.2-0.1-0.2c0-0.1,0.2-0.1,0.1-0.2
		c-0.1-0.1-0.1-0.1,0-0.2c0.1-0.1,0-0.2,0.1-0.3c0-0.1,0.1-0.1,0.1-0.2c-0.1-0.1-0.2-0.3-0.2-0.4c0-0.2,0.1-0.3,0-0.4
		c0,0-0.1-0.2,0-0.2c0.2-0.2,0.1-0.4,0.1-0.6c0-0.1,0.1-0.2,0.2-0.2c0,0,0.1-0.1,0.1-0.1c-0.3-0.2,0-0.6-0.2-0.8
		c-0.1-0.1-0.1-0.2-0.1-0.3c-0.1-0.2,0.2-0.3,0.1-0.4c-0.1-0.2-0.2-0.2,0-0.4c0.1-0.1,0-0.3,0-0.4c-0.2-0.6-0.2-0.6-0.1-1.4
		c0-0.2-0.1-0.4-0.2-0.5c-0.1-0.2-0.1-0.3,0.1-0.5c0.1-0.1,0.1-0.2,0-0.3c-0.1-0.2-0.1-0.3-0.1-0.6c0.1-0.3,0.1-0.6,0.2-0.9
		c0-0.1,0-0.1,0-0.2c0.1-0.3-0.3-0.5,0-0.8c-0.1-0.2,0-0.5-0.2-0.7c-0.2-0.2,0-0.4,0-0.6c0-0.1,0.1-0.1,0.2-0.2
		c-0.2-0.1-0.1-0.3-0.1-0.5c-0.1-0.2-0.3-0.3-0.2-0.5c0.1-0.2,0-0.3,0-0.4c0-0.2,0-0.4-0.1-0.5c0.2-0.2,0-0.5,0.1-0.7
		c0.1-0.2-0.1-0.3,0-0.5c0.1-0.2,0-0.3-0.2-0.5c-0.1-0.1-0.1-0.1,0-0.2c0.2-0.2,0.3-0.3,0.1-0.5c-0.1-0.1,0.1-0.2,0.2-0.3
		c-0.1-0.1-0.2-0.1-0.3-0.2c-0.2-0.1,0-0.2,0-0.3c0-0.1,0-0.2,0.1-0.3c-0.2-0.3,0-0.7-0.1-1c0-0.1-0.1-0.1,0-0.2
		c0.1-0.2,0.1-0.3,0.1-0.5c0-0.2-0.2-0.4,0-0.6c0.1-0.2-0.1-0.4,0.1-0.7c0.1-0.1,0.1-0.4-0.1-0.5c-0.2-0.1,0-0.2,0-0.3
		c0-0.1,0.1-0.2,0-0.4c-0.1-0.1-0.3-0.3,0-0.4c0,0,0.1-0.2,0-0.3c-0.1-0.1,0-0.2-0.1-0.3c-0.1-0.2,0.1-0.3,0-0.5
		c-0.1-0.2,0-0.4,0-0.6c0-0.1,0-0.3,0.1-0.4c0,0,0-0.2,0-0.3c-0.2-0.5-0.1-0.5,0-0.9c0,0,0-0.1,0-0.1c-0.1-0.1-0.3-0.2-0.2-0.4
		c0.1-0.2-0.2-0.2-0.1-0.3c-0.2-0.1-0.1-0.2-0.1-0.4c0-0.2,0.1-0.3,0.2-0.5c0.1-0.2-0.2-0.3-0.1-0.5v-0.3c-0.2-0.2,0-0.5-0.2-0.7
		c0,0,0-0.1,0.1-0.1c0.1-0.1,0.1-0.3,0-0.4c-0.2-0.2-0.1-0.3,0.1-0.4c0.1-0.1,0.1-0.2-0.1-0.3c0,0-0.1-0.1-0.1-0.1
		c0-0.3,0.1-0.6-0.1-0.9c0,0,0,0,0,0c0.5-0.3,0.1-0.7,0.1-1.1c0-0.4,0-0.7,0.2-0.9c0.1-0.1-0.1-0.3,0.1-0.4c0,0,0.2-0.1,0.2-0.1
		c0.1,0.1,0.2,0,0.2,0c0.1-0.2,0.3-0.2,0.5-0.1c0.1,0.1,0.2,0,0.2-0.1c0-0.1-0.1-0.2,0.1-0.2c0.1,0,0.2,0.1,0.2,0.2
		c0.1,0,0,0.2,0.1,0.2c0-0.1,0.1-0.2,0.1-0.2c0.1-0.1,0.1-0.2,0-0.2c-0.2-0.1-0.2-0.2-0.1-0.3c0.3-0.2,0-0.3-0.1-0.4
		c0.1-0.2,0.3-0.4,0.6-0.3c0,0,0.1,0,0.1,0c0-0.3,0.4-0.3,0.5-0.4c0.1-0.1,0.3-0.2,0.4-0.1c0.3,0.1,0.6-0.2,0.8-0.3
		c0-0.3,0.2-0.2,0.4-0.2c0.2,0,0.4,0,0.5-0.2c0.1-0.1,0.2-0.1,0.3-0.1c0.1,0,0.3-0.1,0.3-0.1c0.2-0.3,0.5-0.3,0.8-0.5
		c0.1-0.1,0.3-0.1,0.4-0.3c0-0.1,0.2-0.1,0.3,0c0.2,0.3,0.4,0,0.5-0.1c0.3-0.1,0.4-0.4,0.8-0.4c0.1-0.2,0.3-0.4,0.5-0.1
		c0.1,0.1,0.1,0,0.2-0.1c0.2-0.1,0.5-0.2,0.6-0.5c0-0.1,0.1-0.1,0.2-0.1c0.4-0.1,0.8-0.1,1.1-0.5c0.3,0.1,0.6-0.2,0.9-0.2
		c0.1,0,0.2-0.1,0.2-0.1c0.3-0.4,0.7-0.5,1.2-0.5c0.2,0,0.3,0,0.3-0.3c0-0.1,0.1-0.2,0.3-0.2c0.1,0,0.2,0,0.2,0c0.3,0,0.6,0,0.8-0.3
		c0.2-0.2,0.3-0.2,0.7-0.2c0.3,0,0.6,0.1,0.7-0.3c0-0.2,0.2-0.3,0.5-0.3c0.3,0,0.5-0.2,0.8-0.1c0.2,0,0.1-0.2,0.2-0.3
		c0.1-0.1,0.1-0.2,0.3-0.1c0.2,0.1,0.5,0,0.6-0.2c0.1-0.2,0.2-0.2,0.3-0.2c0.2,0,0.4,0,0.5-0.2c0-0.1,0.1-0.1,0.2-0.1
		c0.1,0,0.3,0,0.4-0.1c0.1-0.1,0.3-0.1,0.3-0.1c0.2,0.2,0.3,0,0.3-0.1c0-0.1,0.1-0.2,0.2-0.1c0.2,0.1,0.2,0.1,0.2-0.1
		c0-0.1,0-0.2,0.2-0.2c0.1,0,0.2,0,0.2,0c0.2,0.2,0.3,0,0.3-0.1c0-0.3,0.1-0.3,0.3-0.3c0.1,0,0.2,0,0.4,0c0.3,0.1,0.5,0,0.7-0.2
		c0.1-0.1,0.8-0.5,0.9-0.5c0.2,0,0.4,0,0.5-0.2c0.2-0.2,0.5,0,0.7-0.1c0.2-0.1,0.3-0.3,0.5-0.4c0.1-0.1,0.4,0,0.5,0
		c0.1,0,0.2,0,0.2-0.1c0-0.4,0.3-0.2,0.5-0.2c0.1,0,0.2,0,0.2,0c0.1-0.4,0.5-0.3,0.7-0.5c0.2-0.2,0.3-0.1,0.5-0.1
		c0.2,0,0.3,0,0.4-0.2c0.1-0.1,0.2-0.1,0.3,0c0.1,0.1,0.1-0.1,0.2-0.1c0.1,0,0-0.2,0.2-0.2c0.3-0.1,1.3-0.5,1.5-0.5
		c0.1,0,0.2,0,0.3-0.1c0.1-0.2,0.3-0.3,0.5-0.2c0.1,0,0.2-0.1,0.2-0.2c0.1-0.1,0.2-0.2,0.4-0.1c0.2,0.1,0.3-0.2,0.4-0.1
		c0-0.3,0.3-0.3,0.4-0.2c0.4,0.1,0.6,0,0.8-0.3c0.1-0.1,0.1-0.2,0.2-0.2c0.2,0,0.3,0,0.5,0c0.3,0,0.6-0.1,0.8-0.3
		c0.1-0.1,0.2-0.2,0.3-0.3c0.1-0.1,0.1-0.2,0.3,0c0,0,0.2-0.1,0.3-0.1c0.1-0.1,0.2-0.1,0.3-0.1c0.1,0,0.2-0.1,0.3-0.1
		c0.2,0,0.3,0.3,0.4,0c0.1-0.2,0.3-0.1,0.4-0.1c0,0,0.1-0.1,0.1-0.1c0-0.3,0.3-0.2,0.3-0.1c0.3,0.3,0.3,0,0.4-0.1
		c0.1-0.1,0.1-0.4,0.3-0.3c0.2,0.1,0.4,0,0.6-0.1c0.2,0,0.4-0.2,0.6-0.2c0.2,0,0.2-0.1,0.2-0.2c0-0.1,0.1-0.1,0.2-0.1
		c0.1,0,0.2,0,0.4,0.1c0.2,0.1,0.4,0.1,0.5-0.1c0.3-0.3,0.8-0.5,1.2-0.7c0.3-0.1,0.6,0.1,0.8-0.2c0.2,0.1,0.2-0.1,0.4-0.1
		c0.2,0,0.3-0.4,0.5-0.1c0.1-0.2,0.4-0.2,0.6-0.3c0.1,0,0.2-0.1,0.2-0.2c0-0.1,0.1-0.2,0.2-0.1c0.2,0.2,0.3,0.1,0.4,0
		c0.1-0.2,0.3,0,0.4-0.2c0.1-0.2,0.3-0.4,0.6-0.2c0,0,0.2-0.1,0.3-0.2c0.2-0.2,0.4-0.2,0.6-0.1c0.3,0.1,0.6,0,0.7-0.2
		c0.1-0.2,0.5-0.1,0.5-0.4c0.2,0.3,0.3,0,0.5-0.1c0.1-0.1,0.2-0.1,0.3-0.1c0.2,0,0.4-0.1,0.5-0.3c0.1-0.2,0.3,0,0.5-0.2
		c0-0.1,0.3-0.3,0.4,0c0,0.1,0.1,0,0.2-0.1c0.4-0.4,0.4-0.4,1-0.5c0.2,0,0.1-0.3,0.3-0.3c0.1,0,0.3,0,0.4-0.1
		c0.1-0.1,0.2-0.1,0.4-0.1c0.3,0,0.6,0.1,0.8-0.1c0,0,0.1,0,0.1,0c0.1,0.2,0.3,0.2,0.4,0c0,0,0.1-0.1,0.1,0c0.2,0.3,0.5,0.2,0.8,0.3
		c0.4,0.2,0.4,0.2,0.2,0.6c-0.2,0.3-0.1,0.6,0.3,0.8c0.1,0.1,0.3,0.3,0.2,0.5c-0.1,0.2-0.1,0.3,0,0.4c0.3,0.3,0.3,0.4,0.2,0.8
		c0,0.1,0,0.2,0,0.3c0,0.2,0,0.5-0.1,0.7c-0.1,0.2,0.1,0.5-0.1,0.7c0,0,0,0.1,0,0.2c0.3,0.3,0.2,0.7,0.2,1c0,0.1,0,0.2-0.1,0.2
		l-0.1,0.5c0,0,0,0,0,0c0.2,0.2,0,0.4,0.2,0.7c0.2,0.3,0.2,0.5-0.1,0.8c-0.1,0.1-0.2,0.3,0,0.5c0.2,0.2,0.2,0.6,0.2,0.9
		c0,0.1-0.1,0.1-0.1,0.1c-0.1,0-0.1,0.1-0.1,0.2c0.1,0.3,0.4,0.6,0.1,1c0.2,0.3,0.1,0.4-0.1,0.6c0,0,0,0.1,0,0.2
		c0.3,0.5,0.3,1,0.1,1.6c-0.1,0.4-0.1,0.5,0,1c0,0.1,0.1,0.2,0,0.3c0,0,0,0,0,0c0.3,0.5-0.1,0.9,0,1.4c0,0.1,0,0.2,0.1,0.3
		c0.1,0.1,0.1,0.3,0,0.4c-0.1,0,0,0.1,0,0.2c0.1,0.4,0.1,0.4,0,0.9c0,0.1,0,0.2,0,0.2c0.2,0.2,0.1,0.4,0.1,0.6c0,0.1,0,0.2,0.1,0.3
		c0.1,0.1,0,0.2-0.1,0.2c-0.1,0.1-0.1,0.2,0,0.3c0.1,0.1,0.1,0.2,0,0.3c-0.2,0.1-0.2,0.3-0.1,0.5c0.1,0.1,0,0.3,0,0.4
		c-0.1,0.3-0.1,0.7,0.1,1c0.1,0.3,0.1,0.3-0.1,0.4c-0.2,0.1-0.2,0.1-0.1,0.2c0.1,0.2,0.2,0.4,0.2,0.7c0,0.1,0,0.2,0.1,0.3
		c0.3,0.1,0.1,0.4,0,0.4c-0.2,0.1,0,0.2,0,0.3c-0.1,0.1-0.2,0.2-0.2,0.3c0,0.2,0.1,0.4,0.1,0.6c0.1,0.4,0.1,0.6,0,1
		c0,0.1-0.1,0.2,0,0.2c0.3,0.1,0.1,0.4,0.3,0.6c0.1,0.1,0,0.1,0,0.1c-0.2,0.3-0.3,0.7-0.7,0.8c-0.1,0-0.1,0.1-0.1,0.2
		c0,0.1-0.3,0.1-0.4,0.1C73.7,47.7,73.7,47.7,73.6,47.9z M40.6,82.6c0.1-0.4,0.3,0.1,0.4-0.1c0.2-0.2,0.4,0,0.6-0.1c0,0,0,0,0,0
		c0-0.2,0.1-0.2,0.3-0.2c0.1,0,0.2-0.2,0.3-0.3c0.2-0.1,0.1-0.2,0.1-0.4c0-0.1-0.1-0.2-0.1-0.2c0.2-0.2,0-0.3,0-0.4
		c0-0.2,0-0.4,0-0.6c0-0.2-0.2-0.3,0-0.5c0.1-0.2-0.1-0.4-0.1-0.5c0-0.1-0.1-0.2,0.1-0.3c0.1-0.1,0-0.1,0-0.2
		c-0.1-0.2,0-0.3-0.2-0.5c-0.1-0.1-0.1-0.2,0-0.2c0-0.1,0-0.2-0.1-0.1c-0.2,0.2-0.4,0-0.5,0.1c-0.1,0.1-0.2,0.1-0.3,0
		c-0.1-0.2-0.3-0.2-0.5,0c-0.1,0.1-0.2,0.1-0.4,0.2c-0.1,0.1-0.2,0.1-0.3,0c-0.2-0.2-0.3,0-0.5,0c-0.2,0.1-0.3,0.3-0.2,0.4
		c0.1,0.2,0.1,0.3,0,0.5c-0.2,0.2,0.2,0.3,0.2,0.4c0,0,0,0.1,0,0.1c-0.2,0.2,0,0.5,0,0.7c0,0.1-0.1,0.5-0.1,0.6c0,0.1,0,0.1,0,0.2
		c0,0,0.1,0.1,0.1,0.1c-0.2,0.3,0,0.5,0.1,0.7c0.1,0.1,0,0.2,0,0.3c0,0.1,0.1,0.1,0.2,0.1c0.1,0,0.1-0.1,0.2,0
		C40.1,82.5,40.3,82.6,40.6,82.6z"/>
	<path d="M64.8,43.6c0.1-0.2,0.1-0.3,0.1-0.4c0-0.2,0.3-0.3,0.4-0.1c0.2,0.4,0.7,0.6,0.7,1.1c0,0.1,0,0.1,0.1,0.1
		c0.3,0,0.4,0.2,0.6,0.4c0.2,0.1,0.3,0.2,0.2,0.4c0,0.1,0,0.1,0,0.2c0.1,0.1,0.2,0,0.3,0.1c0.1,0,0.1,0,0.1,0.1
		c-0.1,0.4,0.2,0.5,0.4,0.5c0.2,0.1,0.2,0.3,0.2,0.3c-0.2,0.2,0,0.4,0,0.6c0,0.1,0.1,0.1,0.1,0.3c0,0.1,0,0.2,0.2,0.2
		c0.1,0,0.2,0,0.2,0c0.2,0,0.3,0.1,0.3,0.4c0,0.4,0,0.7,0.4,0.9c0.2,0.1,0.3,0.3,0.2,0.4c-0.1,0.3,0.1,0.4,0.3,0.5
		c0.3,0.1,0.2,0.2,0.2,0.4c0,0.2,0,0.6,0.3,0.7c0.3,0.1,0.3,0.3,0.2,0.6c-0.1,0.2-0.1,0.2,0.1,0.3c0.3,0,0.5,0.4,0.4,0.7
		c0,0.1-0.1,0.2-0.1,0.3c0,0.1-0.1,0.3,0.2,0.3c0.1,0,0.1,0.1,0.2,0.2c0.1,0.1,0.3,0.2,0.2,0.3c-0.1,0.2,0.1,0.4,0,0.6
		c-0.1,0.1-0.1,0.2,0,0.3c0.2,0.1,0.3,0.3,0.3,0.5c0.3,0.1,0.3,0.2,0.1,0.4c-0.1,0.1,0.1,0.2,0,0.4c-0.1,0.1,0.1,0.1,0.1,0.2
		c0.1,0.2,0.4,0.3,0.3,0.5c0.3,0.1,0.2,0.6,0.6,0.6c0.1,0,0.3,0.1,0.4,0c0.2-0.1,0.3-0.1,0.5-0.1c0.1,0,0.2,0,0.3-0.1
		c0.1-0.1,0.1-0.1,0.2,0c0.1,0.1,0-0.2,0.2-0.2c0.1,0,0.2,0,0.3,0c0.1,0,0.2,0,0.3-0.1c0.1-0.1,0.2-0.2,0.3,0c0,0,0.1,0,0.2,0
		c0.1-0.1,0.2-0.3,0.4-0.1c0,0,0.1,0,0.1-0.1c0.1-0.1,0.2-0.2,0.3-0.1c0.4,0.1,0.6-0.3,1-0.4c0-0.2,0.1-0.2,0.2-0.2
		c0.1,0,0.3,0.1,0.4-0.1c0.1-0.1,0.1,0,0.1,0c0.1,0.4,0.5,0,0.6,0.3c0,0.1,0.1,0.1,0.1,0.3c0,0.2,0.1,0.3,0.2,0.3
		c0.3,0.1,0.2,0.2,0.1,0.4c0,0.1-0.1,0.1-0.2,0.2c-0.1,0.1-0.1,0.2,0.1,0.2c0.2,0,0.3-0.1,0.4,0.2c0,0.2,0.1,0.3,0,0.4
		c0,0.1,0,0.1,0.1,0.1c0.1,0,0.3,0,0.3,0.1c-0.1,0.2,0.2,0.3,0,0.5c-0.1,0,0,0.2,0,0.3c0,0.1,0,0.2,0.1,0.1c0.3-0.1,0.2,0.1,0.2,0.3
		c0,0.2-0.1,0.3-0.3,0.3c-0.1,0-0.2,0-0.2,0c-0.2,0-0.3,0.1-0.3,0.2c-0.1,0.3-0.3,0.6-0.7,0.3c0,0-0.1,0-0.2,0
		c-0.1,0.1-0.3,0.2-0.3,0.3C78,60,77.7,59.9,77.6,60c-0.2,0.2-0.4,0.1-0.5,0.1c-0.1,0-0.3-0.1-0.3,0.2c0,0.1-0.2,0-0.3,0.1
		c-0.1,0-0.3-0.1-0.4,0.2c0,0.1-0.3,0.1-0.4,0c-0.3-0.1-0.6-0.2-0.8,0c0,0,0,0-0.1,0c-0.2,0.1-0.1,0.4-0.4,0.4
		c-0.2,0-0.3,0.1-0.5,0.1c-0.2,0.1-0.3,0.3-0.5,0.2c-0.2,0.2-0.5,0.3-0.6,0.5c-0.1,0.1-0.3,0.2-0.5,0.2c-0.3,0-0.5,0.1-0.7,0.3
		c-0.1,0.1-0.1,0.1-0.2,0.2c-0.2,0.1-0.2-0.2-0.4,0c-0.1,0.1-0.2,0.2-0.4,0.3c-0.2-0.1-0.2-0.3-0.4-0.4c-0.2-0.1,0-0.1,0-0.2
		c0-0.1,0-0.2-0.1-0.2c-0.1,0-0.2,0-0.3-0.1c-0.1-0.1-0.1-0.3-0.3-0.4c-0.1,0-0.3,0-0.5,0c0.2-0.2,0.3-0.3,0.2-0.5
		c-0.1-0.2-0.2,0-0.2,0c-0.1-0.1-0.3-0.1-0.3-0.2c0-0.2-0.3-0.1-0.2-0.3c-0.1,0-0.2-0.2-0.3-0.3c-0.1-0.1-0.2-0.2-0.4-0.3
		c-0.1,0-0.1-0.3-0.2-0.5c-0.1-0.1-0.1-0.3-0.2-0.5c-0.1-0.2-0.2-0.3-0.3-0.5c-0.1-0.2,0-0.4-0.1-0.6c0-0.1,0-0.2,0-0.3
		c0.1-0.1,0.2-0.2-0.1-0.2c-0.1,0-0.2-0.1-0.1-0.3c0.2-0.3,0.2-0.3-0.2-0.6c-0.2,0.1-0.2,0.3-0.2,0.4c0.3,0.4,0,0.7-0.2,1
		c0,0.1-0.1,0.1-0.1,0.2c-0.1,0.1-0.1,0.2,0,0.3c0.2,0.3,0.2,0.7,0,1c0,0.1-0.1,0.2,0,0.3c0.2,0.2,0.1,0.3-0.1,0.4
		c-0.1,0.1-0.1,0.2,0,0.3c0.2,0.3,0.2,0.3,0,0.6c-0.2,0.2-0.2,0.2,0,0.5c0.2,0.2,0.1,0.4,0.1,0.6c-0.1,0.2-0.1,0.4-0.1,0.6
		c0,0.1,0,0.2,0.1,0.3c0.2,0.1,0.2,0.3,0.1,0.5c-0.1,0.2,0,0.5,0,0.7c0,0.4,0,0.4,0.1,0.6c0.1,0.1,0.1,0.2,0,0.3
		c-0.1,0.1-0.1,0.2,0,0.3c0.1,0.1,0.1,0.3,0,0.4c0,0,0,0.1,0,0.2c0.1,0.1,0.1,0.3,0,0.4c-0.2,0.1-0.1,0.4-0.2,0.5
		c-0.1,0.1,0.1,0.2,0.1,0.4c0,0.1,0.2,0.2,0.3,0.3c0.2,0.2,0.2,0.2,0,0.5c-0.1,0.1-0.1,0.2,0,0.3c0.1,0.1,0.2,0.3,0.1,0.4
		c-0.2,0.3-0.1,0.5,0.1,0.7c0,0,0.1,0.1,0.1,0.1c-0.2,0.2-0.2,0.4-0.1,0.6c0,0.1,0,0.2,0,0.4c0,0.2,0,0.3,0.2,0.4
		c0.1,0,0.1,0.1,0.1,0.2c0,0.2,0,0.4,0.2,0.6c0.1,0.1,0.1,0.4,0.2,0.6c0,0.1,0.1,0.2,0.2,0.3c0,0,0.1,0.1,0.1,0.1
		c-0.3,0.2,0,0.4,0.1,0.6c0.1,0.2,0.1,0.6,0.3,0.8c0.2,0.2,0.1,0.5,0.3,0.8c0,0,0,0.1,0,0.1c-0.3,0.3,0,0.4,0.1,0.7
		c0.1,0.2,0.2,0.3,0.3,0.5c0.1,0.1,0.1,0.2,0,0.3c-0.1,0.1-0.1,0.2,0,0.3c0.2,0.2,0.2,0.4,0.3,0.7c0,0.2,0,0.4,0.2,0.5
		c0.1,0,0,0.1,0,0.2c0,0.4-0.1,0.8,0.1,1.1c-0.1,0.2-0.2,0.4,0,0.6c0.1,0.1-0.1,0.2-0.2,0.2c-0.3,0.1-0.5,0.3-0.5,0.6
		c0,0.2-0.2,0.2-0.3,0.2c-0.1,0.1-0.1-0.1-0.1-0.2c-0.1-0.2-0.2-0.1-0.3-0.1c-0.2-0.1-0.2-0.1-0.3,0.1c0,0.1-0.1,0.1-0.2,0
		c-0.1-0.1-0.1-0.1-0.2,0c-0.1,0.2-0.2,0.1-0.3,0c-0.1-0.1-0.2-0.1-0.2,0c-0.2,0.3-0.4,0.2-0.6,0.2c-0.2,0-0.3,0.1-0.4,0.2
		c-0.1,0.1-0.2,0.1-0.2,0c-0.1-0.1-0.2-0.1-0.4-0.1c-0.2,0.1-0.4,0-0.7,0c0-0.3-0.2-0.5-0.1-0.8c0-0.1-0.1-0.2-0.2-0.2
		c-0.1-0.1-0.1-0.1-0.1-0.2c0-0.5-0.2-0.9-0.4-1.2c-0.1-0.1-0.1-0.2-0.1-0.3c0.1-0.5,0-0.7-0.3-1.1c-0.1-0.1,0-0.1,0-0.2
		c0.1-0.1,0-0.3,0.1-0.4c0,0,0-0.1,0-0.1C63,76,63,75.8,63,75.6c-0.1-0.2-0.1-0.4-0.1-0.6c0-0.1-0.1-0.1-0.1-0.2
		c-0.1-0.1-0.1-0.2-0.2-0.3c-0.1-0.2,0.2-0.3,0.1-0.5c-0.2-0.2-0.3-0.3-0.2-0.5c0.1-0.3-0.1-0.4-0.3-0.6c-0.1-0.1-0.2,0-0.2-0.2
		c0.1-0.2-0.2-0.4,0-0.6c-0.1-0.2-0.1-0.4-0.1-0.5c0-0.2,0-0.4-0.2-0.5c-0.1,0-0.1-0.1-0.1-0.2c0-0.3,0.1-0.6-0.1-0.9c0,0,0,0,0,0
		c0.4-0.2,0-0.5,0.1-0.8c0-0.1,0-0.2-0.1-0.3c-0.2-0.1-0.1-0.4-0.2-0.5c-0.2-0.1-0.5,0.1-0.7-0.1c-0.1-0.1-0.1,0-0.1,0.1
		c-0.1,0.1-0.2,0.2-0.3,0.4c0,0.1-0.1,0.1-0.3,0.1c-0.1,0-0.2,0-0.3,0c-0.1,0.2-0.3,0.1-0.5,0.1c-0.3,0-0.6,0-0.8,0.3
		c-0.1,0.2-0.4,0.2-0.6,0.2c-0.2,0-0.3,0.1-0.3,0.4c0,0.1,0,0.3-0.1,0.4c-0.1,0.1-0.2,0.1-0.2,0.2c0,0.1,0,0.2,0,0.2
		c0.4,0.3,0.7,0.7,0.6,1.3c0,0.1,0,0.2,0.1,0.3c0.1,0.2,0.1,0.3-0.1,0.4c0,0,0,0.1,0,0.2c0.4,0.5,0.3,1.1,0.3,1.7
		c0,0.1-0.1,0.1,0,0.2c0.3,0.3,0.2,0.7,0.5,0.9c0.1,0.1,0.2,0.3,0.4,0.3c0,0,0.3,0.5,0.2,0.5c-0.3,0.3,0,0.6,0.1,0.8
		c0.1,0.2-0.1,0.3-0.1,0.4c0,0.1,0.3,0.2,0.2,0.4c0,0.1,0,0.3,0,0.4c0,0.1,0,0.2,0.1,0.3c0.2,0.1,0,0.4,0.2,0.5
		c-0.1,0.3,0.1,0.6,0.2,0.8c0.1,0.2,0.2,0.4,0.1,0.5c-0.1,0.2,0,0.3,0,0.5c0,0.2,0.2,0.2,0.3,0.3c0.1,0.1,0.2,0.2,0.1,0.3
		c-0.1,0.1-0.1,0.3-0.1,0.6c0,0.2,0.1,0.5-0.3,0.6c-0.1,0-0.1,0.2-0.1,0.3c0.2,0.2,0.1,0.4,0.1,0.8c-0.5-0.3-0.8-0.2-1.2,0
		c-0.1,0.1,0,0.3-0.2,0.3c-0.1,0-0.2-0.1-0.3-0.1c-0.1-0.1-0.2,0.1-0.4,0.1c-0.1,0-0.1,0.1-0.2,0.1c-0.1-0.1-0.1-0.1-0.2,0
		c0,0.2-0.1,0.3-0.3,0.2c-0.2-0.1-0.2-0.1-0.3,0.1c-0.1,0.2-0.2,0.2-0.4,0.2c-0.4,0-0.4,0-0.6,0.1c0,0,0,0-0.1,0
		c-0.2-0.2,0-0.4-0.1-0.6c-0.1-0.3-0.4-0.4-0.6-0.6c-0.1-0.1-0.2-0.1-0.2-0.2c0-0.1-0.1-0.2-0.1-0.2c-0.2-0.2-0.3-0.3-0.1-0.6
		c0,0,0.1-0.2-0.1-0.3c-0.2-0.1-0.3-0.3-0.3-0.6c0.1-0.1,0-0.1-0.1-0.1c-0.2-0.1-0.2-0.4-0.4-0.4c0,0,0-0.1,0-0.2
		c0-0.1-0.1-0.3,0.1-0.4c0.1-0.1,0-0.2,0-0.3c-0.1-0.1-0.2-0.3-0.3-0.4c-0.1-0.1-0.1-0.2-0.1-0.2c0.2-0.1-0.2-0.3,0.1-0.4
		c0.1-0.1,0.2-0.2,0.2-0.3c0.1-0.3,0.1-0.4-0.1-0.5c-0.2-0.1-0.2-0.1-0.2-0.3c0-0.1,0-0.2,0-0.2c-0.1-0.2,0.2-0.4-0.1-0.6
		c-0.2-0.1,0-0.5-0.3-0.6c0-0.3-0.4-0.5-0.3-0.8c0,0,0-0.1-0.1-0.1c-0.3,0-0.2-0.2-0.1-0.4c0.2-0.3,0.2-0.5,0.1-0.9
		c0-0.1-0.2-0.2-0.1-0.4c0-0.1,0-0.1-0.1-0.2c-0.2,0-0.2-0.2-0.1-0.3c0.1-0.2-0.2-0.3-0.1-0.5l-0.1-0.6c0.1-0.2,0.2-0.3-0.1-0.4
		c-0.1,0-0.1-0.1,0-0.2c0.2-0.2,0-0.3-0.1-0.4c-0.1-0.2-0.1-0.4-0.1-0.6l0-0.6c-0.1-0.3-0.1-0.6,0-0.9c0-0.2,0.1-0.5-0.1-0.7
		c-0.1-0.1-0.1-0.3,0-0.4c0.3-0.2,0.2-0.5,0.2-0.7c0-0.1-0.2-0.2-0.1-0.3c0-0.1,0.2-0.2,0-0.3c0,0,0-0.1,0-0.2
		c0-0.2,0.3-0.2,0.2-0.4c0-0.1-0.2-0.2-0.1-0.3c0.1-0.1,0.1-0.4,0-0.5c-0.2-0.3,0-0.4,0.1-0.6c0.1-0.2,0.2-0.3,0.1-0.5
		c-0.1-0.1,0-0.1,0-0.2c0.2-0.2,0.3-0.5,0.4-0.8c0.1-0.2-0.1-0.3-0.1-0.3c0.2-0.3,0-0.6,0.2-0.9c0.1-0.2-0.1-0.2,0-0.3
		c0.1-0.1,0.2-0.2,0.3-0.3c0.1-0.1,0-0.2-0.1-0.2c0-0.1,0.1-0.1,0.1-0.2c0-0.2-0.1-0.5,0.2-0.7c0,0,0-0.1,0-0.1c0-0.4,0-0.7,0.2-1
		c0-0.1,0-0.1,0-0.2c-0.1-0.2-0.1-0.5,0.1-0.6c0.2-0.1,0-0.4,0.2-0.5c-0.2-0.2-0.1-0.3,0.1-0.5c0.1-0.1,0.3-0.2,0.1-0.4
		c0,0,0-0.1,0-0.2c0.2-0.5,0.3-1,0.3-1.5c0-0.2,0.2-0.5,0.2-0.7c0.1-0.2,0.2-0.3,0.1-0.5c0-0.1,0-0.2,0.1-0.3
		c0.2-0.2,0.3-0.4,0.3-0.6c0-0.1,0-0.1,0.1-0.2c0.2-0.2,0.3-0.3,0.3-0.6c0,0,0.1-0.1,0.1-0.2c0.1-0.1,0.3-0.1,0.1-0.3
		c0-0.1,0.4-0.1,0.1-0.3c0.1-0.1,0.2-0.2,0.3-0.3c0.1-0.2,0.2-0.3,0.2-0.5c0-0.1,0-0.2,0-0.4c0-0.2,0.1-0.3,0.2-0.3
		c0.5-0.1,0.4-0.4,0.4-0.8c-0.2,0-0.5,0-0.7-0.2c-0.2-0.1-0.4,0-0.6-0.1c0,0,0,0,0,0c0,0.1-0.1,0.2-0.2,0.3C55,50,55,49.8,54.9,49.9
		C54.8,50,54.7,50,54.6,50c-0.1,0.1-0.2,0.1-0.3,0.2c-0.3,0.1-0.5,0.2-0.7-0.1c-0.1-0.1-0.2-0.1-0.3,0c-0.2,0.5-0.4,0.4-0.8,0.3
		c-0.2-0.1-0.3-0.1-0.4,0.1c0,0.1-0.1,0.1-0.2,0.2c-0.1,0.1-0.1,0.1-0.2,0.2c-0.1,0-0.1-0.2-0.2-0.1c-0.1,0.2-0.3,0-0.4,0.2
		c-0.1,0.2-0.3,0.1-0.4,0.2c-0.1,0.1-0.3,0.1-0.4,0.1c-0.3,0-0.5,0.1-0.6,0.4c-0.1,0.1-0.2,0.4-0.4,0.1c0,0-0.1,0-0.1,0
		c-0.1,0-0.1,0.1-0.2,0.1c0,0-0.1,0.1-0.1,0.1c-0.1-0.1-0.1-0.1-0.2,0c-0.2,0.2-0.3,0.5-0.7,0.4c0,0-0.1,0.1-0.1,0.1
		c-0.1,0.2-0.3,0.2-0.5,0.1c-0.1-0.1-0.3,0.2-0.4,0c0,0,0,0-0.1,0c-0.2,0.1-0.1,0.5-0.4,0.4c-0.3,0-0.3,0.2-0.5,0.4
		c-0.2,0.1-0.3,0.3-0.5,0.5c-0.1-0.1-0.2-0.2-0.4-0.3c-0.1,0-0.2-0.1-0.2,0c-0.1,0.2-0.2,0.1-0.4,0.1c-0.3,0-0.4-0.2-0.5-0.4
		c-0.1-0.2-0.1-0.2-0.2-0.1c-0.1,0-0.1,0.1-0.1,0c-0.1-0.1-0.3-0.2-0.2-0.4c0-0.1,0-0.1-0.1-0.2c-0.4-0.1-0.6-0.5-0.6-0.9
		c0-0.1-0.1-0.2-0.1-0.2c-0.2-0.1-0.3-0.3-0.4-0.5c0-0.1-0.1-0.3-0.2-0.3c-0.2-0.1-0.2-0.3-0.2-0.5c-0.3,0-0.2-0.3-0.2-0.4
		c-0.1-0.2-0.3-0.3-0.3-0.6c0-0.1,0-0.3-0.2-0.3c-0.1,0-0.2-0.1-0.2-0.3c0-0.2-0.4-0.3-0.3-0.6c-0.1-0.1-0.3-0.1-0.4-0.2
		c-0.1-0.1-0.3-0.2-0.2-0.3c0.2-0.2,0.1-0.3-0.1-0.3c-0.1,0-0.2-0.2-0.2-0.4c0-0.2-0.1-0.3-0.3-0.3c-0.3,0-0.2-0.3-0.3-0.4
		c0.1-0.4-0.2-0.7-0.3-1.1c0-0.1-0.1-0.1,0-0.2c0.1-0.1,0.1,0.1,0.2,0.1c0.1-0.2,0.2-0.3,0.4-0.4c0.1,0,0.1-0.1,0.2-0.1
		c0.1,0,0.2,0.2,0.3,0.1c0.1,0,0-0.2,0.1-0.3c0.1-0.1,0.1,0.2,0.2,0c0-0.1,0-0.2,0-0.2c0.1-0.1,0.1-0.1,0.2,0
		c0.1,0.1,0.2,0.1,0.2-0.1c0-0.1,0.1-0.2,0.2-0.3c0.1-0.1,0.2-0.1,0.3,0c0.3,0.2,0.3,0.2,0.4-0.1c0-0.1,0.1-0.2,0-0.3
		c-0.1-0.1-0.1-0.1,0-0.2c0.1-0.1,0.2,0,0.2,0c0.1,0.1,0.1,0,0.2,0c0.6-0.2,0.9,0,1.1,0.6c0,0.1,0.2,0.2,0.1,0.4
		c0,0.1,0,0.1,0.1,0.1c0.1,0,0.3-0.1,0.4,0.1c0.1,0.2,0.3,0.3,0.3,0.6c0,0.3,0.3,0.5,0.4,0.8c0,0,0.1,0,0.2,0c0.1,0,0.2,0.1,0.2,0.2
		c0,0.1,0,0.2,0,0.3c0,0.2,0,0.3,0.2,0.3c0.1,0,0.3,0.1,0.3,0.2c0,0.2,0.1,0.3,0.1,0.5c0,0.2,0.1,0.2,0.2,0.2c0.1-0.1,0.4,0,0.4-0.3
		c0.2-0.1,0.3-0.4,0.6-0.1c0.1,0.1,0.4,0.1,0.4-0.2c0-0.1,0.2-0.2,0.3-0.1c0.2,0.1,0.4,0,0.5-0.1c0.1-0.1,0.2-0.1,0.4-0.1
		c0.2,0.1,0.3-0.1,0.5-0.1c0.2,0,0.2-0.2,0.3-0.3c0-0.1,0.1-0.2,0.2-0.1c0.2,0,0.3-0.1,0.5-0.2c0.1-0.1,0.2-0.1,0.3-0.1
		c0.1,0,0.3-0.1,0.3-0.1c0.1-0.4,0.5-0.2,0.6-0.2c0.2,0.1,0.3,0,0.4-0.1c0.1-0.1,0.1-0.1,0.2-0.2c0.2-0.2,0.5,0,0.5-0.2
		c0.1-0.3,0.3-0.1,0.5-0.2c0.1,0,0.2-0.1,0.4-0.2c0.1-0.1,0.3-0.2,0.4-0.2c0.2,0,0.5,0.2,0.8-0.1c0.2,0.2,0.5,0.2,0.7,0.2
		c0.2,0,0.4-0.3,0.6-0.4c0.1,0,0.2,0,0.2,0c0.3,0.2,0.5,0.1,0.8-0.1c0.1-0.1,0.3-0.1,0.5-0.2c0.1,0,0.2-0.1,0.3-0.2
		c0.1-0.1,0.2,0,0.2,0c0.2,0,0.5,0.2,0.6-0.2c0-0.1,0.2-0.1,0.3,0c0.2,0.1,0.3,0.1,0.5-0.1c0.1-0.1,0.1-0.1,0.2,0
		c0.1,0.1,0.3-0.1,0.4-0.1c0.2-0.1,0.3-0.2,0.5,0c0.1,0.1,0.2,0.1,0.2,0c0.2-0.1,0.3-0.2,0.4-0.3c0.2,0.2,0.4,0.1,0.5,0
		c0.1-0.1,0.1-0.1,0.2,0c0.2,0.1,0.3,0.1,0.4,0c0.1-0.1,0.2-0.2,0.3-0.1c0.2,0.2,0.4,0,0.5,0.1c0.1,0.1,0.3,0,0.4,0.1
		c0.2,0.1,0.2-0.2,0.4-0.2c0.1,0,0.3-0.3,0.3,0c0.1,0.2,0.2,0.1,0.2,0.2c0.1,0.2,0.1,0.3,0.4,0.1c0.1-0.1,0.4-0.1,0.5,0.2
		C64.6,43.4,64.7,43.5,64.8,43.6z"/>
	<path d="M142.8,74c-0.2-0.1-0.2-0.4-0.4-0.5c0,0-0.1,0.1-0.1,0.1c-0.2,0.3-0.4,0.4-0.7,0c-0.1-0.2-0.1-0.2-0.2-0.1
		c-0.2,0.2-0.4,0.4-0.5,0.6c-0.3,0.4-0.3,0.4-0.7,0.2c-0.1-0.1-0.2-0.2-0.3-0.2c-0.1,0.1-0.2,0.1-0.3,0.1c-0.2,0-0.4,0-0.5,0
		c-0.1,0-0.1,0-0.2,0c0-0.3-0.4-0.2-0.5-0.3c-0.2-0.2-0.6-0.2-0.7-0.6c0-0.1-0.1-0.2-0.2-0.1c-0.2,0.1-0.3-0.1-0.4-0.1
		c-0.1,0-0.2,0-0.3,0c-0.1,0-0.3,0-0.4,0c-0.1,0-0.1-0.2-0.2-0.3c-0.1-0.1-0.2-0.1-0.3-0.1c-0.2,0-0.4-0.1-0.4-0.4
		c0-0.1-0.1-0.1-0.1-0.1c-0.1,0-0.2,0-0.3,0.1c0,0-0.1,0.1-0.1,0.1c-0.2-0.2-0.6-0.2-0.8-0.4c-0.1-0.1-0.2-0.2-0.4-0.1
		c-0.3,0.2-0.4,0.1-0.5-0.2c0-0.1-0.2-0.2-0.3-0.2c-0.2,0-0.4,0-0.5-0.2c-0.1-0.2-0.4,0-0.4-0.2c-0.1-0.3-0.3-0.1-0.4-0.2
		c-0.2,0-0.3-0.1-0.4-0.3c0,0,0,0,0,0c-0.1-0.1-0.3,0-0.4,0c-0.1,0,0-0.3-0.2-0.2c-0.4,0-0.6-0.3-1-0.4c-0.2-0.1-0.3-0.3-0.5-0.2
		c-0.2,0.1-0.2-0.3-0.5-0.2c-0.3-0.1-0.6-0.2-0.8-0.5c-0.2-0.3-0.5-0.3-0.8-0.5c-0.3-0.2-0.3-0.2-0.3-0.6c0-0.2,0-0.5,0.2-0.7
		c0.1-0.1,0.1-0.3,0-0.4c0-0.2,0.1-0.3,0.2-0.3c0,0,0.2-0.1,0.1-0.2c-0.1-0.2-0.2-0.4-0.1-0.6c-0.2-0.2,0-0.4,0-0.5
		c0-0.1,0-0.1,0-0.2c-0.1-0.2-0.2-0.4-0.1-0.6c0.1-0.1-0.1-0.2-0.1-0.3c-0.1-0.1,0.2-0.1,0.1-0.3c-0.1-0.1-0.1-0.2,0-0.3
		c0.1-0.1,0.1-0.2,0-0.3c-0.2-0.2,0.1-0.3,0-0.6c-0.1-0.1,0-0.4,0.2-0.5c0,0,0-0.1,0-0.1c0.1-0.2-0.2-0.3-0.1-0.4
		c0.1-0.1,0.1-0.2,0.1-0.4c-0.1-0.6-0.1-0.7,0-1.2c0-0.1,0.1-0.2,0-0.3c-0.2-0.2,0-0.5-0.2-0.6c0.2-0.2,0.1-0.4,0.1-0.7
		c0-0.2,0.1-0.4,0.2-0.6l0-0.6c-0.1-0.5-0.4-0.9-0.1-1.4c0-0.1-0.1-0.1-0.1-0.1c0-0.3-0.1-0.6,0.2-0.8c0.1-0.1,0.1-0.2,0-0.3
		c-0.1-0.4-0.1-0.5-0.1-0.8c0-0.1,0-0.2-0.1-0.3c-0.1-0.1-0.1-0.2,0-0.4c0.1-0.1,0-0.2,0-0.2c-0.1-0.1-0.1-0.2,0-0.3
		c0.1-0.1,0.1-0.1,0.1-0.2c0-0.2-0.1-0.3-0.1-0.4c0-0.1,0.2-0.2,0-0.4c-0.1-0.1,0-0.2,0.1-0.2c0.2-0.1,0.2-0.2,0-0.4
		c0,0-0.1-0.1-0.1-0.1c0.4-0.2,0.1-0.4,0-0.6c0,0,0-0.1,0-0.1c0-0.2,0.2-0.2,0.2-0.3c0-0.1-0.3-0.2-0.2-0.3c0.1-0.3,0.1-0.7,0.2-1.1
		c0-0.1,0.1-0.1,0-0.2c-0.1-0.2,0-0.3-0.1-0.5c0-0.2,0.2-0.3,0.1-0.5c0-0.1-0.2-0.3,0-0.4c0.1-0.1,0-0.2-0.1-0.3
		c-0.2-0.1-0.3-0.3-0.1-0.5c0.1-0.1-0.1-0.2-0.1-0.4c0-0.1-0.1-0.2,0-0.4c0.1-0.1,0.3-0.3,0.1-0.6c-0.1-0.1,0-0.1,0.1-0.1
		c0.1-0.1,0.2-0.2,0-0.4c-0.1,0,0-0.1,0.1-0.2c0.1-0.1,0.2-0.2,0.1-0.3c-0.1-0.1,0.1-0.1,0.1-0.2c0.1-0.3,0.4-0.4,0.4-0.8
		c0-0.1,0.1-0.1,0.2-0.1c0.2,0,0.4-0.1,0.3-0.3c0-0.2,0.2-0.1,0.3-0.2c0.2-0.3,0.2-0.6,0.3-0.9c0.1-0.4,0.3-0.5,0.6-0.3
		c0.2,0.1,0.4-0.1,0.6,0c0.2,0.1,0.4,0.1,0.6,0c0.1-0.1,0.3,0,0.4,0l0.6,0.3c0.1,0.1,0.2,0.1,0.3,0.1c0.2,0,0.4,0,0.6,0.2
		c0.1,0.1,0.3,0,0.4,0.1c0.1,0,0.2,0,0.1,0.1c0,0.2,0.1,0.3,0.2,0.2c0.2,0,0.4,0.1,0.6-0.1c0.1-0.1,0.2,0,0.2,0.1
		c0.3,0.4,0.3,0.4,0.9,0.4c0.2,0,0.3,0,0.3,0.2c0,0.1,0.1,0.2,0.2,0.2c0.3-0.1,0.4,0.4,0.7,0.3c0.2-0.1,0.4,0,0.5,0.3
		c0.1,0.2,0.3,0.3,0.6,0.3c0.2,0,0.4,0,0.5,0c0.1,0,0.1,0,0.2,0.1c0.2,0.3,0.2,0.3,0.6,0.2c0.3-0.1,0.4-0.1,0.5,0.2
		c0.1,0.3,0.3,0.4,0.6,0.4c0.3,0,0.6,0.1,0.9,0.3c0.1,0.1,0.3,0.3,0.5,0c0.1-0.1,0.3,0,0.3,0.1c0.1,0.2,0.3,0.4,0.5,0.3
		c0.3-0.1,0.4,0.2,0.6,0.2c0.3,0,0.3,0.2,0.4,0.4c0.1,0.1,0.2,0.2,0.2,0.4c0.1-0.1,0.1-0.2,0.2-0.2c0.1-0.1,0.2-0.1,0.3,0.1
		c0.2,0.4,0.4,0.7,0.3,1.1c0,0.1,0.1,0.2,0.1,0.3c0,0.1,0.2,0.3,0,0.4c0.1,0.1,0.2,0.2,0,0.3c-0.1,0.1-0.1,0.1,0,0.2
		c0.1,0.1,0.1,0.2,0,0.4c-0.1,0.1-0.1,0.1,0,0.2c0.2,0.2,0.1,0.3-0.1,0.4c-0.1,0.1-0.1,0.3,0,0.4c0.2,0.1,0.1,0.3,0,0.4
		c0,0.1-0.2,0.2-0.1,0.3c0.3,0.2,0.2,0.4,0.1,0.6c0,0.1,0,0.2,0.1,0.3c0,0,0,0.1,0,0.2c0,0.1-0.3,0-0.2,0.2c0,0.1,0.2,0.2,0.2,0.3
		c0,0,0,0.1,0,0.2c-0.2,0.3-0.2,0.3-0.2,0.5c0,0,0.1,0.1,0.1,0.1c-0.2,0.3,0.1,0.5,0,0.7c0,0.1-0.1,0.1-0.1,0.1
		c0,0.1-0.1,0.2,0.1,0.3c0.3,0.2,0.2,0.4,0.1,0.7c0,0-0.1,0.1-0.1,0.1c0,0.2,0.1,0.3,0.1,0.5c0,0.2-0.2,0.3-0.3,0.4
		c0,0.1-0.1,0.2,0,0.3c0.1,0.1,0.2,0.2,0.3,0.3c0.1,0.1,0.1,0.1,0,0.2c-0.1,0.1-0.3,0.2-0.2,0.4c0.2,0.2,0,0.3,0,0.4
		c0,0.2,0,0.3,0.1,0.4c0.1,0.2-0.1,0.3-0.1,0.5c-0.2,0.2-0.1,0.4,0.1,0.5c0.2,0.2,0.3,0.4,0.1,0.7c-0.1,0.1,0.2,0.2,0,0.4
		c-0.1,0.1,0,0.3,0,0.5c0,0.2,0,0.4,0,0.5c0.1,0.2,0.1,0.2,0,0.3c-0.2,0.1-0.1,0.2,0,0.3c0,0,0.1,0.1,0.1,0.2
		c-0.1,0.1-0.1,0.3,0,0.5c0.1,0.1,0,0.2,0,0.3c-0.1,0.1-0.1,0.3,0,0.4c0.2,0.1,0.1,0.3,0,0.3c-0.2,0.1-0.1,0.2-0.1,0.4
		c0,0.1,0.2,0.3,0,0.5c0.2,0.1,0.1,0.3,0,0.4c0.2,0.2,0,0.4-0.1,0.5c-0.1,0.2-0.1,0.4,0,0.6c0.2,0.3,0.2,0.5,0.1,0.8
		c-0.2,0.3,0.1,0.7,0.2,1.1c0,0.1,0.1,0.2,0,0.3c-0.2,0.2-0.2,0.5,0,0.8c0.1,0.1,0.1,0.2,0,0.3c-0.2,0.2-0.1,0.2-0.1,0.5
		c0,0.2-0.1,0.4,0,0.6c0.1,0.2-0.2,0.3,0.1,0.5c0.1,0.1-0.1,0.4,0.1,0.5c0.1,0.1,0,0.1-0.1,0.1c-0.1,0.2,0,0.4-0.1,0.5
		c0.3,0.2-0.1,0.3,0,0.4c0,0.1,0,0.1,0,0.2c0.1,0.1,0.1,0.2,0,0.3c-0.2,0.2-0.2,0.4-0.1,0.6c0.1,0.1,0,0.2,0.1,0.3
		c0.1,0.2-0.1,0.3-0.2,0.3C143.5,73.4,143.1,73.6,142.8,74z M139.5,62.6c-0.3-0.2-0.5-0.4-0.1-0.7c0,0,0-0.1,0-0.2
		c-0.1-0.2-0.1-0.3,0-0.5c0.1-0.2,0.1-0.4,0-0.5c-0.3-0.6,0-1.1,0.2-1.6c0.1-0.2,0.1-0.2,0-0.3c-0.2-0.3-0.1-0.7-0.1-1
		c0.3-0.2,0.1-0.4,0-0.5c-0.1-0.1-0.2-0.3-0.2-0.5c0-0.3,0-0.6,0.1-0.8c-0.2-0.3-0.1-0.6,0.1-0.8c0.1-0.1,0.1-0.2,0.1-0.3
		c-0.1-0.1-0.2-0.2-0.1-0.4c0.1-0.1-0.2-0.2,0-0.3c0.2-0.2-0.1-0.2-0.1-0.4c0-0.2-0.1-0.4,0-0.5c0.2-0.2,0-0.3,0-0.4
		c-0.1-0.2-0.2-0.4,0-0.6c0,0,0-0.1,0-0.2c-0.1-0.1-0.1-0.2,0-0.3c0.2-0.2,0.1-0.4,0-0.6c0-0.1-0.3-0.3,0.1-0.3c0.1,0,0.1-0.1,0-0.2
		c-0.1-0.1-0.1-0.2,0-0.3c0.1-0.1,0.1-0.4,0-0.6c-0.1-0.2-0.1-0.3,0.1-0.5c0.1-0.1,0.1-0.1,0-0.2c-0.1-0.1-0.1-0.2-0.3-0.2
		c-0.2,0-0.4,0.1-0.6-0.1c-0.1-0.1-0.2-0.2-0.2-0.3c-0.1-0.1-0.3,0-0.4-0.1c0,0-0.1-0.1-0.1-0.1c0-0.2-0.1-0.2-0.2-0.1
		c-0.1,0.1-0.2,0.1-0.2,0c0-0.4-0.3-0.2-0.4-0.2c-0.2,0-0.4-0.3-0.7-0.3c0-0.3-0.2-0.2-0.4-0.2c-0.3-0.1-0.6-0.1-0.9-0.4
		c-0.1-0.1-0.2-0.1-0.3,0c-0.1,0.1-0.2,0-0.2-0.1c0-0.2-0.2-0.3-0.4-0.2c-0.1,0-0.2,0-0.3,0c-0.3,0-0.7-0.2-0.9-0.5
		c-0.2-0.2-0.4-0.3-0.7-0.3c-0.2,0-0.5,0.1-0.7-0.2c-0.1-0.1-0.2-0.1-0.3,0c-0.1,0.1-0.1,0.2,0,0.3c0.3,0.3,0,0.7,0.2,1
		c-0.2,0.4-0.1,0.8-0.1,1.2c0,0.2-0.1,0.5-0.2,0.7c-0.1,0.3-0.2,0.6,0.1,0.9c0.1,0.1,0.1,0.2,0,0.4c-0.2,0.4-0.1,0.9-0.3,1.3
		c0,0.1,0,0.1,0.1,0.2c0.1,0.1,0.2,0.3,0.3,0.4c-0.2,0.2,0,0.5-0.2,0.7c-0.1,0.1-0.1,0.2,0,0.4c0.1,0.1,0.1,0.2,0,0.2
		c-0.1,0.1-0.1,0.1,0,0.2c0.1,0.2,0.3,0.4,0,0.5c-0.1,0,0,0.1,0,0.2c0.1,0.5,0.3,1,0,1.5c-0.1,0.2,0.2,0.3,0,0.4c0,0,0,0.1,0.1,0.1
		c0.2,0.1,0.1,0.3,0.1,0.5c-0.1,0.3,0,0.7,0,1c0,0.1,0.1,0.3-0.1,0.3c-0.2,0.1-0.1,0.2,0,0.4c0,0.2,0.3,0.4,0,0.7c0,0,0,0.2,0.1,0.3
		c0.1,0.1,0.1,0.3-0.1,0.4c-0.2,0.1-0.1,0.2,0,0.3c0.1,0.1,0.1,0.3-0.1,0.4c-0.1,0-0.1,0.1,0,0.2c0.1,0.2,0.2,0.3,0.1,0.5
		c-0.1,0.2,0,0.4,0,0.6c0.1,0.3,0.1,0.5,0.1,0.8c0,0.3,0.1,0.5-0.1,0.8c0,0,0,0.1,0,0.2c0.1,0.1,0,0.3,0.1,0.4c0,0,0,0.1,0,0.1
		s0,0.1,0,0.1c-0.2,0.2,0,0.6-0.2,0.8c-0.1,0.1,0,0.2,0.1,0.3c0,0,0.1,0,0.1,0.2c-0.1,0.3,0,0.3,0.2,0.4c0.1,0,0.4-0.1,0.4,0.1
		c0,0.2,0.3,0.1,0.3,0.3c0,0.2,0.3,0.2,0.5,0.2c0,0,0.1-0.1,0.1-0.1c0.2,0.2,0.4,0.4,0.7,0.2c0.1,0.1,0.2,0.2,0.3,0.3
		c0.2,0.1,0.3,0.4,0.5,0.3c0.1,0,0.1,0,0.2,0.1c0.3,0.2,0.4,0.6,0.9,0.3c0,0,0.1,0,0.1,0c0.1,0.3,0.4,0.2,0.6,0.3
		c0.2,0.2,0.5,0.3,0.7,0.3c0.3,0,0.6,0.1,0.7,0.4c0,0.1,0.2,0.3,0.3,0.2c0.3-0.2,0.5,0,0.7,0.1c0.2,0.1,0.5,0.2,0.7,0
		c0.2-0.1,0.3-0.2,0.2-0.4c0-0.2-0.1-0.3,0-0.4c0.1-0.2,0.1-0.3-0.1-0.4c-0.2-0.2-0.2-0.3,0-0.5c0.1-0.1,0.1-0.2,0-0.3
		c-0.1-0.3-0.2-0.6,0-0.9c0.1-0.2,0-0.3,0-0.4c0,0,0-0.6,0-0.6c0.1-0.4,0.2-0.9-0.1-1.3c0,0,0,0,0-0.1c0.1-0.3,0-0.5-0.1-0.7
		c0-0.1,0-0.2,0.1-0.3C139.3,62.8,139.4,62.7,139.5,62.6z"/>
	<path d="M125.2,50.8c-0.1,0.1-0.2,0.2-0.3,0.3c-0.1,0.1-0.1,0.2-0.1,0.3c0.2,0.2,0,0.5,0.2,0.6c0.1,0.1-0.2,0.2,0,0.4
		c0.1,0.1,0,0.3-0.2,0.4c-0.1,0.2-0.1,0.4,0,0.6c0.2,0.4,0.1,0.7,0,1.1c0,0.1-0.1,0.1,0,0.2c0.1,0.1,0.3,0.2,0.3,0.4
		c0,0.1-0.2,0.3-0.2,0.4c-0.1,0.2-0.1,0.2,0,0.4c0.1,0.1,0.2,0.3,0,0.5c0,0,0,0.2,0,0.2c0,0.2,0.2,0.5-0.1,0.7c0,0,0,0.2,0,0.3
		c0.3,0.4,0.1,0.9,0,1.3c0,0.1-0.1,0.2,0,0.4c0.1,0.1,0.1,0.2,0,0.3c-0.1,0.1-0.1,0.2,0,0.3c0.1,0.1,0.1,0.1,0,0.2
		c-0.1,0.1-0.1,0.2-0.1,0.3c0,0.4,0,0.6-0.2,1c-0.1,0.2,0,0.4,0,0.6c0,0.1,0,0.2-0.1,0.2c-0.3-0.1-0.3,0.2-0.3,0.3
		c-0.2,0.3-0.1,0.3-0.4,0.3c-0.2,0-0.4,0.1-0.6-0.1c0,0-0.1,0-0.1,0c-0.1,0.2-0.3,0.1-0.4,0c-0.1-0.1-0.3-0.1-0.3-0.2
		c-0.1,0.1-0.3,0.1-0.3,0.2c-0.1,0.2-0.3,0.1-0.4,0.2c-0.1,0-0.3-0.1-0.4,0.1c0,0.1-0.2,0.1-0.3,0c-0.3-0.2-0.6-0.1-0.9-0.1
		c-0.1,0-0.2,0-0.3-0.1c0,0-0.1-0.1-0.1-0.1c-0.4,0-0.7-0.3-1-0.3c-0.2,0-0.2-0.1-0.3-0.2c-0.1-0.1-0.2-0.2-0.3-0.1
		c-0.1,0-0.2,0-0.3-0.1c0-0.1-0.1-0.1-0.2-0.1c-0.2,0.1-0.4,0.1-0.6-0.1c-0.1-0.2-0.4-0.1-0.5-0.3c-0.1-0.2-0.3-0.4-0.6-0.2
		c-0.2-0.1-0.4-0.1-0.5-0.3c-0.2-0.2-0.5-0.2-0.5-0.5c0-0.1-0.4-0.1-0.5,0c-0.2,0.2-0.4,0-0.5-0.1c-0.1-0.4-0.5-0.4-0.7-0.6
		c-0.2-0.1-0.2-0.2-0.4,0c-0.1,0.1-0.2,0-0.3-0.1c-0.1-0.1-0.2-0.2-0.4,0c-0.1,0.1-0.1,0-0.2-0.1c-0.1-0.1-0.2-0.2-0.2-0.3
		c0-0.1-0.1-0.2-0.2-0.2c-0.1,0-0.3,0-0.4-0.2c-0.1-0.2-0.2-0.4-0.1-0.6c0.2-0.2-0.3-0.4,0-0.6c0.1-0.1,0.1-0.3,0.2-0.5
		c0.1-0.1-0.1-0.3,0.1-0.4c0.1,0,0-0.1,0-0.2c0-0.2-0.2-0.3-0.1-0.5c0-0.1-0.1-0.4,0.1-0.5c0.1-0.1,0-0.2,0.1-0.3
		c0-0.2-0.3-0.5,0-0.7c0,0,0-0.1-0.1-0.1c-0.1-0.1-0.1-0.2,0-0.3c0.4-0.3,0.1-0.6,0.1-0.9c0-0.2-0.1-0.4,0-0.7
		c0.1-0.2,0.1-0.5,0-0.7c-0.2-0.3-0.1-0.5,0.2-0.7c0.2-0.1,0-0.2,0-0.3c0-0.1-0.2-0.2,0-0.3c0.1-0.1-0.1-0.2-0.1-0.3
		c0-0.1,0-0.3,0.1-0.4c0,0,0,0,0-0.1c0-0.2-0.2-0.3-0.1-0.5c0.2-0.2-0.2-0.3-0.1-0.5c0,0-0.2-0.1-0.1-0.3c0.2-0.4,0.1-0.7,0-1.1
		c0-0.1-0.1-0.1,0-0.2c0.3-0.4,0.1-0.8,0.4-1.2c0.1-0.1,0-0.1-0.1-0.2c-0.1-0.1-0.2-0.1-0.2-0.1c-0.1,0-0.2-0.1,0-0.2
		c0.1-0.1,0.1-0.3,0-0.4c-0.1-0.2-0.1-0.4,0-0.7c0.1-0.1,0.1-0.3-0.1-0.4c-0.2-0.1-0.1-0.3-0.2-0.4c0,0,0-0.2,0.1-0.2
		c0.2,0,0.1-0.1,0-0.2c-0.2-0.1-0.1-0.2,0-0.3c0.3-0.1,0.2-0.5,0.4-0.6c0,0,0-0.1,0-0.2c-0.1-0.2-0.1-0.3,0.1-0.2
		c0-0.2,0.2-0.3,0.3-0.4c0.2-0.2,0.2-0.3,0-0.5c-0.1-0.1-0.2-0.2,0.1-0.3c0.3-0.1,0.6-0.2,0.7-0.6c0.1-0.2,0.3-0.2,0.4-0.1
		c0.1,0.1,0.2,0.1,0.3,0.2c0.1,0.1,0.2,0.1,0.2,0c0.2-0.2,0.4,0.2,0.5-0.1c0.1,0.2,0.4,0,0.5,0.3c0,0.1,0.3,0.2,0.4,0.1
		c0.2-0.2,0.3-0.1,0.4,0.1c0.1,0.1,0.2,0.1,0.3,0.2c0.1,0.1,0.3,0,0.5,0.1c0.2,0.1,0,0.3,0.3,0.3c0.2,0.3,0.5,0.3,0.8,0.5
		c0.1,0.1,0.2,0.1,0.3,0.1c0.2,0,0.4-0.1,0.5,0.1c0.5-0.1,0.8,0.3,1.2,0.5c0.1,0,0.1,0.1,0.1,0.1c0.6,0,1,0.4,1.5,0.6
		c0.2,0.1,0.4-0.1,0.4,0.1c0.1,0.2,0.1,0.3,0.3,0.1c0.1-0.1,0.2,0.1,0.2,0.1c0.4,0.2,0.4,0.2,0.6,0.2c0.1,0,0.2,0,0.3,0.1
		c0.2,0.2,0.5,0,0.6,0.1c0.1,0.1,0.2,0.3,0.4,0.5c0.1,0.1,0.2-0.3,0.3,0c0,0.1,0.2,0.2,0.1,0.3c0,0.1,0.2,0.2,0,0.3
		c0,0,0,0.2,0.1,0.2c0.4,0,0.5,0.3,0.5,0.5c0,0.3,0.1,0.4,0.3,0.5c0.1,0.1,0.1,0.2,0,0.3c-0.1,0.3-0.3,0.5-0.1,0.8c0,0,0,0.2,0,0.2
		c0,0.2-0.1,0.4-0.1,0.7c0,0.2,0.2,0.4,0,0.6c0.2,0.3-0.2,0.5,0,0.8c0.1,0.2,0.1,0.3,0,0.5C124.9,50.2,125,50.4,125.2,50.8z
		 M120.2,51.2c0,0,0.1-0.1,0-0.2c-0.2-0.2-0.1-0.4,0.1-0.5c0.3-0.1,0-0.4,0.2-0.6c0,0,0-0.2-0.1-0.3c-0.2-0.5-0.3-0.8-0.2-1.4
		c0-0.1,0.1-0.2-0.1-0.2c-0.3,0-0.5-0.3-0.9-0.3c-0.1,0-0.2-0.1-0.2-0.3c0-0.2-0.1-0.4-0.3-0.2c-0.1,0-0.2,0-0.3-0.1
		c-0.1-0.1-0.2-0.2-0.4-0.2c-0.1,0-0.1,0-0.2-0.1c-0.2-0.2-0.6-0.3-0.8-0.5c-0.1-0.1-0.3-0.1-0.4,0c-0.1,0.1-0.2,0.1-0.2,0
		c-0.1-0.4-0.3-0.3-0.5-0.2c0,0-0.1,0-0.2,0c-0.2-0.2-0.2,0-0.3,0.1c0,0,0,0.2,0,0.2c0.1,0.2,0.1,0.4,0,0.6c-0.1,0.1-0.1,0.3,0,0.3
		c0.1,0.2,0.1,0.2,0,0.4c-0.1,0.1,0.2,0.3,0.1,0.4c-0.2,0.3,0,0.6-0.1,0.8c-0.1,0.2-0.1,0.3,0,0.5c0.1,0.2-0.1,0.4,0.1,0.6
		c0.1,0.1,0,0.2,0,0.3c-0.1,0.3-0.3,0.7,0,1c-0.1,0.5,0.1,0.9-0.1,1.4c-0.1,0.3,0.2,0.6,0,0.9c0,0,0.1,0.1,0.2,0.2
		c0.1,0.1,0,0.2,0,0.3c-0.2,0.2-0.2,0.4-0.1,0.7c0.1,0.1,0.1,0.3-0.1,0.4c-0.1,0.1-0.2,0.1,0,0.3c-0.1,0.1,0,0.2,0,0.3
		c0.1,0.3,0.4,0.5,0.6,0.8c0.1,0.1,0.2,0.2,0.3,0.1c0.3-0.3,0.4,0,0.6,0.2c0.1,0.1,0.1,0.1,0.2,0.2c0,0,0.1,0.1,0.1,0
		c0.1-0.1,0.2-0.1,0.3,0c0.1,0.1,0.2,0.2,0.3,0.1c0.2,0,0.3,0,0.4,0.2c0,0,0.1,0.1,0.1,0.1c0.1,0,0.2-0.2,0.3-0.1
		c0.1,0.1,0.1,0.2,0.2,0.3c0.1,0.1,0.1,0,0.2,0.1c0.4,0.1,0.8,0.1,1.1,0.4c0.1,0.1,0.2,0.1,0.2-0.1c0-0.2,0.2-0.3,0-0.5
		c-0.2-0.2,0.1-0.4,0.1-0.5c-0.1-0.3,0-0.6,0-0.9c0-0.2,0-0.3-0.2-0.4c-0.1-0.1,0-0.1,0-0.2c0.2-0.3,0.2-0.6,0.1-0.9
		c-0.1-0.3-0.4-0.6-0.1-0.9c0,0,0-0.1,0-0.1c-0.1-0.1-0.1-0.2,0-0.3c0.1-0.1,0.2-0.2,0.1-0.3c-0.1-0.1,0.2-0.2,0-0.4
		c-0.1-0.1-0.2-0.3-0.1-0.5c0.1-0.1,0-0.3-0.1-0.5C120,51.6,120.3,51.5,120.2,51.2z"/>
	<path d="M92.2,69c0.2,0.1,0.4,0.4,0.2,0.5c-0.2,0.3,0,0.4,0.1,0.7c-0.1,0.1-0.2,0.1-0.2,0.2c0,0-0.1,0.1-0.1,0.2
		c0.2,0.3,0,0.5-0.1,0.8c0,0.1-0.1,0.1-0.1,0.1c-0.3,0.1-0.4,0.3-0.6,0.5c-0.2-0.3-0.4-0.3-0.8-0.1c-0.1,0-0.1,0.1-0.2,0.1
		c-0.1,0.1-0.3,0-0.4,0.1c0,0-0.2-0.1-0.3-0.1c-0.2-0.1-0.4-0.1-0.5-0.3c0,0-0.1,0-0.2,0c-0.1,0.1-0.3,0.1-0.4,0.2
		c-0.1-0.1-0.2-0.3-0.4-0.4c-0.1-0.1-0.2-0.1-0.4-0.2c0,0.1-0.2,0.2-0.2,0.3c-0.1,0.2-0.4,0.4-0.3,0.7c0.1,0.2-0.2,0.3-0.2,0.4
		c0,0.3-0.2,0.1-0.4,0.2c-0.1,0-0.2,0-0.3,0.2c0,0.1-0.4,0.1-0.5,0c-0.2-0.3-0.4-0.1-0.6-0.2c-0.1-0.1-0.1,0.1-0.1,0.1
		c-0.1,0.1-0.2,0.3-0.4,0.2C84.9,73,84.7,73,84.5,73c-0.2,0-0.4-0.1-0.6-0.1c-0.2,0-0.2-0.2-0.2-0.4c0-0.1,0-0.2-0.1-0.2
		c-0.3,0.1-0.2-0.3-0.3-0.3c0.1-0.3-0.1-0.5-0.3-0.7c-0.2-0.1,0-0.2,0-0.3c0-0.1,0.1-0.1,0.1-0.2c0-0.2,0.3-0.4,0-0.5
		c0,0,0-0.1-0.1-0.1c-0.1-0.2,0.2-0.3,0.1-0.4c0-0.1-0.2-0.2-0.1-0.4c0.1-0.1-0.1-0.2-0.1-0.4c0.1-0.2,0.3-0.5,0-0.7
		c0,0,0-0.1,0.1-0.1c0.1-0.1,0.1-0.2,0-0.4c-0.1-0.2-0.1-0.3,0-0.5c0.1-0.1,0.1-0.3,0-0.3c-0.3-0.2,0.2-0.4-0.1-0.6
		c-0.1,0,0.1-0.1,0.2-0.2c0.1-0.1,0.2-0.2,0.2-0.4c0-0.2,0.2-0.4,0-0.6c0,0,0-0.2,0-0.2c0.2,0,0.2-0.2,0.2-0.3c0-0.2,0-0.4,0-0.5
		c0-0.2,0.1-0.4,0.3-0.4c0.3,0,0.6,0,0.8-0.1c0.2-0.1,0.3,0.2,0.5,0.1c0.2-0.2,0.3,0.1,0.5,0c0.1,0,0,0.2,0.1,0.2
		c0.1-0.1,0.1-0.1,0.2-0.2c0.2-0.2,0.3-0.2,0.5,0.1c0.1,0.1,0.1,0.2,0.3,0c0.1-0.1,0.3-0.1,0.5,0c0.2,0.1,0.4,0.1,0.6,0.1
		c0.2,0,0.2,0.1,0.1,0.2c0,0,0,0.1-0.1,0.1c0.4,0.3,0.2,0.7,0.2,1c0,0.1,0,0.2,0.1,0.2c0.2,0,0.2,0.2,0.4,0.2c0,0,0.1-0.1,0.1-0.1
		c0.2-0.1,0.4,0.1,0.7,0c0.2-0.1,0.5,0,0.8,0c0.1,0,0.2,0.1,0.2,0.1c0.1-0.1,0.3,0.3,0.4-0.1c0.2,0,0.3,0,0.5,0c0.2,0,0.3,0.1,0.5,0
		c0.1,0,0.2,0,0.2,0.1c0.1,0.4,0.5,0.5,0.7,0.8c0.1,0.2,0.2,0.3,0,0.4c0,0-0.1,0.1-0.1,0.1c0,0.1,0.2,0.3,0.1,0.4
		c-0.1,0.1-0.2,0.2,0,0.3c0.1,0.1,0.1,0.3,0,0.4c0,0-0.1,0.1,0,0.1C92.5,68.7,92.5,68.7,92.2,69z"/>
	<path d="M31.6,96.9c0-0.2,0-0.4-0.3-0.5c-0.1,0-0.3-0.1-0.1-0.3c0.1-0.1,0-0.2-0.1-0.3c-0.1-0.1-0.1-0.2-0.2-0.4
		c-0.1-0.2,0.2-0.2,0.1-0.3c-0.1-0.1,0.1-0.2,0.1-0.3c0-0.2,0-0.4-0.1-0.6c-0.1-0.2-0.2-0.4,0-0.7c0.1-0.2,0.1-0.5-0.1-0.6
		c-0.1-0.1-0.1-0.2-0.1-0.3c0-0.3-0.1-0.5,0.1-0.8c0.1-0.1,0-0.1-0.1-0.2c-0.1-0.1-0.2-0.2,0-0.4c0.1-0.1,0-0.1-0.1-0.2l-0.1-0.3
		c-0.1-0.1,0.1-0.2,0.1-0.3c0-0.1-0.2-0.2-0.1-0.3c0-0.1,0-0.1,0-0.2c0.1-0.1,0.3-0.2,0.2-0.5c0-0.1,0.2-0.2,0-0.4
		c-0.1-0.1,0.1-0.2,0.1-0.2c0.1-0.1,0.3-0.2,0.4-0.3c0.1-0.1,0-0.3,0.2-0.4c0.1,0,0.1-0.2,0.2-0.2c0.2,0,0.5-0.1,0.7,0.1
		c0,0,0,0,0,0c0.2-0.2,0.5,0,0.6-0.2c0,0,0.1-0.1,0.1-0.1c0.2,0,0.4,0.2,0.6,0.1c0.2-0.1,0.3-0.2,0.5-0.2c0,0,0.1,0,0.1,0
		c0.1-0.1,0.1-0.2,0.3-0.2c0.2,0,0.3,0.2,0.3,0.3c0,0.1,0,0.2,0.2,0.2c0.4,0.1,0.6,0.2,0.5,0.5c0,0.4,0.2,0.7,0.5,1
		c0.1,0.1,0.1,0.2,0,0.3c0,0,0,0.1,0,0.1c0.1,0.2,0.2,0.4,0.2,0.6c-0.1,0.2,0,0.4-0.1,0.6c0,0.2,0.2,0.4,0.1,0.6
		c-0.1,0.2,0,0.4,0,0.5c0.1,0.2,0.1,0.4,0.1,0.6c0,0.1,0.2,0.2,0.2,0.4c0.1,0.2-0.1,0.5,0,0.7c0,0.1-0.2,0.2-0.1,0.5
		c0.1,0.1,0,0.4,0,0.5c0.1,0.2,0.1,0.4-0.1,0.5c-0.3,0.1-0.3,0.4-0.2,0.7c0.1,0.3,0.1,0.4-0.2,0.5c0,0-0.1,0.1-0.1,0.1
		c0.1,0.4-0.2,0.3-0.4,0.3c-0.4,0-0.7,0.2-1,0.1c-0.2,0-0.4,0.2-0.6,0.4c-0.1,0-0.1,0.1-0.2,0.1c-0.1-0.2-0.3,0-0.4,0
		c0,0,0-0.1-0.1-0.1c0,0,0-0.1-0.1,0c-0.1,0.1-0.2,0.1-0.3,0c-0.2-0.4-0.6-0.4-1-0.4C31.9,96.9,31.7,96.9,31.6,96.9z"/>
	<path d="M46.2,93.6c-0.2,0.1-0.5,0-0.4,0.3c0,0.1,0,0.1,0,0.2c0,0.3,0,0.4-0.4,0.4c-0.2,0-0.2,0.1-0.2,0.2c0.1,0.2,0.1,0.3-0.1,0.4
		c-0.1,0-0.2,0.1-0.1,0.3c0.1,0.1-0.2,0.1-0.2,0.2c0,0.3,0,0.5-0.4,0.6c0,0.3-0.3,0.3-0.5,0.4c0,0-0.1,0-0.1,0.1
		c-0.4,0.5-0.8,0.3-1.3,0.1c-0.1,0-0.1-0.1-0.2-0.1c-0.2,0-0.4,0.3-0.6,0c-0.1-0.2-0.4-0.1-0.5-0.3c0-0.1-0.2-0.2-0.4-0.2
		c-0.2,0.1-0.2-0.1-0.3-0.2c-0.1-0.1-0.2-0.2-0.3-0.1c-0.1,0.1-0.3,0-0.5,0c0-0.2-0.2-0.3-0.4-0.2c-0.2,0.1-0.1-0.2-0.3-0.3
		c-0.2-0.1-0.4-0.3-0.6-0.2c-0.1,0-0.6-0.3-0.7-0.5c-0.1-0.3-0.3-0.5-0.6-0.6c-0.3-0.1-0.3-0.3-0.2-0.6c0.1-0.2,0.2-0.3,0.1-0.5
		c-0.1-0.2,0.3,0,0.2-0.2c0-0.1-0.2-0.2-0.2-0.3c0,0,0,0,0,0c0.1-0.1,0.2-0.1,0.3-0.2c0.1-0.1-0.1-0.2-0.1-0.3
		c0.1-0.1,0.2-0.2,0.3-0.3c0.3-0.2,0.3-0.2,0.2-0.6c0-0.1,0-0.1,0-0.2c0.4,0,0.3-0.6,0.7-0.6c0.2,0,0.3-0.2,0.4-0.4
		c0-0.1,0.1-0.3,0.3-0.1c0.1,0.1,0.3,0,0.4,0c0.2-0.1,0.5-0.1,0.8,0c0.2,0.1,0.4,0.2,0.6,0c0,0,0.1,0,0.2,0c0.2,0.2,0.6,0,0.8,0.2
		c0.1,0.1,0.3,0.1,0.4,0.3c0,0.2,0.1-0.1,0.2,0c0.3,0.1,0.5,0.2,0.8,0.2c0.1,0,0.2,0.1,0.3,0.2c0.3,0.2,0.7,0.5,1.1,0.3
		c0.1-0.1,0.1,0,0.2,0.1c0.2,0.3,0.5,0.3,0.7,0.4c0.2,0.1,0.3,0.1,0.2,0.3c0,0.1-0.1,0.1-0.1,0.2c0,0.3,0,0.4,0.3,0.5
		c0.2,0.1,0.2,0.1,0.1,0.3C46,93,46.2,93.2,46,93.3C46,93.4,46.1,93.5,46.2,93.6z"/>
	<path d="M62.3,35.4c0.1,0.1-0.2,0.2,0,0.4c0.1,0.1,0.1,0.3,0.1,0.4c0.1,0.1,0,0.3,0,0.5c0.1,0.2,0,0.3,0,0.5c-0.1,0.3,0,0.7,0,1.1
		c0,0.2,0,0.9-0.1,1c0,0.1-0.1,0.1,0,0.2c0.2,0.2,0.1,0.4-0.1,0.5C62.1,40,62,40,62,40.1c0,0.2,0,0.4-0.2,0.5
		c0.1,0.2-0.2,0.4-0.1,0.6c0,0.1-0.1,0.3-0.2,0.3c-0.1,0-0.2,0.1-0.3,0.1c-0.3,0-0.4,0.2-0.6,0.4c-0.1,0.2-0.3,0.3-0.5,0.2
		c-0.2-0.1-0.6-0.1-0.8-0.3c0,0,0,0-0.1,0c-0.2,0.1-0.3,0.1-0.5-0.1c-0.1-0.1-0.4-0.1-0.6-0.2c0,0-0.1,0-0.1-0.1
		c0-0.4-0.5-0.4-0.7-0.7c-0.2-0.2-0.3-0.5-0.4-0.8c0,0,0-0.1,0-0.1c0.1-0.2-0.4-0.2-0.2-0.5c0.2-0.2,0-0.4-0.1-0.6c0,0,0-0.1,0-0.2
		c0-0.3,0.3-0.6-0.1-0.8c0.1-0.4-0.2-0.8,0.2-1.1c0.2-0.1-0.2-0.3,0.1-0.5c0-0.4,0.2-0.6,0.3-0.9c0.3-0.5,0.7-0.9,0.9-1.4
		c0.1-0.2,0.4-0.3,0.7-0.2c0.2,0.1,0.4,0.1,0.5-0.1c0.2-0.2,0.4-0.2,0.5-0.1c0.2,0.2,0.4,0.2,0.6,0.2c0.1,0,0.3,0,0.4,0
		c0.1,0,0.2,0.1,0.2,0.2c0.1,0.1,0.1,0.4,0.4,0.3c0,0.3,0.2,0.3,0.4,0.2c0.1,0,0.1,0,0.1,0.1c0,0.2,0,0.4,0.2,0.5
		C62.3,35.2,62.2,35.3,62.3,35.4z"/>
	<path d="M79.8,69.3c0-0.1-0.1-0.2-0.1-0.2c-0.1-0.1-0.1-0.1-0.2,0c-0.2,0.3-0.5,0.3-0.7,0.2c-0.2-0.1-0.3-0.1-0.4,0.1
		c-0.2,0.2-0.2,0.2-0.6-0.1c-0.1,0.1-0.1,0.1-0.2,0.2c-0.1,0.2-0.3,0.2-0.4,0c0-0.1-0.1-0.1-0.2-0.1c-0.3,0.2-0.3,0-0.5-0.2
		c-0.3-0.3-0.3-0.3-0.3-0.5c0-0.1,0-0.1-0.1-0.1c-0.2-0.2-0.2-0.4,0-0.6c0.2-0.2-0.1-0.4-0.1-0.6c0-0.1-0.1-0.1-0.2-0.2
		c-0.1-0.1-0.2-0.2-0.1-0.3c0.1-0.1,0.1-0.3,0-0.5c-0.1-0.2-0.1-0.4-0.1-0.7c0-0.2,0-0.3,0.1-0.5c0.1-0.2,0.1-0.5,0-0.7
		c-0.1-0.3-0.1-0.5,0-0.8c0-0.1,0.1-0.1,0.1-0.2c0-0.2-0.2-0.3-0.1-0.5c0.1-0.1,0.3-0.2,0.2-0.4c0-0.2,0.1-0.3,0.2-0.1
		c0.1,0.2,0.3,0.2,0.5,0.2c0.1,0,0.3,0.2,0.4,0c0.1-0.1,0.2,0.2,0.3,0c0.1-0.2,0.3-0.1,0.4-0.1c0.1,0,0.3,0,0.4,0
		c0.1,0,0.2,0,0.3,0.1c0.1-0.1,0.1-0.1,0.2-0.2c0,0,0.1,0,0.2,0c0.2,0,0.3,0.3,0.4,0.2c0.1-0.1,0.2-0.1,0.3,0c0.1,0.1,0.2,0.2,0.3,0
		c0.1,0.1,0,0.2,0.1,0.3c0.1,0.1,0.1,0.2,0.3,0.2c0.3,0.1,0.3,0.2,0.2,0.5c-0.1,0.1-0.1,0.2,0,0.3c0.1,0.1,0.2,0.2,0,0.4
		c-0.1,0,0,0.2,0,0.3c0,0.2,0.1,0.4-0.1,0.6c-0.1,0.1-0.1,0.3,0,0.3c0.3,0.2,0.1,0.5,0.1,0.7c0,0.1,0,0.1,0,0.2
		c0.1,0.3,0.2,0.6-0.1,0.9c-0.1,0,0,0.1,0.1,0.2c0.1,0.2,0.3,0.4,0.3,0.6c0,0.2-0.3,0.4-0.4,0.6C80.1,68.9,80.1,69.2,79.8,69.3z"/>
	<path d="M97.2,66.2c0.1,0.2,0.4,0.2,0.1,0.5c-0.1,0.1-0.1,0.3,0.1,0.4c0.1,0.2,0.1,0.4,0,0.6c0,0.1,0,0.4-0.3,0.4
		c-0.1,0-0.1,0.1-0.1,0.2c0,0.2-0.1,0.2-0.2,0.5c-0.1,0.3-0.2,0-0.2,0c-0.2-0.1-0.2-0.1-0.4,0.1c0,0,0,0.1-0.1,0.1
		c-0.2-0.1-0.3,0.1-0.5,0c-0.1,0-0.1-0.1-0.1-0.2c-0.1-0.2-0.2-0.2-0.3-0.1c-0.1,0-0.2,0.3-0.4,0.1c-0.1-0.1-0.2,0.1-0.3,0.1
		c-0.3-0.1-0.3,0-0.4,0.1c-0.2-0.2-0.4-0.4-0.7-0.5c-0.1,0-0.2-0.1-0.1-0.2c0-0.2-0.1-0.3-0.2-0.3c-0.2-0.1-0.3-0.1-0.1-0.3
		c0,0,0-0.1,0-0.1c-0.2-0.2,0-0.5-0.2-0.7c0-0.1-0.1-0.1,0-0.2c0.2-0.3-0.1-0.6,0-0.9c0.1-0.2-0.2-0.5-0.1-0.7
		c0.1-0.3,0-0.5,0.1-0.8c0-0.1,0-0.2,0-0.3c0-0.6,0-0.6,0.1-1c0,0,0-0.1,0-0.1c0.4-0.1,0.3-0.4,0.3-0.7c0-0.2,0.1-0.2,0.2-0.2
		c0.5,0.2,0.9,0.1,1.4-0.1c0.1,0,0.1,0,0.2,0c0.2,0.2,0.4-0.2,0.6,0c0.2,0.1,0.4,0.3,0.6,0.2c0.1,0,0.1,0,0.2,0c0.3,0,0.5,0,0.6,0
		c0.3,0.1,0.3,0.1,0.2,0.5c-0.1,0.2,0,0.4,0.2,0.4c0.1,0.1,0.2,0.1,0.1,0.2c-0.2,0.4-0.1,0.8-0.1,1.2c0,0.1,0,0.2-0.1,0.3
		c-0.1,0.1-0.1,0.2,0,0.2c0.2,0.2-0.1,0.6,0.2,0.8c0,0-0.1,0.1-0.1,0.1C97.4,66,97.3,66.1,97.2,66.2z"/>
</g>
</svg>
