<?xml version="1.0" encoding="utf-8"?>
<!-- Generator: Adobe Illustrator 27.7.0, SVG Export Plug-In . SVG Version: 6.00 Build 0)  -->
<svg version="1.1" id="Ebene_1" xmlns="http://www.w3.org/2000/svg" xmlns:xlink="http://www.w3.org/1999/xlink" x="0px" y="0px"
	 viewBox="0 0 171.6 90.6" style="enable-background:new 0 0 171.6 90.6;" xml:space="preserve">
<g>
	<path d="M56.1,70.9c0.5-0.1,1,0.2,1.5,0.1c0.1,0,0.3,0.1,0.4-0.1c0.1-0.1,0.2-0.1,0.3,0c0.2,0.2,0.3,0.1,0.4-0.1
		c0.1-0.1,0.2,0,0.3,0c0.3,0,0.7,0.2,1,0.1c0.1-0.1,0.3,0,0.5,0c0.1,0,0.2-0.2,0.4-0.1c0.2,0.2,0.2-0.1,0.4,0c0.1,0.1,0.3,0,0.4,0.1
		c0.2,0.1,0.5,0.1,0.6-0.1c0.1-0.1,0.2-0.1,0.3-0.1c0.2,0,0.4,0,0.7,0c0.1,0,0.3-0.1,0.3,0.2c0,0.1,0.1,0.1,0.2,0.1
		c0.2,0,0.4,0,0.5,0.3c0,0.1,0.1,0.1,0.2,0.2c0.5,0.1,0.7,0.6,1,1c0,0,0.1,0.1,0.1,0.2l0.4,0.6c0,0.4,0.2,0.7,0.6,0.9
		c0.2,0.1,0.3,0.2,0.3,0.3c0,0.2,0.3,0.5,0,0.7c0,0,0,0.1,0.1,0.1c0.1,0.1,0.1,0.2,0.2,0.3c0.1,0.2-0.1,0.5,0.1,0.6
		c0.2,0.1,0.2,0.3,0.3,0.5c0.1,0.2,0.1,0.4,0,0.7c-0.1,0.2-0.1,0.3,0.1,0.4c0.2,0.2,0.3,0.4,0.2,0.6c0,0.1,0.1,0.3,0.1,0.4
		c0.1,0.1-0.1,0.2-0.1,0.3c0,0.1,0,0.2,0.1,0.2c0.3,0.2,0.2,0.5,0.1,0.7c-0.2,0.3-0.2,0.7-0.2,1c0,0.1,0,0.2,0,0.3
		c-0.2,0.2,0,0.3,0,0.4c0.2,0.2,0.1,0.4-0.1,0.6c-0.2,0.2-0.4,0.4-0.4,0.7c0,0.2-0.3-0.2-0.2,0.1c0,0.1-0.1,0.2-0.1,0.3
		c-0.1,0.1-0.3,0.1-0.4,0c-0.2-0.1-0.2-0.1-0.4,0.1c0.1,0.1,0.4-0.1,0.5,0.3c-0.2,0-0.4,0-0.5,0.2c-0.1,0.2-0.4,0-0.5,0.3
		c0,0.1,0.1,0.3-0.1,0.5c-0.1,0.1-0.1,0.2-0.2,0.2c-0.1,0.1-0.1,0.2,0,0.2c0.2,0.1,0.1,0.2,0,0.4c-0.1,0.2-0.2,0.4-0.4,0.5
		c-0.2,0.1-0.2,0.4-0.3,0.6c-0.1,0.1-0.2,0.1-0.3,0.2c-0.3,0.1-0.4,0.3-0.6,0.6c-0.1,0.2-0.2,0.3-0.3,0.5c0,0-0.1,0.1-0.1,0
		c0-0.1-0.2-0.1-0.1-0.2c0,0,0.1-0.1,0.1-0.1c0-0.2,0-0.3-0.2-0.2c-0.2,0.1-0.3,0.1-0.4-0.1C62.3,87.1,62.1,87,62,87
		c-0.3,0-0.5-0.2-0.6-0.6c-0.1,0.1-0.1,0.2-0.1,0.2c-0.1,0.1-0.2,0.1-0.3,0c-0.1-0.1-0.1-0.3-0.3-0.3c-0.2-0.1-0.2-0.4-0.2-0.6
		c-0.1-0.4,0.1-0.7-0.2-1c-0.1-0.1,0-0.1,0.1-0.2c0.1-0.1,0.1-0.2,0.2-0.3c-0.2-0.1-0.1-0.4-0.2-0.5c-0.1-0.2-0.4-0.4-0.1-0.7
		c0,0-0.1-0.1-0.1-0.2C60,82.6,60,82.3,60,82.1c0-0.1,0-0.2-0.1-0.3c-0.2-0.3-0.2-0.4,0-0.7c0.1-0.1,0.1-0.3,0-0.4
		c-0.1-0.2-0.3-0.3-0.1-0.5c0.1-0.1-0.1-0.1-0.1-0.2c0-0.1-0.2-0.3,0-0.4c0.1-0.1,0.1-0.3,0.1-0.3c-0.2-0.2,0-0.4-0.2-0.5
		c-0.1-0.1,0-0.1,0-0.1c0.1-0.1,0.2-0.2,0.2-0.4c0-0.3,0-0.4-0.2-0.7c-0.1-0.1,0-0.2-0.2-0.3c-0.3,0-0.5-0.2-0.8-0.1
		c-0.1,0,0,0.2-0.1,0.2c-0.2,0.2-0.5,0-0.8,0.2c-0.1,0.1-0.2-0.1-0.3-0.1c-0.1-0.1-0.2-0.1-0.3,0c-0.1,0.1-0.2,0.1-0.3,0.2
		c-0.4,0-0.5,0.2-0.4,0.5c0.1,0.1,0.1,0.2,0,0.3c-0.1,0.1-0.1,0.2,0,0.3c0.2,0.2,0.1,0.5,0,0.7c-0.1,0.2,0.2,0.4,0.1,0.6
		c0,0.2-0.1,0.4,0,0.6c0.1,0.2-0.1,0.3,0,0.5c0,0.1,0,0.2,0,0.2c0.2,0.3,0.1,0.6-0.1,1c-0.1,0.2,0,0.3,0,0.5c0,0.1,0.1,0.2,0,0.3
		c-0.1,0.1-0.3,0.3-0.2,0.4c0.1,0.1-0.1,0.3,0.1,0.4c0.1,0,0,0.1,0,0.2c0,0.2-0.3,0.2-0.1,0.4c0.1,0.1-0.2,0.2,0,0.4
		c0.1,0.1,0,0.3-0.1,0.5c-0.1,0.2-0.2,0.5,0,0.8c0.1,0.1,0,0.3,0,0.3c0.1,0.2,0.1,0.3-0.1,0.3c-0.2,0-0.1,0.1-0.1,0.2
		c0,0.1,0.1,0.2,0.1,0.4c0,0.1,0.2,0.2,0,0.4c-0.3,0.2-0.2,0.5-0.1,0.7c0.2,0.2,0,0.3-0.1,0.4c-0.1,0-0.2,0.1-0.2,0.2
		c0,0.2,0,0.3-0.2,0.4c-0.3,0.1-0.5,0.3-0.5,0.6c0,0.2-0.1,0.2-0.2,0.3c-0.3,0.1-0.5,0.1-0.7,0c-0.2-0.1-0.5,0-0.6-0.1
		c-0.2-0.1-0.4,0-0.6,0c-0.1,0-0.2,0.1-0.4-0.1c-0.1-0.1-0.2-0.3-0.4-0.1c-0.1,0.1-0.2,0-0.3,0c-0.2,0-0.3-0.1-0.3-0.3
		c0-0.1,0-0.3,0-0.3c-0.3,0-0.2-0.4-0.4-0.4c-0.2,0-0.2-0.2-0.1-0.3c0.3-0.4,0-0.6-0.2-0.9c-0.2-0.3-0.2-0.3-0.1-0.6
		c0.1-0.2,0.3-0.5,0.1-0.8c-0.1-0.2-0.1-0.5,0.1-0.6c0.1-0.1,0.1-0.1,0-0.2c0,0,0-0.1,0-0.2c-0.1-0.1,0.2-0.2,0.1-0.4
		C51,85.2,51,85.1,51,85c-0.1-0.2,0-0.5,0-0.7c0-0.2-0.1-0.5,0.1-0.7c0.1-0.1,0-0.3-0.1-0.4c-0.1-0.2-0.2-0.3,0-0.4
		c0.1-0.1,0.1-0.2,0-0.3c-0.1-0.1-0.1-0.1-0.2-0.2c-0.1-0.1-0.2-0.2,0-0.3c0.1-0.1,0.1-0.2,0.2-0.3c0.1-0.1,0.1-0.2,0-0.2
		c-0.2-0.2-0.2-0.4-0.1-0.6c0,0,0.1-0.1,0-0.1c-0.3-0.1-0.1-0.3,0-0.5c0.1-0.2-0.2-0.3,0-0.4c0.2-0.1,0-0.3,0.2-0.4
		c0-0.1-0.1-0.2-0.1-0.3c-0.2-0.3-0.2-0.5,0.1-0.7c0,0,0.1-0.1,0-0.1c-0.2-0.1-0.1-0.3-0.1-0.4c0-0.2,0.1-0.4-0.3-0.3
		c-0.1,0-0.2-0.1-0.2-0.2c-0.1-0.1-0.2-0.3-0.4-0.1c-0.1,0.1-0.3,0.1-0.4-0.1c-0.1-0.2-0.3-0.1-0.4-0.1c-0.2-0.1-0.4,0-0.5-0.2
		c-0.1-0.1-0.1,0.1-0.2,0.1c-0.1,0-0.1-0.1-0.2-0.1c-0.3,0-0.5-0.1-0.7-0.3c-0.1-0.1-0.2-0.2-0.4-0.2c0,0-0.1,0-0.1,0
		c-0.1-0.4-0.4-0.3-0.6-0.3c-0.2,0-0.5,0-0.7-0.2c-0.1-0.1-0.2-0.1-0.3-0.1c-0.1,0-0.1,0.1-0.1,0.1c0.3,0.2-0.1,0.4,0.1,0.6
		c0.1,0.1,0.1,0.3,0,0.3c-0.1,0.2-0.1,0.2,0,0.4c0.1,0.1-0.2,0.3,0,0.5c0.1,0.1,0,0.3-0.1,0.4c0,0.1,0.1,0.1,0.1,0.2
		c0,0.1-0.2,0.1,0,0.2c0.1,0.1,0,0.1,0,0.2c0,0.1,0,0.2,0.1,0.2c0.1,0.1,0,0.3,0.1,0.4c0,0.1-0.1,0.2-0.1,0.3
		c-0.1,0.1,0.2,0.2,0.1,0.4c-0.2,0.1,0.1,0.2,0,0.3c0,0.1,0,0.3-0.1,0.4c-0.1,0.1-0.2,0.3-0.1,0.6c0.1,0.2-0.2,0.4,0,0.6
		c-0.1,0.2,0.2,0.3,0,0.5c0,0.5,0,0.5-0.1,0.8c-0.1,0.1-0.2,0.3,0,0.4c0.1,0-0.1,0.1-0.1,0.2c-0.1,0.1-0.1,0.3,0,0.4
		c0.2,0.2,0.1,0.3-0.1,0.4c-0.3,0.1-0.4,0.3-0.5,0.7c0,0.2-0.2,0.5-0.5,0.4c-0.3,0-0.4,0.1-0.6,0.3c-0.2,0.2-0.2,0.1-0.4-0.1
		c-0.1-0.1-0.1-0.2-0.3-0.1c-0.1,0.1-0.3,0.2-0.5,0c0,0-0.2,0-0.2,0c-0.1,0.2-0.3-0.1-0.4,0C41.5,86,41.2,86,41,85.7
		c-0.1-0.1-0.3,0-0.5-0.1c-0.1,0-0.2,0-0.3,0c0.1-0.5-0.2-0.9-0.3-1.3c0-0.2-0.1-0.4-0.2-0.6c-0.1-0.1-0.1-0.3,0-0.5
		c0.1-0.2,0.2-0.4,0.3-0.5c0.2-0.3,0.3-0.7,0-1c-0.2-0.2,0-0.5-0.2-0.7c0,0-0.1-0.1-0.1-0.2c0.1-0.1,0.2-0.1,0.3-0.2
		C40,80.5,40,80.4,40,80c0-0.1,0.1-0.2,0.1-0.4c0-0.2,0.1-0.4,0.1-0.6c0-0.2,0-0.4-0.2-0.5c-0.1-0.1-0.3-0.3-0.1-0.4
		c0.1-0.1,0.1-0.2,0.1-0.3c0-0.5,0.1-0.9-0.1-1.4c-0.1-0.4,0.1-0.8,0.2-1.1c0.1-0.2,0-0.5,0.1-0.7c-0.2-0.2-0.1-0.3,0.1-0.4
		c0.1-0.1,0.1-0.2,0-0.2c-0.2-0.2-0.3-0.4-0.1-0.6c0.1-0.1,0.1-0.2,0-0.3c-0.1-0.1-0.1-0.2,0-0.3c0.2-0.1,0.1-0.2,0-0.3
		c-0.2-0.1-0.3-0.2-0.2-0.4c0,0,0.1-0.1,0.1-0.1c-0.3-0.4,0.1-0.5,0.2-0.7C40.2,71.1,40.1,71,40,71c-0.1,0,0-0.2-0.1-0.3
		c-0.2-0.1,0.1-0.2,0.1-0.3c0-0.1,0-0.2,0-0.3c0-0.2-0.2-0.4-0.4-0.4c-0.1,0-0.2,0-0.2,0.1c0,0,0,0.1,0,0.2c0.2,0.2,0.2,0.4,0.1,0.7
		c-0.1,0.2-0.2,0.5-0.1,0.8c0.1,0.2,0,0.4-0.1,0.6c-0.1,0.1-0.2,0.3,0,0.5c0.1,0.1-0.1,0.2-0.1,0.3c0,0.2-0.3,0.2-0.2,0.4
		c0.1,0.1,0,0.3,0.1,0.4c0.1,0.1,0,0.1,0,0.2c-0.2,0.2-0.2,0.4-0.1,0.6c0.1,0.2,0.1,0.3-0.1,0.4c-0.1,0.1-0.2,0.2-0.3,0.3
		c0,0-0.1,0.1-0.1,0.1c0.3,0.4-0.2,0.7-0.2,1c0,0.3-0.1,0.6,0,0.8c0,0.1,0,0.2,0,0.3c0,0.3-0.1,0.3-0.4,0.3c-0.2,0-0.5,0-0.6,0.2
		c-0.2,0.2-0.4,0.1-0.5,0.1c-0.1-0.1-0.2,0-0.3,0c-0.2,0-0.4,0.1-0.5,0.2c-0.1,0.1-0.2,0.1-0.3,0c-0.1-0.1-0.1-0.1-0.2-0.2
		c0-0.1-0.1-0.1-0.2,0c-0.2,0.3-0.3,0.1-0.5,0c-0.1,0-0.3,0.1-0.4,0.2c-0.1,0-0.1,0.1-0.2,0c-0.1-0.1-0.2-0.3-0.4-0.1
		c-0.1,0.1-0.1-0.1-0.1-0.1c0-0.2,0-0.3-0.2-0.4c-0.4-0.2-0.4-0.5-0.2-0.9c0.1-0.3,0.1-0.4-0.1-0.6c-0.1-0.1-0.1-0.1-0.2-0.2
		c0-0.1,0.2-0.2,0.1-0.3c-0.1-0.1-0.2,0.2-0.4,0.1c-0.3-0.1-0.6,0-0.9,0.1c0,0,0,0-0.1,0c-0.3-0.2-0.6,0.1-0.9,0.1
		c-0.2,0-0.3,0.2-0.5,0c-0.1-0.1-0.2,0.2-0.3,0.1c-0.1-0.2-0.2,0-0.3,0c-0.2,0-0.3,0.2-0.5,0c-0.1-0.1-0.2-0.1-0.3,0
		c-0.3,0.2-0.7,0.1-1,0.3c-0.2-0.2-0.3-0.1-0.4,0.1c-0.1,0.1-0.2,0.1-0.3,0c-0.1-0.1-0.2-0.2-0.3,0c-0.3-0.1-0.6,0.1-0.9,0.2
		c0,0-0.1,0-0.1,0.1c-0.1-0.2-0.4,0-0.5-0.2c-0.1,0.1-0.3,0.2-0.4,0.1c-0.1-0.1-0.3-0.1-0.4,0c-0.2,0.1-0.5,0.1-0.7,0
		c-0.2-0.1-0.3-0.1-0.4-0.1c-0.2,0-0.5-0.2-0.7,0c-0.1,0.1-0.2-0.2-0.4-0.1c-0.2,0.1-0.3,0.2-0.3-0.1c0-0.1-0.3,0.1-0.3-0.2
		c0-0.2-0.3-0.1-0.4-0.1c-0.2,0-0.3-0.1-0.3-0.2c-0.1-0.2-0.3-0.4-0.5-0.6c-0.2-0.1-0.4-0.3-0.6-0.3c-0.2,0-0.4-0.2-0.4-0.3
		c-0.2-0.3-0.3-0.6-0.7-0.7c-0.1,0-0.3-0.2-0.1-0.4c0,0,0-0.1,0-0.2c0-0.2-0.1-0.3-0.1-0.5c0-0.1,0.3-0.2,0-0.4
		c-0.1,0,0-0.1,0.1-0.2c0.1-0.1,0.1-0.3,0-0.4c-0.2-0.2,0-0.4-0.1-0.6c-0.1-0.1,0.1-0.3-0.1-0.4c-0.1,0,0-0.1,0.1-0.2
		c0.1-0.1,0-0.2,0-0.3c0-0.1-0.1-0.2-0.1-0.3c0-0.1,0.2-0.2,0.1-0.3c-0.1-0.1,0.1-0.3-0.1-0.5c0,0,0-0.1,0-0.2c0.3-0.3,0-0.5,0-0.8
		c-0.1-0.2-0.2-0.4-0.2-0.6c0-0.1,0-0.3-0.2-0.4c-0.1-0.1-0.1-0.2-0.1-0.3c0.2-0.3-0.1-0.3-0.2-0.5c-0.2,0.2-0.2,0.4-0.2,0.7
		c0,0.3-0.1,0.5-0.3,0.7c-0.1,0.1-0.1,0.2,0,0.3c0.1,0.1,0.1,0.2,0.2,0.4c0,0.1,0.2,0.1,0,0.3c-0.1,0.1-0.1,0.3,0,0.3
		c0.3,0.3,0,0.5-0.1,0.7c-0.1,0.1-0.2,0.2,0,0.3c0.1,0.2,0.1,0.4,0.2,0.6c0.1,0.1,0.1,0.2,0,0.3c-0.1,0.1-0.1,0.2,0,0.3
		c0.1,0.2,0.2,0.3,0,0.5c-0.1,0.1,0,0.2,0,0.3c0.1,0.1,0.2,0.2,0.1,0.4c-0.1,0.1,0.2,0.3,0.1,0.5c-0.2,0.4-0.1,0.9-0.1,1.3
		c0,0.2-0.3,0.3-0.2,0.5c0.1,0.2-0.3,0.1-0.2,0.3c0,0.2-0.1,0.3-0.3,0.3c-0.1,0-0.1,0.1-0.1,0.1c0,0.2-0.1,0.2-0.2,0.2
		c-0.3,0-0.6-0.1-0.9,0.1c-0.1,0.1-0.2-0.3-0.4-0.1c-0.1,0.1-0.3,0.1-0.4,0.1c0,0,0-0.1,0-0.1c0-0.2,0.1-0.4,0-0.4
		c-0.1-0.1-0.3-0.2-0.5-0.1c-0.3,0.1-0.4-0.4-0.7-0.3c0,0-0.1-0.1-0.1-0.1c0.1-0.3-0.2-0.5-0.4-0.7c-0.1-0.1-0.2-0.2,0-0.3
		c0.1-0.1,0.2-0.2,0.3-0.4c-0.2-0.1,0-0.3-0.2-0.4c-0.2-0.1,0.1-0.3,0-0.4c-0.1-0.1-0.1-0.3-0.2-0.5c0,0,0-0.1,0-0.1
		c0.2-0.2,0.1-0.3,0-0.4c-0.1-0.2-0.2-0.4,0.1-0.6c0.1-0.1,0.1-0.1,0-0.2c0-0.1-0.1-0.1-0.1-0.2c0-0.2,0-0.4,0.1-0.5
		c0-0.1-0.2-0.3-0.2-0.5c0.1-0.3-0.2-0.3-0.3-0.4c-0.2-0.1-0.3,0.1-0.5,0.1c-0.1,0-0.1,0.1-0.1,0.2c0,0.2-0.1,0.4,0.1,0.6
		c0.1,0.1-0.1,0.3-0.2,0.4c-0.1,0.1-0.1,0.2,0,0.3c0.2,0.2,0.2,0.4,0.2,0.6c-0.1,0.3,0,0.5,0.2,0.8c0.1,0.1,0.2,0.2,0.1,0.4
		c-0.1,0.1,0.2,0.2,0.1,0.4c-0.2,0.2,0,0.4,0,0.6c0,0.2,0,0.4,0.1,0.6c0.1,0.3,0,0.7,0,1c0,0.1-0.1,0.1-0.2,0.1
		c-0.1,0.1-0.3,0.2-0.4,0.4c-0.1,0.2-0.1,0.4-0.3,0.5c-0.2,0.1-0.2,0.3-0.3,0.4c-0.1,0.1-0.2,0.3-0.4,0.3c-0.2,0-0.4-0.1-0.5-0.2
		c-0.2-0.1-0.2,0-0.2,0.2c0,0.3-0.1,0.4-0.3,0.2c-0.2-0.1-0.5,0.1-0.6-0.2c-0.1-0.2-0.4-0.2-0.6-0.4c-0.1-0.1-0.2-0.2-0.1-0.3
		c0.1-0.1-0.1-0.2-0.1-0.3c0-0.1-0.1-0.2-0.2-0.3c-0.2-0.1-0.3-0.3-0.1-0.5c0,0,0-0.2,0-0.2c-0.3,0-0.2-0.3-0.2-0.5
		c0-0.2-0.2-0.4,0-0.6c0.1-0.1-0.1-0.2-0.1-0.3c-0.3-0.4-0.4-1.3-0.3-1.7c0-0.1,0-0.2,0-0.2c0.1-0.3-0.1-0.5-0.1-0.7
		c0-0.3,0-0.5-0.2-0.7c-0.1-0.1-0.1-0.2,0-0.3c0.2-0.2,0.1-0.5,0.1-0.7c0-0.2-0.2-0.3-0.4-0.2c-0.2,0.1-0.3,0.2-0.3,0.4
		c0,0.1,0,0.3-0.1,0.4c-0.1,0.1,0.2,0.2,0.1,0.4c-0.2,0.5-0.1,1-0.1,1.4c0,0.1,0,0.1-0.2,0.2c-0.2,0.1-0.2,0.1-0.1,0.4
		c0.1,0.1,0.1,0.3,0.2,0.4c0,0.1,0.1,0.1,0,0.2c-0.4,0.3-0.3,0.7-0.1,1.1c0,0.1,0,0.2,0,0.3c-0.1,0.1-0.2,0.3-0.2,0.5
		c0,0.2-0.2,0.4-0.3,0.5c-0.2,0.2-0.5,0.3-0.7,0.3c-0.2,0.1-0.4,0-0.5,0.3c0,0.1-0.2,0.1-0.3,0c-0.1-0.1-0.2-0.1-0.2,0
		c-0.1,0.3-0.4,0-0.5,0.3c0,0.1-0.1,0.1-0.2,0c-0.2-0.1-0.5-0.3-0.8-0.3c-0.2,0-0.2-0.3-0.4-0.4c-0.2-0.1-0.3-0.1-0.5-0.3
		c0,0,0,0,0,0c0,0,0,0,0,0c0.2-0.3-0.2-0.5,0-0.8c0-0.1,0-0.1,0.1-0.2c0.1-0.1,0.1-0.2,0.1-0.3c0-0.2-0.3-0.2-0.1-0.5
		c0.1-0.1,0-0.3-0.1-0.5c0,0,0-0.1,0-0.2c0.3-0.2,0.2-0.6,0.2-0.9c0-0.2-0.1-0.4,0.1-0.5c0.1-0.1,0-0.2,0-0.3
		c-0.2-0.5,0-0.9,0.1-1.4c0.1-0.4,0.4-0.8,0.3-1.3c-0.1-0.5,0.2-0.8,0.3-1.2c0.1-0.3,0-0.7,0.3-1c0,0,0,0,0,0
		c-0.4-0.2-0.1-0.7-0.5-1c-0.1,0,0-0.2-0.1-0.3c-0.1-0.3-0.2-0.5-0.5-0.6c-0.2-0.1-0.2-0.3-0.2-0.7c0-0.2,0.1-0.4-0.1-0.5
		c-0.3-0.1-0.3-0.4-0.3-0.6c0-0.1,0-0.2,0-0.3c0-0.1,0.1-0.3-0.2-0.3c0,0-0.1-0.1,0-0.1C1,60.7,0.6,60.4,0.6,60c0,0,0,0,0-0.1
		c-0.1-0.2-0.4-0.2-0.3-0.4c0.1-0.2,0.1-0.3,0-0.5c-0.1-0.1,0-0.1,0-0.1c0-0.2,0.1-0.4-0.2-0.5c-0.2-0.1-0.2-0.3,0-0.6
		c0.1-0.2,0.3-0.3,0.3-0.5c0-0.1,0.1-0.4,0.4-0.3C1,57,1,57,1.1,56.9c0.2-0.1,0.6-0.2,0.8-0.2c0.1,0,0.1,0,0.1,0
		c0.3-0.2,0.5-0.2,0.9-0.2c0.2,0,0.3-0.2,0.5,0c0.2-0.2,0.5,0,0.7-0.1c0,0.4,0.1,0.8,0.5,1.1c0.1,0.1,0.1,0.4,0.3,0.5
		c0,0-0.1,0.1-0.1,0.1c0,0.2-0.2,0.4,0.2,0.4c0.1,0,0.1,0.1,0,0.2c0,0.4,0,0.5,0.2,0.8c0.1,0.1,0.1,0.2,0.1,0.3
		c0,0.3,0.1,0.6,0.3,0.8c0.2,0.2,0.1,0.4,0.1,0.6c-0.1,0.1-0.1,0.2,0,0.3c0.1,0.1,0.2,0.2,0.3,0.3c0.1,0.1,0.2,0.2,0.1,0.4
		c0,0-0.1,0.3,0.2,0.3c0.1,0,0.2,0.1,0.3,0.1c0,0,0.1,0.1,0.1,0c0.1-0.4,0.3-0.2,0.5-0.1c0.3,0.1,0.5,0.1,0.7-0.2
		c0.1-0.1,0.2-0.2,0.3-0.1c0.2,0.1,0.5,0.1,0.7-0.2c0.2-0.2,0.5-0.1,0.6-0.4c0,0,0.1,0,0.2,0c0.2,0.2,0.4,0.1,0.6-0.1
		c0.1-0.2,0.3-0.2,0.5-0.2c0.3,0,0.5,0,0.7-0.2c0.1-0.1,0.3-0.3,0.6-0.1c0.1,0.1,0.2,0,0.3,0c0.2,0,0.2-0.2,0.1-0.3
		c-0.1-0.1-0.2-0.2-0.1-0.3c0.2-0.2-0.2-0.5,0.1-0.7c-0.1-0.2-0.1-0.5-0.3-0.6c-0.2-0.2-0.3-0.5-0.3-0.8c0-0.1-0.1-0.3-0.1-0.4
		c0.1-0.1,0-0.3,0.2-0.4c0.1,0,0-0.1,0-0.2c-0.1-0.1-0.2-0.1-0.2-0.2c0-0.2-0.2-0.3-0.1-0.4c0.2-0.2,0-0.5,0.2-0.6
		c0.3-0.3,0.5-0.7,0.5-1.1c0-0.4,0.3-0.4,0.5-0.5c0.1-0.1,0.2-0.1,0.3-0.2c0.1-0.2,0.3-0.3,0.5-0.4c0.4-0.1,0.7-0.3,1-0.5
		c0.2-0.1,0.3-0.2,0.5,0c0.1,0.1,0.3,0.1,0.3,0c0.4-0.3,0.8,0,1.2,0c0.1,0.2,0.3,0.1,0.5,0.2c0.1,0.1,0.4,0,0.5,0
		c0.4,0.1,0.9,0,1.3,0.3c0.1,0,0.1,0,0.2,0c0.2,0,0.5-0.1,0.7,0.1c0.2,0.2,0.5,0.1,0.6,0.4c0,0,0.2,0,0.1,0.1
		c-0.1,0.3,0.1,0.4,0.3,0.6c0.2,0.2,0,0.4,0.2,0.6c-0.1,0.1-0.1,0.3-0.3,0.3c-0.1,0-0.2,0-0.3,0.1c0,0.2,0.2,0.3,0.3,0.4
		c0.1,0.2,0.1,0.4,0,0.6c-0.1,0.1-0.3,0.4-0.1,0.6c0,0,0,0.1,0,0.1c-0.2,0.1-0.2,0.4-0.2,0.6c-0.1,0-0.1,0-0.1,0
		c-0.4,0-0.8,0-1.2,0.2c-0.3,0.2-0.8,0.3-1.2,0.3c-0.1,0-0.2,0-0.2,0c-0.2,0.4-0.6,0.1-0.9,0.1c0.2,0.5,0.5,0.9,0.5,1.4
		c0,0.3,0.2,0.4,0.3,0.7c0,0.1,0.1,0.2,0.1,0.3c-0.2,0.3-0.1,0.5,0.1,0.6c-0.1,0.2,0.2,0.3,0,0.5c0,0,0,0.2,0,0.3
		c0.2,0.2,0.1,0.5,0.1,0.7c-0.1,0.2-0.1,0.4,0,0.6c0.1,0.2,0.2,0.3,0.4,0.3c0.2,0,0.3,0,0.4,0.1c0.1-0.1,0-0.2,0-0.3
		c0-0.2,0.1-0.2,0.2-0.1c0.1,0.1,0.2-0.1,0.4-0.1c0.1,0,0.3-0.1,0.4-0.1c0.1,0.1,0.2,0.1,0.2-0.1c0-0.1,0.1-0.1,0.2-0.1
		c0.1,0,0.2-0.1,0.3-0.1c0.1,0,0-0.3,0.2-0.2c0.2,0.1,0.4,0.1,0.6,0.2c0.2,0.3,0.5,0.5,0.8,0.6c0.3,0.1,0.4,0.3,0.3,0.8
		c0,0-0.1,0,0,0.1c0.3,0.6,0.3,0.7,0.3,1.1c0,0.2,0,0.5,0.2,0.6c0.1,0.1,0.1,0.3,0,0.4c-0.3,0.2-0.1,0.4,0,0.6
		c0.1,0.2,0.2,0.4,0.1,0.6c0,0.2,0,0.3,0.1,0.5c0.1,0.1,0.3,0.3,0,0.5c0,0.2,0.2,0.3,0,0.5c-0.1,0.2,0.1,0.3,0.2,0.5
		c0.1,0.2-0.1,0.3,0,0.5c0,0.1,0,0.2,0.1,0.2c0.2,0,0.2,0.3,0.5,0.2c0.2,0,0.3-0.1,0.5,0c0.1,0.1,0.3-0.2,0.4-0.1
		c0.1,0,0.2,0.2,0.3,0c0,0,0.3-0.1,0.3,0.2c0,0.1,0.4,0.1,0.4,0c0-0.3,0.2-0.2,0.3-0.1c0.2,0.1,0.2,0.1,0.3,0c0.1,0,0.2-0.2,0.4,0
		c0.1,0.1,0.2-0.2,0.4-0.1c0.1,0,0.3,0,0.4,0.1c0.1,0.1,0.2,0.1,0.3,0c0.1-0.2,0.3-0.3,0.5-0.1c0.3-0.2,0.7,0.2,0.9-0.2
		c0.1-0.2,0.2-0.2,0.3,0c0.1,0.1,0.2-0.1,0.3,0c0.1-0.2,0.3-0.3,0.5-0.2c0.1,0,0.1,0,0.1-0.1c0.1-0.1,0.2-0.1,0.3,0c0,0,0,0,0.1,0
		c0.2,0.1,0.3-0.1,0.5-0.1c0.1,0.1,0.3,0.1,0.5,0.2c0,0,0.1,0.1,0.1,0c0.3-0.2,0.7-0.2,0.9-0.5c0.1-0.1,0.2-0.1,0.3,0
		c0.2,0.1,0.3,0.1,0.3-0.2c0-0.2-0.1-0.4,0.1-0.6c0,0,0.1-0.2,0-0.3c-0.2-0.1,0-0.2,0.1-0.3c0.1-0.1,0.2-0.1,0.1-0.2
		c-0.2-0.2-0.1-0.3,0-0.5c0.1-0.1-0.1-0.4,0.1-0.5c0.1-0.1,0-0.1,0-0.1c-0.3-0.3-0.4-0.6-0.2-1c0-0.1,0-0.1-0.1-0.2
		c-0.3-0.3,0-0.6,0-0.9c0,0,0.1-0.1,0.1-0.1c0.1-0.1,0.1-0.1,0-0.2c-0.2-0.2-0.1-0.5-0.3-0.7c0,0-0.1-0.1,0-0.2
		c0.1-0.2,0.1-0.3-0.1-0.5c0,0,0-0.1,0-0.2c0.2-0.2,0-0.6,0.2-0.8c0,0,0-0.2,0-0.3c-0.1-0.2-0.2-0.4,0-0.6c0,0,0-0.2,0-0.2
		c-0.3-0.2-0.2-0.5-0.2-0.8c0-0.2-0.1-0.3-0.2-0.4c-0.3-0.2-0.3-0.4-0.1-0.7c0,0,0-0.1,0-0.1c-0.1-0.1-0.3,0-0.4,0
		c-0.2,0-0.4,0-0.5-0.2c-0.2-0.1-0.5-0.2-0.8-0.2c-0.1,0-0.2,0-0.3-0.1c-0.1-0.1,0-0.3-0.2-0.3c-0.2,0-0.3,0-0.3-0.2
		c-0.3-0.1-0.4-0.4-0.7-0.3c-0.1,0-0.2,0-0.3-0.1c-0.1-0.2-0.3-0.1-0.5-0.1c0,0.2,0.4,0.4,0.1,0.7c0.4,0.1,0.3,0.4,0.2,0.6
		c-0.1,0.2,0.2,0.4-0.1,0.5c0.2,0.2-0.2,0.6,0.2,0.8c0,0,0,0.1,0,0.2c0,0.2,0.1,0.4,0,0.6c-0.1,0.2,0.2,0.3,0,0.5
		c-0.1,0.1,0.1,0.4-0.1,0.6c-0.1,0.1,0.1,0.2,0.1,0.3c0.1,0.5,0.1,1,0.3,1.5c0,0.1,0.1,0.1,0,0.1c-0.1,0.1,0,0.3-0.1,0.4
		c-0.2,0.2,0.1,0.2,0,0.4c-0.1,0.1,0,0.3-0.1,0.4c-0.1,0-0.1,0.1,0,0.2c0.2,0.2,0.2,0.4,0,0.6c0.2,0.2,0,0.4,0,0.5
		c-0.2,0.6-0.4,1.2-0.3,1.8c0,0,0,0.1-0.1,0.1c-0.1,0-0.2,0-0.2-0.1c-0.1-0.1-0.2-0.2-0.2,0.1c0,0.1-0.1,0.1-0.2,0
		c-0.1-0.1-0.2-0.1-0.3,0c-0.2,0.2-0.5,0.2-0.7,0c-0.2-0.1-0.1,0-0.1,0.1c-0.1,0.1-0.2,0.1-0.2,0c-0.2-0.2-0.3-0.2-0.5,0
		c-0.1,0.1-0.2,0.1-0.3,0c0,0-0.1-0.1-0.1-0.1c-0.2-0.2-0.4-0.2-0.4,0.1c0,0.2-0.1,0.4-0.2,0.5c-0.2,0-0.2-0.2-0.4-0.2
		c-0.2,0-0.3-0.1-0.4-0.1c-0.3,0-0.4-0.1-0.4-0.4c0-0.3-0.1-0.6-0.3-0.8c-0.1-0.1-0.1-0.2-0.1-0.3c0-0.2,0-0.4,0-0.7
		c0-0.1,0-0.2,0-0.2c-0.1-0.1-0.3-0.2-0.3-0.4c0-0.1,0.2-0.3,0.2-0.5c0-0.2,0.1-0.5-0.1-0.7c0.1-0.3,0.1-0.5,0.2-0.8
		c0-0.1,0.1-0.2,0-0.2c-0.1-0.1-0.1-0.3-0.2-0.3c0.1-0.1,0.1-0.2,0.1-0.4c0.1-0.2-0.2-0.3-0.1-0.5c0.2-0.2-0.1-0.2-0.1-0.3
		c0,0,0-0.1,0-0.1c0.3-0.2,0-0.4,0-0.6c-0.1-0.5-0.1-0.7,0-1.2c0-0.1,0-0.1,0-0.2c-0.1-0.1-0.2-0.3-0.2-0.4c0.1-0.2,0-0.2,0-0.4
		c0-0.1-0.1-0.2,0-0.3c0.1-0.1,0.1-0.2,0-0.4c0,0-0.1-0.1,0-0.1c0.1-0.1,0.1-0.5,0.1-0.7c0-0.2-0.1-0.4,0.1-0.6
		c0.1-0.2,0.3-0.4,0-0.6c-0.1-0.1-0.1-0.2,0-0.3c0.2-0.2,0.1-0.3,0-0.5c-0.1-0.1,0-0.3,0-0.4c0-0.3,0-0.5-0.3-0.7
		c-0.1-0.1,0-0.1,0-0.2c0-0.1,0-0.3,0-0.3c0.4-0.4,0.2-0.8-0.1-1.1c-0.1-0.2,0-0.4-0.2-0.5c0,0,0,0,0,0c0.1-0.1,0.3-0.2,0.2-0.4
		c-0.1-0.1-0.1-0.3-0.1-0.4c0-0.1-0.1-0.3-0.2-0.4c-0.1-0.1,0-0.2,0-0.3c0.2-0.1,0.3-0.3,0.4-0.5c0-0.2,0.1-0.2,0.3-0.2
		c0.1-0.1,0.2-0.2,0.4-0.3c0,0,0,0,0-0.1c0.1-0.2,0.4-0.1,0.5-0.3c0.1-0.2,0.1-0.4,0.4-0.4c0.1,0,0.2-0.1,0.3-0.2
		c0.1-0.1,0.3-0.2,0.5-0.1c0.1,0.1,0.2,0.1,0.2,0c0.2-0.2,0.3-0.2,0.4,0c0.1,0.1,0.2,0,0.2,0.2c0.1-0.1,0.2-0.3,0.3-0.4
		c0.1-0.1,0.1-0.1,0.2-0.1c0.2,0,0.2,0.2,0.4,0.1c0.1-0.1,0.2-0.2,0.3-0.3c0-0.1,0.1,0,0.2,0c0.2-0.1,0.2,0.3,0.4,0.1
		c0.1-0.2,0.2,0,0.3,0c0.1,0,0.2,0,0.3-0.1c0.1-0.1,0.2-0.2,0.3-0.3c0-0.2-0.2-0.1-0.3-0.2c-0.2-0.2,0.1-0.2,0-0.3
		c0-0.2-0.1-0.4-0.2-0.6c-0.1-0.1-0.2-0.2-0.3-0.4c0-0.1-0.3-0.1-0.3-0.2c-0.1-0.1,0.2-0.2,0.1-0.4c-0.2-0.3,0-0.8-0.4-1
		c0,0-0.1-0.1-0.1-0.1c-0.1-0.2,0.2-0.3,0.1-0.5c-0.1-0.2-0.3-0.3-0.1-0.5c0.1-0.1,0-0.1-0.1-0.2c-0.1-0.1-0.1-0.3-0.2-0.4
		c0-0.2-0.4-0.3-0.2-0.5c0.1-0.2-0.3-0.4,0-0.6c-0.2-0.1,0-0.4-0.2-0.6c-0.2-0.2-0.4-0.4-0.2-0.7c-0.3-0.2,0.1-0.7-0.3-0.8
		c0-0.2,0-0.5-0.3-0.6c0.3-0.3-0.1-0.5,0-0.8c0.1-0.2,0.1-0.2-0.1-0.4c-0.2-0.1-0.1-0.3,0-0.4c0.1-0.1,0.1-0.1,0-0.3
		c-0.1-0.1-0.1-0.2-0.2-0.3c-0.1-0.2-0.1-0.2,0-0.4c0.1-0.2,0.1-0.5,0-0.7c0,0,0-0.1,0-0.1c0-0.2,0.3-0.3,0.2-0.5
		c-0.1-0.2-0.2-0.3-0.2-0.5c-0.4,0.2-0.7,0.5-0.9,0.7c-0.1,0.1-0.2,0.1-0.1,0.2c0,0.2-0.1,0.2-0.2,0.2c-0.2,0.1-0.3,0.2-0.4,0.4
		c-0.1,0.1-0.2,0.3-0.4,0.5c-0.1,0.1-0.2,0.3-0.4,0.3c0,0.2-0.2,0.3-0.3,0.3c0,0.4-0.3,0.4-0.6,0.5c-0.1,0-0.2,0.2-0.3,0.3
		c-0.1,0.1-0.1,0.3-0.3,0.3c0,0-0.1,0.1-0.1,0.1c0,0.5-0.4,0.6-0.7,0.9c-0.1,0.2-0.4,0.3-0.3,0.6c-0.2,0.3-0.3,0.6-0.4,1
		c0,0.1,0,0.1-0.1,0.1c-0.3,0.1-0.4,0.3-0.4,0.6c0,0.2-0.2,0.2-0.3,0.3c-0.1,0.1-0.3,0.1-0.1,0.3c0.1,0.1-0.1,0.2-0.2,0.2
		c-0.2,0.1-0.2,0.2-0.1,0.4c0.1,0.2,0,0.5-0.3,0.6c-0.2,0.1-0.2,0.2-0.2,0.4c0,0.2,0,0.5-0.3,0.6c-0.1,0,0,0.1-0.1,0.2
		c-0.1,0.1,0.1,0.2,0.1,0.3c0,0.1-0.2,0.2-0.2,0.2c0.1,0.2-0.1,0.3-0.1,0.5c0,0.3-0.1,0.5-0.3,0.6c-0.1,0.1-0.2,0.2-0.2,0.3
		C18,48.8,18,48.8,17.8,49c-0.1,0.1-0.3,0.2-0.3,0.4c0,0.2-0.1,0.1-0.2,0.1c-0.1,0-0.2-0.1-0.2-0.1c-0.2,0.2-0.3-0.4-0.6-0.1
		c-0.1,0.1-0.4,0-0.6-0.1c-0.1-0.1-0.1,0.1-0.2,0.1c0,0-0.1,0-0.2,0c0-0.1,0-0.2-0.1-0.3c-0.1-0.1-0.1,0.1-0.2,0.1
		c-0.1,0-0.2-0.1-0.2-0.2c-0.1-0.1-0.1,0-0.1,0c-0.4,0.1-0.8,0.1-1-0.4c-0.1-0.2-0.3-0.2-0.4-0.5c0-0.1-0.1-0.2,0-0.3
		c0.1-0.1,0-0.2,0-0.2c-0.2,0-0.2-0.1-0.1-0.3c0.2-0.3,0.3-0.7,0.1-1c0-0.1-0.1-0.3,0.2-0.3c0,0,0.1,0,0.1-0.1
		c0.1-0.2-0.2-0.4,0.2-0.5c0.2-0.1,0-0.4,0.2-0.5c0,0,0-0.2,0-0.3c0-0.1-0.2-0.3-0.1-0.4c0.2-0.2,0-0.2,0-0.3c0-0.1,0-0.1,0-0.2
		c0.1-0.1,0.3-0.3,0.4-0.4c0.1-0.1,0-0.3,0.1-0.5c0.1-0.1,0.2-0.1,0.2-0.3c0-0.1-0.2-0.2,0-0.3c-0.1-0.1-0.1-0.3,0.1-0.3
		c0.2,0,0.2-0.1,0.2-0.3c0-0.3-0.1-0.7,0.4-0.8c0,0,0.1-0.1,0-0.1c-0.3-0.2,0.1-0.3,0-0.5c-0.1-0.2,0-0.2,0.2-0.2
		c0.2,0,0.3-0.1,0.3-0.3c0,0,0,0,0-0.1c-0.1-0.5,0.1-0.7,0.5-0.8c0.1,0,0.2-0.1,0.1-0.3c-0.1-0.1-0.1-0.4,0.2-0.4
		c0.1,0-0.1-0.2-0.1-0.3c0.1-0.1,0.2-0.1,0.3-0.2c0.1-0.1,0.1-0.2,0.2-0.3c0.2-0.1,0.2-0.4,0.2-0.6c0.2,0,0.4,0,0.5,0
		c0.1-0.1,0.1-0.1,0.1-0.2c-0.1-0.3,0.1-0.6,0.2-0.9c0-0.1,0.1-0.2,0.2-0.2c0.1,0,0.2,0,0.3,0c0.1,0,0.2,0,0.2-0.1
		c0-0.1,0.1-0.1,0.1-0.2c0.1-0.1,0.2,0,0.2-0.1c0-0.1,0.1-0.2,0.2-0.2c0,0,0.1-0.1,0.1-0.1c-0.1-0.3,0.2-0.4,0.3-0.5
		c0.3-0.2,0.3-0.5,0.5-0.7c0.1-0.2,0.2-0.5,0.5-0.4c0.1,0,0.1-0.1,0.1-0.1c0-0.2,0.1-0.2,0.2-0.2c0.2,0,0.3,0,0.4-0.2
		c0.2-0.3,0.4-0.5,0.7-0.6c0.2-0.1,0.4-0.2,0.4-0.5c0-0.2,0.2-0.3,0.4-0.3c0.2,0,0.3-0.1,0.3-0.3c0-0.2,0-0.4,0.3-0.3
		c0-0.3,0.5-0.3,0.4-0.6c0-0.1,0.1-0.1,0.1-0.1c0.2,0,0.5,0.1,0.7-0.2c0.1-0.2,0.4-0.2,0.5-0.5c0.1-0.2,0.3-0.2,0.5-0.2
		c0.2,0,0.5,0.1,0.4-0.3c0.2-0.1,0.4-0.3,0.6-0.4c0.3-0.1,0.6-0.3,0.9-0.5c0.4-0.3,0.8-0.5,1.3-0.6c0.1,0,0.2,0,0.2,0
		c0.2-0.3,0.4-0.1,0.6,0c0.2,0.1,0.3,0.2,0.5,0c0.1-0.1,0.4-0.3,0.6,0c0.1,0.1,0.2,0,0.4,0.1c0.2,0.2,0.5,0,0.7,0.1
		c0.2,0.1,0.4,0.2,0.6,0c0.1,0,0.1,0,0.2,0.1c0.1,0.2,0.1,0.2,0.4,0.2c0.3,0,0.6,0.2,0.8,0.4c0.2,0.3,0.5,0.2,0.7,0.3
		c0,0,0.2-0.1,0.3-0.2c0.2,0.1,0.3,0.3,0.5,0.4c0.2,0,0.1,0.3,0.4,0.4c0.1,0,0.2,0.2,0.3,0.3c0.2,0.3,0.3,0.4,0.6,0.5
		c0.2,0,0.6,0.4,0.7,0.6c0,0.1,0,0.2,0.1,0.1c0.2,0,0.3,0,0.2,0.2c0,0.1,0,0.2,0,0.3c0,0.1,0.1,0.1,0.1,0.2c0.2,0.3,0.6,0.3,0.9,0.5
		c0.1,0.1,0.2,0.2,0.2,0.3c0,0.1,0,0.2,0,0.3c0,0.1,0,0.1,0.1,0.1c0.3-0.1,0.3,0.4,0.6,0.2c0,0,0.1,0,0.1,0c0.1,0.3,0.3,0.4,0.6,0.3
		c0,0,0,0,0,0c0,0.4,0.5,0.6,0.4,1.1c0.1,0.1,0.2,0.1,0.2,0.1c0.4,0,0.4,0,0.5,0.4c0,0.1,0.1,0.3,0.2,0.3c0.3-0.1,0.3,0.2,0.4,0.3
		c0.2,0.1,0.2,0.3,0.2,0.5c0,0.1,0.1,0.1,0.2,0.1c0.2,0.1,0.5,0.2,0.6,0.5c0.4,0.1,0.3,0.4,0.5,0.6c0,0,0,0.1,0.1,0.1
		c0.3,0,0.4,0.4,0.6,0.5c0.2,0.1,0.5,0.3,0.6,0.6c0,0,0.1,0,0.2,0c0.1,0,0.2,0,0.2,0.1c-0.1,0.4,0.3,0.4,0.5,0.5
		c0.2,0.1,0.3,0.3,0.6,0.4c0.3,0.1,0.6,0.3,0.6,0.8c0,0.1,0.1,0.2,0.2,0.1c0.1,0,0.3,0,0.4,0.1c0.1,0.3,0.4,0.4,0.7,0.5
		c0.1,0,0.2,0,0.2,0.1c0.1,0.2,0.3,0.3,0.4,0.4c0.2,0.1,0.2,0.3,0.3,0.5c0.1,0.2,0.2,0.3,0.4,0.2c0.1,0,0.2,0.1,0.3,0.1
		c0.2,0.1,0.4-0.1,0.3-0.4c0-0.3-0.2-0.6-0.2-1c0-0.1,0-0.2,0.1-0.2c0.3-0.2,0.1-0.3,0-0.5c0-0.1-0.1-0.1-0.2-0.2
		c-0.1-0.1-0.2-0.2,0-0.3c0.2-0.1,0.2-0.3,0-0.5c-0.1-0.1-0.3-0.3,0-0.5c0.1-0.1-0.1-0.3-0.1-0.5c0-0.2,0.3-0.2,0.2-0.4
		c0-0.1,0-0.2-0.1-0.4c-0.2-0.3-0.2-0.7,0-1c0.1-0.1,0.1-0.2,0-0.3c-0.1-0.1-0.1-0.3,0-0.3c0.2-0.2,0.1-0.5,0-0.7
		c0-0.1-0.1-0.2,0.1-0.3c0.2-0.1,0.1-0.3,0-0.5c-0.2-0.2,0-0.6-0.1-0.7c-0.2-0.3,0.1-0.4,0-0.6c0-0.1,0.3-0.2,0.1-0.4
		c-0.1-0.1,0.2-0.3,0-0.4c-0.1-0.1,0.1-0.2,0.1-0.4c0-0.1,0.1-0.2,0.1-0.4c0-0.1-0.2-0.2-0.1-0.3c0-0.1,0.2-0.2,0.2-0.3
		c0-0.1,0.1-0.2,0-0.3c-0.1-0.1-0.1-0.1,0-0.2c0.2-0.1,0.1-0.2,0-0.3c-0.1-0.1-0.2-0.2,0-0.3c0.1-0.1,0-0.2,0-0.3
		c0-0.1,0.1-0.2,0.1-0.3c0.1-0.1,0-0.4-0.2-0.4c-0.1,0-0.2,0-0.4,0c-0.2,0-0.3,0-0.4-0.2c-0.1-0.1-0.2-0.1-0.3-0.1
		c-0.3,0.2-0.6-0.1-0.9,0c-0.1,0-0.2-0.2-0.3-0.2c-0.3,0.2-0.4-0.1-0.5-0.2c-0.1-0.1-0.2-0.1-0.3-0.1c-0.1,0-0.2,0-0.3,0
		c-0.3-0.3-0.5-0.3-0.7,0c-0.1,0.1-0.2-0.2-0.3-0.1c-0.2,0.1-0.3,0.1-0.4-0.1c-0.2-0.2-0.5-0.2-0.5-0.5c0-0.1-0.1-0.1-0.2-0.1
		c-0.3,0-0.6-0.1-0.9,0.1c-0.1,0.1-0.3,0.1-0.3-0.2c-0.2-0.1-0.4-0.3-0.5-0.5c-0.1-0.1-0.2-0.1-0.4-0.1c-0.3,0-0.3,0-0.7-0.2
		c-0.1-0.1-0.2-0.1-0.3-0.2l-0.4-0.4c-0.3,0-0.2-0.2-0.2-0.4c-0.1-0.2-0.1-0.4,0.1-0.6c0.1-0.2,0.1-0.2-0.1-0.3
		c-0.2-0.1-0.5-0.1-0.6-0.3c-0.2,0-0.2-0.1-0.2-0.2c0-0.2,0.1-0.5-0.2-0.6c-0.1,0,0-0.1,0-0.2c0-0.1,0-0.2,0-0.2
		c-0.1-0.1-0.2-0.2-0.2-0.3c0-0.1,0.1-0.2,0-0.3c-0.1-0.2-0.3-0.3-0.1-0.5c0,0,0-0.1,0-0.2c-0.2-0.1-0.2-0.3-0.1-0.5
		c0.1-0.2-0.2-0.3-0.2-0.5c0-0.2,0.2-0.3,0.1-0.5c-0.3-0.2-0.1-0.5,0-0.7c0-0.1,0.1-0.2,0.1-0.2c-0.2-0.1-0.2-0.3-0.1-0.5
		c0-0.2-0.2-0.3-0.2-0.5c0-0.1-0.2-0.2-0.1-0.3c0.1-0.1,0-0.2,0-0.3c0.1-0.8,0.1-0.8-0.1-1.4c-0.1-0.2-0.1-0.3,0-0.4
		c0.1-0.2,0.1-0.4,0.1-0.4c-0.2-0.2-0.1-0.4,0.1-0.6c0.1-0.1-0.1-0.2-0.1-0.3c0.1-0.1,0.2-0.3,0-0.4c-0.1-0.1,0-0.1,0-0.2
		c0-0.1,0.1-0.2,0.2-0.3c0.3-0.1,0.2-0.4,0.3-0.6c-0.1-0.5,0.3-0.6,0.6-0.8c0.2-0.2,0.4-0.2,0.7-0.4c0.1,0,0.2,0,0.2,0.1
		c0,0.2,0.1,0.2,0.3,0.1c0.1-0.1,0.3-0.3,0.4-0.2c0.1,0.1,0.3,0,0.3,0.3c0,0.1,0.1,0,0.1,0c0.2-0.1,0.4-0.3,0.6-0.3
		c0.3,0,0.6,0.1,0.8,0.3c0.1,0.1,0.3,0.4,0.4,0.4c0.1,0.2,0.2,0.4,0.4,0.6c0.2,0.3,0.4,0.5,0.3,0.9c0,0.2,0.2,0.3,0,0.5
		c-0.1,0.1-0.1,0.3,0.1,0.4c0.1,0.1,0,0.1,0,0.1c-0.1,0.1-0.2,0.2-0.2,0.3c0,0.1-0.3,0.3,0,0.4c0.2,0.1,0.1,0.3,0,0.5
		c-0.1,0.2-0.1,0.3,0,0.5c0.1,0.2,0.2,0.3,0.2,0.5c0,0.1,0.1,0.2,0.2,0.2c0.1,0.1,0.1,0.1,0,0.2c-0.2,0.3-0.2,0.3,0,0.5
		c0.1,0.1,0.1,0.3,0.1,0.4c-0.1,0.1-0.1,0.3-0.1,0.4c0.1,0.3,0.2,0.5,0,0.8c0.2,0.3,0,0.7,0.3,0.9c0.1,0.1-0.1,0.2-0.1,0.3
		c0.1,0.1,0.2,0.1,0.1,0.3c0,0.2,0.1,0.3,0.2,0.3c0.3,0.1,0.4,0.3,0.5,0.6c0.1,0.1,0.1,0.2,0.2,0.2c0.5,0.1,0.9,0.2,1.4,0.3
		c0.1,0,0.1,0,0.1,0.1c0.1,0.1,0.2,0.2,0.4,0.1c0.1-0.1,0.2,0.2,0.4,0.2c0.1,0,0.1,0.1,0.2,0c0.1-0.2,0.2-0.2,0.4,0
		c0.2,0.2,0.5,0.2,0.7,0.2c0.2,0,0.4,0.1,0.6,0.2c0.2,0,0.5,0.1,0.6,0.1c0.2,0,0.3-0.2,0.4-0.1c0.1,0,0.2,0.2,0.3,0
		c0-0.1,0.1,0.1,0.2,0.1c0.2,0,0.3,0.3,0.5,0.1c0,0,0.1,0.1,0.2,0.1c0.1,0.1,0.2,0.1,0.3,0c0.1-0.2,0.3-0.2,0.5-0.1
		c0.1,0.1,0.2,0,0.3,0c0.1,0,0.3,0,0.4,0.1c0.1,0.2,0.3,0.2,0.6,0.2c0.4,0,0.4,0,0.5,0.2c0.1,0.2,0.2,0.1,0.3,0.1
		c0.1-0.1,0.1-0.2,0.3-0.1c0.2,0.1,0.6-0.1,0.8,0.2c0,0,0.2-0.1,0.3-0.2c0.2-0.2,0.4-0.3,0.6-0.1c0.1,0.1,0.3-0.2,0.4,0
		c0.1,0.1,0.2,0.2,0.3,0.3c0.1,0.1,0.2,0.1,0.3,0c0.1-0.1,0.1,0,0.1,0.1c0.1,0.1,0.3,0.3,0.5,0.3c0.1,0,0.1,0.1,0.2,0
		c0.2-0.2,0.3,0,0.4,0.1c0,0.2,0.2,0.2,0.3,0.2c0.1,0,0.2,0,0.3,0.1c0.2,0.2,0.5-0.1,0.6,0.1c0.1,0.2,0.2,0.3,0.4,0.4
		c0.1,0.1,0.3,0.3,0.5,0.1c0.1,0,0.2,0,0.3,0.1c0.1,0.1,0.1,0.1,0.2,0.2c0.3,0.3,0.3,0.3,0.7,0c0.1,0.1,0.3,0.2,0.3,0.4
		c0.1,0.2,0.2,0,0.3,0.1c0.1,0.1,0.1,0.2,0.3,0.2c0.2,0,0.4,0.1,0.5,0.3c0,0.1,0.2,0.1,0.3,0.1c0.3-0.1,0.5,0.2,0.8,0.1
		c0.1,0,0.1,0.1,0.1,0.1c0.1,0.3,0.4,0.4,0.7,0.3c0.2,0,0.4,0,0.4,0.2c0,0.2,0.1,0.1,0.2,0.1c0.1,0,0.1,0,0.2-0.1
		c0.5-0.2,0.6-0.2,0.3-0.7c-0.1-0.3,0-0.5,0.1-0.7c0.1-0.2,0-0.2-0.1-0.3c0,0-0.1,0-0.1,0c-0.2,0-0.1-0.2-0.2-0.2
		c-0.1,0-0.2,0-0.2-0.2c0-0.1,0.1-0.2,0.1-0.3c0-0.1,0.1-0.2,0.1-0.4c-0.1-0.2-0.3-0.3-0.2-0.5c0-0.2,0.1-0.4-0.1-0.5
		c0,0,0-0.1,0-0.2c0.1-0.1,0.1-0.2,0.1-0.3c-0.1-0.2,0-0.4-0.2-0.6c-0.2-0.1-0.1-0.2,0-0.3c0.2-0.2,0.2-0.3,0-0.5
		c-0.1-0.1-0.1-0.2-0.2-0.4c-0.1-0.2,0-0.5,0.2-0.7c0.2-0.1,0.3-0.3,0.4-0.5c0-0.2,0.2-0.2,0.3-0.3c0,0,0.1,0,0.2,0
		c0,0.3,0.2,0.1,0.3,0.1c0.2-0.2,0.4-0.4,0.7-0.1c0.1-0.1,0.2-0.1,0.4,0c0.1,0,0.2-0.1,0.4-0.1c0.2,0,0.1-0.1,0.1-0.2
		c0-0.2,0-0.3,0.2-0.2c0.1,0,0.2,0,0.3-0.1c0.1-0.1,0.2-0.1,0.2,0c0.1,0.2,0.4,0.2,0.6,0.2c0.1,0,0.2,0.1,0.2,0.1
		c0.1,0.2,0.1,0.2,0.3,0.3c0.1,0,0.1,0.2,0.1,0.3c0,0.2,0.1,0.4,0.2,0.5c0.2,0.3,0.3,0.3,0.3,0.5c0,0.1,0,0.3,0,0.3
		c0.2,0.1-0.1,0.2,0,0.3c0,0.1,0.1,0.2,0.2,0.2c0.2,0,0.2,0.1,0.1,0.2c-0.1,0.1,0,0.1,0,0.2c0.2,0.1,0.1,0.4,0.2,0.5
		c0.1,0,0,0.1-0.1,0.2c-0.2,0.3-0.2,0.5,0,0.8c0.1,0.2,0.1,0.3,0,0.4c-0.1,0.2-0.1,0.3,0.1,0.4c0.1,0.1,0.1,0.2,0.2,0.3
		c-0.1,0.1-0.1,0.3-0.2,0.3c0.2,0.2,0.6,0.5,0.2,0.9c0,0,0,0.1,0.1,0.1c0.3,0.2,0.2,0.5,0.1,0.8c-0.1,0.2-0.1,0.3,0,0.5
		c0.2,0.2,0.3,0.4,0.1,0.8c-0.1,0.2,0,0.5,0.1,0.7c0.1,0.1,0.2,0.2,0,0.2c-0.3,0.2-0.2,0.5,0,0.7c0.2,0.2,0.1,0.3,0,0.4
		c-0.3,0.2-0.3,0.6-0.5,0.8c0,0,0,0,0,0.1c0.1,0.5-0.1,0.9-0.3,1.3c-0.3,0-0.6,0-0.9,0.1c-0.2,0.1-0.4,0.3-0.5,0.5
		c-0.2,0.3-0.2,0.3-0.5,0.2c-0.2-0.1-0.3-0.1-0.4,0c-0.5,0.3-1,0.2-1.4,0c-0.2-0.1-0.3-0.1-0.5,0c-0.1,0-0.1,0.1-0.2,0
		c-0.1-0.2-0.4-0.2-0.5-0.1c-0.3,0.2-0.3,0-0.3-0.1c0-0.2-0.1-0.2-0.2-0.4c-0.1-0.1-0.2,0-0.3,0c-0.3,0-0.7,0-1-0.1
		c-0.1,0-0.2,0-0.2-0.1c-0.1-0.3-0.5-0.2-0.6-0.5c-0.1-0.1-0.1,0-0.1,0c-0.2,0.1-0.4,0-0.5-0.2c-0.2-0.3-0.7-0.4-0.9-0.6
		c0,0-0.1,0-0.1,0c-0.5,0.3-0.7,0-0.9-0.3c0,0,0,0-0.1-0.1c0,0-0.1,0.1-0.1,0.1c-0.2,0.1-0.2,0.3,0,0.5c0.2,0.2,0.1,0.6,0.5,0.7
		c0,0,0,0.1,0,0.2c-0.2,0.2-0.1,0.4,0,0.6c0,0,0,0,0,0.1c0.2,0.2,0.1,0.4,0,0.6c0,0.1,0.3,0.3,0.1,0.5c-0.1,0.1,0.1,0.2,0.1,0.3
		c0.1,0.2,0.6,0.3,0.2,0.7c0,0,0,0.1,0.1,0.1c0.4,0.2,0.3,0.6,0.4,0.9c0,0.1,0.1,0.2,0.2,0.3c0,0,0.1,0.1,0.1,0.1
		c-0.4,0.4,0.3,0.6,0.1,0.9c0,0.1,0.1,0.1,0.1,0.2c0.1,0.1,0.1,0.1,0,0.2c-0.1,0.1,0,0.2,0.1,0.2c0.1,0.1,0.1,0.2,0.1,0.3
		c0,0.2,0.1,0.3,0.2,0.4c0.1,0,0.1,0,0.1,0.1c-0.1,0.3,0.2,0.4,0.2,0.6c0.1,0.2,0.1,0.3,0.3,0.3c0.2,0,0.1,0.2,0.2,0.3
		c0.2,0.2,0.2,0.2,0.4,0.1c0.1-0.1,0.2-0.1,0.2-0.2c0-0.2,0.1-0.2,0.2-0.1c0.1,0.1,0.2-0.1,0.4-0.1c0.3,0,0.6-0.2,0.8-0.4
		c0.1-0.1,0.2-0.1,0.3,0c0,0,0.1,0,0.1,0c0.2,0,0.2-0.2,0.3-0.2c0.1,0,0.2,0.2,0.3,0.1c0.2-0.3,0.6-0.2,0.9-0.2c0.2,0,0.3,0,0.4-0.1
		c0.1-0.1,0.1-0.2,0.1-0.2c0.1-0.1,0.1-0.2,0.3-0.1c0.1,0.1,0.4,0.1,0.4-0.2c0-0.1,0.1,0,0.2,0c0.2,0.1,0.5,0.1,0.7-0.1
		c0.1-0.2,0.4-0.1,0.5-0.3c0.2-0.2,0.5-0.3,0.7,0c0.2,0.2,0.3,0.1,0.4,0c0.2-0.1,0.4-0.3,0.6-0.2c0.1,0,0.1-0.1,0.1-0.2
		c0-0.2,0-0.3,0.1-0.5c0.1-0.2,0.3-0.4,0-0.6c-0.1-0.1,0-0.3,0-0.3c0.2-0.3,0-0.5,0-0.7c0-0.1-0.1-0.2-0.2-0.3
		c-0.1-0.1-0.1-0.2,0-0.3c0.3-0.2,0.3-0.4,0.3-0.7c0-0.3,0.1-0.6-0.2-0.8c-0.1-0.1,0-0.1,0-0.1c0.1-0.1,0.2-0.2,0.2-0.3
		c0,0,0.1-0.1,0.1-0.1c0-0.2-0.2-0.3-0.1-0.5c0.1-0.1,0.3-0.3,0-0.5c0-0.3,0-0.5,0.2-0.7c0.2-0.2,0.4-0.6,0.2-0.9
		c-0.1-0.1-0.1-0.3,0.1-0.4c0.1-0.1,0.1-0.2,0.2-0.3c0-0.2-0.1-0.4,0.1-0.5c0.2-0.1,0-0.4,0.3-0.5c0.1,0,0.1-0.2,0.1-0.2
		c-0.2-0.2-0.1-0.3,0.1-0.4c0.2-0.1,0.2-0.3,0.2-0.5c0-0.1,0-0.3,0-0.4c0-0.2,0.2-0.1,0.3-0.2c0.2-0.4,0.3-0.8,0.3-1.2
		c0-0.2,0-0.4,0.3-0.4c0.1,0,0.1-0.1,0.1-0.2c0-0.3,0.2-0.6,0.3-0.9c0.1-0.3,0.1-0.6,0.4-0.9c0,0,0,0,0,0c0.1-0.2-0.1-0.4,0.1-0.6
		c0.2-0.1,0.2-0.3,0.2-0.5c0-0.2,0.3-0.2,0.2-0.3c-0.1-0.3,0-0.4,0.2-0.5c0.1,0,0.1-0.1,0.1-0.2c0,0,0-0.1,0-0.1
		c0.1-0.2,0.4-0.2,0.5-0.3c0.1-0.1-0.1-0.4,0.1-0.5c0.1-0.1,0.2-0.1,0.1-0.2c-0.1-0.3,0.2-0.4,0.4-0.5c0.3-0.2,0.6-0.3,0.6-0.7
		c0-0.1,0.1-0.1,0.2-0.1c0.3-0.1,0.5-0.5,0.8-0.6c0.1-0.5,0.5-0.6,0.8-0.9c0.2-0.2,0.6-0.3,0.5-0.7c0,0,0.1-0.1,0.1-0.1
		c0.3,0,0.6-0.3,0.9-0.1c0.1,0.1,0.2,0,0.3,0c0.3-0.1,0.5-0.3,0.8-0.3c0.2,0,0.4-0.1,0.4-0.2c0.1-0.2,0.3-0.1,0.5-0.2
		c0.1-0.1,0.1,0,0.1,0c0.3,0.2,0.6,0.4,1,0.5c0.1,0.1,0.2,0.2,0.4,0c0.2-0.1,0.4,0.1,0.7,0.2c0.2,0,0.3,0.1,0.5,0.1
		c0.2-0.1,0.5-0.1,0.7,0.2c0,0,0.1,0.1,0.1,0c0.3-0.1,0.5,0.3,0.8,0c0,0,0.1,0,0.2,0c0.1,0.2,0.3,0.1,0.4,0.1c0.1,0,0.2,0,0.2,0.1
		c0.1,0.1,0.2,0.1,0.2,0c0.3-0.2,0.7,0,1-0.2c0,0,0,0,0.1,0c0.2,0.2,0.5,0.1,0.8,0.3c0.1,0.1,0.3,0.1,0.3-0.2c0-0.1,0.1-0.2,0.3-0.1
		c0,0,0.2,0.1,0.3,0c0.1-0.1,0.3,0,0.4-0.2c0.1,0.1,0.2-0.3,0.4,0c0,0,0-0.1,0.1-0.1c0.1-0.3,0.4-0.4,0.6-0.4c0.5,0,0.7-0.3,0.9-0.6
		c0.2-0.2,0.4-0.4,0.6-0.6c0.2-0.1,0.3-0.1,0.3-0.3c0-0.1,0.1-0.2,0.2-0.2c0.4,0.1,0.3-0.2,0.3-0.5c0-0.1,0-0.3,0.3-0.2
		c0.3,0.1,0.4,0,0.5-0.3c0-0.1,0.2-0.2,0.2-0.3c0-0.1-0.1-0.3,0.2-0.3c0.1,0,0.1-0.2,0.1-0.3c0-0.3,0.1-0.5,0.3-0.7
		c0.1-0.1,0.2-0.2,0.2-0.3c0,0,0.1-0.1,0.1-0.1c0.2-0.2,0.6,0,0.7-0.4c0.1-0.2,0.5-0.2,0.7-0.3c0.2,0,0.3-0.1,0.4-0.2
		c0.1-0.1,0.2-0.1,0.3-0.1c0.2,0,0.3,0,0.4-0.2c0.1-0.2,0.2-0.2,0.4-0.1c0.1,0.1,0.1,0.1,0.2,0.2c0.2,0.1,0.3,0.3,0.5,0
		c0.1-0.1,0.4,0,0.5-0.1c0.2-0.2,0.4-0.1,0.6,0c0.2,0,0.2,0.1,0.3,0.2c0.1,0.1,0.2,0.3,0.4,0.1c0.1,0.1,0.2-0.2,0.3-0.1
		c0.1,0.1,0.2,0.1,0.3,0c0.2,0,0.2,0.1,0.4,0.2c0.3,0.1,0.5,0.4,0.8,0.2c0,0,0.2,0,0.2,0c0.2,0.2,0.5,0.3,0.6,0.6
		c0.1,0.1,0,0.3,0.1,0.4c0.1,0.1,0.3,0,0.5,0.2c0.1,0.1,0.4-0.1,0.4,0.2c0,0.2,0.3,0.1,0.4,0.3c0.1,0.3,0.5,0.4,0.7,0.6
		c0.1,0.1,0.4,0.1,0.6,0c0.3-0.1,0.3-0.1,0.4,0.2c0.1,0.1,0,0.3,0.3,0.3c0.1,0,0.2,0.1,0.2,0.2c0.1,0.2,0.2,0.4,0.5,0.3
		c0.1,0.1,0.2,0.3,0.4,0.3c0.2,0,0.4,0.1,0.5,0.1c0.2,0.1,0.3,0.2,0.5,0.3c0.1,0.1,0.2,0.3,0.5,0.3c0.1,0,0.1,0.1,0.1,0.1
		c0,0.1,0.1,0.2,0.2,0.2c0.3-0.1,0.4,0.2,0.6,0.3c0.2,0.1,0.4,0.1,0.6,0.3c0.1,0.1,0.3,0,0.4,0.1c0.1,0,0.1,0,0.3-0.2
		c0.1-0.1,0.2-0.1,0.3-0.1c0.1,0,0.2,0,0.3-0.1c0.2-0.3,0.5-0.5,0.8-0.8c0.1-0.1,0.3-0.3,0.3-0.5c0.2,0,0-0.3,0.3-0.3
		c-0.1-0.4,0.5-0.5,0.3-0.9c0-0.1,0-0.2,0.2-0.2c0.1,0,0.1,0,0.2-0.1c0.2-0.1,0-0.4,0.2-0.4c0.2,0,0.3-0.2,0.2-0.3
		c0-0.1,0.1-0.2,0.1-0.2c0.4-0.2,0.5-0.5,0.6-0.8c0.1-0.2,0.3-0.5,0.6-0.4c0.1,0,0.3-0.1,0.2-0.2c0-0.3,0.1-0.3,0.3-0.3
		c0.3,0,0.5,0,0.7,0.1c0.2,0.2,0.5,0.1,0.7,0.1c0.2,0,0.2,0,0.1,0.2c-0.1,0.2,0.3,0.3,0.2,0.5c0.2,0,0.3,0.3,0.5,0.1
		c0.1-0.1,0.4-0.1,0.3,0.2c0,0.1,0.1,0.1,0.2,0.1c0.1,0.1,0.4,0.1,0.2,0.4c0,0,0.1,0.1,0.1,0.1c0.1,0,0.2,0,0.2,0.2
		c0,0.1,0.1,0.1,0.2,0c0.1-0.1,0.2-0.1,0.3,0c0.1,0.1,0.2,0.2,0.1,0.3c-0.2,0.2-0.1,0.3,0,0.5c0.1,0.1,0,0.2-0.1,0.3
		c-0.2,0.2-0.5,0.5-0.6,0.7c-0.1,0.1-0.1,0.3-0.1,0.3c0.2,0.2,0,0.3,0,0.4c-0.1,0.2-0.4,0.3-0.3,0.6c0,0-0.1,0.1-0.1,0.1
		c-0.4,0-0.3,0.3-0.4,0.5c0,0.1,0,0.2,0,0.3c0,0.2-0.1,0.3-0.2,0.3c-0.2,0-0.3,0.4-0.6,0.3c-0.1,0,0,0.1,0,0.2c0,0.1,0,0.2-0.1,0.2
		c-0.1,0-0.2-0.1-0.3,0.1c0,0.1-0.2,0.3-0.1,0.4c0,0.1,0,0.1,0,0.2c0,0.1,0,0.2-0.2,0.2c-0.2,0-0.2,0.4-0.3,0.4
		c-0.2,0.1-0.4,0.1-0.5,0.2c-0.1,0.1-0.2,0.2-0.2,0.3c-0.1,0.2-0.1,0.4-0.3,0.5c-0.1,0-0.1,0.1-0.1,0.2c0.1,0.3-0.1,0.2-0.3,0.3
		c-0.3,0.2-0.7,0.2-0.9,0.5c-0.2,0-0.4,0.1-0.5,0.4c-0.1,0.1-0.6,0.2-0.8,0.1c-0.1,0-0.1,0-0.2,0c-0.1,0.3-0.2,0.4-0.5,0.2
		c-0.2,0.2-0.4,0-0.6,0c-0.2,0-0.4,0.1-0.6,0.2c-0.2,0.1-0.2-0.1-0.3-0.1c-0.2,0-0.5,0.1-0.6-0.2c-0.2-0.1-0.4,0-0.6,0.1
		c-0.1,0-0.1,0.2-0.2,0.1c-0.1,0-0.2-0.1-0.2-0.2c0-0.3-0.2-0.4-0.5-0.4c-0.2,0-0.4-0.2-0.5-0.3c-0.2-0.2-0.4-0.1-0.6-0.3
		c-0.1-0.1-0.4,0.1-0.4-0.2c-0.2,0-0.3,0-0.5,0c-0.1,0,0,0.1,0,0.2c0,0.1,0.1,0.2,0.1,0.2c0.2,0.2,0.2,0.3,0.2,0.6
		c0,0.2-0.1,0.4,0.2,0.5c0,0,0,0.2,0,0.2c0,0.1-0.2,0.2,0,0.3c0.2,0.1,0.1,0.4,0.4,0.5c-0.1,0.3,0.3,0.4,0.2,0.6
		c0,0.1,0.1,0.2,0.2,0.2c0.3,0.1,0.3,0.3,0.1,0.5c-0.1,0.2,0,0.3,0.1,0.3c0.2,0.1,0.3,0.3,0.4,0.4c0.2,0.1,0.2,0.3,0.3,0.5
		c0.1,0.1,0.3,0.1,0.2,0.3c0,0.1,0.1,0.1,0.2,0.1c0.2,0,0.4,0,0.4,0.3c0,0,0,0.1,0.1,0c0.2-0.2,0.3,0,0.5,0c0.2,0.1,0.3,0.2,0.3,0.4
		c0,0.1,0,0.1,0.1,0.1c0.3,0,0.5,0.2,0.7,0.3c0.2,0,0.4,0.1,0.4,0.4c0,0,0.1,0.3,0.3,0.1c0.2,0.1,0.5,0.1,0.7,0.3
		c0.1,0.1,0.1,0.1,0.2,0.2c0.1-0.1,0.2-0.1,0.2-0.1c0,0,0.1-0.1,0.1-0.1c0.1-0.2,0.3-0.2,0.5-0.2c0.2,0,0.3-0.1,0.5-0.1
		c0.2,0,0.4-0.1,0.5-0.3c0-0.1,0.2-0.3,0.4-0.1c0.1,0.1,0.3,0.1,0.5,0.1c0.1,0,0.3,0.2,0.4,0.2c0.2,0.1,0.4-0.2,0.6-0.1
		c0.2,0.1,0.3,0.3,0.5,0.3c0.2,0.1,0.4-0.1,0.6-0.1c0.6-0.2,0.6-0.3,0.4-0.8c0-0.1-0.1-0.2,0-0.2c0.2-0.1,0-0.3,0.2-0.4
		c0.2-0.1,0.1-0.3,0.2-0.5c0.1-0.1,0.1-0.4,0.1-0.5c0-0.1,0-0.2,0.2-0.2c0,0,0.1-0.1,0.1-0.1c-0.1-0.4,0.1-0.7,0.4-1
		c0.2-0.2,0.3-0.4,0.2-0.7c0-0.1,0-0.2,0.1-0.2c0.3-0.1,0.3-0.4,0.3-0.6c0-0.1,0.1-0.2,0.2-0.2c0.1-0.1-0.1-0.1,0-0.2
		c0.3-0.3,0.3-0.3,0.3-0.6c0-0.3,0.2-0.4,0.4-0.6c0.2-0.2,0.4-0.4,0.4-0.7c0-0.2,0.4-0.2,0.3-0.5c0.2-0.1,0.1-0.4,0.3-0.5
		c0.1,0,0.1-0.1,0.1-0.1c-0.1-0.3,0.1-0.5,0.3-0.7c0.1-0.1-0.2-0.2,0-0.3c0.1,0,0.1-0.1,0.2-0.2c0.1-0.1,0.1-0.3,0.1-0.4
		c0-0.4,0.1-0.4,0.5-0.6c0.2-0.1,0.3-0.1,0.3-0.3c0-0.2,0.1-0.4,0.2-0.5c0,0,0.1-0.2,0.2-0.1c0.2,0.2,0.4,0,0.5-0.1
		c0.1-0.1,0.2-0.2,0.2-0.3c0-0.1,0.1-0.2,0.2-0.1c0.4,0.1,0.6-0.3,0.9-0.3c0.1,0,0.1-0.2,0.2-0.1c0.2,0,0.3,0,0.4-0.2
		c0.1-0.2,0.3-0.1,0.5-0.2c0.2-0.2,0.4-0.3,0.7-0.4c0-0.3,0.3-0.3,0.5-0.5c0.2-0.2,0.4-0.3,0.6-0.4c0.2-0.1,0.5-0.2,0.5-0.5
		c0.2-0.1,0.3-0.3,0.5-0.4c0.4-0.2,0.4-0.3,0.7-0.2c0.2,0,0.4-0.2,0.6-0.1c0.1-0.2,0.2,0,0.4,0c0.3,0.1,0.5,0.4,0.8,0.4
		c0,0,0.1,0.1,0.1,0.2c0.2,0.3,0.2,0.4,0.6,0.2c0.2-0.1,0.3,0,0.5,0.1c0.1,0.1,0.3,0.1,0.4,0c0.2-0.2,0.2-0.1,0.3,0.1
		c0.1,0.1,0.1,0.3,0.3,0.1c0,0,0.1,0,0.1,0c0,0.3,0.4,0.3,0.5,0.4c0.2,0.2,0.5,0.3,0.6,0.5c0.1,0.1,0.1,0.1,0.2,0.1
		c0.3,0,0.3,0,0.4,0.2c0.1,0.1,0.6,0.4,0.8,0.4c0.2,0,0.3,0.1,0.3,0.2c0,0.1,0.1,0.2,0.1,0.2c0.3,0.1,0.5,0.2,0.4,0.5
		c0.4,0.1,0.4,0.5,0.6,0.7c0.1,0.1,0.1,0.1,0.2,0.1c0.2,0.1,0.2,0.1,0.3,0.4c0,0,0,0,0,0c0.6,0.3,0.6,0.8,0.8,1.3
		c0.1,0.2,0.4,0.2,0.4,0.4c0,0.2-0.1,0.4,0.2,0.5c0,0,0.1,0.1,0.1,0.1c0,0.2,0,0.4,0.3,0.5c0,0.2,0.2,0.3,0.2,0.5
		c-0.1,0.2,0.1,0.5,0,0.7c0,0.2,0.1,0.4,0.2,0.6c0.3,0.3,0.3,0.6,0.4,1c0,0.2,0,0.3,0,0.5c0,0.1,0,0.2,0,0.2
		c0.1,0.1,0.1,0.2,0.2,0.3c-0.1,0.1-0.2,0.2-0.1,0.3c0.1,0.2,0.1,0.4,0.1,0.6c0,0.4,0,0.7,0.4,0.9c0.1,0.1,0.1,0.2,0,0.3
		c-0.2,0.4-0.1,0.8,0,1.2c0,0.1,0.1,0.1,0,0.2c-0.1,0.2-0.2,0.5-0.1,0.6c0.2,0.2-0.1,0.4,0.1,0.5c0,0,0,0.1,0,0.1
		c-0.2,0.2-0.1,0.3,0.1,0.5c0.3,0.3,0.2,0.3,0,0.6c0,0.1-0.1,0.1,0,0.2c0.2,0.2,0.1,0.3,0,0.5c-0.1,0.1-0.2,0.3,0,0.5
		c0.1,0.1,0.2,0.3,0.1,0.5c0,0.2,0,0.4,0,0.5c-0.1,0.2,0,0.3,0,0.4c0,0,0,0.1,0,0.1c-0.4,0.2-0.1,0.7-0.4,1c-0.1,0.1,0.2,0.2,0,0.3
		c0,0,0.2,0.2,0.1,0.3c-0.2,0.1,0.1,0.2,0,0.3c0,0.1,0,0.2,0,0.3c-0.2,0.3-0.2,0.6-0.2,0.9c0,0,0,0.1,0,0.1
		c-0.3,0.1-0.3,0.3-0.1,0.5c0.3,0.3,0.5,0.6,0.9,0.4c0.1-0.1,0.3-0.1,0.4,0c0.1,0.1,0.2,0.1,0.3,0c0.1-0.1,0.2-0.1,0.2,0.1
		c0,0.1,0.1,0.1,0.1,0.2c0.1,0.2,0.4-0.1,0.5,0.1c0.1,0.3,0.3,0.1,0.4,0.1c0.3,0,0.5,0.1,0.7,0.2c0.3,0.1,0.6,0.2,0.9,0.3
		c0.1,0,0.4-0.1,0.4,0.2c0,0.1,0.3,0.1,0.3,0.3c0,0.1,0.1,0.1,0.1,0.1c0.2,0,0.3,0,0.2,0.2c0,0.2,0.1,0.3-0.1,0.4
		c0.1,0.1,0.3,0.1,0.4,0.2c0.2,0.1,0.7,1,0.7,1.1c0,0.2-0.1,0.4-0.1,0.6c-0.1,0.2-0.2,0.4-0.1,0.6c0.1,0.2-0.1,0.2-0.2,0.3
		c-0.2,0.2-0.2,0.3,0,0.5c0.1,0.1,0.1,0.2,0,0.3c-0.2,0.5-0.4,0.9-0.3,1.4c0,0.2-0.1,0.4,0,0.6c0.1,0.2-0.1,0.5-0.2,0.5
		c-0.2,0.1-0.2,0.3-0.1,0.3c0.2,0.3,0.1,0.6,0.1,0.9c0,0.1,0,0.1,0,0.2c-0.3,0.2-0.2,0.5,0,0.7c0.1,0.2,0.1,0.3,0,0.5
		c-0.2,0.2,0,0.5-0.2,0.6c0,0,0,0.1,0,0.2c0.1,0.3-0.1,0.6,0,0.7c0.3,0.3,0,0.6,0,0.9c0,0.2-0.2,0.3,0,0.5c0.1,0.1,0,0.1,0,0.2
		c-0.1,0.1-0.1,0.1,0,0.3c0.1,0.2,0.1,0.5-0.1,0.6c-0.2,0.1,0,0.2-0.1,0.4c0,0.2,0.2,0.3,0.1,0.4c-0.1,0.1,0,0.2,0,0.3
		c0,0.1,0.1,0.2,0.1,0.1c0.2-0.2,0.3,0,0.4,0c0.3,0.2,0.7,0.1,1,0.3c0.1,0,0.2,0.1,0.2-0.1c0-0.1,0.1-0.2,0.1-0.4
		c0-0.4-0.1-0.7,0.1-1.1c0-0.1,0-0.2,0-0.2c-0.1-0.1-0.1-0.3,0-0.3c0.1-0.1,0.1-0.3,0.1-0.4c0-0.2,0-0.4,0.2-0.6
		c0.1,0,0.1-0.1,0-0.2c-0.2-0.2-0.1-0.5,0-0.7c0.1-0.2,0.1-0.3,0.1-0.5c0-0.2,0-0.5,0.1-0.6c0.2-0.2,0.3-0.5,0.3-0.7
		c0-0.1,0-0.2,0.1-0.3c0.2-0.1,0.2-0.3,0-0.4c-0.3-0.3-0.3-0.3-0.1-0.6c0,0,0.1-0.1,0.1-0.1c-0.3-0.3,0.1-0.5,0-0.8
		c0-0.1,0-0.3,0.2-0.3c0.1,0,0.1-0.2,0-0.3c-0.1-0.2-0.1-0.3,0-0.5c0.2-0.2,0.1-0.5,0.3-0.6c0,0,0-0.2,0-0.3c0,0-0.1-0.1-0.1-0.1
		c-0.1-0.2,0.3-0.3,0.2-0.5c0-0.2-0.2-0.3,0-0.5c0.2-0.2,0.4-0.5,0.6-0.8c0.1-0.1,0.1-0.2,0-0.3c-0.1-0.1-0.2-0.2-0.2-0.3
		c0.1-0.1,0.1-0.3,0.2-0.3c0.3-0.1,0.2-0.2,0.1-0.3c-0.1-0.1-0.1-0.2,0-0.3c0.1-0.1,0.1-0.1,0.2-0.2c0.1-0.1,0.2-0.2,0.2-0.4
		c0-0.3,0.1-0.6,0.3-0.9c0,0,0,0,0,0c0,0,0,0,0,0c-0.1-0.2-0.4-0.3-0.1-0.6c0,0,0,0,0,0c-0.2,0-0.3-0.1-0.3-0.3
		c0-0.2-0.3-0.1-0.4-0.4c0-0.1-0.3-0.2-0.5-0.2c-0.3-0.1-0.5-0.2-0.6-0.5c-0.1-0.3-0.3-0.5-0.3-0.8c0,0,0-0.1,0-0.1
		c-0.1-0.1-0.1-0.2-0.3-0.2c-0.1,0-0.2-0.1-0.2-0.3c0-0.1-0.1-0.2-0.2-0.2c-0.2-0.1-0.2-0.1-0.2-0.4c0-0.2-0.1-0.3-0.2-0.4
		c-0.2-0.1-0.2-0.2-0.2-0.4c0,0,0.1-0.1,0-0.1c-0.1-0.1-0.3-0.1-0.4-0.2c0.1-0.2-0.1-0.4-0.1-0.6c0-0.2,0-0.2-0.3-0.5
		c-0.1-0.1-0.1-0.1-0.1-0.2c0-0.1,0-0.2,0-0.2c-0.4-0.1-0.4-0.3-0.3-0.7c0.1-0.1-0.2-0.2-0.3-0.3c-0.1,0-0.1,0-0.2-0.1
		c-0.1-0.2,0.2-0.3,0-0.4c-0.1-0.1-0.2-0.2-0.2-0.4c0-0.2,0-0.3-0.1-0.4c0,0,0-0.1,0.1-0.1c0.1-0.2,0.2-0.3,0-0.5
		c-0.1-0.1,0.2-0.1,0-0.2c-0.1-0.1-0.2-0.1-0.2-0.1c-0.1-0.1-0.1-0.3,0-0.4c0.2-0.2,0.1-0.4,0.1-0.6c0-0.5,0-0.8,0.4-1.1
		c0.2-0.2,0.4-0.4,0.4-0.7c0-0.1,0.1-0.2,0.2-0.2c0.3,0,0.5-0.2,0.5-0.5c0-0.1,0.1-0.3,0.3-0.2c0.2,0,0.3-0.1,0.5-0.2
		c0.1-0.1,0.2,0.1,0.4,0c0.2-0.1,0.3-0.2,0.3-0.4c0-0.3,0-0.6,0.1-0.9c0.1-0.2,0.1-0.4,0.2-0.5c0.1-0.1,0.2-0.2,0.1-0.3
		c0-0.1-0.1-0.3,0.1-0.4c-0.1-0.1-0.1-0.2-0.2-0.3c-0.1-0.2-0.2-0.4,0.2-0.5c0-0.4,0.3-0.6,0.7-0.8c0.1,0,0.1-0.1,0.1-0.2
		c0-0.4,0.1-0.8,0.5-1.1c0.1-0.1,0.2-0.3,0.3-0.3c0.2-0.1,0.1-0.6,0.5-0.6c0.3,0,0.5-0.1,0.8-0.2c0.1,0,0.2,0,0.3,0
		c0.2,0.1,0.3,0.3,0.6,0.1c0.3,0.2,0.7,0.2,1,0.3c0.2,0,0.5,0.2,0.6,0.3c0.1,0.1,0.2,0.4,0.2,0.6c0,0.1,0,0.2,0,0.2
		c0.5,0.3,0.3,0.9,0.7,1.2c0.1,0,0,0.1,0,0.2c0,0.3,0.1,0.4,0.3,0.6c0,0,0.1,0.1,0.1,0.1c-0.3,0.4,0.2,0.4,0.3,0.5
		c0.1,0.1,0,0.3,0.1,0.4c0.2,0,0.1-0.4,0.4-0.3c0.2,0,0.2-0.3,0.4-0.2c0.1,0,0.1-0.1,0.3,0c0.2,0.1,0.5-0.1,0.8-0.1
		c0.3,0,0.5-0.1,0.5-0.3c0.1-0.3,0.3-0.3,0.5-0.2c0.2,0.1,0.3,0.2,0.3-0.1c0-0.1,0.1-0.2,0.3-0.1c0,0.1,0.2,0,0.3-0.1
		c0.2-0.2,0.5-0.2,0.6-0.1c0.2,0.1,0.4,0,0.5,0c0.1-0.1,0.3-0.1,0.4-0.1c0.1,0,0.2-0.2,0.3,0c0.2-0.2,0.6-0.1,0.7-0.4
		c0-0.1,0.1-0.2,0.2-0.1c0.3,0,0.5,0,0.6-0.3c0.1-0.1,0.2-0.2,0.3,0c0.1,0.1,0.3,0.1,0.4,0c0.1-0.2,0.3-0.2,0.5-0.2
		c0.2,0,0.4-0.2,0.5-0.1c0.2,0.2,0.3,0,0.5,0c0.2,0,0.5,0,0.6,0.2c0.1,0.2,0.4,0.1,0.6,0.3c0.1,0.2,0.4,0.2,0.6,0.2
		c0.4,0,0.5,0.2,0.6,0.6c0,0.1,0.1,0.2,0.1,0.3c0.1,0.2,0.2,0.2,0.3,0.4c0.1,0.1-0.1,0.2-0.1,0.4c0,0.2,0.1,0.3,0.2,0.3
		c0.2,0,0.2,0.2,0.2,0.3c-0.1,0.1,0,0.2,0,0.3c0,0.2,0.3,0.4,0.1,0.6c-0.2,0.2,0,0.5-0.1,0.7c-0.1,0.2,0,0.5-0.3,0.7
		c0,0-0.1,0.2,0,0.3c0.2,0.2,0,0.5,0.2,0.6c-0.1,0.1-0.2,0.3,0,0.4c-0.2,0.1,0,0.3-0.1,0.5c-0.1,0.1-0.1,0.2-0.1,0.3
		c0,0.2,0.1,0.4,0,0.5c-0.1,0.2,0,0.4-0.2,0.5c0.1,0.5-0.3,0.8-0.3,1.3c0,0.2-0.2,0.4-0.3,0.6c0,0.1-0.1,0.2,0,0.3
		c0.2,0.2,0.1,0.4-0.1,0.5c-0.2,0.2-0.2,0.5-0.2,0.8c0,0.2,0,0.4-0.2,0.5c-0.2,0.2-0.2,0.4-0.1,0.6c0.1,0.1,0.1,0.2,0,0.3
		c-0.2,0.2-0.3,0.4-0.3,0.6c0,0.2-0.1,0.4,0.1,0.5c-0.1,0.1-0.3,0.2-0.2,0.4c0.1,0.2-0.2,0.3-0.2,0.4c0,0.2-0.4,0.3-0.1,0.6
		c0,0,0,0.1,0,0.1c-0.3,0.2-0.2,0.6-0.3,0.8c0,0.1,0,0.1-0.1,0.2c-0.1,0.2,0.3,0.2,0.1,0.4c-0.1,0.1-0.2,0.2-0.3,0.3
		c-0.2,0.1-0.1,0.3-0.1,0.4c0,0.2,0,0.6-0.1,0.7c-0.2,0.2-0.1,0.3-0.2,0.7c-0.1,0.4-0.1,0.8,0,1.3c0.1,0.2-0.1,0.4-0.2,0.6
		c-0.3,0-0.2,0.2-0.2,0.3c0.1,0.2,0.1,0.4-0.1,0.5c-0.2,0.2-0.1,0.5-0.2,0.7c0,0.2-0.2,0.4,0,0.6c0.1,0.1,0,0.2-0.1,0.2
		c-0.3,0.2-0.3,0.5-0.3,0.8c0,0.4,0,0.5-0.2,0.7c-0.1,0.1-0.3,0.2-0.1,0.4c0.1,0.1-0.1,0.3-0.1,0.4c-0.1,0.2-0.1,0.4-0.1,0.6
		c0,0.2,0,0.4-0.2,0.6c-0.1,0.2-0.1,0.4-0.1,0.5c0.2,0.3,0,0.6,0,0.9c0,0.1-0.1,0.2,0,0.4c0.1,0.1,0.1,0.3,0.1,0.5
		c0,0.1,0.1,0.2,0,0.3c-0.2,0.1-0.1,0.4-0.2,0.5c-0.1,0.1,0,0.1,0,0.2c0.2,0.3,0.3,0.6,0.1,0.9c0,0,0,0.1,0,0.2
		c0.1,0.2,0.1,0.3,0,0.5c-0.1,0.1-0.1,0.3,0,0.4c0.3,0.2,0.1,0.4,0,0.5c-0.1,0.1-0.1,0.2,0,0.3c0.1,0.1-0.1,0.3,0.1,0.4
		c0.1,0.1-0.2,0.3,0,0.4c0,0,0,0.1,0,0.1c-0.3,0.2-0.1,0.5,0,0.6c0.1,0.2,0.1,0.3,0,0.4c-0.1,0.1-0.1,0.1-0.1,0.2
		c0,0.1,0.2,0.1,0.2,0.2c-0.1,0.1-0.1,0.2-0.1,0.3c0.2,0.2,0.1,0.4,0,0.6c-0.1,0.2-0.1,0.3,0,0.5c0.1,0.3,0.2,0.6,0.3,1
		c0.1,0.3,0,0.6-0.1,0.9c-0.2,0.4-0.1,0.8,0.1,1.2c0,0.1,0.1,0.1,0,0.2c-0.3,0.4-0.2,0.5,0,0.9c0.1,0.1,0.2,0.2,0.1,0.3
		c0,0.1,0,0.3,0.1,0.4c0.1,0.2,0,0.4-0.1,0.5c-0.1,0.2-0.1,0.3,0,0.4c0.2,0.1,0.2,0.3,0.1,0.5c-0.1,0.3,0.1,0.5,0.1,0.7
		c0.1,0.2,0.1,0.4,0.1,0.6c0,0.2-0.2,0.5,0.1,0.6c0,0.2,0.1,0.4-0.1,0.6c-0.1,0.1-0.1,0.2,0,0.3c0.1,0.3,0.2,0.5,0,0.8
		c0,0,0,0,0,0.1c0,0.6,0,0.6-0.2,1c-0.1,0.1-0.1,0.2,0,0.3c0.1,0.1,0.1,0.1,0,0.2c-0.1,0.1-0.1,0.1-0.1,0.2c0.1,0.5-0.2,0.8-0.6,1
		c-0.2,0.2-0.4,0.3-0.6,0.6c-0.1,0.2-0.1,0.4-0.4,0.2c0,0-0.2,0.1-0.2,0.2c0,0.3-0.1,0.3-0.3,0.3c-0.8,0-0.7,0-1.1,0.3
		c-0.1,0.1-0.2,0-0.2,0c0,0-0.1-0.1-0.1-0.1c-0.1-0.3-0.3-0.5-0.7-0.5c-0.1,0-0.1,0-0.1-0.1c0.1-0.3-0.2-0.3-0.3-0.3
		c0,0-0.1,0-0.1-0.1c-0.1-0.3-0.2-0.6-0.4-0.8c-0.1,0,0-0.1,0.1-0.2c0.1-0.1,0.2-0.2,0.1-0.4c-0.1-0.1,0.1-0.3,0-0.4
		c-0.1-0.2,0-0.3-0.1-0.5c0-0.2,0.1-0.3,0.1-0.4c0-0.1,0.1-0.1,0-0.2c-0.2-0.1-0.4-0.3-0.1-0.6c-0.2-0.2-0.1-0.5-0.1-0.7
		c0,0,0-0.1-0.1-0.1c-0.1-0.1-0.2-0.2-0.1-0.4c0,0-0.1-0.2-0.1-0.3c-0.2-0.1,0.1-0.3,0-0.4c-0.1-0.2,0-0.2,0.1-0.3
		c0.1-0.1,0.1-0.2,0-0.4c-0.1-0.3-0.3-0.7-0.1-1c0.1-0.1-0.1-0.2-0.1-0.4c0-0.4,0.1-0.9-0.1-1.3c0-0.1,0-0.2,0.1-0.3
		c0.2-0.2,0.2-0.3,0-0.5c-0.1-0.1-0.1-0.2-0.1-0.4c0.1-0.5,0.1-0.5,0-1.1c0-0.1,0-0.1,0-0.2c0.2-0.2,0.1-0.4-0.1-0.5
		c-0.2-0.1-0.2-0.3,0-0.4c0.1-0.1,0.1-0.2,0.1-0.3c-0.1-0.3-0.3-0.5-0.1-0.8c0,0,0-0.1,0-0.2c-0.2-0.2-0.2-0.3,0-0.5
		c0.2-0.3,0.3-0.7,0-1.1c-0.3-0.4-0.2-0.8-0.1-1.2c0.1-0.2,0-0.3-0.1-0.4c-0.3-0.1,0-0.4-0.2-0.6c-0.1-0.1,0.1-0.2,0.1-0.2
		c0.3-0.3,0.3-0.5,0.1-0.8c-0.3-0.3-0.2-0.5-0.1-0.8c0.1-0.2,0.1-0.3-0.1-0.4c-0.3-0.2-0.5-0.3-0.8-0.3c-0.3,0-0.6-0.2-0.8-0.1
		c-0.4,0.2-0.6,0-0.7-0.2c-0.2-0.3-0.5-0.4-0.7-0.7c-0.1-0.1-0.2-0.1-0.3-0.1c-0.2,0-0.3,0.1-0.2,0.2c0.3,0.3-0.1,0.7,0,1
		c0,0.1-0.1,0.1-0.1,0.2c-0.1,0.1-0.2,0.2,0,0.3c0.1,0.2-0.1,0.3-0.1,0.5c0,0.1-0.1,0.2-0.1,0.3c0.1,0.2,0.1,0.4,0,0.6
		c-0.1,0.1,0.1,0.3,0.2,0.5c0,0,0.1,0.1,0.1,0.2c-0.1,0.2-0.2,0.3-0.2,0.5c0,0.1-0.4,0-0.2,0.3c0.1,0.2-0.2,0.2,0,0.3
		c-0.1,0.2,0.3,0.4,0,0.6c0.1,0.1,0.2,0.3,0.3,0.3c0.1,0,0.2,0.1,0.2,0.2c0.1,0.1,0,0.4,0.3,0.4c0.2,0,0.1,0.4,0.3,0.3
		c0,0.2,0.3,0.3,0.1,0.5c-0.1,0.2,0,0.4,0.1,0.4c0.2,0.1,0.3,0.2,0.5,0.1c0,0,0.2,0,0.2,0c-0.1,0.4,0.4,0.3,0.5,0.6c0,0,0,0.1,0,0.2
		c-0.4,0.3-0.1,0.6,0,1c0,0.1,0,0.1,0,0.2c0.1,0.1,0.1,0.2,0,0.3c-0.3,0.5-0.3,0.6-0.3,0.8c0,0.1,0,0.2,0.1,0.3
		c0.1,0.1,0.2,0.3,0,0.4c-0.1,0.1-0.1,0.3,0,0.4c0.1,0.1,0.1,0.2,0,0.3c-0.1,0.1-0.2,0.2,0,0.4c0,0.1,0.2,0.2,0,0.4
		c0.2,0.2,0,0.2-0.1,0.3c-0.1,0.1,0,0.1,0,0.2c0,0.1,0,0.3,0,0.4c0,0.1,0.2,0.2,0,0.4c-0.1,0.1,0.1,0.2,0.1,0.4c0,0.1,0.1,0.3,0,0.4
		c-0.1,0.2-0.2,0.4,0,0.6c0,0,0,0.2,0,0.2c-0.1,0.2-0.1,0.4-0.2,0.6c-0.1,0.1,0.1,0.4,0.1,0.6c0,0.3-0.1,0.6-0.4,0.8
		c0.1,0.1,0.3,0.2,0.2,0.4c0,0.2,0,0.3-0.1,0.5c-0.2,0.3-0.4,0.6-0.3,1c0,0.2-0.2,0.3-0.1,0.5c0.1,0.1,0,0.3-0.1,0.4
		c0,0,0,0.1,0,0.1c0.3,0.6-0.1,1.2-0.2,1.8c0,0.1-0.1,0.4-0.3,0.4c-0.1,0-0.1,0-0.1,0.1c0.1,0.3-0.1,0.3-0.3,0.3
		c-0.2,0-0.3,0.1-0.4,0.2c-0.2,0-0.3,0.2-0.4-0.1c0-0.2-0.4-0.1-0.7,0.1c-0.1,0.1-0.2,0.2-0.3-0.1c0-0.1-0.2-0.3-0.4-0.1
		c-0.1,0.1-0.4-0.1-0.5,0.1c-0.1-0.1-0.3-0.2-0.4,0c-0.2-0.2-0.4-0.2-0.7-0.3c0-0.2,0-0.4,0-0.6c0-0.1,0-0.2,0-0.2
		c-0.2-0.1-0.1-0.3-0.2-0.5c0-0.2-0.1-0.4,0.1-0.5c0.1-0.1-0.1-0.2-0.1-0.3c0-0.3,0-0.5,0-0.8c0-0.2-0.1-0.5,0.1-0.7
		c0.1-0.1,0-0.3,0-0.5c0-0.2,0.1-0.4,0-0.6c-0.2,0.2-0.4-0.1-0.6,0c-0.1,0-0.1-0.1-0.1-0.1c-0.1-0.1-0.2-0.1-0.4-0.1
		c-0.2,0-0.1,0.2-0.2,0.3c-0.1,0.1-0.2,0.2-0.4,0.2c-0.2-0.1-0.4-0.1-0.7-0.1c-0.1,0-0.1,0-0.1-0.1c-0.2-0.4-0.4-0.8-0.8-1.1
		c-0.1-0.1,0-0.1,0-0.1c0.1-0.4,0-0.8-0.2-1.1c-0.1-0.1-0.1-0.3-0.1-0.4c0.1-0.1,0-0.1,0-0.2c0-0.1,0-0.2,0-0.2
		c0.4-0.3,0.2-0.6,0.2-1c-0.3-0.2-0.5,0.1-0.8,0.1c-0.2,0-0.4,0-0.5,0.2c0,0-0.1,0.1-0.1,0.1c-0.4-0.1-0.7,0.3-1,0.3c0,0,0,0,0,0
		c-0.2,0-0.4,0.1-0.6-0.1c-0.2,0.2-0.3,0.3-0.5,0.5c-0.1,0.1-0.2,0.1-0.3,0c-0.2-0.2-0.3,0-0.4,0.1c0,0,0,0.2-0.1,0.2
		c-0.3-0.1-0.6,0.2-0.9,0.2c-0.1,0-0.3,0-0.4,0.2c-0.1,0.1-0.2,0.1-0.3,0.1c-0.6,0-0.6,0-0.9,0.3c-0.1,0.1-0.3,0.1-0.4,0.1
		c-0.1,0-0.3,0-0.3,0.1c-0.1,0.2-0.2,0.3-0.4,0.2c0,0-0.1,0-0.1,0c0,0.4-0.3,0.2-0.4,0.2c-0.2-0.1-0.2-0.1-0.2,0.1
		c0,0.2-0.1,0.3-0.3,0.3c-0.4,0-0.8,0.1-1,0.3c-0.2,0.3-0.5,0.4-0.7,0.2c-0.3-0.2-0.5,0-0.7,0.1c-0.1,0.1-0.2,0.2-0.3,0.3
		c-0.1,0.1-0.2-0.2-0.4,0c-0.1,0.1-0.3,0.1-0.4,0.3c-0.1,0.1-0.2,0.2-0.3,0.4c-0.2-0.1-0.4-0.1-0.5-0.3c-0.1,0.3-0.3,0.5-0.7,0.5
		c-0.1,0-0.2,0-0.2,0.2c0,0.1-0.1,0.2-0.3,0.2c-0.1,0-0.2,0.1-0.3,0.2c-0.1,0.1,0.1,0.2,0.1,0.2c0,0.3,0.2,0.7-0.2,0.9
		c-0.1,0.1,0,0.2,0.1,0.3c0.1,0.1,0.2,0.2,0,0.3c-0.2,0.1-0.1,0.4-0.3,0.6c-0.1,0.1,0,0.2,0.1,0.3c0.2,0.1,0.1,0.2,0,0.4
		c-0.1,0.1-0.2,0.3-0.3,0.4c-0.2,0.2,0.1,0.3,0,0.5c-0.1,0.2-0.4,0.1-0.4,0.3c0,0.2-0.1,0.2-0.2,0.2c-0.1,0-0.2,0-0.3,0.1
		c-0.1,0.1-0.2,0.1-0.2,0.1c-0.3,0.3-0.7,0-1.1,0.1c0,0-0.1,0-0.1-0.1c-0.3-0.2-0.4-0.2-0.7,0c-0.1,0.1-0.1,0.1-0.2,0.2
		c-0.1-0.2-0.3-0.3-0.5-0.3c-0.2,0-0.4-0.3-0.6,0c-0.1-0.1-0.2-0.1-0.2-0.2c0-0.1,0-0.1-0.1-0.2c-0.2,0-0.3-0.1-0.4-0.2
		c-0.2-0.1-0.3-0.4-0.5-0.5c-0.1-0.1-0.2-0.2-0.2-0.4c0-0.1-0.1-0.3-0.1-0.4c0,0,0-0.2-0.1-0.1c-0.2,0.1-0.3,0-0.5,0
		c-0.2-0.1-0.5-0.1-0.7,0.2c-0.1,0.1-0.2,0.2-0.3,0.3c-0.1,0.1-0.1,0.1-0.2,0c-0.2-0.1-0.3-0.1-0.5,0.1c-0.1,0.2-0.3,0.3-0.5,0.2
		c-0.1,0-0.1,0-0.1,0.1c0,0.3-0.2,0.4-0.2,0.6c-0.1,0.2,0,0.5,0.2,0.6c0.1,0.2,0.3,0.3,0.1,0.5c-0.1,0.1,0,0.2,0,0.3
		c0,0.2,0.4,0.3,0.1,0.6c0.1,0.2,0.3,0.3,0.5,0.5c-0.2,0.1-0.2,0.4-0.4,0.6c-0.1,0.1,0,0.1,0.1,0.1c0.2,0.1,0.1,0.2,0,0.3
		c-0.1,0.2-0.2,0.3-0.3,0.6c0,0.1-0.1,0.1-0.1,0.3c0.1,0.3-0.1,0.6-0.1,0.8c0,0.2-0.1,0.3-0.4,0.2c-0.1,0-0.2,0-0.3,0
		c-0.2,0-0.3,0.3-0.4,0.2c-0.1-0.1-0.3-0.1-0.4-0.1c-0.1,0-0.1,0-0.1,0.1c-0.1,0.3-0.3,0.4-0.6,0.3c-0.2,0-0.4,0.2-0.5-0.1
		c0-0.1-0.1-0.1-0.2,0c-0.2,0.2-0.3,0-0.4-0.1c-0.2-0.2-0.5-0.3-0.7-0.5c-0.1-0.1-0.1,0-0.2,0c-0.3,0.1-0.4,0-0.4-0.2
		c0-0.2-0.2-0.4-0.3-0.5c-0.3-0.1-0.2-0.2-0.1-0.3c0.1-0.1,0.1-0.3,0-0.4c-0.4-0.2-0.1-0.6-0.3-0.8c-0.1-0.1,0.1-0.2,0.2-0.3
		c0.1-0.1,0.1-0.1-0.1-0.3c-0.2-0.1-0.2-0.4-0.4-0.6c0,0,0,0,0-0.1c0.1-0.1,0.2-0.2,0-0.3c-0.1,0-0.3-0.1-0.4,0.1
		c-0.1,0.1-0.2,0.3-0.2,0.2c-0.3-0.2-0.4,0.1-0.5,0.1c-0.2,0-0.4,0.1-0.6,0.1c-0.1,0-0.3,0.1-0.4,0.1c-0.1,0.1-0.2,0.1-0.4,0
		c-0.2-0.1-0.4,0.2-0.7,0.1c-0.3,0.3-0.8,0.3-0.9,0.8c0,0.1-0.2,0.2-0.3,0.2c-0.1,0-0.1,0-0.2,0c-0.1,0.1-0.3,0.2-0.4,0.3
		c-0.1-0.1-0.3-0.1-0.5-0.1c-0.1,0-0.2,0-0.3,0.1c-0.1,0.1-0.1,0.1-0.2,0.1c-0.4-0.1-0.6,0.2-0.7,0.5c-0.1,0.1-0.1,0.2-0.2,0.3
		c-0.1,0.1-0.2,0.2,0,0.4c0,0,0,0.2,0,0.2c-0.3,0.2,0.1,0.3,0,0.5c-0.1,0.2-0.3,0.2-0.4,0.3c0,0.1,0,0.1-0.1,0.2
		c-0.1,0.6-0.1,0.8-0.3,1.1c-0.1,0.1-0.2,0.2,0,0.4c0,0.1,0.2,0.2,0.1,0.3c0,0.1,0.1,0.2-0.1,0.2c-0.2,0-0.3,0.2-0.3,0.4
		c0,0.2,0,0.4-0.2,0.5c-0.2,0.1-0.1,0.5-0.4,0.6c0.2,0.3,0,0.4-0.1,0.6c0.3,0.2-0.1,0.5,0,0.7c0.1,0.2,0,0.3-0.2,0.3
		c-0.1,0-0.1,0.2-0.2,0.2c-0.2,0.1-0.2,0.4-0.5,0.3c-0.1,0-0.2,0.1-0.2,0.1c-0.2,0.1-0.3,0.4-0.7,0.4c-0.1,0-0.2,0.1-0.3,0.2
		c0,0.1,0,0.2,0,0.3c0.1,0.3-0.2,0.3-0.4,0.5c-0.2,0.2-0.2,0.2-0.5,0.1c-0.3,0-0.6-0.1-0.8,0.2c-0.1,0.1-0.2,0-0.3-0.1
		c-0.1-0.1-0.2-0.2-0.3,0.1c0,0.2-0.2,0.2-0.3,0.1c-0.3,0.2-0.5,0-0.7-0.1c-0.3-0.1-0.6-0.3-0.9-0.3c-0.3-0.1-0.4-0.2-0.5-0.5
		c-0.1-0.2-0.1-0.5-0.5-0.5c-0.2,0-0.2-0.2-0.2-0.3c-0.1-0.1,0-0.3-0.1-0.3c-0.4-0.1-0.4-0.4-0.4-0.7c0-0.2-0.3-0.3,0-0.5
		c-0.1-0.1-0.1-0.3-0.2-0.4c-0.1-0.3-0.2-0.5-0.1-1c0-0.2-0.2-0.4-0.4-0.3c-0.2,0.1-0.3,0.1-0.5,0.1c-0.1,0-0.4,0.4-0.3,0.5
		c0.2,0.3,0.1,0.6,0.3,0.9c0.2,0.2,0.2,0.3,0,0.5c-0.1,0.1-0.2,0.3,0,0.4c0.1,0,0.1,0.1,0,0.2c-0.2,0.1,0.1,0.3,0,0.4
		c-0.4,0.4-0.3,0.9-0.2,1.4c0.1,0.4,0.1,0.7,0,1c0,0.2-0.1,0.3-0.1,0.4c0,0.2,0,0.4,0,0.5c0,0.2,0.1,0.3,0,0.5
		c-0.2,0.2,0.2,0.3,0,0.5c-0.1,0.1,0,0.2,0,0.3c-0.1,0.2-0.1,0.3,0.1,0.4c0.1,0.1,0.1,0.2,0,0.3c-0.2,0.4-0.1,0.4,0,0.8
		c0,0,0.1,0.1,0.1,0.1c0,0.3-0.3,0.5-0.2,0.7c0.1,0.3,0.2,0.4-0.1,0.7c-0.1,0.1-0.3,0.3-0.2,0.5c0.1,0.3-0.2,0.3-0.3,0.3
		c-0.1,0.1-0.4,0-0.5,0c-0.2,0-0.3,0.2-0.5,0c-0.1-0.1-0.3,0.2-0.4,0c-0.1-0.1-0.2,0.1-0.2,0.1c0,0.2-0.2,0.2-0.3,0.3
		c-0.1,0.1-0.1,0.1-0.2,0c-0.1-0.2-0.3-0.2-0.5-0.1c-0.2,0.1-0.4-0.1-0.5-0.2c-0.1-0.2-0.2-0.2-0.3-0.4c-0.3,0.1-0.2,0.3-0.3,0.5
		c-0.2-0.3-0.5-0.5-0.9-0.4c0-0.8-0.3-1.4-0.2-2.1c-0.2-0.3-0.2-0.7,0-1c-0.3-0.4-0.1-0.8-0.1-1.3c0-0.2,0-0.3,0.1-0.5
		c0.2-0.2,0.1-0.5,0.1-0.7c0-0.2,0.2-0.3-0.1-0.5c-0.1,0,0-0.1,0-0.1c0.1-0.1,0.1-0.3,0-0.3c-0.1-0.2,0-0.3,0.1-0.5
		c0.1-0.1,0.2-0.3-0.1-0.4c-0.1-0.2-0.1-0.4,0-0.6c0.2-0.3,0.1-0.6,0-0.8c-0.1-0.1-0.1-0.3,0-0.4c0.4-0.3,0.1-0.6,0-0.9
		c0-0.2-0.3-0.3-0.1-0.5c0.1-0.1,0-0.1-0.1-0.1c-0.1-0.2-0.3-0.3-0.5-0.5c-0.1,0.1-0.3,0.1-0.4,0.2c0,0-0.1,0.1-0.1,0.1
		c-0.1-0.2-0.4-0.1-0.6-0.4c0-0.1-0.2-0.2-0.3-0.2c-0.1,0-0.1,0-0.2,0c-0.2,0-0.4-0.3-0.5-0.1c-0.1,0.2-0.1,0.4-0.2,0.6
		c0,0.6-0.2,1.1-0.4,1.6c0,0.1,0,0.1,0,0.2c-0.3,0.2-0.2,0.5-0.2,0.7c0.1,0.3,0.2,0.5-0.2,0.5c-0.1,0.2-0.1,0.3-0.2,0.5
		c0,0.2,0,0.3,0,0.5c0,0.1,0,0.2-0.2,0.2c-0.1,0-0.1,0.1-0.1,0.1c0,0.4-0.1,0.7-0.5,0.9c-0.2,0.1-0.3,0.4-0.5,0.6c0,0,0,0.1,0,0.1
		c0,0.2,0.2,0.3,0.1,0.5c-0.1,0.2-0.1,0.3,0,0.5c0.1,0.2,0,0.4-0.2,0.5c-0.3,0.2-0.4,0.6-0.7,0.8c0,0.2-0.1,0.2-0.2,0.1
		c-0.1-0.1-0.1,0-0.2,0.1c-0.1,0.1-0.2,0.2-0.3,0.3c-0.1,0.1-0.2,0.2-0.4,0.1c-0.1-0.1-0.4-0.1-0.5-0.2c-0.1-0.1-0.2-0.1-0.3,0
		c-0.1,0.1-0.2,0.3-0.4,0.1c-0.1-0.1-0.1,0-0.2,0c-0.1,0.1-0.2,0.1-0.2,0c-0.2-0.2-0.5-0.2-0.8-0.2c-0.2,0-0.3,0-0.3-0.2
		c-0.1-0.2-0.5-0.2-0.5-0.5c-0.3,0-0.5-0.1-0.7-0.3c-0.1,0.1-0.3,0-0.4,0C85.9,86.3,86,86,85.8,86c-0.1,0-0.1-0.2-0.1-0.2
		c0-0.2-0.2-0.3-0.1-0.4c0-0.1,0-0.3,0-0.4c0,0,0-0.1,0-0.1c-0.4-0.4,0-0.8-0.1-1.2c0.3-0.3-0.1-0.6,0-0.9c-0.2-0.1-0.1-0.3-0.1-0.4
		c-0.1-0.2-0.1-0.3,0-0.5c0.1-0.2,0.3-0.5,0-0.7c0-0.3,0-0.6-0.1-0.9c-0.1-0.1,0.2-0.2,0.1-0.4c0-0.1-0.2-0.2-0.1-0.4
		c0-0.1,0-0.2,0.1-0.3c0.2-0.4,0.2-0.4,0.1-0.8c-0.1-0.2-0.2-0.3,0-0.5c0.1-0.1,0.3-0.4,0-0.6c0.2-0.2,0.1-0.4,0-0.6
		c-0.1-0.1-0.1-0.2,0-0.3c0.1-0.3,0.2-0.6,0.2-1c0.2-0.1,0-0.2-0.1-0.2c-0.2-0.2-0.4-0.3-0.1-0.6c-0.1-0.3,0.3-0.6,0-0.9
		c0,0,0-0.1,0-0.2c0.3-0.3,0.2-0.7,0.1-1.1c-0.1-0.1-0.2-0.3-0.1-0.4c0.1-0.2,0.1-0.5,0.3-0.5c0.2-0.1,0.1-0.1,0.1-0.2
		c-0.1-0.1,0.1-0.5,0.1-0.5c0.3,0.1,0.3-0.2,0.4-0.4c0.1-0.1,0.1-0.1,0.2-0.1c0.1,0,0.2,0,0.1-0.1c-0.1-0.3,0.3-0.2,0.3-0.3
		c0.4,0,0.6-0.3,0.9-0.5c0.1-0.1,0.2-0.3,0.5-0.2c0.2,0,0.3,0,0.4-0.2c0.1-0.1,0.3-0.2,0.4-0.2c0.1,0,0.2-0.1,0.2-0.2
		c0.1-0.1,0.3-0.2,0.5-0.2c0.4,0,0.7,0.1,1.1-0.1c0.1,0,0.1,0.1,0.2,0.1c0.1,0,0.3,0.2,0.4,0c0,0,0.2,0,0.2,0c0.2,0.3,0.4,0.2,0.6,0
		c0.1-0.1,0.2-0.2,0.3,0c0,0,0.1,0.1,0.1,0.1c0.2,0.1,0.4,0,0.6-0.2c0.1,0.2,0.3,0.3,0.5,0.2c0.1,0,0.1,0,0.2-0.1
		c0.2-0.2,0.4-0.2,0.6,0c0.3,0.1,0.6,0.2,0.9,0.1c0.3,0.2,0.7-0.2,1,0.1c0.4-0.1,0.8,0.2,1-0.2c0.3-0.1,0.6-0.2,0.9-0.4
		c0.1,0,0.1,0,0.2-0.1c0.6-0.1,0.7-0.1,1.1-0.6c0.2-0.2,0.4-0.1,0.5-0.3c0.1-0.2,0-0.4,0.1-0.6l0.2-0.7c0-0.1,0-0.2,0-0.2
		c0-0.2,0.1-0.4,0.4-0.4c0.1,0,0.2-0.2,0.3,0c0.1,0.1,0.2-0.2,0.3-0.2c0,0,0,0,0.1,0c0.1,0.1,0.2,0,0.3,0c0.2,0.1,0.3,0.1,0.4-0.1
		c0.2-0.3,0.7-0.4,1.1-0.4c0.2,0.2,0.4,0.1,0.6,0c0.1-0.1,0.3,0,0.4-0.1c0.1-0.1,0.1,0.1,0.2,0.1c0.1,0,0.2,0.2,0.2,0.1
		c0.1-0.2,0.3,0,0.5-0.1c0.2-0.1,0.3,0,0.5,0c0.2,0,0.4,0.1,0.6-0.1c0.1-0.1,0.1,0,0.1,0.1c0.2,0.1,0.4,0.3,0.6,0
		c0-0.1,0.1-0.1,0.2,0c0.4,0,0.5,0,0.7-0.1c0.1,0,0.2,0,0.1-0.2c-0.1-0.2,0-0.6,0.2-0.7c0.3-0.2,0.3-0.5,0.6-0.7
		c0.1-0.1,0-0.1-0.1-0.1c0-0.1,0-0.2,0-0.2c0.2,0,0.2-0.1,0.2-0.2c0-0.3,0.1-0.5,0.4-0.7c0.4-0.2,0.5-0.7,0.3-1.2
		c0-0.1-0.1-0.2,0-0.3c0.1-0.1,0.3-0.3,0.2-0.5c0-0.2,0.3-0.3,0-0.5c0.1-0.2,0.2-0.3,0.3-0.5c0.1-0.1,0.2-0.2,0-0.3
		c-0.1-0.1,0-0.1,0-0.2c0,0,0.1-0.1,0.1-0.1c0.1-0.1,0-0.3,0.2-0.4c0-0.1-0.1-0.2-0.1-0.2c-0.1-0.2-0.1-0.4-0.2-0.6
		c-0.1-0.1-0.1-0.1,0-0.2c0.2-0.2,0.4-0.3,0.2-0.6c-0.1-0.1,0-0.4,0-0.6c0-0.1,0.1-0.2,0.2-0.2c0.2,0,0.2-0.2,0.2-0.3
		c0-0.2-0.4-0.4-0.1-0.6c0,0-0.1-0.1-0.1-0.1c-0.1-0.1-0.2-0.2-0.1-0.3c0.3-0.4-0.1-0.7,0-1c-0.2-0.2,0-0.5-0.3-0.7
		c-0.1-0.1-0.1-0.3,0-0.4c0.1-0.1,0.1-0.2,0-0.3c-0.2-0.2-0.2-0.4-0.1-0.6c0.1-0.3,0.1-0.5-0.1-0.7c-0.1-0.1-0.2-0.1-0.2-0.3
		c0-0.9,0-0.9-0.4-1.6c-0.1-0.2-0.1-0.3,0-0.4c0.2-0.2,0.1-0.3,0-0.4c0-0.1-0.1-0.2-0.2-0.3c-0.1-0.1-0.1-0.2,0-0.3
		c0-0.1,0-0.2,0-0.2c0-0.1-0.1-0.2-0.2-0.3c-0.1-0.2,0.1-0.1,0.2-0.1c0.1-0.1,0-0.2,0-0.3c0-0.1,0.1-0.1,0.2-0.1
		c0.1,0.1,0.2,0.2,0.3,0c0.2-0.3,0.5-0.4,0.8-0.6c0.3,0.1,0.3-0.2,0.5-0.2c0.2,0,0.4,0.1,0.5-0.1c0.3,0.1,0.4,0,0.5-0.3
		c0.1-0.1,0.4-0.1,0.6,0c0,0,0.1,0.1,0.1,0.1c0,0,0.1,0.1,0.1,0c0,0,0-0.1,0-0.2c0,0-0.1-0.1-0.1-0.1c0.1-0.1,0.3,0,0.4-0.1
		c0.2,0,0.3,0.1,0.3,0.3c0.1,0.5,0.4,1,1,1.2c0.1,0,0.1,0.1,0.1,0.2c0,0.1,0,0.2,0.1,0.3c0.1,0.1,0,0.2,0,0.3c0,0.3-0.2,0.7,0.2,0.9
		c-0.1,0.3,0.2,0.4,0.3,0.6c0,0.1,0.2,0.2,0,0.3c-0.2,0.3-0.2,0.4,0,0.7c0.1,0.2,0.2,0.4,0,0.6c-0.1,0.1,0,0.3,0.1,0.4
		c0.3,0.2,0.4,0.5,0.4,0.9c0,0.3,0.2,0.5,0.1,0.8c0,0.1,0.2,0.2,0,0.3c-0.1,0.1,0.2,0.2,0,0.3c-0.2,0.1,0.2,0.2,0,0.3
		c0,0-0.1,0.1-0.1,0.1c0.2,0.3,0,0.7,0.1,1.1c0.1,0.2,0.2,0.3,0,0.5c-0.1,0.1,0,0.1,0.1,0.1c0.1,0.3,0.2,0.6,0,1
		c-0.1,0.2-0.1,0.4,0.1,0.5c0.1,0.1,0.1,0.2,0,0.3c-0.2,0.1-0.3,0.3-0.4,0.6c0.1,0.1,0.2,0.1,0.3,0.2c0,0,0.1,0.1,0.1,0.1
		c-0.2,0.2,0,0.4,0,0.5c-0.1,0.3,0,0.6-0.2,0.9c-0.1,0.2-0.2,0.5,0,0.7c0.2,0.1,0.1,0.3,0,0.4c-0.2,0.2-0.3,0.4-0.3,0.6
		c0,0.1-0.1,0.1-0.1,0.2c-0.2,0.5-0.2,0.5,0,1c0,0.1,0,0.2,0,0.3c0,0.1-0.2,0.1-0.2,0.1c-0.1,0.1-0.4,0.1-0.1,0.3
		c0.1,0.1,0,0.1,0,0.2c-0.1,0.2-0.3,0.4-0.3,0.7c0,0.1-0.1,0.1-0.1,0.3c0.1,0.2-0.1,0.3-0.2,0.4c-0.1,0.1-0.2,0.3-0.1,0.4
		c0.2,0.2,0,0.3-0.1,0.4c-0.1,0.1-0.1,0.1-0.2,0.2c-0.1,0-0.1,0.1,0,0.2c0.1,0.1,0.3,0.4,0.5,0.1c0.3,0.1,0.5,0,0.7-0.1
		c0.2,0.2,0.4,0,0.5-0.1c0,0,0.1-0.1,0.1-0.1c0.1-0.2,0.4-0.3,0.5-0.2c0.2,0.1,0.2,0,0.3,0c0.1,0,0.2,0.1,0.3,0.1
		c0.2,0,0.3,0,0.3-0.2c0-0.1,0.1-0.2,0.2-0.4c0.1-0.1,0.3-0.2,0.4-0.1c0.3,0.3,0.6-0.1,0.9,0.2c0,0.1,0.1,0,0.2-0.1
		c0.2-0.2,0.4-0.5,0.7-0.6c0.1-0.2,0.2-0.3,0.5-0.3c0.1,0,0.2-0.1,0.2-0.1c0-0.3,0.4-0.5,0.5-0.8c0-0.1,0.1-0.1,0.1-0.2
		c-0.1-0.1-0.1-0.2,0-0.3c0.1-0.1,0.2-0.3,0.2-0.5c0,0,0-0.1,0-0.1c0-0.2,0.6-0.1,0.2-0.5c0.1-0.2,0.2-0.4,0.1-0.7
		c0-0.2,0.1-0.3,0.2-0.4c0.1-0.1,0.3-0.3,0.1-0.5c-0.1-0.1-0.1-0.2,0-0.2c0.1-0.1,0.1-0.1,0-0.2c-0.1-0.1-0.1-0.1-0.1-0.2
		c-0.1-0.2,0.2-0.4,0.1-0.6c-0.1-0.2-0.2-0.3,0-0.5c-0.2-0.2-0.1-0.3,0.1-0.4c0-0.2,0-0.3,0-0.5c0-0.1-0.2-0.2-0.3-0.2
		c-0.1,0-0.1-0.1-0.2-0.1c-0.1,0-0.1-0.1-0.1-0.2c0.1-0.1,0.2-0.3-0.1-0.3c0,0-0.1-0.1-0.1-0.1c0.1-0.4-0.1-0.7-0.1-1
		c0-0.1,0-0.2-0.1-0.3c-0.1-0.2-0.1-0.5,0-0.7c0.1-0.1,0.1-0.2-0.1-0.2c-0.2,0-0.2-0.3-0.4-0.4c-0.1-0.1,0.1-0.3,0.1-0.3
		c0.1-0.2,0.1-0.3,0-0.4c-0.1-0.1-0.3-0.2-0.1-0.4c0.1-0.1-0.1-0.2-0.2-0.3c-0.2-0.2-0.4-0.4-0.2-0.7c0,0,0-0.1,0-0.2
		c-0.2-0.1-0.1-0.4-0.2-0.6c-0.1-0.2-0.2-0.4-0.3-0.5c-0.2-0.2-0.4-0.4-0.3-0.7c0-0.1-0.1-0.2-0.1-0.2c-0.4-0.1-0.5-0.5-0.6-0.8
		c-0.1-0.3-0.3-0.7-0.5-0.9c-0.1-0.1-0.2-0.1-0.1-0.2c0-0.1-0.1-0.2-0.2-0.2c-0.2-0.1-0.5-0.3-0.2-0.6c0.1-0.1-0.1-0.2-0.1-0.2
		c-0.2,0-0.3-0.1-0.3-0.4c0-0.2-0.2-0.3-0.3-0.4c-0.1,0-0.2-0.1-0.2-0.2c0-0.4-0.3-0.5-0.5-0.6c0,0-0.1,0,0-0.1
		c0.1-0.1,0.1-0.2,0-0.3c-0.1-0.1-0.2-0.3-0.4-0.4c-0.1,0-0.2-0.1-0.1-0.2c0-0.1,0-0.2-0.2-0.2c-0.3,0-0.4-0.2-0.4-0.5
		c0-0.3-0.1-0.4-0.3-0.4c-0.2,0-0.4-0.1-0.5-0.2c-0.2-0.2-0.4-0.5-0.7-0.5c0-0.2-0.2-0.2-0.3-0.3c-0.1-0.1-0.2,0.2-0.3,0
		c-0.1-0.1-0.2-0.2-0.3-0.3c-0.1-0.1-0.3-0.1-0.3-0.2c-0.1-0.4-0.4-0.4-0.8-0.5c-0.2,0-0.2-0.3-0.3-0.3c-0.2-0.1-0.4,0-0.5-0.2
		c0-0.1-0.1-0.1-0.1-0.2c-0.1-0.1-0.1-0.3-0.2-0.4c-0.1-0.1-0.3,0-0.5,0c-0.2,0-0.5-0.1-0.6,0.1c-0.2,0.2-0.4-0.1-0.5,0.2
		c0,0.2-0.3,0.3-0.5,0.4c-0.1,0.1-0.1,0.1-0.2,0.2c-0.1,0.2-0.5,0-0.5,0.2c-0.1,0.2-0.2,0.3-0.4,0.3c-0.1,0-0.2,0.1-0.3,0.2
		c-0.1,0.5-0.7,0.5-0.8,1c-0.3,0.1-0.5,0.3-0.8,0.3c-0.2,0-0.2,0.1-0.2,0.2c0,0.2,0,0.3-0.2,0.4c-0.2,0.1-0.3,0.3-0.5,0.5
		c-0.1,0.1-0.1,0.1-0.1,0.2c0.1,0.3-0.1,0.5-0.3,0.7c-0.1,0.2-0.2,0.5-0.5,0.5c-0.1,0-0.1,0.1-0.1,0.2c-0.1,0.3,0,0.7-0.5,0.8
		c0,0.3-0.4,0.4-0.3,0.7c0.1,0.3-0.1,0.5-0.3,0.6c-0.2,0.1-0.4,0.2-0.4,0.5c0,0.1-0.1,0.2-0.3,0.2c-0.3,0-0.3,0.3-0.3,0.4
		c0,0.4-0.3,0.5-0.5,0.7c0,0-0.1,0-0.2,0.1c-0.2,0.3-0.4,0.6-0.8,0.6c-0.1,0-0.1,0.1-0.1,0.1c0,0.1,0,0.2,0,0.3
		c-0.1,0.1-0.1-0.1-0.2-0.1c-0.2,0-0.2-0.1-0.1-0.2c0.2-0.4,0-0.7-0.2-0.9c-0.2-0.2-0.2-0.3-0.2-0.6c0-0.2,0-0.2-0.2-0.2
		c-0.2,0-0.3-0.1-0.3-0.2c0-0.2-0.1-0.3-0.3-0.4c-0.1-0.1-0.2-0.3-0.3-0.3c-0.3,0-0.1-0.2-0.2-0.3c-0.2-0.2-0.4-0.5-0.6-0.7
		c-0.1-0.1-0.2-0.1-0.2-0.2c0-0.1,0-0.1-0.1-0.1c-0.4,0-0.5-0.3-0.7-0.6l-0.7-0.5c-0.1-0.1-0.2-0.1-0.2-0.3
		c-0.1-0.2-0.2-0.4-0.4-0.6c0,0-0.1-0.1-0.1-0.1c-0.6,0-0.7-0.5-1-0.8c-0.1-0.1-0.2-0.4-0.3-0.4c-0.3,0-0.3-0.2-0.5-0.3
		c-0.2-0.1-0.4-0.2-0.5-0.5c0-0.1-0.2-0.3-0.4-0.3c-0.2,0-0.2-0.2-0.4-0.3c-0.2-0.2-0.4-0.3-0.7-0.3c-0.2,0-0.5-0.1-0.6-0.2
		c-0.2-0.2-0.4-0.2-0.5-0.1c-0.2,0.1-0.2,0.1-0.3,0c-0.3-0.2-0.6-0.4-0.9-0.2c0,0-0.1,0-0.1,0c-0.2,0.1-0.3-0.1-0.5-0.1
		c-0.1,0.1-0.2,0.3-0.4,0.3c0,0,0,0-0.1,0c-0.1,0.1,0,0.4-0.1,0.3c-0.1,0-0.3-0.1-0.4-0.1c-0.1,0.1-0.3,0.1-0.3,0.4
		c0,0.2-0.1,0.2-0.4,0.3c-0.2,0-0.3,0.2-0.3,0.3c0,0.1-0.1,0.2-0.1,0.2c-0.1,0.1-0.4-0.1-0.5,0.1c-0.1,0.2-0.2,0.3-0.4,0.3
		c-0.2,0.3-0.6,0.3-0.9,0.7c-0.1,0.1-0.3,0.2-0.4,0.3c-0.2,0.2-0.5,0.3-0.4,0.7c0,0,0,0.1-0.1,0.1c-0.4,0.1-0.2,0.6-0.6,0.8
		c-0.1,0-0.1,0.2,0,0.3c0.1,0.2-0.1,0.3-0.1,0.5c0,0.1-0.3-0.1-0.3,0.1c0,0.1,0,0.3-0.1,0.4c-0.1,0.2-0.1,0.5-0.2,0.7
		c0,0.1,0,0.2-0.2,0.3c-0.1,0-0.2,0.1-0.1,0.3c0,0-0.2,0.1-0.2,0.3c0,0,0,0.1,0,0.1C81.2,47.9,81,48,81,48.3c0,0.2-0.1,0.4-0.1,0.7
		c-0.1,0.2-0.3,0.2-0.3,0.5c0.1,0.2-0.1,0.4-0.2,0.6c-0.1,0.2-0.2,0.4-0.3,0.5C80,50.6,80,50.6,80,50.7c0,0.4-0.2,0.8-0.4,1.2
		c-0.1,0.2-0.4,0.4-0.1,0.6c0,0.1-0.1,0.2-0.1,0.3c-0.3,0.5-0.3,0.5-0.2,1.2c0,0.1,0,0.1-0.1,0.2c-0.3,0-0.3,0.3-0.3,0.4
		c0,0.1-0.1,0.2-0.2,0.3c-0.1,0.1,0.2,0.2,0.1,0.4c-0.1,0.1-0.2,0.2-0.2,0.3c0,0,0.3,1.2,0.3,1.2c0.1,0,0.2,0.1,0.2,0.2
		c-0.1,0.4,0,0.7,0.3,1c0,0.1,0.1,0.1,0.1,0.2c0,0.2,0,0.3,0,0.5c0.1,0.1,0.3,0,0.3,0.3c0,0.1,0.1,0.1,0.2,0.1c0.3,0,0.6,0,0.9,0.1
		c0.1,0,0.2,0.1,0.3-0.1c0.1-0.1,0.2,0,0.2,0c0.2,0,0.2,0.4,0.4,0.3c0.3-0.2,0.3,0.1,0.5,0.1c0.2,0,0.4-0.1,0.6,0.1
		c0.1,0.1,0.4-0.1,0.4-0.3c0-0.1,0.1-0.2,0.1-0.3c0-0.1,0.3-0.3,0-0.4c0-0.2-0.1-0.5,0.2-0.7c0,0,0.1-0.1,0.1-0.1
		c-0.3-0.2,0-0.4,0.1-0.5c0.1-0.2,0.2-0.3,0.2-0.5c0.1-0.2,0.1-0.4,0.3-0.5c-0.2-0.3,0.1-0.3,0.2-0.4c0.1-0.2,0.2-0.4,0.4-0.6
		c0.1-0.2,0.2-0.4,0.3-0.7c0.1-0.3,0.3-0.5,0.4-0.7c0.1-0.2,0.3-0.5,0.2-0.7c0-0.2,0-0.3,0.3-0.3c0.1,0,0.1-0.2,0.1-0.2
		c-0.2-0.2-0.1-0.4,0.1-0.5c0.1-0.1,0.2-0.2,0.3-0.3c-0.1-0.1-0.1-0.2-0.2-0.3c-0.1-0.1,0-0.1,0-0.2c0.1-0.1,0.1,0,0.2,0
		c0.2,0.1,0.3,0.2,0.4,0.4c0.4,0,0.1,0.3,0.2,0.4c0,0.1,0,0.2,0,0.3c0.1,0.1,0.3,0.1,0.3,0.2c0,0.1-0.2,0.2-0.1,0.4
		c0.1,0.2,0.1,0.4,0.2,0.5c0.2,0.2,0.2,0.3,0.1,0.5c0,0.3,0,0.5,0.2,0.7c0.1,0.1,0,0.2,0,0.3c-0.1,0.4-0.2,0.7,0.2,1
		c0.1,0.1,0.1,0.2,0.1,0.3c-0.1,0.2-0.1,0.4,0,0.6c0.1,0.2-0.1,0.5,0.1,0.7c0.1,0.1,0,0.3,0,0.4c0,0.4,0,0.5,0.2,0.8
		c0.1,0.1,0.1,0.2,0,0.2c-0.1,0.1-0.1,0.1-0.2,0.2c-0.1,0.1-0.1,0.2,0,0.2c0.1,0.1,0.1,0.2,0,0.2c-0.1,0.1-0.2,0.1-0.2,0.2
		c0,0.2,0.1,0.4,0.1,0.6c0,0.2-0.3,0.2-0.3,0.5c0,0.1-0.1,0.2-0.1,0.3c0,0.5-0.5,0.5-0.7,0.9c0,0-0.2,0-0.2,0
		c-0.3,0-0.5-0.1-0.7,0.2c0,0-0.1,0-0.2,0c-0.1-0.1-0.3-0.2-0.4-0.1c-0.2,0.1-0.4,0-0.6,0.3c-0.1,0.2-0.4,0.3-0.7,0.3
		c-0.2,0-0.5-0.1-0.6,0.2c0,0,0,0,0,0c-0.2,0.1-0.3-0.1-0.4-0.1c-0.1,0-0.2,0.2-0.4,0.3c-0.1,0-0.2-0.3-0.3,0
		c-0.1,0.2-0.4,0.2-0.4,0.5c0,0.1-0.1,0.2-0.2,0.3c0,0-0.1,0.1-0.1,0.2c0.2,0.2,0.1,0.4,0,0.6c-0.1,0.1,0.2,0.2,0,0.4
		c-0.1,0.2,0.1,0.2,0.2,0.3c0.1,0.1,0.1,0.1,0,0.2c-0.1,0.2-0.2,0.3-0.1,0.5c0.1,0.1,0,0.3,0,0.5c0.1,0.3,0.3,0.3,0.4,0.5
		c0,0,0,0,0,0.1c0,0.1-0.2,0.2-0.3,0.3c-0.2,0.2-0.3,0.5-0.1,0.7c0.1,0.2,0.2,0.3,0,0.5c-0.1,0.1-0.1,0.1,0,0.2
		c0.2,0.2,0.2,0.4,0.1,0.6c-0.1,0.1-0.2,0.3-0.1,0.5c0,0.1,0.1,0.4,0.1,0.4c0.1,0.1,0.2,0.2,0.1,0.3c-0.1,0.2-0.2,0.3,0,0.5
		c0.1,0.1,0.1,0.2,0,0.3c-0.4,0.3-0.2,0.6,0,0.9c0.1,0.1,0.1,0.1,0,0.3c-0.2,0.2-0.2,0.5,0,0.7c0.1,0.1,0.1,0.1,0,0.3
		c-0.1,0.2,0,0.5-0.1,0.7c0,0.1,0,0.2,0,0.3c0.2,0.2,0.1,0.3,0,0.4c-0.1,0.1-0.3,0.2-0.2,0.2c0.1,0.1,0,0.3,0.2,0.4
		c0.2,0.1,0.2,0.3,0,0.4c0,0,0,0.2,0,0.2c0,0.5,0,0.5-0.2,0.8c-0.1,0.1-0.1,0.2,0,0.3c0.2,0.2,0,0.5,0.3,0.6c0.1,0,0,0.1-0.1,0.2
		c-0.1,0.3-0.3,0.5-0.1,0.9c0,0,0,0.1,0,0.1c-0.1,0.2-0.2,0.4,0,0.6c0.1,0.2-0.1,0.4,0.2,0.5c0,0,0,0.1-0.1,0.2
		c-0.3,0.1-0.4,0.4-0.4,0.6c0,0.3,0,0.7-0.1,1c0,0.1,0,0.2,0,0.2c0.2,0.4,0,0.7-0.1,1.1c0,0.1,0.2,0.2,0.1,0.3
		c-0.1,0.1-0.2,0.1-0.2,0.2c0,0.1,0,0.3,0,0.4c0,0.4-0.1,0.6-0.5,0.6c-0.2,0-0.3,0.1-0.5,0.2c-0.1,0.1-0.1,0-0.2,0
		c-0.3-0.1-0.4-0.1-0.6,0.2c-0.1,0.2-0.3,0.4-0.5,0.5c0,0.3-0.3,0.4-0.4,0.6c-0.3,0-0.3-0.4-0.6-0.4c-0.2,0-0.3-0.3-0.6-0.2
		c0,0-0.1-0.1-0.1-0.1c-0.1-0.2-0.2-0.4-0.4-0.4c-0.1,0-0.2-0.1-0.1-0.2c0-0.1,0.1-0.1,0-0.2c-0.1-0.1-0.2-0.2-0.1-0.4
		c0.1-0.1-0.1-0.2-0.1-0.2c-0.2-0.1-0.3-0.3-0.2-0.5c0.1-0.3-0.1-0.6-0.2-0.8c-0.1-0.1-0.1-0.3,0-0.4c0.1-0.1,0-0.1,0-0.2
		c-0.1-0.1-0.2-0.2,0-0.4c0.1,0,0-0.1-0.1-0.2c-0.1-0.1-0.2-0.2-0.1-0.3c0.1-0.1-0.1-0.3-0.2-0.3c-0.2,0-0.3-0.1-0.4-0.2
		c-0.1-0.1-0.1,0-0.2,0.1c-0.2,0.1-0.3,0.2-0.5,0c0-0.1-0.1-0.1-0.2-0.1c-0.3,0.1-0.3-0.2-0.4-0.3c-0.1-0.1,0-0.3-0.1-0.4
		c0,0,0-0.1-0.1-0.2c-0.6-0.2-0.7-0.3-0.7-0.9c0-0.1,0-0.3-0.2-0.4c-0.1-0.1-0.1-0.1,0-0.2c0.1-0.1,0.1-0.2,0-0.3
		c-0.1,0.1-0.2,0-0.3,0c-0.3-0.1-0.2-0.1-0.3-0.2c-0.1-0.1-0.1-0.2-0.1-0.3c0-0.5-0.1-0.9-0.4-1.3c-0.1-0.1-0.1-0.2,0-0.3
		c0.2-0.2,0.1-0.5,0.1-0.7c0-0.1,0-0.2,0-0.2c-0.4-0.2-0.1-0.5-0.1-0.8c0-0.2,0-0.3-0.1-0.5c-0.2-0.1-0.3-0.3-0.3-0.6
		c0-0.2-0.1-0.4-0.2-0.6c-0.1-0.2-0.3-0.3-0.1-0.5c0.1-0.1,0-0.1,0-0.1c-0.1-0.1-0.1-0.2-0.2-0.3c-0.1-0.2-0.3-0.3-0.2-0.6
		c0.1-0.1-0.2-0.3-0.2-0.5c0.1-0.2,0-0.4,0.2-0.5c0,0,0-0.1,0-0.1c-0.3-0.1-0.1-0.5-0.4-0.5c0.1-0.4-0.5-0.5-0.5-0.9
		c0-0.1-0.2-0.2-0.3-0.3c-0.2-0.2-0.5-0.3-0.4-0.7c0-0.1-0.1-0.2-0.2-0.2c-0.2-0.1-0.2-0.1-0.3-0.3c-0.1-0.2-0.2-0.2-0.5-0.1
		c-0.1,0.1-0.2,0.1-0.2-0.1c0-0.3-0.1-0.5-0.4-0.5c0-0.2-0.3-0.2-0.4-0.4c-0.1-0.1-0.2-0.2-0.3-0.2c-0.1,0-0.2-0.1-0.2-0.2
		c0-0.2-0.2-0.3-0.4-0.3c0,0-0.1,0-0.1-0.1c0.1-0.4-0.3-0.3-0.5-0.3c-0.1,0-0.2,0-0.2,0c-0.2-0.2-0.5-0.2-0.7-0.3
		c-0.1-0.1-0.3-0.1-0.4-0.3c-0.1-0.2-0.3-0.3-0.5-0.4c-0.2-0.1-0.4,0-0.6-0.2c0,0-0.2-0.1-0.2,0c-0.5,0.2-0.8-0.1-1.1-0.4
		c-0.2-0.2-0.4-0.1-0.6-0.3c0,0-0.1,0-0.2,0c-0.2,0.2-0.4,0-0.7-0.1c-0.2-0.1-0.5-0.2-0.7-0.2c-0.1,0-0.2,0-0.3-0.1
		c-0.1-0.1-0.2-0.2-0.4-0.1c-0.3,0.1-0.4-0.3-0.6-0.3c-0.1,0-0.1-0.1-0.1-0.2c0-0.2-0.1-0.3-0.2-0.5c-0.1-0.1-0.3-0.2-0.1-0.4
		c0.1-0.1-0.2-0.2-0.2-0.3c0.1-0.1,0.1-0.3,0.1-0.3C57.7,61,58,60.7,58,60.5c0-0.1,0-0.2-0.1-0.3c-0.2-0.3-0.2-0.5-0.2-1
		c0-0.2,0.1-0.4-0.2-0.5c-0.1-0.1,0-0.2-0.1-0.3c-0.1-0.2,0.2-0.4,0-0.6c-0.1-0.1,0-0.4,0-0.6c0-0.4,0.1-0.7,0.4-0.9
		c0.1-0.1,0.2-0.2,0.1-0.3c0,0-0.1-0.1,0-0.1c0.2-0.1,0.2-0.3,0.2-0.5c0-0.2,0.1-0.3,0.1-0.4c0.1-0.1,0.3-0.2,0.3-0.1
		c0,0.3,0.4,0.2,0.4,0.5c0,0.1,0.2,0.1,0.3,0.1c0.2,0,0.3,0.1,0.3,0.2c0,0.4,0.5,0.4,0.6,0.8c0.2,0,0.3,0,0.3,0.2
		c0.2,0,0.2,0.2,0.3,0.3C61,57,61.1,57,61.2,57c0.4,0.1,0.5,0.1,0.6,0.6c0,0.1,0.1,0.1,0.2,0.2c0.1,0.2,0.4,0,0.5,0.2
		c0,0,0.1,0,0.1,0.1c-0.1,0.4,0.2,0.3,0.4,0.3c0.2,0,0.3,0,0.4,0.2c0.1,0.1,0.2,0.1,0.3,0.1c0.1,0,0.2,0,0.3,0.1
		c0.2,0.3,0.4,0.5,0.7,0.4c0.2,0.3,0.6,0.1,0.8,0.3c0.1,0.1,0.1,0.1,0.2,0c0.1-0.1,0.2-0.1,0.3,0c0.1,0.2,0.3,0.2,0.5,0.3
		c0.1,0.1,0.2-0.2,0.3,0c0.2,0.1,0.4,0.2,0.6,0.3c0.1,0,0.1,0.1,0.2,0c0.1-0.1,0.2-0.1,0.3,0c0.1,0.2,0.3,0.2,0.5,0
		c0.1-0.1,0.2-0.1,0.2,0c0.1,0.2,0.3,0.1,0.4,0.1c0.1-0.1,0.2-0.1,0.4-0.1c0.3,0.1,0.6,0.1,0.9,0.2c0.4,0.2,0.6,0.1,1-0.1
		c0.1,0,0.1-0.1,0.2-0.1c0.1,0.2,0.3,0,0.4,0.2c0.1,0.1,0.2,0.1,0.3,0c0.1-0.2,0.4-0.2,0.5-0.1c0.2,0.2,0.3,0,0.5-0.1
		c0.2-0.2,0.5-0.3,0.6-0.6c0.1-0.2-0.2-0.3,0-0.5c0.1-0.1,0.2-0.2,0.2-0.4c0-0.3,0-0.5,0.2-0.8c0.1-0.1,0.1-0.2,0-0.3
		C74,57.2,74,57.1,74,56.9c0-0.1,0-0.3-0.1-0.4c-0.2-0.2-0.4-0.4-0.7-0.4c-0.3,0-0.5-0.3-0.8,0c-0.1,0.1-0.2,0-0.3-0.1
		c-0.2-0.2-0.4,0.1-0.5,0c-0.2-0.1-0.4-0.2-0.5-0.1c-0.2,0.3-0.4,0-0.5,0c-0.2-0.1-0.3-0.3-0.5-0.2c0,0-0.1,0-0.1-0.1
		c-0.1-0.2-0.3-0.2-0.5-0.2c-0.2,0-0.4,0.1-0.4-0.3c0-0.1-0.1-0.1-0.2-0.1c-0.3,0-0.6-0.1-0.8-0.3c-0.2-0.2-0.3-0.4-0.6-0.3
		c-0.1,0-0.1,0-0.1-0.1C67.3,54.1,67,54,66.8,54c-0.2,0-0.3-0.1-0.5-0.1c-0.2-0.1-0.5-0.1-0.6-0.4c-0.1-0.1-0.2-0.3-0.4-0.2
		c-0.1,0-0.1,0-0.2-0.1c0-0.2-0.2-0.3-0.3-0.3c-0.4-0.1-0.4-0.4-0.7-0.6c-0.1-0.1-0.5-0.4-0.5-0.4c-0.3,0-0.4-0.1-0.5-0.4
		c-0.1-0.2-0.2-0.4-0.5-0.4c-0.1,0-0.1-0.1-0.1-0.1c0-0.1-0.1-0.2-0.2-0.2c-0.3,0-0.4-0.2-0.4-0.4c0-0.2-0.1-0.3-0.4-0.3
		c-0.1,0-0.3,0-0.2-0.2c0.1-0.3-0.2-0.3-0.3-0.4c-0.5-0.2-0.4-0.2-0.7-0.6c-0.2-0.3-0.4-0.8-0.9-0.9c-0.1,0-0.2-0.1-0.2-0.2
		c0-0.2-0.2-0.4-0.4-0.4c-0.2,0-0.3-0.2-0.3-0.4c0-0.2-0.1-0.2-0.2-0.3c-0.1-0.2-0.2,0.1-0.3,0c-0.1-0.1,0-0.3-0.3-0.3
		c-0.1,0-0.2-0.2-0.3-0.3c-0.1-0.1-0.2-0.2-0.2-0.3c0-0.1-0.1-0.2-0.3-0.1c-0.3,0.1-0.6,0.1-0.8-0.2c-0.1-0.2-0.4-0.1-0.4-0.4
		c0-0.1-0.1,0-0.1,0c-0.2,0-0.4,0.1-0.5,0c-0.2,0-0.3-0.2-0.5-0.2c-0.2,0-0.4,0.2-0.5,0.2c-0.1,0-0.3-0.1-0.4,0
		c-0.1,0.2-0.5,0.2-0.6,0.5c0,0.1-0.1,0.1-0.2,0.1c-0.2-0.1-0.4,0.1-0.5,0.3c-0.1,0.2-0.4,0.3-0.3,0.6c0,0.1-0.1,0.2-0.2,0.3
		c-0.2,0.1-0.4,0.4-0.5,0.6c-0.1,0.2-0.2,0.3-0.5,0.4c-0.2,0.1-0.3,0.3-0.4,0.5c-0.1,0.3-0.2,0.7-0.5,0.9c-0.2,0.2-0.2,0.5-0.5,0.6
		c-0.1,0,0,0.2,0,0.3c0,0.1,0,0.2-0.2,0.2c-0.2,0.1-0.4,0.2-0.2,0.5c0.1,0.1,0,0.2-0.1,0.2c-0.2,0-0.2,0.2-0.2,0.4
		c0,0.2,0,0.5-0.2,0.6c0.2,0.2-0.1,0.3-0.2,0.4c0,0.2-0.1,0.3-0.2,0.4c-0.1,0.2-0.3,0.4-0.1,0.6c0.1,0.1-0.1,0.1-0.1,0.2
		c0,0.2-0.2,0.2-0.1,0.4c0,0.1,0.2,0.2,0.1,0.4c-0.1,0.1-0.3,0.1-0.3,0.2c0,0.2,0,0.3,0,0.5c-0.1,0.2,0,0.5-0.2,0.6
		c-0.1,0,0,0.1,0,0.2c0.1,0.1,0,0.2-0.1,0.3c-0.1,0.1-0.2,0.2,0,0.3c0.2,0.1,0,0.4,0.2,0.5c0,0,0,0.1-0.1,0.1
		c-0.1,0.1-0.3,0.2-0.1,0.4c0.1,0-0.1,0.1-0.1,0.2c0,0.2-0.3,0.3,0,0.5c0,0,0,0.1,0,0.1c-0.4,0.1-0.2,0.3-0.1,0.5c0,0,0,0.1,0,0.1
		c-0.2,0.1,0.1,0.2,0,0.3c-0.1,0.1-0.2,0.3,0,0.5c0.1,0.1,0.1,0.3,0,0.5C47,60.3,47,60.4,47,60.6c0,0.4,0,0.8-0.1,1.1
		c0,0.2-0.1,0.2,0,0.3c0.1,0.1,0.1,0.2,0.2,0.3c0.1,0.1,0,0.1,0,0.2c0,0.1-0.2,0.1-0.1,0.2c0.3,0.3-0.1,0.6-0.1,0.9
		c0,0.1,0,0.3-0.1,0.4c-0.1,0.2,0.2,0.3,0.1,0.4c-0.2,0.2,0,0.3,0,0.4c0,0.1,0,0.2,0,0.2c-0.2,0.2-0.1,0.4,0.1,0.5
		c0.1,0.1,0.1,0.2,0,0.3c-0.1,0.1-0.1,0.3,0.1,0.3c0.3,0.1,0.2,0.4,0.2,0.7c0,0.1-0.1,0.1,0,0.2c0.3,0.3,0.4,0.7,0.5,1.2
		c0,0.1,0.1,0.2,0.2,0.2c0.3,0,0.3,0,0.3,0.2c0,0.1,0,0.2,0.1,0.3c0.1,0.2,0.3,0,0.5,0.2c0,0.1,0.3,0.1,0.4,0c0.3-0.2,0.4,0,0.6,0.2
		c0.2,0.2,0.4,0.4,0.7,0.3c0.1,0,0.1,0.1,0.2,0.2c0.2,0.2,0.4,0.2,0.6,0.2c0.3-0.1,0.5-0.1,0.6,0.1c0.2,0.2,0.4,0.2,0.6,0.2
		c0.3,0,0.6-0.1,0.8,0.2c0.1,0.1,0.4,0.1,0.4,0c0.1-0.3,0.3,0.1,0.5-0.1c0.1-0.1,0.3-0.1,0.5,0c0.3-0.2,0.6-0.1,1-0.1
		c0.1,0,0.3,0.1,0.4,0.1C56.4,70.6,56.2,70.7,56.1,70.9z M143.8,39.4c-0.1-0.1-0.3-0.3-0.4-0.4c-0.1-0.1,0-0.1,0-0.2
		c0.1-0.6,0-0.9-0.5-1.3c-0.2-0.1-0.4-0.3-0.3-0.6c0-0.1,0-0.2-0.2-0.2c-0.2-0.1-0.4-0.3-0.4-0.5c0-0.3-0.2-0.4-0.3-0.5
		c-0.1-0.1-0.3-0.3-0.4-0.4c-0.2-0.4-0.3-0.5-0.7-0.5c-0.1,0-0.2,0-0.3-0.1c0-0.3-0.3-0.3-0.5-0.4c-0.1-0.1-0.2-0.2-0.4-0.3
		c0.2-0.2,0-0.2-0.1-0.3c-0.2-0.1-0.4-0.3-0.7-0.2c-0.1,0-0.2-0.1-0.3-0.2c-0.1-0.1-0.1-0.1-0.2,0c-0.1,0.1-0.1,0.1,0,0.2
		c0.1,0.1,0,0.1,0,0.2c0,0-0.1,0.1-0.1,0c-0.2-0.2-0.3-0.3-0.5,0c-0.1,0.1-0.1,0.1-0.2,0.1c-0.2,0-0.4,0.2-0.6,0
		c-0.3,0.1-0.5,0.5-0.9,0.4c0,0-0.1,0.1-0.1,0.1c-0.2,0.2-0.5,0.3-0.5,0.6c-0.1,0.2-0.3,0.1-0.4,0.3c-0.3-0.2-0.2,0.3-0.4,0.2
		c-0.2-0.1-0.3,0-0.4,0.2c-0.2,0.2-0.5,0.2-0.7,0.4c-0.1,0.1-0.3-0.1-0.4,0.1c-0.1,0.2-0.3,0.1-0.4,0.3c-0.1,0.1-0.2-0.1-0.3,0
		c-0.3,0.2-0.7,0.3-0.9,0.6c0,0.1-0.1,0.2-0.2,0.1c-0.3-0.2-0.5,0-0.7,0.2c-0.1,0-0.1,0.1-0.2,0.1c-0.2-0.2-0.3,0-0.4,0.1
		c0,0.1,0,0.1-0.1,0.1c-0.4,0.1-0.7,0.3-1.2,0.2c-0.1,0-0.2,0-0.4,0.1c-0.2,0.2-0.3,0.2-0.6-0.1c-0.1-0.1-0.2-0.3-0.4-0.3
		c-0.2,0-0.3-0.1-0.2-0.3c0-0.1,0-0.2-0.2-0.3c-0.1-0.1-0.5-0.2-0.2-0.5c-0.2-0.2-0.1-0.5-0.3-0.7c-0.2-0.2-0.4-0.5-0.5-0.9
		c0-0.1,0.1-0.3-0.1-0.4c-0.2-0.1-0.2-0.3-0.2-0.5c0-0.3,0-0.5-0.3-0.5c-0.1,0-0.2-0.1-0.1-0.3c0.1-0.1-0.1-1-0.2-1.1
		c0,0,0-0.1,0-0.1c-0.2,0-0.2-0.1-0.2-0.3c0-0.2,0-0.4-0.3-0.4c-0.1,0-0.1-0.1-0.1-0.2c0-0.1-0.1-0.2-0.2-0.3
		c-0.2,0.2-0.2,0-0.3-0.1c-0.1-0.2-0.2-0.4-0.5-0.4c-0.1,0-0.2-0.1-0.2-0.2c0-0.2-0.1-0.2-0.3-0.2c-0.3,0-0.5,0-0.7,0.3
		c-0.1,0.1-0.3,0.1-0.4,0.3c-0.1,0.1-0.2,0.1-0.2,0c0-0.1-0.1-0.1-0.1-0.2c-0.2,0.4-0.2,0.4-0.2,0.8c0,0,0,0.1,0,0.1
		c-0.1,0.1-0.1,0-0.1,0c-0.1-0.1-0.2-0.1-0.2,0.1c0,0.1-0.1,0.2-0.2,0.1c-0.1,0-0.1-0.2-0.2,0c-0.1,0.1-0.2,0.2-0.4,0.2
		c-0.1,0-0.3,0.1-0.1,0.4c0.1,0.1,0.1,0.3,0,0.5c-0.1,0.1-0.1,0.2,0,0.3c0.3,0.3,0.3,0.8,0.7,1.1c0,0,0.1,0.2,0.1,0.2
		c-0.3,0.2,0,0.3,0.1,0.5c0.1,0.1,0.3,0.2,0.1,0.4c0.1,0.2,0.1,0.3,0.3,0.5c0.1,0.1,0.3,0.2,0.1,0.4c0,0,0,0.1,0,0.2
		c0.2,0.1,0.2,0.4,0.2,0.6c0,0.3,0.1,0.5,0.3,0.6c0.2,0.1,0.2,0.3,0.2,0.5c0,0.1,0,0.3,0,0.4c0,0.1,0,0.2,0.2,0.2
		c0.1,0,0.1,0.1,0.1,0.1c-0.1,0.3,0.1,0.4,0.3,0.5c0.2,0.2,0.3,0.5,0.4,0.7c0.1,0.1-0.1,0.1,0,0.2c0.2,0.2,0.3,0.6,0.4,0.9
		c0.1,0.2,0.1,0.5,0.1,0.7c0,0.3,0.4,0.2,0.5,0.5c0,0.1,0.1,0.1,0.1,0.2c0,0.1,0.1,0.2,0.2,0.3c0.1,0.2,0.2-0.1,0.3,0
		c0.1,0.1,0.2,0.3,0.3,0.4c0,0,0.1,0,0.1,0c0.3,0,0.7,0,1,0.1c0.2,0.1,0.4,0,0.6,0c0.2,0,0.4,0.1,0.5-0.2c0,0,0.1,0,0.2,0
		c0,0,0.6,0.2,0.6,0.2c0.1,0.2,0.3,0.1,0.4,0.1c0.3,0,0.7,0.3,0.8-0.2c0-0.1,0.1-0.1,0.1-0.1c0.2-0.1,0.4,0.1,0.6,0.1
		c0.2,0,0.3-0.3,0.5-0.2c0.1,0,0.2,0,0.2,0c0.1,0,0.2,0,0.4,0c0.1,0,0.1,0,0.1-0.1c0-0.3,0.3,0,0.4-0.2c0.1-0.2,0.3-0.2,0.5-0.2
		c0.1,0,0.2-0.1,0.3-0.1c0.2,0,0.5-0.2,0.7-0.2c0.1,0,0.2-0.1,0.3-0.2c0.1-0.1,0.1-0.3,0.2-0.3c0.1,0,0.2,0.2,0.3,0.2
		c0.2,0,0.1,0.2,0.2,0.3c0.1,0.1,0.3,0,0.3,0.2c0,0.2,0.3,0.2,0.2,0.4c0,0.3,0.1,0.6-0.1,0.9c-0.1,0.1,0,0.3,0,0.4
		c0.1,0.2,0.1,0.5,0,0.7c-0.1,0.2-0.1,0.3,0.1,0.5c0.1,0.1,0.2,0.2,0,0.3c-0.1,0-0.1,0.1,0,0.2c0.3,0.2,0,0.4,0,0.5
		c-0.1,0.2-0.1,0.3,0,0.4c0.3,0.2,0.3,0.5,0.1,0.8c-0.1,0.1-0.2,0.3,0,0.4c-0.1,0.1-0.2,0.3-0.2,0.4c0,0,0,0,0,0.1
		c0.1,0.2-0.1,0.4-0.1,0.6c0,0.4-0.3,0.4-0.5,0.5c-0.1,0-0.2,0-0.3,0.1c0,0.1-0.1,0.1-0.1,0.2c0.3,0.4,0,0.6-0.2,0.8
		c-0.2,0.2-0.4,0.3-0.2,0.6c0.1,0.1,0.1,0.2,0,0.3c-0.1,0.1-0.2,0.1-0.2,0.2c0,0.4-0.2,0.4-0.5,0.4c-0.2,0-0.4,0-0.6,0
		c-0.1,0-0.2,0-0.2-0.1c0-0.1,0-0.1-0.2-0.1c-0.2,0.1-0.5,0.1-0.7,0c0-0.3-0.2-0.2-0.4-0.1c-0.1,0.1-0.2,0.1-0.3,0
		c-0.1-0.1-0.3-0.1-0.4-0.1c-0.2,0-0.4-0.1-0.5-0.1c-0.2,0.1-0.3,0.1-0.5-0.1c0,0-0.1,0-0.1,0c-0.2,0.2-0.3,0.1-0.4,0
		c-0.1-0.1-0.1-0.1-0.2,0c-0.2,0.1-0.4,0.1-0.6,0c-0.2-0.1-0.3-0.1-0.5,0c-0.1,0.1-0.1,0-0.2,0c-0.7-0.2-0.7-0.2-1.6,0
		c-0.2,0-0.4,0.1-0.7-0.1c-0.3-0.2-0.4-0.2-0.6,0.1c-0.1,0.1-0.1,0.2-0.3,0.2c-0.2,0-0.4,0-0.4,0.3c0,0.1-0.1,0.2-0.1,0.2
		c-0.3,0-0.2,0.2-0.2,0.4c0,0.3,0.1,0.6-0.1,0.9c-0.1,0.1-0.2,0.3,0,0.4c0.1,0,0,0.2-0.1,0.3c0,0-0.2,0.1-0.1,0.2
		c0.1,0.1,0.1,0.2,0,0.3c-0.2,0.2,0.1,0.2,0.1,0.4c0,0.3,0,0.5,0,0.8c-0.3,0.2-0.1,0.4-0.1,0.6c0,0.6-0.1,1.1,0.2,1.7
		c0.3-0.1,0.5-0.2,0.8-0.3c0.2-0.1,0.2-0.1,0.6-0.1c0.1,0,0.2,0,0.2-0.1c0-0.3,0.2-0.1,0.3-0.2c0.2-0.1,0.3-0.2,0.3,0.1
		c0,0.2,0.2,0.3,0.3,0.4c0.1,0.1,0.2,0,0.4,0c0.2-0.1,0.4-0.1,0.5,0.1c0,0,0.1,0.1,0.1,0.1c0.3,0,0.6,0.2,0.8,0.3
		c0.1,0.1,0.2,0.1,0.3,0c0.1-0.2,0.4-0.1,0.5-0.1c0.2,0,0.1,0.2,0.2,0.3c0.1,0.1,0.2,0.1,0.4,0.1c0.4,0,0.8-0.3,1.1,0.1
		c0,0,0.1,0,0.1,0c0.2,0,0.4,0,0.6,0.1c0.2,0.1,0.4,0,0.7,0.1c0.1,0,0.2,0.1,0.3,0c0.1-0.1,0.3-0.1,0.4,0c0.2,0.2,0.3,0.1,0.5,0
		c0.6-0.2,0.7-0.2,1.3,0.2c0.2,0.1,0.3,0.1,0.5-0.1c0.1-0.1,0.1-0.1,0.2,0c0.3,0.3,0.7,0.4,1.2,0.2c0.1,0,0.3,0.2,0.4-0.1
		c0.1,0.1,0.1,0.1,0.2,0.2c0.2,0.2,0.5,0.4,0.8,0.2c0.1-0.1,0.3-0.1,0.4-0.1c0.1,0,0.2,0.3,0.4,0.1c0.1-0.2,0.2,0.2,0.3,0.1
		c0.1,0.1,0.2,0.1,0.3,0c0.1-0.1,0.3-0.2,0.5-0.1c0.2,0.1,0.4,0,0.6,0c0.5,0,0.9-0.3,1.3-0.3c0.1,0,0.3,0,0.3-0.1
		c0.1-0.1,0.3,0,0.3-0.2c0-0.2,0.2-0.1,0.2-0.2c0.1-0.1,0.3-0.1,0.3-0.4c-0.1-0.3,0-0.6,0.3-0.8c0.2-0.1,0.2-0.3,0.1-0.5
		c-0.1-0.1,0-0.2,0.1-0.2c0.1,0,0.2,0,0.2-0.2c0-0.1,0.1-0.2,0.2-0.3c0.3-0.3,0.4-0.4,0.5-0.8c0-0.1,0.1-0.2,0.2-0.3
		c0.1-0.1,0.1-0.2,0.1-0.2c-0.3-0.3,0-0.3,0.1-0.4c0.1-0.1,0.2-0.2,0-0.3c-0.1-0.1-0.1-0.1,0-0.2c0.2-0.2,0.2-0.4,0.1-0.7
		c-0.1-0.1-0.1-0.4,0.1-0.5c-0.1-0.3,0-0.5,0.1-0.8c0-0.1,0.2-0.2,0.1-0.4c-0.1-0.4,0.2-0.8,0.1-1.3c0-0.2,0.2-0.5,0.1-0.7
		c0,0,0.1-0.1,0.1-0.2c0.2-0.1,0.1-0.2,0-0.3c-0.2-0.2-0.2-0.4,0-0.6c0.2-0.2,0.2-0.4,0-0.5c-0.2-0.2,0.1-0.4-0.1-0.5
		c-0.1-0.1,0.1-0.1,0.1-0.2c0.1-0.1,0.1-0.2,0.1-0.3c0-0.1,0-0.3,0-0.4c0.2-0.2,0.1-0.3-0.1-0.4c-0.1-0.1-0.2-0.4-0.1-0.5
		c0.1-0.3,0-0.4-0.1-0.6c0-0.2,0.2-0.4,0.1-0.7c0-0.1,0-0.1-0.1-0.2c-0.1-0.1-0.1-0.3,0-0.3c0.3-0.3,0-0.5,0-0.7
		c0-0.1-0.1-0.2,0-0.3c0.1-0.1,0.1-0.4-0.1-0.5c-0.1-0.1-0.1-0.1-0.2-0.2c0.1-0.1,0.1-0.1,0.1-0.2c0-0.3,0-0.6,0.2-0.9
		c0.1-0.1,0-0.1,0-0.2c0-0.2-0.1-0.3-0.2-0.4C143.4,39.7,143.6,39.6,143.8,39.4z M115.1,28.8c-0.4,0-0.7,0-1.1,0
		c-0.2,0-0.3,0-0.3-0.2c-0.1-0.2-0.2-0.4-0.4-0.2c-0.1,0.1-0.1,0-0.1,0c-0.4-0.4-0.8-0.5-1.3-0.5c-0.1,0-0.2,0-0.2-0.1
		c0-0.2-0.1-0.2-0.3-0.1c-0.1,0.1-0.4,0.2-0.5,0c-0.2-0.3-0.6-0.4-0.7-0.7c0-0.1-0.1,0-0.2,0c-0.2,0-0.4,0-0.5-0.3
		c0-0.1-0.1-0.2-0.2-0.2c-0.1,0-0.3,0-0.3-0.2c0-0.1-0.3-0.1-0.4-0.2c-0.2-0.1-0.3-0.1-0.3-0.4c0-0.1-0.1-0.2-0.2-0.3
		c-0.2-0.1-0.3-0.2-0.4-0.4c0-0.1-0.1-0.1-0.2-0.1c-0.1,0-0.2,0-0.2-0.1c0-0.1-0.1-0.2-0.3-0.2c-0.2,0-0.3-0.2-0.5-0.1
		c-0.1,0-0.3-0.1-0.3-0.2c0-0.3-0.2-0.4-0.4-0.6c-0.1-0.1-0.2-0.3-0.3-0.4c-0.1-0.3-0.5-0.5-0.5-0.9c-0.3,0.1-0.3-0.2-0.5-0.3
		c-0.2-0.1-0.3-0.2-0.3-0.5c0-0.2-0.1-0.3-0.3-0.4c-0.2-0.1-0.4-0.2-0.3-0.5c0-0.2-0.1-0.3-0.2-0.3c-0.1,0-0.1,0-0.1-0.1
		c0-0.4-0.3-0.8-0.2-1.3c0-0.2,0-0.4-0.2-0.4c0-0.2-0.2-0.3-0.3-0.4c-0.2-0.1,0-0.3,0-0.4c-0.1-0.2-0.2-0.5-0.2-0.7
		c0-0.2,0-0.3-0.2-0.4c-0.1,0-0.1-0.2-0.1-0.3c0-0.3-0.2-0.5-0.1-0.9c0-0.2-0.2-0.1-0.3-0.2c-0.1-0.1-0.1,0.1-0.1,0.1
		c-0.1,0.2-0.1,0.2-0.3,0.1c-0.2-0.1-0.4-0.1-0.6,0.1c-0.2,0.2-0.4,0-0.6,0c-0.1,0-0.1,0.1-0.1,0.1c-0.1,0.1-0.3,0.2-0.4,0.2
		c-0.1,0-0.2,0.1-0.3,0.2c-0.2,0.1-0.1,0.6-0.5,0.2c0,0-0.1,0.1-0.1,0.1c-0.1,0.1-0.3,0.4-0.3,0c0-0.1-0.1-0.1-0.1,0
		c-0.1,0.1-0.1,0.1-0.1,0.2c-0.1,0.3,0.1,0.5-0.1,0.8c0,0,0.1,0.2,0.2,0.3c0,0,0,0.1,0,0.1c0,0.2,0,0.6,0.1,0.7c0,0,0.2,0.6,0.2,0.7
		c0,0.5,0.1,1,0.4,1.4c0.1,0.1,0.1,0.2,0,0.2c-0.1,0.2,0.2,0.4,0.1,0.6c-0.1,0.3,0.3,0.2,0.4,0.4c0,0.1,0.1,0.1,0.1,0.1
		c0,0.1,0,0.2,0,0.4c0,0.2,0.3,0.1,0.2,0.2c-0.1,0.3,0.2,0.5,0.4,0.7c0.2,0.2,0.3,0.3,0.2,0.6c0,0.1,0.1,0.2,0.1,0.3
		c0.1,0.1,0.2,0,0.3,0c0.1,0.1-0.1,0.2-0.1,0.3c0,0,0.4,0.4,0.4,0.4c0.1,0.1,0.2,0.2,0.2,0.2c-0.2,0.4,0.3,0.5,0.4,0.7
		c0.2,0.3,0.2,0.2,0.3,0.5c0,0.2,0.1,0.3,0.3,0.3c0.1,0,0.2,0.1,0.2,0.1c0.1,0.2,0.4,0.2,0.4,0.4c0,0.3,0.3,0.3,0.3,0.5
		c0,0.4,0.3,0.4,0.5,0.5c0.1,0.1,0.2,0.1,0.3,0.3c0.1,0.2,0.2,0.6,0.6,0.5c0.2,0,0.2,0.1,0.3,0.2c0.4,0.3,0.7,0.6,1,0.9
		c0,0,0.1,0.1,0.2,0.1c0.3,0.1,0.3,0.1,0.6,0.3c0.2,0.2,0.3,0.2,0.5,0.3c0.3,0.1,0.6,0.1,0.8,0.4c0.1,0.1,0.2,0.2,0.3,0.2
		c0.6,0,1,0.5,1.5,0.6c0.1,0.3,0.5,0.4,0.7,0.6c0.1,0.1,0.1,0.1,0.2,0.1c0.4-0.1,0.8,0.2,1.1,0.3c0.1,0,0.2,0.1,0.2,0
		c0.1-0.2,0.3-0.2,0.5-0.2c0.1,0,0.3,0,0.4,0c0.1-0.1,0.2-0.2,0.4,0c0.1,0.1,0.3,0,0.4,0c0.3,0,0.4-0.1,0.3-0.5c0-0.1-0.1-0.2,0-0.2
		c0.4-0.1,0.3-0.5,0.4-0.8c0.1-0.2,0.2-0.4,0-0.5c0.3-0.2,0.3-0.5,0.4-0.7C115,29.6,115.2,29.3,115.1,28.8z M96.4,31.7
		c0.1,0.1,0.2,0.1,0.3,0c0.3-0.2,0.6-0.3,0.8-0.4c0.2-0.1,0.3-0.1,0.2-0.3c-0.1-0.1-0.2-0.2-0.1-0.4c0.1-0.2,0.1-0.2-0.1-0.3
		c-0.3,0-0.3-0.1-0.2-0.4c0-0.1,0.1-0.3-0.1-0.3c-0.2,0-0.2-0.1-0.1-0.2c0.1-0.1,0.1-0.3,0-0.4c-0.1-0.1-0.1-0.1-0.1-0.2
		c0-0.3-0.1-0.6,0-0.8c0.2-0.3,0-0.3-0.1-0.5c-0.2-0.3-0.5-0.5-0.2-0.9c0,0,0.1-0.2,0-0.3c-0.1-0.1-0.1-0.3-0.1-0.3
		c0.2-0.1,0-0.2,0-0.3c-0.1-0.2-0.2-0.3-0.1-0.5c0-0.2,0-0.3-0.2-0.4c-0.1-0.1-0.3-0.2-0.1-0.3c0.1-0.1-0.2-0.2-0.1-0.4
		c0.2-0.2-0.1-0.5,0.2-0.7c0,0-0.2-0.1-0.2-0.3c0-0.1-0.2-0.1-0.1-0.2c0.2-0.2-0.1-0.4,0-0.4c0.2-0.2,0-0.3-0.1-0.4c0,0,0,0,0,0
		c-0.1-0.4-0.1-0.4-0.3-0.4c-0.1,0-0.2-0.1-0.3-0.1c-0.1,0-0.2,0-0.3,0c-0.1,0-0.2,0-0.3,0.1c-0.1,0.1-0.1-0.1-0.2-0.1
		c-0.1,0-0.2,0.1-0.3,0.2c-0.1,0.1-0.2,0-0.2,0c-0.1,0.1-0.2-0.2-0.3-0.1c-0.1,0.1-0.3,0-0.4,0.1c-0.2,0-0.4-0.1-0.5,0.1
		c-0.2-0.2-0.4-0.1-0.5-0.1c-0.1,0-0.2,0-0.3,0.2c0,0.1-0.1,0.1-0.3,0.1c-0.2,0-0.4-0.3-0.6-0.1c-0.2,0.2-0.3,0.1-0.4-0.1
		c-0.1-0.1-0.2-0.1-0.3,0c-0.2,0.2-0.4,0.3-0.6,0.1c-0.1-0.1-0.1,0-0.1,0c-0.2,0.2-0.3,0.2-0.5,0c0,0-0.1-0.1-0.1-0.1
		c-0.3,0.3-0.5,0-0.8-0.1c-0.1,0-0.1-0.1-0.2-0.1c-0.1,0.1-0.2,0.1-0.2,0.2c0,0.1,0,0.2-0.1,0.3c-0.1,0.2-0.1,0.5,0.1,0.7
		c0.1,0.1,0.1,0.2,0,0.2c-0.1,0.1,0,0.3-0.2,0.4c-0.1,0,0,0.2,0.1,0.2c0.1,0,0.1,0.1,0,0.1c-0.1,0.2-0.1,0.4,0,0.6
		c0.1,0.2,0.1,0.3,0,0.4c0,0-0.1,0.2,0,0.2c0.1,0.2,0.2,0.5,0.3,0.7c0,0.1,0.2,0.1,0.1,0.2c-0.2,0.1,0.1,0.2,0.1,0.3
		c0,0.1,0,0.2-0.1,0.3c-0.1,0.1,0,0.2,0.1,0.2c0.3,0.2,0.2,0.5,0.3,0.7c0,0.1-0.1,0.2-0.1,0.3c0,0.2,0.2,0.1,0.3,0.2
		c0.1,0.1,0.1,0.2,0.1,0.3c0,0.2,0.1,0.4,0.2,0.5c0.1,0.1,0.2,0.3,0.3,0.4c-0.2,0.2,0.1,0.3,0,0.5c-0.1,0.3,0.3,0.3,0.2,0.6
		c0,0.2,0.1,0.3,0.2,0.5c0.1,0.1,0,0.3,0.2,0.5c0.1,0.1,0.2,0.2,0.2,0.3c0.1,0.2,0.1,0.5,0.4,0.6c0.2,0.1,0.4,0.2,0.4,0.4
		c0,0,0.1,0.2,0.2,0.2c0.2,0,0.4,0,0.5,0c0.2,0,0.2-0.2,0.5,0c0.2,0.2,0.2-0.2,0.3-0.3c0.1-0.1,0.2,0,0.3,0c0.2,0,0.5,0.1,0.6-0.2
		c0.1-0.1,0.2-0.1,0.2,0c0.3,0.2,0.4,0,0.6-0.1c0.1-0.1,0.3-0.3,0.5,0c0,0,0.1,0,0.2,0c0.2-0.2,0.5-0.3,0.8-0.3
		C95.9,31.8,96.2,31.8,96.4,31.7z M164.9,28.1c0.1,0,0.2,0,0.2,0c0.3,0,0.5,0,0.5-0.4c0,0,0-0.1,0.1-0.1c0.4,0,0.6-0.2,0.7-0.5
		c0,0,0,0,0.1,0c0.2,0.1,0.2-0.1,0.3-0.2c0.1-0.2,0.2-0.3,0.2-0.5c0-0.1,0.1-0.2,0.2-0.2c0.4,0.1,0.3-0.2,0.3-0.4
		c0-0.1,0-0.2,0.1-0.3c0.1-0.1,0-0.2,0-0.2c0-0.4-0.3-0.6-0.4-1c-0.1-0.2-0.2-0.3-0.5-0.2c-0.1,0-0.1,0.1-0.1-0.1c0-0.1,0-0.1,0-0.2
		c0-0.2,0-0.2-0.2-0.2c-0.2,0.1-0.3,0-0.3-0.3c0-0.1,0-0.2,0.1-0.3c0-0.1,0-0.2-0.1-0.2c-0.3,0-0.6-0.4-1-0.2
		c-0.1,0-0.1-0.1-0.2-0.1c-0.3-0.2-0.3-0.2-0.5,0c-0.2,0.2-0.2,0.4-0.5,0.4c-0.3,0-0.1,0.5-0.4,0.5c0,0.2-0.2,0.2-0.3,0.3
		c-0.2,0.1,0,0.4-0.2,0.5c0,0,0,0.1,0,0.1c-0.2,0-0.3,0-0.5,0c-0.2,0.1,0,0.4-0.2,0.4c-0.1,0-0.1,0-0.2,0c-0.2,0-0.3,0.2-0.5,0.1
		c0,0.2-0.2,0.2-0.4,0.2c-0.1,0.4-0.5,0.3-0.8,0.5c-0.1,0-0.2,0-0.2,0.1c-0.1,0.3-0.3,0.4-0.5,0.6c-0.2,0.2-0.4,0.3-0.6,0.3
		c-0.1,0-0.2,0-0.3,0.1c-0.2,0.3-0.5,0.5-0.8,0.7c-0.1,0.1-0.1,0.1-0.2,0.1c-0.4-0.2-0.7,0-1.1,0.2c-0.2,0.2-0.3,0.4-0.6,0.3
		c0,0-0.1,0-0.1,0c0,0.2-0.3,0.3-0.4,0.4c0,0.1-0.1,0.2-0.1,0.3c0,0.2,0.2,0.1,0.2,0.1c0,0.1,0.2,0.1,0.1,0.2
		c-0.1,0.1-0.2,0.3-0.2,0.5c0,0.3,0.4,0.1,0.3,0.4c0,0.1,0.1,0.1,0.2,0.1c0.1,0,0.2,0,0.2-0.1c0,0,0.1-0.1,0.1,0c0,0,0,0.1,0,0.1
		c-0.1,0.1-0.2,0.2-0.3,0.3c-0.1,0.1-0.1,0.1-0.1,0.2c0.1,0.1,0.2,0.2,0.3,0.2c0.2-0.1,0.1-0.1,0.2,0.1c0.1,0.2,0,0.4,0.2,0.5
		c0.3,0.1,0.2,0.4,0.4,0.5c-0.1,0.3,0.2,0.4,0.3,0.5c0.2-0.2,0.3-0.4,0.6-0.1c0.1,0.1,0.3,0.1,0.3-0.2c0.1-0.2,0.4-0.3,0.5-0.2
		c0.2,0.1,0.3,0,0.3-0.1c0-0.1,0.1-0.3,0.2-0.3c0.3,0,0.5-0.4,0.8-0.3c0.1,0,0.1-0.1,0.2-0.1c0.2,0,0.3-0.3,0.5-0.2
		c0.2,0.1,0.3-0.2,0.5-0.2c0.3,0,0.3-0.2,0.4-0.3c0.1-0.1,0.1-0.1,0.2-0.1c0.2,0,0.3-0.2,0.6-0.1c0.1,0,0.2,0,0.2,0
		c0.1-0.3,0.5-0.4,0.6-0.7c0-0.1,0-0.1,0.1-0.1c0.3,0.1,0.4-0.2,0.7-0.3c0.3-0.1,0.6-0.2,0.8-0.5c0-0.1,0,0,0.1,0
		c0.2,0.2,0.2-0.1,0.2-0.1C164.9,28.4,164.9,28.3,164.9,28.1z M74.8,46.1c-0.6,0-0.7,0-1.1-0.2c-0.1,0-0.1,0-0.2,0
		c-0.1,0.1-0.2,0.4-0.3,0c0-0.1-0.1-0.1-0.1,0c0,0.3-0.2,0.2-0.3,0.2c-0.2,0-0.3,0.1-0.2,0.4c0,0.1-0.1,0.2-0.1,0.2
		c-0.4,0.1-0.4,0.1-0.4,0.3c0,0.3-0.2,0.4-0.4,0.5c-0.1,0-0.1,0.1-0.1,0.2c0,0.1,0,0.2,0,0.3c-0.2,0.3-0.2,0.6-0.2,0.9
		c0,0.2,0,0.3-0.2,0.4c0,0-0.5,1-0.6,1c0,0.1,0,0.1,0,0.2c0.2,0.2,0.1,0.5,0,0.7c-0.1,0.3,0.2,0.7-0.3,0.8c0,0,0,0,0,0
		c-0.1,0.2-0.2,0.7-0.1,1.1c0,0.1,0,0.1,0,0.2c-0.1,0.1-0.2,0.2-0.3,0.3c-0.1,0.1-0.1,0.3,0,0.3c0.2,0.1,0.2,0.4,0.5,0.4
		c0.2,0,0.5,0.2,0.7,0.4c0.1,0.1,0.1,0.3,0.3,0.1c0.1-0.1,0.4,0.2,0.5,0c0.1,0.4,0.3,0.3,0.6,0.1c0,0,0.1,0,0.2,0
		c0.2,0.3,0.4,0.2,0.7,0.2c0.1,0,0.3-0.1,0.3,0.1c0,0.2,0.1,0.2,0.2,0.1c0.1-0.2,0.3-0.2,0.5-0.2c0.2,0,0.3-0.1,0.5-0.2
		c0.1,0,0-0.2,0-0.3c0-0.2,0.1-0.3,0.2-0.4c0.3-0.3,0.4-0.6,0.5-1.1c0.1-0.3,0-0.6,0.1-0.9c0.1-0.3,0.1-0.5,0.3-0.8
		c0.1-0.1,0.2-0.1,0.2-0.2c-0.1-0.4,0.2-0.6,0.3-0.9c0-0.1,0-0.2,0.2-0.3c-0.1-0.1-0.1-0.2-0.2-0.3c-0.1-0.2-0.1-0.2,0.1-0.3
		c0.1,0,0.2-0.2,0.2-0.4c-0.1-0.4,0.1-0.6,0.3-0.8c-0.1-0.3-0.4-0.6-0.3-1c0-0.3-0.2-0.4-0.5-0.3c-0.1,0-0.4,0.3-0.5-0.1
		c0,0-0.1,0-0.1,0c-0.1,0.1-0.1,0.1-0.2,0C74.9,46.6,74.9,46.3,74.8,46.1z M55.2,41.1c0,0.2,0.2,0.4,0.1,0.7c0.1,0,0.3,0.2,0.4,0.2
		c0.1,0.1,0.3,0.1,0.4,0.3c0.1,0.2,0.3,0.2,0.4,0c0.1-0.1,0.2-0.2,0.2-0.1c0.1,0.3,0.2,0.2,0.4,0.1c0.1-0.1,0.4-0.1,0.4,0.2
		c0.1,0.2,0.2,0.2,0.4,0c0.2-0.2,0.3-0.1,0.4,0c0.1,0.1,0.2,0.2,0.3,0.3c0.1,0.1,0.2,0.1,0.2,0c0.1-0.1,0.2-0.2,0.2-0.3
		c0-0.4,0.4-0.4,0.6-0.7c0.1-0.2,0.3,0,0.4-0.1c0.1-0.2,0.4-0.4,0.4-0.5c0-0.3,0.4-0.5,0-0.8c-0.1,0,0-0.1,0.1-0.2
		c0.2-0.2,0.3-0.5,0.2-0.7c-0.1-0.3,0.2-0.5,0-0.8c0,0,0,0,0,0c-0.1-0.2-0.1-0.4,0-0.6c0.1-0.2,0.1-0.3,0-0.5
		c-0.1-0.3-0.2-0.6-0.3-1c-0.1-0.2,0.2-0.4,0.1-0.7c-0.1-0.2-0.4-0.1-0.5-0.5c0-0.2-0.1,0.2-0.2,0c-0.1-0.3-0.2-0.3-0.5-0.1
		c-0.1,0.1-0.2,0.1-0.2-0.1c0-0.2-0.4-0.3-0.3-0.5c-0.2,0-0.3-0.4-0.5-0.3c-0.3,0.1-0.5-0.1-0.8-0.1c-0.1,0-0.2-0.1-0.4-0.1
		c-0.4,0.1-0.6,0.3-0.7,0.7c0,0.2-0.1,0.6-0.5,0.5c0,0-0.1,0.1-0.1,0.1c-0.1,0.2-0.6,0.3-0.3,0.7c-0.2,0.1-0.2,0.3-0.4,0.4
		c-0.2,0.2-0.5,0.3-0.3,0.7c-0.1,0.2-0.2,0.5,0,0.7c0,0,0.1,0.2,0,0.2c-0.4,0.2-0.1,0.5,0,0.7c0,0.2,0.2,0.4,0.3,0.6
		c0.1,0.2,0.2,0.3,0.2,0.5c0,0.2,0,0.3,0.1,0.5c0,0,0,0.1,0,0.2C55.2,41,55.2,41.1,55.2,41.1z M80.8,33.2c-0.1,0-0.1,0-0.1-0.1
		c0,0-0.1-0.1-0.1-0.1c-0.2-0.1-0.2-0.1-0.3,0.1c0,0.1-0.1,0.2-0.2,0.2c-0.2,0-0.4,0.1-0.2,0.4c0.1,0.1,0,0.1-0.1,0.2
		c-0.1,0.1-0.2,0.1,0,0.2c0.1,0.1,0.1,0.2,0,0.3c-0.2,0.2-0.1,0.6-0.3,0.8c0,0-0.1,0.1-0.1,0.2c0.2,0.1,0.1,0.3,0.2,0.4
		c0.1,0.1,0.1,0.1,0.2,0.2c0,0.2,0.3,0.4,0,0.6c0,0,0,0.2,0,0.2c0.1,0.1,0.1,0.3,0.2,0.4c-0.2,0.1,0,0.3,0,0.4
		c0.2,0.3,0.3,0.5,0.3,0.8c0.1,0.3,0.4,0.5,0.4,0.9c0,0,0.2,0,0.2,0.1c0.2,0.3,0.5,0.5,0.7,0.7c0.1,0.1,0.1,0.2,0.3,0.2
		c0.2,0.1,0.3,0,0.5,0c0.4-0.1,0.9-0.1,1.4-0.4c0,0,0.1,0,0.2,0c0,0,0.7-0.1,0.7-0.1c0.1-0.3,0.4-0.3,0.6-0.5
		c0.2-0.1,0.3-0.4,0.2-0.5c-0.2-0.3-0.1-0.6,0.1-0.9c0.1-0.2,0-0.5,0.2-0.7c0,0-0.1-0.2-0.3-0.2c0,0,0-0.1-0.1-0.1
		c0-0.4,0.1-0.7-0.1-1.1c0.2-0.3,0.1-0.6-0.2-0.8c-0.2-0.2-0.3-0.4-0.1-0.6c0.1-0.1,0.1-0.4-0.1-0.5c-0.2-0.1-0.4-0.2-0.4-0.4
		c0-0.2-0.4-0.2-0.3-0.5c0,0-0.1-0.1-0.1-0.1c-0.1,0-0.3,0-0.3-0.1c-0.2-0.5-0.6-0.5-1-0.5c-0.1,0.2,0,0.3-0.1,0.5
		c-0.1-0.1-0.3-0.3-0.5-0.2c-0.1,0,0,0.2-0.1,0.2c-0.1,0-0.1-0.1-0.2-0.1c-0.2,0.2-0.4,0.2-0.7,0.1c-0.1,0-0.2,0-0.3,0.1
		C80.8,33,80.8,33.1,80.8,33.2z M135,24.4c-0.1,0-0.2,0-0.3,0c-0.2,0.1-0.3,0.2-0.5,0.4c-0.2,0.1-0.5,0-0.6,0.2
		c-0.1,0.1-0.1,0.3-0.3,0.3c-0.3,0.1-0.3,0.3-0.3,0.5c0,0.2,0,0.4-0.2,0.5c-0.3,0.2-0.4,0.5-0.5,0.9c-0.1,0.3-0.2,0.6-0.5,0.8
		c-0.1,0-0.1,0.1-0.1,0.2c0.1,0.3-0.1,0.4-0.3,0.5c-0.1,0.1-0.2,0.2-0.1,0.4c0,0,0,0.1,0,0.2c-0.1,0.3-0.1,0.3-0.1,0.4
		c0.3,0.1,0.3,0.4,0.4,0.7c0.1,0.2,0.1,0.3,0.3,0.5c0.2,0.1,0.4,0.3,0.4,0.6c0,0.1,0.2,0.3,0.4,0.1c0.1-0.1,0.2-0.1,0.2,0.1
		c0,0.1,0,0.2-0.1,0.3c-0.1,0.1-0.1,0.2,0.1,0.2c0.1,0,0.2,0.1,0.3,0.1c0.1,0,0,0.2,0.2,0.2c0.2,0-0.1,0.2,0,0.2
		c0.1,0,0.1,0.2,0.2,0c0.1-0.1,0.2-0.3,0.4-0.3c0.3,0,0.7,0,0.8-0.5c0-0.1,0.1-0.1,0.2-0.1c0.2,0,0.2-0.1,0.3-0.2
		c0-0.1,0.1-0.1,0.2-0.2c0.2-0.2,0.5-0.4,0.4-0.7c0-0.1,0.1-0.1,0.1-0.1c0.2-0.3,0.4-0.6,0.7-0.9c0,0,0-0.1,0-0.1
		c-0.1-0.3,0.3-0.4,0.3-0.7c0.3-0.2,0.2-0.7,0.5-0.9c0,0,0-0.1,0-0.2c0-0.5,0-1,0-1.4c0-0.4,0-0.4,0.1-0.6c0.1-0.2-0.2-0.5-0.3-0.4
		c-0.1,0.1-0.3,0-0.4,0.1c-0.2,0.1-0.3,0.1-0.3-0.1c0-0.1,0-0.2,0.1-0.3c0.1-0.1-0.1-0.2-0.1-0.2c-0.1,0-0.3,0-0.3-0.2
		c-0.3-0.1-0.6-0.2-0.8-0.5c0,0-0.1,0-0.1,0C135.4,24.7,135.2,24.3,135,24.4z M106.4,35.6c-0.1-0.2,0.1-0.4-0.1-0.6
		c-0.2-0.2,0.1-0.3,0.1-0.5c0-0.1,0-0.1-0.1-0.2c-0.1-0.1-0.1-0.2,0-0.3c0.2-0.3,0-0.3-0.2-0.4c-0.2-0.1-0.5-0.2-0.6-0.5
		c0-0.1-0.1-0.1-0.2-0.1c-0.2,0-0.4-0.1-0.6,0.1c0,0-0.2,0-0.1,0c0-0.3-0.4-0.1-0.5-0.3c0,0-0.1,0-0.1,0.1c0,0.2-0.2,0.3-0.4,0.2
		c-0.1,0-0.2-0.1-0.3-0.2c-0.1,0.1-0.2,0.1-0.3,0c-0.1-0.1-0.3-0.1-0.3,0.1c0,0.1-0.2,0.3-0.3,0.2c-0.3-0.2-0.3,0-0.4,0.2
		c-0.1,0.2-0.3,0.2-0.4,0.3c-0.1,0.1,0.1,0.4-0.1,0.5c-0.1,0.2,0.1,0.4-0.2,0.5c0.1,0.3-0.3,0.4-0.3,0.6c0,0.2-0.1,0.4-0.2,0.6
		c0,0.1-0.1,0.1-0.1,0.2c0.2,0.2,0.1,0.4-0.1,0.5c-0.1,0.1-0.1,0.2,0.1,0.2c0.1,0,0.1,0,0.1,0.1c0,0.2,0.1,0.3,0,0.5
		c-0.1,0.2-0.1,0.4,0,0.5c0.2,0.1,0.1,0.3,0.1,0.4c0.1,0.2,0.2,0.1,0.4,0.1c0.1,0,0.2,0,0.2,0.1c0,0.3,0.1,0.5,0.4,0.5
		c0.1,0,0.1,0.2,0.2,0.3c0.1,0.1,0.2-0.2,0.3,0c0.1,0.1,0.2,0.1,0.3,0.1c0.1,0,0.1,0,0.2,0.1c0,0.2,0,0.2,0.2,0.1
		c0.2-0.2,0.5-0.2,0.7,0c0.3,0.2,0.6,0.3,0.9,0.1c0.2-0.1,0.4-0.2,0.6-0.2c0.3-0.1,0.6-0.5,0.5-0.8c0-0.1-0.1-0.2,0-0.3
		c0.2-0.1,0.3-0.2,0.2-0.4c-0.1-0.1-0.1-0.1,0-0.2c0.1-0.1,0-0.3,0.1-0.3c0.2-0.1-0.1-0.3,0-0.3c0.1-0.2,0.1-0.4,0.1-0.6
		c0-0.2,0.2-0.3,0.1-0.5C106.2,36,106.5,35.8,106.4,35.6z M45.1,44.5c-0.2,0-0.3,0-0.5,0c-0.2,0-0.1-0.3-0.3-0.3
		c-0.1,0-0.1-0.2-0.2-0.2c-0.2,0-0.3-0.1-0.4-0.3c-0.1-0.2-0.3-0.2-0.5-0.3c-0.2-0.1-0.1-0.5-0.4-0.5c-0.2-0.1-0.3-0.2-0.4-0.4
		c0-0.1-0.1-0.2-0.2-0.1C42,42.4,42,42.3,41.9,42c0-0.1-0.1-0.4-0.4-0.3c-0.3,0.1-0.3-0.2-0.4-0.3c-0.1-0.1,0-0.2-0.1-0.3
		c-0.3-0.1-0.4-0.5-0.6-0.6c-0.1-0.1-0.3-0.1-0.3-0.3c0-0.2-0.4-0.1-0.3-0.3c-0.3,0-0.2-0.2-0.2-0.4c0-0.1-0.1-0.2-0.2-0.2
		c-0.2,0-0.4,0-0.4-0.2c-0.1-0.3-0.4,0-0.5-0.3c0-0.1,0-0.1,0-0.2c0-0.1,0-0.1-0.1-0.2c-0.2-0.1-0.3-0.3-0.3-0.5
		c-0.1-0.2-0.2-0.5-0.5-0.4c-0.1,0-0.2-0.1-0.2-0.2c0-0.2-0.1-0.3-0.3-0.3c-0.2,0-0.3-0.1-0.4-0.2c-0.1-0.1-0.1-0.2-0.2-0.3
		c0,0-0.1,0-0.1,0c-0.1,0-0.1,0-0.1,0.1c0,0.1,0,0.2,0,0.2c0.2,0.1,0.2,0.4,0.3,0.5c0.2,0.3,0.2,0.3,0.2,0.9c0,0,0.1,0.1,0.1,0.1
		c0,0.3,0.3,0.5,0.5,0.7c0,0,0.2,0,0.2,0.1c0,0.2,0.2,0.3,0.3,0.5c0.1,0.1,0.1,0.2,0.1,0.2c-0.2,0.2-0.1,0.2,0.1,0.3
		c0.2,0.1,0.3,0.2,0.3,0.5c0,0.1,0,0.2,0.1,0.2c0.3,0.1,0.4,0.4,0.5,0.7c0,0.1,0.1,0.2,0.2,0.3c0.2,0.1,0.4,0.1,0.1,0.4
		c0,0,0,0.1,0,0.2c0.2,0.2,0.3,0.4,0.6,0.5c0.2,0,0.2,0.2,0.3,0.3c-0.3,0.3,0.1,0.4,0.1,0.6c0.1,0.3,0.3,0.4,0.5,0.5
		c0.1,0.1,0.3,0.3,0.2,0.4c0,0.1,0,0.2,0.1,0.3c0.1,0.1,0.2,0.1,0.1,0.2c0,0.1,0,0.2,0.2,0.2c0.4,0.1,0.6,0.4,0.8,0.7
		c0,0.1,0.1,0.1,0.2,0.1c0.2-0.2,0.4-0.5,0.6-0.3c0.2,0.1,0.3,0,0.4,0c0.2-0.2,0.6,0,0.8-0.3c0,0,0.2,0,0.2,0c0.1,0.2,0.3,0,0.4,0
		c0.2,0.2,0.3-0.1,0.5-0.1c0.1,0,0.2-0.3,0.3-0.4c0,0-0.1-0.2-0.3-0.2c-0.1,0-0.2-0.1-0.1-0.2C45.1,44.7,45.1,44.7,45.1,44.5z"/>
	<path d="M124.7,8.6c0-0.2,0.2-0.3,0.2-0.5c0-0.1,0.2-0.3-0.1-0.4c-0.2-0.1-0.1-0.3,0-0.5c0.1-0.2,0.2-0.3,0.3-0.5
		c0.1-0.2,0.2-0.4,0.2-0.6c0-0.1,0-0.1,0.1-0.1c0.1,0,0.2-0.1,0.2-0.2c0-0.2,0-0.5,0.1-0.7c0.1-0.1-0.2-0.3,0-0.4
		c0.2-0.1,0-0.3,0.1-0.5c0.1-0.2,0.2-0.4,0.5-0.5c0.3-0.1,0.6-0.3,0.6-0.7c0,0,0-0.1,0-0.1c0.3,0,0.6-0.4,1-0.3
		c0.3,0.2,0.5,0,0.7-0.1c0.1-0.1,0.2-0.1,0.3-0.1c0.4,0.2,0.6,0.2,1-0.1c0.1-0.1,0.3-0.2,0.3,0.1c0,0.1,0.1,0.1,0.2,0.1
		c0.1,0,0.2,0,0.3,0.1l0.3,0.5c0,0.2,0.1,0.3,0.3,0.3c0.2,0,0.2,0.1,0.3,0.2c0.2,0.1,0.5,0.2,0.4,0.6c0,0.1,0,0.1,0.1,0.1
		c0.2,0,0.1,0.1,0.1,0.2c0,0.2-0.1,0.4,0.2,0.6c0.1,0.1,0,0.1,0,0.2c-0.1,0.2-0.3,0.5,0,0.7c0,0,0,0.1-0.1,0.2
		C132,6.6,132,6.6,132,6.9c0,0.2,0.1,0.4-0.2,0.5c0,0.2-0.2,0.2-0.1,0.4c0,0.1,0.3,0.2,0.1,0.4c-0.1,0.1-0.2,0.1-0.2,0.3
		c0,0.2-0.4,0.3-0.1,0.5c-0.1,0.1-0.1,0.2-0.2,0.2c-0.1,0-0.3,0.1-0.3,0.2c0.1,0.3-0.2,0.4-0.4,0.5c-0.1,0-0.1,0.1,0,0.2
		c0.1,0.1,0.1,0.2,0,0.3c-0.1,0.1-0.2,0.2-0.1,0.4c0,0,0,0.1-0.1,0.1c-0.1,0.1-0.2,0.2-0.1,0.4c0.1,0.1,0,0.2-0.2,0.3
		c-0.2,0-0.5,0.1-0.5,0.4c0,0.1-0.2,0.3-0.4,0.1c-0.1-0.1-0.1,0.1-0.2,0.1c-0.1,0.2-0.3,0.2-0.5,0.2c-0.2,0-0.4,0.1-0.6,0.2
		c-0.1,0-0.2,0.1-0.2,0.1c-0.4,0.2-0.4,0.2-0.6-0.2c-0.1-0.2-0.3-0.4-0.4-0.6c0-0.1-0.3-0.3-0.4-0.3c-0.1,0-0.2-0.1-0.3-0.2
		c-0.1-0.3-0.2-0.5-0.5-0.5c-0.2,0-0.1-0.1-0.1-0.2c0-0.2,0-0.4-0.2-0.5c-0.2-0.2-0.3-0.4-0.3-0.6c0-0.2,0.1-0.4-0.2-0.5
		C124.7,8.8,124.7,8.7,124.7,8.6z"/>
	<path d="M56.6,20.4c-0.1,0-0.1,0-0.2-0.1c-0.2-0.1-0.4-0.2-0.7-0.2c-0.2,0.1-0.4,0.1-0.6,0.2c-0.1,0.1-0.2,0.1-0.4,0.1
		c-0.1,0-0.2,0.1-0.3-0.1c0-0.1,0-0.2-0.1-0.2c-0.1-0.1-0.1-0.3-0.2-0.3c-0.2,0-0.4-0.1-0.5,0c-0.2,0.2-0.3,0-0.4-0.1
		c0-0.1,0-0.2-0.1-0.3c-0.2-0.4-0.2-0.4-0.5-0.6c-0.3-0.2-0.3-0.2-0.2-0.5c0-0.1,0.1-0.2-0.1-0.2c-0.2-0.1-0.4-0.1-0.2-0.4
		c0.1-0.2,0.1-0.4-0.2-0.5c-0.1,0-0.1-0.1,0-0.2c0.1-0.3,0.2-0.6,0.2-0.9c0-0.1,0-0.2,0.1-0.3c0.3-0.1,0.1-0.3,0-0.4
		c-0.1-0.2-0.2-0.3,0-0.5c0.1-0.1,0.2-0.3,0.3-0.4c0.2-0.3,0.3-0.6,0.1-0.9c-0.1-0.2,0-0.3,0.1-0.3c0.3-0.1,0.4-0.3,0.3-0.6
		c0-0.1,0.1-0.3,0.2-0.3c0.4-0.1,0.6-0.4,0.9-0.6c0.2-0.1,0.3-0.2,0.5-0.2c0.1,0,0.1-0.3,0.3-0.1c0,0,0.1-0.1,0.1-0.1
		c0,0,0.1-0.1,0.1-0.1c0.1,0,0.1,0.1,0.2,0.1c0.1,0,0.1,0.1,0.2,0.1c0.1,0.1,0.2-0.2,0.2-0.1c0.1,0.3,0.2,0.2,0.3,0.1
		c0.2,0.2,0.5-0.1,0.7,0.2c0.1,0.1,0.1,0.2,0.3,0.1c0,0,0.1,0.2,0.3,0.2c0.2,0,0.4,0.2,0.4,0.3c0.1,0.3,0.1,0,0.2,0
		c0.1,0,0.2,0,0.2,0.1c0,0.1,0.1,0.1,0.2,0.1c0,0,0.1-0.1,0.1-0.1c0,0,0,0.1,0,0.2c-0.1,0.1-0.1,0.2,0,0.3c0.1,0.2,0.2,0.4,0.4,0.6
		c0.2,0.2,0.1,0.3,0,0.5c-0.1,0.1-0.2,0.3-0.1,0.5c0.1,0.3,0,0.6-0.1,0.8c-0.2,0.3-0.1,0.5,0.1,0.7c0.1,0.1,0.2,0.2,0,0.4
		c-0.1,0.1-0.1,0.1-0.1,0.2c0,0.3,0,0.6-0.1,0.7c-0.2,0.2-0.2,0.4-0.2,0.6c0,0.2,0,0.3-0.2,0.3c-0.2,0.1-0.3,0.2-0.2,0.5
		c0,0.1,0,0.2-0.1,0.2c-0.1,0-0.3,0.1-0.1,0.3c0,0,0,0,0,0.1c-0.2,0.2-0.3,0.4-0.5,0.5C57,20,56.9,20,56.8,20.2
		C56.8,20.3,56.7,20.4,56.6,20.4z"/>
	<path d="M27.4,15.6c0.1,0.2,0,0.3,0.1,0.5c0.2-0.1,0.2-0.3,0.3-0.4c0.2-0.2,0.4-0.2,0.5,0.1c0,0,0,0.1,0,0.1c0,0.1,0.1,0.1,0.2,0.2
		c0,0,0.1-0.1,0.1-0.1c0.3-0.1,0.4-0.4,0.5-0.6c0.2,0,0.2,0.2,0.4,0.2c0.1,0,0.3,0,0.3,0.2c0,0.1,0.1,0,0.1,0
		c0.2-0.1,0.4-0.1,0.5,0.2c0,0,0.1,0.2,0.2,0.1c0.2-0.3,0.2,0,0.3,0.1c0.1,0.1,0.3,0.1,0.3,0.4c0,0.1,0.2,0.1,0.2,0.1
		c0.1,0.1,0.2,0.1,0.2,0.1c0,0.1,0.1,0.3,0,0.3c-0.2,0.2-0.1,0.4,0.1,0.5c0.1,0.1,0.1,0.2,0,0.4c-0.1,0.2-0.1,0.4,0.1,0.6
		c0.1,0.1,0.1,0.2,0,0.3c-0.2,0.2,0.2,0.4,0.1,0.5c-0.1,0.2-0.1,0.4-0.1,0.6c0,0,0.1,0.1,0.1,0.1c0.2,0.2,0.2,0.4,0.1,0.6
		c-0.1,0.2-0.1,0.3,0,0.5c0.1,0.1,0.1,0.1,0,0.2c-0.3,0.2,0,0.3,0.2,0.5C32.1,21.9,32,22,31.9,22c-0.4,0.3-0.6,0.6-0.5,1.1
		c-0.1,0.1-0.1,0.1-0.2,0.1c-0.3,0-0.5,0.1-0.6,0.4c0,0.1-0.1,0.1-0.2,0.2c-0.1,0.1-0.2,0.2-0.3,0c-0.3,0.2-0.6,0-0.9-0.1
		c-0.1-0.1-0.2,0-0.2,0.1c-0.3,0.3-0.7,0.2-1,0.2c-0.1,0-0.2-0.1-0.2-0.2c0-0.1-0.1-0.2-0.2-0.3c-0.1-0.1-0.1-0.2-0.3,0
		c-0.1,0.1-0.2-0.1-0.3-0.2c-0.1-0.2-0.2-0.4-0.4-0.5c-0.2-0.1-0.2-0.4-0.5-0.5c-0.2-0.1-0.3-0.4-0.2-0.6c0-0.3-0.2-0.5-0.4-0.7
		c-0.1-0.1-0.2-0.2-0.3-0.3c-0.1-0.1-0.1-0.1-0.1-0.2c-0.1-0.1,0.2-0.2,0.1-0.3c-0.2-0.2,0.1-0.2,0.1-0.3c0.1-0.1,0.1-0.2,0-0.3
		c-0.2-0.2-0.1-0.4,0-0.5c0.2-0.3,0.2-0.7,0.1-1.1c-0.1-0.2,0-0.4,0.1-0.4c0.3,0,0.4-0.2,0.5-0.4c0.1-0.2,0.4-0.3,0.3-0.6
		c0,0,0-0.1,0.1-0.1c0.3-0.3,0.3-0.3,0.3-0.7C27,15.9,27.3,15.9,27.4,15.6z"/>
	<path d="M83.6,7.9c0.5-0.3,0.6-0.9,0.9-1.3c0,0,0,0,0-0.1c0-0.2,0.2-0.1,0.3-0.2c0.1,0.1,0.1,0.1,0.3,0.3c0-0.3,0.1-0.5,0.3-0.6
		c0.1,0.1,0.2,0.2,0.3,0.2c0.1,0.1,0.3,0,0.3-0.2c0-0.1,0-0.2,0-0.2c0-0.1,0-0.2,0.1-0.2c0.1,0,0.2,0,0.2,0.1c0,0.2,0.1,0.1,0.2,0.1
		C86.5,6,86.6,6,86.6,5.9c0-0.2,0.1-0.3,0.2-0.3c0.2,0,0.2-0.1,0.2-0.2c0-0.1,0.1-0.2,0.1-0.1c0.2,0.1,0.3,0.1,0.4,0
		c0.1,0.2,0.3,0,0.4,0.2c0,0.1,0.1,0.1,0.2,0c0.2-0.2,0.3,0,0.3,0.1c0,0.3,0.2,0.3,0.3,0.5C88.8,6.1,89,6,89,6.1
		c0,0.1,0.1,0.3,0,0.4c-0.2,0.2,0,0.3,0.1,0.3c0.4,0,0.3,0.3,0.4,0.5c0.1,0.2,0,0.4,0.3,0.5c0.2,0.1,0.2,0.4,0.4,0.6
		c0.1,0.1,0,0.1,0,0.1c0,0-0.1,0.1-0.1,0.1c-0.1,0.1-0.1,0.2-0.1,0.4c0,0.2,0.2,0.1,0.3,0.2c0.1,0.1,0.2,0.2,0.2,0.3
		c0,0,0.1,0.1,0.1,0.1c0.1,0.2-0.3,0.4,0,0.5c0.2,0.1,0,0.4,0.2,0.5c0,0,0,0.1,0,0.2c-0.2,0.1-0.2,0.3-0.1,0.5c0,0.1,0.1,0.2,0,0.3
		c-0.1,0.1-0.1,0.2,0,0.2c0.1,0.1,0.1,0.2,0,0.2c-0.2,0.2-0.3,0.4-0.5,0.6c-0.2,0.1-0.1,0.5-0.4,0.5c-0.2,0-0.3,0.4-0.6,0.2
		c0,0-0.1,0,0,0.1c0.1,0.1,0.1,0.1,0.1,0.2c-0.2,0.1-0.3,0.4-0.5,0.4c-0.2,0-0.4,0.2-0.6,0c-0.1-0.1-0.2,0-0.4,0
		c-0.1,0-0.2,0-0.3-0.1c-0.3-0.3-0.7-0.2-1.1-0.4c0,0-0.1,0-0.2,0c-0.1,0.1-0.2,0.1-0.3,0c-0.1,0-0.2-0.2-0.4,0
		c-0.1-0.1-0.2-0.1-0.2-0.3c0.1-0.4-0.2-0.5-0.5-0.7c0,0-0.2-0.3-0.2-0.3c0-0.2-0.1-0.3-0.2-0.3c-0.2-0.1-0.3-0.2-0.1-0.4
		c0.2-0.3,0.2-0.7-0.1-0.9c-0.2-0.2-0.3-0.4-0.1-0.6c0.1-0.1,0-0.1,0-0.1c-0.1-0.1-0.1-0.2,0.1-0.2c0.3,0,0.3-0.2,0.3-0.4
		c0-0.3-0.1-0.5-0.1-0.8C84.1,8.3,83.9,8.2,83.6,7.9z"/>
	<path d="M165.2,5.4c0,0.1,0.1,0.2,0.1,0.2c0,0.1,0.1,0.2,0.2,0c0-0.1,0.1-0.1,0.1-0.1c0.1-0.1,0.2-0.2,0.3,0.1
		c0,0.1,0.2,0.1,0.2,0.1c0-0.2,0.1-0.2,0.3-0.2c0.1,0,0.2,0,0.3,0c0.1-0.1,0.3-0.2,0.4-0.2c0.2,0,0,0.3,0.2,0.4c0,0,0.1,0.1,0.1,0.1
		c0.1,0,0-0.2,0.1-0.2c0.1,0,0.1-0.1,0.2,0c0.1,0.1,0.2,0.1,0.3,0c0.1-0.2,0.3,0.1,0.5,0c0-0.1,0.2,0.1,0.2,0.2
		c0,0.3,0.1,0.6,0.3,0.9c0,0,0.1,0.7,0.1,0.7c-0.1,0.2,0,0.4,0.2,0.6c0.3,0.2,0.3,0.6,0.3,0.9c0,0.1,0,0.1,0,0.2
		c-0.2,0.2-0.3,0.4-0.1,0.6c0,0,0,0.1,0,0.1c0,0.2-0.3,0.3,0,0.5c0.1,0.1,0,0.4,0.2,0.5c0.1,0.1,0,0.3-0.1,0.4
		c-0.2,0.1-0.3,0.3-0.2,0.6c0,0.1,0,0.2,0,0.4c0,0.1-0.2,0.1,0,0.2c0.1,0.1,0,0.1-0.1,0.2c-0.1,0.1-0.2,0.2-0.2,0.3
		c-0.1,0.2,0.2,0.5-0.2,0.5c-0.2,0-0.3,0.2-0.5,0.3c-0.3,0.1-0.6,0.4-0.8,0.7c-0.1,0.2-0.2,0.1-0.3,0.1c0,0-0.1,0-0.1-0.1
		c0.1-0.2,0-0.2-0.2-0.2c-0.2,0.1-0.3,0-0.5,0c-0.3-0.1-0.6-0.3-0.8-0.2c-0.3,0.2-0.5-0.2-0.7,0.1c0,0-0.1,0-0.1-0.1
		c0-0.2-0.2-0.2-0.4-0.3c-0.1,0-0.4,0-0.4-0.3c0-0.1-0.1-0.1-0.1-0.1c-0.2,0-0.2-0.1-0.2-0.2c0-0.2,0-0.4,0-0.5
		c0-0.2,0.1-0.5-0.3-0.6c-0.2,0-0.1-0.3-0.1-0.4c0.2-0.2,0-0.4,0-0.6c0-0.2,0.1-0.4-0.2-0.5c-0.1-0.1-0.1-0.1,0-0.2
		c0.1-0.1,0.1-0.2,0.2-0.3c0.1-0.2,0.1-0.3,0-0.5c0,0,0-0.1,0-0.2c-0.2-0.4-0.1-0.5,0.2-0.6c0.2,0,0.3,0,0.4-0.3
		c0-0.1,0.1-0.2,0-0.3c-0.1-0.1-0.1-0.1-0.1-0.2c0.3-0.3,0.1-0.7,0-1c0-0.2,0-0.4,0.2-0.4c0.3,0,0.4-0.2,0.5-0.4
		c0-0.1,0-0.2,0.2-0.2C164.9,5.7,165.1,5.6,165.2,5.4z"/>
	<path d="M103.6,1.1c0.1-0.1,0-0.3,0.2-0.4c0.1-0.1,0.2-0.1,0.3,0c0,0.2,0.1,0.1,0.2,0.1c0.1-0.1,0.1-0.3,0.3-0.4
		c0.1,0.1,0.1,0.1,0.2,0.2c0.1,0.1,0.1,0.1,0.1,0c0-0.1,0-0.1,0.1-0.1c0.3,0.1,0.5-0.2,0.7-0.3c0.1-0.1,0.3-0.2,0.3,0.1
		c0,0.1,0.2,0.1,0.2,0c0.1-0.2,0.1-0.2,0.2-0.1c0.2,0.2,0.4,0.5,0.7,0.5c0,0,0.1,0.1,0.1,0.2c0,0.3,0.1,0.4,0.3,0.6
		c0.1,0.1,0.1,0.2,0.1,0.3c0,0.4,0.1,0.7,0.4,1c0.1,0.1,0.1,0.2,0,0.4c-0.1,0.2-0.1,0.3,0.1,0.5c0.1,0.1,0.1,0.1,0,0.2
		c-0.1,0.1,0,0.1,0,0.2c0.2,0.1,0.2,0.3,0.1,0.5c-0.1,0.2,0,0.5-0.2,0.7c0,0,0,0,0,0.1c0.1,0.1,0.4,0,0.2,0.3
		c-0.1,0.1,0,0.3-0.2,0.4c-0.1,0.1,0,0.3-0.2,0.4c-0.2,0.1-0.3,0.3-0.4,0.6c-0.1,0.3-0.4,0.6-0.6,1c-0.1,0.2-0.3,0.3-0.4,0.1
		c-0.2-0.1-0.3-0.1-0.4,0.1c-0.1,0.1-0.3,0.1-0.3,0.2c-0.1,0.2-0.3,0.2-0.4,0.1c-0.1-0.1-0.2-0.1-0.3,0c-0.1,0-0.3,0.2-0.4,0.2
		c-0.1,0-0.2-0.1-0.4,0c-0.4,0.2-0.5,0.2-0.7-0.3c-0.2-0.3-0.3-0.6-0.5-0.9c-0.2-0.3-0.4-0.6-0.8-0.8c-0.2-0.1-0.5-0.3-0.2-0.6
		c0-0.3,0.1-0.6-0.2-0.8c-0.1-0.1-0.1-0.2,0-0.2c0.1-0.1,0.2-0.2,0.3-0.3c0.1-0.1,0.2-0.1,0.1-0.2c-0.1-0.3,0.2-0.6,0.1-1
		c0-0.1,0-0.2,0.1-0.2c0.2-0.1,0.1-0.2,0-0.3c-0.1,0-0.1-0.1-0.2-0.1c-0.2-0.1-0.2-0.2-0.1-0.4c0.1-0.1,0.2-0.2,0.3-0.3
		c0.1-0.1,0.1-0.2,0.1-0.3c0-0.3,0.3-0.7,0.5-0.7c0.1,0,0.2,0,0.3,0C103.5,1,103.5,1.1,103.6,1.1z"/>
	<path d="M100.8,54.3c0.2,0,0.4-0.1,0.6,0.1c0.1,0.1,0.2-0.2,0.4-0.1c0.2,0.2,0.2,0,0.3-0.1c0.2,0,0.3-0.3,0.5-0.1
		c0.1,0.1,0.3-0.1,0.3-0.2c0-0.1,0-0.2,0.2-0.2c0.3-0.1,0.5-0.4,0.8-0.5c0.1,0,0.1-0.1,0.2-0.1c0.3-0.1,0-0.4,0.3-0.4
		c0.2,0,0.3-0.1,0.4-0.3c0.1-0.1,0.5-0.2,0.4-0.4c0-0.3,0.3-0.3,0.3-0.6c0-0.1,0.2-0.2,0.3-0.4c0.1-0.2,0.4-0.1,0.5-0.3
		c0.1-0.2-0.1-0.4,0.1-0.6c0,0,0.1-0.1,0.1-0.1c0.1,0.3-0.1,0.6,0.2,0.8c0.1,0.1-0.2,0.3,0,0.5c0.1,0.1,0.2,0.3,0.3,0.4
		c0.1,0.1,0.1,0.2,0.1,0.4c-0.1,0.3,0,0.7,0.2,1c0.1,0.1,0.1,0.2,0,0.3c-0.1,0.3-0.3,0.5-0.1,0.8c0,0.3,0.1,0.6-0.1,0.9
		c-0.1,0.2,0.2,0.3,0,0.5c-0.2,0.2,0.2,0.3,0.1,0.5c0.2,0.3,0.1,0.7,0.1,1.1c0,0.2-0.2,0.1-0.3,0.1c-0.1,0-0.2-0.1-0.3,0
		c-0.1,0.2-0.2,0.3-0.4,0.2c-0.2,0-0.3,0-0.5,0c-0.1,0-0.2,0-0.2,0c-0.4,0.4-1,0-1.4,0.5c0,0-0.1,0-0.2,0c-0.4-0.3-0.5,0.2-0.8,0.2
		c0,0-0.1,0.1-0.1,0.2c0,0.1,0,0.1-0.1,0c-0.3-0.2-0.5,0-0.7,0.2c-0.1,0.1-0.3,0.2-0.5,0.1c-0.1-0.1-0.1,0-0.1,0
		c-0.1,0.1-0.2,0.3-0.3,0.2c-0.1-0.1-0.4-0.1-0.4-0.4c0-0.1-0.2-0.2,0-0.3c0.1-0.1-0.2-0.2,0-0.3c0.2-0.1-0.1-0.2,0-0.4
		c0.1-0.1,0.1-0.2,0-0.4c-0.1-0.1,0.1-0.2,0-0.3c0,0,0-0.1,0-0.2c0-0.2,0.2-0.4,0-0.7c-0.1-0.2,0-0.5-0.1-0.7c-0.1-0.1,0-0.4,0-0.5
		C100.9,54.4,100.8,54.4,100.8,54.3z"/>
	<path d="M157.2,7.7c0.1,0,0.2,0,0.3,0c0.4,0,0.4,0,0.4,0.4c0,0.1,0.1,0.2,0.2,0.3c0.1,0.1,0.1,0.3,0.3,0.3
		c-0.1,0.2,0.1,0.3,0.2,0.5c0.1,0.1-0.1,0.3-0.1,0.3c0.3,0.1,0.1,0.4,0.1,0.5c0,0.1,0,0.1,0,0.2c0.2,0.1,0.3,0.3,0.2,0.6
		c0,0.2,0,0.4,0.1,0.5c0,0.1,0,0.1-0.1,0.2c-0.2,0.2-0.4,0.4-0.2,0.7c0.1,0.1,0,0.2-0.1,0.2c-0.2,0.1-0.3,0.2-0.3,0.4
		c0,0.1,0,0.2,0,0.3c0,0.1,0,0.2-0.1,0.2c-0.1,0-0.2,0.1-0.2,0.1c-0.2,0.1-0.4,0.2-0.3,0.5c0,0.2-0.2,0.3-0.3,0.4c0,0-0.1,0-0.2,0
		c-0.1-0.1-0.2-0.1-0.3,0c-0.1,0.1-0.2,0-0.3-0.1c-0.1-0.1-0.3-0.2-0.3,0.1c0,0.1-0.1,0.1-0.2,0.1c-0.2-0.2-0.3-0.1-0.4,0
		c-0.2,0.2-0.3,0.2-0.4-0.1c-0.3,0-0.5-0.3-0.8-0.3c-0.3,0-0.4-0.2-0.2-0.4c0.2-0.2-0.3-0.4,0-0.6c-0.2-0.1,0.1-0.5-0.3-0.5
		c-0.1-0.2-0.2-0.3-0.2-0.5c0-0.2,0.1-0.5-0.2-0.7c0,0,0-0.1,0-0.2c0.1-0.1,0.1-0.2,0-0.3c-0.1-0.1,0-0.1,0-0.2c0.1-0.2,0-0.4,0-0.6
		c0-0.2,0.1-0.4,0.1-0.6c-0.1-0.3,0-0.5,0.2-0.8c0.2-0.2,0.4-0.4,0.5-0.7c0-0.1,0.1-0.1,0.2-0.1c0.2,0,0.4-0.1,0.2-0.4
		c0,0,0-0.1,0-0.1c0.3,0,0.4-0.2,0.5-0.4c0-0.1,0.1-0.1,0.1,0c0,0.1,0,0.1,0.1,0.1c0.3,0,0.5,0,0.8,0c0.2,0,0.3,0,0.5,0
		c0.3-0.1,0.3,0.1,0.3,0.3C157.2,7.6,157.2,7.6,157.2,7.7z"/>
</g>
</svg>
