<?xml version="1.0" encoding="utf-8"?>
<!-- Generator: Adobe Illustrator 27.6.1, SVG Export Plug-In . SVG Version: 6.00 Build 0)  -->
<svg version="1.1" id="Ebene_1" xmlns="http://www.w3.org/2000/svg" xmlns:xlink="http://www.w3.org/1999/xlink" x="0px" y="0px"
	 viewBox="0 0 91.1 93.8" fill="#fff" style="enable-background:new 0 0 91.1 93.8;" xml:space="preserve">
<g>
	<path d="M36,81.8c-0.5,1.2-1.4,0.3-2,0.3c-0.2,0-0.5-0.7-0.5-1.1c-0.2-1.3-0.4-2.6-0.4-3.9c0-1.2,0.2-2.3,0.3-3.5
		c0-0.3,0-0.6,0-0.9c0-0.5,0-0.9,0-1.4c0-1.4,0-2.7,0-4.1c0-0.5,0.2-1,0.3-1.6c0.1-1.2,0.1-2.4,0.1-3.6c0-1.1-0.1-2.3-0.1-3.4
		c0-1.7,0-3.4,0.1-5.1c0.1-1.8,0.2-3.6,0-5.5c0-0.1,0-0.3,0-0.4c0.7-1.1,0-1.6-0.9-1.9c-0.7-0.3-1.5-0.5-2.2-0.6
		c-0.6-0.1-1.9-1.4-1.9-2.1c-0.1-1.2-0.3-2.5,0-3.7c0.2-1.1,0.1-2.3,0.9-3.2c-0.6-1.2,1-2.1,0.4-3.3c0-0.1,0-0.2,0-0.3
		c0.5-1.2,1-2.4,1.5-3.6c0.4-1,0.8-2.1,1.2-3.2c0.2-0.4,0.4-0.7,0.7-1.1c0.3-0.6,0.7-1.1,0.9-1.8c0.2-0.6,1.6-1.9,2.3-2
		c0.3,0,0.7,0,0.8-0.2c0.8-0.8,1.8-1,2.9-1.1c1.3-0.2,2.5-0.7,3.7-1c0.4-0.1,0.9-0.1,1.4-0.2c0.7-0.1,1.6,0,2.1-0.4
		c1.2-0.8,2.3,0,3.4-0.2c1.3-0.2,2.6-0.3,4-0.2c0.9,0,1.8-0.5,2.7,0.1c0,0,0.1,0.1,0.2,0c0.9-0.5,1.7,0.2,2.6,0.2c0.9,0,1.9,0,2.8,0
		c0.3,0,0.7,0.1,1,0.1c0.5,0.1,1,0.2,1.6,0.2c1.1,0,2.3,0,3.4-0.3c2-0.4,4-1,6-1.6c0.6-0.2,1.1-0.8,1.7-1.1c1.2-0.8,2.4-1.6,3.6-2.5
		c0.8-0.6,1.6-1.3,2.4-2c0.7-0.5,1.3-0.8,1.9,0.1c0.6,0.8,1.4,1.3,2.3,1.7c1.2,0.6,1.8,1.8,2.2,3c0.2,0.4-0.2,1.2-0.6,1.6
		c-1.1,1.2-2.2,2.5-3.5,3.4c-1.6,1.2-3.5,2.1-5.2,3c-0.4,0.2-0.9,0.4-1.3,0.5c-1.1,0.2-2.2,0.4-3.3,0.6c-1,0.2-2.2,0.3-2.9,0.9
		c-1.4,1.1-2.8,0.8-4.3,0.7c-0.4,0-0.8,0.1-1.2,0.1c-0.4,0-0.8,0-1.1,0.1c-0.5,0.1-1.1,0.2-1.5,0.5c-0.2,0.1,0.1,0.8,0.2,1.2
		c0.4,1,1,1.9,1.4,2.9c0.4,1.2,0.6,2.4,1,3.6c0.3,1,0.7,1.9,1,2.8c0.6,1.7,0.9,3.5,1.7,5.1c0.7,1.6,0.4,3.4,1.1,4.9
		c0.2,0.5,0.6,1,0.6,1.6c0.1,1.7,1,3.1,1.7,4.6c0.7,1.4,1.2,2.8,1.7,4.2c0.3,0.7,0.4,1.4,0.7,2.1c0.2,0.8,0.6,1.7,0.7,2.5
		c0.2,1.8,1.2,3.5,1,5.5c-0.1,1,0.3,2,0.5,3c0,0.1,0,0.3,0,0.4c0,0.9,0,1.7,0,2.6c0,0.6,0,1.3,0,1.9c0,1.1,0.2,2.1,0,3.2
		c-0.2,1.1-0.2,2.1,0,3.2c0.1,0.5-0.1,1-0.1,1.5c0,0.9-1.6,2.3-2.6,2.1c-0.2,0-0.4,0.1-0.7,0c-0.4-0.1-0.9-0.1-1.2-0.3
		c-1.2-1-1.2-1-1.9,0.3c-1.3-0.5-2.3-1.3-2.2-3c0-0.7-0.1-1.3,0.2-2c0.2-0.6,0-1.3-0.1-2c0-0.5,0-0.9,0-1.4c-0.1-1.5-0.2-3-0.3-4.5
		c0-0.7,0.1-1.5,0.2-2.2c0-0.1,0.1-0.2,0.1-0.2c-0.6-0.7-0.2-1.5-0.3-2.2C68.5,67,68,65.6,68,64.2c0-0.9-0.5-1.4-1.1-1.6
		c-0.7-0.3-1.6-0.4-2.3-0.3c-0.9,0.2-1.7,0-2.6-0.2c-1.3-0.3-2.6-0.1-3.9,0c-0.2,0-0.5,0.9-0.3,1.3c0.4,1.1,0.2,2.1-0.3,3
		c-0.1,0.2-0.2,0.4-0.2,0.6c0.9,1.4-0.4,2.8,0,4.3c0.3,0.9-0.5,2.1-0.6,3.1c-0.1,1.2-0.1,2.5-0.1,3.7c0,0.4-0.1,0.7-0.2,1.1
		c-0.3,1.9-0.4,3.9-0.8,5.7c-0.2,0.7-0.1,1.4-0.2,2c-0.1,0.8-0.7,1.6-1,2.4c-0.4,1.2-1.5,0.7-2.2,1.1c0.1,1.5-1.6,1.2-2.2,2.1
		c-0.9-0.9-1.7-1.8-2.5-2.6c0,0-0.1-0.1-0.1-0.1c-0.2-1-0.6-2-0.6-2.9c0-1.7,0.3-3.4,0.6-5.1c0-0.3,0-0.6,0.2-0.9
		c0.6-0.9,1-1.7,0.3-2.8c-0.3-0.5,0.1-1.5,0.4-2.2c0.2-0.6,0.4-1,0.3-1.7c-0.1-0.5,0.1-1.1,0.2-1.7c0.1-1.4,0.1-2.7,0.3-4.1
		c0.1-0.9,0.5-1.8,0.5-2.7c0.1-1.4,0-2.9,0-4.4c0-0.6,0.1-1.3,0.2-1.9c0.1-2,0.2-4,0.3-6c0,0,0-0.1,0-0.1c-0.8-1.5,0.1-3.2-0.8-4.7
		c-0.1-0.1-0.2-0.4-0.1-0.5c0.4-0.9,0-1.8-0.2-2.7c-0.2-1.3-0.5-2.6-0.8-4c-0.1-0.3,0.1-0.6,0-0.9c-0.1-0.6-0.2-1.2-0.3-1.7
		c-0.1-0.4-0.1-0.8-0.1-1.1c0.1-0.8,0.3-1.5-0.3-2.2c-0.4-0.5-0.1-1.3-0.3-2c-0.3-1.2,0.1-2.5-0.6-3.7c-0.2-0.3,0-0.9,0.1-1.3
		c0.1-0.7,0-1.4-0.5-1.6c-0.8,0.2-1.3,0.3-1.8,0.4c-1.1,0.2-2,1.1-2.4,2.1c-0.3,1-0.3,2.1-1.1,3.1c-0.7,0.9-0.8,2.3-1.1,3.4
		c-0.2,0.6-0.5,1.3-0.6,1.9c0,0.3,0.2,0.6,0.4,0.9c0.5,0.7,1,1.3,1.5,2c-0.9,1.2,0.9,2.2,0.2,3.3c-0.1,0.1,0,0.4,0,0.6
		c0.3,1.6,0.1,3.2-0.2,4.8c0,0.1-0.1,0.2,0,0.3c0.6,1.3-0.3,2.7,0.1,3.9c0.5,1.6-0.7,3.3,0.2,4.9c0.1,0.3-0.3,0.8-0.3,1.3
		c0,0.8,0,1.6,0,2.5c0,1.1,0.1,2.2,0.2,3.3c0,0.3-0.1,0.6-0.1,0.9c0,0.4,0,0.9-0.1,1.3c0,0.9-0.1,1.9-0.1,2.8c0,1.5,0,3.1,0,4.6
		c0,0.5-0.2,1-0.2,1.4c-0.1,0.6,0.1,1.2-0.1,1.7c-0.3,1.1,0.2,2.4-0.6,3.4C39.1,82.5,37,82.5,36,81.8z"/>
	<path d="M9.8,80.2c-0.5-0.6-0.9-1.2-1.3-1.8c-0.1,0-0.2,0.1-0.3,0.1c0.1-0.3,0.2-0.5,0.3-0.8c-0.1-0.1-0.1-0.2-0.2-0.2
		c-1.4,0-2-1.2-1.5-2.6c0.5-1.5,0.9-3,1.3-4.6c0-0.2,0.1-0.3,0.2-0.4C9,68.5,9,68.5,8,67.1c-0.1-0.2-0.2-0.3-0.3-0.5
		c-0.8-2.1-1.3-4.2-1.3-6.4c0.1-1.8,0.3-3.6,0.5-5.4c0.1-0.7,0-1.4,0.1-2.1c0.1-0.8,0.2-1.6,0.5-2.3c0.1-0.3,0.6-0.6,1-0.8
		c0.5-0.3,1.4-0.3,1-1.3c0-0.1,0.1-0.3,0.2-0.3c0.7-0.2,1.6-0.7,2.2-0.5c1.6,0.6,3-0.1,4.4-0.1c0.5,0,0.9-0.1,1.4-0.1
		c0.6-0.1,1.1-0.2,1.7-0.3c0.3,0,0.6-0.1,0.8-0.1c0.9,0.2,1.8,0.3,2.7,0.6c0.2,0.1,0.4,0.4,0.5,0.6c0.3,1.1,0.8,2.2,0.8,3.4
		c0,0.6,0.6,1.8-1,2c-1.2,0.2-2.4,1-3.6,1.4c-0.5,0.2-1,0-1.5,0c-0.2,0-0.6,0.2-0.6,0.3c0,0.9,0,1.8,0.1,2.7
		c0.1,0.8,0.2,1.5,0.5,2.2c0.2,0.7,0.6,1.3,0.9,2c0.3,0.6,0.6,1.2,0.9,1.7c0.2,0.3,0.6,0.5,1,0.8c0.8,0.5,1.7,1.1,2.5,1.6
		c0.7,0.4,1.3,1,2.1,1.2c0.6,0.2,0.9,0.5,1.2,1c0.7,1.1,1.6,2,2.1,3.2c0.4,1,0.5,2.1,0.7,3.2c0,0.1-0.2,0.4-0.3,0.4
		c-0.8,0.1-1.4,0.8-2.3,0.3c-0.2-0.1-0.7,0.4-1,0.8c-1.6,0.4-2.8-0.4-3.9-1.6c-1-1.1-2.3-1.9-3.5-2.8c-0.5-0.3-1.2-0.2-1.9-0.4
		C15,75,14.2,79.1,9.8,80.2z"/>
	<path d="M60.5,9c0,0.9,0,1.9,0,2.8c0,0.9,0,1.7-0.9,2.3c-1,0.6-1.8,1.5-2.6,2.3c-0.1,0.1-0.4,0.3-0.5,0.2c-2.2-0.5-4.2-1.3-5.7-3
		c-0.5-0.6-0.8-1.6-1-2.4c-0.4-1.5-0.4-3-0.1-4.5c0.3-1.2,1-2.2,2.2-2.8c0.3-0.1,0.6-0.2,0.8-0.4c1.1-0.9,3.3-0.7,4.4,0
		c1.1,0.7,1.9,1.5,2.2,2.8c0.2,0.7,0.7,1.3,1.1,2C60.4,8.6,60.4,8.8,60.5,9C60.5,9,60.5,9,60.5,9z"/>
	<path d="M13,38.8c0.3,0.9,0.6,1.9,0.7,2.8c0.1,0.6-0.2,1.3-0.5,1.9c-0.3,0.5-0.5,1.1-1.3,1.4c-1.1,0.5-2.3,0.8-3.4,1
		c-0.5,0.1-1,0.5-1.5,0.6c-0.2,0.1-0.5-0.1-0.7-0.3c-0.5-0.6-0.9-1.2-1.4-1.7c-1.1-1.2-1.4-3.8-0.8-5.3c0.1-0.2,0.2-0.5,0.2-0.8
		c0-0.8,0.4-1.4,1.2-1.8c0.5-0.3,0.7-0.9,1.2-1.2c0.7-0.5,1.6-0.6,2.5-0.4c1.5,0.3,2.8,0.7,3.5,2.2c0.2,0.4,0.3,0.9,0.5,1.3
		C13.2,38.8,13.1,38.8,13,38.8z"/>
</g>
</svg>
