<?xml version="1.0" encoding="utf-8"?>
<!-- Generator: Adobe Illustrator 27.6.1, SVG Export Plug-In . SVG Version: 6.00 Build 0)  -->
<svg version="1.1" id="Ebene_1" xmlns="http://www.w3.org/2000/svg" xmlns:xlink="http://www.w3.org/1999/xlink" x="0px" y="0px"
	 viewBox="0 0 66.8 121.6" style="enable-background:new 0 0 66.8 121.6;" xml:space="preserve">
<g>
	<path d="M62.2,25.4c1,1.4,1.7,2.3,2.5,3.3c0,30,0,60,0,90.3c-0.9,0-1.7,0.1-2.3-0.2c-7.1-3.1-14.2-6.2-21.5-9.4
		c0.4-2,1.4-4,0.8-5.3c-0.8-1.8-0.3-3.4-0.5-5c-0.2-1.9,0.2-3.8-0.1-5.7c-0.3-1.5,2.5-2.9,0.1-4.4c1.3-1.5-0.4-2.9-0.1-4.5
		c0.3-1.7,0.1-3.5,0.1-5.2c0-1.6,0-3.2,0-4.7c0-1.7,0-3.5,0-5.2c0-1.7,0-3.4,0-5.1c-4.3-1.8-8.1-4.5-12.6-5.2
		c-0.3,0.2-0.4,0.3-0.5,0.4c-0.1,0.1-0.2,0.3-0.2,0.4c0,15.1,0,30.2,0,45.2c-0.5,0.5-0.8,0.8-1.1,1.1c-5.3,0.9-10.6,1.6-16,1.3
		c-0.8,0-1.8-0.3-2.3,0.1c-2.1,2-3.9,0.2-6-0.4c0-18,0-36.1,0-54.1c0.4-0.8,0.8-1.6,1.3-2.5c1.6,0,3.3,0,5.1,0c0-15.7,0-31.3,0-46.7
		c0.6-0.6,1-1.1,1.6-1.6c0.7,0.1,1.5,0.1,2.1,0.4c4.8,2.2,9.5,4.5,14.3,6.6c6.2,2.8,12.5,5.6,18.8,8.4
		C51.2,20.4,56.8,22.9,62.2,25.4z M14.6,15.1c0,8.8,0,18.2,0,27.7c0,1.4-0.6,2.8-0.5,4.2c0.1,1.6,0.6,3.2,0.8,4.7c2.7,0,5.4,0,8.1,0
		c0.6-1,1.1-1.8,1.9-3.1c7.9,3.7,15.8,7.3,23.8,11.1c0,15,0,29.9,0,44.7c6.7,4.9,6.7,4.9,9.3,4.9c0-25.7,0-51.5,0-77.4
		c-3.5-1.8-6.9-3.4-10.3-5.2c-3.2-1.7-6.7-2.7-9.9-4.8c-3.1-2-7-2.8-10.3-4.8c-3.2-2-6.8-3.4-9.9-4.9C16.7,13.1,15.8,13.9,14.6,15.1
		z M19.9,58.5c-4.1-0.3-8,0-11.9,1.3C8,66.2,8.4,72.6,7.9,79C7.4,85.3,10.1,91.5,8.4,98c0.1,0.5,0.2,1.3,0.6,2.1
		c0.4,0.8,1,1.4,1.6,2.2c1.1-0.4,1.9-0.7,3.7-1.4c1.3,0,3.6,0,5.8,0c0.5-0.5,0.8-0.8,1.3-1.3c0-2.1,0-4.3,0-6.5
		c-0.1-2.4,0.4-4.8-0.7-7.1c1.2-1.3,0.9-2.4-0.2-3.6c1.5-1.2,0.8-2.9,0.8-4.4c0-1-0.8-1.9-0.8-2.9c0-1.1,0.5-2.3,0.9-3.4
		c0.5-1.2-1.2-2-0.4-3.2c0.8-1.2-0.1-2.1-0.4-3.3C20,64,19.7,62,21.2,60.6c0.1-0.1,0-0.6-0.1-0.9C20.8,59.4,20.5,59.1,19.9,58.5z"/>
	<path d="M37.2,50.7c-3.9-5-8-10.3-12.2-15.6c0-2.7,0-5.5,0-8.5c1.5-1,3.1-2.2,4.8-3.4c2.3,1.7,2.7,4.5,4.1,7c2.4-0.9,4.8-1.9,7.7-3
		c2.5,2.9,5.2,6,8,9.2c0,2,0,4.2,0,6.4c-0.1,3-0.9,4-4.1,5.3c-1.2,0.5-2.4,1.2-3.5,1.9C40.7,50.8,39.3,51,37.2,50.7z"/>
</g>
</svg>
