<?xml version="1.0" encoding="utf-8"?>
<!-- Generator: Adobe Illustrator 27.7.0, SVG Export Plug-In . SVG Version: 6.00 Build 0)  -->
<svg version="1.1" id="Ebene_1" xmlns="http://www.w3.org/2000/svg" xmlns:xlink="http://www.w3.org/1999/xlink" x="0px" y="0px"
	 viewBox="0 0 133.5 88.6" style="enable-background:new 0 0 133.5 88.6;" xml:space="preserve">
<g>
	<path d="M122.7,16.1c0.2,0,0.4,0,0.6,0c0.1,0,0.1-0.1,0.1-0.2c0-0.1-0.1-0.3,0.2-0.3c0.1,0,0.1-0.1,0-0.2c-0.1-0.1-0.1-0.1,0-0.2
		c0.1-0.1,0.2-0.2,0.1-0.5c-0.1-0.3-0.1-0.3,0.2-0.5c0.1,0,0.2-0.2,0.3-0.1c0.1-0.1,0-0.3,0-0.4c0-0.2,0-0.3,0.2-0.3
		c0.1,0,0.2-0.1,0.2-0.2c0-0.2,0.1-0.2,0.2-0.3c0.1-0.1,0-0.3,0.1-0.4c0.2-0.1,0-0.2,0.1-0.3c0.1-0.1,0.2-0.1,0.4-0.2
		c0.1,0,0.2-0.2,0.2-0.3c0-0.3,0.2-0.4,0.4-0.4c0.4,0,0.7-0.2,0.9-0.4c0.1-0.1,0.2-0.1,0.3-0.1c0.2,0,0.4,0,0.4,0.3
		c0,0.1,0.1,0.4,0.3,0.1c0.1-0.1,0.3-0.1,0.4,0.1c0,0.1,0.1,0.2,0.2,0.1c0.4-0.3,0.6,0.1,0.7,0.3c0.1,0.3,0.2,0.2,0.3,0
		c0.1-0.1,0.1-0.2,0.1-0.2c0.4,0.2,0.5,0.6,0.4,1c0,0.2,0,0.4-0.1,0.6c-0.1,0.1-0.1,0.4,0.1,0.5c0.1,0.1,0.1,0.3,0.2,0.3
		c0,0,0,0.1-0.1,0.2c-0.3,0.2-0.3,0.2-0.2,0.6c0.1,0.2,0,0.2-0.2,0.3c-0.1,0-0.1,0.1-0.1,0.2c0,0.4-0.2,0.7-0.5,0.8
		c-0.4,0.2-0.4,0.6-0.6,0.9c0,0,0,0,0,0.1c0.2,0.3,0.1,0.5-0.2,0.7c0,0.4-0.4,0.7-0.4,1.1c0,0,0,0.1,0,0.1c-0.4,0.1-0.3,0.5-0.6,0.7
		c-0.2,0.1,0,0.4-0.2,0.6c-0.2,0.1-0.3,0.1-0.4,0.4c0,0.1-0.3,0.2-0.2,0.5c0,0.1-0.1,0.1-0.2,0.2c0,0-0.3,0.4-0.3,0.5
		c-0.1,0.1,0,0.5-0.4,0.4c0,0.2-0.2,0.3-0.3,0.5c0,0.1-0.1,0.2-0.1,0.2c-0.3,0.1-0.3,0.3-0.2,0.6c0.1,0.1,0.1,0.3,0,0.4
		c-0.1,0.1-0.1,0.1-0.2,0.2c0,0,0,0.1,0,0.1c0.1,0.1,0.1,0.1,0.2,0.2c-0.4,0.3-0.5,0.7-0.8,1c0,0.5-0.1,0.9,0.2,1.3
		c0.2,0.3,0.2,0.3,0,0.5c-0.1,0.1-0.2,0.2-0.1,0.4c0.1,0.1-0.1,0.2-0.1,0.3c-0.1,0.1-0.4,0.2-0.1,0.5c0,0,0,0.1,0,0.2
		c-0.2,0.1-0.1,0.3,0,0.5c0.1,0.2,0.1,0.4-0.1,0.6c-0.2,0.2-0.2,0.6-0.3,0.8c-0.1,0.1,0.2,0.2,0.1,0.4c0,0.1,0.1,0.3-0.2,0.3
		c-0.1,0-0.1,0.2,0,0.3c0.3,0.2-0.1,0.4-0.1,0.5c-0.2,0-0.2,0.1-0.2,0.3c0,0.2,0,0.4,0,0.5c0,0.2,0,0.4-0.2,0.5
		c-0.1,0.1,0.2,0.2,0,0.3c-0.1,0-0.1,0.1-0.2,0.2c-0.1,0.1-0.1,0.2-0.1,0.3c0,0.2,0.1,0.4,0,0.5c-0.2,0.3-0.3,0.6,0,0.9
		c-0.1,0.2-0.1,0.4-0.2,0.6c-0.1,0.2-0.1,0.3-0.1,0.4c0,0.1,0,0.2-0.1,0.2c-0.2,0.1-0.2,0.2-0.1,0.4c0,0-0.1,0.2-0.1,0.2
		c-0.1,0.2-0.2,0.3,0,0.5c0.1,0.1,0,0.1,0,0.2c0,0.1,0,0.1-0.1,0.2c-0.2,0.3-0.3,0.7-0.1,1c0.2,0.3,0,0.3-0.1,0.4
		c-0.3,0.2-0.3,0.2-0.1,0.4c0.2,0.3,0.2,0.5-0.1,0.7c-0.3,0.2-0.3,0.2-0.1,0.5c0.1,0.3,0.1,0.3-0.1,0.5c-0.2,0.1-0.2,0.3-0.1,0.5
		c0.1,0.2-0.3,0.3,0,0.5c0.1,0.1,0,0.3,0.1,0.5c0.1,0.2-0.1,0.4,0.1,0.7c0.2,0.2,0.1,0.5,0.1,0.7c0,0.2,0,0.2,0.2,0.2
		c0.2,0,0.3,0.3,0.6,0.2c0.2-0.1,0.4,0.1,0.6,0.2c0.2,0.1,0.4,0,0.6,0.2c0,0,0,0,0.1,0c0.3,0,0.2,0.5,0.5,0.5c0.3,0,0.5,0,0.7,0.2
		c0.1,0.1,0.2,0.2,0.2,0.3c0,0.1,0.1,0.1,0.1,0.1c0.2,0.1,0.4,0.2,0.5,0.3c0.1,0.1,0.2,0.2,0.3,0.2c0.1,0,0.2-0.1,0.4-0.1
		c0.1,0,0.2,0,0.2,0.2c0,0.2,0.5,0.5,0.7,0.4c0.2-0.1,0.3-0.2,0.4,0.1c0,0.2,0.3,0.2,0.4,0.1c0.2-0.2,0.4,0,0.4,0.1
		c0.1,0.2,0.1,0.2,0.3,0.1c0.2,0.1,0.5,0,0.7,0.2c0.1,0.1,0.1,0.2,0.3,0.2c0.4-0.1,0.6,0.2,0.8,0.3c0,0,0.1,0.1,0.1,0.1
		c0.3-0.3,0.5,0.3,0.8,0.2c0.2,0.2,0.5,0.2,0.8,0.4c0.1,0.1,0.2,0.1,0.2,0.3c0,0.2,0.1,0.3,0.3,0.3c0.1,0,0.2,0,0.2,0.1
		c0,0.2,0,0.4,0.2,0.5c0.1,0.1,0,0.4,0.2,0.4c0,0,0.1,0.1,0,0.1c-0.2,0.2,0.1,0.3,0,0.5c-0.1,0.1,0,0.4,0.1,0.5c0,0,0,0.1,0,0.1
		c-0.3,0.3,0,0.5,0,0.8c0,0,0.1,0.1,0.1,0.1c-0.2,0.2,0,0.4-0.1,0.5c-0.1,0.3-0.1,0.5,0,0.8c0.1,0.2,0.1,0.3,0,0.5
		c-0.1,0.1,0,0.2,0,0.3c0,0.1,0,0.2-0.2,0.2c-0.1,0-0.1,0.1-0.1,0.1c0.1,0.4-0.2,0.8-0.1,1.3c0,0.1,0,0.1,0,0.2
		c0,0.1-0.3,0.2-0.2,0.4c0.1,0.2,0.1,0.3,0.1,0.5c0,0.1-0.2,0.2,0,0.4c0,0,0,0.2-0.1,0.3c-0.1,0.1-0.1,0.2,0,0.2
		c0.2,0.1,0.1,0.2,0,0.3c-0.2,0.2-0.2,0.4,0,0.6c0.2,0.2,0.2,0.4,0.2,0.6c0,0.2-0.1,0.4,0.1,0.5c0.1,0.1,0,0.1,0,0.1
		c-0.2,0.2-0.3,0.4-0.2,0.6c0.1,0.1-0.1,0.2-0.1,0.3c0,0.1,0.1,0.2,0.2,0.3c0.1,0.1-0.1,0.1-0.1,0.2c-0.1,0.1-0.2,0.3-0.1,0.4
		c0.1,0.1,0.1,0.4,0.2,0.4c0.2,0.1-0.2,0.2,0,0.3c0.1,0.1,0,0.2-0.1,0.3c-0.1,0.2-0.4,0.4-0.1,0.7c0.1,0.1,0,0.2,0,0.4
		c0,0.2-0.1,0.4,0.1,0.6c0.1,0.1,0.1,0.3,0,0.4c-0.1,0.1-0.1,0.2,0,0.4c0.1,0.1,0.1,0.2,0,0.3c-0.1,0.2-0.1,0.3,0,0.5
		c0.1,0.1,0.2,0.3,0,0.4c-0.1,0-0.1,0.2,0,0.2c0.1,0.1,0.1,0.3,0,0.4c-0.3,0.1-0.1,0.5-0.3,0.6c0,0-0.1,0.1,0,0.1
		c0.3,0.2,0.2,0.4,0,0.5c0,0.5-0.4,0.8-0.3,1.3c0.1,0.2,0,0.4-0.2,0.4c-0.1,0-0.1,0.1-0.2,0.2c-0.1,0.1-0.2,0.3-0.3,0.4
		c-0.1-0.2-0.3,0-0.5-0.1c-0.2-0.1-0.4-0.1-0.6,0c-0.1,0-0.2,0.1-0.3-0.1c0,0,0-0.1-0.1-0.2c-0.1,0,0,0.1-0.1,0.2
		c0,0.1-0.2,0.1-0.2,0.1c-0.1,0-0.1-0.1-0.1-0.2c-0.1-0.3-0.1-0.3-0.3-0.1c-0.1,0.1-0.3,0.3-0.3-0.1c0-0.1-0.1,0-0.2-0.1
		c-0.3,0-0.3-0.1-0.4-0.3c0-0.2-0.1-0.3-0.3-0.4c-0.4-0.2-0.5-0.4-0.3-0.8c0.1-0.2,0-0.3,0-0.4c0-0.1-0.2-0.2,0-0.3
		c0,0,0-0.2-0.1-0.2c-0.3,0-0.3-0.2-0.3-0.4c0-0.3,0-0.6,0-0.8c0-0.1,0-0.2-0.1-0.3c-0.2-0.1-0.1-0.3-0.2-0.4
		c-0.1-0.2,0.3-0.3,0-0.6c-0.1-0.1,0.1-0.4-0.1-0.5c0,0,0,0,0,0c0.2-0.2,0.1-0.5,0.1-0.7c0-0.3,0-0.5,0-0.8c0-0.4,0-0.4,0.1-0.6
		c0.1-0.1,0.2-0.3,0.1-0.4c-0.1-0.2-0.1-0.4,0-0.6c0-0.1,0.1-0.1,0-0.2c-0.2-0.1-0.1-0.3-0.2-0.5c0-0.1,0.1-0.2,0.1-0.3
		c0-0.1-0.2-0.2-0.2-0.3c0-0.2-0.1-0.4,0-0.6c0.3-0.4,0.2-0.7,0-1.1c-0.1-0.2-0.3-0.4,0-0.6c0,0,0.1-0.1,0.1-0.1c0-0.2,0-0.4,0-0.7
		c0-0.2,0.1-0.3,0.1-0.6c0-0.2-0.2-0.3-0.1-0.5c-0.3-0.2-0.1-0.5,0-0.7c0.1-0.2,0.2-0.4,0-0.5c-0.1-0.1-0.1-0.1,0-0.2
		c0.1-0.2,0-0.4,0-0.6c-0.2,0.2,0,0.5-0.3,0.5c-0.2,0.3-0.4,0.2-0.6,0.1c-0.2-0.1-0.3-0.1-0.3,0.1c0,0.1,0,0.2,0,0.2
		c0,0,0,0.1-0.1,0.1c-0.3-0.1-0.5,0.2-0.7,0.2c-0.2,0-0.5,0-0.6,0.2c0,0-0.1,0-0.1,0c-0.3-0.2-0.5,0-0.6,0.1
		c-0.2,0.2-0.3,0.2-0.6,0.2c-0.2,0-0.5,0.1-0.7,0.3c-0.1,0.1-0.1,0.1-0.2,0.1c-0.1,0-0.2,0-0.2,0.2c0,0.1-0.2,0.2-0.1,0.3
		c0.1,0.2,0,0.5,0.2,0.8c0,0,0,0.1,0,0.2c-0.1,0.1-0.1,0.2,0,0.3c0.1,0.1,0.2,0.2,0.2,0.4c0.1,0.3,0.2,0.5,0,0.8
		c-0.1,0.1-0.1,0.2-0.1,0.2c0.2,0.1,0.2,0.3,0.1,0.5c0,0.2,0,0.4,0,0.5c0,0.2-0.1,0.2-0.3,0.3c-0.3,0.1-0.5,0.4-0.6,0.7
		c0,0.1,0,0.2-0.1,0.1c-0.1,0-0.2,0-0.2-0.1c0-0.1-0.1-0.3-0.2-0.3c-0.1-0.1-0.2-0.1-0.2-0.1c-0.1,0,0,0.1-0.1,0.2
		c-0.2,0.1-0.3,0.3-0.2,0.5c0,0.1-0.1,0.1-0.1,0.2c-0.1,0.1-0.2,0.1-0.2-0.1c0,0,0-0.1,0-0.1c-0.3,0.2-0.4,0-0.6-0.1
		c0,0-0.1,0-0.2,0c-0.1,0.5-0.5,0.3-0.8,0.3c-0.1,0-0.2-0.1-0.3-0.1c-0.3,0.2-0.4-0.3-0.7-0.3c0,0-0.1-0.1-0.1-0.1
		c0-0.2,0-0.3,0-0.5c0-0.1-0.3-0.1-0.2-0.3c0-0.1,0-0.3-0.1-0.4c-0.1-0.1-0.2-0.2-0.4-0.3c-0.2-0.1-0.3-0.2-0.1-0.5
		c0.1-0.3-0.1-0.6,0.2-0.8c0,0-0.1-0.1-0.2-0.1c-0.2,0.1-0.4,0.2-0.5,0.3c-0.2,0.2-0.3,0.1-0.5,0.2c-0.1,0-0.2-0.1-0.3-0.1
		c-0.1,0-0.2,0.2-0.3,0.2c0,0,0,0-0.1,0c-0.4-0.1-0.8,0.2-1.2,0.2c-0.2,0-0.3,0.2-0.4,0.3c-0.2,0.2-0.4,0.3-0.6,0.1
		c-0.1-0.1-0.2-0.1-0.2,0c-0.1,0.2-0.3,0.1-0.3,0.3c0,0.2-0.2,0.1-0.3,0.2c0,0,0,0.1,0,0.1c0,0.3-0.3,0.4-0.5,0.4
		c-0.5,0-0.7,0.2-1,0.5c-0.1,0.1-0.2,0.1-0.2,0.1c-0.1-0.2-0.2,0-0.3,0c-0.5-0.1-0.9,0.1-1.4,0.3c-0.1,0-0.2,0.1-0.3,0
		c-0.1-0.1-0.2-0.1-0.2-0.1c-0.2,0.3-0.4,0.3-0.7,0.4c-0.1,0-0.2,0.2-0.3,0.3c0,0.2-0.2,0.2-0.4,0.2c-0.2,0-0.5-0.1-0.6,0.3
		c0,0.1-0.1,0.1-0.2,0.1c-0.2,0-0.4,0.1-0.5,0.2c-0.2,0.1-0.4,0.3-0.6,0.1c0,0-0.1,0-0.2,0c-0.1,0.1-0.3,0.2-0.4,0.2
		c-0.2-0.2-0.2,0.1-0.3,0.1c-0.1,0-0.2,0.2-0.3,0.1c-0.3-0.1-0.4,0.2-0.7,0.1c-0.2,0-0.3,0.3-0.5,0.3c-0.3,0-0.7,0.2-1,0.5
		c-0.1,0.1-0.2,0.1-0.2,0.1c-0.4-0.3-0.7,0.1-1.1,0.1c-0.6,0.1-1.1,0.5-1.8,0.5c-0.1,0-0.1,0.1-0.2,0.1c-0.1,0.2-0.3,0.3-0.5,0.2
		c-0.1,0-0.2,0-0.2,0.1c-0.1,0.1-0.2,0.1-0.4,0.1c-0.2,0-0.6,0.2-0.8,0.3C96.3,67.8,96,67.8,96,68c0,0,0,0,0,0
		c-0.1,0.1-0.3-0.2-0.4,0.1c-0.1,0.2-0.2,0.3-0.4,0.2c-0.2,0.3-0.3,0-0.4,0c-0.1,0.1-0.1,0.3-0.3,0.3c0,0-0.1,0-0.1,0
		c-0.3,0-0.6,0-0.7,0.3c-0.3,0-0.5,0.4-0.8,0.3c-0.2-0.1-0.3,0.2-0.4,0.2c-0.2,0-0.3,0.1-0.5,0.2c-0.2,0.1-0.4,0.3-0.7,0.1
		c0,0-0.1,0-0.1,0.1c0,0.1,0,0.1,0,0.2c0.3,0.3,0.4,0.3,0.1,0.6c-0.1,0.1-0.1,0.2,0,0.4c0.2,0.2,0.1,0.3-0.1,0.5
		c-0.1,0.1-0.1,0.2-0.1,0.2c-0.1,0.1,0,0.1,0,0.1c0.1,0,0.1,0.1,0.2,0.2c0,0.1-0.2,0.2-0.1,0.3c0.1,0.1,0,0.2,0,0.3
		c-0.1,0.3-0.1,0.6,0.1,0.9c0.1,0.1,0.1,0.2,0,0.3c-0.2,0.3-0.2,0.5,0,0.8c0.2,0.2,0.1,0.4,0.1,0.6c-0.1,0.2-0.1,0.5-0.1,0.7
		c0,0.1,0,0.2-0.1,0.3c-0.3,0.1,0,0.4-0.2,0.6c0,0,0.1,0.3,0.2,0.4c0.2,0.1,0.2,0.2,0,0.4c-0.1,0.1-0.1,0.3,0,0.4
		c0.1,0.1,0.1,0.2,0.1,0.3c0.1,0.2-0.2,0.3-0.1,0.4c0.1,0.1,0.1,0.2,0.1,0.4c0,0.1,0,0.2,0,0.2c0.4,0.3,0.1,0.4-0.1,0.6
		c-0.1,0.2-0.1,0.4,0,0.6c0,0.1,0.1,0.2,0.1,0.2c0.1,0.1,0.1,0.2,0,0.2c-0.2,0.2-0.2,0.3,0,0.5c0.1,0.1,0.1,0.3,0,0.4
		c0.2,0.1-0.2,0.3,0.1,0.5c0.1,0.1,0,0.3,0.1,0.5c0.1,0.1,0.1,0.2,0,0.2c-0.2,0.1-0.1,0.3-0.1,0.4c-0.1,0.1,0,0.3-0.2,0.4
		c-0.1,0,0.1,0.2,0.1,0.2c0,0.2,0.1,0.5,0,0.7c-0.1,0.2,0.1,0.5-0.1,0.7c-0.1,0.1,0,0.2,0,0.3c0,0.1,0,0.2,0,0.3
		c-0.3,0.4-0.2,0.8-0.2,1.3c0,0.2-0.1,0.4-0.3,0.3c-0.2,0-0.4,0.1-0.5,0.2c-0.1,0.1-0.1,0-0.2,0c-0.1-0.2-0.3-0.1-0.4,0
		c-0.1,0-0.2,0.4-0.4,0.1c-0.2,0.3-0.5,0.3-0.7,0c0-0.1-0.1,0-0.2,0.1c-0.3,0.1-0.4,0.1-0.6-0.2c-0.2-0.2-0.3-0.4-0.6-0.4
		c-0.2,0-0.3-0.1-0.3-0.2c-0.1-0.3-0.2-0.4-0.5-0.5c-0.1,0-0.2-0.1-0.2-0.2c0-0.1,0-0.2,0.1-0.3c0.1-0.1,0.1-0.2,0-0.3
		c-0.1-0.1,0-0.2,0-0.3c0-0.2,0.3-0.3,0-0.5c-0.1,0,0-0.1,0.1-0.2c0.2-0.1,0.2-0.3,0.1-0.5c-0.1-0.3-0.3-0.7-0.1-1
		c0.1-0.1,0-0.3-0.1-0.4c-0.3-0.4-0.3-0.6-0.1-1c0.1-0.2,0.1-0.2,0-0.3c-0.1-0.1,0.1-0.2,0.1-0.2c0-0.1-0.1-0.1-0.2-0.2
		c-0.1-0.1,0-0.2,0-0.3c0.1-0.3,0.1-0.5,0.1-0.8c0-0.2-0.1-0.4,0.1-0.6c0.1-0.1,0-0.1,0-0.2c-0.1-0.2-0.1-0.3,0-0.5
		c0.1-0.2,0.1-0.2-0.1-0.3c-0.1,0-0.1-0.1-0.1-0.1c0.3-0.3-0.1-0.5,0-0.7c-0.2-0.1-0.1-0.2,0-0.4c0.2-0.2,0.1-0.4,0-0.7
		c-0.2-0.4-0.2-0.6-0.1-0.9c0.1-0.3,0.1-0.3-0.1-0.6c-0.1-0.2-0.1-0.3,0-0.5c0.1-0.1,0.1-0.2,0-0.4c-0.1-0.2-0.3-0.5-0.1-0.7
		c0.1-0.1-0.1-0.2-0.1-0.2c-0.3,0-0.2-0.3-0.2-0.4c0,0,0-0.1,0.1-0.1c0.1-0.2,0.2-0.4,0.2-0.5c-0.1-0.2-0.1-0.3-0.1-0.5
		c-0.1-0.4-0.1-0.4,0-0.9c0-0.1,0.1-0.2-0.2-0.3c-0.2-0.1-0.3-0.3-0.5-0.5c-0.1-0.1-0.1-0.1-0.2-0.1c-0.2,0.3-0.3,0-0.5-0.1
		c0,0-0.1-0.1-0.1-0.1c-0.4,0.1-0.6-0.2-0.9-0.3c-0.1,0-0.2,0-0.3-0.1c-0.1-0.1-0.6-0.3-0.7-0.3c-0.2,0-0.3-0.1-0.5-0.2
		c-0.3-0.2-0.5-0.4-0.9-0.4c-0.2,0-0.5-0.1-0.6-0.4c-0.2-0.3-0.5-0.5-0.8-0.5c-0.1,0-0.2-0.1-0.2-0.2c-0.1-0.2-0.2,0-0.3,0
		c-0.2,0,0,0.1,0,0.2c-0.1,0.5,0.4,0.6,0.6,0.8c0.1,0.1,0.1,0.1,0.1,0.3c-0.1,0.3-0.1,0.3,0.1,0.5c0.1,0,0.2,0,0.2,0.1
		c-0.1,0.3,0.1,0.4,0.3,0.6c0.1,0.1,0.1,0.2,0,0.2c-0.2,0.2,0,0.3,0,0.4c0.1,0.2,0.2,0.4,0.4,0.6c0.1,0.2,0.2,0.3,0.2,0.6
		c0,0.1,0,0.2,0.1,0.3c0.1,0.1,0.1,0.1,0.1,0.2c0,0.6,0.4,1.1,0.8,1.5c0.1,0.1,0.3,0,0.3,0.2c0,0.1,0.1,0.3,0,0.4
		c-0.1,0.2,0,0.3,0.1,0.4c0.1,0.1,0.2,0.2,0.3,0.3c0.1,0.1-0.2,0.2-0.1,0.3c0.2,0.3,0.3,0.7,0.2,1c0,0.1,0.1,0.2,0.1,0.3
		c0.1,0.2,0.1,0.3,0,0.6c-0.1,0.2-0.2,0.3-0.4,0.4c-0.2,0.1-0.4,0.1-0.4,0.4c0,0-0.2,0.1-0.2,0.1c-0.3,0-0.6,0.4-0.9,0.1
		c0,0,0,0-0.1,0c-0.2,0-0.2,0.3-0.4,0.2c-0.1,0-0.2-0.2-0.3,0c-0.1,0.2-0.2-0.1-0.4,0c-0.1,0.1-0.3,0.2-0.4,0.1
		c-0.2-0.1-0.3,0-0.5,0C78,78.3,78,78,77.7,78c0,0-0.1-0.2-0.2-0.3c-0.1-0.2-0.2-0.3-0.4-0.3c-0.1,0-0.4-0.2-0.4-0.5
		c0-0.1,0-0.2-0.1-0.3c-0.1-0.1-0.1-0.1-0.1-0.3c0-0.2,0.1-0.3,0.1-0.4c-0.1-0.1-0.3-0.1-0.3-0.2c0-0.1-0.1-0.1-0.1-0.2
		c0-0.2-0.2-0.4,0-0.7c0.1-0.1,0-0.2-0.1-0.3c-0.2-0.2-0.4-0.4-0.6-0.6c0-0.2,0.3-0.2,0.2-0.4c-0.1-0.1-0.1-0.2-0.1-0.4
		c0-0.2-0.3-0.2-0.3-0.3c0-0.2-0.1-0.3-0.2-0.3c-0.1,0-0.2-0.1,0-0.2c0,0,0-0.1,0-0.1c-0.2-0.1-0.2-0.4-0.3-0.5
		c-0.2-0.3-0.4-0.6-0.5-0.9c-0.1-0.2-0.3-0.2-0.5-0.3c0.2,0.4,0.1,0.9,0.5,1.2c0.1,0.1,0.2,0.3,0.1,0.5c-0.1,0.2,0.1,0.4,0.2,0.6
		c0.1,0.1,0.2,0.2,0.3,0.4c0.1,0.1,0.1,0.2,0,0.3c-0.1,0.1-0.1,0.3-0.1,0.4c0.2,0.4,0,0.6-0.3,0.8c-0.2,0.2-0.3,0.3-0.3,0.4
		c0,0.1-0.1,0.2-0.2,0.3c-0.1,0.1-0.2,0.2-0.4,0c0-0.1-0.2,0-0.3-0.1c-0.1-0.1-0.2-0.1-0.2,0.1c0,0.1,0,0.2-0.1,0.3
		c-0.1,0.1-0.2,0.1-0.2,0c-0.1-0.1-0.2-0.2-0.3-0.3c-0.2,0.1-0.1,0.2-0.1,0.3c0,0.1-0.1,0.1-0.2,0.2c-0.3,0.1-0.4,0.2-0.4,0.5
		c0,0.1,0,0.3-0.1,0.4c0.1,0.1,0.1,0.2,0.1,0.3c0,0.1,0,0.1,0,0.2c0.1,0.1,0.2,0.2,0.2,0.3c0.1,0.1-0.2,0.1-0.1,0.3
		c0.1,0.1,0.1,0.3,0.2,0.5c0.1,0.1-0.2,0.2-0.2,0.4c0,0.1-0.2,0.2,0,0.4c0.2,0.2-0.1,0.4-0.1,0.6c0,0.2-0.1,0.4,0,0.6
		c0.1,0.2,0.2,0.4-0.2,0.5c0,0.2-0.2,0.3-0.2,0.4c-0.1,0.5-0.5,0.6-0.8,0.9c-0.1,0.1-0.3,0.2-0.5,0.1c-0.3-0.2-0.6-0.2-1,0
		c-0.2,0.1-0.5-0.1-0.8-0.2c-0.2-0.1-0.3-0.2-0.6-0.2c-0.2,0-0.3-0.1-0.3-0.3c0-0.1-0.1-0.2-0.1-0.2c-0.2-0.1-0.2-0.1-0.2-0.3
		c0-0.2,0-0.6,0.1-0.8c0-0.1,0.1-0.1,0-0.2c-0.2-0.2-0.2-0.4-0.1-0.6c-0.2-0.1,0-0.4-0.2-0.6c-0.1-0.1,0.1-0.3,0.2-0.4
		c0.1-0.2,0.1-0.3,0-0.4c-0.2-0.1-0.2-0.3-0.1-0.4c0.1-0.2,0-0.4-0.1-0.6c0,0,0-0.1-0.1-0.1c0.5-0.3,0-0.5-0.1-0.7
		c-0.1-0.2-0.1-0.2-0.1-0.4c0-0.4,0.1-0.8-0.3-1.2c-0.2,0,0,0.2-0.2,0.2c-0.1,0-0.1,0.1-0.2,0c-0.1-0.1-0.3-0.1-0.4,0
		c-0.2,0.1-0.5,0-0.7,0.3c-0.1,0.2-0.3,0.4-0.6,0.4c-0.1,0-0.1,0-0.1,0.1c0,0.2-0.2,0.1-0.3,0.2c-0.1,0.1-0.3,0-0.4,0.1
		c-0.2-0.2-0.2,0.1-0.3,0.1c-0.1,0-0.2,0-0.3,0c-0.1,0-0.2,0-0.2,0c-0.1,0.4-0.4,0.3-0.6,0.4c-0.1,0.1-0.2,0.2-0.3,0.3
		c-0.1,0.1-0.3-0.1-0.4,0.1c-0.1,0.1-0.2,0-0.2,0.1c-0.1,0.4-0.3,0.3-0.6,0.2c-0.1-0.1-0.3-0.2-0.3,0.1c0,0.1-0.2,0.1-0.3,0.2
		c0,0.1,0.1,0.2,0.2,0.2c0.2,0.2,0.2,0.3-0.1,0.6c-0.1,0.1,0,0.1,0,0.2c0.1,0.2,0.4,0.3,0.1,0.5c0.1,0.2,0.1,0.4,0,0.6
		c-0.1,0.2,0,0.4,0,0.6c0.1,0.2,0.2,0.4-0.1,0.4c-0.1,0-0.1,0.1,0,0.2c0.2,0.4,0.3,0.9,0.2,1.3c0,0.1,0.1,0.3,0.1,0.4
		c0.1,0.1-0.2,0.2-0.1,0.3c0,0.1,0,0.2,0.1,0.2c0.2,0,0.3,0.2,0.3,0.2c-0.1,0.2,0.1,0.4,0,0.6c-0.2,0.2,0,0.4-0.2,0.5
		c-0.1,0.1,0,0.1,0.1,0.2c0.2,0.1,0.1,0.3,0,0.4c-0.1,0.1-0.2,0.1-0.1,0.2c0.2,0.3,0.1,0.6,0.1,0.9c0,0.2,0,0.4,0,0.6
		c0,0.3,0,0.4-0.1,0.6c-0.2,0.2-0.2,0.3-0.1,0.5c0.1,0.3,0,0.4-0.2,0.5c-0.1,0-0.2,0.1-0.2,0.2c-0.1,0.1-0.3,0.2-0.4,0.2
		c-0.1,0-0.2-0.1-0.3-0.1c-0.1,0-0.2,0.2-0.3,0.2c-0.3,0-0.5,0.1-0.7,0.1c-0.1,0-0.4,0.1-0.4-0.2c0-0.1-0.2-0.1-0.3,0
		c-0.3,0.2-0.5,0.2-0.6-0.1c0-0.1-0.1-0.1-0.3-0.1c-0.1,0-0.2,0-0.4,0c0-0.2,0-0.4-0.2-0.6c-0.1-0.1-0.2-0.3-0.3-0.5
		c-0.1-0.1-0.1-0.2,0-0.2c0.1,0,0.1-0.1,0-0.2c-0.3-0.2-0.2-0.4,0-0.7c0.1-0.1,0.1-0.4,0-0.5c-0.3-0.4,0-0.7,0.1-1
		c0-0.1,0.1-0.2,0.1-0.2c-0.2-0.2,0-0.4-0.1-0.6c-0.1-0.2,0-0.3,0-0.5c0-0.2-0.2-0.4,0-0.7c0,0,0-0.1-0.1-0.1
		c-0.2-0.1-0.2-0.3-0.2-0.4c0.1-0.6-0.1-1.1-0.1-1.7c0-0.2-0.1-0.5-0.3-0.6c0,0-0.1-0.1-0.1-0.1c0.1-0.1,0.2-0.2,0.1-0.3
		c-0.1-0.1-0.2,0.1-0.3,0.1c-0.2-0.1-0.4-0.2-0.6,0c0,0-0.1,0-0.2,0c-0.1-0.2-0.5-0.2-0.5-0.5c-0.2-0.1-0.3-0.1-0.4-0.3
		c-0.1-0.1-0.2-0.2-0.2-0.4c0-0.2-0.2-0.3-0.2-0.4c-0.1-0.1-0.2-0.2-0.1-0.2c0.2-0.2,0-0.4,0-0.6c0,0-0.1-0.1-0.1-0.1
		c0.3-0.1,0-0.3,0-0.4c0,0,0-0.1,0-0.1c0.2-0.3,0.2-0.3,0-0.5c-0.1-0.1-0.2-0.1-0.2-0.2c0-0.3-0.2-0.5-0.3-0.5c-0.1,0-0.3-0.2-0.5,0
		c-0.2-0.2-0.6,0-0.7-0.4c0-0.1-0.1-0.2-0.2-0.2c-0.4,0-0.7-0.2-1.1-0.4c0,0,0,0,0,0c-0.2,0-0.4,0-0.5-0.1c-0.1-0.1-0.1-0.3-0.3-0.3
		c-0.1,0-0.2-0.2-0.4-0.1c-0.1,0-0.2,0-0.2-0.1c-0.1-0.3-0.5-0.1-0.7-0.3c0-0.1-0.1,0-0.1,0.1c0,0.1,0,0.2,0.1,0.2
		c0.1,0.1,0.3,0.2,0.1,0.4c-0.1,0,0,0.1,0.1,0.2c0.1,0.1,0.2,0.2,0.2,0.4c0,0.2-0.2,0.2-0.2,0.4c0,0.1,0.2,0.2,0.2,0.4
		c0,0.2-0.2,0.3-0.1,0.5c0.1,0.2,0,0.4-0.1,0.5c-0.2,0.1-0.1,0.2,0,0.3c0.2,0.1-0.1,0.2,0,0.3c0.2,0.4,0.1,0.8,0.2,1.2
		c0,0.1,0,0.1,0,0.2c0.3,0.3,0.1,0.5,0,0.8c-0.2,0.4-0.2,0.4,0,0.7c0.1,0.1,0,0.2,0,0.3c0,0.1,0,0.2,0,0.3c0.1,0.1,0.1,0.2,0,0.4
		c-0.1,0.1-0.1,0.3,0,0.4c0.2,0.2-0.2,0.3,0,0.4c0.2,0.1,0.1,0.3,0.1,0.4c0,0.2,0,0.4-0.2,0.5c-0.1,0.1-0.1,0.2,0,0.3
		c0.2,0.3,0,0.3-0.1,0.3c-0.2,0.1-0.5,0.1-0.5,0.4c-0.1,0.2-0.4,0.2-0.6,0c-0.1-0.1-0.2-0.2-0.2-0.3c-0.2,0.1-0.1,0.3-0.2,0.4
		c-0.1,0.1-0.2,0.2-0.3,0.1c0,0-0.1-0.1-0.1-0.1c-0.2-0.2-0.2-0.2-0.4,0.1c-0.2,0.2-0.3,0.2-0.6,0.1c-0.2,0-0.4-0.3-0.7-0.3
		c-0.2,0-0.1-0.2-0.2-0.3c-0.2-0.5-0.3-1-0.6-1.3c0-0.5-0.3-0.8-0.6-1.1c-0.1-0.1,0-0.1,0-0.1c0.1-0.1,0-0.2,0.1-0.4
		c0.1-0.2,0.1-0.4-0.1-0.6c-0.1-0.1-0.1-0.5-0.1-0.7c0-0.1,0.1-0.3,0-0.4C42,78.6,42,78.4,42,78.3c0-0.2,0-0.3,0.1-0.5
		c0.1-0.1-0.1-0.3-0.2-0.4c0-0.1,0-0.2,0-0.2c-0.1-0.2,0.1-0.3,0.1-0.4c0-0.2-0.2-0.2-0.1-0.4c0,0,0,0,0-0.1c0.2-0.3,0-0.6-0.2-0.8
		c-0.1-0.1,0-0.1,0-0.1c0.3-0.3,0.1-0.5,0-0.7c-0.1-0.1-0.1-0.2,0-0.3c0-0.1,0-0.3,0-0.4c-0.2-0.6-0.2-0.6,0-1.2
		c0-0.1,0.1-0.1,0-0.3c-0.1-0.3-0.2-0.6-0.2-0.9c0-0.2,0-0.4-0.3-0.4c-0.2,0-0.1-0.3-0.1-0.3c0.4-0.3,0.1-0.6,0-0.8
		c0-0.1-0.1-0.1-0.1-0.2c0.1,0,0.1-0.1,0.2-0.1c0.2-0.1,0.3-0.2,0.1-0.5c-0.1-0.1,0.1-0.4-0.1-0.5c-0.2-0.2-0.2-0.4-0.2-0.6
		c0-0.1,0-0.2,0.1-0.3c0.1-0.1,0.1-0.3,0-0.3c-0.4-0.2-0.1-0.5-0.1-0.7c0-0.2,0.1-0.3,0.1-0.5c0-0.2-0.1-0.3-0.1-0.4
		c0-0.2,0.1-0.4,0.1-0.5c0.1-0.5,0.1-0.5-0.1-1c-0.1-0.2-0.1-0.3-0.2-0.4c-0.1-0.1-0.1-0.2,0-0.3c0,0,0-0.1,0-0.1
		c-0.3-0.3,0-0.6,0.1-0.9c0.1-0.4,0-0.7-0.3-1c-0.1-0.1-0.2-0.1-0.2,0.1c0,0.1-0.1,0.2-0.2,0.2c0,0-0.1-0.1-0.1-0.1
		c0,0-0.1-0.2-0.2-0.1c-0.2,0.2-0.4,0.4-0.7,0.2c-0.1-0.1-0.3,0-0.5,0.1c-0.2,0.1-0.4,0.1-0.6-0.1c-0.1-0.1-0.2-0.1-0.3-0.2
		c-0.3-0.2-0.2-0.2-0.4-0.4c-0.1-0.1-0.1-0.3-0.3-0.4c-0.1,0-0.1-0.1,0-0.2c0-0.2-0.1-0.5-0.3-0.6c-0.1-0.1-0.2-0.2-0.2-0.4
		c0-0.2,0.1-0.5-0.1-0.7c-0.2-0.1-0.3-0.3-0.2-0.5c0-0.1,0-0.1-0.1-0.2c-0.2-0.1-0.2-0.2-0.2-0.6c0-0.1,0-0.1-0.1-0.2
		c-0.2,0-0.3-0.3-0.5-0.3c0.1-0.3-0.1-0.3-0.3-0.3c0,0-0.1-0.1-0.1-0.1c0.1-0.3-0.4-0.3-0.3-0.6c-0.2-0.1-0.2-0.4-0.3-0.4
		c-0.2-0.1-0.1-0.4-0.3-0.5c-0.2-0.1-0.2-0.4-0.4-0.4c0-0.2-0.2-0.2-0.2-0.4c-0.1-0.2-0.1-0.3-0.3-0.3c-0.1,0-0.3-0.2-0.1-0.4
		c0.1-0.1,0.1-0.2-0.1-0.2c-0.1,0-0.2,0-0.3-0.1c0,0-0.1-0.1-0.1-0.1c-0.1-0.2-0.4-0.1-0.5-0.2c-0.2-0.1-0.1-0.4-0.3-0.4
		c-0.1,0-0.2,0-0.3,0c-0.1-0.1-0.4-0.1-0.4-0.3c0-0.2-0.2-0.1-0.2-0.2c-0.1-0.1-0.2,0-0.3-0.2c-0.3,0.4-0.2,0.8-0.2,1.2
		c0,0.2,0.2,0.3,0.3,0.4c0.2,0.2,0.2,0.3,0.1,0.5c-0.1,0.1,0,0.1,0,0.2c0.2,0.2,0.3,0.4,0.3,0.6c0,0.2-0.1,0.4,0.1,0.6
		c0.1,0.1-0.1,0.3-0.2,0.4c-0.1,0.2-0.1,0.3,0,0.4c0.2,0.1,0.2,0.3,0.1,0.4c0,0.2,0.2,0.3,0,0.4c0.2,0.1,0.1,0.4,0.1,0.5
		c0,0.2,0.1,0.3,0.2,0.5c0.1,0.2,0,0.3,0.2,0.5c0.1,0.1,0,0.3,0.1,0.4c0,0.2,0,0.4,0.1,0.5c-0.1,0.2-0.1,0.3,0,0.5
		c0,0.1,0.1,0.2,0.1,0.3c0,0,0.1,0.1,0.1,0.2c-0.1,0.2-0.1,0.4,0,0.5c-0.2,0.2-0.1,0.4-0.1,0.5c0,0.2-0.1,0.4,0.1,0.6
		c0,0,0.1,0.2,0,0.3c-0.1,0.1-0.1,0.2-0.1,0.3c0,0.4,0,0.6-0.2,0.9c-0.1,0.1-0.1,0.1-0.1,0.3c0,0.1,0.1,0.3,0,0.4
		c-0.2,0.1-0.4,0.3-0.6,0.3c-0.1,0-0.2,0-0.3,0c-0.2-0.1-0.4-0.1-0.6,0.1c-0.1,0.1-0.2,0-0.2-0.1c0-0.1-0.1-0.1-0.1,0
		c-0.1,0.1-0.2,0.2-0.3,0.1c-0.1,0-0.2,0-0.3,0c-0.3,0-0.5,0-0.6-0.1c-0.1-0.1-0.2-0.1-0.3-0.2c-0.3-0.2-0.5-0.3-0.5-0.8
		c0-0.1-0.2-0.3,0-0.5c0,0-0.1-0.2-0.1-0.3c0-0.2-0.3-0.2-0.2-0.4C27,62.2,27,62.1,27,62c0-0.1,0-0.2-0.1-0.3
		c-0.1-0.1-0.2-0.3-0.1-0.5c0,0-0.1-0.6-0.2-0.7c-0.1-0.1-0.1-0.1,0-0.2c0.1-0.1,0-0.3,0-0.4c0-0.1-0.2-0.2,0-0.3
		c0.1,0,0.1-0.2,0-0.3c-0.1-0.1,0-0.3-0.1-0.4c-0.1-0.2-0.3-0.3-0.2-0.5c0.1-0.2,0-0.4,0-0.6c0-0.3-0.1-0.6-0.4-0.7
		c0.1-0.1,0.2-0.3,0.3-0.4c0.1-0.1,0.1-0.2,0-0.3c-0.3-0.2-0.4-0.5-0.4-0.9c0-0.2,0.1-0.5,0-0.6c-0.1-0.2-0.2-0.3-0.2-0.5
		c0-0.1-0.1-0.2,0-0.2c0.1-0.1,0.1-0.3,0.1-0.4c0-0.2,0.1-0.4-0.1-0.4c-0.2,0-0.4,0-0.5,0.1c-0.1,0.1-0.3,0.2-0.4,0
		c0,0-0.2,0-0.2,0.1c0,0,0,0.1,0,0.1c-0.3-0.3-0.6,0.1-0.9,0c-0.1,0-0.3-0.1-0.4,0.2c0,0.1-0.2,0.1-0.3,0c-0.1-0.1-0.2-0.2-0.3,0
		c-0.1,0.1-0.2,0.1-0.3,0c-0.2,0-0.5-0.4-0.7-0.1c-0.1,0.1-0.1-0.1-0.2-0.1c-0.2-0.1-0.3-0.1-0.4,0.1c0,0.1-0.1,0.2-0.3,0.2
		c-0.1,0-0.2,0-0.3,0.1c-0.2,0.1,0,0.3-0.2,0.4c-0.1,0.1,0,0.1,0,0.1c0.1,0.2,0.5,0.3,0.2,0.6c0.3,0.3,0,0.6,0.2,0.9
		c0,0.1-0.2,0.3,0,0.4c0.1,0.1,0.1,0.3,0.2,0.3c0.1,0,0,0.1,0,0.2c-0.2,0.2-0.3,0.4-0.3,0.6c0,0.2-0.3,0.2-0.4,0.4
		c0,0-0.1-0.1-0.1-0.1c0-0.3-0.3-0.1-0.4-0.1c-0.1,0-0.2,0.1-0.2,0.3c0,0.2,0,0.3-0.2,0.4c-0.1,0.1-0.2,0.1-0.3,0.1
		c-0.2,0-0.3,0-0.4,0.1c0,0.1-0.2,0-0.3,0.1c0,0.1,0.1,0.1,0.1,0.2c0,0,0,0,0,0c-0.2,0.2-0.5,0-0.7,0.2c-0.2,0.1-0.4,0-0.6-0.3
		c-0.1-0.1-0.2-0.2-0.3-0.2c-0.2,0-0.3,0.1-0.5,0.2c0.3,0.2-0.2,0.5,0.1,0.7c0.2,0.1,0.2,0.2,0,0.4c-0.1,0.1,0.1,0.2,0.1,0.2
		c0,0.1-0.1,0.1-0.2,0.2c0,0,0,0.1,0,0.2C16,60.8,16,60.9,16,61c0.1,0.1,0.3,0.2,0.2,0.3c-0.2,0.2,0,0.2,0,0.3
		c0,0.2-0.2,0.3-0.1,0.4c0.1,0.1,0.1,0.2,0,0.3c0,0,0,0.1,0,0.1c0.3,0.2,0,0.6,0.2,0.8c0.1,0.1,0.2,0.3-0.1,0.3
		c-0.2,0-0.1,0.2-0.1,0.3c0,0.3-0.1,0.4-0.4,0.4c-0.3,0-0.5,0.3-0.8,0.5c-0.1,0.1-0.3,0.2-0.4,0.1c-0.2-0.2-0.3-0.1-0.4,0.1
		c0,0-0.1,0.1-0.1,0c-0.3-0.3-0.5-0.2-0.8-0.1c-0.1,0-0.2,0-0.3,0.1c-0.1,0.1-0.1,0-0.2,0c-0.2,0-0.2-0.2-0.4-0.3
		c-0.1,0-0.2,0.2-0.4,0c-0.1-0.1-0.3,0-0.4-0.3c-0.2,0-0.3-0.3-0.6-0.3c-0.1,0-0.2-0.2-0.3-0.3c0.3-0.4,0.3-0.8,0-1.2
		c-0.2-0.2-0.4-0.5-0.1-0.8c0.1-0.1,0-0.1,0-0.2c-0.1-0.1-0.1-0.3-0.1-0.5c0-0.1,0-0.3-0.2-0.5c-0.1,0,0-0.2,0-0.4
		c0.1-0.2,0.1-0.2-0.1-0.5c-0.1-0.1-0.1-0.4-0.1-0.5c0,0,0-0.1,0-0.1c-0.2-0.2-0.1-0.4,0-0.5c0.1-0.2,0.1-0.2,0-0.3c0,0,0,0,0,0
		c-0.3-0.2-0.3-0.5-0.1-0.8c0.1-0.2,0.1-0.4-0.1-0.6c-0.1-0.1-0.3-0.2-0.4-0.5c0-0.1-0.1-0.2,0-0.3c0.1-0.1,0.1-0.2,0-0.3
		c-0.2-0.2-0.2-0.3,0-0.5c-0.2-0.2,0-0.5-0.2-0.6c-0.2-0.2-0.1-0.4-0.2-0.5C9,54.5,9,54.4,9,54.4c0-0.4,0-0.7-0.1-1
		c-0.1-0.2,0.1-0.5-0.1-0.7c0,0,0,0,0,0c0.2-0.2-0.3-0.2-0.1-0.4c0-0.2,0.3-0.3,0-0.5c-0.1-0.1,0-0.3,0-0.4c0-0.2,0-0.4-0.2-0.5
		c-0.1-0.1-0.1-0.2-0.1-0.3c0-0.2,0-0.4,0-0.5c0-0.2,0-0.4-0.3-0.5c-0.1,0-0.2-0.2,0-0.3c0.4-0.3,0.3-0.5,0.1-0.9
		c-0.1-0.2-0.2-0.4-0.2-0.6c0-0.2,0-0.3-0.2-0.4c-0.1-0.1-0.1-0.2-0.1-0.3c0-0.2,0.1-0.5-0.2-0.5c0-0.2-0.2-0.2-0.1-0.4
		c0-0.3-0.2-0.4-0.3-0.6c-0.2-0.2-0.6-0.5-0.3-1c0,0,0-0.1-0.1-0.1c-0.3,0-0.2-0.3-0.3-0.4c0-0.1,0.1-0.3-0.2-0.3
		c-0.1,0,0-0.1,0-0.2c0-0.1,0-0.2-0.1-0.3c0,0-0.1-0.1-0.1-0.1c0-0.5-0.3-0.7-0.6-1c-0.1-0.1,0.1-0.2-0.1-0.3
		c-0.2-0.1-0.1-0.2-0.1-0.4c0-0.1-0.2-0.2-0.1-0.4c0-0.1,0-0.2,0-0.2c-0.2-0.4-0.2-0.4-0.2-0.8c0-0.1,0-0.1-0.1-0.2
		c-0.2-0.1-0.4-0.2-0.4-0.5c-0.3-0.4-0.3-0.8-0.4-1.3C4.2,38,4.1,38,4,38C4,38,4,37.9,4,37.8c0-0.2,0.1-0.5-0.2-0.6
		c0.1-0.4-0.4-0.6-0.3-1c0-0.1,0-0.2-0.1-0.2c-0.2-0.1-0.2-0.3-0.1-0.5c0-0.1,0.1-0.2-0.1-0.3c-0.1,0-0.2-0.1-0.2-0.2
		C3,34.8,3.1,34.6,3,34.4c-0.2-0.2-0.2-0.4-0.2-0.6c0-0.2-0.1-0.3-0.2-0.4c-0.2-0.1-0.2-0.4-0.1-0.5c0.2-0.3,0-0.5-0.1-0.7
		c0-0.1-0.1-0.1-0.2-0.2C2,31.9,2,31.8,2.1,31.7c0.1-0.4,0.1-0.4-0.2-0.6c-0.2-0.1-0.4-0.2-0.3-0.5c-0.2-0.1-0.1-0.3-0.2-0.5
		c-0.1-0.1-0.1-0.2,0-0.3c0.3-0.2,0.1-0.3,0-0.4c-0.2-0.1-0.1-0.4-0.2-0.5c0.2-0.2,0.1-0.3-0.1-0.4c-0.2-0.2-0.3-0.4-0.3-0.7
		l-0.2-0.6c-0.1-0.1,0-0.2-0.1-0.3c-0.1-0.3-0.1-0.7-0.4-0.9c-0.1-0.1-0.1-0.3,0-0.4c0.1-0.1,0.1-0.2,0.3-0.2c0.1,0,0.2-0.1,0.2-0.2
		c0.1-0.4,0.2-0.4,0.6-0.6c0.1,0,0.1-0.1,0.1-0.2c0-0.1,0-0.3,0-0.4c0.1,0,0.2,0,0.3,0c0.2,0,0.4,0.1,0.4-0.2c0.2,0,0.2-0.2,0.2-0.3
		C2.1,23,2.4,23.2,2.5,23c0.3,0,0.4-0.1,0.5-0.4c0-0.2,0.3-0.3,0.3-0.5c0-0.1,0.1-0.2,0.3-0.2c0.2,0,0.4-0.1,0.5-0.2
		c0.1-0.1,0.2-0.1,0.3-0.1c0.2,0,0.2-0.1,0.3-0.2c0.1-0.1,0.1-0.3,0.4-0.3c0.1,0,0.3-0.1,0.4-0.3c0,0,0.3-0.3,0.3-0.3
		c0.1-0.1,0.3-0.1,0.4-0.3C6.1,20.1,6.2,20,6.4,20c0.1,0,0.1-0.1,0.2-0.1c0.1-0.1,0.1-0.4,0.2-0.3c0.3,0.2,0.2-0.1,0.4-0.2
		c0.2,0,0.3-0.1,0.4-0.2c0.1-0.1,0.4-0.1,0.3-0.3c0,0,0.1-0.1,0.1-0.1c0.3,0.1,0.4-0.2,0.5-0.3c0.2-0.1,0.3-0.3,0.6-0.2
		c0.1,0,0.2-0.1,0.3-0.2c0.2-0.1,0.4-0.2,0.4-0.4c0.2,0.2,0.4,0.1,0.5,0.1c0.2,0,0.2-0.2,0.3-0.2c0.2,0,0.4,0,0.5-0.2
		c0-0.1,0.1,0,0.1,0c0.1,0.2,0.3,0.1,0.5,0.1c0.1-0.1,0.4,0.1,0.4-0.2c0,0,0.1,0,0.2,0c0.1-0.1,0.2-0.1,0.1-0.3
		c-0.1-0.1-0.1-0.3,0-0.5c0.1-0.1,0.2-0.1,0.2-0.3c0-0.2,0.2-0.3,0.1-0.5c0-0.2,0.1-0.3,0.2-0.4c0.2-0.1,0.3-0.2,0.4-0.5
		c0,0,0.1-0.1,0.1-0.1c0-0.2-0.3-0.4,0.1-0.5c0.3-0.1,0.2-0.3,0.3-0.5c0-0.1,0.1-0.2,0.2-0.1c0.3,0.1,0.2-0.3,0.4-0.2
		c0.2,0,0.3-0.2,0.4-0.2c0.1,0,0.2-0.1,0.2-0.1c0-0.3,0.4-0.2,0.5-0.4c0.3,0.1,0.5-0.2,0.8-0.1c0.2,0,0.3-0.1,0.5-0.2
		c0.1-0.1,0.2-0.1,0.2,0.1c0,0,0,0.1,0.1,0c0.3-0.1,0.5-0.1,0.7,0.1c0.1,0.1,0.4,0.1,0.5,0.3c0.1,0.1,0.1,0,0.1,0
		c0.2-0.2,0.2-0.1,0.3,0.1c0.1,0.1,0.2,0.1,0.3,0.2c0.2,0,0.3-0.1,0.4-0.3c0.1,0.3,0.2,0.4,0.5,0.4c0.1,0,0.2,0,0.4,0
		c0.1,0,0.2,0.1,0.2,0.2c0,0.1,0.1,0.2,0.1,0.2c0.1,0.1,0.2,0.3,0.1,0.4c-0.2,0.2,0,0.3,0.2,0.4c0-0.2,0-0.4,0-0.6
		c0.1,0,0.2,0.1,0.3,0.1c0.1,0,0.2-0.2,0.4-0.1c0.1,0.1,0.3,0.3,0.3,0.5c0,0.4,0.1,0.5,0.4,0.7c0.2,0.1,0.3,0.3,0.1,0.5
		c-0.1,0.1,0,0.1,0,0.2c0,0.1,0,0.2,0,0.3c-0.1,0.3-0.1,0.4,0,0.7c0.1,0.1,0.1,0.2,0.1,0.3c0,0.5,0.1,1.1-0.1,1.6
		c0,0.2,0.1,0.2,0.1,0.2c0.2,0.2,0.3,0.3,0.1,0.5c-0.1,0.1,0.1,0.2,0.1,0.2c0,0.2,0.3,0.2,0.1,0.5c-0.1,0.1,0.1,0.3,0.1,0.4
		c0,0.2-0.3,0.2-0.1,0.4c0.2,0.1-0.1,0.2,0,0.3c0,0.2,0.1,0.3,0.1,0.5c0,0.2,0.2,0.4,0,0.6c-0.1,0.1,0,0.1,0.1,0.2
		c0.1,0.2,0.1,0.5,0.1,0.9c0,0.2,0,0.3,0.1,0.5c0.2,0.2,0.4,1,0.4,1.2c0,0.2,0,0.3,0.1,0.4c0.1,0.1,0.2,0.2,0.1,0.3
		c-0.1,0.1-0.2,0.2-0.1,0.3c0.1,0.1,0.2,0.3,0.3,0.4c0.2,0.1,0.2,0.1,0.1,0.2c-0.1,0.1,0.1,0.2,0.1,0.3c0,0.1-0.1,0.2-0.1,0.3
		c0,0.1,0,0.1,0.1,0.1c0.3,0.1,0.4,0.2,0.2,0.4c0,0.1-0.1,0.3,0.2,0.3c0.1,0,0.1,0.1,0.2,0.2c0,0.1-0.1,0.1-0.1,0.2
		c0.2,0.1,0,0.4,0.2,0.5c0.1,0,0.1,0.2,0.1,0.3c0,0.1,0,0.2,0.1,0.3c0.1,0.1,0.2,0.3,0.3,0.4c0.1,0.1,0.1,0.2,0.2,0.3
		c0.2,0,0.1,0.3,0.3,0.3c0.2,0.1,0.1,0.3,0.1,0.4c0,0.1,0,0.2,0.1,0.3c0.2,0.1,0.3,0.2,0.3,0.4c0,0.1,0,0.1,0.1,0.1
		c0.3-0.1,0.3,0.4,0.6,0.3c0.1,0,0.1,0.1,0.1,0.2c0,0.2-0.1,0.5,0.3,0.5c0,0,0.1,0.1,0.1,0.1c-0.2,0.4,0.2,0.4,0.3,0.6c0,0,0,0,0,0
		c-0.1,0.4,0.3,0.5,0.5,0.6c0.1,0.1,0.3,0.2,0.2,0.4c0,0.2,0.1,0.3,0.3,0.4c0.3,0.1,0.4,0.4,0.7,0.6c0.2,0.1,0.2,0.2,0.4,0
		c0.2-0.1,0.5-0.2,0.8-0.1c0.1,0,0.2,0,0.2-0.1c0-0.1,0.1-0.2,0.1-0.3c0-0.1,0.1-0.2,0.2-0.1c0.4,0.1,0.7-0.2,1-0.3
		c0,0,0.2-0.1,0.1-0.2c-0.2-0.2,0-0.2,0.1-0.3c0.3-0.3,0.3-0.4,0.1-0.6c-0.2-0.2-0.2-0.6-0.5-0.8c-0.1-0.1-0.1-0.1,0-0.2
		c0.2-0.5,0.2-0.9-0.3-1.2c-0.2-0.1-0.1-0.3-0.2-0.5c-0.1-0.1-0.3-0.2-0.1-0.4c0,0,0-0.1,0-0.2c-0.1-0.1-0.2-0.2-0.1-0.4
		c0,0,0-0.1,0-0.1c-0.1-0.1-0.2-0.3-0.2-0.4c0.2-0.2-0.1-0.3-0.1-0.4c0-0.2,0-0.3,0.1-0.4c0,0,0,0,0-0.1c0-0.2-0.3-0.4,0-0.6
		c-0.3-0.2-0.2-0.5-0.3-0.7c-0.1-0.2-0.2-0.5-0.3-0.7c-0.1-0.1-0.1-0.2,0-0.3c0.1-0.2,0.1-0.3,0-0.5c-0.2-0.1-0.2-0.4-0.1-0.5
		c0.2-0.2,0.1-0.3,0-0.5c-0.1-0.2-0.3-0.4,0-0.6c0-0.3,0.1-0.6-0.1-0.8c-0.1-0.1,0-0.2,0-0.3c0-0.2,0-0.2-0.2-0.3
		c-0.3-0.2-0.4-0.5-0.2-0.9c0-0.1,0.1-0.2,0-0.4c-0.2-0.2-0.1-0.5-0.2-0.7c-0.1-0.4-0.1-0.7-0.2-1.1c0-0.2,0-0.4,0-0.5
		c0,0,0-0.1,0-0.1c0.4,0.1,0.3-0.3,0.4-0.4c0.2-0.2,0.4-0.2,0.6-0.4c0.3-0.2,0.4-0.6,0.7-0.7c0.3-0.1,0.6-0.2,0.8-0.3
		c0.2-0.1,0.3-0.3,0.4-0.4c0.1-0.1,0.1-0.1,0.2,0c0.1,0.1,0.2,0.1,0.3-0.1c0-0.1,0.1-0.2,0.2-0.3c0-0.1,0.1-0.1,0.2-0.1
		c0.2,0.2,0.3,0,0.5-0.1c0.1-0.1,0.3,0,0.4-0.1c0.1-0.1,0.3-0.2,0.4-0.3c0.1-0.1,0.4,0.1,0.5-0.1c0.1-0.1,0.4,0.1,0.4-0.2
		c0,0,0.1,0,0.1,0c0.1,0,0.3,0,0.4,0c0.1,0,0.1-0.2,0.2-0.3c0.2-0.1,0.4-0.2,0.6-0.3c0.1-0.1,0.2,0.1,0.3,0.1c0.2,0.1,0.3,0.2,0.4,0
		c0-0.1,0.1-0.1,0.2-0.1c0.3,0,0.6,0,0.9-0.2c0.1-0.1,0.1,0,0.2,0c0,0.1,0.1,0,0.2,0.1c0.2,0,0.3-0.2,0.4-0.1
		c0.1,0.1,0.3,0.2,0.4,0.1c0.1,0,0.1,0,0.2,0c0.3-0.3,0.5-0.5,0.9-0.4c0.2,0,0.4-0.2,0.7,0c0.1,0.1,0.1-0.1,0.1-0.1
		c0.1-0.2,0.2-0.4,0.5-0.4c0.1,0,0.3-0.1,0.4-0.2c0.1-0.1,0.1-0.1,0-0.2c0,0,0,0,0-0.1c0.1-0.2,0.2-0.3,0.3-0.4
		c-0.2-0.2,0-0.3,0-0.4c0-0.2,0.1-0.4,0.4-0.4c0.2,0,0.1-0.1,0-0.2c-0.1-0.1,0-0.2,0.1-0.3c0.2-0.1,0.4-0.3,0.6-0.4
		c0.1-0.1,0.4-0.1,0.3-0.4c0.3-0.1,0.4-0.3,0.4-0.6c0-0.1,0.1-0.1,0.2-0.1c0.4,0.1,0.7-0.1,0.9-0.5c0.1-0.2,0.2-0.2,0.4-0.2
		c0.3,0.1,0.4,0.1,0.6-0.1C46.9,9,46.9,9,47,9.1c0.2,0.2,0.5,0.3,0.7,0.5c0.1,0.1,0.2,0.3,0.3,0c0.2-0.2,0.5-0.2,0.7-0.4
		c0,0,0.2,0,0.2,0.1c0,0,0,0.1,0,0.1c0.3,0,0.4,0.3,0.5,0.5c0.2,0.2,0.4,0.5,0.7,0.6c0.1,0,0.1,0.1,0.2,0.1c0.3,0,0.4,0,0.5,0.2
		c0.1,0.1,0.1,0.1,0.2,0.2c0.1,0,0.2-0.1,0.2-0.1c0.1,0,0,0.2,0.1,0.2c0,0,0.1,0.1,0.1,0.1c0.3-0.2,0.3,0,0.4,0.2
		c0.1,0.1,0.1,0.2,0.3,0.2c0.2,0,0.4,0.2,0.7,0.2c0.2,0,0.5-0.2,0.6,0.1c0,0,0.2,0,0.2,0c0.2,0,0.4-0.1,0.4,0.2c0,0,0.1,0,0.1,0
		c0.2-0.2,0.4-0.1,0.5,0.1c0.1,0.1,0.2,0.1,0.3,0.1c0.2,0,0.5-0.1,0.6,0.2c0,0.1,0.1,0,0.2,0c0.2-0.2,0.4-0.3,0.6,0
		c0,0,0.1,0.1,0.1,0.1c0.2,0.1,0.4-0.2,0.5-0.1c0.2,0.1,0.4,0.1,0.5,0c0.1-0.1,0.3-0.1,0.3,0c0.2,0.1,0.4-0.1,0.6,0
		c0.2,0.2,0.4,0.1,0.6,0.1c0.1,0,0.2,0.1,0.2,0.1c0.1,0.2,0.3,0.3,0.6,0.2c0.2,0,0.3-0.1,0.5,0.1c0.1,0.1,0.3-0.1,0.5-0.1
		c0.4,0,0.5,0,0.8,0.1c0.1,0,0.1,0.1,0.2,0.1c0.2,0,0.3-0.2,0.4-0.2c0.1,0,0.2,0.2,0.4,0.2c0.1,0,0.1,0,0.2,0
		c0.1-0.2,0.3-0.3,0.5-0.1c0,0,0.1,0,0.1-0.1c0.3-0.2,0.7-0.2,1.1-0.2c0.2,0,0.4,0.1,0.5-0.1c0.1-0.1,0.2-0.2,0.4-0.1
		c0.1,0,0-0.3,0.3-0.2c0.1,0,0.1,0,0.2-0.1c0.1-0.3,0.4-0.5,0.7-0.3c0.1,0.1,0.1,0,0.1-0.1c0.1-0.3,0.2-0.4,0.5-0.4
		c0.1,0,0.2,0.1,0.3,0c0.2-0.3,0.4-0.1,0.6,0c0,0,0,0,0,0c0.1-0.2-0.1-0.4,0.1-0.5c0.1-0.1,0.3-0.2,0.5-0.1c0.1,0,0.2-0.1,0.2-0.2
		c0,0,0-0.1,0-0.2c0-0.2,0.1-0.4,0.2-0.5c0.2-0.1,0.3-0.3,0.4-0.3c0.1,0,0.2-0.1,0.1-0.2c-0.1-0.3,0-0.4,0.3-0.5
		c0.1,0,0.1-0.1,0.2-0.1c0.1,0,0.1-0.1,0.1-0.1c-0.1-0.3,0-0.4,0.3-0.4c0.1,0,0.1,0,0.1-0.1C71,8,71.1,8,71.3,8.2
		c0.1,0.1,0.2,0.1,0.3,0.1c0.3-0.1,0.4,0,0.6,0.2c0.1,0.1,0.2,0.1,0.3,0c0.2-0.1,0.4,0.1,0.5,0.1c0.2,0,0.2,0.2,0.4,0.3
		c0.2,0.2,0.4,0.4,0.7,0.4c0.1,0,0.2,0,0.3,0.1c0.1,0.1,0,0.3,0.2,0.3c0.1,0,0.2,0,0.4,0c0,0.4,0,0.8,0.1,1.2c0,0.1,0,0.3-0.1,0.3
		c-0.4,0-0.3,0.1-0.2,0.4c0.1,0.1,0.1,0.3-0.1,0.4c-0.1,0-0.1,0.1-0.1,0.2c0.1,0.3-0.1,0.2-0.3,0.2c-0.1,0-0.1,0-0.2,0
		c0,0,0,0.1,0,0.1c0.1,0.4-0.1,0.6-0.5,0.7c-0.1,0-0.3,0-0.3,0.3c0,0.1-0.1,0.2-0.1,0.2c-0.2,0-0.3,0.2-0.3,0.4
		c-0.1,0.3-0.2,0.2-0.4,0.2c-0.1-0.1-0.3,0-0.1,0.2c0.1,0.1-0.1,0.3-0.2,0.3c-0.2,0-0.3,0.2-0.3,0.3c-0.1,0.2-0.2,0.3-0.4,0.3
		c-0.2-0.1-0.1,0.2-0.3,0.2c-0.1,0-0.2,0-0.3,0c0,0,0,0,0,0c0.3,0.2-0.1,0.2-0.1,0.2c-0.1,0.1-0.1,0.2-0.2,0.3c0,0-0.1,0.1-0.1,0.1
		c-0.1,0.1-0.2,0.2-0.3,0c-0.1-0.1-0.3,0-0.4-0.2c0,0-0.3-0.1-0.3,0.1c0,0.1-0.1,0.2-0.3,0.2c-0.1,0-0.1,0-0.2,0
		c-0.4,0.3-0.6,0.4-1,0.4c-0.2,0-0.3,0.1-0.4,0.3c0,0.2-0.1,0.2-0.3,0.1c-0.1-0.1-0.4-0.1-0.4,0.2c-0.3,0-0.5,0.3-0.8,0.4
		c0,0-0.1,0.1-0.1,0.1c-0.4-0.4-0.4,0.2-0.6,0.3c-0.1,0.1-0.2,0.3-0.3,0.2c-0.2-0.2-0.5,0.2-0.7-0.1c-0.1-0.1-0.2-0.1-0.2,0
		c-0.1,0.2-0.2,0.2-0.3,0c-0.1-0.1-0.2-0.1-0.2,0c0,0-0.1,0.1-0.1,0.1c-0.1,0.2-0.2,0.1-0.4,0.1c-0.1,0-0.2,0-0.3-0.1
		c-0.2-0.1-0.4-0.1-0.5,0c-0.2,0.1-0.3,0.1-0.5,0.1c-0.1,0-0.3,0.3-0.5,0c0,0-0.2,0-0.3,0c-0.2,0.1-0.4,0.2-0.6,0c0,0-0.2,0-0.3,0
		c-0.2,0.1-0.4,0.1-0.5-0.2c0,0-0.2-0.1-0.2-0.1c-0.1,0.1-0.3,0.1-0.4,0.1c-0.1,0.1-0.2,0.1-0.3,0c-0.1-0.1-0.3-0.1-0.4,0
		c-0.1,0.1-0.2,0.1-0.3,0c-0.1-0.1-0.3,0.1-0.4,0.2c-0.1,0-0.2,0.1-0.2,0.1c-0.1-0.4-0.4-0.1-0.5-0.2c-0.2-0.1-0.3-0.1-0.5-0.2
		c-0.2-0.1-0.4-0.5-0.6-0.1c-0.1,0.1-0.2-0.1-0.3-0.1c-0.2-0.1-0.4-0.2-0.6,0.1c-0.1,0.1-0.2,0.1-0.2,0c-0.1-0.1-0.1-0.1-0.2,0
		c-0.1,0.1-0.3,0.2-0.4,0.2c-0.2,0-0.3-0.2-0.4-0.4c-0.1-0.1-0.2-0.1-0.4-0.1c-0.3,0.2-0.5,0.1-0.8-0.1c-0.1-0.1-0.2-0.2-0.4-0.2
		c-0.2,0-0.4,0-0.4,0.2c0,0.2-0.3,0.3-0.2,0.4c0.1,0.2,0,0.3,0.1,0.4c0.1,0.2,0.2,0.3,0,0.5c-0.1,0.1,0,0.2,0,0.3
		c0,0.1,0.1,0.3,0.2,0.4c-0.2,0.1-0.1,0.3-0.1,0.4c0,0.2-0.1,0.5,0.1,0.7c0.1,0.1,0,0.3,0,0.3c-0.1,0.1-0.1,0.3-0.1,0.4
		c0,0.1,0.2,0.1,0.3,0.2c0,0.1,0.1,0.1,0.2,0.1c0.1,0,0.1,0.1,0.1,0.2c-0.2,0.3-0.2,0.5,0.1,0.8c0.1,0.1,0,0.4,0.2,0.5
		c0.1,0.1-0.1,0.2-0.1,0.3c0.1,0.1,0.2,0.2,0.2,0.3c0,0.1,0.1,0.2,0.2,0.3c0.1,0.1,0.1,0.1,0,0.2c-0.2,0.1,0,0.2,0,0.3
		c0.1,0.1,0.3,0.2,0.4,0.2c0.4,0.1,0.6,0.5,0.9,0.7c0,0,0,0.1,0,0.2c0.1,0.2,0.2,0.3,0.4,0.4c0.4,0.1,0.5,0.3,0.4,0.7
		c-0.1,0.3-0.1,0.3,0.2,0.3c0.1,0,0.1,0,0.2,0c0,0,0.1,0.1,0.1,0.1c0.2-0.2,0.6-0.2,0.7-0.4c0.1-0.3,0.2-0.2,0.4-0.1
		c0,0,0.2,0,0.2-0.1c0-0.1,0-0.1,0.1-0.1c0.3,0,0.3,0,0.5-0.3c0.1-0.1,0.1,0,0.2,0c0.1,0.1,0.3,0.1,0.4-0.1c0.1-0.2,0.3-0.1,0.4-0.1
		c0.1,0,0.3,0.1,0.3-0.2c0-0.1,0.2-0.1,0.3-0.1c0.3,0,0.6,0,0.6-0.1c0.1-0.2,0.4-0.4,0.3-0.8c-0.1-0.4,0.1-0.7,0.3-1
		c0.1-0.2,0.1-0.3,0-0.4c-0.1-0.1-0.1-0.2,0-0.4c0.1-0.1,0.1-0.2,0-0.2c-0.1,0-0.2,0-0.1-0.2c0.1-0.1,0.4-0.1,0.3-0.4
		c0,0,0.1-0.2,0.2-0.2c0.2,0.1,0.3-0.1,0.4-0.3c0.1-0.1,0.1-0.2,0.2-0.2c0,0,0.2,0.1,0.2,0.1c0.3-0.3,0.6-0.2,0.9-0.2
		c0.2-0.3,0.6-0.2,0.9-0.5c0,0,0.1-0.1,0.1-0.1c0.2,0,0.4,0.1,0.4-0.2c0,0,0.1,0,0.1,0c0.3,0.1,0.5-0.1,0.7-0.3
		c0.1-0.1,0.2,0.2,0.3,0c0-0.1,0.2-0.2,0.3-0.2c0.1,0,0.2-0.1,0.3-0.1c0.4-0.1,0.4-0.1,0.8-0.4c0.1-0.1,0.2,0,0.2,0
		c0.3,0,0.5-0.1,0.7-0.2c0.4-0.3,0.8-0.4,1.2-0.5c0.1,0,0.2,0,0.3-0.2c0.1-0.3,0.2-0.3,0.4-0.1c0.1,0.1,0.2,0.1,0.3,0
		c0,0,0.1-0.1,0.1-0.1c0.1-0.4,0.5-0.4,0.7-0.3c0.3,0.1,0.5,0,0.5-0.2c0.1-0.3,0.2-0.2,0.4-0.2c0.1,0,0.2,0,0.2,0
		c0.2-0.4,0.7-0.1,1.1-0.4c0.1-0.1,0.2-0.4,0.5-0.3c0.2-0.3,0.4-0.2,0.7-0.1c0.2,0.1,0.4-0.1,0.5-0.3c0.1-0.2,0.2-0.2,0.3-0.3
		c0.2-0.1,0.3-0.1,0.5,0c0.1,0.1,0.1,0,0.2-0.1c0.1-0.1,0.2-0.2,0.4-0.3c0.3-0.1,0.6-0.2,0.9,0.1c0.1-0.1,0-0.2,0.2-0.3
		c0.1,0,0.1-0.1,0.2-0.2c0.1-0.2,0.2-0.2,0.4,0c0.1,0.1,0.2,0.1,0.3,0c0.1-0.1,0.2,0.1,0.2,0.1c0.1,0.2,0.3,0.2,0.5,0.2
		c0.1,0,0.1-0.2,0.2,0c0,0.1,0.3,0.2,0,0.3c0,0,0,0.1,0,0.1c-0.1,0.1-0.2,0.2,0,0.3c0.1,0.1,0.2,0.2,0.1,0.2c-0.2,0.2,0,0.3,0.1,0.3
		c0.1,0,0.1,0.1,0.2,0.2c0.1,0.3,0.3,0.5,0.5,0.5c0.3,0.1,0.2,0.2,0.2,0.3c-0.1,0.1-0.1,0.2,0,0.3c0,0,0,0.1,0,0.1
		c-0.1,0.1-0.1,0.2-0.1,0.3c0,0.1-0.1,0.3,0.1,0.4c0.1,0.1-0.1,0.1,0,0.3c0.1,0.3,0.1,0.6-0.1,0.8c-0.1,0.2-0.1,0.4-0.2,0.5
		c-0.2,0.2,0.1,0.5,0.1,0.7c0,0.1,0.1,0.2,0.1,0.4c0,0.3-0.2,0.6,0.1,0.8c0.1,0.1,0,0.1-0.1,0.2c-0.4,0.4-0.3,1-0.3,1.5
		c0,0.2,0.2,0.3,0.4,0.3c0.2,0,0.4,0,0.5,0.2c0.1,0.1,0.3,0.2,0.4,0.3c0.1,0.1,0.2,0.2,0.3,0.4c0,0.1,0.1,0.1,0.2,0
		c0.3-0.3,0.6,0,0.8,0.1c0.1,0,0.1,0.1,0.2,0.1c0.3-0.1,0.4,0.1,0.6,0.3c0.3,0.2,0.5,0.4,0.9,0.4c0.2,0.3,0.6,0.1,0.8,0.5
		c0,0.1,0.1,0.2,0.3,0.2c0.4,0,0.7,0.1,0.9,0.5c0.1,0.2,0.4,0.3,0.7,0.2c0.3,0,0.5,0,0.6,0.3c0,0.2,0.2,0.1,0.4,0.1
		c0.2,0,0.4-0.2,0.5,0.2c0,0.1,0.1,0,0.2,0c0.2,0,0.4,0,0.5,0c0.2,0,0.3,0,0.2,0.2c0,0.1,0.1,0.2,0.2,0.1c0.2-0.2,0.3,0,0.3,0.1
		c0,0.3,0.2,0.3,0.4,0.2c0.1,0,0.2,0,0.3,0.1c0.1,0.1,0.2,0.1,0.3,0c0.2-0.1,0.3,0,0.4,0.2c0.2,0.3,0.2,0.3,0.6,0.3
		c0.2,0,0.4,0.1,0.5,0.2c0.1,0.1,0.2,0.2,0.4,0.3c0.2,0.1,0.3,0.1,0.4,0c0,0,0.1,0,0.1,0.1c0.3,0.3,0.5,0.5,0.9,0.5
		c0.1,0,0.1,0,0.1,0.1c-0.1,0.2,0.1,0.3,0.3,0.2c0.1,0,0.3,0,0.4,0c0.2-0.1,0.3-0.1,0.3,0.1c0,0.1,0,0.1,0.1,0.2
		c0.2,0.2,0.4,0.4,0.7,0.4c0.2,0,0.2,0,0.5,0.3c0.1,0.1,0.4,0,0.4,0.2c0,0.3,0.2,0.1,0.3,0.2c0.1,0,0.2,0,0.2,0
		c0,0.5,0.5,0.2,0.7,0.4c0.1,0.1,0.1,0,0.2,0c0.2-0.1,0.4-0.2,0.7-0.2c0.1,0,0.1-0.1,0.1-0.1c0-0.1,0-0.1,0.1-0.1
		c0.4,0,0.7-0.1,1-0.1c0.2,0,0.4-0.1,0.5-0.3c0.2-0.2,0.5-0.3,0.7-0.5c0.1-0.1,0.4-0.1,0.6,0c0.1,0.1,0.2,0,0.3,0
		c0.1-0.1,0.2-0.3,0.4-0.3c0.1-0.5,0.8-0.6,0.8-1.2c0-0.1,0.1-0.1,0.2-0.2c0.1-0.1,0.1-0.1,0-0.2c-0.2-0.4,0-0.6,0.2-0.9
		c0.2-0.4,0.5-0.7,0.5-1.2c0-0.1,0.1-0.2,0.1-0.2c0.1-0.1,0.2-0.2,0-0.3c-0.1-0.1,0-0.1,0-0.1c0.2-0.2,0.3-0.4,0.1-0.6
		c-0.1-0.1-0.1-0.2,0-0.3c0.3-0.3,0.2-0.8,0.5-1.2c0.1-0.1,0-0.2-0.1-0.3c0.1-0.1,0.2-0.2,0.1-0.3c-0.1-0.1-0.1-0.2,0-0.3
		c0.1-0.1-0.2-0.2-0.1-0.4c0-0.1,0-0.2,0-0.4c0-0.2-0.1-0.2-0.1-0.4c0-0.3-0.1-0.6,0-0.8c0.1-0.2,0-0.3-0.1-0.4
		c-0.1-0.1-0.2-0.1-0.3-0.1c-0.2,0.1-0.3,0.3-0.5,0.3c-0.1,0-0.1,0.1-0.1,0.2c-0.1,0.3-0.2,0.5-0.5,0.6c-0.2,0-0.5-0.2-0.5,0.2
		c0,0.1-0.1,0-0.2,0c-0.2,0-0.4,0-0.7,0c-0.1,0-0.2,0-0.2,0.1c0.1,0.3-0.2,0.3-0.3,0.3c-0.2,0.1-0.3,0.2-0.5,0.2
		c-0.1,0-0.2,0-0.2,0.2c0,0-0.1,0.1-0.1,0.1c-0.4,0.4-0.4,0.4-1,0.4c-0.3,0-0.6-0.1-0.8,0.2c-0.2,0-0.2,0.2-0.2,0.3
		c-0.1,0.3-0.1,0.1-0.2,0c-0.1,0-0.2,0-0.3-0.1c0,0,0,0-0.1,0c-0.3,0.2-0.3,0.2-0.5,0.1c-0.1,0-0.1,0-0.2-0.1
		c-0.1-0.1-0.2,0.1-0.3,0.1c-0.1,0-0.2-0.2-0.3-0.2c-0.1-0.1-0.2-0.1-0.2,0c-0.3,0.3-0.7,0-1,0.1c0,0-0.1-0.1-0.1-0.1
		c-0.2-0.1,0-0.5-0.4-0.4c-0.2,0.1-0.3-0.2-0.5-0.3c-0.1-0.1-0.2,0-0.3,0c-0.3,0.1-0.3,0.1-0.4-0.1c0-0.1,0-0.1-0.1-0.1
		c-0.3,0-0.4-0.1-0.5-0.3c0,0,0-0.1-0.1-0.1c-0.4-0.2-0.7-0.6-1-0.9c-0.1-0.1-0.3-0.2-0.5-0.3c-0.2-0.1-0.5-0.1-0.6-0.5
		c0-0.1-0.2-0.3-0.4-0.3c-0.2,0-0.2-0.1-0.2-0.2c0-0.1,0-0.1-0.1-0.1c-0.3,0-0.4-0.3-0.6-0.4c-0.2-0.1-0.3-0.3-0.5-0.4
		c-0.2-0.1-0.3-0.3-0.3-0.4c0-0.4-0.3-0.5-0.5-0.7c-0.1-0.1-0.5-0.1-0.4-0.3c0-0.2-0.2-0.4-0.1-0.6c0.1-0.2-0.1-0.2-0.2-0.2
		c-0.2,0-0.3,0-0.3-0.3c0,0,0-0.1,0-0.1c-0.3,0-0.2-0.2-0.2-0.3c0.2-0.2,0.1-0.3-0.1-0.4c-0.1-0.1-0.1-0.2,0-0.3
		c0.1-0.1,0.1-0.4,0.3-0.5c0.1-0.1,0.1-0.4,0.3-0.4c0.1,0,0.1-0.1,0.1-0.2c0-0.1,0-0.1,0.1-0.1c0,0,0.5-0.4,0.5-0.4
		c0.1-0.2,0.2-0.3,0.3-0.2c0.2,0,0.4-0.1,0.5-0.3c0.1-0.2,0.3-0.1,0.3-0.1c0-0.2,0.2-0.3,0.3-0.4c0.1-0.1,0.2-0.1,0.3-0.2
		c0.1-0.1,0.3-0.1,0.4-0.2c0.1,0,0.1,0,0.2,0c0.2,0.1,0.5,0.2,0.7,0.4c0.1,0.1,0.2,0.1,0.3,0.1c0.2,0,0,0.2,0.2,0.2
		c0.3,0,0.4,0.3,0.5,0.5c0.2,0.5,0.5,0.8,0.9,0.9c0.2,0.1,0.5,0.2,0.4,0.5c0.2,0.1,0.3,0.4,0.5,0.3c0.1,0,0.2,0,0.2,0
		c0,0.2,0.1,0.3,0.3,0.3c0.1,0,0.3,0.2,0.5,0.2c0.1,0,0.2,0.1,0.3,0.2c0.3,0.5,0.3,0.5,0.9,0.8c0.2,0.1,0.3,0.3,0.5,0.4
		c0.2,0.2,0.4,0.2,0.7,0c0.1-0.1,0.1-0.1,0.2-0.2c0,0,0.1-0.1,0.1-0.1c0.3,0.3,0.4-0.1,0.6-0.1c0.2,0,0.4-0.2,0.6-0.3
		c0.2,0,0.1-0.2,0.2-0.2c0.1,0,0.2,0,0.4,0c0.1,0,0.1-0.1,0.2-0.2c0-0.2,0.3-0.2,0.3-0.3c0-0.3,0.1-0.3,0.4-0.3c0.1,0,0.2,0,0.3-0.2
		c0.2-0.3,0.5-0.5,0.8-0.5c0.2-0.1,0.4-0.2,0.5-0.4c0.1-0.2,0.1-0.2,0.3-0.2c0,0,0.1,0,0.1,0c0-0.2,0.2-0.3,0.3-0.5
		c0-0.1,0.1-0.3,0.3-0.2c0.3,0.1,0.5-0.1,0.5-0.3c0.1-0.3,0.3-0.3,0.5-0.5c0.2-0.2,0.5-0.2,0.6-0.5c0-0.1,0.1-0.1,0.2-0.1
		c0.1,0,0.2,0,0.2-0.1c0.1-0.3,0.5-0.3,0.5-0.6c0-0.3,0.3-0.4,0.3-0.6c0,0,0.1-0.1,0.1-0.1c0.2,0,0.3,0,0.5,0c0.1,0,0.1-0.2,0.3-0.2
		c0.3-0.1,0.7-0.1,1-0.1c0.2,0,0.5,0,0.6-0.3c0.1-0.2,0.2,0,0.3,0c0.1,0,0.3,0,0.4,0c0.3-0.1,0.7-0.2,1,0.1c0.1,0.1,0.3,0,0.4,0.1
		c0.1,0.1,0.1,0,0.1-0.1c0.2-0.4,0.3-0.5,0.7-0.2c0.1,0.1,0.2,0.1,0.3,0c0.1-0.1,0.4-0.1,0.5,0c0.2,0.2,0.3,0.1,0.4-0.1
		c0.1-0.1,0.2-0.1,0.2,0c0.1,0.1,0.2,0.2,0.2,0.3c0.1,0.4,0.5,0.5,0.9,0.5c0.4,0,0.7,0.1,0.9,0.4c0.1,0.1,0.2,0.2,0.4,0.3
		c0.2,0.1,0.5,0,0.4,0.4c0.3,0,0.3,0.4,0.5,0.5c0.2,0.1,0.2,0.4,0.5,0.4c0.2,0,0,0.4,0.3,0.4c0.2,0,0.3,0,0.5,0.1
		c0.2,0.1,0.2,0.2,0.3,0.4c0,0,0,0.2,0.1,0.2c0.4-0.1,0.4,0.2,0.6,0.4c0.1,0.1,0.1,0.1,0.2,0.1c0.2,0,0.3,0.1,0.3,0.2
		c0.1,0.3,0.2,0.3,0.4,0.2c0.1,0,0.2-0.1,0.3,0.1c0.1,0.1,0.2,0.3,0.3,0.4c0.1,0.1,0.3,0,0.5,0c0,0,0.1,0.1,0.1,0.1
		c0,0.3,0.4,0.3,0.5,0.6c0.1,0.2,0.2,0.1,0.4,0.1c0.2,0,0.5-0.1,0.5,0.3c0.2,0.1,0.4,0.2,0.6,0.2c0.1,0,0.1-0.1,0.1-0.1
		c-0.1-0.2,0.2-0.3,0.3-0.5c0.1-0.1,0.3-0.2,0.2-0.4c0-0.1,0-0.1,0.1-0.1c0.3,0,0.3-0.4,0.6-0.5c0,0,0.1-0.1,0.1-0.1
		C122.5,16.6,122.8,16.4,122.7,16.1z M55.9,38.7c-0.1,0.3,0.1,0.7-0.4,0.7c-0.1,0-0.1,0.1-0.1,0.2c0,0.1,0,0.1-0.1,0.2
		c-0.3,0-0.2,0.4-0.5,0.4c-0.1,0-0.1,0.1-0.1,0.2c0,0.2-0.1,0.3-0.2,0.5c0,0.1-0.1,0.1-0.2,0c-0.2-0.2-0.2,0.1-0.4,0.2
		c-0.2,0-0.2-0.3-0.4-0.2c0,0,0,0,0,0c-0.1,0.1-0.1,0.1-0.2,0c-0.2-0.3-0.5-0.3-0.7-0.6c-0.2-0.2-0.3-0.3-0.6-0.1c0,0-0.2,0-0.2-0.1
		c0-0.2-0.1-0.3-0.3-0.3c-0.2,0-0.3-0.1-0.4-0.3c-0.2-0.2-0.2-0.6-0.6-0.6c0,0-0.1-0.1-0.1-0.1c-0.1-0.1,0.2-0.1,0-0.2
		c-0.1,0-0.2,0-0.3,0c0,0-0.1,0-0.1,0c-0.2,0-0.4-0.1-0.4-0.3c0-0.1,0-0.2-0.1-0.1c-0.3,0.1-0.3-0.4-0.5-0.3c0,0-0.1-0.1,0-0.1
		c0-0.2-0.1-0.3-0.3-0.3c-0.1,0-0.2-0.1-0.2-0.2c0.1-0.3-0.1-0.3-0.3-0.5c-0.2-0.1-0.3-0.3-0.4-0.5c-0.1-0.3-0.4-0.3-0.6-0.6
		c0,0-0.2,0-0.2,0C46.9,36,46.7,36,46.5,36c-0.1,0-0.2,0-0.3,0.1c-0.2,0.2-0.4,0.5-0.7,0.4c0,0-0.1,0.1-0.1,0.1
		c-0.1,0-0.2,0.3-0.4,0.1c-0.1-0.1-0.2,0-0.2,0c-0.1,0.2-0.3,0.2-0.5,0.2c-0.1,0-0.4-0.1-0.4,0c0,0.2-0.3,0.2-0.4,0.3
		c-0.2,0.3-0.6,0.3-0.9,0.4c-0.2,0.1-0.2-0.2-0.4-0.1c-0.1,0.1-0.1,0.2-0.2,0.3c-0.2,0.2-0.4,0.1-0.5,0.1c-0.2,0-0.3,0-0.3,0.2
		c0,0.1-0.1,0.1-0.1,0.1c-0.4,0-0.8,0.2-1.2,0.4c-0.2,0.1-0.3,0.1-0.5,0.1c-0.2,0-0.3,0-0.4,0.2c-0.1,0.2-0.4,0-0.5,0.1
		c0,0,0,0.1,0,0.1c-0.1,0.1-0.3,0.2-0.5,0.2c-0.3,0-0.5,0-0.7,0.2c0,0-0.1,0.1-0.1,0.1c-0.3,0.1-0.5,0.5-0.8,0.6
		c-0.1,0-0.1,0.1,0,0.2c0.2,0.3,0.6,0.4,0.9,0.5c0.1,0,0.2-0.2,0.3-0.1c0.1,0.1,0.2,0.2,0.3,0.2c0.1,0,0.2,0.2,0.4,0
		c0.1,0.1,0.2,0.3,0.4,0.4c0.1,0.1,0.3,0.2,0.5,0.2c0.2,0,0.4,0.1,0.5,0.1c0.2,0,0.3,0.3,0.5,0.2c0.1,0,0.2,0.1,0.2,0.3
		c0,0.3,0.1,0.1,0.2,0.1c0.1,0,0.3,0,0.4,0c0.2,0,0.3,0.1,0.3,0.3c0,0.1,0,0.2,0.1,0.3c0.3-0.1,0.5,0,0.7,0.2
		c0.2,0.2,0.5,0.3,0.8,0.3c0.1,0,0.2,0,0.2,0.1c0.1,0.5,0.6,0.5,0.9,0.8c0.3-0.1,0.4,0.4,0.7,0.3c0,0,0,0,0,0C45,45,45.3,45,45.6,45
		c0.1,0,0.2,0,0.3,0.1c0.1,0.1,0.2,0.2,0.3,0.3c0.1,0.1,0.3-0.1,0.4,0.1c0.1,0.1,0.2,0.2,0.3,0c0.1-0.1,0.2,0,0.2,0
		c0.1,0.3,0.4,0.3,0.7,0.3c0.1,0,0.3-0.1,0.3,0.1c0,0.1,0.1,0.2,0.2,0.2c0.2,0,0.3,0,0.4,0.2c0.3,0.3,0.7,0.5,1.1,0.7
		c0.3,0.1,0.6,0.2,0.9,0.4c0.2,0.1,0.3,0.2,0.5,0.3c0.2,0.1,0.3,0.3,0.6,0.1c0.1-0.1,0.4,0,0.4,0.2c-0.1,0.4,0.4,0.2,0.4,0.4
		c0.1,0,0.1-0.2,0.2-0.1c0.3,0.2,0.6,0.3,1,0.4c0.2,0.1,0.3,0.3,0.5,0.3c0.1,0,0.2,0.2,0.3,0.3c0.1,0.1,0.3-0.1,0.3,0.2
		c0,0.2,0.3,0.1,0.4,0.1c0.1,0,0.2,0.1,0.2,0.2c0.1,0.3,0.3,0.4,0.5,0.5c0.2,0.1,0.4,0.3,0.7,0.4c0.1,0,0.2,0,0.2-0.1
		c0.1-0.1,0-0.1,0-0.2c0-0.4,0.1-0.7,0.3-1c0.2-0.3,0.3-0.7,0.6-0.9c0.1-0.1,0.1-0.2,0.1-0.2c-0.3-0.3,0.1-0.4,0.2-0.5
		c0.1-0.1,0.2-0.3,0.2-0.5c0-0.1,0-0.1,0.1-0.2c0.2-0.2,0.2-0.4,0.2-0.7c0-0.1-0.1-0.2,0.1-0.3c0.1,0,0.2-0.1,0.4-0.1
		c0.2,0,0.3-0.1,0.3-0.3c0-0.2,0.2-0.3,0.2-0.4c0-0.2,0.1-0.4,0.2-0.4c0.2-0.1,0.3-0.3,0.5-0.4c0-0.3,0.2-0.4,0.5-0.5
		c0.1,0,0-0.1,0.1-0.2c0.1-0.5,0.1-0.5,0.6-0.6c0.1,0,0.1,0,0.2,0c0.1,0,0.2,0,0.2-0.2c0-0.3,0.3-0.3,0.4-0.6c0-0.1,0.2,0,0.3,0.1
		c0,0,0.1,0,0.1,0c0.2-0.3,0.6-0.2,0.8-0.5c0.1-0.1,0.3-0.2,0.5-0.3c0.2,0.2,0.4-0.1,0.6,0.1c0.1,0.1,0.3,0.1,0.4-0.1
		c0.3-0.3,0.3-0.3,0.5-0.3c0.1,0,0.3,0,0.4-0.2c0.1-0.1,0.3-0.1,0.4-0.3c0.1-0.1,0.2,0,0.4-0.1c0.2-0.1,0.4-0.2,0.6,0.1
		c0.1,0.1,0.2,0.1,0.2-0.1c0-0.2,0.2-0.3,0.4-0.2c0.2,0.2,0.4,0,0.5-0.1c0.2-0.1,0.2-0.1,0.3,0c0.1,0.2,0.2,0.1,0.4,0
		c0.2-0.2,0.4-0.4,0.7,0c0.1,0.1,0.1,0,0.2,0c0.1,0,0.2,0,0.3,0.1c0.2,0.2,0.3,0.3,0.5,0.5c0.2-0.2,0.4-0.1,0.7-0.1
		c-0.1,0.2-0.3,0.3,0,0.4c0.2,0.1,0.3,0.2,0.5,0.2c0.1,0.1,0.2,0.3,0.3,0.2c0.4-0.1,0.6,0.2,1,0.3c0.2,0.1,0.3,0.3,0.2,0.4
		c0,0.1,0,0.2,0.1,0.3c0.1,0.1,0.2,0.2,0.3,0.4c-0.2,0.1-0.1,0.3-0.2,0.4c-0.1,0.2-0.1,0.4,0,0.5c0.2,0.2,0.2,0.3,0.2,0.5
		c0,0.1,0.1,0.2,0.1,0.3c0.1,0.1-0.1,0.3-0.1,0.3c0.3,0.4,0.2,0.9,0.5,1.2c0,0,0.1,0.1,0,0.1c-0.2,0.2-0.2,0.4-0.1,0.7
		c0,0-0.1,0.1-0.1,0.1c0,0.1-0.1,0.3,0.1,0.4c0.1,0.1,0.1,0.2,0.2,0.2c0.2,0.1,0.2,0.3,0.2,0.5c-0.1,0.4-0.1,0.4,0,0.9
		c0,0.2,0.2,0.5,0.1,0.7c-0.1,0.3,0.1,0.6,0.4,0.8c0.1,0.1,0.2,0.1,0.3,0.2c0.1,0.1-0.1,0.2-0.1,0.4c0,0,0,0.1,0,0.1
		c0.2,0.3,0,0.8,0.6,0.8c0.1,0,0,0.1,0,0.2c0,0.1,0.1,0.1,0.1,0c0.1-0.1,0.1,0,0.2,0c0.3,0.1,0.7,0.2,1-0.1c0.1-0.1,0.1-0.1,0.2,0
		c0.2,0.2,0.3,0,0.4,0c0.1-0.1,0.3-0.3,0.4-0.2c0.3,0.2,0.3-0.2,0.4-0.1c0.1,0,0.1,0,0.2,0.1c0.3,0.2,0.6,0.3,0.8-0.1
		c0,0,0.1-0.1,0.1-0.1c0.2,0,0.4-0.1,0.6-0.2c0.2-0.1,0.4-0.1,0.6-0.2c0.3-0.1,0.4-0.2,0.2-0.5c-0.1-0.3-0.3-0.5-0.5-0.7
		c-0.2-0.3-0.5-0.5-0.5-0.9c0-0.1-0.1-0.2-0.1-0.2c-0.3-0.1-0.4-0.4-0.3-0.7c0-0.1,0-0.2-0.1-0.2c-0.3,0-0.2-0.4-0.5-0.5
		c-0.1,0-0.1-0.1-0.1-0.2c0.2-0.2,0.1-0.4,0-0.5c0-0.1,0-0.1,0-0.1c0.2-0.1,0.2-0.3,0.4-0.4c0.1-0.1,0.4-0.1,0.3-0.4
		c0-0.1,0.1-0.1,0.2-0.1c0.3,0,0.5-0.1,0.6-0.3c0.1-0.1,0.3-0.1,0.3-0.3c0-0.1,0.2,0.1,0.3-0.1c0-0.1,0-0.2,0.2-0.1
		c0,0,0.2,0,0.3-0.1c0.3-0.3,0.7-0.1,1-0.1c0.1,0,0.3,0.1,0.3,0.3c-0.1,0.2,0,0.4,0.3,0.5c0.1,0,0.2,0.1,0.3,0.2
		c0,0.1-0.1,0.3,0.1,0.4c0.2,0.1,0.2,0.1,0.2,0.3c0,0.2,0.1,0.4,0.2,0.5c0.3,0.1,0,0.4,0.2,0.5c0,0,0,0,0,0c0.1,0.1,0.2,0.2,0.3,0.3
		c0.1,0.1,0,0.2,0,0.3c-0.1,0.1,0.2,0,0.2,0.2c0,0.3,0.2,0.4,0.4,0.5c0.1,0.1,0.3,0.1,0.3-0.1c0-0.1,0-0.1,0.1-0.1
		c0.3,0,0.5-0.3,0.7-0.2c0.1,0,0.1-0.1,0.1-0.2c-0.1-0.1-0.1-0.1,0-0.2c0.1-0.1,0.2-0.1,0.2-0.3c0-0.1,0.1-0.2,0.1-0.2
		c0.3-0.2,0.7-0.1,0.9-0.4c0,0,0.1,0,0.1,0c0.1,0.1,0.2,0.3,0.5,0.2c0.2,0,0.3,0.2,0.5,0.1c0.3,0,0.5,0.1,0.7,0.3
		c0.1,0.1,0.2,0.2,0.4,0.2c0.3,0.2,0.5,0.3,0.7,0.5c0.1,0.1,0.2,0.1,0.2,0.1c0.3-0.2,0.4,0.1,0.5,0.2c0.1,0.1,0.2,0.1,0.3,0.1
		c0.5,0,0.8,0,1.1,0.4c0.2,0.2,0.3,0.3,0.5,0.3c0.3,0,0.5,0.2,0.7,0.3c0.2,0.1,0.4,0.3,0.6,0.4c0.3,0.2,0.3,0.2,0.5,0.2
		c0.2,0,0.2,0.1,0.3,0.2c0.1,0.1,0.2,0.3,0.3,0.4c0.1,0.1,0.3,0.2,0.4,0.3c0.1,0.1,0.2,0.1,0.2,0.1c0.2-0.2,0.3,0,0.4,0.1
		c0.1,0,0.2,0.2,0.3,0.3c0.1,0.1,0.2,0.2,0.3,0c0.1-0.1,0.2,0,0.2,0.1c0.1,0.4,0.5,0.4,0.8,0.6c0.1,0.1,0.3-0.1,0.3,0.2
		c0,0.1,0.3,0.1,0.3,0.3l0.6,0.5c0.3,0,0.5,0.3,0.8,0.3c0.2,0.1,0.2,0.2,0.2,0.3c-0.1,0.1-0.1,0.2,0,0.3c0.1,0.1,0.1,0.3-0.1,0.4
		c0,0-0.2,0.1-0.1,0.2c0.1,0.1,0,0.3,0.1,0.4c0.2,0.2,0.1,0.3,0,0.5c0,0.2-0.2,0.3-0.1,0.4c0.2,0.2,0.1,0.3,0,0.5
		c0,0.1,0,0.2,0.1,0.3c0.1,0.1,0.1,0.2,0,0.3c-0.2,0.3-0.1,0.5,0,0.8c0,0.1,0,0.3-0.1,0.3c-0.2,0-0.3,0.2-0.5,0.3
		c-0.3,0.1-0.6,0.2-0.8,0.5c-0.1,0.1-0.1,0.1-0.2,0.1c-0.2,0-0.4,0.1-0.6,0.2c-0.2,0.1-0.4,0.1-0.5,0.2c-0.2,0.1-0.3,0.2-0.5,0.2
		c-0.1,0-0.2,0.1-0.3,0c0,0.2-0.2,0.2-0.3,0.2c-0.2,0-0.4-0.1-0.5,0.2c-0.2-0.1-0.2,0.1-0.4,0.1c-0.1,0-0.3,0.1-0.4,0.2
		c-0.1,0.1,0,0.2-0.2,0.2c-0.2,0-0.4,0-0.6,0.2c-0.1,0.1-0.4,0.1-0.6,0.3c-0.1,0.1-0.3,0.2-0.4,0.1c-0.2,0-0.4,0.2-0.5,0.1
		c-0.3-0.1-0.3,0.2-0.5,0.3c-0.1,0-0.3,0.1-0.4,0.2c-0.2-0.2-0.2,0.1-0.3,0.1c-0.1,0-0.2,0-0.2,0c-0.2-0.2-0.5,0-0.7,0.1
		c-0.1,0-0.2,0.2-0.4,0.2c-0.1,0-0.1,0.2-0.3,0.3c-0.1,0.1-0.2,0.1-0.4,0.1c-0.2,0-0.4,0-0.6,0.2c-0.1,0.1-0.4,0-0.4,0.3
		c-0.3-0.1-0.5,0.3-0.8,0.3c-0.1,0-0.1,0.2-0.3,0.1c-0.1-0.1-0.2,0.1-0.3,0.2c-0.1,0.1-0.2,0.1-0.2,0.1c-0.1,0.3-0.3,0.3-0.4,0.2
		c-0.3-0.3-0.2,0.1-0.3,0.1c-0.1,0.1,0,0.1,0.1,0.1c0.1,0,0.2-0.1,0.3,0c0.1,0.2,0.3,0.1,0.4,0c0.3-0.2,0.7-0.2,1.1-0.2
		c0.2,0,0.4-0.2,0.5,0c0,0,0.1-0.2,0.3-0.1c0.2,0.2,0.2-0.1,0.3-0.1c0.1-0.1,0.2-0.2,0.4-0.1c0.4,0.1,0.7,0,0.9-0.4
		c0-0.1,0.1-0.1,0.2-0.1c0.3-0.1,0.5-0.1,0.8-0.2c0.5-0.2,1-0.3,1.4-0.5c0.2-0.1,0.4-0.3,0.7-0.2c0.2,0,0.2-0.1,0.3-0.2
		c0.2-0.1,0.3-0.3,0.5-0.4c0.3-0.2,0.7,0,0.9-0.4c0,0,0.1,0,0.2,0c0.2,0,0.4,0,0.5-0.3c0-0.1,0.2-0.1,0.3-0.1c0.3,0.1,0.7,0,0.8-0.2
		c0.1-0.3,0.3-0.3,0.5-0.4c0.3,0,0.3-0.3,0.6-0.3c0.2,0.1,0.5,0,0.6-0.2c0.1-0.2,0.3-0.1,0.5-0.2c0.1-0.1,0.4,0.1,0.5-0.1
		c0,0,0.1,0,0.2,0c0.1,0.1,0.2,0.1,0.3,0c0.3-0.2,0.6-0.4,1-0.4c0.2,0,0.3-0.1,0.3-0.2c0.1-0.2,0.2-0.2,0.3-0.1
		c0.1,0.1,0.2,0.1,0.2,0c0-0.3,0.2-0.2,0.4-0.1c0.1,0,0.1,0.1,0.2,0c0.3-0.1,0.6-0.1,0.9-0.2c0.3-0.1,0.7-0.2,0.9-0.4
		c0.1-0.2,0.3-0.2,0.6-0.2c0,0,0.1,0,0.1,0c0-0.3,0.2-0.2,0.3-0.2c0.1,0,0.3,0,0.3-0.1c0.1-0.3,0.2-0.2,0.4-0.1
		c0.3,0.1,0.5,0.1,0.7-0.1c0.2-0.2,0.4-0.4,0.8-0.5c0.2,0,0.6-0.1,0.8-0.3c0.1-0.1,0.2-0.1,0.3-0.1c0.5,0,1-0.3,1.5-0.3
		c0.3,0,0.2-0.2,0.1-0.3c0-0.1,0.1-0.2,0.2-0.2c0.3-0.2,0.7,0.1,0.9-0.3c0.2,0,0.4,0,0.6-0.2c0.4,0,0.6-0.3,0.9-0.4
		c0.2-0.1,0.4-0.3,0.7-0.1c0.1,0.1,0.1,0,0.2-0.1c0.1-0.1,0.4-0.2,0.6-0.2c0.1,0,0.2,0,0.3-0.1c0.1-0.1,0.2-0.1,0.3-0.1
		c0.2,0,0.1-0.3,0.3-0.2c0.2,0,0.4-0.2,0.6-0.3c0.2-0.1,0.4-0.3,0.7-0.2c0.3,0.1,0.3,0.1,0.5-0.2c0.1-0.2,0.6-0.4,0.8-0.3
		c0.3,0.1,0.6,0.1,0.8-0.2c0.1-0.1,0.2-0.3,0.4-0.3c0-0.4,0.3-0.1,0.5-0.2c0.1,0,0.1,0,0.2-0.1c0.1-0.2,0.4-0.2,0.6-0.2
		c0.3,0,0.5-0.1,0.6-0.4c0.1-0.2,0.2-0.5,0.5-0.2c0,0,0.1-0.1,0.1-0.1c0.2,0,0.3,0,0.5,0c0.2,0.1,0.6-0.1,0.7-0.2
		c0.1-0.1,0.2-0.2,0.3-0.3c0.1-0.2,0.4-0.3,0.5-0.2c0.3,0.2,0.4,0,0.6-0.1c0.3-0.2,0-0.3,0-0.4c0-0.3-0.2-0.2-0.3-0.2
		c0,0-0.1,0.1-0.1,0c-0.1-0.1-0.2-0.3-0.4-0.2c-0.2,0.1-0.2-0.3-0.3-0.2c-0.2,0-0.4-0.2-0.7-0.1c-0.1,0-0.1,0-0.2-0.1
		c-0.1-0.4-0.5-0.4-0.9-0.5c-0.1,0-0.3,0.1-0.3-0.2c0-0.1,0-0.1-0.1,0c-0.2,0.2-0.4-0.1-0.5,0c-0.3,0.2-0.3-0.1-0.4-0.2
		c-0.1-0.1-0.2-0.2-0.3-0.1c-0.1,0.1-0.2,0.1-0.3,0c-0.2-0.1-0.4-0.2-0.5-0.4c-0.1-0.1-0.3-0.1-0.3-0.1c-0.2,0.2-0.3,0.1-0.4-0.1
		c-0.1-0.2-0.3-0.3-0.4-0.4c0-0.1-0.1-0.1-0.2,0c-0.1,0.1-0.2,0.1-0.3,0c-0.2-0.4-0.5-0.5-0.9-0.5c-0.5,0.1-0.7-0.2-1-0.5
		c-0.2-0.2-0.3-0.2-0.5-0.2c-0.2,0-0.6,0.2-0.5-0.3c0,0-0.1-0.1-0.1,0c-0.2,0-0.2-0.1-0.4-0.2c-0.3-0.2-0.7-0.3-1.1-0.4
		c-0.2,0-0.3-0.1-0.4-0.3c-0.1-0.2-0.2-0.4-0.5-0.2c0,0-0.1,0-0.2,0c-0.1-0.1-0.2-0.3-0.5-0.2c-0.3,0.1-0.2-0.3-0.3-0.3
		c-0.1,0-0.1,0-0.2,0c-0.4,0.1-0.5,0-0.7-0.3c-0.1-0.1-0.1-0.3-0.2-0.4c0-0.1-0.1-0.1-0.2-0.1c-0.2,0.2-0.3,0-0.5,0
		c-0.3-0.1-0.2-0.3-0.3-0.5c-0.1,0-0.2,0-0.3,0c-0.1,0-0.3,0.1-0.3,0c-0.1-0.3-0.2-0.2-0.4-0.2c-0.1,0-0.2,0-0.3-0.1
		c-0.1-0.1-0.3-0.2-0.4-0.4c-0.4,0-0.7-0.2-1.1-0.2c-0.1,0-0.2,0-0.2,0c0-0.3-0.2-0.2-0.4-0.2c-0.2,0,0-0.3-0.3-0.2
		c-0.3,0.1-0.4-0.2-0.5-0.4c-0.1-0.2-0.2-0.3-0.4-0.1c-0.1,0.1-0.4,0.2-0.4-0.2c-0.2,0-0.4-0.1-0.5-0.3c-0.3,0.3-0.4-0.1-0.5-0.2
		c-0.1-0.1-0.2-0.2-0.3-0.4c-0.2-0.2-0.3,0.1-0.5,0.1c-0.3,0-0.4,0-0.5-0.3c-0.1-0.3-0.3-0.3-0.5-0.3c-0.2,0-0.4,0.1-0.4-0.2
		c0-0.1-0.1-0.2-0.3-0.2c-0.1,0-0.3,0.1-0.4-0.1c-0.1-0.2-0.2,0-0.3-0.1c-0.1-0.1-0.3-0.2-0.3-0.3c-0.1-0.4-0.4-0.4-0.7-0.3
		c0,0-0.1,0.1-0.1,0c-0.1-0.2-0.5-0.1-0.6-0.5c0,0-0.1-0.1-0.1-0.1c-0.2,0-0.5,0-0.4-0.3c0,0-0.1,0-0.1,0c-0.3,0-0.5-0.4-0.8-0.3
		c-0.1-0.4-0.4-0.2-0.6-0.2c-0.1,0-0.1,0-0.2-0.1c0-0.3-0.3-0.3-0.4-0.5c0-0.3-0.3-0.2-0.3-0.1c-0.2,0.2-0.3,0.1-0.4-0.1
		c-0.2-0.3-0.3-0.3-0.7-0.3c-0.2,0-0.4,0.1-0.4-0.2c-0.3-0.1-0.4-0.4-0.7-0.4c-0.3,0-0.5,0-0.6-0.1c-0.1-0.2-0.4-0.2-0.5-0.4
		c0,0-0.2-0.2-0.4,0c0,0-0.3,0.1-0.3-0.2c0-0.1-0.1-0.1-0.1-0.1c-0.2,0-0.4-0.1-0.6-0.2c-0.1-0.4-0.4-0.1-0.5-0.2c0,0-0.1,0-0.1-0.1
		c0-0.2-0.1-0.2-0.2-0.2c-0.1,0-0.2,0-0.3,0c-0.2-0.1-0.6-0.1-0.5-0.5c0-0.1-0.1-0.1-0.2-0.1c-0.4-0.1-0.8-0.1-1.1-0.4
		c0,0-0.1,0-0.1,0c-0.1-0.1-0.1,0.2-0.2,0.1c-0.1-0.1-0.1-0.2-0.3-0.2c-0.1,0-0.1-0.3-0.4-0.2c0,0-0.1-0.1-0.1-0.1
		c0-0.1-0.1-0.2-0.2-0.2c-0.4,0-0.7-0.3-1.1-0.3c-0.2,0-0.3,0-0.4-0.2c0-0.2-0.2-0.3-0.3-0.2c-0.2,0-0.4-0.2-0.6-0.1
		c-0.1,0-0.1,0-0.1-0.1c-0.3-0.3-0.3-0.3-0.5-0.3c-0.1,0-0.2,0-0.2,0c-0.3-0.3-0.7-0.3-0.9-0.6c-0.1-0.1-0.2-0.2-0.4-0.1
		c-0.3,0.1-0.6-0.2-0.9-0.1c0,0-0.2-0.1-0.2-0.2c0-0.2-0.1-0.1-0.2,0c-0.1,0.1-0.2,0-0.2,0c0.1-0.3-0.2-0.1-0.3-0.3
		c-0.1-0.2-0.3-0.1-0.5-0.1c-0.1,0-0.2-0.1-0.2-0.1c-0.1-0.1-0.1-0.2-0.2-0.1c0,0,0,0.1,0,0.1c0,0.2,0,0.3,0,0.5
		c0,0.2-0.3,0.2-0.4,0.3c-0.1,0.2-0.2,0.2,0.1,0.3c0,0,0.1,0,0.1,0c0.1,0.2,0,0.4,0.1,0.5c-0.3,0.3-0.2,0.6-0.2,1
		c-0.4,0-0.8,0-1.1,0.3c-0.3-0.1-0.3,0.2-0.5,0.3c-0.1,0-0.2,0.1-0.3,0c-0.2-0.2-0.3,0-0.4,0.1l-0.6,0.4c-0.2,0.1-0.4,0.1-0.7,0.1
		c-0.1,0-0.2,0-0.3,0.1c-0.1,0.1-0.2,0.2-0.3,0.3c-0.1,0-0.2,0.2-0.3,0c-0.2,0.3-0.4,0.2-0.7,0.2c-0.2,0-0.3,0-0.4,0.2
		c0,0.2-0.4,0.1-0.4,0.3c-0.1,0.3-0.2,0.2-0.4,0.1c-0.1-0.1-0.3-0.1-0.3,0c-0.1,0.2-0.4,0.2-0.5,0.3c-0.2,0.2-0.5,0.3-0.8,0.3
		c-0.1,0.2-0.3-0.2-0.5,0.1c-0.1,0.2-0.6,0.4-0.9,0.4c-0.3,0-0.5,0.1-0.6,0.4c0,0-0.1,0-0.1,0.1C68.3,37,68,36.9,67.8,37
		c-0.1,0.1-0.3,0.4-0.5,0.1c-0.1-0.1-0.1,0-0.2,0.1c-0.2,0.3-0.7,0-0.9,0.4c0,0-0.1,0-0.1,0c0,0-0.1,0-0.1,0c-0.1-0.2-0.2,0-0.4-0.1
		c-0.2-0.1-0.3,0.1-0.4,0.3c-0.3,0.3-0.4,0.4-0.9,0.6c-0.1,0-0.1,0.1-0.1,0.1c0,0.1,0,0.3-0.2,0.2c-0.1,0-0.2,0.2-0.3,0.1
		c-0.2-0.1-0.3-0.1-0.5,0c-0.2,0.1-0.4,0.1-0.5,0.2c-0.3,0.2-0.5-0.2-0.8,0c0,0,0,0,0,0c0-0.1,0-0.2-0.1-0.3
		c-0.1-0.1-0.2,0.2-0.3,0.1c0,0,0,0,0,0c0-0.2,0-0.2-0.2-0.1c-0.1,0.2-0.2,0.2-0.4,0c-0.1-0.1-0.2-0.1-0.3-0.2
		c-0.2,0.3-0.3-0.1-0.5,0c-0.1,0-0.1,0-0.1-0.1c0-0.2,0.2-0.4-0.1-0.5c0,0-0.1-0.2,0-0.3c0.1-0.1,0.1-0.1,0-0.2
		c-0.1,0-0.1-0.2-0.1-0.2c0.1-0.1,0.1-0.2,0-0.3c-0.1-0.1,0.1-0.2,0.1-0.3c-0.1-0.2,0.2-0.5-0.1-0.6c0,0,0-0.1,0-0.2
		c0-0.4,0-0.7,0.2-1.1c0.1-0.1,0.1-0.2,0-0.2c-0.3-0.1-0.2-0.3-0.2-0.5c0-0.1,0.2-0.3,0-0.4c-0.1-0.1,0.2-0.3,0.1-0.5
		c0.2-0.2,0.1-0.5,0-0.7c-0.1-0.3-0.1-0.5,0-0.9c0-0.1,0.2-0.2,0.1-0.2c-0.2-0.1-0.2-0.3-0.2-0.5c0-0.1-0.1-0.1-0.2-0.1
		c-0.3,0-0.4,0.3-0.7,0.2c-0.2,0-0.1,0.2-0.2,0.3c-0.1,0.1-0.2,0.2-0.3,0.1c0,0-0.1-0.1-0.1-0.1c-0.2,0.2-0.5,0.2-0.6,0.4
		c-0.1,0.1-0.6,0.4-0.7,0.5C56.8,32,56.5,32,56.3,32c-0.3,0.1-0.5,0.2-0.8,0c0,0-0.1,0-0.1,0c0,0.3-0.5,0-0.5,0.4
		c-0.2,0-0.4,0.2-0.6,0.3c-0.2,0.1-0.3,0.3-0.5,0.4c-0.3,0.1-0.5,0-0.8-0.1c-0.1,0-0.2-0.1-0.3,0.1c0,0.1,0,0.2,0,0.3
		c0.1,0.1,0.3,0.2,0.3,0.3c0,0.3,0.2,0.4,0.4,0.5c0.2,0.1,0.4,0.3,0.5,0.6c0,0.2,0.2,0.2,0.3,0.4c0.1-0.1,0.2-0.1,0.3,0
		c0.1,0.1,0.2,0.1,0.2,0.3c0,0.1,0.1,0,0.1,0c0.1,0,0.2,0,0.2,0.1c0,0.1,0.1,0.2,0.2,0.2c0,0,0.1-0.2,0.2-0.1
		c0.1,0.1,0.1,0.2,0.2,0.2c0.1,0.1,0.1,0.4,0.4,0.3c0.1,0,0.1,0.1,0.1,0.2c0,0.2,0,0.4,0,0.5c0,0.1,0,0.2,0.2,0.3
		c0.2,0.1,0.4,0.3,0.6,0.5c0.1,0.2,0,0.4-0.1,0.6c0,0,0,0,0,0.1c0,0.2,0,0.3-0.3,0.2c-0.1-0.1-0.1,0-0.1,0
		C56.2,39,56.1,38.8,55.9,38.7z M11.3,27.8c-0.2-0.2-0.3-0.3-0.4-0.4c-0.1-0.1-0.1-0.3,0-0.3c0.3-0.2,0.2-0.4,0.1-0.6
		c-0.1-0.2,0.1-0.4-0.1-0.5c-0.2-0.2,0.1-0.4-0.1-0.6c-0.1-0.1,0.1-0.2,0.2-0.3c0.1-0.1,0.2-0.2,0.1-0.2c-0.1-0.2-0.2-0.3,0-0.5
		c-0.1-0.2-0.1-0.4-0.1-0.5c0-0.1,0-0.2,0-0.2c0.3-0.2,0.2-0.5,0.2-0.8c0-0.2,0.1-0.4,0-0.5c-0.2-0.2-0.3,0.2-0.4,0.2
		c-0.2,0.1-0.4,0.3-0.6,0.3C10,22.8,10.2,23,10,23c-0.3,0-0.4,0.2-0.5,0.4c0,0.1-0.1,0.1-0.2,0.1c-0.1-0.1-0.2-0.2-0.2,0.1
		c0,0.3-0.1,0.3-0.4,0.2c-0.1,0-0.1,0-0.2,0.1c-0.1,0.1-0.1,0.2-0.1,0.3c0,0.1-0.1,0.1-0.2,0.1c-0.2-0.2-0.3,0-0.3,0.1
		c-0.1,0.3-0.2,0.5-0.5,0.5c-0.2,0.1-0.3,0.2-0.2,0.3c0,0.1-0.1,0.2-0.2,0.1c-0.2-0.2-0.3-0.1-0.4,0.1C6.6,25.6,6.6,26,6.2,26
		c-0.1,0-0.1,0.1-0.1,0.2c0,0.1,0,0.2-0.1,0.2c-0.2,0-0.2,0.2-0.3,0.3c-0.1,0.1,0.1,0.2,0,0.2c-0.1,0.1-0.2,0.2-0.2,0.3
		c-0.1,0.2-0.2,0.3,0,0.5c0.2,0.1,0.2,0.3,0.2,0.5c0,0.3,0.1,0.6,0.3,0.9c0.1,0.1,0.3,0.2,0.1,0.4c0,0,0,0.1,0,0.2
		c0.2,0.2,0.2,0.2,0.2,0.7c0,0.2,0.1,0.3,0.2,0.5c0,0.1,0.1,0.2,0,0.3c-0.1,0.1,0,0.3,0.1,0.4c0.2,0.1,0.3,0.2,0.1,0.3
		c0,0,0,0.1,0,0.1c0.3,0.2,0.2,0.6,0.5,0.9c0.1,0.1,0,0.3,0.1,0.4c0.1,0.1,0.2,0.1,0.2,0.3c0,0.2-0.1,0.5,0,0.6
		c0.2,0.2,0,0.4,0.1,0.5c0,0,0,0.1,0.1,0.1c0.2,0,0.2,0.1,0.2,0.2C8,35,8,35.1,8,35.2c0,0.1,0.2,0.3,0.1,0.4c0,0.1,0.1,0.2,0.1,0.2
		c-0.1,0.1-0.2,0.2,0,0.3c0.2,0.1,0.1,0.3,0.2,0.4c0.1,0.1,0.2,0.3,0.2,0.5c0.2,0.4,0.5,0.8,0.8,1.2c0.1,0.1,0.2,0.2,0.1,0.4
		c0,0.2,0,0.3,0,0.5c0,0.2,0,0.4,0.1,0.6c0.1,0.2,0.1,0.4,0.2,0.6c0.3,0,0.1,0.3,0.3,0.4c0.2,0.1,0.3,0.4,0.3,0.7c0,0,0,0.1,0,0.1
		c0.3,0,0.2,0.3,0.2,0.4c0,0.3,0,0.6,0.4,0.7c0.2,0.1,0.3,0.2,0.2,0.4c0,0.1-0.1,0.2,0,0.3c0.2,0.1,0.2,0.2,0.2,0.6c0,0,0,0.1,0,0.1
		c0.4,0.1,0,0.7,0.5,0.7c0.1,0,0,0.1,0,0.2c0,0.2-0.1,0.5,0.2,0.7c0,0,0,0.1,0,0.1c-0.1,0.3,0.1,0.4,0.3,0.5
		c0.2,0.1,0.1,0.4,0.2,0.4c0.1,0.1,0.3,0.2,0.4,0.3c0.1,0.1,0,0.2,0,0.3c0,0.1-0.1,0.1-0.1,0.2c0.2,0.2,0.3,0.5,0.6,0.6
		c0.2,0,0.3,0.1,0.3,0.3c0,0.2,0.2,0.3,0.3,0.3c0.1,0,0.3,0.1,0.3,0.2c0,0.2,0.1,0.2,0.2,0.2c0.2,0,0.5,0,0.7,0.1
		c0.3,0.1,0.6,0.2,1,0.1c0.1,0,0.2-0.1,0.3,0c0.1,0.1,0.3,0,0.5-0.1c0.2-0.1,0.4,0.2,0.5,0.1c0.2-0.2,0.5,0,0.8-0.2
		c0.2-0.1,0.5,0.1,0.7,0c0.2,0,0.3,0,0.5-0.1c0.1-0.1,0.2-0.2,0.3,0c0.1,0.1,0.3,0,0.4-0.1c0.1-0.1,0.2,0.2,0.4,0.1
		c0,0,0.1,0,0.1-0.1c0-0.3,0.2-0.2,0.4-0.1c0.4,0.2,0.4,0.2,0.7-0.1c0.2-0.2,0.3-0.2,0.5,0c0.1,0.1,0.2,0.2,0.3-0.1
		c0.1-0.2,0.3-0.4,0.5-0.4c0.1,0,0.3,0.1,0.4,0.2c0.1,0.1,0.2,0.1,0.3,0c0.1-0.1,0.2-0.2,0.2-0.4c-0.1,0-0.3,0-0.4,0
		c-0.2,0-0.2,0-0.3-0.2c-0.1-0.2-0.1-0.4-0.4-0.1c-0.1,0.1-0.3-0.1-0.5-0.1c-0.1,0,0-0.2-0.1-0.3c-0.1-0.1-0.1-0.6-0.4-0.2
		c0,0-0.1-0.1-0.1-0.1c-0.1,0-0.1-0.2-0.2-0.1c-0.1,0.1-0.2,0.1-0.3,0c-0.1-0.2-0.2-0.1-0.3,0c-0.2,0.1-0.3,0.1-0.4-0.1
		c0,0,0-0.1,0-0.1c-0.4,0.1-0.4-0.3-0.6-0.5c-0.1-0.1-0.3-0.2-0.4-0.1c-0.3,0.1-0.5-0.3-0.8-0.3c-0.1,0,0-0.1,0-0.2
		c0-0.1,0-0.2-0.1-0.3c-0.2,0-0.4,0-0.6,0c-0.2,0-0.2,0-0.3-0.2c-0.1-0.5-0.4-0.6-0.8-0.6c-0.1,0-0.6-0.2-0.7-0.2
		c-0.2,0-0.1-0.3-0.3-0.2c-0.1,0-0.2-0.2-0.2-0.3c-0.1-0.1-0.2-0.3-0.4-0.3c-0.1,0-0.2-0.2-0.2-0.2c0.2-0.1,0-0.2-0.1-0.3
		c-0.1,0-0.2-0.1-0.2-0.3c0,0,0-0.1,0-0.1c-0.4,0.1-0.3-0.2-0.3-0.4c0-0.1-0.1,0-0.2-0.1c-0.1,0-0.1-0.1-0.1-0.2
		c0.2-0.1,0-0.2,0-0.3c-0.1-0.1-0.2-0.1-0.2-0.1c-0.2-0.1-0.3-0.2-0.2-0.4c0.1-0.1,0.1-0.2,0-0.2c-0.2-0.2-0.2-0.4-0.2-0.6
		c0-0.2-0.1-0.3-0.3-0.3c-0.3,0-0.2-0.2-0.2-0.3c-0.1-0.2-0.1-0.5-0.3-0.7c-0.2-0.2-0.4-0.4-0.4-0.8c0,0,0,0,0,0
		c-0.3,0-0.2-0.2-0.1-0.3c0-0.1,0.1-0.2,0.1-0.2c-0.1-0.1-0.1-0.3-0.1-0.4c-0.1-0.1,0.2-0.2,0-0.3c-0.1-0.1,0-0.3,0-0.4
		c0-0.4-0.1-0.7-0.4-0.9c-0.2-0.2-0.4-0.4-0.2-0.6c0.1-0.1,0-0.1,0-0.2c-0.1-0.3-0.3-0.5-0.4-0.7c-0.2-0.2-0.2-0.3-0.1-0.5
		c0.1-0.2,0.2-0.3,0.1-0.5c-0.1-0.2-0.3-0.3-0.4-0.4c-0.2-0.2,0-0.4-0.1-0.6c-0.3-0.3-0.2-0.6-0.1-1c0.1-0.3,0.1-0.4-0.1-0.6
		c-0.1-0.1-0.1-0.1-0.1-0.2c0.2-0.2,0-0.3,0-0.4c0-0.3-0.1-0.5,0-0.7c0-0.1,0-0.2,0-0.3C11,28.3,11,27.9,11.3,27.8z M45.1,52.6
		c0.2,0.5,0.2,0.6,0,1.1c0,0,0.1,0.1,0.1,0.2c0,0.2,0,0.4,0.1,0.6c-0.3,0.2,0.1,0.4,0,0.6c0,0.1,0,0.2,0,0.3
		c-0.2,0.2-0.2,0.5-0.1,0.6c0.1,0.2,0.1,0.3-0.1,0.4c-0.1,0.1-0.1,0.2,0,0.3c0.2,0.3,0.1,0.7,0.3,1c-0.2,0.3,0.1,0.5,0,0.8
		c0.2,0.1,0.1,0.3,0.1,0.5c0,0.3,0,0.6,0.2,0.9c0,0.1,0.1,0.1,0,0.1c-0.1,0.1-0.1,0.2-0.2,0.3c-0.1,0.1,0.2,0.2,0.1,0.4
		c-0.2,0.2,0.1,0.3,0,0.5c-0.1,0.2,0,0.3,0,0.5c0.1,0.3,0.1,0.5-0.1,0.8c-0.1,0.1-0.1,0.4,0,0.6c0,0.1,0.1,0.1,0.1,0.1
		c-0.2,0.2,0,0.3,0,0.4c0,0.2,0,0.3,0.1,0.5c0,0.1,0.1,0.2,0,0.3c-0.2,0.1-0.1,0.2,0,0.3c0,0,0.1,0.1,0.1,0.1
		c0.1,0.2-0.1,0.4-0.1,0.5c0,0.2,0.3,0.3,0.2,0.6c0,0.1,0,0.2,0,0.2c-0.3,0.1,0.1,0.3-0.1,0.4c0.1,0.1,0.2,0.2,0.3,0.3
		c0.2,0.1,0.4,0.2,0.6,0.4c0.2,0.2,0.6,0.1,0.8,0.3c0,0,0,0,0.1,0c0.3-0.3,0.5,0,0.6,0.1c0.3,0.2,0.5,0.3,0.8,0.3c0.1,0,0.1,0,0.2,0
		c0.2,0.2,0.3,0.5,0.5,0.5c0,0,0.1,0.1,0.1,0.1c-0.1,0.4,0.2,0.3,0.4,0.3c0.2,0,0.3-0.2,0.4-0.1c0.2,0.2,0.6,0.2,0.7,0.5
		c0.1,0.3,0.4,0.4,0.7,0.3c0.2-0.1,0.4,0,0.4,0.1c0,0.4,0.4,0.3,0.5,0.5c0.3-0.3,0.5-0.1,0.7,0.1c0,0,0.1,0,0.1,0
		c0.1-0.1,0-0.1,0-0.1c-0.1-0.2-0.1-0.3-0.1-0.5c0-0.1-0.2-0.3,0-0.5c0.1-0.1,0.1-0.2,0-0.3c-0.2-0.3-0.1-0.7-0.1-1
		c0-0.1-0.2-0.8-0.2-0.9c0,0,0,0,0-0.1c0.1-0.3-0.2-0.6-0.1-0.8c0.2-0.3-0.1-0.6,0-0.9c0,0,0-0.1,0-0.1c0.1-0.2,0.1-0.3-0.1-0.5
		c-0.1-0.1-0.2-0.2,0-0.3c0.1-0.1,0.1-0.2,0-0.2c-0.1-0.1-0.1-0.2,0-0.3c0.1-0.1,0.1-0.3,0.1-0.4c-0.2-0.3-0.1-0.7-0.1-1
		c0-0.2,0-0.3-0.2-0.5C53,62,52.8,61.9,53,61.7c0.1-0.1,0-0.2-0.1-0.2c-0.1-0.1-0.2-0.1-0.1-0.2c0.2-0.3,0-0.5-0.1-0.7
		c0,0,0-0.1,0-0.2c0-0.2,0.2-0.3,0.1-0.4c-0.1-0.1-0.2-0.3-0.1-0.4c0-0.1,0-0.3-0.1-0.4c0.4-0.2-0.3-0.7,0.2-0.9
		c0,0-0.1-0.1-0.1-0.1c-0.1-0.5-0.1-0.5,0.1-0.9c0,0,0.1-0.1,0.1-0.1c0-0.1,0-0.3,0-0.4c0-0.2-0.2-0.2-0.1-0.4
		c0.1-0.1,0.1-0.2,0-0.4c-0.1-0.1-0.2-0.3-0.1-0.3c0.2-0.2-0.1-0.3-0.1-0.3c-0.4,0.1-0.5-0.3-0.7-0.4c-0.1-0.1-0.2-0.1-0.3,0
		c-0.1,0.1-0.1,0.1-0.2,0c-0.1-0.1-0.3-0.2-0.4-0.3c-0.2-0.2-0.3-0.3-0.6-0.3c-0.2,0-0.3,0-0.4-0.2c-0.2-0.2-0.4-0.3-0.7-0.1
		c-0.1,0.1-0.3,0.1-0.3,0c0-0.2-0.1-0.1-0.2-0.2c-0.2-0.2-0.3-0.4-0.6-0.1c0,0-0.1,0-0.2,0c-0.1-0.4-0.4-0.3-0.7-0.3
		c-0.2,0-0.3,0-0.3-0.2c0-0.1-0.1-0.2-0.3-0.2c-0.1,0-0.3,0-0.4,0C46,52.6,45.6,52.6,45.1,52.6z M75.8,58.4c-0.2-0.1-0.3-0.3-0.6,0
		c-0.1,0.1-0.1,0.1-0.2,0c-0.1-0.1-0.2-0.1-0.3-0.2c-0.2-0.2-0.5-0.3-0.7-0.1c-0.1,0-0.1,0.1-0.2,0c-0.1-0.1-0.3-0.1-0.3,0
		c-0.4,0.3-0.7,0-1-0.2c-0.3-0.2-0.5-0.4-0.5-0.8c0-0.1,0-0.4-0.3-0.4c-0.1,0-0.3-0.1-0.4-0.2c-0.2-0.1,0.1-0.2,0-0.3
		c0-0.1-0.1-0.1-0.1-0.2c-0.3,0-0.2-0.3-0.3-0.5c-0.1-0.1-0.1-0.3-0.2-0.5c-0.1-0.2-0.2-0.5-0.4-0.7c0.1-0.1-0.2-0.3,0-0.5
		c0.1-0.2-0.1-0.3-0.2-0.5c0,0,0.1-0.1,0.1-0.1c0-0.1,0-0.2,0-0.2c-0.3,0-0.1-0.6-0.5-0.5c0,0,0-0.1,0-0.2c0.3-0.2,0-0.4,0-0.6
		c0-0.1-0.2-0.1-0.2,0c-0.1,0.2-0.1,0.4-0.2,0.4c-0.3,0.1-0.4,0.4-0.6,0.5c-0.1,0.1-0.2,0.3-0.2,0.4c0,0.4-0.3,0.8-0.5,1.1
		c0,0.1-0.2,0.1-0.1,0.2c0,0.2,0,0.3-0.2,0.4c-0.1,0.1-0.1,0.2-0.1,0.3c0,0.2,0,0.3-0.2,0.5c-0.1,0.1-0.1,0.1,0,0.2
		c0.2,0.3,0.4,0.4,0.7,0.3c0.1,0,0.2-0.1,0.2,0c0.1,0.1,0.2,0.3,0.2,0.4c0,0.2,0.1,0.2,0.3,0.2c0.2,0,0.4-0.1,0.4,0.1
		c0.1,0.2,0.3,0.2,0.4,0.3c0.1,0,0.2,0,0.3,0.1c0.1,0.1,0.2,0.2,0.3,0.3c0.1,0.2,0.3,0,0.4,0.2c0.1,0.1,0.2,0.1,0.3,0.2
		c0.4,0.3,0.7,0.6,1.2,0.7c0.1,0,0.3,0.1,0.3,0.3c0,0.1,0.1,0.2,0.1,0.2c0.3-0.1,0.3,0.3,0.6,0.3c0.1,0,0.2,0.3,0.4,0.2
		c0.1,0.2,0.4,0,0.4,0.2c0.1,0.4,0.3,0,0.4,0c0.1,0,0.1,0,0.1,0.1c0,0.2,0.3,0.2,0.3,0.4c0,0.1,0.1,0.2,0.3,0.2
		c0.3,0,0.5,0.2,0.7,0.4c0.2,0.2,0.5,0.4,0.7,0.5c0.2,0.2,0.5,0.2,0.8,0.3c0.2,0,0.3,0.1,0.3,0.2c0.1,0.2,0.2,0.3,0.4,0.3
		c0.1,0,0.1,0,0.1,0.1c0.2,0.4,0.6,0.3,0.9,0.5c0.1,0,0.2,0,0.2-0.1c0.2-0.3,0.5-0.3,0.8-0.3c0.3,0,0.5,0,0.6-0.3
		c0-0.1,0.1-0.2,0.3-0.1c0.4,0.1,0.5,0.1,0.9-0.2c0.2-0.1,0.3-0.3,0.7-0.3c0.2,0,0.5,0,0.6-0.3c0.1-0.1,0.2-0.1,0.3-0.1
		c0.2,0,0.5,0.1,0.5-0.3c0-0.1,0.1-0.1,0.2-0.1c0.2,0,0.4,0.1,0.6-0.1c0.1-0.2,0.4-0.1,0.6-0.3c0.1-0.1,0.2-0.2,0.3,0
		c0.1,0.1,0.3,0,0.4-0.1c0.1-0.2,0.1-0.3,0.3-0.2c0.1-0.2,0.4,0,0.5-0.2c0.2-0.1,0.3-0.3,0.4-0.4c0.1-0.1,0.2-0.2,0.4-0.1
		c0.3,0.1,0.6-0.2,0.9-0.1c0.1,0,0.2-0.1,0.2-0.1c0.1-0.4,0.3-0.3,0.6-0.2c0.1,0,0.2,0,0.2,0c0.1,0,0.1-0.1,0.1-0.1
		c0-0.2,0-0.3,0.2-0.2c0.2,0,0.4-0.1,0.5-0.2c0.4-0.3,0.9-0.6,1.5-0.5c0.1,0,0.2,0.1,0.3,0c0.2-0.2,0.5-0.5,0.9-0.5
		c0.1,0,0.1-0.1,0.1-0.1c0.3-0.2,0.6-0.4,1-0.4c0,0,0.1,0,0.1-0.1c0.1-0.2,0.3-0.2,0.5-0.2c0.1,0,0.2,0,0.4,0c0.2,0,0.2-0.1,0.3-0.2
		c0.1-0.1,0.1-0.2,0-0.3c-0.1-0.1-0.3-0.2-0.3-0.5c0-0.3-0.3-0.1-0.5-0.1c0,0,0,0,0,0c-0.3-0.3-0.9-0.3-1.1-0.7
		c-0.1-0.1-0.4-0.1-0.5-0.3c-0.3,0-0.5-0.4-0.9-0.3c-0.3,0.1-0.5-0.1-0.6-0.4c0-0.1-0.1-0.2-0.2-0.2c-0.2-0.1-0.4-0.1-0.4-0.4
		c0-0.1-0.1-0.1-0.2-0.1c-0.2,0-0.4,0-0.6-0.2c-0.1-0.1-0.2-0.2-0.3-0.1c-0.2,0-0.1-0.2-0.2-0.2c-0.1,0-0.2,0-0.4,0
		c0,0-0.1-0.1-0.1-0.1c-0.1-0.2-0.2-0.4-0.5-0.3c-0.1,0-0.1,0-0.1-0.1c0-0.3-0.3-0.2-0.5-0.3c-0.2-0.1-0.4-0.1-0.5-0.3
		c0,0-0.1-0.1-0.1-0.1c-0.2,0-0.3-0.1-0.4-0.2c-0.2-0.1-0.3-0.2-0.4-0.3c-0.1-0.1-0.2-0.1-0.3-0.1c-0.2,0,0-0.2-0.2-0.2
		c-0.1,0-0.2,0-0.2,0c-0.1,0.1,0,0.3-0.2,0.4c-0.1,0.1,0.1,0.2,0.1,0.2c0.1,0.2,0.4,0.3,0.3,0.6c0,0,0.1,0,0.1,0.1
		c0.2,0.1,0.2,0.2,0.2,0.4c0,0.1,0,0.2,0,0.2c0.2,0,0.2,0.2,0.2,0.3c0,0.1,0,0.1,0.1,0.2c0.2,0.2,0.4,0.4,0.5,0.7
		c0.1,0.3,0.4,0.7,0.3,0.8c-0.2,0.2-0.1,0.3,0.1,0.4c0.1,0.1,0.1,0.2,0,0.3c-0.1,0.1-0.2,0.2-0.1,0.3c0.2,0.3,0,0.3-0.2,0.4
		c-0.1,0-0.1,0.1-0.1,0.2c0,0.3-0.3,0.1-0.4,0.2c-0.1,0.1-0.2,0.1-0.3,0c-0.1-0.2-0.2-0.2-0.4,0c0,0.1-0.1,0.1-0.2,0.1
		c-0.2,0-0.4,0-0.5,0.3c0,0.1-0.1,0-0.2,0.1c-0.2,0.1-0.3-0.2-0.5,0c-0.1,0.1-0.3,0-0.5,0c-0.2,0-0.5,0.1-0.6,0.2
		c-0.3,0.3-0.6,0.3-1,0.2c-0.1,0-0.1-0.1-0.2,0c-0.1,0.2-0.3,0.2-0.5,0.2c-0.1,0-0.2,0-0.3,0.2c-0.1,0.3-0.3,0.3-0.5,0.1
		c-0.1-0.1-0.2-0.1-0.3,0c-0.3,0.2-0.7,0.3-0.9,0.5c-0.1,0.1-0.4,0.3-0.6,0.2c-0.3-0.1-0.6-0.1-1,0c-0.3,0.1-0.6,0.3-1,0
		c-0.1-0.1-0.2,0.1-0.3,0.1c-0.2,0-0.2-0.2-0.3-0.2c-0.1,0-0.2,0-0.3,0C76.1,58,75.9,58.2,75.8,58.4z M25.2,39.9
		c0-0.5-0.1-0.9,0.2-1.2c0.1-0.1,0.1-0.2,0-0.3c-0.3-0.2-0.2-0.5-0.1-0.7c0.1-0.1,0.1-0.3,0-0.4c-0.2-0.2-0.1-0.4-0.1-0.6
		c0-0.2-0.1-0.2-0.2-0.2c-0.4-0.1-0.7-0.4-1-0.7c0,0-0.1-0.1-0.1-0.1c0.1-0.3-0.2-0.2-0.3-0.4c-0.1-0.1-0.2-0.2-0.2-0.4
		c0-0.2-0.3-0.1-0.3-0.3c0-0.2-0.1-0.2-0.2-0.2c-0.1,0-0.1,0-0.1-0.1c0-0.2-0.4-0.1-0.4-0.4c0-0.2-0.3-0.2-0.4-0.4
		c-0.1-0.1-0.3-0.2-0.2-0.3c0.1-0.2,0-0.3-0.1-0.5c-0.3-0.2-0.2-0.6-0.5-0.8c0,0,0-0.1,0-0.1c0.2-0.2,0-0.3-0.1-0.5
		c-0.1-0.2-0.3-0.2-0.4-0.3c-0.2-0.3-0.1-0.7-0.4-0.9c0,0,0-0.1,0-0.2c0.1-0.3-0.1-0.4-0.3-0.5c-0.2-0.1-0.4-0.4-0.3-0.6
		c0.1-0.2,0.2-0.5,0-0.7c0.1-0.2-0.2-0.4-0.1-0.6c0.1-0.2,0-0.4,0-0.6c0-0.1-0.2-0.2-0.1-0.3c0.1-0.1,0-0.2,0-0.3
		c0-0.1-0.1-0.2-0.2-0.3c-0.1-0.1,0.1-0.2,0-0.3C19,25.5,19,25.1,19,24.7c0-0.3,0-0.7-0.2-0.9c-0.1-0.2,0.2-0.2,0.1-0.3
		c-0.2-0.3-0.2-0.7-0.2-1.1c0-0.1-0.1-0.2-0.1-0.3c0-0.3-0.3-0.5-0.1-0.8c0.1-0.1-0.1-0.1-0.1-0.2c-0.1-0.1-0.1,0.1-0.2,0.1
		c-0.1-0.1-0.1-0.2-0.1-0.2c-0.1-0.1,0-0.3-0.3-0.2c-0.2,0-0.3,0.1-0.3,0.3c0,0.1,0,0.2-0.1,0.3c0-0.2-0.1-0.3-0.2-0.4
		c-0.1-0.1-0.2-0.1-0.3,0.1c0,0.1-0.1,0.1-0.2,0.1c-0.1-0.1-0.1-0.1-0.2-0.2c-0.2-0.2-0.2-0.2-0.4-0.1c-0.1,0-0.1,0-0.2,0.1
		c-0.1,0,0,0.2-0.1,0.2c-0.1,0-0.1-0.1-0.2-0.2c-0.1-0.1-0.2,0-0.3,0c-0.3,0.2-0.6,0.2-0.7,0.6c-0.3,0.1-0.2,0.2-0.1,0.3
		c0.1,0.1,0.1,0.1,0,0.2c-0.3,0.3-0.3,0.4,0,0.7c0.2,0.2,0.2,0.5,0.1,0.7c-0.1,0.1-0.1,0.3-0.2,0.4c0,0.1-0.1,0.2-0.1,0.2
		c0.1,0.1,0.1,0.2,0.1,0.2c0.1,0.3,0.2,0.3,0,0.5c-0.1,0.1-0.3,0.3,0,0.5c0.1,0,0.1,0.1,0.1,0.2c-0.1,0.2,0,0.4,0.2,0.6
		c0.2,0.2,0,0.5,0.2,0.6c-0.3,0.3,0.1,0.6,0.2,0.8c0.1,0.2,0.1,0.4,0,0.5c-0.1,0.1-0.1,0.2,0,0.3c0.2,0.2-0.1,0.5,0.2,0.6
		c0,0,0,0,0,0c-0.3,0.3-0.1,0.6-0.1,0.8c0,0.2,0.3,0.3,0.1,0.6c0,0,0,0,0,0c0,0,0.1,0.1,0.1,0.1c0.3,0.3,0.3,0.3,0.3,0.6
		c0,0.1,0,0.3,0,0.4c0,0.1,0,0.4,0,0.4c0.2,0.1,0.2,0.4,0.4,0.4c0.3,0.1,0.3,0.3,0.3,0.5c-0.1,0.2-0.1,0.3,0.1,0.4c0,0,0.1,0,0.1,0
		c0.1,0,0.1,0.2,0.1,0.3c0.1,0.3,0.2,0.6,0.3,0.8c0.1,0.2,0.1,0.5,0.4,0.5c0,0,0.1,0.1,0.1,0.1c0,0.3,0.3,0.5,0.4,0.7
		c0.1,0.2,0.3,0.2,0.5,0.2c0,0.3,0,0.5,0,0.7c0,0.1,0,0.2,0.1,0.2c0.2,0,0.3,0.2,0.5,0.3c0.2,0,0.4,0.3,0.5,0.4
		c0,0.2,0.1,0.2,0.3,0.3c0.1,0,0.1,0.1,0.1,0.2c0.1,0.4,0.6,0.5,0.8,0.9c0,0.1,0.1,0.1,0.2,0.1c0.1,0,0.2,0,0.2,0
		c0.1,0,0.1,0.1,0.2,0.1c0.2,0.1-0.1,0.4,0.2,0.4c0.2,0,0.3,0.2,0.4,0.2c0.2,0,0.2,0.2,0.3,0.3c0.1,0.1,0.1,0.3,0.3,0.2
		c0.1,0,0.2,0.3,0.4,0c0.4,0,0.8-0.2,1.1,0.2c0.1,0.1,0.2,0.1,0.2,0c0-0.2,0.2-0.3,0.3-0.4c0.1-0.1,0.2-0.2,0.1-0.4c0,0,0-0.1,0-0.1
		c0.1-0.1,0.3,0,0.4-0.1C25,39.7,25.1,39.7,25.2,39.9z M115.9,29.8c0,0.1,0,0.1,0,0.2c-0.2,0.2-0.3,0.4-0.4,0.6
		c-0.1,0.3,0.1,0.5,0.1,0.7c0,0.2,0.1,0.3,0,0.4c-0.2,0.2-0.2,0.4-0.2,0.7c-0.3,0.2,0.1,0.4,0,0.6c0.2,0.1,0.1,0.3,0,0.4
		c-0.1,0.1-0.1,0.1,0,0.2c0,0,0,0.1,0,0.2c-0.1,0.1-0.1,0.1-0.2,0.2c0.1,0.1,0.1,0.2,0.1,0.3c0,0.1,0.1,0.3-0.1,0.4
		c-0.2,0.1-0.2,0.3-0.1,0.5c0.1,0.2,0,0.4,0,0.6c0,0.3,0,0.5,0.1,0.8c0,0.1,0,0.1,0,0.2c-0.3,0-0.3,0.4-0.5,0.5
		c-0.2,0.1-0.2,0.2-0.2,0.3c0,0.1,0.1,0.3-0.1,0.4c-0.2,0.1-0.1,0.3-0.2,0.5c0,0.2,0,0.3-0.1,0.4c-0.1,0-0.1,0.1-0.1,0.2
		c0,0.3-0.1,0.5-0.1,0.7c-0.1,0.4-0.1,0.8-0.5,1.1c0.2,0,0.4,0.1,0.5,0.2c0.1,0,0.1,0,0.1,0.1c0,0.1,0,0.2,0,0.2
		c0,0,0.1-0.1,0.2-0.1c0.3,0.3,0.6,0.3,0.9,0.3c0.1,0.2,0.3-0.1,0.4,0c0.2,0.3,0.6,0.2,0.9,0.2c0.1,0,0.2-0.1,0.1-0.1
		c-0.1-0.2,0.1-0.2,0.1-0.4c0-0.2,0-0.3,0-0.5c0.1-0.5,0.4-0.9,0.6-1.4c0.1-0.1,0.1-0.2,0-0.3c-0.1-0.1-0.3-0.3-0.1-0.5
		c0.2-0.2,0.1-0.4,0.1-0.6c0-0.1,0-0.2,0-0.3c0.3-0.3,0.2-0.6,0.2-0.9c0-0.3,0-0.5,0.2-0.7c0.2-0.2,0-0.5,0.2-0.6c0,0,0-0.2-0.1-0.3
		c-0.1,0-0.1-0.1,0-0.1c0.3-0.2,0.2-0.4,0.2-0.7c0-0.1-0.1-0.3,0.1-0.4c0.2-0.2,0.2-0.4,0.2-0.6c0-0.2,0-0.5,0.2-0.6
		c0.3-0.2,0.2-0.5,0.2-0.8c0-0.2-0.1-0.3,0-0.5c0.1-0.2,0.1-0.3,0.2-0.5c0.1-0.2,0.3-0.6,0.2-0.9c-0.1-0.2,0-0.3,0.1-0.4
		c0.1-0.1,0.1-0.1,0.2-0.2c0.1-0.1,0.1-0.2,0-0.3c-0.1-0.1,0-0.3-0.2-0.4c0.2,0,0-0.4,0.3-0.3c0,0,0-0.1,0-0.1
		c-0.2-0.2-0.1-0.3,0.1-0.4c0.1-0.1,0.1-0.4,0.1-0.4c-0.2-0.3-0.1-0.5,0-0.7c0.1-0.2,0-0.4,0.1-0.6c0.1-0.1,0.2-0.2,0.3-0.3
		c0.1-0.2,0.1-0.6-0.1-0.7c0,0-0.1,0-0.1,0c-0.1,0-0.1,0.2-0.2,0c0-0.2-0.4-0.2-0.4-0.5c0,0-0.3,0-0.4,0c-0.1,0-0.2,0-0.4,0
		c0-0.1,0-0.2,0-0.3c0-0.3,0-0.5-0.4-0.5c-0.1,0-0.2-0.1-0.2-0.2c0-0.2-0.2-0.3-0.3-0.3c-0.4-0.1-0.6-0.4-0.9-0.5
		c-0.1,0-0.2-0.1-0.3-0.2c-0.2-0.1-0.1-0.2,0-0.4c-0.3,0-0.5,0-0.7,0c-0.1,0.1,0,0.2,0,0.2c0.1,0.1,0,0.2,0.2,0.3
		c-0.1,0.1-0.1,0.2-0.1,0.2c-0.1,0.1,0,0.2,0,0.3c0,0.3,0.2,0.5,0.2,0.8c0,0.1-0.2,0.2,0,0.3c0.2,0.2-0.1,0.2-0.1,0.4
		c0,0.1,0.2,0.2,0.1,0.4c-0.2,0.2,0.1,0.2,0,0.4c0,0.1-0.2,0.2-0.1,0.4c0,0,0,0.1,0,0.1c0.1,0.2,0.1,0.5,0,0.7
		c-0.1,0.2,0.3,0.6-0.1,0.8c0,0,0,0,0,0c0.2,0.2,0,0.5,0.2,0.8c0.1,0,0,0.3,0,0.4c-0.1,0.1-0.1,0.3-0.2,0.4
		C115.6,29.6,115.8,29.7,115.9,29.8z M39.7,19.9c0.1-0.2,0-0.4-0.1-0.6c-0.1-0.2-0.3-0.3-0.5-0.1c-0.1,0.1-0.1,0.1-0.2,0.2
		c0,0.1-0.1,0.1-0.2,0c-0.1-0.2-0.2,0-0.3,0c-0.4,0.2-0.8,0.4-1.3,0.4c-0.1,0-0.2,0.1-0.3,0.2c-0.1,0.2-0.3,0.2-0.5,0.2
		c-0.2,0-0.4-0.1-0.5,0.1c-0.1,0.2-0.4,0.1-0.5,0.3C35,21,34.8,21,34.3,21c-0.2,0-0.1,0.1,0,0.2c-0.2,0.2,0,0.3,0.1,0.5
		c0.1,0.3,0.6,0.6,0.2,1c0,0,0,0,0,0c0.2,0.1,0.1,0.3,0.1,0.5c0,0.3,0.2,0.3,0.3,0.5c0.2,0.4,0.3,1,0.2,1.4c0,0.1,0,0.3,0,0.4
		c0.1,0.3,0.1,0.7,0.3,1c0.1,0.1,0,0.3,0.1,0.4c0.1,0.2-0.1,0.3-0.1,0.4c0,0.1,0,0.2,0,0.2c0.1,0.1,0.2,0.2,0.2,0.3
		c-0.1,0.1-0.1,0.2-0.1,0.4c0,0.1,0,0.1,0,0.2c0.1,0.2,0.2,0.4,0.2,0.6c0,0.2,0,0.3-0.1,0.5c-0.1,0.2,0.3,0.3,0.2,0.5
		c0,0,0,0.1,0,0.2c-0.2,0.2,0,0.3,0.1,0.4c0,0,0.4,0.5,0.4,0.5c0.1,0.2-0.1,0.3-0.1,0.5c0,0.2,0.3,0.3,0.2,0.5c0,0.2,0,0.3,0.2,0.4
		c0.1,0.1,0.1,0.2,0.1,0.3c0,0.2-0.1,0.4,0.1,0.6c0,0,0,0.2,0,0.2c-0.1,0.3-0.1,0.4,0.1,0.5c0.2,0.2,0.2,0.4,0.3,0.6
		c0,0-0.1,0.1-0.1,0.2c0,0.1,0.4,0.1,0.5,0c0.1-0.3,0.3-0.2,0.5-0.3c0.3-0.1,0.7-0.1,1-0.3c0.2-0.2,0.2-0.2,0.6-0.1
		c0.1,0,0.2,0,0.2,0c0.1-0.2,0.3-0.2,0.5-0.3c0.3-0.2,0.3-0.5,0.1-0.7c-0.2-0.2-0.2-0.3-0.2-0.5c-0.1-0.2,0-0.4-0.2-0.6
		c-0.1-0.1-0.1-0.2,0-0.3c0.3-0.5,0.2-0.5-0.1-0.9c-0.1-0.1-0.2-0.2-0.4-0.3c-0.1,0-0.2-0.2-0.2-0.4v-0.3c-0.1-0.2-0.2-0.5,0-0.8
		c0.1-0.1,0.1-0.2-0.1-0.2c-0.1,0-0.2-0.1-0.1-0.2c0.2-0.2,0.1-0.4,0-0.6c-0.1-0.1,0.1-0.4-0.1-0.4c-0.3-0.2-0.2-0.4,0-0.6
		c0.1-0.2,0-0.2-0.1-0.3c-0.3-0.1-0.3-0.3-0.2-0.4c0.1-0.2,0.1-0.5,0.2-0.8c0.1-0.1,0.1-0.3,0-0.4c-0.3-0.3-0.3-0.5,0-0.8
		c0.2-0.3,0.3-0.5,0.1-0.8c-0.1-0.1-0.1-0.3,0.1-0.4c0.2-0.1,0.2-0.2,0-0.4c-0.1-0.1-0.2-0.2,0-0.3c0.1-0.1,0-0.2,0-0.3
		c0-0.3,0.1-0.5,0.3-0.7c0.1-0.1,0.1-0.2,0-0.3c-0.1-0.1-0.1-0.2-0.2-0.4c0-0.1,0-0.2,0-0.2C39.8,20.5,39.7,20.2,39.7,19.9z M64,70
		c0.1,0,0.3,0,0.3,0c0.1-0.2,0.5-0.2,0.5-0.5c0.1-0.2,0.3-0.3,0.5-0.3c0.1,0,0.2,0,0.3-0.1c0,0,0.1-0.1,0.1-0.1
		c-0.2-0.1-0.3-0.4-0.5-0.4c-0.2,0-0.4-0.2-0.7-0.1c-0.1,0-0.3,0.1-0.3,0.1c-0.1,0.1-0.1,0.2-0.3,0.1c-0.1-0.1-0.2-0.2-0.3-0.2
		c-0.2,0-0.2,0.2-0.4,0.3c0,0,0,0.1-0.1,0.1c-0.3-0.2-0.5,0-0.7,0.2c-0.2,0.2-0.5,0.2-0.7,0.1c-0.2-0.1-0.4-0.1-0.5,0.1
		c-0.2,0.2-0.4,0.3-0.6,0.2c-0.2-0.1-0.3-0.1-0.4,0.1c-0.1,0.1-0.2,0.1-0.3,0c-0.1-0.1-0.2-0.2-0.3,0c-0.2,0.2-0.3,0.2-0.3,0.5
		c0,0.1,0,0.2,0,0.3c-0.3,0.3-0.1,0.6-0.1,0.9c0,0.2,0.1,0.4,0.3,0.5c0.1,0.1,0.3-0.1,0.4-0.1c0.2,0,0.3-0.2,0.5-0.1
		c0.1,0,0.1,0,0.1-0.1c0-0.3,0.2-0.3,0.4-0.3c0.1,0,0.2-0.1,0.2-0.1c0,0,0.1-0.1,0.2,0c0.2,0.2,0.3,0,0.4-0.1
		c0.1-0.1,0.3-0.2,0.5-0.2c0.3,0,0.5-0.1,0.7-0.4c0.1-0.2,0.2-0.4,0.5-0.2c0,0,0.1,0,0.1,0C63.7,69.8,63.9,70,64,70z M34.9,47.6
		c0.3,0.2,0.3,0.2,0.1,0.3c-0.2,0.2,0,0.3,0,0.4c0,0.1,0.1,0.1,0.2,0.1c0.1,0,0.1,0.2,0.2,0.2c0.2,0.1,0.3,0.3,0.4,0.4
		c0.1,0.1,0.2,0.3,0.4,0.2c0.2,0,0.4,0,0.4,0.3c0,0,0.1,0.1,0.1,0.1c0.1,0.2,0.3,0.1,0.4,0.2c0.1,0.1,0,0.3,0.1,0.5
		c0,0.1,0.1,0.1,0.1,0.1c0.1,0.1,0.2,0.2,0.2,0.3c0.1,0.2,0.2,0.4,0.4,0.5c0.1,0.1,0.2,0.3,0.4,0.4c-0.1,0.3,0.2,0.3,0.4,0.4
		c0.1,0.1,0.1,0.2,0.1,0.4c0,0.1,0,0.2,0.2,0.2c0.2,0,0.4,0,0.3,0.3c0.3,0.1,0.3,0.4,0.4,0.5c0-0.1,0.3-0.1,0.1-0.3
		c-0.1-0.1-0.1-0.3-0.2-0.4c-0.1-0.2,0.1-0.3,0.1-0.5c0-0.2-0.4-0.1-0.3-0.3c0-0.3-0.1-0.4-0.3-0.6c-0.1-0.1-0.1-0.2-0.1-0.3
		c0-0.3-0.1-0.5-0.4-0.6c-0.1-0.1-0.3-0.1-0.4-0.1c-0.1-0.1,0-0.3-0.1-0.4c0-0.1-0.1-0.1-0.1-0.2c-0.1-0.2-0.4-0.3-0.4-0.5
		c-0.1-0.3-0.4-0.5-0.3-0.9c0-0.1,0-0.1-0.1-0.1c-0.1,0-0.2,0-0.2-0.2c0.1-0.4-0.2-0.4-0.4-0.6c-0.3-0.1-0.6-0.1-0.8-0.4
		c-0.1-0.1-0.1,0-0.1,0.1C35.4,47.4,35.2,47.7,34.9,47.6z"/>
	<path d="M23.7,4C24,3.9,24.2,4,24.4,4c0.3,0.1,0.5,0,0.8,0c0.2,0,0.5,0,0.7,0c0.1,0,0.2,0,0.2,0.1c0.1,0.3,0.6,0.3,0.5,0.7
		c0,0.1,0,0.3,0.3,0.3c0,0,0.2,0.1,0.2,0.2c0,0.1-0.1,0.3,0,0.3c0.3,0.1,0.3,0.5,0.6,0.6c0.2,0.1,0.2,0.1,0.2,0.3
		c-0.1,0.5,0.1,0.9,0.5,1.3c0.1,0.1,0.1,0.2,0.1,0.4c-0.2,0.2-0.1,0.4,0.1,0.6c0.2,0.3,0.2,0.6,0,0.9c-0.2,0.2-0.1,0.3,0,0.4
		c0.1,0.2,0.1,0.3,0,0.5c-0.3,0.3-0.3,0.5,0,0.8c0.2,0.2,0.1,0.2-0.1,0.4c-0.3,0.2-0.6,0.3-0.7,0.7c0,0.1-0.1,0.1,0,0.2
		c0.2,0.1,0,0.2-0.1,0.3c-0.1,0-0.2,0.1-0.2,0.1c-0.2,0.1-0.2,0.4-0.4,0.5c-0.2,0-0.4,0.1-0.7,0.1c-0.2,0-0.4,0.2-0.6,0
		c-0.2-0.1-0.4,0.1-0.6,0.1c-0.2,0-0.4-0.1-0.6,0c-0.2,0.1-0.4,0-0.6,0.1c-0.1,0-0.3-0.1-0.3-0.2c0-0.5-0.5-0.7-0.8-0.9
		c-0.1,0-0.1-0.1-0.2-0.1c-0.2-0.1-0.4-0.1-0.2-0.4c0-0.1,0-0.1-0.1-0.2c-0.2-0.2-0.1-0.6-0.5-0.6c0,0,0-0.1,0-0.2
		c0-0.3,0-0.6-0.3-0.8c-0.1-0.1,0-0.1,0-0.2c0-0.4-0.1-0.7-0.2-1.1c0-0.1-0.1-0.3-0.1-0.4c-0.1-0.2,0-0.4,0-0.6c0-0.2,0-0.5,0.1-0.7
		c0.1-0.1,0.2-0.3,0-0.5c0.1-0.5,0.1-1.1,0.5-1.4c0,0,0,0,0,0C22,5.7,21.7,5.3,22,5.3c0.2-0.1,0.2-0.3,0.2-0.5
		c0-0.2,0.2-0.2,0.3-0.4C22.7,4.2,22.8,4,23.1,4C23.3,4.1,23.5,3.9,23.7,4z"/>
	<path d="M53.2,9.7c-0.2-0.2-0.4-0.4-0.5-0.6c-0.2-0.1-0.3,0.1-0.4,0.1c-0.3,0.3-0.5,0-0.8-0.1c-0.2,0-0.1-0.4-0.3-0.5
		c-0.2-0.1-0.4,0-0.5-0.3c0-0.1-0.1-0.2-0.1-0.2c0-0.1,0-0.2-0.1-0.2c-0.3,0-0.4-0.2-0.4-0.5c0-0.2-0.2-0.3,0-0.4c0,0,0-0.1,0-0.2
		c-0.2-0.1-0.4-0.2-0.4-0.5c-0.3-0.2-0.3-0.6-0.1-0.8c0.1-0.2,0-0.3,0-0.4c0-0.2-0.2-0.2-0.3-0.4c0-0.1,0.2-0.2,0-0.4
		c-0.1-0.1,0.1-0.2,0.1-0.4c0,0,0.1-0.1,0-0.1c-0.5-0.1,0-0.3-0.1-0.5c0.2-0.1,0-0.3,0-0.4c0.1-0.4,0.1-0.8,0.5-1
		c0.4-0.2,0.5-0.5,0.5-0.9c0-0.4,0.1-0.4,0.5-0.3c0.1,0,0.2,0,0.3-0.1c0.3-0.3,0.8-0.5,1-0.8c0.1-0.1,0.2-0.1,0.3,0
		c0.2,0.1,0.5,0.3,0.7,0.1c0.1-0.1,0.3-0.1,0.4,0.1c0.1,0.1,0.2,0.1,0.2,0.2c0.1,0.2,0.3,0.2,0.6,0.2c0.3-0.1,0.3,0,0.5,0.3
		c0.1,0.1,0.1,0.2,0.3,0.2c0.1,0,0.1,0,0.1,0.1c0.1,0.1,0.2,0.3,0.2,0.4c0,0.3,0.2,0.4,0.5,0.3c0.1,0.4,0,0.7,0.1,1.1
		c0.2,0.4,0.1,0.4,0.3,0.8c0.1,0.1,0.1,0.1,0,0.2c-0.3,0.3-0.2,0.6-0.1,1c0,0.1,0,0.1,0.1,0.2c0.1,0.4,0.1,0.4,0,0.8
		c-0.1,0.2-0.2,0.4,0,0.6c-0.1,0.3-0.1,0.6-0.3,0.8c-0.2,0.2-0.2,0.5-0.2,0.7c0,0.4,0,0.4-0.4,0.4c-0.2,0-0.3,0.1-0.3,0.2
		c0,0.1-0.1,0.2-0.1,0.2c-0.1,0.2-0.2,0.6-0.4,0.6c-0.3,0-0.6-0.2-0.8-0.3c-0.2-0.1-0.3-0.1-0.4,0C53.6,9.4,53.4,9.5,53.2,9.7z"/>
	<path d="M100.4,9c0-0.1,0-0.1,0-0.2c-0.2-0.2,0.1-0.5,0.1-0.7c0-0.3-0.3-0.5-0.1-0.7c0.1-0.2,0-0.4,0.1-0.6c0-0.1-0.1-0.3,0.1-0.3
		c0.2-0.1,0.1-0.2,0.1-0.4c0-0.1-0.1-0.2-0.1-0.3c0.3-0.1,0.1-0.4,0.3-0.6c0.1-0.1,0.1-0.2,0.1-0.3c0,0,0-0.1,0-0.1
		c0-0.2,0.3-0.2,0.4-0.3c0.1-0.1-0.2-0.4,0.2-0.4c0.1,0,0.1-0.1,0.1-0.2c0-0.1,0-0.2,0.1-0.1c0.3,0.1,0.6-0.2,1-0.1
		c0.2,0,0.3-0.1,0.5-0.2c0.2-0.1,0.4-0.3,0.6,0c0.1,0.1,0.3,0,0.4,0c0.1,0,0.1,0,0.1,0.1c-0.1,0.3,0.1,0.3,0.3,0.3c0,0,0,0,0.1,0
		c0.3,0.3,0.6,0.3,1,0.4c0.1,0,0.1,0.1,0.1,0.1c0,0.2,0.1,0.3,0.1,0.5c0,0.3,0.1,0.4,0.4,0.3c0.1,0,0.1,0,0.1,0.1
		c0,0.3,0.3,0.5,0,0.8c-0.1,0.1,0,0.3,0.1,0.4c0.1,0.1,0.3,0.3,0.1,0.5c0,0,0,0.2,0,0.2c0.1,0.1,0.1,0.2,0,0.3
		c-0.1,0.2,0.3,0.3,0,0.6c-0.1,0.1,0.1,0.4-0.2,0.5c0,0,0,0.1,0,0.2c0.3,0.1,0.2,0.4,0.1,0.5c-0.2,0.2,0.1,0.3,0,0.4
		c-0.1,0.1-0.1,0.3,0,0.4c0.1,0.1,0,0.3,0,0.5c0,0.1-0.1,0.1-0.2,0.2c-0.2,0.1-0.5,0.2-0.4,0.6c0,0.1-0.1,0.1-0.1,0.1
		c-0.2,0-0.4,0.1-0.6,0.2c-0.2,0.1-0.4,0.2-0.4,0.5c0,0.2,0,0.3-0.2,0.4c-0.2,0.1-0.3,0.2-0.5,0.3c-0.1,0-0.2,0.1-0.3,0
		c-0.2-0.1-0.3-0.2-0.5,0c-0.1,0.1-0.2,0-0.2-0.1c-0.2-0.2-0.4-0.1-0.6-0.1c0,0,0,0.1,0,0.1c-0.1,0.2-0.2,0.1-0.4,0.1
		c-0.2-0.1-0.4-0.3-0.4-0.5c-0.1-0.2-0.3-0.3-0.4-0.3c-0.4,0-0.4-0.3-0.5-0.5c0.1-0.3-0.4-0.4-0.2-0.7c0.1-0.3-0.1-0.5-0.1-0.8
		c0-0.2-0.2-0.5-0.1-0.7C100.3,9.2,100.4,9.1,100.4,9z"/>
	<path d="M75,42.4c0.3-0.5,0-0.7-0.2-1c-0.2-0.2-0.3-0.3-0.1-0.6c0.1-0.1,0-0.4,0.2-0.6c0.1-0.1,0.1-0.3-0.1-0.5
		c-0.1-0.1-0.3-0.3,0.1-0.3c0-0.3,0.2-0.5,0.2-0.8c0-0.3,0-0.4,0.2-0.6c0.1-0.1,0.2-0.2,0.1-0.4c0-0.4,0.1-0.7,0.4-1
		c0.2-0.1,0.3-0.3,0.2-0.6c-0.1-0.3,0.2-0.4,0.3-0.6c0.1-0.1,0.2-0.2,0.3-0.3c0.2-0.3,0.5-0.4,0.8-0.4c0.2,0,0.3-0.1,0.4-0.1
		c0.1,0,0.3-0.1,0.4-0.1c0.2,0,0.4,0.1,0.6-0.1c0.2,0.2,0.5,0.2,0.6,0.4c0,0.1,0,0.1,0.1,0.1c0.3-0.1,0.5,0.3,0.8,0c0,0,0.1,0,0.2,0
		c0.1,0.2,0.5,0.3,0.4,0.6c0,0.1,0,0.2,0.1,0.3c0.1,0.2,0.3,0.3,0.3,0.6c0,0.1,0,0.1,0.1,0.1c0.2,0,0.3,0,0.3,0.3
		c0,0.3-0.1,0.6,0.2,0.8c0,0,0,0.1,0,0.2c-0.1,0.5-0.1,0.6,0,1.2c0,0.1,0,0.2,0,0.2c-0.1,0.2-0.4,0.3-0.1,0.6
		c0.1,0.1-0.1,0.1-0.2,0.2c-0.2,0.1-0.3,0.3-0.1,0.5c0.1,0.1,0.1,0.2,0,0.3c-0.2,0.1,0,0.4-0.1,0.5c-0.3,0-0.1,0.2-0.2,0.3
		c0,0.1-0.1,0.1,0,0.2c0.1,0.1,0.1,0.3-0.1,0.4c-0.1,0.1-0.1,0.3-0.1,0.4c-0.1,0.1-0.2,0.1-0.3,0.2c-0.1,0.1,0.1,0.3-0.1,0.3
		c-0.3,0-0.4,0.1-0.5,0.3c0,0.1-0.2,0.2-0.3,0.3c-0.1,0.1-0.3,0.1-0.3,0.1c-0.2-0.2-0.3-0.1-0.4,0.1c-0.1,0.1-0.2,0.3-0.4,0.1
		c0,0-0.1,0-0.1,0.1c-0.2,0.2-0.2,0.2-0.4,0.1c-0.1-0.1-0.1-0.1-0.2-0.2c-0.1-0.1-0.2-0.1-0.3-0.1c-0.2,0.2-0.4,0-0.6-0.1
		c-0.1,0-0.2-0.1-0.3-0.1c-0.2,0-0.3-0.1-0.4-0.2c-0.1-0.3-0.3-0.4-0.5-0.6c-0.1-0.1-0.3,0-0.3-0.2c-0.2,0-0.3-0.1-0.4-0.3
		C75,42.4,75,42.4,75,42.4z"/>
	<path d="M95,45.1c0-0.1-0.1-0.1-0.2-0.1c-0.1,0-0.2,0-0.2-0.1c0-0.1,0-0.2,0.1-0.2c0.2-0.1,0.3-0.2,0.5-0.3c0.1-0.1,0-0.1,0-0.2
		c-0.1-0.1,0-0.3,0-0.5c0-0.1,0-0.1,0.1-0.1c0.3,0,0.4-0.2,0.5-0.3c0.1-0.2,0.2-0.1,0.3-0.1c0,0,0.1,0.1,0.1,0.1
		c0.3,0.1,0.6,0.2,0.9-0.1c0.1-0.2,0.3-0.2,0.6,0c0.2,0.1,0.4,0.1,0.6,0c0.2-0.1,0.3-0.2,0.5-0.1c0.1,0,0.2,0,0.3,0.1
		c0.1,0.2,0.5,0.1,0.6,0.3c0,0.1,0.1,0,0.2,0c0.2-0.1,0.4-0.2,0.5,0.1c0,0.1,0.1,0,0.1,0c0.1-0.1,0.2-0.2,0.3,0
		c0.1,0.1,0.3,0.2,0.4,0.1c0.2-0.2,0.3-0.1,0.5,0.1c0.2,0.2,0.5,0.4,0.8,0.4c0.2,0.1,0.4,0.1,0.5,0.2c0.2,0.2,0.4,0.2,0.6,0.1
		c0.1-0.1,0.3-0.2,0.3,0.1c0.1,0.2,0.2,0.2,0.4,0.1c0.1,0,0.1-0.1,0.2-0.1c0.1-0.1,0.1-0.1,0.2,0c0.1,0.1,0.2,0.2,0.4,0.2
		c0.1,0,0.1,0,0.1,0.1c0.1,0.4,0.4,0.4,0.7,0.5c0.1,0,0.2,0,0.2,0c0.3,0.1,0.4,0.1,0.4,0.5c0,0.2,0.3,0.4,0.1,0.7
		c-0.1,0.2-0.1,0.2,0.1,0.3c0.1,0,0.4,0.1,0.2,0.4c0,0,0.1,0.1,0,0.2c-0.1,0.1-0.2,0.2-0.2,0.4c0,0.4-0.4,0.7-0.8,0.8
		c-0.1,0-0.2,0.1-0.3,0.2c0,0.1-0.1,0.2-0.1,0.2c-0.1,0.1-0.1,0.4-0.3,0.4c-0.2,0-0.3-0.1-0.5-0.2c-0.1-0.1-0.3-0.1-0.4,0.1
		c-0.2,0.2-0.3,0.2-0.5,0c-0.1,0-0.2-0.2-0.4,0c-0.1-0.2-0.3-0.1-0.4-0.1c-0.1,0-0.2-0.2-0.4,0c0,0-0.1,0-0.2,0
		c-0.1-0.1-0.2-0.1-0.2-0.2c-0.2-0.3-0.5-0.3-0.8-0.2c-0.1,0.1-0.3,0.1-0.3-0.1c0,0-0.1-0.1-0.1-0.1c-0.1-0.1-0.3-0.1-0.4,0
		c-0.2,0.2-0.2-0.1-0.3-0.1c-0.1-0.1-0.3-0.2-0.4-0.1c-0.2,0-0.3,0-0.5,0c-0.1,0-0.2-0.1-0.4,0c-0.1,0.1-0.2-0.1-0.3-0.2
		c-0.2-0.1-0.3-0.4-0.5-0.1c-0.2,0-0.5-0.1-0.7-0.2c-0.3-0.1-0.5-0.1-0.8,0c-0.4,0.2-0.5,0.2-0.7-0.1c-0.1-0.2-0.2-0.4-0.5-0.3
		c-0.2,0-0.3-0.2-0.3-0.3c-0.1-0.2-0.2-0.4-0.4-0.5c-0.1-0.1-0.1-0.2,0-0.2c0,0,0.2,0,0.2-0.1c0-0.1-0.1,0-0.2,0
		c-0.2,0-0.1-0.1-0.1-0.2c0.1-0.1,0.1-0.2,0.2-0.2c0.1,0,0.1-0.1,0.1-0.2C94.6,45.2,94.9,45.2,95,45.1z"/>
</g>
</svg>
