<?xml version="1.0" encoding="utf-8"?>
<!-- Generator: Adobe Illustrator 27.7.0, SVG Export Plug-In . SVG Version: 6.00 Build 0)  -->
<svg version="1.1" id="Ebene_1" xmlns="http://www.w3.org/2000/svg" xmlns:xlink="http://www.w3.org/1999/xlink" x="0px" y="0px"
	 viewBox="0 0 86.6 65.7" style="enable-background:new 0 0 86.6 65.7;" xml:space="preserve">
<g>
	<path d="M19.6,56.5c0,0.1,0,0.2-0.1,0.2c-0.2,0.2-0.3,0.2-0.4,0c0,0,0-0.1,0-0.1c-0.1-0.1-0.2-0.1-0.2,0c-0.1,0.2-0.2,0.3-0.4,0.3
		c-0.1,0-0.2,0-0.3-0.1c-0.2-0.1-0.3-0.3-0.5-0.4c-0.1,0-0.1-0.3,0-0.4c0.2-0.3,0.1-0.4-0.1-0.5c-0.2-0.1-0.2-0.2-0.1-0.4
		c0.1-0.1,0.1-0.4,0-0.6c0-0.2,0.1-0.5,0.1-0.8c0.1-0.2,0.1-0.3,0-0.4c-0.1-0.1-0.2-0.3,0.1-0.3c0.1,0,0.1-0.1,0.1-0.2
		c0-0.1,0-0.3,0-0.4c0-0.1,0-0.2,0.2-0.2c0.3-0.1,0.1-0.4,0.3-0.6c0,0,0-0.1,0-0.1c-0.3-0.2-0.1-0.4-0.1-0.6c0-0.1,0-0.1,0.1-0.1
		c0.5-0.1,0.4-0.6,0.6-0.9c0,0,0,0,0,0c0-0.2-0.2-0.2-0.1-0.4c0-0.1,0.3,0,0.2-0.2c-0.1-0.3,0.3-0.5,0.2-0.9
		c0.4-0.1,0.3-0.5,0.5-0.8c0.2-0.3,0.3-0.6,0.5-0.8c0.2-0.2-0.1-0.4,0.1-0.7c0,0-0.1-0.2-0.3-0.2c-0.1,0-0.2,0-0.3-0.1
		c-0.2-0.1-0.2-0.4-0.5-0.4c-0.2,0-0.3-0.4-0.6-0.2c-0.1-0.2-0.3-0.3-0.5-0.3c-0.1,0-0.1-0.2-0.2-0.3c-0.1-0.2-0.3-0.2-0.4-0.1
		c-0.1,0.1-0.1,0.1-0.1,0.2c0,0.2-0.3,0.3-0.1,0.5c0.2,0.3-0.1,0.3-0.2,0.5c0,0.2,0,0.4,0,0.6c0,0.2,0,0.4-0.2,0.4
		c-0.3,0.1-0.3,0.3-0.4,0.5c-0.1,0.3-0.2,0.5-0.4,0.7c-0.1,0.1-0.2,0.2-0.3,0.3c-0.3,0.4-0.8,0.6-1.3,0.6c-0.3,0-0.6,0.1-1,0.1
		c-0.5,0-0.6,0-1,0.3c-0.2,0.1-0.3,0.1-0.5,0c-0.1-0.1-0.2-0.1-0.3,0c-0.2,0.1-0.3,0.2-0.5,0c-0.2,0.3-0.3,0-0.5,0
		c-0.1,0-0.2-0.2-0.4,0c-0.1,0.1-0.2-0.1-0.2-0.1c-0.2-0.2-0.5-0.3-0.8-0.3c-0.2,0-0.4,0.1-0.4-0.2c0,0-0.1,0-0.1,0
		c-0.1-0.1-0.2,0.2-0.3,0.1c-0.1-0.1-0.1-0.2-0.2-0.3c-0.2-0.1-0.2-0.3-0.5-0.4c-0.1,0-0.4,0-0.4-0.2c0-0.2-0.2-0.4-0.2-0.6
		c0-0.1,0-0.2,0-0.4c0-0.2,0-0.3-0.1-0.4c-0.1-0.1-0.1-0.2-0.1-0.3c0.2-0.2,0-0.4,0-0.6c-0.1-0.2-0.1-0.3,0-0.5
		c0.1-0.1,0.1-0.2,0-0.3C6.9,44.2,7,44,7,43.9c0-0.2,0-0.4,0-0.5c0-0.2,0.1-0.2,0.1-0.4c0-0.1,0.1-0.4,0.2-0.5c0-0.1,0.1-0.1,0-0.2
		C7,42.1,7.2,41.8,7,41.7c-0.1,0,0-0.1,0-0.2c0.2-0.4,0.2-0.8,0-1.2c0-0.1,0-0.2,0-0.4c0-0.1,0.3-0.2,0.1-0.4
		c-0.1-0.1,0.1-0.2,0-0.3c0,0,0.2-0.1,0-0.2c-0.4-0.1-0.8-0.2-1-0.7c0-0.1-0.1-0.1-0.1-0.1c-0.1-0.1-0.3,0-0.3,0.2
		c0,0.2,0,0.4,0,0.5c0,0.1-0.1,0.2,0,0.4c0.1,0.1-0.1,0.1-0.1,0.2c0,0.3-0.3,0.6,0.1,0.7c0.1,0,0.1,0.1,0.1,0.2
		c-0.1,0.3,0.2,0.5,0,0.8c-0.1,0.2,0.2,0.4,0.1,0.7c-0.1,0.2-0.2,0.4-0.2,0.6c0,0.1,0,0.2,0,0.3c0,0.1,0.1,0.1,0.2,0.2
		c-0.1,0.1-0.1,0.1-0.1,0.2c0.1,0.5,0.1,0.8-0.1,1.2c0,0.1-0.1,0.2,0,0.3c0.2,0.2,0.2,0.5,0.1,0.7c-0.2,0.5-0.2,0.5-0.1,1
		c0,0.1,0.2,0.2,0.1,0.4c-0.2,0.2,0,0.5-0.2,0.7c-0.2,0.2-0.2,0.3,0.1,0.5c0.2,0.1,0.2,0.2,0.1,0.4c-0.1,0.2-0.2,0.3,0,0.4
		c0,0,0,0.1,0.1,0.2c0.2,0.5,0.2,0.6-0.1,0.9c-0.1,0.1-0.2,0.2-0.1,0.4c0.1,0.1-0.1,0.2-0.2,0.3c-0.2,0.1-0.5,0.1-0.5,0.4
		c0,0.1-0.3,0-0.4,0.2c-0.1,0.1-0.2-0.2-0.4-0.2C4,50.9,4,51,4,51c-0.2,0.1,0,0.4-0.2,0.5c-0.1,0-0.3-0.1-0.5-0.1c0,0-0.1-0.1-0.1,0
		c0,0.4-0.4,0.2-0.6,0.3c-0.2,0.2-0.4,0-0.6,0.2c0,0-0.1,0-0.1,0c-0.2-0.3-0.6-0.1-0.7-0.4c-0.1-0.1-0.2-0.1-0.3-0.2
		c-0.1-0.1-0.3,0-0.3-0.1c0-0.2-0.1-0.4,0-0.5c0.1-0.1,0.1-0.2,0-0.3c-0.1-0.1-0.1-0.2-0.2-0.3c-0.1-0.1-0.1-0.1-0.2-0.2
		c0,0,0-0.2,0-0.2c0.2-0.1,0-0.2,0.1-0.4c0.1-0.1,0.1-0.3,0-0.5c-0.1-0.2-0.3-0.6-0.1-0.9c0.1-0.1,0.2-0.2,0-0.3c0,0-0.1-0.2,0-0.2
		c0.2-0.2,0.1-0.5,0.1-0.7c0-0.3-0.3-0.5,0.1-0.8c0.1,0,0.1-0.3,0-0.4c-0.1-0.2-0.1-0.3,0.1-0.5c0.1-0.1,0.1-0.2,0-0.2
		c-0.2-0.1-0.3-0.3-0.1-0.5c0.1-0.1,0.1-0.3,0-0.4c-0.1-0.1-0.1-0.1-0.1-0.2c-0.2-0.2,0-0.4,0-0.6c0.3,0,0.2-0.2,0.1-0.3
		c-0.2-0.3-0.2-0.6,0.1-0.8c0.2-0.2,0.2-0.4,0.1-0.6c-0.1-0.2-0.2-0.3,0-0.5c0.1-0.2,0.1-0.4-0.1-0.6c-0.2-0.1-0.1-0.3,0-0.4
		c0.1-0.1,0.2-0.2,0.1-0.2c-0.3-0.2-0.1-0.3,0-0.5c0.1-0.2-0.2-0.3-0.1-0.4c0.1-0.1,0.2-0.3,0.1-0.4c-0.2-0.3-0.1-0.6-0.1-0.9
		c0-0.2,0.1-0.4,0-0.6c-0.1-0.1,0.1-0.3-0.1-0.5c0,0-0.1-0.2,0-0.3c0.2-0.2,0-0.4,0.1-0.6c-0.2-0.1,0-0.2,0-0.3
		c-0.1-0.1-0.2-0.2-0.2-0.3c0-0.1,0-0.2,0-0.3c0,0,0.1-0.1,0.1-0.1c-0.2-0.3,0.1-0.5,0.1-0.7c0-0.3,0.1-0.5,0.2-0.7
		c0.1-0.3,0.1-0.5,0-0.8c-0.1-0.1-0.1-0.3,0-0.4c0-0.1,0.1-0.2,0.3-0.2c0,0,0.1-0.1,0.1-0.1C0.8,31,1.1,31,1.3,31
		c0.1-0.1,0.3-0.1,0.3-0.2c0-0.2,0.1-0.2,0.2-0.2c0.1,0,0.3,0,0.4-0.1c0,0,0.1-0.1,0.1-0.1c0.2,0.2,0.4,0,0.6-0.1c0.1,0,0.2,0,0.4,0
		c0.2,0,0.1-0.3,0.2-0.3c0,0,0,0,0,0c0.3,0,0.6-0.1,0.8-0.3c0.2,0.2,0.3-0.1,0.5,0c0.1,0,0.2,0,0.3-0.1c0.2-0.1,0.2-0.4,0.5-0.4
		c0.2,0,0.4-0.2,0.6-0.3c0,0,0.2,0,0.2,0c0.2,0,0.5-0.1,0.6-0.2c0.3-0.4,0.7-0.4,1.2-0.5c0.2,0,0.4,0,0.6-0.2
		c0.3-0.4,0.8-0.5,1.2-0.2c0,0,0.1,0,0.1,0c-0.1-0.1-0.2-0.3-0.4-0.4C9.8,27,9.8,27,10,26.8c0.2-0.2,0.2-0.4-0.1-0.6
		c0,0-0.1-0.1-0.1-0.2c0-0.2-0.1-0.4-0.2-0.5c-0.2-0.2-0.2-0.3-0.1-0.5c0.1-0.2-0.3-0.3,0-0.5c0.1-0.1-0.2-0.2-0.1-0.3
		c0.1-0.1,0.1-0.2,0.1-0.4c0-0.1,0-0.2,0-0.2c0.2-0.2,0.1-0.3-0.1-0.4c-0.2-0.1-0.1-0.3,0-0.4c0.1-0.2,0.1-0.3,0-0.4
		c-0.1,0-0.2-0.1-0.1-0.2c0.1-0.2,0.1-0.4,0-0.6c-0.1-0.2,0.1-0.4-0.1-0.5c0,0,0-0.1,0-0.2c0.3-0.3,0.3-0.6,0.1-0.9
		c-0.1-0.2,0.1-0.4-0.1-0.6C9,19.3,9.2,19.1,9.2,19c0-0.3,0.1-0.6-0.1-0.8C9.2,18,9,17.9,9,17.7c0-0.2,0-0.4,0-0.5
		c0-0.2,0-0.5-0.1-0.7c-0.1-0.1-0.2-0.3,0-0.4c0.1-0.1,0-0.1-0.1-0.2c-0.2-0.1-0.2-0.2,0-0.4c0.1-0.1,0.2-0.3,0.3-0.4
		c0.1-0.1,0.2-0.2,0.4-0.3c0.1-0.1,0.2-0.2,0.1-0.3c0-0.1,0.2-0.2,0.3-0.2c0.1,0,0.2-0.1,0.1-0.2c-0.1-0.1,0-0.2,0-0.2
		c0.1-0.1,0.2,0,0.3-0.1c0.2,0,0.4-0.1,0.5-0.2c0.1-0.1,0.2-0.2,0.3-0.4c-0.1-0.1-0.1-0.2,0-0.3c0.1-0.1,0.2,0.1,0.3,0.1
		c0,0,0.1,0,0.2,0c0.1,0,0.1,0.1,0.1,0c0-0.1,0.1-0.1,0.1-0.2c0.2-0.3,0.3-0.3,0.5,0c0.2,0.3,0.5,0.3,0.8,0.2c0.1,0,0.2-0.1,0.2,0
		c0.1,0.1,0.3,0.2,0.5,0.3c0.2-0.3,0.3,0.1,0.5,0c0.2-0.1,0.3,0.1,0.4,0.2c0.1,0.2,0.1,0.2,0.3,0.2c0.1,0,0.2,0,0.4,0
		c0.1,0,0.2,0,0.2,0.1c0.1,0.3,0.4,0.2,0.6,0.3c0.3,0.1,0.6,0.1,0.8,0.3c0.2,0.1,0.4,0.3,0.6,0.5c0.4,0.3,0.8,0.6,1.3,0.5
		c0.1,0,0.2,0,0.4,0c0.3-0.1,0.5,0,0.5,0.4c0,0.1,0.1,0.3,0.2,0.3c0.1,0.1,0.3,0.1,0.4-0.1c0.4,0.2,0.9,0.1,1.2,0.5
		c0.1,0.1,0.2,0.2,0.3,0c0.1-0.1,0.1,0,0.2,0c0.3,0.3,0.6,0.5,1.1,0.4c0.1,0,0.1,0.1,0.1,0.2c0.1,0.2,0.3,0.4,0.6,0.5
		c0.1,0,0.4,0,0.4,0.2c0,0.1,0,0.1,0.1,0.1c0.4-0.1,0.7,0.3,1,0.4c0.2,0.1,0.2,0.1,0.4,0c0.3-0.1,0.4,0,0.6,0.2
		c0.1,0.1,0.2,0.2,0.2,0.3c0.2,0.2,0.4,0.4,0.7,0.3c0.2-0.1,0.4,0.2,0.6,0c0,0,0.1,0,0.2,0c0,0.3,0.3,0.4,0.4,0.5
		c0.1,0.1,0.1,0.1,0.3,0c0.1-0.1,0.2,0.1,0.3,0.2c0.1,0.1,0.1,0.1,0.3,0c0.2-0.1,0.4,0,0.7,0.1c0.3,0.1,0.4,0.2,0.5,0.4
		c0,0.1,0.1,0.2,0.2,0.2c0.2,0.1,0.3,0.3,0.5,0.4c0.1,0.1,0.2,0.3,0.4,0.1c0,0,0.3,0.5,0.3,0.5c-0.1,0.1-0.1,0.2,0,0.2
		c0.2,0.1,0.3,0.2,0.3,0.4c0,0.1-0.1,0.3,0.1,0.4c0,0.3,0.1,0.5-0.1,0.8c-0.1,0.2-0.1,0.5,0,0.7c0.1,0.1,0.1,0.3,0,0.4
		c-0.1,0.1,0,0.1,0,0.1c0.2,0.6,0.2,0.7,0.1,1.5c0,0.1,0,0.2,0,0.3c0,0,0.1,0.1,0.1,0.1c-0.2,0.3-0.1,0.6,0,0.9c0,0.1-0.2,0.2,0,0.3
		c0.1,0,0,0.2,0.1,0.3c0.1,0.1,0.1,0.2,0,0.3c-0.1,0.2-0.3,0.3-0.1,0.5c0.1,0.1,0,0.4,0.1,0.6c0.1,0.2-0.1,0.2-0.1,0.3
		c0,0.1,0.2,0.2,0.1,0.4c0,0.1,0.1,0.2,0.2,0.3c0,0,0.1,0,0.1,0c0,0,0-0.1,0-0.1c-0.2-0.1-0.1-0.2,0-0.3c0.1-0.1-0.3-0.2-0.1-0.4
		c0.1-0.1,0.2-0.2,0.3-0.3c0-0.1,0.1-0.3-0.1-0.3c-0.2,0-0.2-0.2,0-0.2c0.1,0,0.2-0.1,0.2-0.1c0.3,0-0.1-0.3,0.1-0.3
		c-0.5-0.2,0.1-0.5-0.1-0.7c0,0,0.1-0.2,0.3-0.2c0.2,0,0.3,0,0.4-0.2c0.1-0.2,0.1-0.4,0-0.5c-0.1-0.2-0.2-0.3,0-0.5
		c-0.2-0.2,0-0.2,0.1-0.3c0.2-0.2,0.3-0.4,0.3-0.7c0-0.2,0.1-0.3,0.1-0.4c0-0.1-0.3-0.1-0.2-0.3c0.1-0.1,0.2-0.2,0.2-0.3
		c0-0.2,0.1-0.3,0.1-0.6c0-0.4,0.1-0.8,0.2-1.2c0,0,0-0.1,0-0.1c0-0.1-0.1-0.2,0-0.4c0.1-0.1,0.2-0.2,0.3-0.4c0-0.1,0.1-0.1,0.1-0.2
		c0-0.2-0.1-0.3-0.1-0.4c0.1-0.2,0.1-0.3,0-0.4c-0.1-0.1-0.1-0.3,0-0.4c0.2-0.5,0.1-0.9,0.1-1.4c0-0.2-0.1-0.4,0.1-0.5
		c0,0,0-0.1,0-0.1c-0.3-0.3,0-0.6,0-0.9c0-0.2,0.2-0.4,0-0.6l0.2-0.6c0.1-0.3,0.2-0.5,0.2-0.9c0.1,0.1,0.3,0.1,0.3,0.2
		c0.1,0.1,0.1,0.1,0.2,0c0.1,0,0.1-0.2,0.2-0.1c0.1,0.1,0.3-0.2,0.4,0c0,0.1,0.2,0.1,0.2,0c0.2-0.3,0.5-0.4,0.8-0.4
		c0.1,0,0.1-0.1,0.2-0.1c0.2-0.1,0.4-0.2,0.7-0.1c0.1,0,0.2,0,0.4,0c0.1,0,0.1-0.2,0.3-0.1c0,0,0.2,0,0.3-0.1c0.1-0.1,0.1-0.1,0.2,0
		c0.1,0.1,0.3,0.1,0.4,0c0.2-0.2,0.4-0.1,0.5,0.1c0.1,0.1,0.2,0.1,0.3,0c0.1-0.1,0.3-0.2,0.3-0.1c0.2,0.1,0.3,0.2,0.5,0.3
		c0,0,0,0.1,0.1,0.2c0.1,0.1-0.1,0.3,0.1,0.5c0.2,0.1,0.2,0.3,0.3,0.4c0.1,0.1,0.1,0.3,0.3,0.4c0.2,0,0.1,0.1,0.1,0.2
		c0,0.3,0.4,0.2,0.4,0.4c0.3,0,0,0.4,0.3,0.4c0.1,0.2,0.2,0.4,0.4,0.4c-0.1,0.3,0.3,0.4,0.2,0.6c0.3,0.3,0.4,0.7,0.7,1.1
		c0.1,0.1,0.2,0.1,0.2,0.1c0.2,0.1,0.4,0.1,0.4-0.1c0-0.3,0.1-0.5,0.4-0.3c0.1-0.1,0.2-0.1,0.3-0.2c0.2-0.1,0.4-0.2,0.6-0.2
		c0.2,0,0.4,0.1,0.5,0.3c0,0.1,0.1,0,0.2,0c0.2-0.1,0.4-0.1,0.6,0.1c0.1,0.1,0.2,0.1,0.3,0.1c0.1,0.1,0.2-0.2,0.3-0.1
		c0.1,0.1,0.2,0.1,0.4,0c0.1-0.1,0.1,0,0.1,0.1c0.1,0.1,0.2,0.2,0.4,0c0.1-0.1,0.1,0,0.2,0c0.1,0.1,0.2,0.3,0.4,0.3
		c0.1,0,0.3,0.2,0.4,0c0,0,0.1,0,0.1,0.1c0.1,0.1,0.2,0.2,0.4,0.2c0.1,0,0.1,0,0.2,0.1c0.1,0.1,0.2,0.3,0.4,0.1
		c0.2,0.1,0.3,0.2,0.5,0.3c0.2,0.1,0.3,0.5,0.6,0.2c0,0,0.1,0,0.1,0c0.1,0.2,0.2,0.3,0.5,0.3c0.2,0,0.3,0.2,0.5,0.2
		c0.1,0,0.2,0.1,0.2,0.2c0.2,0.3,0.3,0.5,0.7,0.5c0.1,0,0.1,0,0.1,0.1c-0.1,0.3,0.2,0.3,0.3,0.3c0.2,0.1,0.2,0.2,0.3,0.3
		c0.1,0.3,0.2,0.6,0.6,0.6c0,0,0.2,0.1,0.1,0.2c-0.1,0.2-0.1,0.3,0.1,0.4c0.1,0,0.2,0.1,0.2,0.1c0.1,0.1,0.2,0.1,0.1,0.3
		c-0.1,0.1,0,0.2,0.1,0.2c0.1,0.2,0.3,0.5,0.3,0.8c0,0.3,0.3,0.5,0.5,0.6c0.2,0.1,0.2,0.1,0.1,0.3c-0.1,0.2-0.1,0.4,0.1,0.5
		c0.1,0.1,0.2,0.3,0.1,0.4c0,0-0.1,0.1,0,0.1c0.3,0.4,0,0.7-0.2,1c-0.4,0.5-0.5,1-0.5,1.6c0,0.3,0.1,0.6-0.2,0.8
		c-0.1,0.1-0.1,0.5-0.3,0.6c0.2,0.2,0,0.4-0.2,0.5c-0.1,0.1-0.1,0.2-0.1,0.3c0.1,0.3-0.3,0.5,0,0.7c-0.1,0.1-0.2,0.2-0.3,0.3
		c-0.1,0.1-0.3,0.3-0.1,0.5c-0.1,0.2,0,0.4-0.2,0.5c-0.1,0.1-0.1,0.2-0.1,0.3c0.1,0.2,0,0.4-0.2,0.6c-0.2,0.1-0.3,0.2-0.2,0.4
		c0,0.2-0.1,0.4,0.2,0.4c0.1,0.3,0.2,0.4,0.5,0.3c0.1,0,0.1,0,0.1,0.1c0.2,0.4,0.6,0.4,0.9,0.5c0.2,0.1,0.4,0.4,0.7,0.3
		c0,0,0,0.1,0.1,0.1c0.1,0.2,0.1,0.2,0.4,0.2c0.2,0.1,0.5,0.2,0.6,0.5c0,0.1,0,0.2,0.2,0.2c0.2,0,0.3,0.1,0.3,0.3
		c0,0.3,0.1,0.5,0.2,0.7c0.2,0.2,0.2,0.8,0.1,1c-0.1,0.3-0.3,0.5-0.1,0.8c0.1,0.2-0.1,0.5,0.1,0.7c-0.3,0.5,0,0.9,0.1,1.3
		c0,0.1,0,0.3,0,0.4c0,0-0.1,0.1,0,0.1c0.1,0.1,0.3,0.2,0.1,0.4c-0.1,0.1,0.2,0.2,0,0.3c-0.1,0-0.1,0.3,0,0.4c0.1,0.1,0.1,0.2,0,0.3
		c-0.1,0.1-0.1,0.2,0,0.3c0.2,0.1,0,0.3,0,0.4c0.1,0.2,0.1,0.3,0.1,0.5c0,0.2,0,0.3-0.2,0.4c-0.1,0.1-0.1,0.2,0,0.2
		c0.1,0.1,0.1,0.1,0.1,0.2c0,0.2,0,0.3-0.1,0.5c0.2,0.2,0.1,0.3,0,0.5c-0.1,0.1,0,0.1,0.1,0.2c0.1,0.1,0.2,0.2,0,0.3
		c-0.2,0.2-0.1,0.4-0.1,0.6c0.3,0.2,0.2,0.5,0.2,0.8c0,0.1,0,0.2,0,0.3c0.1,0.1,0.1,0.1,0,0.2c-0.2,0.2-0.3,0.4-0.2,0.6
		c0.1,0.1-0.2,0.2-0.1,0.3c0.1,0.1,0,0.2,0.1,0.3c0.1,0.1,0,0.1,0,0.2c-0.2,0.2-0.2,0.3-0.1,0.5c0.1,0.1,0.2,0.2,0.1,0.4
		c0.2,0.1,0,0.2,0.1,0.3c0.1,0.1,0,0.2,0,0.3c-0.2,0.2-0.4,0.4-0.2,0.7c0.1,0.1,0.1,0.3,0,0.4c-0.1,0.1-0.1,0.1-0.1,0.2
		c0.3,0.3,0.3,0.6,0,0.8c0,0,0,0,0,0.1c0,0.2,0.3,0.3,0.1,0.5c-0.1,0.2,0,0.4,0.1,0.5c0.1,0.1,0.2,0.3,0,0.4c0,0-0.1,0.1-0.1,0.1
		c0.4,0.4-0.3,0.6-0.1,1c0,0-0.1,0.1-0.1,0.1C59.1,58,59,58,59,58.2c0,0.3-0.1,0.3-0.3,0.1c0,0-0.1,0-0.2,0
		c-0.1,0.1-0.2,0.3-0.5,0.1c-0.1-0.1-0.2,0.1-0.2,0.1c-0.2,0.2-0.2,0.2-0.4-0.1c-0.1-0.1-0.2-0.2-0.2-0.3c0-0.1-0.1-0.1-0.2-0.1
		c-0.1,0.1-0.1,0.1-0.2,0c-0.2-0.2-0.2-0.2-0.4,0.1c0,0.1-0.1,0.2-0.1,0.2c-0.2,0.1-0.2-0.1-0.3-0.1c-0.2-0.1-0.3-0.1-0.4,0.1
		c-0.1,0.2-0.2,0.2-0.3,0.1c-0.1-0.1-0.1-0.2-0.1-0.2c-0.1,0-0.1,0.1-0.2,0.1c-0.1,0-0.2,0.1-0.2-0.1c0,0,0-0.1,0-0.1
		c-0.6,0-0.4-0.4-0.4-0.8c0-0.2,0-0.4,0-0.6c0-0.1,0-0.2-0.1-0.3c-0.2-0.1-0.2-0.3-0.1-0.5c0.1-0.4,0-0.7-0.1-1.1c0,0,0,0,0-0.1
		c0.1-0.1,0.2-0.3,0.2-0.3c-0.2-0.4,0-0.9-0.1-1.3c-0.1-0.2,0-0.2,0.1-0.3c0.2-0.2,0.3-0.3,0.1-0.5c-0.1-0.1-0.1-0.3,0-0.4
		c0-0.2,0.1-0.3-0.1-0.4c-0.1-0.1,0-0.2,0-0.3c0-0.3,0.3-0.6-0.1-0.8c0-0.2,0-0.4,0.1-0.6c0.2-0.3,0.2-0.7,0-1.1
		c-0.1-0.2-0.3-0.4,0-0.6c0,0,0.1-0.1,0.1-0.1c-0.1-0.4,0.1-0.8,0.1-1.3c0-0.2-0.1-0.3-0.1-0.4c-0.1-0.3-0.1-0.6,0-0.8
		c0.2-0.2,0.1-0.3,0-0.5c-0.1-0.1-0.1-0.1,0-0.2c0.1-0.2,0-0.4,0-0.6c-0.1,0.2-0.1,0.3-0.3,0.4c-0.2,0.1-0.3,0.2-0.6,0
		c-0.2-0.2-0.4-0.1-0.4,0.2c0,0.2,0,0.3-0.3,0.3c-0.1,0-0.2,0-0.3,0.1c-0.1,0.1-0.2,0.1-0.3,0.1c-0.2,0-0.4,0-0.5,0.2
		c0,0.1-0.1,0.1-0.2,0c-0.3-0.2-0.4,0-0.6,0.2c-0.2,0.1-0.3,0.2-0.6,0.2c-0.2,0-0.5,0.1-0.7,0.3c-0.1,0.1-0.2,0.1-0.3,0.1
		c-0.1,0-0.2-0.2-0.3-0.1c-0.1,0.1-0.3,0.2-0.3,0.4c0.2,0,0.5,0,0.7,0.3c0,0,0.2,0,0.3,0c0.3-0.2,0.6,0,0.8,0.1
		c0.4,0.3,0.8,0.6,1.2,0.9c0.1,0.1,0.2,0.2,0.1,0.3c-0.1,0.2-0.1,0.4-0.1,0.6c0,0.2-0.3,0.2-0.2,0.4c0,0-0.2,0.2-0.3,0.2
		c-0.2,0-0.1,0.1,0,0.2c0.1,0.1,0,0.2-0.1,0.4c-0.1,0.1-0.1,0.3-0.2,0.4c-0.2,0.1,0.2,0.3,0,0.4c0,0,0.2,0.2,0,0.4
		c0,0,0.1,0.1,0.1,0.2c0,0.1,0.1,0.1,0.2,0c0.3-0.3,0.3-0.3,0.5-0.2c0.1,0,0.2,0.2,0.2,0c0,0,0,0,0,0c0.1,0,0.2,0,0.2,0
		c0.1,0.3,0.4-0.1,0.5,0.1c0.1,0.2,0.1,0.4,0.4,0.4c0.1,0,0.1,0.1,0.1,0.1c-0.2,0.2-0.1,0.3,0,0.4c0,0,0.1,0.1,0,0.1
		c-0.1,0.1,0,0.2,0,0.3c0,0.1,0.1,0.2,0.1,0.2c0.1,0.2-0.1,0.3-0.1,0.4c0,0.2,0.2,0.2,0.2,0.4c0,0.1,0,0.1,0,0.2
		c-0.2,0.2-0.2,0.5-0.3,0.7c-0.1,0.2-0.1,0.3,0,0.3c0.1,0.1,0.1,0.3,0.2,0.3c0.2,0.1,0.2,0.3,0,0.4c-0.1,0.1-0.2,0.2-0.2,0.3
		c0,0.1,0.1,0.4,0,0.4c-0.2,0-0.3,0.2-0.5,0.2c-0.1,0-0.3-0.2-0.4,0.1c-0.1,0.1-0.1,0-0.2,0c-0.3-0.2-0.3-0.2-0.3,0.1
		c0,0.2-0.1,0.3-0.2,0.3c-0.1,0-0.3,0-0.4-0.1c-0.2,0-0.4-0.1-0.4-0.4c0-0.1-0.1-0.2-0.3-0.2c-0.1,0-0.2,0.1-0.2,0.3
		c0,0.1,0,0.2,0,0.2c-0.1,0.1-0.1,0.3-0.3,0.1c-0.1-0.1-0.3,0.2-0.4,0c-0.2,0.2-0.4,0.1-0.5-0.1c-0.2-0.2-0.4-0.3-0.4-0.3
		c0-0.2-0.2-0.4-0.3-0.4c-0.3-0.2-0.6-0.3-0.3-0.7c0,0,0-0.1-0.1-0.1c-0.3,0-0.1-0.3-0.2-0.4c0.3-0.2,0.1-0.4,0-0.6
		c-0.1-0.2-0.1-0.2,0-0.4c0.2-0.2,0.1-0.2,0-0.4c-0.3-0.2-0.3-0.5-0.1-0.7c0.2-0.2,0.2-0.4,0.3-0.6c-0.2-0.2-0.4-0.4-0.7-0.4
		c-0.5-0.1-0.5-0.1-0.9-0.5c-0.1,0-0.2,0.1-0.3,0.1c-0.1,0-0.2,0.1-0.3,0.1c-0.2-0.2-0.3-0.3-0.5-0.5c-0.1-0.1-0.2-0.2-0.3,0
		c-0.1,0.1-0.1,0.1-0.2,0c-0.5-0.1-0.5-0.1-0.9-0.6c-0.1-0.1-0.2-0.3-0.4-0.3c-0.2,0-0.2,0.1-0.3,0.2c-0.1,0.1-0.2,0.1-0.2,0
		c-0.1-0.3-0.3-0.3-0.5-0.3c-0.2-0.1-0.3-0.1-0.2-0.3c0.1-0.3-0.1-0.6-0.4-0.6c-0.2,0-0.4-0.1-0.6,0.1c-0.1,0.1-0.2,0.2-0.3,0.1
		c-0.3-0.1-0.4,0.1-0.6,0.3c-0.2,0.2-0.4,0.3-0.6,0.1c-0.1-0.1-0.2-0.1-0.2,0c-0.1,0.1-0.2,0.2-0.3,0.2c-0.2,0,0,0.3-0.3,0.2
		c-0.1,0-0.3-0.1-0.4,0.1c-0.1,0.1-0.2,0-0.2,0.1c-0.1,0.1-0.1,0.2,0,0.3c0.3,0.2,0.3,0.3,0.1,0.6c-0.1,0.1-0.2,0.1-0.2,0.2
		c0,0.1,0.1,0.2,0.1,0.2c0.2,0.2,0.1,0.3,0,0.4c-0.1,0.1-0.1,0.2-0.2,0.3c0,0-0.1,0.1,0,0.1c0.3,0.1,0.2,0.2,0.1,0.4
		c0,0.1,0,0.3,0,0.4c-0.1,0.3-0.1,0.6,0.1,0.8c0.1,0.2,0.1,0.2,0,0.3c-0.2,0.2-0.2,0.5,0,0.7c0.2,0.2,0.2,0.5,0.1,0.6
		c-0.1,0.2-0.1,0.3-0.1,0.4c0,0.2,0,0.4-0.2,0.6c-0.2,0.1,0.1,0.4-0.2,0.5c0.1,0.1,0.1,0.3,0.2,0.3c0.2,0.1,0.2,0.2,0,0.4
		c-0.1,0.1-0.1,0.3,0,0.4c0.1,0.2,0.1,0.4,0,0.5c0,0.1-0.1,0.1,0,0.2c0.3,0.2,0,0.6,0.2,0.7c0.2,0.1,0.1,0.2,0,0.3
		c-0.2,0.1-0.3,0.3-0.3,0.5c0,0.2,0,0.4,0.2,0.5c0.1,0.1,0.1,0.2,0,0.3c-0.2,0.1-0.2,0.2,0,0.4c0.1,0.1,0.2,0.3,0.1,0.4
		c-0.1,0.1,0,0.2-0.1,0.2c-0.1,0.2,0.3,0.3,0.1,0.5c-0.2,0.1-0.1,0.3-0.2,0.5c-0.1,0.3-0.1,0.6-0.4,0.8c0,0.2-0.1,0.4-0.2,0.6
		c0,0.3-0.1,0.3-0.4,0.3c-0.1,0-0.2,0-0.3-0.1c-0.1-0.1-0.1-0.1-0.2,0c-0.2,0.1-0.3,0.3-0.5,0.1c-0.2,0.2-0.5,0.2-0.7,0
		c0,0-0.1,0-0.2,0c-0.4,0.1-0.7,0-0.9-0.2c-0.1-0.1-0.2-0.1-0.3-0.1c-0.1,0-0.2,0-0.2-0.1c-0.1-0.2-0.3-0.2-0.5-0.2
		c-0.3,0-0.4-0.2-0.3-0.4c0-0.1,0.1-0.2,0.1-0.3c0.1-0.2,0-0.3-0.1-0.5c-0.1-0.1-0.2-0.3-0.2-0.4c-0.1-0.2-0.1-0.4,0-0.6
		c0.1-0.1,0.2-0.2,0-0.4c-0.1-0.1,0.1-0.2,0.1-0.2c0-0.1-0.1-0.1-0.2-0.2c-0.1-0.1,0-0.2,0-0.3c0.1-0.3,0.1-0.5,0.1-0.8
		c0-0.2-0.1-0.4,0.1-0.6c0.1-0.1,0.1-0.1,0-0.2c-0.1-0.2-0.1-0.3,0-0.5c0.1-0.2,0.1-0.2-0.1-0.3c0,0-0.1-0.1-0.1-0.1
		c0.2-0.2,0-0.3,0-0.4c0-0.3-0.2-0.6,0.1-0.9c0.1-0.1,0.1-0.2,0-0.3c0-0.1-0.1-0.1-0.1-0.2c0-0.2-0.1-0.4,0.1-0.6
		c-0.2-0.2-0.2-0.4,0-0.6c0.1-0.2-0.1-0.4,0.1-0.6c0.1-0.1,0-0.1,0-0.2c-0.2-0.1-0.3-0.3-0.1-0.5c0.1-0.1,0-0.1,0-0.1
		c-0.2-0.3-0.1-0.5,0.1-0.7c0,0,0-0.1,0-0.2c0,0-0.1-0.1-0.2,0c-0.2,0.1-0.5,0.1-0.5,0.5c0,0.1-0.1,0.2-0.2,0.2c-0.2,0,0,0.1,0,0.2
		c0,0.2,0,0.5-0.3,0.7c-0.2,0.1-0.6,0.2-0.3,0.6c-0.2,0.3-0.1,0.7-0.3,0.9c0,0.1-0.1,0.2-0.1,0.3c0,0.2,0.1,0.5-0.2,0.6
		c-0.2,0.1-0.1,0.4-0.4,0.4c-0.1,0-0.1,0.1,0,0.2c0.1,0.1,0.2,0.1,0.2,0.3c0.1,0.2,0.2,0.3-0.1,0.4c-0.1,0-0.2,0.2-0.1,0.3
		c0.1,0.1,0.1,0.4,0,0.4c-0.2,0.2,0,0.4,0,0.6c0,0.2,0.1,0.3-0.1,0.3c-0.1,0-0.2,0-0.2,0.2c0,0.2-0.1,0.3-0.3,0.3
		c-0.2,0-0.4,0-0.5,0.3c-0.1,0.2-0.3,0.1-0.4-0.1c-0.1-0.2-0.2-0.1-0.4,0c-0.1,0.1-0.2,0.2-0.3-0.1c0-0.1-0.2-0.2-0.3,0
		c-0.1,0.1-0.2,0.2-0.3,0.2c-0.2,0.1-0.2-0.2-0.4-0.2c-0.1,0-0.2,0.3-0.3,0.2c-0.2-0.2-0.3,0.1-0.4,0c-0.1-0.2-0.3,0-0.4-0.1
		c-0.2-0.2-0.3,0-0.5-0.1c0-0.1,0-0.2,0-0.4c0-0.2,0-0.4-0.3-0.5c-0.2,0-0.3-0.2-0.1-0.4c0.1-0.2,0.1-0.3,0-0.5
		c-0.1-0.1,0.2-0.2,0-0.3c-0.1-0.1,0-0.2,0-0.3c0.1-0.2-0.1-0.3-0.2-0.4c0-0.1-0.2-0.1-0.1-0.2c0.1-0.1,0-0.3,0.1-0.4
		c0.1,0,0.1-0.1,0.2-0.2c0.2-0.2,0.4-0.3,0.2-0.6c-0.1-0.1-0.1-0.5,0.2-0.6c0-0.2,0.4-0.3,0.2-0.6c-0.2-0.2,0.1-0.3,0-0.5
		c0-0.1-0.2-0.2-0.1-0.4c0.1-0.1,0.2-0.1,0.3-0.2c0.1-0.1-0.1-0.1-0.1-0.2c0.1-0.2,0.1-0.4,0.4-0.5c0.4-0.2,0.4-0.2,0.2-0.6
		c0-0.1-0.1-0.2,0.1-0.2c0.3-0.1,0.4-0.4,0.5-0.7c0-0.3,0.2-0.6,0.3-0.9c0.1-0.1,0.1-0.1,0.2-0.1c0.1,0,0.2-0.1,0.2-0.2
		c0-0.3,0.1-0.6,0.3-0.8c0.2-0.2,0.3-0.5,0.6-0.6c0.1-0.1,0.2-0.3,0.2-0.4c0-0.1-0.2-0.3-0.3-0.3c-0.3,0-0.5-0.2-0.9-0.1
		c-0.2,0-0.3-0.2-0.5-0.1c0,0-0.1-0.1-0.1-0.1c0.1-0.3-0.2-0.3-0.4-0.3c-0.1,0-0.2,0-0.3-0.1c-0.1,0-0.1-0.1-0.2-0.1
		c-0.3-0.2-0.4,0.2-0.7,0.2c-0.3,0-0.4,0-0.4,0.4c0,0.2-0.2,0.4-0.1,0.7c-0.3,0.2-0.3,0.5-0.4,0.7c0,0,0,0,0,0
		c-0.2,0.1-0.4,0.1-0.2,0.3c-0.1,0.1-0.3,0.3-0.4,0.4c-0.1,0.1-0.3,0.3-0.1,0.4c0.1,0.1,0,0.1,0,0.2c-0.1,0.1-0.1,0.2-0.3,0.2
		c-0.1,0-0.1,0.1-0.1,0.2c0.1,0.3,0.1,0.3-0.2,0.5c-0.2,0.1-0.2,0.3-0.1,0.5c0.1,0.2,0,0.3,0.1,0.5c0.1,0.1,0.1,0.3-0.1,0.5
		c-0.1,0.1-0.1,0.2-0.1,0.4c0,0,0.1,0.1,0.1,0.1c0,0.1-0.3,0.1-0.1,0.3c0.1,0.2-0.1,0.3-0.1,0.5c0,0.2-0.2,0.3-0.1,0.4
		c0,0.1,0,0.1-0.1,0.1c-0.1,0-0.2,0.1-0.3,0.1c-0.2,0.1-0.5,0.2-0.4,0.5c0,0-0.1,0.1-0.1,0.1c0,0.2-0.1,0.2-0.2,0.1
		c-0.1-0.2-0.4,0.1-0.5-0.2c-0.1-0.2-0.1-0.2-0.3,0c-0.1,0.2-0.2,0.2-0.4,0c-0.1-0.2-0.3-0.2-0.4,0c-0.1,0.1-0.2,0.2-0.2,0
		C19.9,56.7,19.7,56.6,19.6,56.5z M32.6,30.9c-0.1,0.2-0.3,0.4-0.1,0.7c0.2,0.3,0.3,0.8-0.1,1.1c-0.1,0.1,0,0.2,0.1,0.2
		c0.2,0.2,0.4,0.4,0.2,0.7c-0.1,0.1,0,0.2,0,0.3c0,0.1,0.2,0.1,0.3,0.1c0,0,0.1,0,0.1,0.1c-0.1,0.3,0.2,0.5,0.1,0.7
		C33,35.3,33,35.5,33,35.8c0,0.2,0,0.4-0.2,0.5c-0.1,0-0.2,0.1-0.3,0.2c-0.1,0-0.2,0.1-0.2,0.1c-0.1,0.1-0.2,0.2-0.3,0.3
		c-0.1,0.2-0.2-0.1-0.3,0c-0.1,0.1-1.1,0.5-1.2,0.4c-0.3,0-0.4,0.1-0.6,0.3c-0.1,0.1-0.2,0.2-0.3,0c0,0-0.1,0-0.2,0
		c-0.4,0-0.5,0-0.7-0.3c-0.1-0.1-0.2-0.2-0.3-0.3c-0.1-0.1-0.2-0.2-0.4,0c0,0-0.2,0-0.2-0.1c0-0.1,0-0.2-0.1-0.2
		c-0.2,0-0.5,0-0.6-0.2c0,0-0.1,0-0.2,0c-0.4,0-0.4,0-0.6-0.1C26,36.2,25.8,36,25.5,36c-0.2,0-0.3-0.1-0.3-0.3
		c0-0.3-0.2-0.2-0.3-0.2c0,0-0.1,0.1-0.1,0.1c-0.1,0.2-0.2,0.1-0.3,0c-0.2-0.1-0.4-0.3-0.7-0.3c-0.2,0-0.4-0.1-0.5-0.3
		c-0.2-0.2-0.4-0.4-0.6-0.5c-0.2-0.1-0.4,0.1-0.4,0.3c0,0.2,0.1,0.4,0.2,0.7c0.1,0.3,0.2,0.4-0.1,0.5c-0.4,0.1-0.3,0.5-0.5,0.7
		c0.2,0.2-0.1,0.4,0,0.6c0.1,0.1,0,0.2-0.1,0.3c-0.1,0.1-0.2,0.2-0.3,0.3c-0.1-0.1-0.1-0.1-0.2-0.2c-0.2-0.2-0.3-0.2-0.4,0.1
		c-0.1,0.2-0.2,0.3-0.6,0.2c-0.3-0.1-0.8,0.1-1.1,0.2c-0.3,0.2-0.7,0.1-0.9-0.2c-0.2-0.3-0.2-0.3-0.5-0.2c-0.3,0.1-0.4-0.1-0.7-0.1
		c-0.1,0,0-0.2-0.1-0.4c0-0.1,0-0.3-0.1-0.4c-0.2-0.2-0.2-0.3-0.1-0.6c0-0.2,0.1-0.4-0.1-0.5c-0.1-0.1-0.1-0.2-0.1-0.3
		c0-0.3,0-0.6-0.1-0.8c0-0.1-0.1-0.2,0-0.2c0.1-0.2,0.2-0.4,0-0.6c0.2-0.2,0.1-0.4,0.1-0.7c0-0.1,0-0.3,0-0.3
		c-0.2-0.2-0.1-0.3,0-0.4c0.2-0.2,0.1-0.3-0.1-0.5c0,0-0.1-0.1-0.1-0.1c-0.2-0.1-0.3-0.2-0.6-0.2c-0.2,0.1-0.5-0.1-0.6-0.3
		c0-0.1-0.1-0.1-0.1-0.1c-0.4,0-0.5-0.2-0.7-0.4c-0.1-0.2-0.2-0.2-0.4-0.2c-0.3,0.1-0.5,0.1-0.7,0c-0.2-0.1-0.3-0.2-0.5-0.2
		c-0.2,0-0.3,0-0.5,0.2c-0.1,0.1-0.3,0-0.4,0.2c0,0-0.1,0.1-0.1,0.1c-0.2,0.2-0.4,0.4-0.7,0.2c0,0-0.2,0-0.2,0
		c-0.2,0.3-0.5,0.2-0.7,0.3c-0.2,0.1-0.4,0.2-0.6,0.2c-0.2,0.1-0.5,0-0.6,0.3c-0.3-0.3-0.4,0.2-0.7,0.2c0,0.1,0,0.2-0.1,0.2
		c-0.3,0-0.5,0.3-0.8,0.1c-0.1-0.1-0.1,0-0.1,0c-0.1,0.2-0.3,0.2-0.4,0.2c-0.1,0-0.3,0.3-0.3,0.4c0,0,0.1,0,0.1,0
		c0.5,0.1,0.6,0.2,0.9,0.4c0,0,0.1,0.1,0.1,0.1c0.2,0,0.5-0.1,0.5,0.3c0,0,0,0,0,0c0.1,0,0.2,0,0.4,0c0.1,0,0,0.3,0.2,0.2
		c0.3-0.1,0.4,0.1,0.6,0.3c0.3,0.2,0.6,0.4,1,0.5c0.5,0.1,0.9,0.4,1.3,0.7c0.2,0.1,0.4,0.3,0.7,0.1c0.1-0.1,0.4,0.1,0.4,0.2
		c-0.1,0.4,0.4,0.2,0.4,0.4c0.1-0.1,0.1-0.2,0.2-0.1c0.3,0.2,0.5,0.4,0.9,0.4c0.2,0.3,0.6,0.3,0.8,0.6c0.1,0.1,0.2,0.2,0.4,0.1
		c0.1,0,0,0.3,0.3,0.2c0.2,0,0.4,0,0.6,0.2c0.2,0.2,0.4,0.2,0.5,0.5c0,0.1,0.2,0.2,0.3,0.2c0.1,0,0.3,0.1,0.4-0.1
		c0.1,0.1,0.2,0.2,0.2,0.3c0.1,0.1,0.3,0,0.4,0.1c0,0,0,0.1,0,0.1c0,0.2,0.1,0.3,0.3,0.3c0.3,0,0.5,0.1,0.7,0.3
		c0.3,0.3,0.6,0.6,1.1,0.5c0.1,0,0.2,0.1,0.2,0.2c0.1,0.2,0.2,0.4,0.5,0.2c0.1-0.1,0.3,0.1,0.3,0.2c0.4,0.6,0.7,0.7,1.3,0.8
		c0.1,0,0.2,0,0.2,0c0.2,0.4,0.8,0.3,0.9,0.7c0,0.1,0.1,0.1,0.2,0.1c0.1,0,0.3,0.1,0.4-0.1c0-0.1,0.2,0,0.2,0c0,0.3,0.3,0.3,0.5,0.3
		c0.3,0.1,0.6,0.2,0.8,0.4c0.3,0.2,0.6,0.2,0.9,0.3c0.1,0,0.1,0,0.1,0.1c-0.1,0.4,0.2,0.2,0.3,0.1c0.3-0.1,0.5,0.3,0.8,0.3
		c0.1,0,0.1,0.2,0.2,0.3l0.5,0.5c0.1,0,0.2,0,0.3,0c0.1,0,0.2,0,0.3,0.1c0.4,0.3,0.4,0.3,0.8,0.3c0.5,0,0.9,0,1.2,0.5
		c0,0.1,0.1,0.1,0.1,0.1c0.1,0.1,0.1,0.1,0.2,0c0.3-0.2,0.4-0.1,0.5,0.2c0,0.1,0.1,0.1,0.1,0.1c0.2,0,0.3,0.2,0.4,0.2
		c0.3,0.1,0.4,0.5,0.8,0.3c0.1-0.1,0.2,0.1,0.3,0.1c0.1,0.1,0.1,0.3,0.3,0.2c0.1-0.1,0.4,0,0.4-0.1c0.1-0.3,0.3-0.2,0.5-0.2
		c0.2,0,0.4,0.1,0.6-0.1c0.1,0,0.2,0,0.3,0c0.2,0.1,0.4,0.1,0.5-0.1c0.2-0.2,0.4-0.2,0.7-0.3c0.2,0,0.3-0.1,0.4-0.1
		c0.1-0.1,0.4,0,0.5-0.2c0.1-0.3,0.3-0.1,0.4-0.2c0.1,0,0.1-0.1,0.2-0.1c0.4-0.2,0.8-0.5,1.3-0.4c0.2,0,0.3-0.1,0.4-0.2
		C40.6,44,40.7,44,41,44c0.2,0,0.4,0,0.5-0.3c0-0.1,0.1-0.1,0.1-0.1c0.2,0,0.4-0.1,0.6-0.3c0.2-0.1,0.4-0.3,0.7-0.2
		c0.3,0.1,0.3,0.1,0.5-0.2c0.2-0.2,0.6-0.4,0.8-0.3c0.3,0.2,0.6,0.1,0.8-0.2c0.1-0.1,0.3-0.2,0.4-0.3c0.1-0.3,0.3-0.1,0.5-0.2
		c0,0,0.1,0,0.1,0c0.2-0.3,0.4-0.2,0.6-0.2c0.3,0,0.5-0.1,0.6-0.4c0-0.1,0.1-0.1,0.1-0.2c0-0.1,0.1-0.1,0.2-0.1
		c0.1-0.1,0.2,0.2,0.3,0c0.1-0.1,0.3,0,0.5,0c0.1,0,0.2,0.2,0.3,0c0.4,0.1,0.6-0.2,0.8-0.4c0.2-0.2,0.4-0.3,0.6-0.1
		c0.2,0.1,0.3,0,0.5-0.1c0.1-0.1,0.3-0.2,0.2-0.3c-0.1-0.1,0-0.3-0.1-0.4c-0.1-0.1-0.2-0.1-0.2-0.1c0,0-0.1,0.1-0.2,0.1
		c-0.1-0.3-0.6-0.1-0.7-0.4c-0.2,0.1-0.4-0.1-0.7-0.1c-0.1,0-0.2,0-0.2-0.1c-0.2-0.5-0.6-0.5-1-0.5c-0.2,0-0.1-0.4-0.4-0.2
		c0,0-0.1-0.1-0.1-0.1c-0.1-0.4-0.4-0.5-0.7-0.4c-0.2,0-0.4,0-0.4-0.3c0-0.1-0.1-0.2-0.3-0.2c-0.3,0.1-0.4-0.1-0.5-0.3
		c-0.2-0.2-0.5,0.1-0.6-0.3c-0.1-0.2-0.3,0-0.4-0.1c-0.3-0.3-0.1,0.2-0.3,0.2c-0.1,0.3-0.3,0.6-0.2,1c-0.1,0-0.1,0-0.1,0
		c-0.2,0-0.4-0.1-0.4,0.3c0,0,0,0.1-0.1,0.1c-0.3-0.1-0.3,0.3-0.6,0.3c-0.2,0-0.4,0.1-0.5,0.3c-0.1,0.1-0.1,0.1-0.2,0.1
		c-0.2,0-0.2,0.1-0.2,0.2c0,0.1,0,0.3-0.1,0.3c-0.2,0.1-0.4,0.3-0.6,0.3c-0.4,0-0.5,0.2-0.6,0.5c-0.5-0.3-0.5-0.3-0.9,0.2
		c-0.1,0.1-0.1,0.2-0.3,0.2c-0.2,0-0.3,0.4-0.6,0.3c0,0-0.1,0.1-0.2,0.2c-0.1,0.1-0.2,0.3-0.4,0.1c-0.1-0.1-0.1,0-0.2,0.1
		c-0.1,0.2-0.2,0.4-0.5,0.3c-0.1,0-0.2,0-0.2,0.2c-0.1,0.2-0.2,0.2-0.4,0.1c-0.2-0.1-0.3-0.2-0.5,0c-0.1,0.1-0.2,0.1-0.2,0
		c-0.1-0.2-0.4-0.2-0.5-0.4c-0.1-0.2-0.4-0.2-0.6-0.1c-0.2,0.2-0.4,0-0.5-0.1c-0.2,0-0.1-0.2-0.1-0.3c0-0.1-0.1-0.2-0.1-0.3
		c0-0.1-0.1-0.2,0-0.3c0.2-0.1,0.1-0.2,0-0.3c-0.1-0.1-0.2-0.2-0.3-0.4c0-0.2,0.1-0.3,0.1-0.4c0.1-0.2-0.2-0.3-0.1-0.4
		c0,0,0-0.1,0-0.1c0.2-0.2,0-0.5,0.2-0.7c0.1-0.1,0-0.1,0-0.1c-0.3,0-0.2-0.2-0.2-0.4c0-0.2,0-0.4,0.3-0.3c0.1,0,0.1,0,0.2,0
		c0-0.1,0.1-0.2,0.1-0.3c0.1-0.1,0.2,0.1,0.3,0c0.1-0.1,0.1-0.2,0.2-0.2c0.2-0.1,0.4-0.1,0.6-0.3c0,0,0.1,0,0.1,0
		c0.3,0,0.5,0,0.7-0.2c0.3-0.2,0.6-0.3,0.9-0.1c0.1,0.1,0.4,0.1,0.4,0c0-0.3,0.4-0.1,0.4-0.3c0.1-0.2,0.4-0.1,0.6-0.2
		c-0.1-0.3,0.1-0.6,0.1-0.9c0-0.1,0-0.1,0.1-0.1c0.1,0,0.2,0,0.2-0.1c0-0.1,0.2-0.1,0-0.2c-0.1,0-0.1-0.3-0.3-0.1
		c-0.1,0.1-0.2-0.1-0.3-0.2c-0.4-0.2-0.7-0.6-1.2-0.5c0,0-0.1,0-0.1,0c0-0.3-0.3-0.2-0.5-0.3c-0.2-0.1-0.4-0.3-0.6-0.3
		c-0.2-0.1-0.4,0-0.4-0.3c0-0.1-0.1-0.1-0.2-0.1c-0.1,0.2-0.2,0-0.3,0c-0.2-0.1-0.3-0.2-0.6,0c-0.1,0.1-0.4,0.1-0.4-0.2
		c0,0-0.1,0-0.1,0c-0.3,0-0.6-0.2-0.9-0.1c-0.1,0-0.3,0-0.3,0c-0.1-0.1,0-0.3-0.2-0.4c0,0,0-0.2,0-0.3
		C32.6,31.3,32.7,31.1,32.6,30.9z M46.5,24.3c0.2,0.3,0.3,0.6,0.3,1c0,0.1,0.1,0.1,0.1,0.2c0.1,0.2,0.1,0.4,0,0.5
		c-0.1,0.2-0.1,0.2,0,0.3c0,0,0.1,0.1,0.1,0.1c0.2,0.1,0.2,0.3,0.1,0.5c-0.1,0.1,0,0.4,0.1,0.5c0,0,0.1,0,0.1,0.1
		c-0.3,0.3,0,0.7,0,1c0,0.2,0.2,0.3,0.2,0.4c0.1,0.2-0.1,0.3-0.1,0.5c0,0.2,0.2,0.1,0.2,0.2c0,0.4,0.1,0.8-0.2,1
		c-0.2,0.1,0,0.2,0,0.3c0,0.2,0.2,0.2,0.3,0.3c0.2,0.2,0.2,0.3,0,0.5c-0.1,0.1-0.3,0.3-0.2,0.4c0.1,0.2,0,0.4,0.1,0.6
		c0.1,0.1,0.1,0.2,0.3,0.2c0.2,0,0.4,0,0.4,0.2c0.1,0,0.2,0.1,0.2,0.1c0.4,0,0.5,0.2,0.8,0.4c0.2,0.1,0.3,0.4,0.6,0.3
		c0.1,0,0.1,0,0.1,0.1c0,0.3,0.3,0.3,0.5,0.2c0.2-0.1,0.4-0.2,0.3-0.5c0-0.2,0-0.3,0.2-0.5c0.1-0.1,0.1-0.2,0-0.2
		c-0.1-0.1-0.1-0.3,0-0.4c0.2-0.2,0.4-0.4,0.3-0.7c0.3-0.2,0.2-0.5,0.2-0.7c0-0.1,0-0.3,0.1-0.3c0.2-0.1,0.3-0.2,0.3-0.4
		c0-0.1,0.2-0.3,0.1-0.4c-0.1-0.2,0.2-0.3,0-0.5c-0.1-0.1,0.1-0.2,0.1-0.4c0-0.2-0.1-0.4,0.2-0.4c0-0.1,0.2-0.2,0-0.4
		c-0.1,0,0-0.2,0.1-0.3c0.2-0.2,0.2-0.3,0.2-0.6c0-0.4-0.2-0.8-0.6-1c-0.2-0.1-0.3-0.2-0.3-0.4c0-0.2-0.1-0.3-0.2-0.3
		c-0.3,0.1-0.4-0.2-0.5-0.3c-0.3-0.3-0.7-0.3-1-0.6c0,0-0.1,0-0.1,0c-0.2-0.1-0.3,0.2-0.4,0.1c-0.1-0.1-0.1-0.2-0.3-0.3
		c0,0-0.1-0.1-0.2-0.1c-0.2,0-0.4-0.1-0.6-0.2c-0.2-0.1-0.5-0.3-0.7,0c-0.1,0.1-0.3,0.1-0.4,0c-0.2-0.2-0.3,0-0.5,0
		C46.9,24.2,46.7,24.2,46.5,24.3z"/>
	<path d="M66.1,55.3c0-0.1,0-0.2,0-0.2c0-0.2-0.3-0.4-0.4-0.6c-0.1-0.2,0.1-0.5-0.1-0.7c-0.1-0.2,0.2-0.3,0.1-0.4
		c-0.1-0.1-0.1-0.3-0.1-0.4c0-0.2-0.1-0.4,0.1-0.6c0.1-0.1,0-0.3-0.1-0.5c-0.2-0.3-0.1-0.3-0.1-0.8c0-0.2,0-0.5-0.2-0.7
		c-0.1-0.2-0.1-0.5-0.2-0.8c0-0.1-0.1-0.3-0.1-0.4c0-0.2-0.2-0.2-0.2-0.3c-0.1-0.1,0.1-0.2,0.1-0.3c-0.2-0.3-0.2-0.5-0.1-0.8
		c0.1-0.2,0-0.4-0.2-0.5c-0.2-0.1-0.2-0.3-0.2-0.5c0.1-0.2,0.1-0.3,0-0.5c0-0.1,0-0.2,0-0.2c0.2-0.1,0.2-0.3,0.3-0.5
		c-0.1-0.1-0.2-0.2-0.3-0.3c0,0-0.1-0.1-0.1-0.1c0.2-0.3,0-0.6,0.1-0.9c0.1-0.4,0.1-0.4,0-0.9c0-0.2,0.1-0.4-0.1-0.6
		c-0.2-0.1-0.2-0.2,0-0.3c0.1-0.1,0.1-0.2,0-0.2c-0.1-0.2-0.1-0.3-0.1-0.5c0-0.3,0.1-0.6-0.1-0.9c0,0,0-0.2,0-0.2
		c0.3-0.2,0-0.3-0.2-0.5c0.1,0,0.1,0,0.2-0.1c0.2-0.2,0.3-0.3,0.1-0.5c-0.2-0.2,0.1-0.4,0-0.6c-0.1-0.2-0.1-0.2,0-0.3
		c0.1-0.1,0.1-0.1,0.2-0.2c0.1-0.1,0.1-0.2,0-0.4c-0.3-0.4-0.3-0.8,0-1.2c0.1-0.2,0.1-0.4,0-0.6c-0.1-0.1-0.1-0.2,0.1-0.3
		c0.1-0.1,0.2-0.2,0.1-0.4c-0.2-0.6-0.2-0.6-0.1-1.1c0,0,0-0.1,0-0.1c-0.1-0.1-0.2-0.1-0.2-0.3c0-0.2,0.3-0.1,0.2-0.3
		c0-0.1,0-0.2,0.1-0.3c0.1-0.1,0.2-0.2,0-0.3c-0.2-0.2-0.2-0.3,0-0.4c0.1,0,0.1-0.1,0.2-0.2c0.1-0.1,0.1-0.2,0-0.2
		c-0.2-0.1-0.1-0.3,0-0.5c0.1-0.2,0.4-0.3,0.2-0.5c0,0,0.1-0.1,0.1-0.1c0.1-0.1,0.1-0.1,0.2-0.2c0.3-0.2-0.1-0.4,0-0.6
		c0.1-0.2,0.3-0.3,0.2-0.5c-0.2-0.4-0.2-0.7,0.1-1.1c0.1-0.1,0-0.2,0.1-0.3c0.1-0.2,0.1-0.2-0.2-0.2c-0.3,0-0.6,0.1-0.9-0.1
		c0,0-0.1,0-0.1,0c-0.3,0.3-0.4,0-0.5-0.2c-0.1-0.3-0.3-0.4-0.5-0.4c-0.2,0-0.2-0.3-0.4-0.3c-0.1,0-0.1-0.1-0.1-0.2
		c0.1-0.2,0.1-0.3-0.1-0.5c-0.3-0.2-0.5-0.7-0.7-1c-0.1-0.2-0.1-0.4-0.4-0.5c-0.1-0.1-0.2-0.4-0.5-0.3c0,0-0.1,0-0.1-0.1
		c-0.1-0.5-0.4-0.8-0.7-1.2c0,0,0,0,0,0c-0.2-0.8-0.2-0.8-0.5-1.3c-0.1-0.1-0.3-0.2-0.1-0.4c-0.2-0.1,0-0.4-0.3-0.5
		c0,0-0.1-0.1-0.1-0.1c0.1-0.2,0.1-0.3-0.1-0.5c-0.2-0.1,0-0.4-0.1-0.6c-0.1-0.2-0.1-0.2,0-0.3c0.1-0.1,0.1-0.1,0.1-0.2
		c0-0.2-0.3-0.3-0.1-0.5c0.2-0.2,0-0.3-0.1-0.5c0-0.1-0.1-0.3,0-0.3c0.3-0.2,0-0.4-0.1-0.5c-0.3-0.3-0.1-0.5,0-0.7
		c0.1-0.2,0.1-0.3,0.2-0.5c0.2-0.2,0.2-0.6,0.5-0.7c0.2-0.3,0.4-0.5,0.5-0.8c0-0.3,0.1-0.4,0.4-0.4c0,0,0.1-0.1,0.1-0.1
		c0-0.4,0.3-0.5,0.5-0.7c0.2-0.2,0.4-0.4,0.5-0.7c0.2,0.1,0.1-0.1,0.2-0.2c0.1-0.1,0.2-0.2,0.3-0.4c0.1-0.1,0.3,0,0.4-0.1
		c0.3,0,0.5-0.2,0.6-0.4c0.2-0.3,0.3-0.5,0.6-0.4c0.1,0,0.1,0,0.1-0.1c0-0.2,0.2-0.2,0.3-0.3c0.2-0.2,0.5-0.2,0.6-0.5
		c0.2-0.2,0.5-0.3,0.7-0.5c0.1-0.1,0.1-0.1,0.2-0.1c0.3,0.1,0.5-0.3,0.8-0.2c0,0,0-0.1,0.1-0.1c0.2-0.4,0.3-0.5,0.7-0.5
		c0.1,0,0.3,0,0.3-0.2c0-0.3,0.2-0.2,0.4-0.2c0.2,0,0.3,0.1,0.4-0.1c0.1-0.3,0.3-0.3,0.5-0.2c0.1,0,0.2,0.1,0.3,0.1
		c0.2-0.1,0.5-0.2,0.7-0.1C71,9,71.3,8.7,71.4,9c0,0,0.1,0,0.2,0c0.3-0.2,0.6,0,0.8,0.1c0.2,0.1,0.3,0.2,0.5,0
		c0.1-0.1,0.3-0.1,0.4,0c0.2,0.2,0.4,0.2,0.6,0.2c0.2,0,0.4,0,0.6,0c0.2-0.1,0.5,0,0.7,0.2c0.3,0.4,0.8,0.3,1.1,0.2
		c0.3-0.1,0.5-0.1,0.7,0.1c0.1,0.2,0.3,0.1,0.5,0.1c0.1,0,0.2,0,0.2,0.2c0.1,0.2,0.2,0.2,0.6,0.2c0.1,0,0.1,0,0.2,0.1
		c0.2,0.2,0.3,0.4,0.6,0.2c0,0,0.1,0,0.1,0.1c0.1,0.1,0.3,0,0.4,0.2c0.1-0.2,0.2,0,0.3,0c0.1,0.1,0.3,0.1,0.4,0.1
		c0.3,0,0.4,0.3,0.7,0.4c0.1,0,0.2,0.2,0.2,0.3c0.1,0.2,0.2,0.3,0.4,0.3c0.1,0,0.2,0,0.2,0c0.1,0.1,0,0.2,0.1,0.3
		c0,0.2,0.1,0.3,0.3,0.3c0.1,0,0.3,0,0.4,0c0.2,0,0.3,0,0.2,0.2c0,0.1,0.1,0.2,0.1,0.2c0.3,0.1,0.3,0.4,0.5,0.5
		c0.1,0.1,0.1,0.2,0.1,0.3c0,0.5,0.4,0.9,0.8,1.1c0.1,0,0.1,0,0.1,0.1c0.2,0.4,0.4,0.5,0.7,0.6c0.1,0,0.1,0,0.1,0.1
		c0,0.3,0.4,0.3,0.5,0.5c-0.3,0.3,0.1,0.4,0.2,0.6c0.1,0.1-0.1,0.1-0.1,0.1c0,0.3-0.1,0.6,0.1,1c0.1,0.1,0,0.3,0,0.4
		c0,0.2,0,0.4,0,0.6c-0.1,0.2,0.3,0.3,0.2,0.5c0.2,0.3,0.2,0.5,0,0.8c0,0,0,0.1,0,0.1c-0.1,0.2,0.2,0.2,0.1,0.4
		c0,0.1-0.2,0.1-0.3,0.2c0,0.1,0,0.1,0,0.2c0,0.2,0,0.4,0,0.5c0,0.2,0,0.3-0.2,0.4c-0.1,0.1-0.2,0.2-0.2,0.4c0,0.1,0,0.2-0.1,0.3
		c-0.1,0.1-0.1,0.2-0.1,0.2c-0.2,0.2,0,0.4-0.1,0.5c-0.1,0.1-0.4,0.2-0.4,0.4c-0.1,0.2-0.1,0.5-0.3,0.7c-0.1,0.1-0.2,0.2-0.3,0.3
		c0,0.1-0.1,0.1-0.1,0.2c0.1,0.4-0.2,0.4-0.4,0.5c-0.1,0.1-0.2,0.2-0.2,0.3c0,0.4,0,0.7-0.4,0.8c-0.2,0.1-0.3,0.3-0.4,0.5
		c-0.2,0.4-0.1,0.4-0.3,0.5c-0.2,0.1-0.2,0.5-0.4,0.5c-0.1,0-0.1,0-0.1,0.1c-0.2,0.6-0.8,0.9-1.2,1.4c-0.1,0.1-0.1,0-0.2,0
		c0,0-0.1,0-0.2,0c0,0-0.1,0.1-0.1,0.1c-0.1,0.1-0.1,0-0.3-0.1c0,0-0.1-0.1-0.2-0.1c-0.2,0-0.3,0-0.4-0.2c-0.1-0.1-0.2-0.1-0.3,0
		c-0.1,0.1-0.1,0-0.1,0c-0.2,0,0-0.2-0.2-0.3c0.1,0.4-0.2,0.7-0.1,1.1l0,1c0,0.1,0.3,0.2,0.1,0.4c-0.1,0.1,0,0.3,0,0.5
		c0,0.3,0,0.6,0,0.9c0,0.3,0,0.6,0.1,0.9c0.1,0.1,0,0.4,0,0.5c0,0.2-0.3,0.3-0.3,0.5c0,0.2,0.2,0.3,0.1,0.5c0,0.1-0.1,0.2-0.2,0.3
		c-0.2,0.2-0.2,0.4,0,0.7c0.1,0.1,0.2,0.2,0.1,0.3c-0.3,0.3,0,0.7-0.2,0.9c0,0,0,0,0,0.1c0.3,0.4-0.1,0.6-0.2,0.8
		c-0.1,0.1-0.3,0.2-0.1,0.4c0.1,0,0,0.1-0.1,0.2c-0.1,0.1-0.1,0.3,0,0.4c0.1,0.2,0.3,0.3,0.1,0.6c0.2,0.2,0.1,0.3-0.1,0.5
		c-0.1,0.1-0.1,0.3,0,0.4c0.1,0.1,0.1,0.2,0.2,0.3c0.1,0.1,0.1,0.2,0,0.3c-0.2,0.2-0.2,0.3,0,0.5c0.2,0.2,0.1,0.6,0,0.8
		c-0.1,0.3-0.1,0.5,0,0.7c0.1,0.2,0.3,0.4,0,0.6c-0.1,0,0,0.2,0,0.3c0,0.2,0,0.4,0.1,0.6c0,0.2-0.2,0.3-0.3,0.5
		c0,0.1-0.2,0.2,0.1,0.3c0.1,0,0,0.3,0.2,0.4c-0.3,0.2,0,0.5,0,0.7c0,0,0,0.1,0,0.1c-0.1,0.5,0,0.6,0.1,0.9c0.1,0.2,0.1,0.6,0,0.8
		c0,0.1,0.1,0.7,0.2,0.9c0.1,0.1,0.1,0.2,0,0.3c-0.1,0.1,0,0.2,0,0.2c0.2,0.1,0.3,0.2,0.3,0.5c0.1,0.6,0.2,1.3,0.2,1.9
		c0,0.2,0.2,0.4,0,0.7c0,0,0,0.2,0,0.2c0.3,0.2,0.2,0.4,0,0.6c-0.2,0.2,0,0.4-0.1,0.5c-0.1,0.1-0.2,0.3-0.2,0.5
		c0,0.2-0.1,0.4-0.3,0.4c-0.1,0-0.1,0.1-0.1,0.1c0.2,0.3,0,0.3-0.2,0.3c-0.2,0-0.3,0.2-0.6,0.1c-0.2,0-0.3,0.1-0.3,0.2
		c0,0.3-0.3,0.4-0.4,0.5c-0.1,0.1-0.2,0.1-0.2,0.2c0,0.1,0.1,0.2-0.1,0.2c-0.1,0-0.3,0.1-0.4-0.1c-0.1-0.1-0.1-0.1-0.2-0.2
		c-0.2-0.1-0.4-0.2-0.6,0c-0.2,0.2-0.5,0.2-0.8,0.1c0.1-0.2,0.4-0.2,0.5-0.5c-0.4,0-0.8,0-1.1-0.1c-0.3-0.1-0.4-0.2-0.3-0.6
		c0-0.2,0-0.5-0.2-0.7C74,55.5,74,55.4,74,55.1c0-0.2,0-0.4,0-0.7c0,0,0-0.1,0-0.1c-0.3-0.2-0.2-0.6-0.3-0.9c-0.1-0.2-0.1-0.2,0-0.3
		c0.1-0.1,0.1-0.3-0.1-0.4c-0.1-0.1-0.1-0.1,0-0.2c0.1-0.1,0.1-0.2,0-0.3c-0.2-0.2-0.4-0.5-0.2-0.8c0.1-0.1-0.1-0.8-0.2-1
		c0-0.1-0.1-0.2-0.2-0.3c-0.1-0.2,0.2-0.4,0.1-0.5c-0.1-0.2-0.2-0.3-0.3-0.5c0-0.4,0-0.8-0.3-1.1c-0.1-0.1,0.2-0.2,0-0.4
		c-0.2-0.1,0-0.2,0.1-0.3c0.1-0.1,0.1-0.2,0-0.3c-0.1-0.1-0.1-0.1-0.2-0.2c0,0-0.1-0.1-0.1-0.1c0,0,0,0,0,0c0-0.1,0.3-0.2,0.1-0.4
		c0,0,0.1-0.1,0.1-0.1c0.1-0.1,0.1-0.2,0-0.3c-0.2-0.2-0.2-0.4,0-0.6c0.1-0.1,0.2-0.2,0.1-0.3c-0.2-0.2,0-0.6-0.2-0.8
		c-0.1-0.1,0-0.3,0.1-0.4c0.1-0.2,0.3-0.5,0-0.7c-0.1-0.1,0.2-0.2,0-0.3c-0.1-0.1,0-0.2,0.1-0.3c0,0,0.1-0.1,0.1-0.1
		c0-0.1,0-0.2,0-0.3c-0.1-0.1-0.1-0.2,0-0.4c0.1-0.1,0.1-0.2,0-0.3c-0.3-0.3-0.2-0.6-0.1-0.9c0-0.1,0.2-0.2,0-0.4c0,0,0-0.1,0-0.2
		c0.1-0.1,0.1-0.3,0.1-0.4c-0.2-0.2,0-0.4,0-0.6c0-0.2,0.2-0.3,0-0.5c0.1-0.2,0.2-0.4-0.1-0.5c0.1-0.1,0-0.3,0.1-0.4
		c0.2-0.2,0-0.3,0-0.4c-0.1-0.2-0.2-0.3-0.4-0.4c-0.1,0-0.3,0-0.4-0.1c-0.5,0.1-0.8-0.1-1.1-0.5c-0.1-0.1-0.2,0-0.2,0.1
		c-0.1,0.1,0,0.1,0,0.2c0.1,0.1,0.1,0.1,0.2,0.2c0.1,0.1,0.1,0.3,0,0.4c-0.2,0.2-0.1,0.5-0.4,0.6c0,0,0,0.1,0,0.1
		c0.3,0.3,0,0.4-0.2,0.6c-0.1,0.1,0,0.1,0,0.2c0,0.3,0.2,0.6,0.2,0.9c0,0.4,0,0.9-0.3,1.2c-0.1,0.1,0,0.1,0,0.1
		c0.2,0.2,0.2,0.3,0.1,0.5c-0.1,0.1-0.1,0.3,0,0.4c0.1,0.1,0.1,0.2,0,0.2c-0.1,0.2-0.1,0.3,0,0.5c0,0-0.1,0.2-0.1,0.2
		c0.2,0.2,0.1,0.4-0.1,0.5c-0.3,0.3-0.3,0.7-0.2,1.1c0.1,0.2,0.1,0.3,0,0.4c0,0.1-0.3,0-0.2,0.2c0,0.1,0.1,0.1,0.1,0.2
		c0,0.1-0.2,0.3,0,0.5c0.1,0.1,0,0.3,0,0.5c0,0.1,0,0.3,0.1,0.4c0.2,0.1,0.1,0.3,0,0.4c-0.1,0.1-0.2,0.2-0.1,0.3
		c0.3,0.4,0.2,0.8,0.4,1.2c0.1,0.2,0.2,0.3,0,0.5c0,0-0.1,0.2,0.1,0.3c0.3,0.2,0.1,0.5,0,0.7c-0.1,0.2-0.2,0.2,0.1,0.3
		c0.1,0,0.1,0.1,0.1,0.2c-0.1,0.3,0,0.5,0,0.8c0,0.2,0,0.3,0,0.5c0,0.1,0,0.2,0,0.2c0.4,0.1,0.2,0.3,0.2,0.5c0,0.2,0,0.5,0.2,0.6
		c0.1,0.1,0.1,0.3,0.2,0.4c0.1,0.1,0.1,0.2,0,0.3c0,0,0,0,0,0c-0.1,0.2,0.2,0.3,0.1,0.5c-0.1,0.2-0.2,0.3,0,0.5c0.1,0.1,0,0.1,0,0.2
		c-0.2,0.2-0.3,0.5-0.4,0.8c-0.1,0.2-0.3,0.3-0.7,0.4c0,0-0.1,0-0.1,0c-0.2,0.3-0.4,0.2-0.7,0.2c-0.1,0-0.2,0.1-0.3,0.1
		c-0.3,0-0.6-0.1-0.9-0.2c-0.2-0.1-0.4-0.2-0.7-0.1c-0.2,0.1-0.6,0-0.7-0.3c-0.1-0.3-0.3-0.3-0.6-0.3C66.3,55.3,66.2,55.3,66.1,55.3
		z M67.6,15.5c-0.2,0.1-0.2,0.4-0.5,0.3c-0.2,0-0.3,0.1-0.4,0.3c0,0.1-0.1,0.3-0.4,0.3c-0.2,0-0.4,0.2-0.5,0.4
		c-0.1,0.3-0.4,0.5-0.7,0.7c-0.2,0.1-0.5,0.6-0.5,0.9c0,0.3,0.2,0.6-0.1,0.8c0,0-0.1,0.3,0.1,0.4c0.1,0,0.1,0.1,0,0.2
		c-0.3,0.3,0.1,0.4,0.1,0.7c0.2,0.3,0.5,0.7,0.7,1c0.2,0.4,0.6,0.7,0.7,1.1c0.2,0,0.3,0.2,0.2,0.4c0,0.1,0.1,0.1,0.2,0.2
		c0.2,0.2,0.5,0.3,0.4,0.6c0,0.1,0.1,0.1,0.1,0.2c0,0.1,0.1,0.1,0.1,0.1c0.1,0,0.1-0.1,0.1-0.1c0-0.2-0.1-0.2-0.1-0.4
		c0-0.2,0.1-0.3,0.1-0.4c0-0.6,0.2-1.2,0.4-1.7c0-0.1,0.1-0.1,0-0.2c-0.2-0.4-0.1-0.7,0-1c0-0.2,0.1-0.4,0-0.6c-0.1-0.2,0-0.4,0-0.6
		c0.1-0.3,0.1-0.8,0-1c0,0,0-0.1,0-0.2c0.2-0.1-0.2-0.3,0-0.4c0.2-0.2-0.1-0.2-0.1-0.4c0-0.2,0.2-0.3,0.1-0.5
		C67.8,16.1,67.7,15.8,67.6,15.5z M78.9,23.4c0.1-0.5,0.4-0.9,0.9-1.4c0.2-0.2,0.5-0.4,0.5-0.7c-0.1-0.4,0.3-0.5,0.4-0.8
		c0-0.1,0-0.2,0-0.2c0-0.1,0-0.2,0-0.3c0-0.3,0-0.7-0.1-1c0-0.2-0.1-0.3,0-0.5c0.1-0.1,0.2-0.3-0.1-0.3c-0.1-0.2-0.3-0.3-0.3-0.6
		c0-0.2-0.3-0.3-0.4-0.4c-0.1-0.1-0.1-0.4-0.2-0.5c0,0-0.1,0-0.2,0c-0.2-0.1-0.6-0.1-0.5-0.5c0,0-0.1,0-0.1-0.1
		c-0.2-0.2-0.5-0.1-0.7-0.1c-0.1,0.2,0,0.2,0.1,0.3c0.2,0.2,0.1,0.5,0.1,0.7c0,0.2,0.3,0.4,0.2,0.7c0,0.1,0,0.2,0.1,0.3
		c0.1,0.3,0.1,0.6,0,0.9c0,0.1-0.1,0.2,0,0.3c0.1,0.2,0.3,0.3,0.1,0.6c-0.2,0.3,0.3,0.3,0.2,0.5c0,0.1,0,0.1,0,0.2
		c-0.1,0.1-0.1,0.3-0.2,0.3c-0.1,0.1-0.2,0.2,0,0.3c0.2,0.1,0.2,0.3,0,0.4c-0.1,0.1-0.2,0.2,0,0.2c0.2,0.1-0.1,0.3,0,0.4
		c0.2,0.2,0,0.3-0.1,0.4c-0.1,0.1-0.1,0.1,0,0.2C78.6,22.8,78.6,23.2,78.9,23.4z"/>
	<path d="M66.7,9.4c-0.2,0.2-0.3,0.3-0.5,0.5c-0.1,0.1-0.2,0.1-0.2,0c-0.2-0.3-0.4-0.1-0.5,0c-0.2,0.2-0.4,0.1-0.7,0.2
		c-0.1-0.3-0.4-0.2-0.6-0.3c-0.2-0.3-0.5-0.3-0.8-0.5C63.3,9.2,63.1,9.1,63,9c0-0.1-0.2-0.1-0.1-0.2c0.1-0.3-0.1-0.5-0.2-0.8
		c0-0.1-0.2-0.2-0.2-0.3c-0.1-0.2-0.2-0.4-0.2-0.7c0-0.1,0-0.3,0-0.3C62,6.5,62,6.2,62,6c0-0.3-0.2-0.5-0.1-0.7
		c0-0.2,0.1-0.3-0.1-0.5c-0.1-0.1-0.1-0.3,0-0.4C62,4.1,62,3.9,61.8,3.8c-0.2-0.2-0.1-0.4,0-0.6c0.1-0.1,0.1-0.3,0-0.4
		c-0.2-0.3-0.2-0.4,0.1-0.5c0.2-0.1,0.2-0.3,0.3-0.5c0.1-0.2,0.4-0.3,0.4-0.4c0-0.3,0.3-0.2,0.4-0.3c0.1-0.1,0.3-0.1,0.4-0.2
		c0.2-0.4,0.6-0.6,1.1-0.6c0.2,0,0.5,0,0.6-0.2c0-0.1,0.2-0.1,0.2,0.1c0,0.2,0.2,0.3,0.3,0.4c0.3-0.2,0.5,0.3,0.8,0.1
		c0.1,0,0.1,0.1,0.1,0.2c0,0.2,0.1,0.2,0.2,0.3C66.7,1,66.8,1,66.8,0.9c0-0.2,0.1-0.2,0.2-0.1c0.1,0.1,0.2,0.1,0.3,0.1
		c0.2,0.1,0.3,0.2,0.5,0.4c0.2,0.2,0.1,0.4,0,0.6c-0.1,0.1,0,0.1,0,0.2C68,2.2,68,2.3,68,2.5c0,0.3-0.1,0.6,0.2,0.9
		c-0.1,0.3,0.1,0.6,0.1,0.9c0,0.2-0.1,0.4-0.2,0.7c0,0.2-0.1,0.2,0,0.3c0,0,0.1,0.1,0.1,0.1c0.2,0.2-0.1,0.3-0.1,0.5
		c0,0.2,0.3,0.3,0.2,0.5c0,0,0,0.1,0,0.1c-0.2,0.2-0.4,0.4-0.4,0.7c0,0.1,0,0.2-0.1,0.2c-0.2,0.2-0.4,0.4-0.3,0.7
		c0,0.2-0.2,0.1-0.2,0.2c-0.1,0.3-0.4,0.6-0.1,1c0,0,0,0.1,0,0.1c0,0.1-0.1,0.2-0.2,0.2C66.9,9.6,66.9,9.4,66.7,9.4z"/>
	<path d="M30.6,17.3c-0.2-0.3-0.6-0.4-0.8-0.7c-0.1-0.1-0.2-0.2-0.4-0.1c-0.1,0-0.1,0-0.2,0c-0.1,0-0.1,0-0.2,0
		c-0.1-0.3-0.5-0.3-0.7-0.5c0,0,0-0.1,0-0.2c0-0.1,0-0.2-0.1-0.3c-0.1-0.1-0.5-0.1-0.3-0.3c0.1-0.2-0.1-0.3-0.1-0.4
		c-0.1-0.2-0.1-0.4-0.1-0.6c0-0.3-0.2-0.5-0.1-0.7c0-0.2,0-0.5,0-0.7c0-0.2-0.2-0.2-0.1-0.4c0-0.1,0.2-0.2,0.1-0.4
		c-0.1-0.3,0.1-0.6-0.1-0.9c-0.1-0.1-0.1-0.3,0.1-0.4c0.2-0.1,0.3-0.3,0.1-0.5c-0.1-0.1,0-0.1,0.1-0.1c0-0.1,0.2-0.1,0.1-0.3
		c-0.1-0.1-0.1-0.2,0.1-0.3c0.2-0.1,0.4-0.3,0.5-0.6c0-0.1,0.1-0.3,0.3-0.3c0,0,0.1,0,0.1,0c0.1-0.5,0.5-0.4,0.8-0.5
		c0.3-0.1,0.6-0.1,0.9,0c0.1,0,0.3,0,0.4-0.1C31.2,8,31.5,8,31.7,8.2c0.1,0.2,0.3,0.2,0.5,0.2c0.1,0,0.2,0,0.2,0.1
		c-0.1,0.4,0.3,0.3,0.5,0.3c0,0,0.1,0,0.1,0c0.1,0.1-0.1,0.4,0.1,0.4c0.3,0,0.1,0.3,0.2,0.4c0.1,0.1,0.2,0.2,0.4,0.3
		c0.3,0.1,0.4,0.4,0.3,0.6c-0.1,0.2-0.1,0.3,0,0.5c0.1,0.2,0,0.3,0.2,0.5c0.2,0.1,0.1,0.4,0.3,0.5c0.1,0,0,0.1-0.1,0.1
		c-0.1,0.1-0.1,0.2-0.2,0.3c-0.1,0.1-0.1,0.2,0,0.2c0.1,0.2,0.2,0.3,0.2,0.4c0,0.1-0.2,0.2-0.3,0.3c0,0.1,0.1,0.2,0.1,0.3
		c0.1,0.5,0.1,0.5-0.2,0.7c-0.2,0.1-0.3,0.2-0.2,0.4c0,0.1,0,0.4,0,0.4c-0.3,0-0.3,0.4-0.5,0.4c-0.2,0.1-0.5,0.1-0.4,0.5
		c0,0.1-0.1,0.1-0.2,0.1c-0.2,0-0.3,0-0.3,0.2c0,0.1-0.2,0.2-0.2,0.3c-0.2,0.2-0.3,0.2-0.5,0c-0.1,0-0.1-0.1-0.2-0.1
		c-0.1,0-0.2,0-0.2,0c0,0.1,0.1,0,0.2,0.1c0.1,0.1,0.1,0.2,0,0.2c-0.1,0-0.2,0-0.3,0.1C30.8,17.2,30.7,17.2,30.6,17.3z"/>
	<path d="M42,58.3c-0.1,0.4-0.1,0.4-0.3,0.4c-0.3,0-0.5-0.2-0.7-0.1c0-0.2-0.2-0.2-0.4-0.3c-0.1,0,0-0.1,0-0.2c0-0.1,0-0.1,0.1-0.2
		c0.1-0.4,0-0.8-0.4-0.9c-0.2,0-0.3,0-0.2-0.2c0-0.2-0.1-0.2-0.1-0.4c0-0.1,0.2-0.2,0-0.3c-0.1,0-0.1-0.3,0-0.4
		c0.1-0.2,0.1-0.2-0.1-0.3c-0.2,0-0.2-0.2-0.1-0.3c0-0.1,0.1-0.1,0.1-0.2c0.1-0.1,0.2-0.3,0.1-0.4c-0.1-0.1-0.1-0.2-0.1-0.3
		c0-0.1,0-0.1,0.1-0.2c0.3-0.1,0.5-0.3,0.5-0.6c0-0.1,0.1-0.2,0.1-0.3c0-0.2,0.2-0.1,0.2-0.1c0.2,0.2,0.6,0.2,0.8,0.3
		c0.1-0.2,0-0.5,0.1-0.7c0.3,0.2,0.6,0,0.9,0.4c0,0,0.2,0,0.2-0.1c0-0.1,0-0.2,0.1-0.2l0.5-0.1c0.2,0.1,0.5,0.1,0.7,0
		c0.1-0.1,0.2-0.1,0.2,0.1c0,0.1,0.1,0.1,0.2,0.1c0.2,0,0.3,0.1,0.5,0.2c0.1,0.1,0.2,0.1,0.1,0.2c-0.1,0.1-0.1,0.3,0,0.4
		c0.1,0.2,0.3,0.3,0.1,0.5c0.1,0.2,0.1,0.4,0.3,0.5c0.1,0.1,0.3,0.2,0.1,0.5c-0.1,0.1-0.1,0.3,0,0.4c0.1,0.1,0.1,0.1,0,0.2
		c0,0.1,0,0.5,0.1,0.7c0.2,0.4,0.2,0.7-0.1,0.9c-0.3,0.1-0.5,0.4-0.8,0.4c-0.1,0-0.4,0-0.4,0.3c0,0.1-0.1,0.2-0.3,0.2
		c-0.2,0-0.4,0-0.6,0.2c-0.2-0.1-0.4-0.1-0.5,0.1c-0.1-0.3-0.3,0-0.4,0C42.2,58.6,42.2,58.4,42,58.3z"/>
</g>
</svg>
