<?xml version="1.0" encoding="utf-8"?>
<!-- Generator: Adobe Illustrator 27.7.0, SVG Export Plug-In . SVG Version: 6.00 Build 0)  -->
<svg version="1.1" id="Ebene_1" xmlns="http://www.w3.org/2000/svg" xmlns:xlink="http://www.w3.org/1999/xlink" x="0px" y="0px"
	 viewBox="0 0 168.2 101.7" style="enable-background:new 0 0 168.2 101.7;" xml:space="preserve">
<g>
	<path d="M123,38.4c0.1-0.1,0.1-0.1,0.1-0.2c0-0.1,0-0.3,0.2-0.3c0,0,0.1,0,0.1,0c0.1,0,0.1-0.2,0.3-0.2c0.2,0.1,0.4,0.1,0.5,0.3
		c0.1,0.3,0.2,0.2,0.4,0.1c0.1-0.1,0.2-0.1,0.2-0.2c0-0.2,0.1-0.3,0.2-0.2c0.2,0.1,0.4,0,0.5,0.2c0,0.2,0.2,0.3,0.3,0.4
		c0,0.1,0.1,0.1,0.2,0c0.1,0,0.1-0.1,0.1-0.1c0-0.1,0-0.2,0-0.2c0-0.2,0.2-0.2,0.3-0.1c0.2,0.1,0.2,0.1,0.7,0.1
		c0,0.3-0.1,0.5,0.3,0.6c0.1,0,0.3,0.2,0.1,0.3c-0.1,0.1,0,0.2-0.1,0.3c0,0.1,0,0.2,0,0.2c-0.2,0.4-0.2,0.4,0.1,0.6
		c0.3,0.2,0.3,0.5,0.3,0.8c0,0.3,0.1,0.6-0.1,0.9c-0.1,0.1,0.1,0.2,0.1,0.3c0.1,0.2,0.2,0.5,0.1,0.8c-0.1,0.1,0.2,0.2,0,0.4
		c-0.1,0.1,0.1,0.2,0.2,0.2c0.1,0,0,0.1,0,0.2c0,0,0,0.1,0,0.2c0.3,0.2,0.1,0.3,0,0.5c0,0,0,0.2,0.1,0.2c0.1,0,0.3,0,0.3,0
		c0.1-0.4,0.6-0.1,0.7-0.4c0,0,0.1-0.1,0.1-0.1c0.3,0.1,0.3-0.1,0.5-0.3c0.1-0.1,0.2-0.2,0.3-0.2c0.2,0,0.3-0.1,0.5-0.1
		c0.2-0.1,0.5,0,0.6-0.2c0.1-0.2-0.2-0.4-0.3-0.6c-0.2-0.1-0.2-0.3-0.1-0.5c0.1-0.3,0-0.5-0.2-0.7c-0.1-0.1-0.1-0.2-0.1-0.3
		c-0.1-0.1,0.2-0.3,0-0.4c-0.1-0.1-0.1-0.3-0.2-0.3c-0.1-0.1-0.2-0.2-0.2-0.4c0-0.1,0-0.2-0.1-0.3c-0.3-0.3-0.4-0.7-0.2-1.1
		c0.1-0.2,0.2-0.4,0-0.6c0,0,0-0.2,0-0.2c0.1,0,0.1,0,0.2,0.1c0.1,0.1,0.1,0.1,0.2,0.2c0-0.2,0.3-0.3,0.1-0.4
		c0.1-0.1,0.2-0.2,0.2-0.4c0.1-0.2,0.1-0.2,0.3-0.1c0.1,0.1,0.1,0.1,0.1,0.2c0-0.1,0.1-0.1,0.1-0.1c0-0.2,0.1-0.3,0.3-0.2
		c0.1,0,0.3,0.1,0.3,0c0.1-0.2,0.2-0.2,0.3-0.2c0.1,0,0.1,0,0.2,0c0.1-0.3,0.3-0.2,0.5-0.1c0.2,0.1,0.5,0.2,0.6,0.1
		c0.2-0.1,0.4,0.1,0.6,0c0.2,0,0.2,0,0.2,0.2c0,0.2,0.1,0.4,0.3,0.4c0.1,0,0.2,0.1,0.2,0.3c-0.1,0.4,0.1,0.6,0.4,0.9
		c0.1,0.1,0.2,0.1,0.1,0.2c-0.3,0.3,0,0.4,0.1,0.5c0.1,0.1,0.2,0.2,0,0.3c-0.1,0.1,0,0.1,0,0.2c0.1,0.2,0.2,0.5,0.2,0.8
		c0,0,0,0,0,0.1c0.3,0.3,0.1,0.8,0.5,1.1c0,0.3,0.3,0.3,0.4,0.4c0.2,0.1,0.4,0.1,0.7,0.2c0,0,0,0,0,0.1c-0.3,0.3-0.3,0.3,0.1,0.5
		c0.1,0,0.2,0,0.2,0c0.2,0.1,0.2,0.2,0.1,0.4c-0.1,0.2,0,0.3,0.1,0.4c0.1,0.1-0.3,0.2,0,0.3c0.2,0,0.1-0.2,0.1-0.3
		c0-0.1,0.2-0.1,0.3-0.1c0.2,0.1,0.5,0.2,0.6,0.4c0.1,0.2,0.2,0.3,0.3,0.4c0.3,0.1,0.3,0.4,0.5,0.5c0,0,0,0.1,0,0.1
		c-0.4,0.4,0.3,0.7,0.2,1c0,0,0.1,0.1,0.1,0.2c0,0.2-0.1,0.4-0.1,0.5c0.1,0.2,0.1,0.4,0.2,0.5c0.1,0.1,0.1,0.2,0,0.3
		c0,0-0.1,0.1,0,0.1c0.4,0.2,0.3,0.6,0.3,0.9c0.2,0,0.2-0.1,0.3-0.2c0-0.1,0.1-0.2,0.3-0.2c0.2,0,0-0.2,0.1-0.3
		c0.1-0.1,0.2-0.2,0.3-0.3c0.1-0.2,0.2-0.4,0.2-0.7c0.3,0,0.3-0.3,0.5-0.5c0-0.1,0.1-0.1,0.1-0.2c0.1-0.2,0.2-0.3,0.4-0.6
		c0.3-0.4,0.8-0.3,1.1-0.5c0.1-0.1,0.2,0.1,0.4,0.1c0.2-0.1,0.2,0.1,0.3,0.2c0.1,0.2,0.3,0.3,0.5,0.3c0.2,0,0.3,0.1,0.4,0.2
		c0.3,0.3,0.3,0.3,0.9,0.4c0.2,0,0.2,0.1,0.2,0.2c0,0.2,0,0.4,0.2,0.4c0.2,0,0.2,0.2,0.2,0.3c0.1,0.1,0.1,0.3,0.2,0.4
		c0.2,0.2,0.1,0.4-0.1,0.6c-0.2,0.2-0.2,0.2-0.2,0.5c0,0.1,0,0.2-0.1,0.3c-0.2,0.1-0.3,0.3-0.3,0.5c0,0.1,0,0.2-0.2,0.2
		c-0.1,0-0.2,0.1-0.2,0.2c0.1,0.3-0.4,0.4-0.3,0.7c0,0.1-0.1,0.1-0.1,0.2c-0.1,0.1-0.3,0-0.2,0.2c0.1,0.2,0.4,0.3,0.5,0.3
		c0.1,0,0.1-0.1,0.2-0.1c0.2,0,0.4,0,0.5,0.2c0.1,0.2,0.1,0.3,0.3,0.4c0.1,0,0.1,0.2,0.2,0.1c0.3-0.1,0.6,0.2,0.9,0.2
		c0.2,0,0.4,0.1,0.4,0.3c0.1,0.2,0.2,0.3,0.4,0.2c0.2,0,0.3,0.3,0.5,0.3c0.2,0,0.3-0.1,0.5-0.1c0.2,0.1,0.5,0,0.6,0.3
		c0.1,0.1,0.2,0.1,0.4,0.1c0.3,0,0.7-0.1,0.9,0.3c0,0.1,0.1,0.1,0.2,0c0.1-0.1,0.3-0.2,0.5-0.2c0.1,0,0.2-0.2,0.3-0.1
		c0.1,0,0.2,0.1,0.3,0.2c0.4,0.3,0.6,0.3,1.1,0c0.2-0.2,0.3-0.2,0.4,0.1c0.1,0.2,0.1,0.2,0.3,0.1c0.1-0.1,0.3-0.2,0.4-0.1
		c0,0,0.1,0,0.2,0c0.1-0.1,0.4-0.2,0.4-0.2c0.2,0.1,0.3,0.1,0.5,0.1c0.2,0,0.4,0.1,0.6-0.1c0.2,0.1,0.4,0,0.5,0.2
		c0,0.1,0.1-0.1,0.1-0.1c0.3-0.1,0.7-0.1,1-0.2c0.2-0.1,0.4-0.1,0.6,0.1c0,0,0.8-0.1,0.9-0.2c0.1-0.2,0.3-0.2,0.4,0
		c0.3,0.3,0.6,0.2,1,0.1c0.1,0,0.2,0,0.3,0c0.2,0,0.5,0.2,0.7,0.2c0.2,0,0.4,0.2,0.4,0.3c0.1,0.3,0.3,0.4,0.6,0.4
		c0.2,0,0.4,0.1,0.5,0.3c0.1,0.2,0.2,0.2,0.3,0.2c0.3,0,0.5-0.1,0.7,0.2c0,0,0.1,0,0.1,0c0.5,0,0.9,0.3,1,0.7
		c0.1,0.3,0.3,0.4,0.6,0.6c0.1,0.1,0.2,0.1,0.2,0.2c0,0.2,0,0.3,0,0.5c0.1,0.3,0.1,0.6,0.5,0.7c0.1,0,0.3,0.2,0.1,0.4
		c-0.1,0.1,0,0.2,0.1,0.3c0.2,0.2,0.2,0.3,0.1,0.5c-0.1,0.2-0.2,0.5,0.1,0.7c0.1,0.1,0.1,0.2,0,0.3c-0.1,0.1,0,0.1,0,0.1
		c0.1,0.1,0.2,0.3,0.3,0.3c0.2,0.2-0.2,0.3,0.1,0.5c0.1,0.1,0.1,0.3,0.2,0.5c-0.3,0.3,0,0.5,0,0.8c0,0.3,0,0.6,0,0.8
		c0,0.4,0.1,0.4-0.1,0.6c-0.1,0.1-0.2,0.3-0.1,0.4c0.1,0.2,0,0.4,0.1,0.5c0.1,0.2,0.1,0.3,0,0.4c-0.1,0.1-0.1,0.2,0,0.3
		c0,0.1-0.1,0.3-0.1,0.4c0,0.1-0.1,0.1,0,0.2c0.1,0.1,0.2,0.1,0.1,0.2c-0.2,0.2,0,0.4-0.2,0.5c-0.3,0.2-0.2,0.5-0.1,0.8
		c0,0.1,0,0.6-0.1,0.7c-0.3,0.3-0.5,0.6-0.3,1c0.1,0.2,0,0.5-0.2,0.7c-0.1,0.1-0.1,0.2-0.1,0.4c0.1,0.3,0.1,0.4-0.2,0.6
		c-0.1,0.1-0.2,0.1-0.1,0.3c0,0,0,0.2-0.1,0.3c-0.1,0.1-0.3,0.3-0.4,0.4c-0.1,0.1-0.3,0.3-0.1,0.5c-0.1,0.2-0.2,0.3-0.2,0.5
		c0,0.1,0,0.2-0.2,0.2c-0.1,0-0.2,0.2-0.2,0.3c0.1,0.4-0.2,0.5-0.4,0.6c-0.1,0.1-0.3,0.1-0.3,0.4c0,0.2,0.1,0.3,0.3,0.3
		c0.2,0,0.4,0.2,0.5,0.3c0.1,0.2,0.1,0.2,0.3,0.1c0,0,0,0,0.1,0c0.2,0.1,0.2,0.5,0.5,0.2c0,0,0.1,0.1,0.1,0.1
		c0.1,0.1,0.2,0.2,0.3,0.3c0.2,0.2,0.3,0.4,0.6,0.1c0.1-0.1,0.3,0.1,0.3,0.1c0,0.2,0.1,0.3,0.1,0.5c0,0.1,0.1,0.3,0.2,0.3
		c0.2,0,0.2,0.2,0.2,0.3c0,0.1,0.2,0.2,0.1,0.3c-0.1,0-0.2,0-0.3,0c0,0.1,0,0.1,0.1,0.1c0.1,0.1,0.2,0.2,0.4,0.3
		c-0.1,0.3,0.2,0.5,0.1,0.8c-0.1,0.3,0.1,0.5,0.2,0.8c0,0.1,0.1,0.3,0.1,0.4c0.1,0.2-0.2,0.4-0.1,0.5c0.1,0.2,0.1,0.3,0,0.5
		c0.2,0.2,0,0.3,0,0.4c-0.1,0.2,0,0.3,0.1,0.5c0.1,0.1,0,0.2,0,0.3c-0.2,0.2-0.2,0.4,0.1,0.6c0.1,0,0.1,0.1,0.1,0.2c0,0.3,0,0.7,0,1
		c0,0.1-0.1,0.1,0,0.2c0.1,0.1,0.3,0.2,0.3,0.4c0,0.2,0,0.5-0.1,0.7c-0.1,0.2-0.3,0.4-0.2,0.6c0.1,0.2-0.1,0.3,0,0.4
		c0,0.2-0.1,0.3-0.2,0.3c-0.2,0.1-0.3,0.2-0.4,0.4c-0.1,0.2-0.2,0.5-0.6,0.3c-0.1,0-0.1,0-0.1,0.1c0,0-0.1,0.1-0.1,0
		c-0.1-0.1-0.3-0.2-0.4-0.2c-0.2,0-0.2,0.3-0.4,0.3c-0.2,0-0.4,0.1-0.6,0.2c-0.1,0-0.3-0.1-0.4,0c-0.1,0.1-0.2,0.1-0.3,0
		c-0.1-0.1-0.2,0-0.2,0.1c0,0.1,0,0.2-0.1,0.1c-0.1-0.1-0.1-0.1-0.2-0.2c-0.2,0-0.4,0.1-0.5-0.1c0-0.1,0.1-0.3,0.1-0.5
		c0-0.1,0-0.2,0-0.2c-0.3-0.1-0.1-0.5-0.4-0.7c-0.1,0-0.1-0.2,0-0.4c0.1-0.2-0.1-0.5,0.1-0.7c0.1-0.1-0.1-0.1-0.1-0.1
		c0-0.2-0.2-0.3,0-0.6c0.1-0.1,0-0.2-0.1-0.3c0,0-0.1,0-0.1,0c-0.1,0.3-0.5,0.4-0.5,0.7c0,0.3-0.1,0.6,0.2,0.9
		c0.1,0.1,0.1,0.2,0,0.3c-0.1,0.1-0.2,0.1-0.2,0.2c0,0.2,0,0.4,0,0.6c0,0.2-0.2,0.4,0,0.6c0.1,0.1-0.1,0.4,0.1,0.5
		c-0.2,0.3,0.1,0.6,0,1c0,0.2-0.2,0.4,0.1,0.6c0,0,0,0.2,0,0.3c-0.1,0.2-0.1,0.3,0,0.5c0.1,0.2,0,0.5,0.2,0.7c0.1,0.1,0,0.2-0.1,0.3
		c-0.2,0.2-0.2,0.2-0.4,0.6c0,0-0.1,0.2-0.2,0.1c-0.3-0.1-0.4,0-0.5,0.3c-0.1,0.2-0.3,0.2-0.4,0.4c0,0.1-0.1,0-0.2-0.1
		c-0.1-0.1-0.2,0-0.3,0.1c-0.1,0.1-0.2,0.2-0.2,0.1c-0.2-0.2-0.3-0.1-0.5,0c-0.1,0.1-0.2,0-0.3,0c-0.2-0.1-0.4-0.2-0.6-0.2
		c-0.2,0-0.2-0.3-0.5-0.2c-0.3-0.3-0.6-0.3-0.9-0.6c-0.1-0.1-0.4-0.2-0.2-0.5c-0.1-0.2-0.2-0.4-0.4-0.6c-0.1-0.1-0.1-0.2,0-0.3
		c0.1-0.1,0.3-0.2,0.1-0.4c-0.1-0.1-0.1-0.2,0-0.3c0-0.1,0.1-0.1,0.1-0.2c0-0.2-0.1-0.4,0-0.6c0.1-0.1,0.1-0.4-0.1-0.5
		c0-0.3,0-0.7-0.3-0.9c-0.1-0.1,0-0.2,0.1-0.2c0.1-0.2,0.2-0.4-0.1-0.6c-0.1-0.1-0.1-0.3,0-0.4c0.2-0.2,0.3-0.4,0-0.6
		c-0.2-0.1-0.1-0.3,0-0.5c0-0.1,0.1-0.2,0-0.3c-0.1,0-0.2-0.1-0.3,0.1c-0.1,0.1-0.2,0.3-0.3,0.4c-0.1,0.1-0.2,0.1-0.3,0.2
		c-0.2,0-0.3-0.2-0.4-0.1c-0.2,0.1-0.3,0.2-0.4,0c0,0-0.1,0-0.2,0c-0.3,0.2-0.4,0-0.6-0.1c-0.1-0.1-0.2-0.1-0.4-0.1
		c-0.1,0.1-0.2,0-0.3,0.1c-0.2,0.1-0.4,0.1-0.5,0.2c-0.1,0.2,0.1,0.3,0.2,0.4c0.1,0.2,0.1,0.5,0.2,0.7c0,0.2-0.1,0.4-0.3,0.6
		c-0.1,0.1-0.1,0.2,0,0.2c0.2,0.1,0,0.3,0.2,0.4c0.1,0,0.1,0.1,0,0.2c-0.2,0.2-0.1,0.4,0,0.6c0.2,0.3,0.2,0.6,0,1
		c-0.2,0.2-0.3,0.5-0.3,0.9c0,0.4-0.4,0.5-0.7,0.3c-0.2-0.1-0.2-0.1-0.3,0c-0.1,0.1-0.3,0.1-0.4,0.3c0,0.1-0.1,0.1-0.1,0.1
		c-0.2,0.1-0.3-0.2-0.4-0.1c-0.1,0.1-0.1,0.2-0.3,0.2c-0.1,0-0.3,0.1-0.4,0.2c-0.1,0-0.2,0.1-0.2,0c-0.2-0.3-0.6-0.3-0.9-0.4
		c-0.2-0.1-0.3-0.2-0.2-0.4c0.1-0.2,0-0.3-0.1-0.3c-0.2-0.1-0.3-0.3-0.3-0.5c0,0,0-0.1,0-0.1c0-0.3-0.3-0.4-0.2-0.7
		c0.1-0.2,0.1-0.5,0.1-0.7c0-0.2-0.3-0.3-0.1-0.4c0.1-0.1-0.1-0.2,0.1-0.4c0.1-0.1-0.2-0.2,0-0.4c0.1-0.1,0.1-0.2,0-0.4
		c0,0-0.1-0.1,0-0.1c0.3-0.1,0.2-0.3,0.1-0.5c0,0,0-0.1,0-0.2c0.2-0.3,0-0.6-0.1-0.9c0-0.1-0.1-0.2,0-0.4c0.2-0.3,0.4-0.5,0.2-0.9
		c0,0,0-0.1,0-0.1c0.2-0.4,0.1-0.8,0.1-1.2c0-0.2,0.1-0.3,0.2-0.5c0.1-0.1,0-0.2,0-0.3c0-0.1,0-0.4,0-0.5c0-0.1,0.2-0.2,0-0.4
		c-0.2-0.1-0.2-0.2,0.1-0.3c0.1,0,0.1-0.1,0.1-0.2c0.1-0.2,0.2-0.3,0.2-0.5c0.1-0.3,0.2-0.3,0.5-0.3c0.2,0,0.5,0,0.7-0.2
		c0.1,0,0.1-0.1,0.2-0.1c0.1,0.1,0.2,0.3,0.4,0.2c0.1-0.1,0.2-0.1,0.3,0c0.1,0.1,0.1,0,0.2,0c0.1-0.1,0.2-0.3,0.3-0.2
		c0.1,0.1,0.2,0.1,0.3,0.2c0.1,0.2,0.3,0.4,0.6,0.2c0.2-0.1,0.4-0.1,0.6-0.3c0.1,0.1,0.2,0.2,0.3,0.3c0.1,0.1,0.1,0.1,0.2,0.1
		c0.3-0.2,0.7,0.2,1-0.1c0.1-0.1,0.2,0,0.4,0c0.7,0.1,0.7,0.2,1.1-0.2c0.3-0.2,0.3-0.2,0.5,0c0.2,0.2,0.2,0.2,0.5,0
		c0.1-0.1,0.2,0,0.3,0c0.2,0.1,0.3,0.2,0.5,0.3c0.2,0.1,0.4,0.2,0.6,0c0.4-0.2,0.7,0.1,1.1,0c0.2,0.3,0.4,0,0.5-0.1
		c0.3-0.2,0.4-0.5,0.8-0.5c0.1,0,0.1-0.2,0-0.2c-0.3-0.2-0.6-0.6-1-0.5c-0.2,0-0.4-0.1-0.5-0.2c-0.2-0.2-0.3-0.2-0.5-0.2
		c-0.4,0-0.8-0.2-1.3-0.1c-0.2,0-0.4-0.3-0.6-0.2c-0.2,0.1-0.3,0.2-0.5,0.3c-0.1,0.1-0.3,0.1-0.4,0c-0.1-0.1-0.3-0.1-0.5,0
		c-0.3,0.1-0.5,0.1-0.8,0.1c-0.2,0-0.4,0.2-0.6-0.1c0,0-0.1,0-0.1,0c-0.3,0.3-0.8,0-1.1,0.2c-0.1,0.1-0.4,0.2-0.6,0
		c-0.1-0.1-0.2,0.1-0.4,0.1c-0.1,0-0.2,0-0.3,0c-0.2-0.1,0.4-0.3,0-0.3c-0.2,0-0.3-0.2-0.4-0.2c-0.1,0-0.1,0.2-0.2,0.3
		c-0.2,0.1-0.3-0.2-0.5-0.1c-0.1,0.1-0.2,0.3-0.4,0.2c-0.2-0.2-0.3-0.1-0.4,0.1c-0.1,0.2-0.3,0-0.4,0.2c-0.1,0.2-0.3,0.1-0.4,0.4
		c0,0-0.1,0.1-0.1,0.1c-0.1,0.1-0.4,0-0.4,0.1c-0.1,0.2-0.2,0.2-0.3,0.2c-0.2,0-0.4,0-0.4,0.2c-0.1,0.2-0.1,0.3-0.4,0.2
		c0,0,0,0-0.1,0c-0.3,0.4-0.8,0.6-1,1.1c0,0,0,0.1,0,0.1c0,0.2,0.1,0.5,0.2,0.6c0.1,0.2,0,0.5,0.4,0.5c0.1,0,0.1,0.2,0.1,0.3
		c-0.1,0.1-0.1,0.2-0.1,0.3c0,0.2,0.3,0.2,0.2,0.4c-0.1,0.2-0.1,0.3-0.1,0.5c0,0.2,0,0.3,0,0.5c0,0.4-0.3,0.7-0.7,0.5
		c-0.3-0.1-0.4,0-0.6,0c-0.1,0-0.1,0.1-0.1,0.2c0.1,0.3-0.3,0.1-0.3,0.4c0,0.1-0.2,0.1-0.3,0.1c-0.2,0-0.3,0-0.4,0.1
		c-0.2,0.2-0.4-0.1-0.5,0.1c-0.1,0.1-0.2,0-0.3,0c-0.3,0-0.5-0.1-0.5-0.3c0-0.3-0.3-0.2-0.4-0.4c-0.1-0.1-0.2-0.1-0.2,0.1
		c0,0.1-0.1,0.2-0.3,0.3c-0.4,0.1-0.4,0.2-0.4,0.6c0,0.1,0,0.2,0,0.3c0,0.2-0.1,0.3-0.3,0.3c-0.2,0-0.3,0.1-0.4,0.3
		c-0.1,0.2-0.2,0.3-0.3,0.4c-0.2,0.2-0.3,0.3-0.1,0.6c0.1,0.2,0,0.4-0.2,0.5c-0.1,0.1-0.2,0.1-0.1,0.2c0.2,0.2-0.1,0.3-0.1,0.4
		c-0.1,0-0.2,0.1-0.3,0.2c-0.1,0.1-0.2,0.3-0.1,0.4c0.1,0.1,0.1,0.3,0.3,0.4c-0.2,0.1-0.3,0.2-0.5,0.2c-0.1,0-0.1,0.1-0.1,0.2
		c0,0.2,0,0.2-0.2,0.1c0,0,0,0-0.1,0c-0.2,0-0.2,0.3-0.4,0.2c-0.1-0.1-0.2-0.2-0.3-0.2c-0.2,0-0.3-0.2-0.5,0c0,0-0.2,0.1-0.3-0.1
		c-0.1-0.4-0.2-0.4-0.5-0.2c-0.1,0-0.2,0.1-0.2,0.2c-0.1,0.1-0.1,0-0.1,0c-0.2,0,0-0.3-0.2-0.3c-0.2,0-0.2,0-0.3-0.2
		c0,0-0.2,0.2-0.4,0c-0.1,0.1-0.3,0-0.3-0.1c0,0,0,0,0-0.1c0-0.2-0.3,0-0.3-0.1c-0.1-0.1,0-0.3-0.1-0.4c-0.1-0.1-0.1-0.1-0.1,0
		c0,0.2-0.1,0.2-0.2,0.1c-0.1-0.2-0.3-0.2-0.5-0.3c-0.1-0.1-0.2-0.3-0.3-0.5c0.1-0.1,0.3-0.2,0.4-0.4c0-0.1-0.1-0.2-0.1-0.3
		c-0.2-0.2-0.1-0.3,0.1-0.4c0.1-0.1,0.2-0.1,0.2-0.3c0-0.3,0.1-0.4,0.3-0.5c0.1,0,0.1-0.1,0.1-0.2c0.1-0.5,0.2-0.8,0.5-1.2
		c0.1-0.1,0.1-0.2,0.1-0.3c0-0.2,0.1-0.4,0.3-0.5c0.3-0.2,0.3-0.2,0.3-0.4c0-0.2,0.1-0.3,0.3-0.3c0.1,0,0.2-0.1,0.3-0.1
		c0.1,0,0.2,0,0.2-0.2c0-0.1,0-0.3,0-0.4c0-0.2,0-0.4,0.2-0.5c0.1-0.1,0.2-0.2,0.1-0.4c-0.1-0.1,0.2-0.3,0.2-0.4
		c0.2-0.3,0.5-0.6,0.7-0.9c0-0.1,0.1-0.1,0.1-0.1c0.4,0,0.5-0.4,0.6-0.6c0.1-0.2,0-0.4,0.2-0.5c0.1-0.1,0.4-0.2,0.6-0.3
		c0.2,0,0.3-0.1,0.3-0.3c0-0.1,0.1-0.1,0.1-0.1c0.2-0.4,0.2-0.7-0.1-1c-0.1-0.1-0.3-0.3-0.1-0.5c0.1-0.1,0-0.2-0.1-0.3
		c-0.1-0.1-0.2-0.2-0.3-0.3c-0.1-0.1-0.3-0.2-0.1-0.4c0.1-0.1,0-0.1-0.1-0.2c-0.2-0.1-0.1-0.3-0.1-0.4c0-0.3,0-0.4-0.1-0.6
		c0,0-0.1-0.1-0.1-0.1c0.1-0.3-0.2-0.5-0.4-0.7c0,0-0.1-0.1-0.2-0.2c0.2-0.1,0.3-0.2,0.4-0.4c-0.1-0.2-0.3-0.3-0.4-0.5
		c-0.1-0.1-0.3-0.2-0.1-0.4c0.1-0.1-0.2-0.2-0.3-0.4c-0.2-0.3-0.3-0.3-0.5-0.1c-0.1,0.1-0.2,0.1-0.3,0.1c-0.1,0-0.2,0.1-0.2,0.2
		c0.1,0.4-0.2,0.3-0.4,0.3c-0.3,0-0.5,0.1-0.7,0.3c-0.2,0.2-0.4,0.4-0.8,0.4c-0.2,0-0.3,0.2-0.4,0.3c-0.3,0.3-0.8,0.3-1.1,0.6
		c0,0-0.1,0-0.1-0.1c-0.1-0.1-0.2-0.1-0.2,0c-0.2,0.2-0.3,0.3-0.5,0.5c-0.2,0.2-0.2,0.1-0.4,0.2c-0.3,0-0.6,0.1-0.8,0.3
		c-0.3,0.2-0.5,0.5-0.9,0.5c-0.1,0-0.1,0.1,0,0.2c0.1,0.1,0.2,0.2,0.2,0.3c0,0.1-0.1,0.2-0.1,0.4c0,0.1,0.1,0.2,0.1,0.3
		c0.2,0.2,0.4,0.3,0.1,0.6c0,0,0,0.1,0,0.2c0.1,0.2,0.1,0.4,0,0.6c-0.1,0.1,0.1,0.2,0.2,0.3c0.1,0.1,0.2,0.2,0.2,0.3
		c0,0.1-0.2,0.2-0.1,0.3c0.1,0.1,0.2,0.2,0.2,0.3c0,0.1,0.3,0.3,0,0.5c-0.1,0.1,0,0.3,0,0.5c0,0.2,0.1,0.4-0.1,0.5c0,0,0,0.1,0,0.2
		c0.3,0,0.2,0.2,0.2,0.4c0,0.3,0.1,0.5,0.2,0.7c0,0,0.1,0.1,0.1,0.1c0.1,0.2-0.4,0.3-0.1,0.5c0.2,0.2,0,0.3,0,0.5
		c0,0.1-0.1,0.2,0.1,0.2c0.1,0,0.2,0.1,0.3,0.2c0.2,0.1,0.1,0.3,0,0.4c-0.1,0.1-0.2,0.2-0.2,0.3c0.2,0.2,0,0.6,0.3,0.7
		c0.2,0.1,0.2,0.3,0.1,0.5c-0.2,0.3-0.2,0.7,0.1,1c0.1,0.1,0.2,0.3,0.1,0.5c-0.1,0.1,0.1,0.2,0.1,0.3c0,0.7,0.4,1.4,0.3,2.1
		c0,0.2-0.1,0.4,0.1,0.5c0,0,0,0.1,0,0.2c-0.3,0.2,0,0.4,0,0.6c0.1,0.2,0.2,0.3,0,0.4c-0.1,0.1-0.2,0.3-0.1,0.4
		c0.1,0.1,0,0.3,0.1,0.4c0.1,0.2,0.1,0.2-0.2,0.4c-0.2,0.1-0.3,0.2-0.5,0.3c-0.1,0.1-0.3,0.1-0.4,0c-0.1-0.2-0.3-0.1-0.5-0.2
		c0,0-0.1,0-0.1-0.1c-0.1,0.3-0.4,0.1-0.5,0.4c-0.1,0.2-0.3,0.3-0.5,0.2c-0.2-0.1-0.3-0.1-0.4,0.1c-0.2,0.3-0.2,0.3-0.4,0.1
		c-0.1-0.1-0.1-0.1-0.2,0c-0.1,0.1-0.2,0.1-0.3,0.2c0,0-0.1,0.1-0.1,0.1c-0.1-0.1-0.3-0.1-0.3-0.2c-0.1,0.1-0.2,0.1-0.3,0.1
		c-0.1,0-0.1,0-0.1-0.1c0-0.1,0-0.2,0-0.3c0-0.1,0-0.2-0.1-0.2c-0.3-0.2-0.2-0.2-0.2-0.6c0-0.6-0.1-1.1-0.5-1.6
		c-0.1-0.1-0.2-0.2-0.1-0.2c0.2-0.2,0-0.5,0.2-0.7c0,0,0,0,0,0c-0.3-0.3-0.2-0.7-0.3-1c0-0.1-0.1-0.1-0.1-0.1
		c-0.3-0.2-0.3-0.2-0.1-0.5c0.2-0.3,0-0.4-0.1-0.6c-0.1-0.2-0.4-0.3-0.4-0.5c0-0.2,0.2-0.3,0.2-0.5c0-0.1,0.1-0.1,0-0.2
		c-0.1-0.1-0.1-0.2,0-0.3c0.1-0.1,0.1-0.3-0.1-0.4c-0.2-0.1-0.2-0.4-0.4-0.5c-0.1-0.1-0.1-0.2,0-0.2c0.1-0.1,0-0.2,0-0.3
		c0-0.1,0.2-0.2,0.2-0.3c0.1-0.2-0.1-0.4-0.2-0.5c-0.1-0.1-0.2-0.3-0.2-0.5c0-0.3-0.1-0.5-0.1-0.8c0-0.2,0-0.5-0.2-0.7
		c0,0,0-0.1,0-0.2c0.1-0.1,0.2-0.3,0.1-0.4c-0.2-0.2,0.1-0.2,0-0.3c0,0,0-0.1,0-0.1c-0.4-0.2-0.1-0.5-0.1-0.8c0-0.1,0-0.3,0-0.4
		c-0.1-0.2-0.3-0.3-0.3-0.5c0-0.1,0.2-0.3,0.1-0.5c-0.1-0.3-0.4-0.6-0.1-0.9c0-0.1,0-0.2-0.1-0.2c-0.1,0-0.1,0-0.1-0.1
		c0.1-0.4,0-0.8,0.3-1.1c0,0,0.1-0.1,0-0.1c-0.2-0.1-0.2-0.3-0.2-0.5c0-0.2-0.3-0.1-0.4-0.3c-0.1-0.1,0-0.1,0-0.2
		c0.1-0.2,0-0.4,0.1-0.7c0.1-0.1-0.3-0.2-0.2-0.4c0.1-0.1,0.1-0.3,0-0.4c-0.2-0.2-0.2-0.3-0.1-0.6c0.1-0.2,0.1-0.4-0.1-0.7
		c-0.1-0.1-0.1-0.3,0.2-0.3c0.1,0,0.2-0.1,0.1-0.3c-0.1-0.2-0.2-0.4-0.1-0.6c0-0.1,0-0.3,0.1-0.5c0,0-0.2-0.2,0-0.4
		c0.1,0-0.1-0.4-0.3-0.6c-0.1-0.1-0.2-0.2-0.3-0.2c-0.2,0-0.4,0.2-0.3,0.3c0.2,0.2-0.1,0.3,0,0.4c0.1,0.2-0.1,0.3-0.1,0.4
		c-0.1,0.3-0.1,0.7-0.4,0.9c-0.1,0.1-0.2,0.4-0.1,0.6c0,0.2-0.1,0.3-0.2,0.4c-0.1,0.2-0.1,0.3,0,0.4c0.1,0.1,0.1,0.3,0,0.4
		c-0.2,0.2-0.3,0.4-0.3,0.6c0,0,0,0.1-0.1,0.1c0,0.3-0.4,0.3-0.4,0.6c0,0.3,0.1,0.5-0.1,0.7c0,0.1,0,0.2,0,0.2
		c0.2,0.3,0,0.3-0.2,0.4c-0.3,0.2-0.3,0.3-0.1,0.5c0,0,0.2,0.1,0,0.2c-0.2,0.1,0.1,0.4-0.2,0.5c-0.2,0.1-0.4,0.2-0.3,0.5
		c0.1,0.2-0.2,0.3-0.1,0.5c0.2,0.3,0,0.6-0.2,0.9c-0.1,0.2-0.1,0.6-0.4,0.7c-0.1,0.1-0.1,0.2,0,0.2c0.1,0.1,0,0.3,0.1,0.5
		c0,0.1-0.1,0.1-0.1,0.1c-0.3,0.2-0.3,0.2-0.1,0.5c0,0.1,0.1,0.1,0,0.2c-0.1,0.1-0.2,0.3-0.3,0.4c-0.3,0.3-0.4,0.6-0.5,1
		c-0.1,0.3-0.1,0.4-0.4,0.2c0,0-0.1,0-0.1,0c-0.2,0-0.3-0.1-0.4-0.3c-0.1-0.1-0.2-0.2-0.3,0c-0.1,0.2-0.2,0.3-0.4,0.1
		c-0.1-0.1-0.3-0.1-0.3,0c-0.3,0.3-0.3-0.1-0.4-0.2c-0.1-0.1,0-0.2-0.1-0.3c-0.1-0.1-0.1-0.1-0.2-0.1c-0.2,0.1-0.3,0.1-0.5,0
		c-0.1-0.2-0.3-0.3-0.5-0.3c-0.2-0.1-0.3-0.2-0.1-0.3c-0.2-0.2,0-0.5-0.2-0.6c-0.1-0.1,0-0.2,0-0.2c0.1-0.1,0.3-0.3,0.4-0.4
		c-0.1-0.1-0.2-0.1-0.2-0.2c-0.1-0.1-0.1-0.2,0-0.3c0.1-0.1,0.3-0.2,0.1-0.5c-0.1-0.1-0.1-0.3,0.1-0.5c0.1-0.1,0.2-0.2,0.3-0.3
		c0.1-0.1,0.1-0.2,0-0.3c-0.2-0.2-0.2-0.3,0-0.5c0.1-0.1-0.1-0.3,0.1-0.4c0.2-0.1,0.1-0.2,0.1-0.4c0-0.1,0-0.1,0-0.2
		c0.3-0.4,0.3-0.8,0.4-1.2c0-0.1,0-0.1,0.1-0.2c0.2-0.2,0.3-0.5,0.3-0.8c-0.1-0.2,0.2-0.4,0-0.6c-0.1-0.1,0-0.1,0.1-0.2
		c0.1-0.1,0.2-0.2,0.3-0.3c0.1-0.1,0.1-0.2,0.1-0.5c0-0.4,0.1-0.6,0.3-0.9c0.1-0.1,0.2-0.2,0-0.4c-0.2-0.3-0.2-0.5,0.1-0.6
		c0.1-0.1,0.1-0.1,0.1-0.2c0-0.2,0-0.4,0-0.6c0-0.1,0.2-0.1,0.2-0.2c0-0.1-0.1-0.1-0.1-0.2c0-0.2,0.1-0.2,0.2-0.3
		c0.1-0.1,0.2-0.3,0.2-0.5c0-0.2,0.2-0.4,0.1-0.7c0,0,0.1-0.1,0.1-0.1c0.2-0.1,0.3-0.3,0.2-0.5c-0.2-0.2,0.2-0.5-0.1-0.7
		c0,0,0-0.1,0.1-0.1c0.2-0.2,0.2-0.4,0.2-0.6c0-0.3,0.1-0.5,0.2-0.8c0-0.1,0.1-0.2,0.1-0.3c0-0.2,0-0.5,0.2-0.7
		c0.2-0.2,0.1-0.4,0.1-0.6c0-0.2,0.1-0.3,0.2-0.4c0.1,0,0.2-0.1,0.3-0.2c0.1-0.1,0.2-0.2,0-0.3c-0.1-0.1-0.1-0.2,0-0.4
		c0.1-0.2,0-0.6,0.1-0.8c0.1-0.2,0.1-0.4,0.3-0.6c0.2-0.2,0.3-0.5,0.3-0.8c0-0.2,0.2-0.4,0-0.6c-0.1-0.1,0-0.2,0.1-0.3
		c0.1-0.1,0.2,0,0.3-0.1c0.2-0.2,0.3-0.2,0.1-0.5c-0.1-0.1-0.1-0.2-0.1-0.3c0.2-0.2,0.1-0.4-0.1-0.5c-0.1,0-0.1-0.1-0.1-0.2
		c0-0.2,0-0.4,0.1-0.6c0-0.2-0.2-0.3-0.2-0.6c0-0.1,0-0.2-0.1-0.3c-0.1-0.2-0.2-0.3,0-0.5c0,0,0-0.2,0-0.2c-0.2-0.5-0.3-0.6-0.1-1.1
		c0-0.1,0.1-0.3-0.1-0.4c-0.1-0.1-0.2-0.2-0.1-0.3c0.1-0.2-0.3-0.2-0.2-0.4c0.1-0.1,0.1-0.3,0-0.5c-0.1-0.1,0.1-0.4-0.1-0.5
		c0,0,0.1-0.2,0.1-0.3c0-0.2-0.1-0.4-0.2-0.5c-0.3-0.1-0.1-0.2-0.1-0.4c0-0.2-0.1-0.4,0.1-0.6c0.1-0.2-0.1-0.3-0.2-0.4
		c-0.1-0.1-0.2-0.2,0-0.3c0.2-0.2-0.1-0.3-0.1-0.4c0-0.1-0.1-0.2,0-0.2c0.2-0.1,0.1-0.3,0.1-0.4c0-0.1-0.2-0.1,0-0.3
		c0.1-0.1-0.1-0.2-0.1-0.3c0-0.1,0.1-0.2,0.2-0.3c0.2,0.2,0.3,0,0.3-0.1c0.1-0.3,0.3-0.4,0.4-0.7c0-0.1,0.2-0.4,0.5-0.3
		c0.2,0.1,0.2-0.1,0.3-0.2c0.1-0.1,0-0.1,0-0.2c-0.3-0.3-0.2-0.6-0.1-0.9c0.1-0.2,0.1-0.4,0-0.5c-0.3-0.1-0.2-0.2-0.2-0.4
		c0-0.2,0-0.4,0-0.6c0-0.3,0-0.5-0.2-0.7c0,0-0.1-0.2,0-0.4c0.1-0.2,0-0.5,0.1-0.8c0.1-0.3,0-0.7-0.3-0.9c-0.2-0.2-0.2-0.3,0-0.5
		c0.2-0.2,0.3-0.4,0.1-0.6c-0.1-0.1,0-0.3-0.1-0.4c-0.1-0.1-0.2-0.4,0.1-0.4c0.1,0,0.1-0.1,0.1-0.2c0-0.1,0-0.2,0.1-0.3
		c0.2-0.1,0.3-0.3,0.4-0.4c0.1-0.1,0.3-0.2,0.3,0C122.7,38.2,122.9,38.3,123,38.4z M125.9,50c-0.1,0.2,0.1,0.3,0.1,0.4
		c0,0.2,0,0.3,0.1,0.5c0.1,0.1,0,0.2,0,0.4c-0.1,0.2-0.3,0.5,0,0.7c0,0,0,0.1,0,0.2c0,0.3,0.2,0.9,0.3,1.1c0.1,0.2,0.2,0.5,0.2,0.7
		c-0.2,0.5,0,0.9,0.2,1.2c0.2,0.4,0.2,0.4,0.2,0.7c0,0.2,0.1,0.3,0.2,0.5c0.1,0.2,0.1,0.3,0,0.4c-0.1,0.2-0.1,0.4,0.1,0.6
		c0.1,0.1,0.3,0.2,0.1,0.5c-0.1,0.1,0,0.3,0,0.5c0.1,0.2,0.2,0.5,0.1,0.7c-0.1,0.1,0,0.2,0.1,0.3c0.1,0.1,0.2,0.2,0,0.3
		c-0.1,0.1,0,0.1,0,0.2c0.4,0.3,0.5,0.8,0.4,1.3c0,0.1,0,0.2,0,0.3c0.3,0.3,0.2,0.7,0.3,1c0.1,0.3,0.1,0.7,0.3,1
		c0.1,0.1,0.1,0.3,0,0.4c0,0-0.1,0.1,0,0.1c0.1,0.3,0.2,0.6,0.2,0.9c0,0.2,0.2,0.4,0.3,0.5c-0.2,0.2-0.1,0.4,0,0.6
		c0,0.1,0,0.2,0,0.2c-0.1,0.4,0,0.6,0.2,0.8c0.2,0.2,0.2,0.3,0,0.4c-0.2,0.2-0.2,0.3,0.1,0.4c0.2,0.2,0.2,0.6,0.4,0.8
		c0,0,0,0.1,0,0.1c-0.2,0.2-0.1,0.3,0.1,0.5c0.1,0,0.1,0.1,0,0.2c-0.1,0.1-0.1,0.2,0,0.3c0.2,0.2,0.4,0.1,0.6,0.2
		c0.2,0,0.3-0.1,0.4-0.3c0.1-0.2,0.3-0.4,0.5-0.3c0.2,0,0.2-0.1,0.4-0.1c0.1,0,0.2-0.1,0.3-0.1c0.1-0.1,0.3-0.1,0.4-0.1
		c0.1-0.1,0.1-0.2,0.2-0.3c0.1-0.1,0.2-0.2,0.2-0.1c0.3,0.2,0.5,0,0.6-0.1c0.2-0.1,0.3-0.3,0.5-0.4c0.3-0.1,0.3-0.2,0.6-0.2
		c0.3,0,0.2-0.4,0.5-0.4c0.1,0,0.2-0.1,0.3,0c0.1,0.1,0.1,0,0.1,0c0.4-0.4,1.1-0.4,1.5-0.9c0,0,0.1,0,0.1,0c0.2,0,0.3,0,0.4-0.2
		c0.2-0.2,0.4-0.4,0.7-0.3c0.1,0,0.3,0.1,0.3,0c0-0.2,0.2-0.4,0.1-0.5c-0.2-0.2,0-0.4-0.1-0.5c-0.3-0.3,0-0.8-0.4-1
		c0-0.3-0.1-0.6-0.2-0.9c0-0.1,0-0.2,0-0.2c0.2-0.2,0-0.4-0.1-0.5c-0.1-0.1-0.2-0.2-0.1-0.4c0.2-0.3-0.1-0.6-0.4-0.7
		c-0.1,0-0.3-0.1-0.4-0.1c-0.2,0.1-0.3,0-0.5,0c-0.1,0-0.2,0-0.2-0.1c0-0.2-0.4-0.3-0.3-0.5c0.1-0.2-0.3-0.3-0.2-0.5
		c0,0,0-0.1-0.1-0.1c-0.2,0-0.3-0.1-0.4-0.3c-0.2-0.4-0.6-0.6-1-0.6c-0.1-0.2,0-0.4-0.1-0.6c-0.2-0.2,0.2-0.3,0.2-0.5
		c0,0,0-0.1,0-0.1c0-0.2,0-0.3,0-0.4c0.3-0.2,0.6-0.2,0.6-0.6c0-0.1,0.1-0.1,0.1-0.2c0.2-0.1,0.2-0.3,0.2-0.5c0-0.1-0.1-0.2,0.1-0.2
		c0.3-0.1,0.3-0.3,0.3-0.5c0-0.2,0-0.4,0.3-0.4c0.1,0,0.1-0.1,0.1-0.2c0-0.3-0.1-0.6-0.3-0.8c-0.1-0.1-0.2-0.2-0.1-0.4
		c0.1-0.1,0.1-0.4-0.1-0.5c-0.1-0.1-0.1-0.2,0-0.3c0.2-0.2-0.2-0.3-0.2-0.4c0-0.1,0.3-0.3,0-0.4c-0.1,0-0.1,0-0.1-0.1
		c0.1-0.4-0.2-0.8-0.1-1.1c0-0.2,0-0.3-0.2-0.4c-0.1-0.1-0.1-0.2-0.1-0.4c0.1-0.2,0.1-0.5-0.1-0.8c-0.1-0.2,0-0.6-0.3-0.7
		c0.1-0.4-0.4-0.6-0.2-0.9c0-0.1-0.1-0.2-0.1-0.2c-0.1-0.2-0.2-0.3-0.5-0.1c-0.2,0.1-0.5,0.2-0.8,0.2c-0.1,0-0.3,0-0.4,0.1
		c-0.2,0.3-0.5,0.4-0.9,0.4c-0.1,0-0.3,0-0.4,0.1c-0.1,0.1-0.3,0.2-0.5,0.3c-0.1,0.1-0.3,0.2-0.4,0.1c-0.2-0.2-0.4,0-0.6,0.1
		c-0.2,0.1-0.3,0.3-0.5,0.3c-0.4,0-0.8,0.2-1.2,0.4c-0.4,0.1-0.8,0.5-1.2,0.4c-0.1,0-0.1,0-0.2,0.1C126.7,50,126.3,50,125.9,50z
		 M141.7,56.7c0,0.2-0.1,0.4,0,0.5c0.3,0.2,0.2,0.5,0.1,0.8c0,0.1-0.1,0.1-0.1,0.2c0.2,0.2,0.2,0.4,0.3,0.5c0.1,0.2,0.1,0.2,0.2,0.6
		c0,0,0.1,0.1,0.1,0.1c0,0.2,0.2,0.4,0.1,0.6c-0.1,0.2,0,0.3,0,0.4c0.1,0.3,0.5,0.6,0.3,1c0,0,0.1,0.1,0.1,0.1
		c0,0.2,0.1,0.4,0.2,0.6c0.1,0.1-0.2,0.3,0.1,0.4c0.1,0.1,0.3,0.2,0.1,0.4c-0.1,0,0,0.1,0.1,0.2c0.1,0.1,0.2,0.1,0.2,0.2
		c0,0.3-0.1,0.7,0.2,0.9c0,0.4,0.2,0.8,0.1,1.3c0,0.2-0.2,0.4,0.1,0.6c0,0,0,0.1,0,0.2c-0.2,0.2-0.2,0.5-0.5,0.5
		c-0.1,0-0.2,0.1-0.2,0.2c0,0.1,0,0.2,0,0.3c-0.1,0.1-0.1,0.2-0.3,0c0,0-0.1-0.2-0.2-0.1c0,0.1,0,0.3,0,0.4c0,0.4-0.2,0.8,0.2,1
		c0,0,0,0.2,0,0.2c0,0.4,0,0.4,0.1,0.6c0.1,0.1,0.2,0.2,0,0.3c-0.1,0.1,0,0.1,0,0.1c0.1,0,0.1,0,0.2,0.1c0.1,0.4,0.1,0.8,0.5,1.1
		c0,0.2,0,0.5,0.3,0.6c0,0-0.1,0.1-0.1,0.1c-0.1,0.1-0.1,0.2,0,0.3c0.2,0.2,0.1,0.5,0.1,0.7c0,0.2,0,0.3,0,0.5c0,0.1,0.2,0,0.2,0.2
		c0,0.2,0.1,0.3,0.2,0.4c0,0.1,0.2,0.1,0.2,0c0.1-0.3,0.4-0.3,0.6-0.3c0.1,0,0.1,0,0.1-0.1c0-0.1,0-0.1-0.1-0.1
		c-0.2-0.1-0.3-0.3-0.1-0.4c0.3-0.2,0.1-0.4,0-0.6c-0.1-0.1-0.1-0.2,0-0.3c0.1-0.1,0.1-0.3-0.1-0.4c-0.1-0.1-0.1-0.2,0-0.3
		c0-0.1,0.2-0.2,0.1-0.4c-0.1-0.3,0-0.5,0.2-0.8c0.1-0.1,0.1-0.3,0.1-0.3c-0.1-0.1,0-0.3-0.1-0.4c-0.2-0.3-0.1-0.6,0.2-0.8
		c0.1-0.1,0.1-0.1,0-0.2c0,0-0.1-0.1-0.1-0.2c-0.1-0.1-0.2-0.3,0.1-0.4c0.1,0,0.1-0.1,0.1-0.1c0-0.4,0.3-0.8,0.2-1.3
		c0-0.1,0-0.1,0.1-0.1c0.3,0,0.2-0.3,0.1-0.3c-0.2-0.3-0.1-0.4,0.1-0.6c0.2-0.1,0.3-0.3,0.3-0.5c-0.1-0.2,0.1-0.3,0.2-0.3
		c0.2-0.1,0.3-0.2,0.2-0.4c0-0.1,0-0.2,0-0.4c0-0.2,0.1-0.3,0.2-0.4c0.1-0.1,0.3-0.1,0.4-0.2c0.1-0.2,0-0.3,0-0.5
		c0-0.1,0-0.1,0.1-0.1c0.4-0.4,0.6-0.9,0.9-1.3c0.1-0.1,0.2-0.2,0.3-0.4c0.1-0.4,0.3-0.6,0.6-0.8c0.3-0.2,0.5-0.6,0.7-0.9
		c0.1-0.2-0.1-0.5-0.3-0.4c-0.1,0.1-0.2,0.1-0.3,0c0,0-0.1-0.2-0.2-0.1c-0.2,0.2-0.5,0.1-0.7,0.1c-0.2,0-0.4,0-0.5-0.3
		c0-0.2-0.2-0.1-0.3-0.1c-0.1,0-0.2,0.2-0.4,0.1c-0.4-0.3-1.1,0-1.4-0.6c0-0.1-0.2-0.2-0.3-0.2c-0.2,0-0.3-0.1-0.4-0.2
		c-0.1,0.2-0.4,0-0.5,0.2c0,0,0,0-0.1,0c-0.2-0.2-0.5,0-0.7-0.2c-0.2-0.2-0.6-0.3-1-0.2c-0.2,0-0.3,0-0.4-0.1
		c-0.1-0.2-0.4-0.2-0.5-0.1c-0.2,0.2-0.3,0-0.4-0.1C141.8,56.9,141.8,56.8,141.7,56.7z M153,64.8c0.1,0.1,0,0.2-0.1,0.2
		c-0.1,0.1-0.2,0.1-0.2,0.2c0.1,0.3-0.1,0.4-0.3,0.6c-0.2,0.2-0.3,0.3-0.3,0.6c0,0.4-0.2,0.8-0.5,1c-0.1,0.1-0.1,0.1,0,0.2
		c0.1,0.3-0.1,0.5-0.2,0.7c-0.1,0.2-0.3,0-0.4,0.1c0,0.1-0.2,0.1-0.1,0.2c0.1,0.1,0.3,0.2,0.1,0.4c0.1,0.1,0.1,0.3,0.1,0.5l-0.3,0.7
		c-0.1,0.1-0.1,0.1-0.1,0.2c0.1,0.3,0.1,0.5,0.1,0.8c0,0.1,0.3,0.2,0.3,0.2c0.2-0.2,0.3-0.2,0.5,0c0,0.1,0.1,0.1,0.2,0
		c0.3-0.1,0.6-0.1,0.8-0.1c0.3-0.1,0.5-0.3,0.8-0.4c0.3-0.1,0.3-0.5,0.7-0.5c0-0.3,0.4-0.4,0.3-0.7c-0.1-0.2,0-0.3,0.2-0.4
		c0.1,0,0.2-0.1,0.3-0.1c0.2-0.1,0.3-0.3,0.3-0.6c0-0.4,0-0.4,0.2-0.8c0.1-0.1,0.1-0.4,0.3-0.4c0.2,0,0.3-0.1,0.3-0.2
		c0-0.1,0.1-0.4,0-0.5c-0.2-0.2,0-0.3,0.1-0.4c0.2,0,0.2-0.2,0.3-0.2c0.1-0.1,0.1-0.1,0.1-0.2c-0.1-0.1-0.1-0.1,0-0.2
		c0.2-0.1,0.2-0.3,0.1-0.5c-0.1-0.2-0.2-0.4,0.2-0.5c0.1,0,0.2-0.1,0.2-0.3c0-0.1,0-0.2,0.1-0.3c0.2-0.1,0.2-0.3,0.2-0.5
		c0-0.2,0-0.3,0.2-0.4c0.1-0.1-0.2-0.3-0.1-0.5c0,0,0.1-0.1,0.1-0.1c0-0.3,0.2-0.7,0-1c-0.1-0.2,0-0.4,0-0.6c0-0.1,0.1-0.2,0.2-0.3
		c-0.1-0.1-0.1-0.2-0.1-0.4c0-0.2-0.2-0.3-0.4-0.4c-0.2,0-0.3,0-0.5,0.2c-0.1,0.1-0.1,0.3-0.1,0.4c0,0.2-0.2,0.3-0.3,0.2
		c-0.2-0.2-0.3-0.1-0.3,0.1c0,0.1-0.1,0.1-0.1,0.2c-0.1,0.1-0.2,0.2-0.3,0.4c-0.1,0.2-0.3,0.2-0.4,0.4c-0.1,0.2-0.4,0.3-0.6,0.5
		c-0.3,0-0.4,0.2-0.4,0.5c0,0.1-0.1,0.2-0.2,0.2c-0.2,0.1-0.3,0.3-0.3,0.5c0,0.1,0,0.2-0.1,0.2c-0.3,0.1-0.3,0.3-0.4,0.5
		c0,0.2-0.1,0.2-0.3,0.2C153,64.6,152.8,64.6,153,64.8z"/>
	<path d="M79.3,28.7c0.2-0.1,0.5,0.1,0.6-0.1c0,0,0.5,0.1,0.6,0.1c0.1,0.1,0.2,0.1,0.3,0c0.1-0.1,0.3-0.1,0.4,0.1
		c0,0.1,0.1,0.1,0.2,0.1c0.2,0,0.3,0,0.5-0.1c0.1-0.1,0.2,0.3,0.4,0.2c0.1,0,0.2,0,0.3,0.1c0.1,0.2,0.2,0.1,0.3,0
		c0.1-0.1,0.2-0.1,0.2,0c0.1,0.1,0.2,0.1,0.2,0.2c0.1,0.1,0,0.2,0.2,0.2c0.1,0,0.2,0,0.3,0c0.2,0,0.3,0.2,0.5,0.3
		c0.2,0.1,0.3,0.3,0.1,0.5c0.1,0.3-0.1,0.5,0,0.8c0.1,0.2,0.1,0.3-0.1,0.4c-0.2,0.1-0.3,0.2-0.2,0.4c0,0.2,0,0.4,0,0.5
		c0,0.1,0,0.2,0,0.2c-0.1,0.3-0.1,0.3,0,0.7c0,0.1,0.1,0.3-0.1,0.4c-0.2,0.2-0.3,0.3-0.5,0.5c-0.1,0.1-0.2,0.3-0.1,0.4
		c0.1,0.1,0.1,0.2,0.1,0.2c0.1,0.2,0.1,0.4-0.1,0.5c-0.1,0.1-0.2,0.2-0.1,0.3c0.1,0.1-0.1,0.2-0.2,0.2c-0.2,0-0.3,0.1-0.1,0.2
		c0.1,0.1,0,0.2,0.2,0.3c-0.1,0.1-0.1,0.2-0.2,0.3c0,0-0.1,0.1,0,0.1c0.1,0.1,0.1,0.2,0,0.3c-0.2,0.1-0.3,0.3-0.3,0.6
		c0,0.1-0.1,0.2-0.2,0.2c-0.2,0-0.2,0.1-0.1,0.2c0,0.1,0,0.1-0.1,0.2c-0.2,0-0.3,0.2-0.2,0.3c0,0.2,0.1,0.4-0.2,0.4
		c0.1,0.2-0.2,0.2-0.1,0.4c0.1,0.1,0.2,0.2,0.1,0.3c-0.1,0.1-0.2,0.2-0.3,0.1c-0.1,0-0.1,0.1-0.1,0.2c0,0.1,0,0.2,0,0.4
		c0,0.2,0,0.3-0.1,0.4c-0.1,0.1-0.3,0.3-0.1,0.6c0,0,0,0.1,0,0.2c-0.1,0.2-0.4,0.3-0.3,0.6c0,0-0.1,0.1-0.1,0.1
		C80.2,42.5,80,43,80,43.6c0,0.1,0,0.2,0,0.3c0.1,0.3-0.1,0.4-0.3,0.5c-0.2,0.1-0.2,0.2-0.1,0.3c0.1,0.1,0.3,0.2,0.2,0.3
		c-0.1,0.2,0,0.4-0.3,0.6c-0.1,0.1-0.3,0.2-0.2,0.3c0.2,0.2-0.1,0.3,0,0.4c0,0,0,0.1,0,0.1c-0.3,0.2-0.2,0.6-0.2,0.9
		c0,0.1,0,0.2-0.1,0.2c-0.3,0.1-0.3,0.3-0.3,0.5c-0.3,0.2-0.2,0.4-0.1,0.7c0,0.2,0,0.5-0.2,0.6c-0.1,0.1-0.1,0.2-0.1,0.3
		c0,0.4,0,0.6-0.2,0.8c-0.2,0.2-0.2,0.5-0.1,0.7c0.2,0.4,0.2,0.7-0.1,1.1c-0.2,0.2-0.2,0.4,0,0.7c0.1,0.2,0.1,0.2-0.1,0.3
		c-0.2,0-0.2,0.2-0.1,0.3c0,0.1,0,0.2,0.1,0.3c0.2,0.4,0.2,0.4,0,0.8c-0.1,0.2,0,0.4-0.2,0.6c0,0,0,0.1,0.1,0.1
		c0.2,0.1,0.1,0.3,0.3,0.4c0.2,0.1,0.2,0.2,0,0.4c-0.2,0.2-0.2,0.3-0.1,0.6c0.1,0.2-0.1,0.3-0.1,0.4c0,0.2,0,0.3,0.2,0.4
		c0.1,0,0.2,0.2,0.1,0.3c0,0.1,0,0.3,0,0.4c0,0.3,0.2,0.4,0.4,0.3c0.2-0.1,0.3-0.1,0.4-0.1c0.3,0,0.2-0.2,0.3-0.3
		c0.2-0.1,0.3,0.1,0.5-0.1c0.2-0.3,0.3-0.3,0.8-0.2c0.1,0,0.1,0,0.2-0.1c0.1-0.2,0-0.5,0.3-0.6c0.2-0.1,0.4,0,0.7,0
		c0.2,0,0.3,0.1,0.4-0.2c0-0.1,0.1,0.1,0.2,0.1c0.2-0.1,0.3-0.1,0.4-0.2c0.1-0.2,0.3-0.2,0.5-0.3c0.1-0.1,0.2-0.1,0.3,0
		c0.1,0.1,0.1-0.1,0.2-0.2c0-0.1,0.1-0.2,0.3-0.1c0.1,0.1,0.2,0,0.3,0c0.1,0,0.2-0.2,0.3-0.2c0.1-0.1,0.2,0.1,0.3,0.1
		c0.1,0,0.2,0,0.3-0.1c0.2-0.3,0.5-0.3,0.8-0.2c0.3,0.1,0.5,0,0.6-0.2c0.1-0.3,0.3-0.2,0.5-0.2c0.1,0,0.1,0.1,0.2,0.1
		c0.2-0.1,0.3-0.4,0.5-0.2c0.2,0.2,0.3-0.1,0.4-0.1c0.1,0,0.1,0.1,0.2,0.1c0.3,0.1,0.3,0.1,0.6,0c0.3-0.1,0.7-0.2,1-0.2
		c0.1,0,0.3-0.1,0.4-0.1c0.1,0.1,0.2,0.2,0.4,0.2c0.1,0,0.1-0.1,0.2-0.1c0.2,0,0.3-0.3,0.5-0.3c0.1,0,0.1-0.1,0.2,0
		c0.1,0.2,0.5,0.1,0.6,0.4c0,0,0.2,0.1,0.3,0.1c0.2,0.1,0.3,0.2,0.3,0.4c0,0.1,0,0.1,0,0.2c0.2,0.2,0.1,0.3,0,0.4c0,0-0.1,0.1,0,0.1
		c0.1,0.1,0.3,0,0.2,0.2c0,0.1-0.1,0.2-0.3,0.2c-0.1,0-0.1,0.1-0.1,0.1c0,0.1,0,0.1,0.1,0.1c0.1,0,0.2-0.1,0.2,0.1
		c0,0.2,0,0.3-0.1,0.5c-0.1,0.1,0.2,0.3,0.1,0.5c-0.2,0.2,0,0.4-0.1,0.6l0.2,0.6c0.1,0.1,0.1,0.1,0,0.2c-0.1,0.1-0.1,0.4-0.4,0.4
		c-0.2,0-0.4,0.2-0.5,0.3c-0.2,0.2-0.5,0.3-0.7,0.2c-0.5,0-0.6,0-1,0.2c-0.1,0-0.1,0-0.2,0c-0.1-0.1-0.2-0.2-0.3-0.2
		c-0.2-0.1-0.3-0.1-0.3,0.1c0,0.1-0.1,0.2-0.2,0.2c-0.2,0-0.3,0.1-0.5,0.2c-0.2,0.1-0.3,0.1-0.4,0c-0.1-0.1-0.2-0.2-0.2-0.1
		c-0.1,0.1-0.3,0.1-0.3,0.2c-0.1,0.3-0.2,0.3-0.4,0.3c-0.1,0-0.3-0.1-0.3,0.2c0,0.1-0.2,0.1-0.3,0.1c-0.1,0-0.3-0.1-0.4-0.2
		c0,0-0.1,0.1-0.1,0.1c-0.2,0-0.1,0.4-0.3,0.4c-0.2,0-0.4-0.1-0.5-0.2c-0.1,0.2-0.5,0.3-0.6,0.6c0,0.1-0.7,0.2-0.8,0.2
		c-0.4-0.2-0.7-0.1-0.9,0.2c-0.2,0.2-0.5,0.3-0.7,0.2c-0.2,0-0.3,0.1-0.3,0.2c0,0.1-0.1,0.2-0.1,0.2c0,0-0.1,0.1-0.1,0.1
		c-0.2-0.3-0.5,0.1-0.7,0c-0.2-0.1-0.3,0.1-0.3,0.2c-0.1,0.1-0.2,0.2-0.2,0.3c0,0.1-0.2,0.3-0.4,0.1c0,0-0.1,0-0.1,0
		c-0.3,0.3-0.9,0.2-1.2,0.5c-0.1,0.1-0.2,0.1-0.2,0.1c-0.2-0.3-0.4,0-0.6,0c-0.2,0.1-0.3,0.4-0.6,0.1c-0.2,0.3-0.5,0.2-0.8,0.2
		c0,0-0.1,0-0.1,0.1c-0.2,0.1-0.1,0.3-0.2,0.4c-0.1,0.1-0.3-0.1-0.4,0.1c-0.1,0.3-0.3,0.3-0.5,0.3c-0.1,0-0.2,0-0.3,0
		c0,0.3-0.2,0.6-0.5,0.7c-0.2,0.1-0.2,0.2-0.2,0.3c0.1,0.3-0.1,0.5,0,0.8c0.1,0.1-0.1,0.2-0.2,0.2c-0.3,0.1-0.4,0.3-0.4,0.5
		c0,0.5-0.2,0.8-0.4,1.2c0,0.1-0.1,0.2-0.1,0.2c0.1,0.1,0.1,0.2,0.1,0.2c0.2,0.2,0.1,0.3-0.1,0.4c-0.2,0.1-0.4,0.3-0.5,0.4
		c0,0.2,0.2,0.4,0.2,0.6c0,0.2,0.1,0.3-0.3,0.3c-0.2,0-0.2,0.2-0.1,0.4c0,0.1,0.2,0.2,0.2,0.4c0,0.2-0.3,0.2-0.3,0.4
		c0,0.1,0.1,0.3-0.1,0.4c-0.1,0.1-0.1,0.1-0.2,0.2c0.3,0.1,0.5,0.3,0.8,0.1c0.1-0.1,0.4-0.1,0.5,0.1c0.1,0.1,0.2,0.1,0.2,0
		c0.3-0.3,0.6-0.2,1-0.1c0.1,0,0.1,0.1,0.2,0c0.2-0.2,0.4-0.2,0.6,0c0,0,0.1,0.1,0.2,0.1c0.2-0.2,0.5,0,0.7-0.2
		c0.1-0.1,0.2-0.1,0.3,0c0.2,0.2,0.4,0.1,0.6,0c0.1-0.1,0.4,0,0.5,0.1c0.2,0.1,0.2,0.2,0.4,0c0,0,0.2,0,0.3,0
		c0.4,0.2,0.8,0.1,1.1-0.1c0.1-0.1,0.1-0.1,0.3,0c0.2,0.1,0.4,0,0.7,0.1c0.1,0,0.2,0.1,0.3,0c0.1-0.1,0.2-0.1,0.2,0
		c0.1,0.1,0.2,0.1,0.4,0c0.2-0.1,0.3-0.1,0.5,0c0.2,0.1,0.3,0.1,0.4-0.1c0.1-0.1,0.2-0.1,0.3-0.1c0.2,0.1,0.5,0.2,0.8,0.2
		c0.1,0,0.2,0,0.3,0c0.2,0,0.3-0.3,0.5-0.1c0.1,0.1,0.3-0.2,0.4,0.1c0,0,0.1,0,0.2,0c0.2-0.2,0.4-0.1,0.6,0.1c0.1,0.1,0.2-0.2,0.3,0
		c0.1,0.1,0.2,0.1,0.3,0.2c0,0,0.1,0,0.2-0.1l0.6-0.2c0.4,0,0.6,0,1,0.5c0.1,0.1,0.2,0,0.2,0c0-0.2,0-0.3,0-0.5
		c0.2,0.1,0.3,0.1,0.5,0.3c0.1,0.1,0.1,0.1,0.3,0c0.2-0.1,0.4,0.1,0.4,0.2c0,0.2,0.1,0.3,0.2,0.4c0.2,0.1,0.2,0.3,0.1,0.4
		c-0.2,0.2,0,0.5,0,0.6c0.2,0.5,0.2,0.9,0.2,1.4c0,0.2,0,0.4,0,0.7c0,0.1,0,0.2,0,0.2c0,0.2,0.4,0.3,0.2,0.4c-0.2,0.2,0.1,0.3,0,0.4
		c-0.1,0.1,0,0.1,0.1,0.1c0,0.2,0.3,0.3,0,0.6c-0.1,0.1-0.1,0.3,0,0.3c0.1,0.2-0.1,0.4,0,0.4c0.2,0.2,0.1,0.3,0,0.4c0,0,0,0,0,0.1
		c0.2,0.3,0.3,0.5,0,0.8c0,0,0,0.1,0,0.1c0.4,0.1,0.1,0.6,0.4,0.8c0.1,0,0.1,0.1,0,0.2c-0.1,0.1-0.3,0.2-0.1,0.5
		c0.1,0.1-0.1,0.4,0.1,0.6c0.1,0.1,0.1,0.3,0,0.4c-0.1,0.2-0.1,0.4,0.1,0.6c0.1,0.1,0.1,0.3,0.1,0.3c-0.2,0.3-0.1,0.4,0.1,0.6
		c0.1,0.1,0.1,0.3,0,0.5c-0.3,0.3-0.2,0.5,0,0.8c0.2,0.3,0.2,0.6,0.3,0.9c0.1,0.2-0.2,0.2-0.1,0.4c-0.2,0.1-0.3,0.3,0,0.5
		c0.1,0.1,0.2,0.2,0.3,0.4c-0.2,0.1,0,0.4-0.2,0.5C91,89.2,91,89.2,91,89.3c0.1,0.3,0.2,0.6,0,0.9c0,0,0,0.1,0.1,0.1
		c0.1,0.2,0.1,0.3-0.1,0.4c-0.3,0.2-0.3,0.4-0.1,0.7c0.1,0.1,0.2,0.3,0.2,0.4c0,0.1,0.1,0.1,0,0.2c-0.1,0.2-0.1,0.3,0,0.5
		c0.1,0.1,0.1,0.2,0,0.3c-0.1,0.3-0.4,0.4-0.5,0.6c-0.1,0.1,0.1,0.2,0.1,0.3c0.1,0.2,0.2,0.3,0.3,0.4c-0.2,0.3,0,0.6-0.1,1
		c0,0.1-0.1,0.1-0.1,0.1c0.1,0.2-0.2,0.4,0,0.6c0.1,0.1,0,0.2-0.1,0.2c-0.2,0.1-0.1,0.4-0.2,0.5c0,0,0,0.1,0,0.1
		c0.4,0.2,0,0.6,0.1,0.9c0,0,0,0.1,0,0.1c-0.1,0.3-0.1,0.4,0,0.7c0,0.1,0.2,0.2,0.1,0.4c-0.2,0.2-0.1,0.5-0.3,0.6
		c-0.2,0.1-0.1,0.3-0.3,0.3c-0.1,0.1-0.2,0.2-0.3,0.3c-0.1,0.1-0.1,0.2,0.1,0.2c0.2,0.1,0.2,0.3,0,0.3c-0.2,0-0.2,0.1-0.3,0.2
		c-0.3,0.3-0.7,0.5-1,0.8c-0.1-0.1-0.3-0.3-0.4-0.4c-0.1-0.1-0.2-0.1-0.3-0.1c-0.1,0.1-0.2,0.1-0.4,0c-0.1,0-0.3,0.1-0.4,0.2
		c-0.1,0-0.2,0.1-0.3,0.1c-0.1,0.1-0.2,0.1-0.3,0c-0.3-0.3-0.5-0.2-0.8-0.1c-0.2,0.1-0.4,0.2-0.6,0c-0.1-0.1-0.3-0.1-0.4,0
		c-0.2,0.1-0.3,0.2-0.5,0c0,0-0.1,0-0.1,0c-0.2,0.2-0.3,0.1-0.4,0c-0.2-0.1-0.4-0.1-0.5,0c-0.2,0.1-0.5,0.2-0.6,0.1
		c-0.2-0.2-0.4,0-0.5,0c-0.2,0.1-0.4,0.2-0.5-0.1c-0.3-0.1-0.5-0.5-0.9-0.2c-0.2,0.1-0.6,0-0.7,0.3c-0.2,0-0.4,0-0.6-0.1
		c-0.1-0.1-0.3-0.3-0.4,0c0,0.1-0.1,0-0.2,0c-0.2-0.1-0.3-0.1-0.5,0c-0.2,0.1-0.4,0.2-0.5-0.1c0-0.1-0.3-0.2-0.5,0
		c-0.1,0.1-0.3,0.2-0.5,0.1c-0.2-0.1-0.5,0.1-0.7,0.2c-0.1,0.1-0.2,0.1-0.3,0c-0.2-0.2-0.4-0.1-0.7-0.1c-0.2,0-0.3,0.3-0.4,0.1
		c-0.2-0.2-0.3,0.1-0.4,0c-0.1-0.1-0.3-0.1-0.5,0c-0.2,0-0.3-0.2-0.4-0.1c-0.2,0-0.3,0-0.5,0.1c-0.2,0.1-0.2,0.1-0.5-0.1
		c-0.1-0.1-0.3-0.1-0.5,0c-0.2,0.2-0.3,0.1-0.5,0c-0.1-0.1-0.2-0.2-0.4-0.2c-0.2-0.1-0.3-0.1-0.5,0c-0.2,0.2-0.2,0.2-0.6,0.1
		c-0.2,0-0.4,0.2-0.6,0.1c-0.2,0-0.4-0.2-0.5-0.1c-0.2,0.1-0.3,0.1-0.4-0.1c-0.1-0.2-0.3-0.1-0.4,0c-0.2,0.2-0.4,0.2-0.6,0
		c-0.1-0.1-0.2-0.1-0.3,0c-0.1,0.1-0.2,0.1-0.3,0.2c-0.1,0.1-0.2,0.1-0.3,0c-0.1-0.1-0.3-0.1-0.5-0.1c-0.3,0-0.6,0.1-0.9-0.1
		c-0.2-0.1-0.5,0-0.8,0c-0.2,0.3-0.5-0.2-0.6,0.1c0,0,0,0,0,0c-0.3-0.1-0.4-0.4-0.6-0.4c-0.2,0-0.5,0.2-0.7,0c-0.1,0-0.1,0-0.2,0
		c-0.2,0.1-0.4,0.3-0.6,0c-0.1-0.1-0.2-0.1-0.3,0c-0.1,0-0.1,0.1-0.2,0.1c-0.4,0.1-0.4,0.1-0.7-0.2c-0.1-0.1-0.2-0.1-0.3,0
		c-0.1,0.1-0.2,0.1-0.3,0.2c-0.1,0.1-0.3,0.1-0.4,0.1c-0.2,0,0-0.3-0.2-0.2c-0.1,0-0.2,0.2-0.3,0.2c-0.1,0.1-0.2,0-0.2-0.1
		c-0.2-0.3-0.4-0.3-0.8-0.1c-0.4,0.3-0.9,0.1-1.3-0.1c-0.3-0.2-0.4-0.2-0.6,0c-0.1,0.1-0.2,0.1-0.3,0c-0.3-0.3-0.7-0.4-1.1-0.2
		c-0.2,0.1-0.5-0.1-0.7,0.1c-0.2,0.2-0.4,0-0.6,0c-0.3,0-0.4-0.3-0.6-0.4c-0.1-0.1-0.2-0.1-0.3-0.2c-0.1-0.1-0.4,0-0.4-0.1
		c0-0.4-0.4-0.5-0.4-0.9c0-0.1,0-0.2-0.1-0.3c-0.1-0.1-0.2-0.1,0-0.3c0.1,0,0-0.1-0.1-0.2C51.2,98.1,51.1,98,51,98
		c0.1-0.2,0.2-0.3,0.2-0.5c0.1-0.2,0.2-0.5-0.1-0.6c-0.1,0-0.1-0.2,0-0.3c0.1-0.2,0.1-0.3,0-0.5c-0.2-0.3-0.1-0.5,0.1-0.8
		c-0.1-0.1-0.2-0.2-0.3-0.3c-0.2-0.2-0.2-0.5,0-0.7c0.1-0.1,0.1-0.2,0.1-0.3c0-0.2-0.4-0.2-0.2-0.5c0.2-0.2,0-0.4,0-0.5
		c0-0.1,0-0.2-0.2-0.2c-0.1,0,0-0.1,0-0.1c0.1-0.2,0.1-0.4-0.1-0.5c-0.2-0.1-0.1-0.3,0-0.4c0.1-0.1,0.1-0.2,0.1-0.3
		c-0.1-0.2-0.3-0.3-0.1-0.6c0-0.1,0-0.1-0.1-0.1c-0.1-0.1-0.1-0.2,0-0.3c0.1-0.1,0-0.2-0.1-0.3c-0.2-0.1-0.2-0.2,0-0.4
		c0.1-0.1,0.2-0.1,0.3-0.2c-0.2-0.2-0.2-0.2-0.2-0.5c0-0.2,0-0.3,0-0.5c0-0.2,0-0.3,0.2-0.5c0.2-0.1,0.1-0.4,0.1-0.6
		c0-0.2,0-0.3,0.2-0.3c0.1,0,0.2-0.1,0.3-0.2c0.1-0.1,0.1-0.2,0-0.3c-0.1-0.2-0.2-0.4,0.1-0.5c0.1,0-0.1-0.1,0-0.1
		c0.1-0.2,0.2-0.4,0.3-0.6c0.4,0,0-0.4,0.2-0.5c0.2-0.1,0.2-0.2,0.1-0.4c-0.1-0.1,0-0.2,0-0.3c0-0.1,0.2-0.1,0.2-0.1
		c0.2-0.1,0.3-0.1,0.1-0.4c-0.1-0.1-0.1-0.4,0.1-0.5c0.2-0.1,0-0.2,0.1-0.3c0.1-0.1,0.2-0.2,0.3-0.3c0.1-0.1,0-0.1,0-0.2
		c0-0.5,0.1-0.9,0.4-1.2c0.2-0.2-0.2-0.4,0.1-0.5c0.2-0.1,0.3-0.2,0.3-0.4c0-0.3,0.2-0.6,0.3-0.9c0-0.1,0-0.1,0-0.2
		c0.4-0.2,0.3-0.6,0.5-0.9c0.1-0.1,0.2-0.3,0.2-0.5c0-0.1,0-0.1,0-0.2c0.1-0.2,0.6-0.2,0.2-0.6c0.2-0.1,0.3-0.3,0.4-0.5
		c0.1-0.2,0.4-0.4,0.1-0.7c-0.1-0.1,0-0.2,0.1-0.3c0.1,0,0.3-0.2,0-0.2c0,0-0.1,0,0-0.1c0.2-0.3,0.2-0.6,0.4-0.8
		c0.1-0.2,0.4-0.5,0.7-0.4c0.1,0,0.2,0.1,0.2,0.1c0.1-0.2,0.3-0.1,0.4-0.1c0.1,0,0.3-0.2,0.4,0c0.1-0.1,0.2-0.1,0.4-0.1
		c0.1,0,0.2,0,0.3,0c0.1,0.1,0.2,0.3,0.3,0.2c0.2-0.2,0.4,0,0.6-0.2c0.1-0.1,0.4-0.2,0.6-0.1c0.1,0,0.3,0,0.5,0.1
		c0.1,0,0.3-0.1,0.4-0.1c0.1-0.1,0.1,0.1,0.1,0.1c0.2,0,0.3,0.2,0.5,0.1c0.1,0,0.2,0,0.3,0.1c0.1-0.1,0.1-0.2,0.2-0.2
		c0.2-0.1,0.3,0.1,0.5,0c0.2-0.1,0.3,0.1,0.6,0c0.2-0.1,0.4-0.1,0.6,0.1c0.1,0.1,0.1,0,0.1,0c0.3-0.2,0.4-0.2,0.4,0
		c0.1,0.3,0.2,0.2,0.3,0.1c0.1-0.1,0.2-0.1,0.3-0.2c0.1-0.1,0.3-0.3,0.5,0c0,0.1,0.2,0,0.3,0c0.1,0,0.1-0.1,0.2,0
		c0.3,0.3,0.6,0,0.9,0c0.4-0.1,0.3-0.5,0.6-0.7c0,0,0.1-0.2,0-0.3c-0.3-0.3,0-0.6,0.1-0.8c0-0.1,0.1-0.1,0.2-0.2
		c0.1-0.1,0.2-0.3,0.1-0.5c-0.1-0.2-0.1-0.4,0.1-0.6c0.1-0.1,0-0.1,0-0.2c-0.1-0.2,0.1-0.3,0.1-0.4c0.1-0.2,0.2-0.3,0.3-0.5
		c0.1-0.2,0.1-0.2,0-0.3c-0.2-0.1-0.2-0.3,0-0.4c0,0,0.1-0.1,0.1-0.1c0-0.3,0.1-0.5,0.5-0.6c0.1,0,0.1-0.1,0.1-0.2
		c0-0.3-0.1-0.6,0.2-0.9c0,0,0-0.2,0-0.2c0-0.2,0-0.5,0-0.7c0-0.1,0-0.2,0.2-0.2c0.1,0,0.1-0.2,0.1-0.3c-0.2-0.2-0.1-0.3,0-0.4
		c0.2-0.2,0.3-0.5,0.5-0.7c0.2-0.2,0.2-0.5,0.2-0.8c0-0.3-0.2-0.5-0.2-0.7c-0.1-0.3-0.1-0.5-0.3-0.6c-0.1-0.1-0.2-0.2-0.2-0.4
		c0-0.1-0.2-0.2-0.2-0.4c0-0.1-0.2-0.3-0.3-0.4c-0.2-0.1-0.3-0.4-0.2-0.6c0.1-0.2,0-0.3-0.1-0.4c0,0-0.1,0-0.1,0
		c-0.2-0.2-0.5-0.3-0.5-0.5c-0.1-0.3-0.1-0.6,0-0.9c0.2-0.3-0.2-0.4-0.1-0.6c-0.1-0.1-0.2-0.3-0.4-0.3c-0.3,0-0.2-0.2-0.2-0.3
		c0.2-0.2,0.1-0.4-0.1-0.6c-0.1-0.1-0.1-0.2,0-0.4c0.1-0.1,0.2-0.2,0.2-0.3c0-0.1,0.1-0.2-0.1-0.3c-0.2,0-0.3-0.2-0.2-0.3
		c0-0.1,0-0.1,0-0.2c-0.2-0.2-0.4-0.4-0.1-0.7c0,0,0-0.1,0-0.1c-0.2-0.2-0.3-0.3-0.1-0.5c0.1-0.1,0.1-0.3,0-0.3
		c-0.1-0.1-0.2-0.3-0.2-0.4c0.2-0.2-0.2-0.3-0.1-0.5c0.1-0.1,0-0.4,0-0.5c0-0.2,0.1-0.3-0.1-0.4c0,0,0-0.1,0-0.2
		c0.1-0.1,0.1-0.1,0.2-0.2c-0.1-0.1-0.1-0.1-0.1-0.3c0-0.2-0.1-0.4,0.1-0.6c0.1-0.1-0.2-0.3,0-0.5c0.1-0.1,0-0.3,0.1-0.5
		c0-0.1,0-0.1-0.1-0.1c0-0.1-0.2-0.1-0.1-0.3c0.1-0.1-0.1-0.2-0.1-0.3c0,0,0-0.1,0-0.1c0.4-0.2,0.1-0.5,0-0.7
		c-0.1-0.2-0.1-0.4,0-0.5c0.2-0.3,0-0.4-0.1-0.5c-0.1-0.1-0.2-0.2-0.3-0.3c-0.1-0.1-0.1-0.2,0-0.2c0.1-0.1,0-0.1,0-0.1
		c-0.3-0.1-0.5-0.3-0.8-0.5c-0.1-0.1-0.1-0.1-0.1-0.2c0-0.2-0.1-0.3-0.2-0.3c-0.2,0-0.2-0.1-0.2-0.2c0-0.1,0-0.2-0.1-0.1
		c-0.3,0.1-0.4-0.3-0.7-0.2c-0.1,0-0.1,0-0.1-0.1c0-0.1,0-0.2,0-0.3c0-0.1,0-0.2-0.1-0.2c-0.4-0.1-0.6-0.4-0.7-0.7
		c-0.1-0.1-0.1-0.3-0.2-0.2c-0.4,0.1-0.5-0.2-0.6-0.4c-0.1-0.1-0.1-0.2-0.3-0.2c-0.3,0-0.5-0.1-0.7-0.3c-0.1-0.1-0.1-0.3-0.1-0.4
		c-0.1-0.1-0.1-0.2-0.3-0.1c-0.2,0-0.3,0-0.4-0.2c-0.2-0.3-0.4-0.6-0.8-0.8c-0.1-0.1-0.3-0.1-0.4-0.2c-0.2-0.1,0-0.4-0.2-0.4
		c0,0,0-0.1-0.1-0.1c-0.2,0-0.3-0.1-0.4-0.2c-0.1-0.1,0.1-0.3-0.2-0.3c-0.1,0,0-0.2-0.1-0.3c-0.2-0.3-0.5-0.5-0.8-0.6
		c-0.1,0-0.3,0.2-0.4,0C56.1,39,56,38.9,56,38.8c-0.1-0.3-0.3-0.5-0.6-0.6c-0.1-0.1-0.2-0.1-0.3-0.3c0,0,0-0.1-0.1-0.1
		c-0.3,0.1-0.4-0.2-0.5-0.4c-0.1-0.1-0.2-0.1-0.3-0.2c-0.2-0.1-0.4-0.3-0.5-0.6c0-0.2-0.4-0.3-0.5-0.5c0-0.1-0.2-0.1-0.3-0.2
		c0-0.1,0-0.2,0.1-0.3c0,0,0-0.2,0-0.2c-0.1-0.2-0.4-0.3,0-0.5c0-0.2,0-0.4,0.1-0.6c0,0,0-0.1,0.1-0.1c0.3,0.1,0.5-0.1,0.4-0.4
		c0-0.1,0.2-0.1,0.3-0.1c0.3,0,0.1-0.1,0-0.2c0-0.1,0-0.2,0.1-0.2c0.1,0,0.2,0,0.3,0.1c0.1,0.1,0.2,0.1,0.2,0
		c0.2-0.1,0.4-0.3,0.6-0.4c0,0,0.1,0,0.1-0.1c0-0.4,0.1-0.3,0.4-0.2c0.2,0.1,0-0.1,0-0.1c0.1-0.2,0.4-0.4,0.6-0.2
		c0.2,0.2,0.4,0.2,0.6,0.1c0.2-0.1,0.6,0.1,0.7,0.2c0.1,0.1,0.2,0.2,0.3,0.2c0.3-0.1,0.3,0.1,0.3,0.3c0,0.1,0,0.2,0.2,0.2
		c0.1,0,0.2,0.1,0.2,0.3c0,0.1-0.1,0.2,0.1,0.3c0.3,0.1,0.2,0.5,0.5,0.5c0.3,0,0.4,0.4,0.7,0.3c0.1,0,0.2,0.1,0.3,0.3
		c0,0.1,0.1,0.2,0.2,0.2c0.2,0,0.3,0.1,0.3,0.2c0,0.3,0.1,0.3,0.4,0.3c0.1,0,0.3,0.1,0.3,0.2c0,0.4,0.3,0.5,0.5,0.6
		c0.2,0.1,0.3,0.2,0.3,0.4c0,0.1,0.1,0.2,0.2,0.3c0.2,0.1,0.5,0.2,0.4,0.5c0.4,0.1,0.5,0.7,1,0.6c0.1,0,0.1,0.1,0.2,0.2
		c0.1,0.3,0.3,0.6,0.7,0.6c0.1,0,0.3,0,0.3,0.3c0,0.1,0.1,0.2,0.1,0.2c0.1,0.1,0.3,0.3,0.4,0.3c-0.1,0.2,0.1,0.3,0.3,0.4
		c0.1,0,0.1,0.1,0.1,0.2c0,0.2,0.1,0.2,0.3,0.2c0.1,0,0.2,0,0.2,0c0,0,0.1,0,0.1,0c-0.1,0.3,0.2,0.4,0.4,0.6c0,0,0,0.1,0.1,0.1
		c0.5,0.2,0.8,0.5,1,1c0.1,0.1,0.3,0.1,0.3,0.1c0.2-0.2,0.3,0,0.3,0.1c0,0.1,0,0.2,0,0.3c0.1,0.1,0.1,0.4,0.3,0.3
		c0.1,0,0.2,0.1,0.3,0.2c0.1,0.2,0.4,0.2,0.6,0.4c0.1,0.1,0.2,0.1,0.3,0c0.1-0.2,0.3-0.1,0.4-0.1c0.1,0,0.1,0,0.2,0
		c0.2,0.1,0.2-0.3,0.4-0.2c0.1,0.1,0.3,0.1,0.4,0c0,0,0.1-0.1,0.1,0c0.1,0.3,0.3,0.1,0.5,0c0.2-0.2,0.2,0.2,0.3,0
		c0.1-0.1,0.3-0.2,0.3-0.4c0-0.1,0-0.1,0.1-0.1c0.2,0,0.2,0.1,0.4,0.1c0.1,0,0.2-0.3,0.4-0.1c0.1,0.1,0.2,0.1,0.3,0
		c0.1-0.1,0.2-0.2,0.3-0.3c0.1-0.1,0.1-0.1,0.2,0c0.1,0,0.1,0.1,0.1,0c0.1-0.3,0.2-0.5,0.1-0.9c0-0.1,0-0.1,0-0.2
		c0.1-0.1,0.3-0.3,0.4-0.4c0.1-0.1,0-0.3,0.1-0.5c0.1-0.1,0.2-0.3,0.3-0.4c0.2-0.1,0.3-0.3,0.2-0.5c0-0.1,0-0.2,0.1-0.3
		c0.1-0.1,0.1-0.2,0-0.3c0,0,0-0.1,0-0.1c0.3-0.3,0.3-0.8,0.6-1.1c0.2-0.1,0.2-0.4,0.2-0.6c0-0.1,0-0.2,0.2-0.2
		c0.2-0.1,0.3-0.3,0.3-0.6c0-0.2,0-0.4,0.2-0.5c0.1-0.1,0.2-0.2,0.2-0.4c0-0.3,0-0.5,0.3-0.7c0.1-0.1,0.1-0.2,0.1-0.3
		c0-0.2,0-0.4,0-0.5c0-0.2,0-0.3,0.2-0.4c0.1,0,0.1-0.1,0.1-0.2c-0.2-0.2,0-0.3,0.1-0.4c0.1-0.1,0.2-0.2,0.1-0.4
		c-0.2-0.2-0.1-0.3,0.1-0.4c0.1-0.1,0.2-0.1,0.3-0.2c0.1-0.1,0.2-0.2,0-0.2c-0.3-0.2-0.1-0.4-0.1-0.5c0.2-0.3,0.2-0.6,0.2-1
		c0-0.1,0-0.2,0.1-0.2c0.2,0,0.2-0.1,0.2-0.2c0-0.2,0-0.3,0.2-0.5C79.3,29.1,79.2,28.9,79.3,28.7z M70.4,82.3
		c-0.2,0.2-0.2,0.5-0.5,0.4c-0.1,0-0.1,0-0.1,0.1c-0.1,0.2-0.2,0.1-0.4,0c-0.1,0-0.2-0.2-0.3,0c-0.1,0.2-0.4,0.2-0.5,0.1
		c-0.2-0.1-0.3,0-0.5,0c-0.1,0.1-0.2,0.2-0.4,0.1c-0.1-0.1-0.2,0.1-0.3,0.1c-0.2,0.1-0.2,0.1-0.3-0.1c0-0.2-0.1-0.2-0.3-0.3
		c-0.1,0-0.2-0.1-0.2-0.2c0-0.2,0-0.2-0.2-0.3c-0.1,0-0.1-0.2-0.1-0.3c0.1-0.2,0.1-0.4-0.1-0.6c-0.2-0.3-0.2-0.4,0-0.8
		c0.1-0.2,0.1-0.3,0-0.4c-0.2-0.2-0.4-0.4-0.2-0.7c0-0.1,0-0.1-0.1-0.1c-0.1-0.1-0.1-0.2,0-0.2c0.2-0.1,0.1-0.3,0-0.3
		c-0.2-0.1-0.4-0.4-0.7-0.1c0,0-0.1,0-0.2,0c-0.2-0.4-0.5,0-0.8-0.1c-0.1,0-0.1,0-0.1,0.1c0,0.2-0.2,0.2-0.3,0.1
		c-0.4-0.2-0.9-0.1-1.3-0.1c-0.4,0-0.4,0-0.6-0.1c-0.1-0.1-0.3-0.1-0.4,0c-0.1,0.3-0.4,0.1-0.6,0.2c-0.2,0.1-0.5,0-0.6-0.2
		c-0.1-0.1-0.3-0.1-0.4,0c-0.1,0.1-0.2,0.1-0.3,0.1c-0.2,0-0.3,0.2-0.5,0.1c-0.1,0.2-0.1,0.4-0.4,0.4c0,0,0,0.1,0,0.1
		c0,0.2-0.1,0.3-0.3,0.4c-0.1,0-0.1,0.2-0.1,0.2c-0.2,0.3,0,0.7-0.3,1c-0.1,0.1,0.2,0.2,0.1,0.3c-0.1,0.1-0.2,0.1-0.3,0.2
		c-0.1,0.1-0.1,0.3,0,0.3c0.2,0.2,0,0.3-0.1,0.4c-0.1,0.2-0.4,0.3-0.3,0.5c0.1,0.3,0,0.6-0.3,0.8c-0.1,0.1-0.1,0.1,0,0.2
		c0.2,0.2,0,0.3-0.1,0.4c-0.2,0.2-0.4,0.4-0.4,0.5c0,0.2-0.1,0.4,0.1,0.5c-0.1,0.1-0.3,0.2-0.3,0.4c0,0.1-0.1,0.2-0.1,0.4
		c0,0,0.1,0.1,0.1,0.1c-0.3,0.2-0.3,0.6-0.5,0.9c-0.1,0.1,0,0.2,0.1,0.2c0.1,0,0.2,0,0.2,0c0.2,0.3,0.5,0.3,0.7,0.1
		c0.2-0.1,0.2-0.1,0.3,0c0.2,0.2,0.3,0.2,0.5,0c0.1-0.1,0.2-0.1,0.3,0c0.2,0.1,0.5,0.3,0.8,0.1c0,0,0.1,0,0.1,0
		c0.2,0.3,0.3,0.1,0.5,0c0.1,0,0.2,0,0.2,0c0.1,0.1,0.3,0.2,0.4,0c0,0,0.1-0.1,0.1,0c0.1,0.2,0.3,0.2,0.5,0.1c0.1,0.2,0.3,0,0.5,0.1
		c0.1,0.1,0.3-0.2,0.5,0.1c0,0,0.1,0,0.2,0c0.3-0.2,0.7-0.1,1-0.1c0.1,0,0.2,0,0.3,0.1c0.2,0.3,0.5,0.2,0.8,0.1
		c0.2-0.1,0.4,0,0.4-0.1c0.1-0.2,0.2,0,0.4-0.1c0.1-0.1,0.2,0.2,0.4,0.2c0.1,0,0.3,0.1,0.4,0c0.2-0.1,0.4-0.1,0.6-0.1
		c0.3,0.2,0.5,0.1,0.7-0.1c0.2-0.1,0.2-0.1,0.3,0c0.1,0.1,0.2,0.2,0.4,0.1c0.1,0,0.1,0.2,0.2,0.1c0.2-0.2,0.3-0.1,0.5,0
		c0.2,0.1,0.4,0.1,0.6-0.1c0.1-0.1,0.3-0.1,0.4,0c0.2,0.2,0.4,0.2,0.6,0.1c0.1-0.1,0.3-0.2,0.3-0.1c0.2,0.2,0.2,0,0.3,0
		c0,0,0.1,0,0.2,0c0.2,0.1,0.4,0.2,0.6,0.3c0.1-0.1,0.2-0.2,0.3-0.3c0.1-0.1,0.1-0.1,0.2-0.1c0.2,0.2,0.5,0.1,0.7,0.3
		c0.1,0.1,0.1,0.1,0.3,0c0.2-0.2,0.3-0.2,0.6,0c0.1,0,0.2,0.2,0.3,0.1c0.2-0.2,0.5-0.1,0.7-0.2c0.2-0.1,0.2-0.3,0.5-0.3
		c0.2,0.1,0.3,0.2,0.4,0.4c0.1,0.1,0.3,0.2,0.4,0.1c0.1-0.1,0.3-0.1,0.3-0.2c0.1-0.2,0.2-0.3,0.3-0.1c0.5,0,1.1,0.2,1.6,0.1
		c0.2,0,0.4,0,0.5-0.2c0.1-0.1,0.1,0,0.2,0c0.2,0.1,0.5,0.2,0.7,0.3c0.5,0.3,0.5,0.2,0.9,0.8c0.1,0.2,0,0.2,0,0.3
		c-0.1,0.1-0.2,0.1-0.3,0.2c-0.1,0.2,0.1,0.2,0.2,0.3c0,0.1,0,0.1,0,0.2c0,0.4,0,0.6,0.2,0.9c0.1,0.2,0.1,0.2,0,0.3
		c-0.1,0.1-0.1,0.1,0,0.2c0.1,0.1,0.3,0.3,0,0.3c-0.1,0-0.1,0.2-0.2,0.3c0,0.2,0.2,0.2,0.2,0.3c0,0-0.1,0.1-0.1,0.1
		c-0.2,0.2-0.3,0.5-0.5,0.6c-0.2-0.2-0.5-0.2-0.7-0.3c0,0,0,0,0,0c-0.3,0-0.6-0.1-0.8,0.2c-0.1,0.1-0.2,0.1-0.4,0
		c-0.2-0.1-0.4-0.2-0.6-0.1c-0.1,0.1-0.3,0.1-0.5-0.1c-0.1-0.1-0.2-0.1-0.3,0c-0.3,0.1-0.6,0.1-0.8,0.2c-0.2,0.1-0.3,0.1-0.4,0
		c-0.2-0.1-0.4-0.1-0.6-0.2c-0.1-0.1-0.3-0.1-0.4,0.1c-0.2,0.3-0.5,0.2-0.7,0.1c-0.2-0.1-0.5-0.1-0.6,0c-0.2,0.2-0.3,0.2-0.5,0
		c-0.2,0.1-0.4,0.1-0.6-0.1c0,0-0.1,0.1-0.1,0.1c-0.2,0-0.4,0.1-0.5,0c-0.2-0.1-0.3-0.1-0.4,0c-0.1,0.1-0.1,0.1-0.2,0.1
		c-0.3,0-0.5,0-0.7-0.1c-0.1-0.1-0.3-0.2-0.4-0.1c-0.2,0.1-0.3,0.1-0.5,0c-0.1-0.1-0.2,0-0.3,0c-0.3,0.1-0.6,0.3-0.9,0.1
		c-0.1,0-0.2,0-0.2,0c-0.1,0.1-0.2,0-0.3,0c-0.2-0.1-0.2-0.2-0.4-0.3c-0.1,0-0.3-0.2-0.4-0.1c-0.1,0.1-0.4-0.1-0.5,0.1
		c-0.1,0.1-0.2,0.1-0.3,0.1c-0.2,0-0.3-0.1-0.4,0.1c0,0-0.2,0-0.2,0c-0.1-0.1-0.2-0.2-0.3-0.2c-0.1,0-0.2,0.1-0.3,0
		c-0.1-0.1-0.3,0.1-0.5-0.1c0,0-0.1,0-0.1,0c-0.3,0.1-0.6,0.1-0.9,0c-0.1-0.1-0.2,0-0.3,0c-0.3,0.1-0.7,0.2-1-0.1
		c-0.1-0.1-0.4-0.1-0.6,0c-0.4,0.1-0.7,0.3-1.1,0.1c-0.1,0-0.2,0-0.2,0c-0.1,0.1-0.3,0-0.4,0c-0.1,0-1.1-0.2-1.2-0.2
		c-0.1,0-0.2,0-0.2,0.1c-0.1,0.1-0.2,0.1-0.3,0.1c-0.2,0-0.4-0.1-0.6-0.2c-0.4-0.2-0.8,0.1-0.8,0.5c0,0.2-0.1,0.5,0.2,0.6
		c0.1,0.1,0.1,0.2,0,0.3c0,0.1-0.1,0.3-0.2,0.3c-0.1,0.1-0.1,0.2,0,0.3c0.1,0.1,0.2,0.2,0.1,0.4c-0.1,0.1,0.1,0.3,0.1,0.5
		c0.1-0.2,0.3,0.2,0.5-0.1c0-0.1,0.1-0.1,0.2,0c0.2,0.2,0.4,0.4,0.6,0.1c0,0,0.1,0,0.1,0.1c0.1,0,0.3,0.2,0.4,0.2
		c0.4,0.3,0.8,0.2,1.1,0c0.1-0.1,0.2-0.3,0.4-0.3c0.2,0.1,0.3,0.3,0.5,0.4c0.1-0.1,0.2-0.2,0.2-0.2c0.1,0,0.1-0.2,0.2-0.1
		c0.2,0.2,0.3-0.1,0.4,0c0.2,0.1,0.4,0.4,0.7,0.1c0,0,0.1,0.1,0.1,0.1c0.1,0.1,0.2,0.1,0.3,0c0.1-0.1,0.2-0.2,0.3,0
		c0,0.1,0.2,0.1,0.2,0.1c0.2-0.1,0.3,0,0.4,0.1c0.2,0.2,0.2,0.2,0.5,0c0.2-0.1,0.4-0.3,0.7-0.2c0.2,0.1,0.5,0,0.7,0.2
		c0.3,0.3,0.5-0.2,0.8,0c0,0,0.1,0.1,0.1,0.1c0.3-0.1,0.5,0.3,0.8,0.1c0,0,0.1,0,0.2,0c0.2,0.2,0.3,0.1,0.5-0.1
		c0.2-0.2,0.5-0.4,0.8-0.1c0.1,0.1,0.3,0.1,0.4,0c0.2-0.1,0.3-0.1,0.4,0.1c0.1,0.1,0.3,0.1,0.3,0.2c0.1,0.2,0.2,0.2,0.4,0
		c0.1-0.1,0.3-0.4,0.5-0.1c0,0,0.1,0,0.1,0c0.3-0.2,0.6-0.1,0.8,0c0.1,0.1,0.2,0,0.3,0c0.2,0,0.2-0.3,0.4-0.2
		c0.2,0.1,0.3,0.1,0.4,0.2c0.2,0.1,0.3,0.2,0.5,0c0.1-0.1,0.1,0,0.2,0c0.1,0.1,0.2,0.1,0.4,0c0.1-0.1,0.3-0.1,0.4,0
		c0.1,0.1,0.1,0,0.1,0c0.3-0.2,0.4-0.2,0.7,0c0.1,0.1,0.2,0.2,0.3,0.3c0.1,0.1,0.1,0.1,0.2,0c0.1-0.1,0.3-0.1,0.3-0.2
		c0.1-0.1,0.2-0.2,0.3,0c0.2,0.2,0.3,0.2,0.5,0c0.1-0.1,0.1-0.1,0.2,0c0.1,0.1,0.2,0.1,0.4,0.2c0.2,0,0.5,0.2,0.6-0.1
		c0.2,0,0.4-0.5,0.7,0c0,0,0.2,0,0.3,0c0.1,0,0.3,0,0.3,0c0.2,0.3,0.5,0.1,0.7,0c0.1,0,0.2,0,0.3,0c0.5,0.1,0.5,0.1,0.9,0
		c0.1,0,0.1,0,0.2,0c0.1,0.1,0.2,0.1,0.3,0.2c0.2,0.1,0.5,0.1,0.6-0.1c0.2-0.2,0.2-0.2,0.4-0.1c0.1,0.1,0.3,0.1,0.4,0.2
		c0.1,0.1,0.2,0.1,0.3,0c0.2-0.2,0.4-0.2,0.6-0.1c0.1,0.1,0.2,0,0.3,0c0.1-0.2,0.2-0.2,0.4,0c0.2,0.2,0.5,0.3,0.7,0.1
		c0.1,0,0.1-0.1,0.2,0c0.2,0.1,0.3,0,0.2-0.2c-0.1-0.4,0-0.8,0.3-1.1c0.1-0.1,0.1-0.3,0-0.4c-0.1-0.1-0.3-0.3-0.4-0.4
		c0.1-0.1,0.1-0.3,0.3-0.4c0.1-0.1,0.1-0.3,0-0.4c0-0.1-0.2-0.1-0.2-0.3c0-0.1,0.2-0.2,0.1-0.3c0-0.1,0-0.2,0-0.4
		c0-0.3,0-0.3,0.1-0.5c0.1-0.1,0.2-0.2,0-0.4c0.1-0.2-0.2-0.3,0-0.4c0.2-0.1,0.2-0.3,0-0.4c-0.1-0.1-0.2-0.3-0.1-0.5
		c0-0.2,0-0.5,0-0.7c0-0.2,0.1-0.4,0.2-0.5c0.3-0.3,0.2-0.6,0.1-0.9c0-0.1-0.1-0.2,0-0.2c0.2-0.2,0.1-0.4,0.1-0.6
		c0-0.2,0.1-0.3,0.3-0.2c0.1,0,0.1,0.2,0.2,0.3c0.1-0.3,0.1-0.4,0-0.5c-0.2-0.2-0.3-0.5-0.1-0.7c0-0.1,0-0.6-0.1-0.7
		c-0.2-0.2-0.2-0.5-0.1-0.7c0.1-0.1,0.1-0.3,0-0.4c-0.2-0.2-0.2-0.5-0.1-0.7c0.1-0.1,0-0.2,0-0.4c-0.1-0.2-0.3-0.4,0-0.6
		c0.1,0,0-0.1,0.1-0.2c0-0.4,0-0.6-0.3-1.2c0-0.1,0-0.2,0-0.3c0-0.2,0.1-0.3-0.1-0.4c-0.1,0,0-0.1,0-0.1c0.1-0.1,0.1-0.3,0-0.4
		c-0.1-0.1,0.2-0.2,0.1-0.3c-0.1-0.1-0.1-0.2-0.2-0.3c-0.1-0.1,0.1-0.1,0.1-0.2c0-0.2,0-0.3-0.2-0.2c-0.5,0.1-0.9,0.2-1.3-0.1
		c-0.1-0.1-0.2,0-0.2,0.1c-0.1,0.2-0.3,0.1-0.4,0c-0.3-0.3-0.4-0.3-0.7,0c-0.1,0.1-0.2,0.2-0.4,0.3c-0.1-0.1-0.1-0.2-0.2-0.3
		c-0.1-0.2-0.4-0.2-0.5-0.1c-0.2,0.2-0.4,0.3-0.6,0.1c-0.2,0.2-0.4,0.1-0.6,0.1c-0.2,0-0.4,0-0.6,0.1c-0.2-0.2-0.4,0.1-0.6,0
		c-0.1,0-0.2,0-0.2,0c-0.1-0.2-0.3-0.3-0.4,0c0,0.1-0.1,0.1-0.2,0c-0.3-0.3-0.5-0.1-0.7,0c-0.1,0.1-0.2,0.1-0.2,0
		c-0.1-0.2-0.3-0.2-0.5-0.1c-0.1,0-0.1,0.1-0.2,0.1c-0.2,0-0.2-0.3-0.4-0.2c-0.2,0-0.2,0.3-0.4,0.2c-0.1,0-0.1,0-0.2,0
		c-0.1-0.1-0.2-0.1-0.3,0c-0.1,0-0.2,0.1-0.4,0.1c-0.1,0-0.2,0.1-0.3,0c-0.1-0.3-0.3-0.3-0.5-0.3c-0.2,0-0.4-0.2-0.6,0.1
		c0,0.1-0.1,0-0.2,0c-0.2,0-0.3,0-0.5,0.2c-0.1,0.1-0.2,0.1-0.3,0c-0.1-0.1-0.2-0.1-0.3-0.1c-0.1,0-0.1,0-0.1,0.1
		c0.1,0.3,0.2,0.5,0,0.8c0,0,0,0.1,0.1,0.1c0.2,0.2,0.2,0.3,0,0.5c-0.1,0.1-0.1,0.2,0.1,0.3c0.1,0,0.1,0.1,0.1,0.1
		c0,0.1,0,0.1,0,0.2c-0.2,0.3-0.3,0.5,0.1,0.8c0.1,0,0.1,0.1,0.1,0.2c-0.2,0.2-0.1,0.4,0,0.5c0.1,0.1,0,0.1-0.1,0.2
		c-0.3,0.3-0.7,0.3-1,0.5c-0.1,0.1-0.3,0.1-0.4-0.1C70.6,82.4,70.5,82.4,70.4,82.3z"/>
	<path d="M41.6,50.5c-0.3,0.2-0.4,0.6-0.7,0.7c-0.1,0.1,0,0.1,0,0.2c0,0.2,0.2,0.4,0.1,0.5C41,52.1,41,52.2,41,52.4
		c0,0.2-0.1,0.3-0.2,0.5c-0.1,0.1-0.1,0.2-0.1,0.3c0.1,0.3,0,0.5-0.2,0.7c-0.2,0.1-0.2,0.3-0.1,0.5c0.1,0.1,0.1,0.2,0,0.3
		c0,0-0.1,0.1-0.1,0.1c0.3,0.3,0,0.5-0.2,0.7C40.1,55.7,40,55.8,40,56c0,0.3-0.1,0.5,0,0.8c0,0.1,0,0.3-0.1,0.4
		c-0.1,0.1-0.2,0.3-0.1,0.5c0,0.1-0.1,0.2-0.1,0.3c-0.1,0.2-0.3,0.4-0.1,0.6c0.1,0.1-0.1,0.2-0.1,0.2c-0.1,0.1-0.2,0.2,0,0.4
		c0.1,0.1,0.2,0.3-0.1,0.4c0,0-0.1,0.1-0.1,0.1c0,0-0.1,0.1-0.1,0.1c0.1,0.4-0.3,0.6-0.2,1c0,0.1,0.1,0.1,0,0.1
		c-0.2,0.1-0.2,0.3-0.1,0.5c0,0.1,0,0.2-0.1,0.3c-0.1,0.1-0.1,0.3-0.2,0.4c-0.1,0.1-0.1,0.2-0.1,0.3c0.2,0.2,0,0.3,0,0.5
		c-0.1,0.4,0,0.4-0.2,0.6c-0.2,0.1,0,0.2,0,0.3c0,0.1,0.1,0.2,0,0.4c-0.2,0.2-0.3,0.7-0.2,1c0,0.1-0.2,0.2-0.1,0.3
		c-0.2,0.1-0.2,0.4-0.4,0.5c-0.1,0.1-0.1,0.1-0.1,0.2c0,0.2,0,0.4,0,0.6c0,0,0,0,0,0c-0.4,0.1-0.4,0.4-0.6,0.6c-0.1,0.1-0.2,0-0.3,0
		c-0.2,0-0.4,0.2-0.6,0c-0.1-0.1-0.2,0.1-0.2,0.1c-0.1,0.1-0.3,0.1-0.4,0c-0.2-0.3-0.5-0.2-0.7-0.1c-0.3,0.2-0.5,0-0.6-0.1
		c-0.2-0.1-0.3-0.1-0.5-0.1c-0.1,0-0.4,0-0.4-0.2C33.1,67,33.1,67,33,67.1c-0.1,0.1-0.2,0.1-0.2-0.1c-0.1-0.2-0.2-0.5-0.4-0.7
		c-0.1-0.1-0.1-0.2,0-0.2c0,0,0-0.1,0-0.1c0-0.8,0-0.8,0.4-1.3c0.1-0.1,0.1-0.2,0-0.3c-0.1-0.1-0.1-0.2,0-0.3c0.1-0.1,0.1-0.2,0-0.3
		c0,0,0-0.1,0-0.2c0-0.1,0.3-0.2,0.2-0.3c-0.2-0.2,0.1-0.3,0.1-0.4c0.1-0.3,0.1-0.7,0.3-1.1c0,0,0-0.1,0-0.1c0-0.2-0.2-0.3-0.1-0.5
		c0.1-0.1,0.2-0.2,0.3-0.3c0-0.1,0.1-0.2,0-0.2c-0.2-0.2,0-0.3,0-0.4c0,0,0.1,0,0-0.1c-0.4-0.3,0-0.6,0.2-0.8c0.1-0.1,0.1-0.2,0-0.3
		c-0.1-0.1,0-0.3,0.1-0.5c-0.4,0-0.8,0-1.1-0.3c0,0,0,0,0,0c-0.3,0.1-0.4-0.2-0.6-0.3c-0.2-0.1-0.4-0.3-0.6-0.4
		c-0.2-0.1-0.3-0.2-0.5-0.3c0,0-0.1,0-0.1,0c-0.4,0-0.4,0-0.7-0.2c-0.1-0.1-0.4-0.1-0.5-0.3c0,0-0.1,0-0.1,0
		c-0.6,0.3-0.9-0.2-1.2-0.4c0,0,0,0,0,0c-0.2,0.1-0.2,0.4-0.4,0.5c-0.1,0.1-0.1,0.2,0,0.3c0.2,0.3,0.1,0.4-0.1,0.6
		c-0.1,0.1-0.2,0.4-0.1,0.5c0.2,0.2-0.1,0.3,0,0.5c0.1,0.2,0,0.3-0.2,0.4c-0.2,0.1-0.2,0.1-0.1,0.3c0.1,0.1,0.1,0.2-0.1,0.2
		c-0.1,0-0.3,0.1-0.2,0.3c0,0.2-0.3,0.3-0.1,0.5c0.2,0.2,0,0.3-0.1,0.4c0,0-0.1,0-0.2,0.1c-0.1,0.1-0.2,0.2,0,0.3
		c0.1,0.1,0.1,0.2,0,0.2c-0.3,0.2-0.2,0.4-0.2,0.7c0,0.2-0.1,0.3-0.2,0.3c-0.2,0-0.4,0.1-0.5,0.3c0,0,0,0-0.1,0
		c-0.2-0.2-0.3,0.1-0.4,0.1c-0.1,0-0.2,0.2-0.1,0.4c0.1,0.2,0.3,0.3,0.3,0.5c0,0.1,0.3,0.1,0.2,0.3c-0.2,0.3,0.3,0.3,0.2,0.6
		c0.3,0.2,0.3,0.6,0.2,0.9c-0.1,0.2-0.1,0.2,0.1,0.5c0.1,0.1,0,0.1,0,0.2c0,0.2-0.1,0.5,0.1,0.7c-0.2,0.2,0,0.4,0.1,0.5
		c0.1,0.2,0.2,0.3,0.2,0.5c0,0.1,0,0.2,0,0.2c0.2,0.2,0.3,0.3,0.1,0.6c0,0,0,0.2,0.1,0.2c0.1,0,0.1,0.1,0.1,0.2c0,0-0.1,0.1-0.1,0.1
		c0.3,0.2,0.2,0.5,0.2,0.7c0,0.1,0.2,0.2,0.1,0.3c-0.2,0.1-0.2,0.2,0,0.4c0.1,0.1,0,0.3,0.1,0.5c0,0.2-0.1,0.2-0.3,0.3
		c-0.3,0.1-0.3,0.4-0.6,0.6c-0.2,0.1-0.4,0.2-0.5,0.3c-0.1,0.1-0.2,0.1-0.3,0c0,0-0.1-0.1-0.1,0c-0.2,0.4-0.4,0.1-0.7,0
		c-0.2,0.1-0.3,0.3-0.5,0.4c-0.3,0.1-0.3,0.2-0.5,0c-0.1,0-0.2,0-0.3-0.1c-0.1-0.1-0.2-0.1-0.2,0.1c0,0.2,0,0.4-0.3,0.2
		c0,0-0.1,0-0.1,0c-0.1,0.1-0.2,0.1-0.3,0.1c-0.1-0.1-0.2-0.2-0.2-0.3c0-0.2-0.1-0.2-0.2-0.3c-0.2-0.2-0.5-0.5-0.5-0.9
		c0-0.1-0.1-0.2-0.1-0.2c-0.1-0.1-0.2-0.2,0-0.3c0.2-0.2-0.2-0.3-0.1-0.4c0.1-0.1,0.1-0.3,0.1-0.4c0-0.2-0.2-0.1-0.2-0.2
		c0-0.2-0.1-0.5,0.1-0.7c0.1-0.1,0.1-0.2-0.1-0.2c-0.2,0-0.3,0-0.2-0.2c0-0.2-0.1-0.4-0.2-0.6c-0.1-0.1-0.2-0.2-0.1-0.4
		c0.1-0.3,0.1-0.5,0.2-0.8c0.1-0.3-0.1-0.5-0.4-0.6c-0.1,0-0.2,0-0.2-0.1c-0.1-0.2-0.3-0.3-0.5-0.3c-0.2,0-0.3,0-0.4-0.2
		c-0.2-0.2-0.4-0.4-0.7-0.4c-0.1,0-0.1,0-0.1-0.1c0-0.2-0.4-0.2-0.4-0.5c0,0-0.2,0-0.4,0c0.1,0.1,0.3,0.2,0.3,0.3
		c0,0.2,0.1,0.1,0.2,0.2c0.2,0.1,0.3,0.3,0.3,0.5c0,0.2,0,0.4,0,0.6c0.1,0,0.2-0.1,0.4-0.1c0.2,0,0.1,0.2,0.2,0.3
		c0.1,0.1,0,0.3,0.2,0.4c0,0,0,0.1,0,0.1c-0.4,0-0.1,0.6-0.4,0.7c-0.1,0,0,0.1,0,0.2c0.1,0.1,0.2,0.3,0.1,0.5c-0.1,0.2,0,0.4,0,0.7
		c0,0.3,0,0.3,0.3,0.3c0,0,0,0.1,0,0.1c-0.4,0.3-0.5,0.4-0.4,0.8c0,0.4,0,0.5-0.2,0.8c-0.1,0.1-0.1,0.3,0,0.3c0.4,0.3,0.2,0.7,0.2,1
		c0,0.2,0,0.6,0.1,0.8c0.1,0.2,0.1,0.5,0,0.7c-0.1,0.2-0.1,0.5,0.1,0.7c0.1,0.1,0.1,0.3,0,0.4c-0.2,0.2-0.2,0.2-0.2,0.6
		c0,0.1,0,0.2,0,0.3c0,0.1,0,0.2-0.1,0.1c-0.1,0-0.3,0.2-0.4,0c0,0-0.1,0-0.1,0.1c0,0.2-0.1,0.3-0.3,0.3c-0.1,0-0.2,0-0.2,0.1
		c-0.1,0.2-0.2,0.1-0.3,0c-0.1-0.1-0.2-0.2-0.3,0c-0.1,0.1-0.2,0-0.3,0.1c-0.1,0.2-0.2,0.1-0.3,0c-0.1-0.1-0.1-0.2-0.2,0
		c-0.1,0.2-0.3,0.1-0.4,0c-0.1-0.1-0.2-0.1-0.3-0.2c-0.1,0-0.1,0-0.2,0c-0.1,0,0,0.4-0.3,0.2c-0.2-0.2-0.3,0.1-0.4,0.1
		c-0.1,0-0.2,0-0.2-0.2c0-0.4,0.1-0.7-0.2-1.1c0,0,0-0.1,0-0.1c-0.1-0.2,0.2-0.2,0.1-0.4c-0.1-0.1-0.2-0.3-0.2-0.4
		c0-0.2,0-0.3,0-0.5c-0.1-0.2-0.1-0.3,0.1-0.4c0.1-0.1,0.1-0.3,0.1-0.4c-0.1-0.2-0.2-0.3,0-0.5c0,0,0-0.1,0-0.2
		c-0.3-0.3-0.3-0.6-0.1-0.9c0.1-0.1,0-0.2-0.1-0.4c-0.1-0.1-0.2-0.3,0-0.5c0.1-0.1,0.1-0.2-0.1-0.2c-0.3,0-0.5-0.3-0.8,0
		c0,0-0.2,0.1-0.3,0c-0.1-0.1-0.3-0.1-0.4-0.1c-0.1,0-0.3,0.1-0.1,0.3c0,0,0.1,0.1,0.1,0.1c0,0.3-0.2,0.6,0.1,0.8c0,0,0,0.1,0,0.1
		c-0.2,0.1-0.2,0.3-0.2,0.5c0,0.2,0,0.3-0.1,0.4c-0.1,0.1,0.2,0.2,0.1,0.4c0,0.1,0,0.3-0.1,0.4c-0.1,0.1-0.1,0.2,0,0.3
		c0.2,0.4,0.2,0.9,0.3,1.3c0.1,0.4,0.1,0.8,0.1,1.3c0,0.6-0.3,1-0.7,1.3c-0.1,0.1-0.3,0.2-0.4,0.4c0,0.2-0.2,0.1-0.3,0.2
		c-0.1,0.1-0.2,0-0.3-0.1c-0.1,0-0.1-0.1-0.2-0.1c-0.3,0-0.5-0.3-0.8,0.1c0,0-0.2,0.2-0.4,0c-0.1-0.1-0.2,0-0.3,0.1
		c-0.1,0.1-0.3,0.2-0.5,0c-0.1-0.1-0.2-0.1-0.2,0c-0.2,0.2-0.3,0.1-0.5-0.1c-0.2-0.1-0.3-0.2-0.3-0.4c0-0.1-0.1-0.2-0.2-0.2
		c-0.1,0-0.2-0.1-0.3-0.2C7,76.8,6.9,76.8,7,76.5c0.1-0.2,0.1-0.5-0.1-0.8c0,0,0-0.2,0-0.2c0.2-0.3,0-0.6,0-0.9c0-0.2-0.1-0.3,0-0.5
		c0.1-0.2-0.1-0.3-0.2-0.4c-0.1-0.1-0.1-0.1,0-0.2c0.2-0.2,0.2-0.6,0-0.8c-0.1-0.1-0.1-0.2,0-0.3c0.1-0.1,0-0.3,0-0.4
		c0-0.2-0.1-0.4,0.1-0.6c0.1-0.1,0-0.2-0.1-0.2c-0.2-0.1-0.2-0.3,0-0.5c0.1-0.2,0.1-0.4,0-0.6c-0.1-0.1-0.1-0.3-0.1-0.5
		c0-0.2-0.1-0.3-0.3-0.3c-0.3,0-0.6,0-0.9-0.1c-0.2-0.1-0.3,0-0.2,0.2c0.1,0.3-0.1,0.5,0,0.7c0.1,0.1,0.1,0.2,0,0.3
		C5,70.6,5,70.7,5,70.7c0.3,0.3,0,0.7,0.2,0.9c0.1,0.1-0.1,0.3-0.1,0.4c-0.1,0.2-0.2,0.5,0,0.7c0.1,0.2-0.1,0.5,0.2,0.7
		c0,0,0,0.1,0,0.2c-0.1,0.1-0.3,0.3-0.4,0.4c-0.1,0.1,0,0.4-0.1,0.5c0,0,0,0.1,0,0.1c-0.2,0.3-0.3,0.3-0.5,0.1
		c-0.2-0.2-0.3-0.2-0.4,0c0,0.1,0,0.2-0.2,0.2c-0.1,0-0.2,0.2-0.3,0c0-0.1-0.1-0.1-0.1-0.1c-0.1-0.1-0.2,0-0.3,0
		c-0.2,0.1-0.5,0-0.7,0.2c0,0.1-0.1,0-0.2,0c-0.2-0.1-0.2-0.4-0.3-0.5c0,0-0.1,0-0.1,0c-0.1,0.1-0.2,0.3-0.3,0.2
		c-0.2-0.1-0.4-0.2-0.6-0.3c0-0.3-0.3-0.4-0.4-0.6C0.1,73.5,0,73.3,0.2,73c0.1-0.1,0.1-0.3,0-0.4c0-0.1-0.2-0.2-0.2-0.2
		c0.2-0.3-0.1-0.7,0.2-1c0-0.1,0.1-0.1,0-0.2c-0.1-0.2,0-0.4,0-0.6c0-0.2-0.1-0.5,0-0.7c-0.2-0.2,0-0.4,0-0.6c0-0.3,0.2-0.6-0.1-0.9
		c0.2-0.4-0.3-0.8,0.1-1.2c0.1-0.1,0-0.1-0.1-0.2c-0.1-0.2,0-0.3,0-0.5c0.3-0.2,0.1-0.4,0.1-0.6c0-0.3-0.1-0.6,0.2-0.8
		c0.1-0.1,0-0.1,0-0.2c0-0.3,0.2-0.6,0.4-0.7c0.3-0.1,0.5-0.4,0.7-0.6c0.2,0.4,0.3,0.4,0.8,0.4c0.2,0,0.4,0.2,0.5,0
		C3,63.7,3.1,64,3.2,63.9c0.2,0,0.2-0.2,0.3-0.2c0.1,0,0.1,0,0.2,0.1c0.1,0.1,0.2,0.2,0.4,0.1C4.2,63.8,4.1,64,4.2,64
		c0.2,0.1,0.4,0.2,0.6,0.4c0.1,0.1,0.3,0,0.5,0c0.2,0,0.4-0.1,0.6,0.1c0.2,0.1,0.3-0.2,0.6-0.1c0,0,0.1,0.1,0.1,0.1
		c0.1,0.2,0.2,0.4,0.5,0.2c0.1-0.1,0.4,0,0.5,0.1c0.1,0.1,0.2,0.1,0.3,0c0,0,0.1,0,0.1,0c0.2,0,0.2,0.3,0.4,0.2c0.1,0,0.2-0.1,0.3,0
		c0.1,0.1,0.2,0.1,0.3,0C8.9,65,9,65,9.1,65.1c0.1,0.1,0.2,0.1,0.3,0c0.1-0.1,0.2-0.2,0.4-0.1c0.2,0.1,0.5,0.3,0.7,0
		c0.1-0.1,0.2,0.2,0.4,0c0.1-0.2,0.2-0.1,0.4-0.1c0.1,0,0.3-0.1,0.4-0.1c0.1,0,0.3-0.1,0.4-0.1c0.1,0,0.1,0,0.2,0
		c0.2-0.1,0.2-0.4,0.5-0.1c0.2-0.1,0.4-0.1,0.5-0.1c0.2,0,0.4,0,0.5-0.2c0.1-0.1,0.3-0.2,0.5-0.2c0.1,0,0.2,0,0.2,0
		c0.1-0.1,0.2-0.1,0.1-0.2c0-0.1-0.2-0.1-0.3-0.1c-0.1,0-0.3,0.1-0.3,0.2c-0.2,0.2-0.3,0.2-0.5,0c-0.1-0.1-0.2-0.1-0.3-0.1
		c-0.2,0-0.4,0-0.5,0.1c-0.2-0.2-0.3,0-0.5,0c-0.1,0-0.2,0-0.3-0.1c-0.1-0.1-0.2-0.2-0.3-0.3c-0.2,0.1-0.3,0.4-0.6,0.2
		c0,0-0.1-0.1-0.1,0c-0.3,0.2-0.6,0-0.8-0.1c-0.1-0.1-0.3,0.1-0.3,0.1c-0.1-0.1-0.2,0-0.3-0.1c-0.2-0.1-0.4,0.2-0.6,0
		c-0.1-0.2-0.4,0-0.5-0.3c0-0.1-0.1-0.1-0.2,0c-0.1,0.2-0.3,0.1-0.5,0.1c-0.3,0.1-0.5-0.2-0.6-0.3C7,62.9,6.9,62.8,6.8,63
		c0,0-0.1,0-0.2,0c-0.3-0.4-0.8-0.3-1.2-0.4c-0.2-0.1-0.6-0.3-0.8-0.5c-0.1-0.1-0.1-0.1-0.2-0.1c-0.2,0-0.2-0.2-0.3-0.3
		c0-0.2-0.1-0.4-0.4-0.4c-0.1,0-0.2-0.1-0.1-0.2c0-0.2-0.2-0.2-0.1-0.4c0-0.2-0.1-0.2-0.2-0.3c-0.4-0.1-0.4-0.5-0.6-0.7
		c-0.1-0.3,0.1-0.4,0.2-0.7c0,0,0,0,0,0c-0.1-0.2-0.3-0.3-0.4-0.5c0.2-0.2,0.1-0.4,0.2-0.6c0.1-0.2,0.2-0.4,0.1-0.7
		c-0.1-0.2-0.1-0.5,0.1-0.7c0.1-0.1,0.2-0.2,0-0.3c0,0,0-0.1,0-0.2c0.1-0.2,0.3-0.4,0-0.5c0.3-0.1,0-0.3,0.1-0.4
		c0,0,0.1-0.1,0.1-0.1c0-0.2,0.1-0.4,0-0.5c-0.2-0.2,0.1-0.2,0-0.3c-0.1-0.1,0.1-0.3-0.1-0.4c0,0,0,0,0-0.1C2.9,53.3,3,53,2.9,52.7
		c-0.1-0.2,0.1-0.4,0.2-0.6c0.1-0.2,0.2-0.3,0.1-0.5c-0.1-0.1-0.1-0.4,0-0.4c0.3-0.3,0.2-0.5,0-0.7c0,0,0-0.1,0-0.2
		c0.2-0.2,0.3-0.3,0.2-0.6c0,0,0-0.1,0.1-0.1c0.3-0.4,0.3-0.4,0.2-0.9c0-0.1,0-0.2,0-0.2c0.3-0.2,0.2-0.6,0.4-0.9
		c0-0.1,0.1-0.2,0.2-0.3c0.1-0.1,0.2-0.1,0.1-0.2c-0.1-0.4,0.2-0.6,0.4-0.9c0.2-0.2,0.2-0.3,0.2-0.6c0-0.2,0.1-0.4,0.2-0.6
		c0.2-0.3,0.3-0.6,0.6-0.8c0,0,0.2-0.2,0.1-0.3c-0.1-0.3,0.1-0.4,0.3-0.6c0.1-0.1,0.1-0.2,0.1-0.3c0-0.1,0.1-0.1,0.2-0.2
		c0.1-0.1,0.2-0.1,0.1-0.3c0,0,0-0.2,0.1-0.2c0.1,0,0.2-0.1,0.2-0.2c0-0.3,0.3-0.4,0.5-0.5c0.2-0.1,0.3-0.2,0.3-0.4
		c0-0.2,0.1-0.4,0.3-0.5c0.2-0.2,0.5-0.3,0.7-0.5c0-0.1,0.2-0.1,0.3-0.1c0.1,0,0.1,0,0.1-0.1c0-0.3,0-0.5,0.3-0.6c0,0,0-0.1,0-0.1
		c0-0.1,0-0.2,0.2-0.2c0.3,0,0.6,0.1,0.8-0.2c0.1-0.1,0.3,0,0.4,0c0.2,0,0.4,0,0.6-0.1c0.1,0.1,0.2,0.3,0.4,0.4
		c0.2,0.1,0.5,0.2,0.8,0.3c0.2,0,0.4,0.1,0.6,0.3c0.1,0.1,0.2,0.1,0.3,0c0.1,0,0.2,0,0.3,0.1c0.3,0.3,0.7,0.4,1,0.8
		c0.1,0.1,0.3,0.2,0.4,0.1c0.1-0.2,0.3,0,0.4-0.2c0.1-0.1,0.2,0,0.2,0c0.1,0.2,0.3,0.2,0.4,0c0.1-0.2,0.2-0.1,0.3,0
		c0.2,0.2,0.4,0.3,0.6,0.2c0.2,0,0.4,0.1,0.5,0.2c0.2,0.2,0.4,0.1,0.5-0.1c0.1-0.1,0.2-0.2,0.2-0.1c0.2,0.3,0.4,0.2,0.6,0.2
		c0.1,0,0.2,0.1,0.3,0.1c0.1,0,0-0.2,0.1-0.2c0.1-0.1,0.2-0.1,0.3-0.1c0.5,0,1-0.1,1.4-0.3c0.1-0.1,0.3,0,0.4-0.1
		c0.1,0,0-0.3,0.2-0.2c0.1,0,0.1,0.1,0.3,0.1c0.2,0,0.5,0.1,0.6-0.3c0,0,0-0.1,0.1-0.1c0.2,0,0.3,0,0.5,0c0.1,0,0.1-0.3,0.3-0.2
		c0.3,0,0.4-0.1,0.4-0.5c0-0.1-0.1-0.1-0.1-0.1c-0.2,0-0.2-0.1-0.3-0.2c-0.1-0.1-0.1-0.3-0.4-0.3c-0.1-0.1-0.4-0.1-0.3-0.4
		c0-0.1-0.1-0.2-0.3-0.2c-0.3,0-0.4-0.3-0.7-0.5c-0.1,0-0.1-0.1-0.1-0.1c-0.1-0.5-0.1-0.5-0.5-0.9c0.1-0.1,0.5,0,0.4-0.3
		c0,0,0.1-0.1,0.1-0.1c0-0.1,0.2,0,0.3-0.2c0-0.1-0.1-0.2-0.2-0.3c-0.1-0.1-0.1-0.2,0-0.2c0.1,0,0.2-0.1,0.1-0.2
		c0-0.1,0-0.2,0.2-0.2c0.1,0,0.2,0,0.2-0.1l0.6-0.9c0-0.2,0.2-0.2,0.3-0.2c0.2,0,0.4,0,0.4-0.3c0-0.2,0.3-0.1,0.4-0.3
		c0,0,0.1,0,0.2,0c0.1,0.1,0.2,0.2,0.3,0.3c0.1,0.2,0.2,0.3,0.5,0.4c0.2,0,0.3,0.2,0.4,0.4c0.1,0.2,0.2,0.3,0.5,0.3
		c0.1,0,0.2,0.1,0.3,0.2c0.1,0.1,0.1,0.2,0.2,0.1c0.1-0.1,0.3-0.2,0.1-0.4c0-0.1,0-0.2-0.1-0.2c-0.1-0.1-0.1-0.1,0-0.2
		c0.1-0.1,0.2-0.1,0.3-0.2c0-0.1,0.1-0.1,0.1-0.2c-0.3-0.3,0-0.4,0.1-0.7c0-0.1,0.2-0.1,0.2-0.2c-0.1-0.3-0.2-0.5,0.1-0.7
		c0.1,0-0.1-0.1-0.1-0.2c-0.1-0.2-0.1-0.4,0.2-0.5c0.1,0,0.2-0.2,0.1-0.3c-0.1-0.2,0-0.3,0.1-0.4c0.4-0.3,0.4-0.3,0.2-0.6
		c-0.1-0.3,0-0.5,0.2-0.6c0.2-0.2,0.4-0.2,0.6-0.3c0.1-0.1,0.2,0,0.3,0.1c0.1,0.1,0,0.3,0.3,0.2c0.2-0.1,0.3-0.1,0.4-0.3
		c0.1-0.2,0.1-0.3,0.1-0.4c0-0.1,0-0.2,0.1-0.3c0.3-0.2,0.5-0.4,0.7-0.6c0.1-0.1,0.2-0.1,0.3,0c0.1,0.1,0.3,0.3,0.5,0.1
		c0,0,0.1,0,0.1,0.1c0.1,0.1,0.2,0.2,0.3,0.2c0.1,0.1,0.2-0.2,0.3-0.1c0.1,0.2,0.3,0.1,0.5,0.2c0.2,0.1,0.3,0,0.3-0.2
		c0-0.1,0-0.2,0.1-0.2c0.4-0.2,0.5-0.6,0.6-1c0.1-0.1,0.1-0.3,0.1-0.4c0-0.1,0.1-0.2,0-0.3c0,0,0-0.1,0-0.2c0.2-0.2,0.2-0.4,0.3-0.6
		c0.1-0.2,0.3-0.3,0.3-0.6c0,0,0-0.1,0.1-0.1c0.5,0,0.4-0.4,0.5-0.7c0-0.1,0-0.2,0.1-0.2c0,0,0.1-0.1,0.1-0.1
		c0.2,0.2,0.3-0.2,0.5-0.1c0.1,0,0.1,0,0.2,0.1c0.1,0.2,0.1,0.3,0.1,0.5c0.1,0,0.1-0.1,0.2-0.1c0.1-0.1,0.2-0.1,0.3,0
		c0.2,0.2,0.3,0.3,0.6,0.3c0.1,0,0.2,0.1,0.2,0.2c0.1,0.1,0.1,0,0.1,0c0-0.1,0-0.2,0.2-0.2c0.1,0,0.1,0.1,0.1,0.2
		c0.1,0.2,0.3,0.1,0.3,0.1c0.1,0.2,0.5,0.1,0.6,0.4c0,0,0.3,0,0.4-0.2c0.1,0.3,0,0.6,0,0.9c0,0.1,0,0.2-0.1,0.3
		c-0.2,0.1-0.2,0.3-0.1,0.5c0.1,0.2,0,0.3-0.1,0.5c-0.1,0.2-0.3,0.4-0.3,0.7c0,0.1-0.3,0-0.2,0.2c0,0.1,0,0.3-0.1,0.4
		c0,0.1-0.2,0.2,0,0.4c0.1,0,0,0.2-0.1,0.2c-0.2,0.1-0.3,0.2-0.3,0.4c0,0.1,0,0.3-0.2,0.3c-0.4,0,0,0.2,0,0.3C37,30,37.2,30,37.2,30
		c0.2-0.2,0.3,0,0.4,0.1c0,0.2,0.1,0.2,0.3,0.2c0.3,0,0.6,0.1,0.8,0.3c0.2,0.2,0.5,0.3,0.8,0.4c0.3,0.1,0.5,0,0.7-0.2
		c0.1-0.1,0.1-0.2,0.1-0.3c-0.1-0.2,0-0.3,0-0.4c0.2-0.4,0.4-0.7,0.5-1.1c0.1-0.1-0.2-0.3,0-0.4c0-0.2,0.1-0.3,0.1-0.4
		c0-0.1,0.1-0.3-0.1-0.4c-0.2-0.1-0.2-0.3,0-0.4C41,27.1,41,27,41,26.9c0.1-0.1,0-0.3,0.3-0.4c0.2,0,0.3-0.4,0.2-0.6
		c-0.1-0.2,0-0.4,0.2-0.4c0.2-0.1,0.5-0.2,0.7-0.3c0,0.2,0.1,0.4,0.2,0.6c0.3-0.1,0.5-0.3,0.8-0.3c0.1,0,0.2-0.1,0.2,0
		c0.1,0.1,0.2,0.2,0.4,0.2c0.2,0,0.2,0.1,0.2,0.2c0,0.2,0.1,0.2,0.2,0.3c0.1-0.1,0.1-0.2,0.1-0.2c0-0.1,0-0.1,0.1-0.1
		c0.2-0.1,0.3,0.1,0.4,0.1c0.2,0,0.2,0.1,0.2,0.3c0,0.1,0.1,0.3,0.3,0.1c0,0,0.2,0,0.2,0.1c-0.1,0.3,0.3,0.4,0.3,0.6
		c0,0.2,0.1,0.4,0.3,0.6c0.1,0.1,0.1,0.3,0.1,0.3c-0.2,0.2,0,0.6-0.2,0.8c0,0,0,0.2,0,0.2c0,0.2,0.2,0.4-0.1,0.5c0,0,0,0.2,0,0.3
		c0,0.4-0.3,0.8-0.2,1.3c0,0.1-0.1,0.1-0.2,0.2c-0.1,0.2-0.3,0.3-0.1,0.6c0.1,0.3-0.1,0.7-0.2,1c0,0.1-0.1,0.2,0,0.3
		c0.3,0.2,0,0.4-0.1,0.5c-0.1,0.2-0.1,0.3,0,0.4c0.1,0.1,0.1,0.1,0,0.2c-0.2,0.3-0.3,0.5-0.2,0.8c0.1,0.3-0.4,0.3-0.2,0.5
		c0.2,0.3,0,0.4-0.1,0.5c-0.1,0.1-0.1,0.1-0.2,0.2c0,0.1-0.1,0.1,0,0.3c0.2,0.2,0.2,0.3,0,0.5c-0.2,0.2-0.2,0.3-0.2,0.6
		c0,0.1,0,0.2,0.1,0.3c-0.1,0.1-0.2,0.2-0.2,0.2c0.1,0.2-0.1,0.3,0,0.5c0.1,0.4-0.1,0.6-0.4,0.9c-0.1,0.1-0.1,0.2,0,0.3
		c0.1,0.3,0.1,0.7-0.2,0.9c-0.1,0.1-0.2,0.3-0.2,0.5c0,0.2,0,0.5,0,0.7c0,0.2,0.1,0.3,0.2,0.4c0.2,0,0.2,0.2,0.3,0.3
		c0,0,0.1,0.1,0.1,0.1c-0.2,0.5,0.2,0.8,0.1,1.3c0,0.1,0.1,0.2,0.2,0.2c0.2,0.2,0.2,0.2,0.2,0.7c0,0.1,0.1,0.2,0.1,0.3
		c0,0,0.1,0.6,0.1,0.6c0,0.2,0,0.4,0.2,0.5c0.1,0,0.1,0.1,0.1,0.2c0,0.2,0,0.3,0.2,0.4c0,0,0,0.1,0.1,0.1c0.1,0.2-0.2,0.3,0,0.4
		c0.2,0.1,0.1,0.3,0.1,0.4c0,0.2-0.1,0.4,0.2,0.4c0.1,0,0.1,0.2,0,0.3c-0.1,0.2,0.2,0.3,0,0.5c-0.1,0.1,0.1,0.2,0.2,0.3
		c0.1,0.1,0.2,0.2,0.1,0.4c0,0,0.1,0.1,0.1,0.2c0.1,0.1,0.1,0.2,0,0.3c-0.1,0.1-0.1,0.3,0.1,0.4c0.1,0.1,0.2,0.1,0.2,0.2
		c0.1,0.2,0.2,0.3,0,0.5c-0.2,0.2-0.2,0.4,0,0.6c0.1,0.1,0.1,0.4,0.3,0.5c0,0,0,0.1,0,0.1c-0.1,0.2,0,0.3,0.1,0.5
		c0.3,0.3,0.3,0.6,0.5,0.9c0.1,0.1,0,0.2,0,0.3c0,0.2,0,0.3,0.2,0.4c0.1,0,0.1,0.1,0.1,0.2c-0.1,0.3,0.2,0.5,0.1,0.9
		c0,0.1,0,0.1,0,0.2c0.2,0.1,0.2,0.4,0.2,0.6c0,0.1,0,0.1,0.1,0.2c0.2,0.1,0.3,0.3,0.2,0.5c-0.2,0.3,0,0.5,0.1,0.6
		c0.1,0.2,0.1,0.5,0,0.7c-0.1,0.3-0.4,0.5-0.5,0.8c-0.1,0.1-0.2,0.1-0.3,0.1c-0.1,0-0.2,0.1-0.2,0.2c0,0.2-0.1,0.3-0.2,0.1
		c-0.1,0-0.1-0.1-0.2-0.1c-0.1,0,0,0.2-0.2,0.2c-0.1,0-0.1-0.2-0.3-0.1c-0.1,0.1-0.2,0.1-0.4,0.1c-0.1-0.1-0.4,0.1-0.5,0.3
		c-0.2,0.2-0.5,0.2-0.7,0c-0.2-0.3-0.5-0.4-0.9-0.5c-0.1,0-0.3-0.1-0.1-0.3c0,0,0-0.1-0.1-0.2c-0.2,0-0.3-0.2-0.3-0.4
		c0-0.3-0.2-0.5-0.2-0.8c0-0.3-0.1-0.5-0.3-0.7c-0.1-0.1-0.1-0.2-0.1-0.3c0.1-0.2-0.3-0.4,0-0.6c0,0-0.1-0.1-0.2-0.2
		c-0.1-0.1-0.3-0.2-0.1-0.4c0.1-0.1,0.1-0.3,0-0.4c-0.2-0.2-0.2-0.4-0.3-0.6c-0.1-0.2-0.2-0.4-0.1-0.7c0-0.1,0-0.1-0.1-0.2
		c-0.2-0.3-0.4-0.9-0.4-1.3c0-0.2,0-0.3-0.1-0.5c-0.1-0.2-0.4-0.5-0.1-0.8C41.6,50.7,41.6,50.6,41.6,50.5z M39.4,38.1
		c0-0.3-0.5-0.5,0-0.8c0,0,0-0.1,0-0.1c0-0.3,0.2-0.5,0.1-0.8c0-0.1,0.1-0.1,0.1-0.1c0.2-0.1,0.1-0.2,0.1-0.3
		c-0.1-0.1-0.2-0.2-0.3-0.2c-0.2,0-0.4,0-0.4-0.2c0-0.1-0.1-0.1-0.2,0c-0.2,0.2-0.4-0.2-0.6,0c-0.1,0.1-0.1-0.1-0.2-0.1
		c-0.1,0-0.2-0.1-0.3-0.3c0-0.1-0.3-0.2-0.3-0.2c-0.2,0.2-0.4,0-0.5-0.1c-0.2-0.1-0.3-0.1-0.5-0.2c-0.2,0-0.2-0.3-0.4-0.3
		c-0.1-0.1-0.3-0.1-0.4,0c-0.1,0.1-0.2,0.1-0.3,0.1c-0.1,0-0.2-0.2-0.2-0.3c0-0.1-0.2-0.3-0.4-0.1c-0.1,0.1-0.2,0.1-0.3,0
		c-0.1-0.2-0.3-0.2-0.5-0.2c-0.3-0.1-0.5-0.3-0.8-0.1c-0.1,0-0.2,0-0.2-0.1c-0.3-0.4-0.3-0.4-0.8-0.3c-0.1,0-0.1,0-0.2,0
		c-0.2,0-0.3,0.1-0.4,0.2l-0.3,0.8c0,0.1-0.1,0.2,0,0.3c0.1,0.1,0,0.3-0.1,0.5c-0.2,0.2-0.3,0.4-0.3,0.7c-0.1,0.3,0.1,0.7-0.2,1
		c0,0,0,0,0,0.1c0,0.2-0.1,0.5-0.1,0.7c0,0.3-0.2,0.4-0.4,0.4c0.1,0.1,0.2,0.2,0.3,0.4c0,0.2,0.1,0.4,0.3,0.5c0.2,0,0.3,0,0.3,0.2
		c0.1,0.1,0.4,0.1,0.4,0.2c0.1,0.4,0.2,0.1,0.4,0.1c0,0,0.1,0,0.1,0c0.1,0.3,0.3,0.4,0.5,0.4c0,0,0,0.1,0,0.1c0,0.2,0,0.2,0.2,0.2
		c0.3,0,0.6,0.2,0.7,0.6c0.1,0.3,0.1,0.6,0.4,0.8c0,0,0,0.2,0,0.2c-0.1,0.1-0.1,0.4-0.4,0.3c-0.1,0-0.2,0.2-0.1,0.3
		c0.1,0.1,0,0.1,0,0.2c-0.1,0.1-0.2,0-0.3,0.1c-0.1,0.1-0.2,0.1-0.1,0.3c0.3,0.4,0.1,0.9-0.4,1c-0.1,0-0.1,0.1-0.1,0.2
		c0.2,0.2,0.2,0.3-0.1,0.3c-0.1,0-0.2,0.1-0.3,0.2c-0.1,0.3-0.4,0-0.5,0.1c-0.1,0.1-0.2-0.1-0.3-0.1c-0.2-0.2-0.5-0.4-0.8-0.3
		c-0.5,0.1-0.7-0.2-0.9-0.6c0,0,0-0.1-0.1-0.2c-0.3,0.1-0.4-0.3-0.6-0.2c-0.2,0,0,0.4-0.2,0.5c-0.1,0.1,0,0.2,0,0.3
		c0,0.2,0.1,0.4-0.1,0.6c0.2,0.2-0.1,0.3-0.1,0.5c0,0.2-0.3,0.4-0.1,0.5c0.1,0.2,0,0.3-0.1,0.3c-0.3,0.1-0.5,0.3-0.4,0.7
		c0,0.2-0.2,0.2-0.1,0.4c-0.2,0.2,0,0.5-0.2,0.7c-0.1,0.1,0,0.3,0.1,0.4c0,0.1,0,0.2,0,0.3c-0.2,0.2,0,0.6-0.3,0.7
		c-0.1,0,0,0.1,0,0.2c0,0.2,0,0.5,0,0.7c0.1,0,0.2,0,0.2,0c0.2,0,0.3,0,0.3,0.2c0,0.1,0.1,0.3,0.3,0.2c0.2,0,0.3,0.2,0.4,0.1
		c0.2-0.2,0.3,0,0.4,0c0.4,0,0.6,0.2,0.8,0.5c0,0.1,0.1,0.3,0.3,0.3c0.1,0,0.3,0.2,0.4,0c0.1,0.1,0.3-0.2,0.4,0
		c0.2,0.1,0.4,0.2,0.5,0.5c0,0.3,0.2,0.3,0.5,0.3c0.2,0,0.4,0.2,0.6,0c0,0,0.1,0,0.1,0.1c0.2,0.2,0.2,0.2,0.6,0.3
		c0.1,0,0.3,0.1,0.4,0.3c0,0.2,0.4,0,0.5,0.1c0.1,0,0,0.2,0.1,0.2c0.2,0,0.4-0.1,0.5,0.1c0.1,0.1,0.1,0,0.1-0.1
		c0.1-0.2,0.1-0.5,0.4-0.7c0-0.3,0.3-0.5,0.2-0.8c0-0.3,0-0.6,0.3-0.8c0.1-0.1,0.1-0.1,0.1-0.2c-0.1-0.3,0-0.5,0.2-0.7
		c0.1-0.2-0.2-0.3,0-0.4c0.3-0.2,0.2-0.6,0.5-0.8c0.1-0.1,0.2-0.3,0.2-0.4c0-0.1,0.2-0.1,0.1-0.3c-0.1-0.1,0.2-0.2,0.1-0.3
		c-0.1-0.1,0-0.2,0-0.3c0-0.1,0.1-0.2,0.1-0.3c0-0.1,0.1-0.2-0.1-0.3c-0.1-0.1,0-0.1,0-0.1c0.2-0.2,0.2-0.2,0.2-0.6
		c0-0.2,0.1-0.2,0.2-0.3c0.2-0.1,0.4-0.2,0.1-0.4c-0.1-0.1-0.1-0.3,0-0.3c0.3-0.2,0.3-0.6,0.5-0.9c0.1-0.1,0.1-0.2,0-0.3
		c-0.2-0.3-0.1-0.3,0-0.6c0.1-0.2,0-0.4,0.3-0.5c0.3-0.1,0.2-0.2,0.1-0.3c0,0-0.2-0.1-0.1-0.2c0.2-0.2,0.2-0.4,0.2-0.6
		c0-0.1,0-0.2,0.1-0.3c0.3-0.2,0.3-0.5,0.4-0.7c0-0.1,0.3-0.2,0.1-0.4c-0.2-0.2,0-0.3,0-0.4c0.1-0.2,0.3-0.3,0-0.5
		c0,0-0.1-0.1,0-0.1c0.1-0.1,0.2-0.3,0.2-0.5c0-0.2,0.3-0.2,0.3-0.4c0-0.1,0.1-0.2,0-0.2c-0.1-0.1-0.1-0.2,0-0.2
		C39.2,38.3,39.3,38.2,39.4,38.1z M19.9,47.3c0-0.1,0-0.2,0-0.3c0-0.3,0.1-0.3,0.3-0.2c0.1,0.1,0.1,0,0.5,0c0.1,0,0.2-0.1,0.3,0.1
		c0.1,0.3,0.4,0.3,0.6,0.5c0.2,0.2,0.3,0.4,0.5,0.6c0.2,0.2,0.4,0.4,0.1,0.7c-0.1,0.1,0.1,0.2,0.1,0.3c0,0,0.1,0,0.2,0
		c0.1,0,0-0.1,0-0.2c0-0.1,0-0.2,0-0.2c-0.2-0.2,0.1-0.4-0.1-0.7c-0.1-0.1,0.2-0.2,0.3-0.3c0.1-0.1,0.1-0.2,0-0.3c0,0,0-0.1,0-0.1
		c0.3-0.1,0.2-0.3,0.1-0.5c0-0.2,0.1-0.3,0.1-0.4c0.1-0.1,0.1-0.2-0.1-0.4c-0.2-0.2-0.5-0.2-0.7,0.1c-0.2,0.2-0.4,0.5-0.7,0.4
		c-0.1,0-0.2,0-0.2,0.1c-0.1,0.3-0.3,0.2-0.5,0.1c-0.2-0.1-0.3-0.2-0.5-0.3c-0.1,0-0.2-0.1-0.2,0c-0.2,0.3-0.7,0.2-0.9,0.5
		c-0.1,0.2-0.3,0.2-0.6,0c-0.1-0.1-0.2-0.1-0.3-0.2c-0.1-0.1-0.1-0.1-0.2,0c-0.3,0.2-0.5,0.4-0.8,0.1c0,0-0.1,0-0.2,0
		c-0.1,0.1-0.1,0.1-0.2,0c-0.1,0-0.1-0.1-0.2-0.2c-0.1-0.1-0.1,0.1-0.2,0c-0.2-0.3-0.5-0.3-0.8-0.1c-0.2,0.1-0.3,0-0.4-0.1
		c-0.1-0.1-0.2-0.1-0.3,0c-0.1,0.1-0.3,0.2-0.3-0.1c0-0.1-0.1-0.1-0.2-0.1c-0.1,0.1-0.2,0.3-0.4,0.2c-0.1-0.1-0.2-0.2-0.4-0.3
		c0,0,0-0.1,0-0.1c0-0.2-0.2-0.1-0.2-0.1c-0.1,0-0.1,0.1-0.1,0.2c-0.1,0.3-0.1,0.5-0.4,0.7c-0.1,0.1-0.2,0.3-0.2,0.5
		c0,0.1,0,0.3-0.1,0.4c-0.1,0.2-0.2,0.4-0.2,0.6c0.1,0.2-0.2,0.5-0.1,0.7c0.1,0.3,0,0.4-0.1,0.7c0,0.1-0.1,0.2,0,0.2
		c0.1,0.3,0,0.5,0,0.7c0,0.2,0.2,0.3,0.3,0.2c0.2-0.2,0.4-0.2,0.5-0.3c0.1-0.1,0.3,0,0.4-0.2c0,0,0.2,0,0.2-0.2
		c0-0.3,0.1-0.3,0.4-0.3c0.2,0,0.3-0.1,0.3-0.3c0-0.1,0-0.2,0.2-0.2c0.4-0.1,1-0.4,1.3-0.8c0.1-0.1,0.2-0.3,0.3-0.2
		c0.2,0.2,0.3,0.1,0.4-0.1c0.2-0.2,0.5-0.3,0.8-0.3c0.2,0,0.4,0,0.4-0.3c0-0.2,0.2-0.2,0.4-0.2c0.2,0,0.3,0.1,0.5,0
		c0.1,0,0.5-0.1,0.5-0.1C19.5,47.3,19.7,47.3,19.9,47.3z M16.9,56.9c0.4,0,0.4,0,0.7,0.3c0.1,0.1,0.1,0.2,0.2,0.2
		c0.1,0.1,0.5,0.1,0.5-0.1c0.1-0.2,0.3-0.5,0.2-0.7c-0.1-0.3-0.3-0.6-0.2-0.9c0,0-0.1,0-0.1,0c-0.1,0-0.1-0.1-0.1-0.2
		c0-0.1,0-0.3,0.1-0.4c0.1-0.1-0.2-0.2-0.2-0.3c0-0.1,0-0.1,0-0.2c0-0.2-0.1-0.3-0.2-0.5c-0.1-0.1-0.1-0.1-0.2,0
		c-0.3,0.3-0.7,0.3-1,0.6c-0.3,0-0.5,0.2-0.6,0.5c-0.1,0.2-0.3,0.3-0.5,0.3c-0.1,0-0.2,0-0.3,0.1c-0.1,0.2-0.3,0.3-0.6,0.3
		c-0.1,0-0.2,0.1-0.2,0.2c-0.1,0.2-0.2,0.4-0.3,0.6c-0.1,0.2,0,0.4,0.2,0.4c0.3-0.1,0.6,0.3,0.9-0.1c0,0,0,0,0,0
		c0.2,0.2,0.4,0,0.6,0.1c0.2,0.2,0.4,0,0.5,0c0.3-0.1,0.3-0.1,0.5,0.1c0,0.1,0.1,0.1,0.2,0.1c0.1,0,0.1-0.1,0.1-0.2
		C16.9,57.1,16.9,57,16.9,56.9z"/>
	<path d="M89.1,43c-0.2,0.3-0.2,0.3-0.4,0.1c-0.1-0.1-0.2-0.3-0.3-0.2c-0.2,0.2-0.3,0-0.5-0.1c-0.1-0.1-0.1,0-0.1,0.1
		c0,0.1-0.1,0.2-0.1,0.1c0-0.1-0.1-0.3-0.1-0.4c0-0.5,0.1-1.1,0.3-1.5c0-0.1,0-0.1,0-0.2c0-0.3-0.1-0.6,0.2-0.9
		c-0.2-0.4,0.2-0.6,0.2-1c0-0.1,0-0.1,0.1-0.2c0.1-0.1,0.3,0,0.3-0.2c0-0.1-0.1-0.2-0.1-0.3c0-0.3,0-0.6,0.3-0.9
		c0.1-0.1,0.1-0.3,0.1-0.6c0-0.1,0-0.1,0.1-0.2c0.1-0.1,0.3-0.1,0.4-0.2c0.1-0.1,0.1-0.3-0.1-0.4c-0.1-0.1,0-0.2,0.1-0.2
		c0.2-0.1,0.3-0.3,0.3-0.6c0-0.1,0.1-0.1,0.2-0.1c0.3,0,0.2-0.1,0.1-0.3c-0.1-0.2-0.2-0.4,0.2-0.5c0.1,0,0.2-0.2,0.3-0.2
		c0.1-0.1,0.1-0.2,0-0.3c0,0,0-0.1,0-0.2c0.1-0.1,0.2-0.2,0.2-0.2c0-0.3,0.2-0.4,0.4-0.4c0.1,0,0.2-0.1,0.2-0.1c0-0.1,0.1-0.3,0-0.3
		c-0.2-0.2,0-0.3,0.1-0.3c0.1,0,0.2-0.1,0.2-0.1c0.1,0,0.2,0,0.2-0.2c0-0.2,0.1-0.3,0.2-0.3c0.3-0.2,0.4-0.5,0.4-0.8
		c0-0.3,0.2-0.6,0.1-0.9c0-0.2,0-0.4-0.2-0.6c-0.1-0.1-0.2-0.3,0.1-0.3c0.1,0,0.1-0.1,0.1-0.2c0-0.2-0.1-0.5,0.1-0.7
		c0,0,0-0.1,0-0.1c-0.1-0.1-0.3-0.2-0.1-0.4c0.1-0.1-0.1-0.4,0-0.5c0.2-0.2,0.1-0.3-0.1-0.4c-0.1-0.1,0-0.1,0-0.2
		c0-0.3,0.3-0.6,0-0.9c0,0,0-0.1,0-0.2c0.1-0.1,0.2-0.2,0.2-0.3c0-0.1-0.2-0.2-0.1-0.3c0.2-0.2,0-0.4-0.1-0.6
		c-0.1-0.2-0.2-0.2-0.1-0.4c0.1-0.2,0.1-0.4-0.1-0.6c-0.2-0.2-0.2-0.4-0.1-0.6c0,0,0,0,0,0c0.3-0.2-0.1-0.4,0.1-0.6
		c0.1-0.1,0.1-0.5-0.2-0.6c-0.2-0.1,0.2-0.3-0.1-0.4c0.1-0.2-0.3-0.1-0.2-0.3c0.1-0.2,0-0.3,0-0.5c0-0.2,0.2-0.3,0.3-0.4
		c0.1-0.1,0.1-0.2,0.1-0.3c0-0.2-0.1-0.1-0.2-0.1c-0.2,0-0.1-0.1-0.1-0.2c0.1-0.1,0.1-0.3,0-0.4c-0.1-0.2-0.3-0.5-0.1-0.8
		c0.1-0.1-0.1-0.3-0.2-0.5c-0.1-0.1-0.2-0.3,0-0.4c0.4-0.5,0.2-1-0.1-1.4c-0.1-0.2-0.1-0.3-0.1-0.4c0.1-0.1,0.2-0.2,0-0.3
		c-0.1-0.1-0.2-0.2-0.1-0.3c0.1-0.2,0.1-0.3-0.1-0.5c-0.1-0.1-0.1-0.2,0-0.2c0.1-0.1,0.1-0.1,0-0.2c-0.1-0.1-0.1-0.2,0-0.3
		c0.1-0.2-0.1-0.3-0.1-0.4c0-0.1-0.1-0.3-0.1-0.3c0.1-0.1,0-0.3,0.1-0.4c0.2-0.2,0.4-0.5,0.2-0.8c0-0.1,0-0.2,0-0.3
		c0.1-0.4,0.2-0.8,0.2-1.2c0-0.1,0.1-0.1,0.1-0.2c0-0.1,0-0.1,0.1-0.1c0.1,0.1,0.3,0.2,0.4-0.1c0-0.2,0.3-0.3,0.4-0.1
		c0.1,0.1,0.3,0.1,0.5,0.1c0.2,0,0.3-0.1,0.3-0.2c0-0.3,0.2-0.6,0.1-0.9c0-0.2,0-0.4-0.1-0.6c-0.1-0.2,0.1-0.5,0-0.7
		c-0.1-0.1,0.1-0.3-0.1-0.4c-0.1-0.1,0.1-0.1,0.1-0.2c0,0,0.1-0.1,0.1-0.1c-0.3-0.3,0-0.5,0.1-0.8c0-0.2,0.1-0.4,0-0.6
		c-0.1-0.1,0-0.2,0.1-0.3c0.1-0.1,0.2-0.1,0.3-0.2c0.1-0.1,0.2,0,0.2-0.2c0-0.1,0.1-0.2,0.1-0.3c0.1-0.1,0.1,0.1,0.3,0
		c0.2-0.2,0.3-0.2,0.4,0.1C94.9,4.1,95,4.2,95,4.3c0.1,0.1,0.2,0.1,0.3,0c0-0.1,0-0.2,0-0.2c0.1-0.2,0.2-0.2,0.4-0.1
		C95.8,4,96,4,96.1,4c0.1,0,0.3-0.1,0.4,0.1c0.1,0.1,0.1,0.1,0.2,0c0.2-0.3,0.3-0.2,0.5,0c0,0.1,0,0,0.1,0c0.2-0.1,0.3-0.1,0.5,0
		C97.9,4.2,98,4.4,98,4.5c0,0.2,0.4,0.3,0.3,0.6c0,0,0,0.1,0,0.2c0,0.2-0.2,0.2-0.1,0.4c0.1,0.1,0.1,0.2,0,0.3
		c-0.1,0.1,0.1,0.2,0.1,0.4c0,0.1,0.1,0.2,0,0.3c-0.1,0.1,0,0.2-0.1,0.3c0,0.1,0,0.2,0,0.3c-0.1,0.5-0.1,0.5,0,0.9
		c0.1,0.1,0,0.1,0,0.2c0,0.1,0,0.2,0,0.3c0,0.1,0.2,0.3,0.3,0.2c0.3-0.2,0.6,0.2,0.8-0.1c0-0.1,0.2,0,0.3,0.1c0.4,0.3,0.6,0.3,1,0
		c0.1-0.1,0.3-0.1,0.4,0c0.1,0.1,0.3,0.3,0.4,0.4c0,0,0.1-0.1,0.1-0.1c0.2-0.1,0.3-0.4,0.5-0.5c0.3,0.2,0.6,0,0.9,0.3
		c0,0,0.1,0.1,0.1,0c0,0,0-0.1,0-0.1l-0.2-0.5c-0.1-0.1-0.1-0.2-0.1-0.4c0.1-0.4-0.1-0.7-0.3-1c-0.2-0.3-0.3-0.6,0-0.9
		c0.1-0.1,0.1-0.2,0-0.3c-0.1-0.2-0.1-0.4-0.2-0.5c0.2-0.1,0.3,0,0.4-0.1c0.1-0.1,0.2-0.1,0.3,0c0,0,0.2,0,0.2-0.1
		c0-0.1,0.1-0.2,0.2-0.2c0.1-0.1,0.2,0,0.2,0c0,0.3,0.3,0.3,0.4,0.4c0.1-0.2,0-0.3,0.1-0.5c0-0.2,0.1-0.3,0.3-0.2
		c0.1,0,0.1,0.1,0.1,0.1c0.2,0,0.2,0.3,0.4,0.2c0.2-0.1,0-0.4,0.2-0.4c0,0,0-0.1,0.1-0.1c0.2,0,0.5,0,0.7-0.1c0.1,0,0.3,0.1,0.4,0.1
		c0.1,0,0.2,0.1,0.2,0.2c0,0.2,0,0.2,0.2,0.2c0.2,0,0.3,0.1,0.3,0.3c0,0.2,0.1,0.3,0.2,0.5c0.1,0.2,0.4,0.3,0.3,0.6
		c0.2,0.2,0.1,0.4,0.1,0.7c0,0.2-0.1,0.4,0.2,0.4c0,0,0.1,0.2,0,0.2c-0.2,0.2-0.1,0.4-0.1,0.6c0,0.2,0,0.3,0.2,0.4
		c0.1,0.1,0.1,0.2,0.1,0.3c0,0.1,0.1,0.1,0.1,0.1c0.3-0.2,0.4,0.1,0.6,0.2c0.2-0.3,0.3-0.3,0.6-0.2c0.1,0,0.2-0.1,0.3-0.1
		c0.1,0.1,0.1,0.2,0.2,0.2c0.1,0,0.3,0.1,0.4,0c0.2-0.1,0.3-0.1,0.2,0.1c0.2,0.1,0,0.4,0.2,0.6c0.2,0.1,0.1,0.3,0.1,0.5
		c0,0.1,0.1,0.1,0.1,0.2c0,0,0.1,0.1,0.1,0c0.1-0.1,0.2-0.1,0.3,0c0,0,0,0,0,0c0.1,0.1,0.3,0.2,0.4,0.3c0.1,0.3,0.2,0.7,0.3,1
		c0,0.1,0,0.1-0.1,0.1c0,0.3-0.1,0.5,0.1,0.7c0.2,0.1,0.1,0.3,0,0.4c-0.2,0.3-0.2,0.3,0,0.6c0.1,0.1,0.1,0.2,0,0.3
		c-0.1,0.2,0,0.3,0.2,0.2c0.1,0,0.3,0,0.4-0.1c0.1,0,0-0.3,0.2-0.2c0.1,0,0.1,0.1,0.3,0.1c0.2,0,0.4,0.1,0.5-0.2c0,0,0,0,0,0
		c0.4,0.1,0.6-0.3,0.9-0.4c0.1-0.1,0.2-0.1,0.3-0.1c0.1,0.1,0.3,0.2,0.4,0.1c0.2-0.2,0.4,0,0.5-0.2c0.1-0.1,0.2-0.1,0.3-0.1
		c0.2,0,0.6-0.3,0.8-0.4c0.3-0.1,0.3-0.4,0.6-0.3c0.2,0,0.4-0.2,0.7-0.3c0.2,0,0.4-0.2,0.5-0.4c0-0.1,0.1-0.1,0.1-0.1
		c0.4,0.1,0.6-0.3,0.9-0.5c0.2-0.1,0.3-0.2,0.5-0.2c0.2,0,0.2,0,0.3-0.2c0-0.1,0.3,0,0.4-0.1c0.1-0.1,0.2-0.4,0.4-0.2
		c0,0,0.1,0,0.1-0.1c0.1-0.1,0.2-0.2,0.3-0.3c0.2-0.2,0.4-0.2,0.6-0.1c0.4,0.2,0.8,0.3,1.1,0.6c0.1,0.1,0.1,0.2,0.2,0.1
		c0.4-0.1,0.5,0.2,0.6,0.5c0.1,0.2,0.2,0.2,0.3,0.2c0.3,0.2,0.4,0.5,0.5,0.9c0.1,0.3,0,0.5,0.1,0.8c0.1,0.1,0.1,0.3,0,0.3
		c-0.2,0.2-0.1,0.4,0,0.6c0.1,0.1,0.2,0.3-0.1,0.5c-0.1,0.1-0.1,0.2,0,0.3c0.2,0.4,0.3,0.8,0.3,1.2c0,0.5,0,0.6-0.2,1.2
		c0,0.1,0,0.2,0,0.2c0.1,0.5,0,0.9-0.3,1.3c-0.2,0.2-0.1,0.3,0,0.4c0.2,0.2,0.1,0.4-0.1,0.6c-0.1,0.1,0,0.2-0.2,0.2
		c-0.1,0-0.1,0.2-0.1,0.2c0,0.1-0.2,0.2-0.2,0.3c-0.1,0.1,0.1,0.2,0.1,0.2c-0.1,0.2-0.1,0.4-0.3,0.4c-0.3,0.1-0.3,0.2-0.3,0.4
		c0,0.2,0,0.3-0.2,0.3c-0.1,0-0.2,0.1-0.2,0.2c0,0.3-0.2,0.4-0.4,0.5c-0.3,0.1-0.4,0.3-0.4,0.6c0,0.1,0,0.2,0,0.3
		c-0.6,0-1,0.3-1.1,0.9c0,0,0,0.1,0,0.1c-0.1,0.2-0.4,0.1-0.4,0.4c0,0.3-0.3,0.3-0.4,0.3c-0.2,0.1-0.2,0.1-0.2,0.3
		c0,0.2,0,0.3-0.2,0.2c-0.1,0-0.1,0-0.1,0.1c0,0.4-0.3,0.5-0.6,0.7c-0.2,0.1-0.3,0.3-0.4,0.4c0,0.1,0,0.1-0.1,0.1
		c-0.1,0-0.1,0.1-0.2,0.2c0.1,0.1,0.1,0.3,0.2,0.3c0.1,0,0.2,0.1,0.2,0.1c0,0.4,0.3,0.4,0.6,0.6c0.1,0.1-0.1,0.2,0.1,0.4
		c0.1,0,0,0.2,0,0.3c0,0.2,0,0.4-0.3,0.5c-0.1,0-0.2,0.1-0.2,0.2c0.1,0.1,0.1,0.4,0.3,0.4c0.2,0,0.3,0.1,0.4,0.2
		c0.1,0.1,0.1,0.3,0.1,0.4c-0.1,0.2-0.1,0.3,0,0.4c0.1,0.2,0.1,0.4,0,0.6c-0.1,0.1,0,0.2-0.1,0.3c0,0.1,0.2,0.2,0.1,0.3
		c0,0.1-0.2,0.2-0.2,0.3c-0.1,0.2,0,0.3,0.1,0.4c0.1,0.1,0.1,0.2,0,0.3c-0.1,0.1-0.2,0.2-0.3,0.3c-0.1,0.1-0.1,0.1,0,0.3
		c0.1,0.1,0.1,0.3,0,0.5c-0.2,0.3-0.1,0.6,0,0.9c0.1,0.2,0.1,0.3,0,0.5c-0.1,0.2,0.1,0.4,0.1,0.6c0,0,0.1,0.1,0,0.1
		c-0.2,0.2-0.1,0.3-0.1,0.5c0,0.3,0.1,0.6-0.1,0.9c-0.1,0.3,0.1,0.5,0.2,0.8c0,0.1,0.1,0.3,0,0.4c-0.2,0.2-0.2,0.4-0.1,0.7
		c0.1,0.4,0.1,0.4-0.2,0.6c-0.1,0.1-0.1,0.1-0.1,0.2c-0.1,0.4-0.5,0.7-0.8,0.6c-0.2,0-0.2,0.1-0.3,0.1c-0.1-0.1-0.2-0.2-0.3-0.2
		c-0.1,0-0.1,0-0.2,0.1c-0.1,0.1-0.2,0.1-0.3,0.2c-0.1-0.1-0.1-0.2-0.2-0.2c-0.2,0,0,0.2-0.2,0.2c-0.1,0-0.2,0-0.3,0
		c-0.5,0.3-0.9,0-1.2-0.3c-0.1-0.1-0.2-0.2-0.3-0.2c-0.4-0.3-0.5-0.5-0.3-0.9c0.1-0.2,0-0.3-0.1-0.4c-0.1-0.1,0-0.1,0-0.2
		c0.1-0.2,0.3-0.4,0.1-0.7c-0.1-0.1,0-0.3,0.1-0.5c0.3-0.3,0.3-0.4,0.1-0.8c0-0.1-0.1-0.1-0.1-0.2c-0.3-0.4-0.3-0.4,0-0.7
		c0.1-0.1,0.2-0.3,0.1-0.4c-0.2-0.2,0-0.5-0.3-0.7c-0.1,0,0-0.1,0-0.1c0.2-0.3,0.3-0.6,0.1-1c0-0.1,0-0.1,0-0.2
		c0.2-0.4,0.2-0.9,0.2-1.4c-0.5,0.2-1,0.3-1.5,0.4c0.1,0.3,0.2,0.5,0.1,0.8c0,0.2,0.2,0.3,0.1,0.5c-0.1,0.2,0.1,0.2,0.2,0.3
		c0.3,0.3,0.3,0.4,0,0.7c0,0-0.1,0.1-0.2,0.2c0.1,0.1,0.2,0.3,0.3,0.5c0,0.2,0.1,0.3,0,0.5c-0.1,0.1,0.2,0.2,0,0.5
		c-0.2,0.2,0.2,0.2,0.2,0.4c0,0.2,0.2,0.3,0.1,0.5c0,0.2,0,0.4,0,0.6c0,0.1,0,0.1,0,0.2c0,0.2,0.3,0.3,0.2,0.6
		c-0.1,0.2-0.1,0.4-0.1,0.6c0,0.2,0,0.4,0.1,0.6c0.1,0.1,0,0.3,0.2,0.3c0.1,0,0.1,0.2,0,0.3c-0.1,0.1-0.1,0.2,0,0.4
		c0.1,0.1,0.3,0.3,0,0.5c0,0.2,0.1,0.5,0.2,0.7c0.1,0.2,0.1,0.3,0.1,0.4c0,0.2-0.1,0.5,0.2,0.7c0,0,0,0.1,0,0.1
		c-0.1,0.4,0.2,0.7,0.1,1c0,0.2,0,0.4,0.2,0.5c0.1,0.1,0.1,0.3,0,0.3c-0.1,0.2,0,0.4,0,0.6c0,0.2,0.2,0.3,0.2,0.5
		c0.1,0.2,0.3,0.4,0,0.6c0,0,0,0.1,0,0.2c-0.1,0.1,0.2,0.3,0,0.4c-0.2,0.2-0.4,0.5-0.8,0.5c-0.1,0-0.2,0-0.3,0.1
		c-0.1,0.1-0.2,0.1-0.3,0.1c-0.1,0-0.2-0.3-0.3-0.2c-0.1,0.1-0.2,0.2-0.3,0.2c0,0-0.1,0.1-0.1,0.1c-0.2,0-0.3-0.1-0.4-0.1
		c-0.2,0-0.3,0.3-0.3,0.2c-0.1-0.2-0.3,0.2-0.3,0c0,0-0.1,0-0.1,0c-0.1,0.1-0.2,0.2-0.3,0.2c-0.1,0-0.1-0.2-0.2-0.2
		c-0.2,0.1-0.2-0.1-0.2-0.1c0-0.1,0-0.2,0-0.4c0-0.1,0-0.2-0.1-0.2c-0.2-0.1-0.3-0.2-0.4-0.3c-0.1-0.1-0.1-0.1-0.1-0.2
		c0-0.5,0-0.6-0.2-0.9c-0.1-0.1-0.3-0.2-0.1-0.4c0,0,0-0.1-0.1-0.1c-0.2-0.1-0.3-0.2-0.1-0.4c0.1-0.2,0-0.4-0.2-0.6
		c0-0.1-0.2-0.2-0.2-0.2c0-0.3-0.1-0.6-0.2-0.9c0-0.1,0-0.1,0-0.1c0-0.2,0.1-0.3,0-0.5c-0.1-0.1-0.3-0.3-0.1-0.5
		c0.1-0.1-0.1-0.2-0.1-0.4c-0.1-0.3-0.2-0.6,0-0.9c0-0.1,0-0.1,0-0.2c-0.1-0.3-0.2-0.6-0.3-0.9c0,0,0-0.1,0-0.2
		c0.2-0.2,0.1-0.4-0.1-0.5c-0.2-0.2-0.3-0.3-0.2-0.6c0-0.1,0-0.3-0.1-0.3c-0.2-0.1-0.1-0.3-0.2-0.5c-0.1-0.1,0-0.3,0.1-0.4
		c0,0,0-0.1,0-0.2c-0.1-0.2-0.4-0.3-0.2-0.5c0.2-0.2-0.1-0.3-0.1-0.5c0-0.1-0.1-0.2,0-0.3c0.3-0.2,0.1-0.4,0-0.5
		c0-0.1,0-0.3-0.2-0.2c-0.2,0.1-0.1,0.2,0,0.3c0.1,0.2,0.1,0.3-0.1,0.5c0,0-0.1,0.1-0.1,0.1c-0.1,0.2-0.1,0.4-0.3,0.5
		c0.2,0.1,0,0.4,0.2,0.5c0,0,0.1,0.1,0,0.1c-0.1,0.2-0.1,0.5-0.1,0.8c0,0.1-0.1,0.2-0.1,0.3c0,0.1,0.2,0.2,0.1,0.3
		c0,0.1,0,0.1-0.1,0.2c-0.1,0.1-0.3,0.2-0.1,0.4c0,0,0,0.1,0,0.2c-0.2,0.1-0.1,0.3-0.1,0.4c0.1,0.3,0.1,0.5-0.1,0.8
		c-0.1,0.1,0,0.4,0.1,0.5c0.2,0.4,0,0.7-0.1,1c-0.1,0.3-0.1,0.3-0.1,0.7c0,0.3,0,0.6,0.1,0.9c0.1,0.2,0.1,0.4-0.1,0.5
		c-0.1,0.1,0.1,0.2,0,0.2c-0.2,0.1,0,0.4-0.2,0.5c-0.1,0.1-0.1,0.2-0.1,0.3c0,0.2-0.1,0.3-0.2,0.1c-0.2-0.1-0.2-0.1-0.2,0.1
		c0,0.1,0,0.1,0,0.2c-0.2,0.2-0.3,0.3-0.6,0.1c-0.1-0.1-0.2-0.2-0.4,0c-0.1,0.1-0.3,0-0.5,0c-0.2,0-0.4,0-0.6,0.2
		c-0.1,0.1-0.2,0-0.3-0.1c-0.1,0.2-0.4,0.2-0.6,0.2c-0.2,0-0.4,0.2-0.6,0.2c-0.2,0-0.4,0-0.5-0.1c-0.1-0.1-0.2-0.2-0.4-0.3
		c-0.2-0.1-0.3-0.3-0.3-0.5c0-0.3,0-0.7-0.4-1c-0.1-0.1-0.1-0.2,0-0.3c0.1-0.1,0.1-0.1,0.1-0.2c0-0.1,0.2-0.3,0-0.4
		c-0.1-0.1-0.1-0.2,0-0.3c0.1-0.1,0.1-0.2,0-0.3c0,0,0-0.1,0-0.1c-0.1-0.1-0.2-0.3-0.2-0.4c0-0.2,0.2-0.3,0.3-0.4
		c-0.1-0.1-0.1-0.3-0.2-0.4c0-0.1,0.1-0.2,0.2-0.3c0.1-0.1,0.1-0.2,0.1-0.3c-0.1-0.2-0.1-0.4,0-0.6c0.1-0.2,0.1-0.2,0.1-0.6
		c0-0.2,0.2-0.3,0-0.5c0.2-0.2,0.1-0.4-0.1-0.5c-0.1-0.1-0.1-0.2,0-0.2c0.2-0.1,0.3-0.3,0.1-0.5c-0.1-0.1,0.2-0.2,0-0.4
		c-0.1-0.1,0-0.3,0.1-0.4c0.1-0.1,0.1-0.2,0.1-0.3c0-0.6,0-0.6,0.3-0.9c0-0.1,0.1-0.1,0-0.2c-0.3-0.4-0.1-0.8,0-1.2
		c0.1-0.2-0.1-0.4,0.2-0.5c0,0-0.1-0.1-0.1-0.1c0,0-0.1-0.1-0.1,0c-0.2,0.2-0.3,0.3-0.5,0.1c-0.1-0.1-0.4,0-0.5,0.1
		c0,0-0.1,0.1-0.1,0.1c0.1,0.2-0.2,0.3,0,0.6c0.1,0.2-0.1,0.4-0.2,0.5c-0.1,0.2-0.2,0.4-0.2,0.6c0,0.1,0,0.1,0,0.2
		c0.2,0.2,0.3,0.4,0,0.6c-0.1,0.1-0.1,0.3,0,0.3c0.2,0.2,0,0.4,0.1,0.6c0.1,0.1,0.1,0.3-0.2,0.3c-0.1,0-0.1,0.1,0,0.2
		c0.1,0.7,0.2,0.7-0.1,1.3c0,0-0.1,0.1,0,0.1c0.3,0.3-0.2,0.6,0,0.9c-0.3,0.2,0,0.6-0.2,0.8c0,0.2-0.1,0.5,0.1,0.7
		c0.1,0.2,0.1,0.4-0.1,0.5c-0.1,0.1-0.1,0.3-0.1,0.4c0.2,0.3,0,0.6-0.1,0.8c-0.2,0.3-0.2,0.4,0,0.7c0.1,0.1,0.2,0.2,0,0.4
		c-0.3,0.2-0.2,0.4-0.1,0.7c0.1,0.2,0.1,0.4,0,0.6c-0.1,0.2-0.1,0.4-0.2,0.5c0,0.1,0,0.1,0,0.2c0.1,0.1,0.2,0.3,0,0.5
		c-0.1,0-0.1,0.1-0.1,0.2c0.3,0.3-0.1,0.6,0,0.9c-0.1,0.1-0.2,0.2,0,0.3c0.1,0.1,0,0.2-0.1,0.2c-0.1,0.2-0.2,0.4,0,0.5
		c-0.1,0.2,0.2,0.4,0.1,0.6c-0.1,0.2-0.2,0.3-0.3,0.5c-0.1,0.1-0.1,0.3-0.1,0.4c0.2,0.4,0.1,0.7-0.1,1.1c0,0.1,0,0.1,0,0.2
		c0.3,0.1,0,0.3,0,0.4c-0.2,0.2-0.3,0.4-0.2,0.6c0,0.1-0.1,0.2-0.1,0.2c-0.2,0.2-0.3,0.4-0.4,0.6c-0.1,0-0.1,0-0.1-0.1
		c-0.2-0.2-0.3-0.2-0.4,0c0,0,0,0.1,0,0.1c0,0.1-0.1,0.1-0.1,0.1c-0.2-0.3-0.5,0.2-0.7-0.1c-0.2-0.3-0.2-0.3-0.5,0
		c-0.1,0.1-0.1,0.1-0.2,0c-0.1,0-0.1-0.1-0.1-0.1c-0.1-0.1-0.1-0.2-0.2-0.2c0,0-0.1,0-0.2,0c-0.4,0.1-0.4,0.1-0.6-0.1
		c-0.2-0.1-0.3-0.4-0.5-0.3c-0.1,0-0.1,0-0.1-0.1c0-0.2-0.2-0.4-0.2-0.6c-0.1-0.2-0.3-0.4,0-0.6c0.1-0.1,0.1-0.3,0-0.3
		c-0.2-0.2,0-0.4,0-0.6c0-0.1,0.1-0.1,0-0.2c0,0,0-0.1,0-0.1c0.1-0.1,0.2-0.2,0.2-0.3c0-0.1-0.2-0.2-0.1-0.4
		c0.1-0.2,0.1-0.3,0.1-0.5c0-0.1,0.1-0.2,0-0.3c0,0,0-0.2,0-0.2c0.4-0.2,0.1-0.7,0.3-1c0.1-0.1,0.2-0.2,0.3-0.3
		c-0.1-0.2-0.4-0.5-0.1-0.8c0.1-0.1,0.1-0.3-0.1-0.4c-0.2-0.1-0.1-0.3,0-0.4c0.1,0,0.1-0.1,0.1-0.2c0-0.1-0.2-0.3,0-0.4
		c0.1-0.1,0.2-0.4,0.1-0.5c-0.1-0.2,0.2-0.3,0-0.5c0.1-0.1,0.1-0.3,0.1-0.5c0-0.2,0.2-0.3,0.1-0.4c0-0.1-0.1-0.3,0.1-0.4
		c0.1-0.1-0.2-0.2-0.1-0.3c0.1-0.1,0.1-0.2,0.1-0.3c0-0.1,0-0.2,0.1-0.3c0.1-0.1,0.1-0.2,0-0.2c-0.1-0.1-0.1-0.2-0.2-0.3
		c-0.1-0.1-0.1-0.2,0-0.3c0.4-0.2,0.3-0.7,0.5-1c0,0,0,0,0-0.1c0-0.2-0.2-0.3-0.1-0.5c0.1-0.1,0.2-0.2,0.3-0.4c0-0.1,0-0.1,0-0.2
		c0-0.1,0-0.2,0-0.3c-0.1-0.4,0.4-0.5,0.3-0.7c-0.1-0.3-0.2-0.5,0.1-0.7c0.1,0,0.1-0.1,0.1-0.2c-0.2-0.2-0.1-0.5,0-0.7
		c0,0,0-0.1,0-0.1c-0.1,0-0.2,0-0.2,0c-0.1,0.3-0.4,0.3-0.5,0.5c-0.1,0.1-0.2,0.2-0.2,0.3c-0.1,0.1-0.2-0.2-0.3,0
		c0,0.1-0.2,0-0.2,0.1c0.1,0.4-0.6,0.5-0.3,1c0,0-0.1,0.5-0.1,0.5c-0.2,0-0.2,0-0.1,0.2c0.2,0.2,0.2,0.3,0,0.5
		c-0.1,0.1-0.2,0.2-0.3,0.3c-0.1,0.1-0.2,0.3-0.1,0.4c0.2,0.2,0.1,0.4,0,0.6c-0.1,0.2-0.1,0.4-0.2,0.5c0,0,0,0.1,0,0.2
		c-0.1,0.2,0.4,0.3,0.1,0.5c-0.2,0.2-0.1,0.4-0.1,0.6c-0.1,0.4-0.3,0.9-0.2,1.3c0,0-0.1,0.1-0.1,0.1c-0.3,0.3-0.4,0.7-0.2,1
		c0.1,0.3-0.1,0.5,0,0.7c0,0.1-0.1,0.2-0.1,0.2c-0.2,0-0.2,0.3-0.3,0.4c0,0.1-0.5,0.8-0.6,0.9c-0.1,0.1-0.2,0.1-0.3,0
		c-0.1-0.1-0.2-0.2-0.4-0.1c-0.3,0.2-0.5-0.1-0.7-0.3c-0.1-0.1-0.1-0.1-0.1,0c-0.1,0.1-0.4,0-0.4,0.2c0,0.1-0.2,0.1-0.3,0
		c-0.1-0.1-0.3-0.2-0.3-0.3c-0.1-0.2-0.1-0.2-0.3-0.1c-0.2,0.2-0.3,0.2-0.5,0c0,0-0.1,0-0.1,0c-0.4-0.1-0.5,0-0.5-0.3
		c0-0.1-0.1-0.2-0.2-0.3c-0.2-0.2-0.2-0.2,0.1-0.6c0.1-0.2,0.1-0.4,0-0.6c-0.1-0.2-0.1-0.3,0.1-0.4c0.1-0.1,0.1-0.2,0.1-0.4
		C89.6,43.7,89.5,43.2,89.1,43z M97.3,27.4c0-0.1,0.2-0.1,0.2-0.2c-0.1-0.2,0.1-0.4,0.1-0.5c0.1-0.3,0.3-0.6,0-0.9c0,0,0-0.1,0-0.1
		c0.2-0.2,0.3-0.4,0.1-0.7c0.3-0.3-0.1-0.8,0.3-1c0,0,0-0.2-0.1-0.3c-0.1-0.3-0.2-0.5,0-0.8c0.1-0.2,0.2-0.4,0.4-0.6
		c0.1-0.1,0.2-0.1,0.2-0.2c0-0.2,0.1-0.3,0.2-0.3c0.1,0,0.4-0.1,0.5,0c0.2,0.2,0.3,0.2,0.5,0c0.1-0.1,0.3-0.1,0.4-0.1
		c0.2,0,0.4-0.1,0.6,0.1c0.2,0.2,0.4,0,0.6-0.1c0,0,0.1,0,0.1,0c0.2,0.2,0.4,0.1,0.6,0.1c0.1,0,0.2,0,0.2,0.1c0,0.3,0.3,0.2,0.4,0.4
		c0.1,0.2,0.5,0.6,0.6,0.8c0.1,0.2-0.1,0.2,0,0.4c0.2,0.3,0.1,0.6-0.1,0.8c-0.1,0.1-0.2,0.3-0.2,0.4c0,0.4-0.2,0.7-0.2,1
		c0,0.2,0.1,0.4,0,0.5c-0.2,0.2-0.2,0.4-0.2,0.6l-0.2,0.8c0,0,0,0.1,0,0.1c-0.2,0.6-0.2,0.6,0,1.4c0,0.1,0,0.1,0,0.2
		c0,0.3,0.1,0.3,0.4,0.3c0.4,0,0.8,0.1,1.1,0.2c0.2,0.1,0.4,0.2,0.6,0c0.1,0.1,0.3,0.1,0.4,0c0,0,0.1,0,0.1,0c0,0.3,0.1,0.1,0.2,0
		c0.1-0.1,0.2-0.2,0.2-0.1c0.1,0.1,0.2,0.1,0.3,0.1c0.2,0,0.4,0.1,0.6-0.1c0.2-0.3,0.3,0.3,0.6,0.1c0,0,0.1,0,0.2,0
		c0.2-0.2,0.3,0,0.4,0.1c0.2,0.2,0.1,0,0.1-0.1c0.1-0.1,0.2-0.1,0.2,0c0,0.1,0.1,0.2,0.2,0.3c0,0,0.1,0,0.1,0c0,0,0-0.1,0-0.1
		c-0.2-0.2-0.2-0.4-0.1-0.7c0,0,0-0.1,0-0.1c-0.1-0.1-0.1-0.3,0-0.4c0.1-0.2,0.1-0.4,0-0.5c-0.2-0.2-0.1-0.3,0-0.5
		c0,0,0.1-0.1,0.1-0.1c-0.2-0.1,0-0.3-0.2-0.5c-0.1-0.1,0.2-0.3,0.1-0.5c0-0.1-0.1-0.2-0.1-0.2c-0.2-0.4-0.3-0.9-0.2-1.3
		c0-0.3,0-0.4-0.1-0.5c-0.2-0.2-0.2-0.5-0.1-0.6c0.1-0.2,0.1-0.3-0.1-0.4c-0.1-0.1-0.1-0.1,0-0.2c0.2-0.2,0.2-0.3,0.1-0.6
		c-0.1-0.2-0.2-0.2-0.3-0.4c-0.1-0.1-0.1-0.1,0-0.2c0.1-0.1,0.1-0.2,0-0.3c-0.1-0.3-0.2-0.5-0.3-0.8c0,0-0.1,0-0.1-0.1
		c0.2-0.3,0-0.6-0.2-0.8c-0.1-0.1-0.1-0.1,0-0.2c0.1-0.1,0-0.2,0-0.3c-0.1-0.1-0.1-0.2,0-0.4c0.2-0.3,0.1-0.5-0.1-0.7
		c-0.1-0.1-0.3-0.3-0.2-0.4c0.2-0.3-0.1-0.3-0.2-0.5c0,0,0-0.1,0-0.1c0.3-0.1,0.1-0.4,0.1-0.6c0-0.2,0-0.3-0.2-0.4
		c-0.1,0-0.2-0.1-0.1-0.3c0.1-0.2,0.1-0.4,0-0.6c-0.1-0.3,0-0.7-0.3-1c0,0,0,0,0-0.1c0.1-0.4-0.2-0.7-0.1-1c0-0.1,0-0.1-0.1-0.1
		c0,0-0.1,0-0.1,0c0,0.3-0.1,0.1-0.3,0.1c-0.1,0-0.3,0-0.4,0.1c-0.1,0.2-0.3,0.2-0.4,0c-0.2-0.2-0.3-0.1-0.4,0
		c-0.1,0-0.2,0.2-0.3,0.1c-0.1-0.1-0.3-0.1-0.3-0.2c-0.1-0.2-0.2,0.1-0.3,0c-0.2-0.2-0.4-0.1-0.6,0.1c-0.1,0.1-0.2,0.2-0.3,0.1
		c-0.2-0.2-0.4,0.1-0.6,0c-0.2-0.1-0.4-0.1-0.6-0.1c-0.2,0-0.4,0.1-0.6-0.1c-0.1-0.1-0.1,0-0.1,0c-0.1,0.1-0.1,0.2-0.3,0.1
		c-0.1-0.1,0-0.2,0-0.3c0-0.1,0-0.1,0-0.2c-0.2,0-0.5-0.1-0.5,0c-0.2,0.2-0.4,0.1-0.6,0.3c-0.2,0.1-0.4,0.1-0.6,0.2
		c-0.2,0-0.3-0.3-0.5-0.4c-0.1,0,0,0.2-0.2,0.3c-0.1,0-0.2,0.1-0.3,0c-0.1-0.1-0.1-0.2-0.2-0.2c-0.1,0,0,0.2-0.1,0.2
		c-0.2,0-0.4,0-0.4-0.3c0-0.1-0.1-0.1-0.2-0.1c0,0,0,0.1-0.1,0.1c-0.1,0.1,0.2,0.2,0,0.3c-0.2,0.1-0.1,0.2,0,0.4
		c0.1,0.1,0.1,0.2,0,0.3c-0.1,0.1,0,0.3,0,0.4c0.1,0.2,0.1,0.4,0.4,0.5c0.4,0.1-0.2,0.3,0,0.5c0,0,0,0.1,0.1,0.1
		c0.3,0,0.2,0.2,0.1,0.3c0,0-0.1,0.1-0.1,0.1c0.1,0.1,0.2,0.1,0.3,0.2c0.1,0.2-0.2,0.3-0.1,0.4c0,0,0.1,0,0.1,0
		c0.2,0.1,0.2,0.2,0,0.2c-0.2,0-0.2,0.3-0.4,0.3c-0.1,0-0.1,0.1,0,0.2c0.1,0.1,0.1,0.1,0.2,0.2c0.2,0.2,0.2,0.2,0.3,0.7
		c0,0.2,0,0.3,0,0.5c0,0.2-0.2,0.5,0,0.7c0.1,0.1,0,0.3,0.1,0.4c0.1,0.1-0.2,0.2,0,0.3c0.1,0.1,0,0.3-0.1,0.4c0,0,0,0.1,0,0.1
		c0.2,0.3,0,0.7,0.3,0.9c0,0,0.1,0.2,0,0.3c-0.3,0.2,0,0.4,0.1,0.6c0,0.2-0.2,0.4-0.1,0.7c0.1,0.2,0.1,0.4,0,0.6
		c-0.1,0.1,0,0.1,0.1,0.2c0.1,0.1,0.1,0.2,0,0.3c-0.3,0.2-0.1,0.4,0,0.6c0.1,0.1,0.1,0.2,0,0.3C97,25.7,97,25.9,97,26
		c0.1,0.1,0.1,0.2,0.1,0.4c0,0,0,0,0,0c-0.2,0.4-0.2,0.4,0.1,0.7C97.2,27.2,97.2,27.3,97.3,27.4z"/>
	<path d="M123.4,7.5c-0.3,0-0.5,0-0.6,0.2c-0.1,0.1-0.1,0.2-0.3,0.2c-0.2,0-0.2,0.2-0.2,0.4c0,0.2-0.1,0.4-0.1,0.7
		c0,0.2-0.2,0.2-0.2,0.1c-0.2-0.2-0.3,0-0.4,0c-0.1,0.1-0.2,0.1-0.3,0c-0.1-0.1-0.3-0.1-0.4-0.2c-0.2-0.1-0.4-0.1-0.6,0
		c-0.2,0.2-0.4,0.2-0.6,0c-0.1-0.1-0.2-0.4-0.5-0.1c-0.1-0.1-0.1-0.1-0.2-0.2c-0.1-0.3-0.3-0.4-0.6-0.4c-0.4,0-0.5,0-0.6-0.5
		c0-0.1,0-0.2-0.2-0.2c-0.2-0.1-0.3-0.2-0.1-0.4c0,0,0.1-0.3-0.1-0.3c-0.2,0-0.3-0.3-0.5-0.4c-0.1,0-0.2-0.1-0.3-0.2
		c0-0.1,0-0.2,0-0.3c0.1-0.1-0.1-0.2-0.1-0.3c-0.1-0.1-0.1-0.2,0-0.3c0.3-0.4,0.4-0.7,0.1-1.1c-0.1-0.2-0.2-0.3,0-0.4
		c0.2-0.2,0.4-0.3,0.1-0.6c0,0,0-0.1,0-0.2c0.1-0.3,0.3-0.5,0.3-0.8c0,0,0.1-0.1,0.1-0.1c0.3-0.4,0.4-0.5,0.4-0.8
		c0-0.3,0-0.5,0.3-0.5c0,0,0.1-0.1,0.1-0.1c0.2-0.3,0.2-0.4,0.5-0.3c0.2,0,0.2-0.2,0.3-0.2c0.4,0,0.7-0.3,1.1-0.1
		c0.1,0.1,0.1,0,0.2,0c0.2-0.1,0.4-0.1,0.5,0.1c0,0,0,0,0,0c0.3,0.2,0.4,0.2,0.6,0c0.2-0.1,0.3-0.1,0.4,0c0.2,0.2,0.3,0.4,0.6,0.3
		c0.1,0.2,0.4,0.3,0.4,0.6c0,0.2,0,0.5,0.3,0.6c0.1,0.1,0.1,0.2,0.1,0.3c-0.1,0.2,0.3,0.4,0,0.6c0,0,0.1,0.1,0.1,0.1
		c0.3,0.2,0.3,0.2,0.1,0.4c0,0,0,0,0,0c-0.3,0.3-0.3,0.3,0,0.7c0.1,0.1,0.1,0.2,0,0.3c-0.1,0.1-0.1,0.2,0,0.3c0,0,0.1,0.1,0.1,0.2
		c-0.2,0.4,0.2,0.9-0.1,1.3c0,0,0,0.1,0,0.2c0.1,0.1,0.4,0.1,0.3,0.3c0,0.2,0,0.3,0,0.5C123.4,7.3,123.4,7.3,123.4,7.5z"/>
	<path d="M156.1,52.7c-0.1-0.1-0.2-0.3-0.4-0.2c-0.2,0-0.2-0.1-0.1-0.2c0.1-0.1,0-0.1,0-0.1c-0.1,0-0.2,0-0.3,0.1
		c-0.1,0.1-0.2,0.2-0.4,0.3c-0.2,0.1-0.4,0.1-0.4-0.1c-0.1-0.3-0.2-0.3-0.5-0.3c-0.4,0-0.5-0.1-0.3-0.5c0.1-0.2-0.1-0.3-0.2-0.3
		c-0.2,0-0.4,0-0.3-0.3c0,0,0,0,0,0c-0.1-0.1-0.3,0.1-0.3-0.1c0-0.2,0-0.3-0.2-0.4c-0.1-0.1-0.1-0.2,0-0.3c0.1-0.2,0.3-0.4,0-0.6
		c-0.2-0.1-0.1-0.4-0.2-0.6c-0.1-0.1,0.1-0.2,0.2-0.3c0.1-0.1,0.3-0.2,0.1-0.4c-0.1-0.1,0.1-0.2,0.1-0.2c0.1-0.2,0.2-0.6,0.1-0.9
		c0-0.1,0-0.2,0-0.2c0.1-0.1,0.4-0.2,0.1-0.5c0,0,0.1-0.1,0.1-0.1c0.1-0.1,0.2-0.2,0.3-0.3c0.1-0.2,0.2-0.4,0.4-0.5
		c0.2-0.1,0.3-0.4,0.7-0.4c0,0,0.1-0.1,0.1-0.1c-0.1-0.3,0.2-0.3,0.4-0.4c0.1,0,0.1-0.1,0.1-0.2c0-0.1,0-0.2,0-0.3
		c0-0.1,0.1-0.2,0.3-0.1c0.1,0.1,0.4-0.1,0.5,0.2c0.2,0,0.4,0,0.7,0c0.1,0,0.3,0.1,0.4,0.2c0,0.1,0,0.2,0.1,0.3c0.1,0,0.3,0,0.3,0
		c0.2-0.2,0.3,0,0.4,0.1c0,0,0.1,0.1,0.1,0.1c0,0.3,0.1,0.1,0.2,0c0.1,0,0.2,0,0.2,0.1c0,0.1,0,0.1,0.1,0.1c0.3-0.1,0.3,0.2,0.6,0.2
		c0.1,0,0.1,0,0.2,0c0.2-0.2,0.3,0,0.4,0.1c0,0.1,0,0.2,0.1,0.3c0,0,0.1-0.1,0.2-0.1c0.1,0,0.2,0.1,0.2,0.2c0,0.2,0,0.4,0,0.5
		c0,0.2,0,0.4,0.1,0.6c0.1,0.2,0.1,0.6-0.3,0.7c-0.1,0-0.2,0.1-0.1,0.3c0.1,0.3,0.1,0.3-0.1,0.5c-0.2,0.1-0.4,0.1-0.2,0.4
		c0,0.1,0,0.1-0.1,0.1c-0.2,0.2-0.3,0.4-0.3,0.7c0,0.2-0.1,0.3-0.2,0.4c-0.1,0.1-0.1,0.1-0.1,0.2c0.2,0.2,0,0.3-0.1,0.4
		c-0.3,0.1-0.4,0.5-0.6,0.6c-0.3,0.1-0.5,0.4-0.6,0.7c0,0.1-0.1,0.2-0.2,0.1c-0.2-0.2-0.3-0.1-0.5-0.1c-0.1,0-0.2,0.1-0.2,0.2
		C156.5,52.3,156.3,52.5,156.1,52.7z"/>
	<path d="M81.8,64.7c0,0.3,0,0.6,0.5,0.6c0.4,0.4,1,0.7,1.2,1.3c0.1,0.2,0.1,0.4,0.4,0.4c0.1,0-0.1,0.3,0.2,0.4
		c0.1,0,0.2,0.2,0.3,0.3c0,0,0.1,0.1,0.1,0.1c-0.2,0.4,0.1,0.5,0.3,0.8c0,0,0,0,0,0c0.1,0.1,0.1,0.2,0,0.3c-0.1,0.1-0.2,0-0.3,0.1
		c0,0.1-0.1,0.1-0.1,0.2c0.1,0.4-0.2,0.7-0.1,1c0,0.3-0.1,0.4-0.4,0.5c-0.1,0-0.2,0-0.2,0.1c-0.1,0.3-0.3,0.4-0.5,0.5
		c-0.2,0.1,0.1,0.2,0,0.2c-0.1,0-0.2,0-0.4,0c-0.1,0-0.2,0-0.2,0.2c0,0.1-0.1,0.1-0.2,0.1c-0.2,0-0.4,0.1-0.5,0.2
		c-0.2,0.1-0.3,0.2-0.5,0.1c-0.2,0.2-0.3,0-0.4-0.1c-0.3-0.2-0.6-0.3-1-0.4c-0.4,0-0.6-0.3-1-0.4c-0.1,0-0.1-0.1-0.1-0.2
		c0-0.2-0.1-0.3-0.2-0.3c-0.3-0.1-0.4-0.3-0.5-0.5c-0.2-0.2-0.3-0.4-0.5-0.6c-0.1-0.1-0.1-0.2-0.2-0.2c-0.6,0-0.4-0.5-0.5-0.8
		c0-0.1,0-0.3-0.2-0.3c-0.1,0,0-0.3-0.1-0.4c-0.2-0.2,0-0.2,0.1-0.3c0.2-0.1,0.2-0.5,0.4-0.6c0.2-0.1,0.2-0.4,0.2-0.6
		c0-0.2,0.2-0.2,0.1-0.4c0-0.1,0-0.1,0.1-0.1c0.4,0,0.5-0.4,0.7-0.6c0,0,0-0.1,0-0.1c0.1-0.2,0.3-0.3,0.7-0.3c0.3,0,0.7,0,0.9-0.2
		c0.1-0.1,0.2,0,0.3,0c0.2,0,0.4,0.1,0.6-0.1c0.1,0.2,0.3,0.1,0.5,0.1C81.3,64.7,81.5,64.7,81.8,64.7z"/>
	<path d="M14.6,33.3c0,0.1,0,0.2,0,0.2c0.2,0.1,0.2,0.3,0.2,0.5c0,0.2,0,0.4,0.1,0.6c0.1,0.2,0.2,0.5,0,0.8c-0.1,0.1-0.1,0.2,0,0.3
		c0.3,0.3-0.1,0.5-0.1,0.7c0,0.2-0.3,0.3-0.4,0.3c-0.2,0-0.4,0.1-0.6,0.3c-0.1,0.1-0.2,0.2-0.3,0c-0.1-0.1-0.2,0-0.2,0
		c-0.1,0.1-0.4,0.2-0.2,0.5c0,0-0.1,0.1-0.1,0.1c-0.2,0.2-0.4,0.1-0.6,0.1c-0.1,0-0.1,0.1-0.3,0.1c-0.1,0,0-0.2-0.1-0.2
		c-0.3-0.1-0.5-0.3-0.9-0.3c-0.2,0-0.3,0-0.3-0.2c0-0.1-0.2-0.1-0.2-0.1c-0.2-0.1-0.3-0.2-0.4-0.4C10,36.3,10,36.1,9.8,36
		c-0.1,0-0.1-0.2-0.1-0.2c-0.2-0.3-0.1-0.7-0.6-0.8C9,35,8.9,34.8,9,34.7c0.1-0.1,0-0.1-0.1-0.2c-0.1-0.2-0.2-0.4-0.3-0.7
		c0-0.1-0.1-0.1-0.1-0.1c0.3-0.2-0.1-0.4,0-0.7c0.1-0.2,0-0.5,0-0.8c0-0.2,0.1-0.4,0.1-0.7c0-0.1,0-0.1,0.1-0.1
		c0.3-0.2,0.5-0.5,0.5-0.9c0-0.2,0.1-0.3,0.3-0.3c0.3,0,0.2-0.2,0.2-0.3c0-0.2,0.1-0.2,0.2-0.1c0,0,0.1,0.1,0.1,0.1
		c0.3-0.3,0.7,0.2,1-0.1c0.2-0.1,0.4-0.2,0.6-0.2c0.1,0,0.3,0,0.4,0.1c0.1,0.2,0.4,0.2,0.5,0.5c0.1,0.2,0.2,0.1,0.4,0.1
		c0.2-0.1,0.3,0.1,0.4,0.3c0.1,0.2,0.1,0.4,0.3,0.5c0.1,0,0.1,0.1,0.1,0.1c-0.1,0.2,0.1,0.3,0.2,0.4c0.1,0.1,0.2,0.3,0.1,0.5
		c0,0.1,0,0.2,0.1,0.3c0.4,0.1,0.2,0.6,0.5,0.8C14.8,33.2,14.6,33.2,14.6,33.3z"/>
</g>
</svg>
