<?xml version="1.0" encoding="utf-8"?>
<!-- Generator: Adobe Illustrator 27.7.0, SVG Export Plug-In . SVG Version: 6.00 Build 0)  -->
<svg version="1.1" id="Ebene_1" xmlns="http://www.w3.org/2000/svg" xmlns:xlink="http://www.w3.org/1999/xlink" x="0px" y="0px"
	 viewBox="0 0 163.5 120.7" style="enable-background:new 0 0 163.5 120.7;" xml:space="preserve">
<g>
	<path d="M57.2,32.6c0.2,0.1,0.4,0,0.6,0.2c0.1,0.1,0.4,0.1,0.5,0c0.2-0.1,0.3-0.3,0.5-0.1c0,0,0.1,0,0.1-0.1
		c0.1-0.1,0.2-0.1,0.2,0.1c0.1,0.3,0.2,0.3,0.5,0.1c0.2-0.1,0.4-0.1,0.7,0c0.2,0.1,0.4,0.1,0.7,0c0.1-0.1,0.3-0.2,0.5,0
		c0.1,0.1,0.3,0,0.5-0.1c0.1-0.1,0.3-0.2,0.4,0c0,0,0.1,0.1,0.1,0c0.1-0.2,0.3,0.1,0.4-0.1c0.1-0.2,0.2-0.2,0.4,0
		c0.1,0.1,0.3,0.3,0.5,0l0.6,0.2c0,0.1,0.1,0.1,0.2,0.1c0.2,0,0.3,0.1,0.4,0.2c0.1,0.1,0.3,0.2,0.4-0.1c0,0,0,0,0,0
		c0.1,0,0.2,0.2,0.3,0.1c0.1-0.1,0-0.2,0.1-0.3c0,0,0.1,0,0.1,0c0.3,0,0.6-0.1,0.8,0c0.3,0.1,0.5,0.1,0.8,0c0.1-0.1,0.6,0,0.8,0
		c0.3,0,0.6,0.1,0.8-0.2c0-0.1,0,0,0.1,0c0.3,0.2,0.6,0.1,0.9,0c0.1,0,0.3-0.1,0.4,0c0.2,0.2,0.6-0.1,0.8,0.2
		c0.1,0.1,0.3-0.2,0.3-0.3c0-0.2-0.2-0.4-0.1-0.5c0.1-0.2,0-0.3-0.1-0.5c0-0.1-0.1-0.1,0-0.2c0.2-0.2,0.2-0.5,0.3-0.7
		c0.1-0.2,0.2-0.3,0.2-0.5c0-0.2,0-0.2,0.2-0.2c0.1,0,0.1,0,0.2-0.1c0.1-0.3,0.2-0.2,0.4-0.1c0.1,0.1,0.2,0.2,0.3,0
		c0.1-0.2,0.3-0.1,0.4,0c0,0,0.1,0.1,0.1,0.1c0.1-0.1,0.1-0.1,0.1-0.2c0-0.2,0.1-0.2,0.2-0.1c0.3-0.3,0.7,0,1.1-0.2c0,0,0.1,0,0.1,0
		c0.1,0.3,0.3,0.1,0.5,0.1c0.3,0,0.6-0.1,0.8,0.2c0.1,0.1,0.3,0.1,0.4,0c0.3-0.2,0.6-0.1,0.9-0.1c0.2,0,0.3-0.2,0.4-0.1
		c0.2,0.2,0.3,0,0.4,0c0.1,0,0.2,0.2,0.4,0.1c0.3-0.1,0.6-0.1,0.8-0.2c0.2-0.1,0.3,0,0.3,0.1c0,0.2,0.3,0.2,0.3,0.3
		c0.1,0.1,0.1,0.1,0.3,0c0.2-0.2,0.5-0.1,0.7-0.1c0.2,0,0.4,0,0.5-0.2c0.1-0.1,0.2-0.1,0.3,0c0.2,0.1,0.4,0.2,0.6,0.2
		c0.2-0.1,0.4,0,0.5-0.3c0,0,0.1,0,0.2,0c0.1,0,0.2-0.1,0.2-0.2c0-0.1,0-0.1,0-0.2c0.1-0.1-0.1-0.2-0.1-0.4c0.1-0.1,0.1-0.3,0.2-0.4
		c0.1-0.1,0.2-0.2,0.2-0.3c-0.2-0.1,0-0.3-0.2-0.4c-0.1-0.1-0.1-0.3-0.1-0.4c0.1-0.2,0.1-0.3,0-0.5c0,0,0-0.2,0.1-0.3
		c0.3-0.3,0-0.8,0.3-1.1c-0.3-0.2,0.1-0.4-0.1-0.6c-0.1-0.1,0.1-0.3,0.1-0.4c0.1-0.2,0.2-0.4,0.2-0.6c0-0.1,0-0.1,0-0.2
		c-0.2-0.2,0-0.3,0.1-0.5c0.2-0.2,0.2-0.3,0.1-0.5c-0.1-0.1-0.2-0.1-0.2-0.2C83.8,22.1,83.8,22,84,22c0.1,0,0.2-0.1,0.1-0.1
		c-0.2-0.3,0.1-0.6,0-0.8c-0.2-0.3,0.1-0.6-0.2-0.9c0,0-0.1-0.2,0-0.3c0.1-0.1,0.1-0.1,0.1-0.2l0.1-0.6c0.1-0.2,0.2-0.4,0.1-0.6
		c-0.1-0.3-0.3-0.6-0.1-0.9c0.1-0.2-0.2-0.6-0.4-0.6c-0.3-0.1-0.6-0.1-0.9-0.2c0,0-0.1,0-0.2,0c-0.3,0.2-0.5,0.1-0.7-0.1
		c-0.1-0.1-0.1,0-0.2,0c-0.3,0-0.7,0.2-1-0.2c-0.2,0-0.4-0.3-0.6,0c-0.1,0.1-0.1,0.1-0.2,0c-0.3-0.3-0.6-0.4-1-0.2
		c-0.1,0-0.2,0-0.3-0.1c0-0.1-0.2-0.2-0.4-0.3c0,0-0.1,0-0.2,0c-0.4,0.2-0.6,0-0.8-0.2c-0.1-0.1-0.2-0.2-0.3,0c0,0-0.1,0-0.1,0
		c0-0.3-0.4-0.1-0.5-0.3c-0.2-0.2-0.5,0-0.6-0.2c-0.3,0.3-0.5-0.1-0.8,0c-0.2,0.1,0-0.3-0.2-0.2c-0.2,0-0.4-0.1-0.6,0.1
		c-0.1,0.1-0.3,0.1-0.3-0.1c-0.1-0.5-0.6-0.6-1-0.7c-0.3,0-0.4-0.1-0.6-0.3c-0.1-0.1-0.2-0.2-0.3-0.2c-0.3-0.1-0.3-0.1-0.6-0.1
		c-0.1,0-0.3,0.1-0.3-0.2c0,0-0.1,0-0.2-0.1c-0.2-0.2-0.5-0.3-0.4-0.7c-0.1-0.3,0-0.6-0.4-0.8c-0.3-0.1-0.3-0.4-0.3-0.7
		c0-0.1,0.1-0.1,0.1-0.1c0.1,0,0.2-0.1,0.1-0.2c-0.2-0.1,0-0.4-0.2-0.5c0.2-0.1,0.2-0.3,0-0.5c0.2-0.1,0-0.3,0.2-0.5
		c0.1-0.1,0.1-0.2,0-0.3c0-0.1-0.2-0.2-0.1-0.3c0.1-0.1,0.2-0.1,0.3-0.1c0.3-0.1,0.5-0.4,0.5-0.8c0-0.1,0-0.2,0.1-0.2
		c0.2,0,0.4-0.1,0.6-0.2c0.3-0.2,0.4-0.1,0.4-0.3c0-0.1,0.1-0.2,0.1-0.3c0-0.1,0.1-0.2,0.2-0.1c0.2,0.2,0.2,0.1,0.3-0.1
		c0.2-0.2,0.4-0.3,0.6-0.6C73,6,73.1,6,73.1,6c0.4,0.1,0.5,0.1,0.5-0.2c0-0.3,0.1-0.3,0.3-0.3c0.3,0,0.5,0,0.7-0.3
		c0.1-0.2,0.4-0.2,0.6-0.3c0.1-0.1,0.2-0.1,0.2-0.2c0-0.3,0.4-0.3,0.5-0.5c0.1-0.1,0.1,0,0.1,0c0.2,0.1,0.4,0,0.4-0.1
		c0.1-0.2,0.2-0.3,0.3-0.4c0.1,0.1,0.4,0,0.5,0.1c0.2,0.1,0.3,0.1,0.4,0c0.2-0.2,0.4-0.3,0.7-0.1c0.1,0.1,0.3,0.1,0.3-0.2
		c0,0,0.1-0.1,0.1-0.1c0-0.2,0.1-0.3,0.3-0.2c0.1,0,0.1-0.3,0.3-0.1C79.7,3.2,79.8,3,79.9,3c0.1-0.1,0.1-0.1,0-0.3
		c-0.1-0.1-0.1-0.3,0-0.4c0.1-0.2-0.2-0.2-0.2-0.4c0-0.1,0.3-0.1,0.2-0.3C79.8,1.4,80,1.3,80,1.3c-0.1-0.2-0.1-0.2,0.1-0.2
		c0.1-0.4,0.5-0.5,0.6-0.8c0,0,0,0,0,0c0.2-0.2,0.3,0.1,0.4,0c0.2,0,0.2-0.3,0.4-0.2c0.1,0,0.2,0.2,0.3,0.3c0.1,0.1,0.1,0,0.2,0
		c0.2-0.1,0.5,0,0.6-0.3c0.1,0.2,0.5-0.3,0.6,0.2c0,0.1,0.1,0.1,0.2,0c0.1-0.1,0.2-0.1,0.3-0.1c0.1,0,0.2-0.1,0.3,0
		c0.4,0.3,0.4,0.3,0.4,0.7c0,0.1,0,0.1,0,0.2c0,0.3,0.5,0.3,0.3,0.6c-0.2,0.3,0,0.5,0.1,0.7c0.1,0.1,0.1,0.2,0.1,0.3
		c-0.1,0.3,0,0.5,0,0.8c0,0.1,0,0.1,0,0.2c0.3,0.6,0.5,1.2,0.4,1.9c0,0.4,0.1,0.7,0.4,0.9c-0.1,0.1-0.2,0.3-0.3,0.5
		c0,0-0.3,0.2,0,0.4c0.1,0.1-0.1,0.2-0.1,0.2c-0.1,0.1-0.1,0.1-0.2,0c0,0,0-0.1,0-0.2c0,0,0.1-0.1,0.1-0.1c0-0.1,0-0.1,0-0.2
		c0,0,0,0-0.1,0c-0.1,0-0.1,0.1-0.1,0.2c0.1,0.2-0.1,0.3-0.1,0.5c-0.1,0.1-0.2,0.3-0.3,0.3c-0.2,0-0.1-0.2-0.2-0.3
		c-0.1,0-0.1-0.1-0.2-0.2c-0.1-0.1-0.2-0.1-0.2,0.1c0,0.1,0,0.2,0,0.2c0,0-0.1-0.1-0.2-0.1c-0.3,0.3-0.7,0.2-1,0.3
		c-0.2,0.1-0.4,0-0.6,0.1c-0.1,0-0.2,0-0.3,0c-0.2-0.1-0.6-0.1-0.8,0.1c-0.1,0.1-0.3,0.2-0.4,0.1c-0.2-0.1-0.3-0.1-0.5,0.1
		c-0.1,0.1-0.3,0.2-0.4,0.3c-0.1,0.1-0.3,0.1-0.3,0.1c-0.1-0.1-0.2-0.1-0.3-0.1c-0.2,0-0.3,0.2-0.3,0.3c-0.1,0.2-0.1,0.2-0.3,0.1
		c-0.1-0.1-0.1,0-0.1,0c-0.1,0.1-0.1,0.2-0.3,0.2c-0.2-0.1-0.3,0.1-0.4,0.3c0,0-0.3,0.3-0.3,0.3C77.1,9.9,77,9.9,76.9,10
		c0,0,0,0.1,0,0.2c0,0,0.1,0,0.1,0c0,0,0.1,0,0.1,0c0.4-0.2,0.6,0.1,0.9,0.1c0,0.2,0.1,0.2,0.3,0.1c0.1-0.1,0.3-0.1,0.4,0
		c0.2,0.2,0.4,0.4,0.7,0.2c0.1-0.1,0.1,0,0.2,0.1c0.2,0.1,0.2,0.1,0.6,0.1c0,0,0.1,0.1,0.1,0.1c0.1,0,0.2,0.1,0.3,0.1
		c0.2,0,0.3,0.1,0.4-0.1c0.1,0.1,0.2,0.3,0.3,0.3c0.1,0.1,0.3,0.1,0.4,0c0.2-0.1,0.4,0,0.6,0.1c0.1,0.1,0.2,0.2,0.3,0.1
		c0.2-0.1,0.4-0.1,0.6,0c0.1,0.1,0.4,0.1,0.5,0c0.2-0.2,0.3,0.1,0.4,0c0.2-0.1,0.3-0.1,0.4,0.1c0,0,0.1,0.1,0.1,0.1
		c0.3-0.1,0.4,0.1,0.5,0.3c0.1,0.1,0.1,0.1,0.2,0c0.1-0.2,0.3-0.2,0.5-0.3c0.1-0.1,0.3,0.2,0.4,0c0,0,0.1,0,0.1,0
		c0.2,0.1,0.8,0.3,0.9,0.3c0.3,0,0.5,0.2,0.7,0.1c0.2,0,0.3,0.1,0.4-0.1c0-0.1,0.1,0,0.2,0c0.2,0.1,0.5,0.2,0.8,0.2
		c0.1,0,0.2,0,0.3,0.1c0.1,0.1,0.2,0.1,0.3,0.1c0.2-0.1,0.2-0.1,0.3,0.1c0,0,0.1,0.1,0.1,0.1c0.5-0.1,0.8,0.3,1.2,0.4
		c0.1,0,0.2,0.1,0.3,0c0.3-0.1,0.4-0.1,0.6,0.2c0.1,0.2,0.1,0.5,0.4,0.2c0.1,0.1,0.3,0.1,0.4,0.2c0.1,0.2,0.2,0.3,0.4,0.2
		c0.2,0,0.3,0.1,0.4,0.2c0.1,0.2,0.3,0.3,0.5,0.1c0.1-0.1,0.3,0.1,0.5,0.1c0.2,0,0.3,0.1,0.4,0.2c0.1,0.1,0.1,0.2,0.2,0.1
		c0.2,0,0.3,0,0.4,0.2c0,0.1,0.1,0.2,0.2,0.1c0.3,0,0.4,0.1,0.5,0.3c0,0.1,0.1,0.4,0.3,0.3c0.1,0,0.1,0.1,0.1,0.2
		c0,0.2,0,0.4,0.3,0.4c0.2,0,0.3,0.1,0.2,0.3c0,0.2,0.1,0.3,0.2,0.3c0.4,0.1,0.3,0.3,0.3,0.6c0.1,0.1,0.2,0,0.3,0.1
		c0.1,0,0.3,0,0.4,0c0.1,0.1,0,0.3,0.2,0.4c0,0.3,0,0.6,0.4,0.5c0.2,0.2,0.4,0.4,0.7,0.5c0.1,0,0.1,0.1,0.1,0.2
		c-0.1,0.4,0.1,0.6,0.4,0.8c0.2,0.2,0.4,0.3,0.6,0.5c0.5,0.3,0.7,0.8,1.1,1.2c0,0,0,0,0,0.1c-0.2,0.1,0,0.3,0.1,0.3
		c0.4,0.1,0.4,0.5,0.4,0.7c0,0.1,0,0.3,0.2,0.4c0.2,0.1,0.1,0.5,0.4,0.6c0,0,0.1,0.3,0,0.4c-0.2,0.2,0.1,0.3,0,0.5
		c0.3,0,0.3,0.2,0.2,0.4c0,0.3,0,0.5,0.3,0.7c0.1,0.1,0.1,0.2,0,0.3c-0.1,0.1-0.1,0.1,0,0.2c0.1,0.2,0.1,0.3,0,0.5
		c-0.1,0.1-0.2,0.2-0.1,0.4c0.1,0.2,0.1,0.3,0.2,0.5c-0.2,0.2,0.1,0.3,0,0.5c-0.1,0.1,0,0.3-0.1,0.4c-0.1,0.1-0.2,0.2-0.2,0.3
		c0,0.2,0,0.4,0.1,0.5c0.2,0.2,0.3,0.3,0,0.5c-0.1,0,0,0.1,0,0.1c0,0.1,0.2,0.2,0.1,0.4c-0.1,0.1,0,0.3-0.1,0.4
		c-0.1,0.1-0.1,0.2,0,0.3c0.2,0.2,0.1,0.3-0.1,0.4c-0.1,0-0.2,0.1,0,0.2c0.1,0.1,0.1,0.3,0.2,0.4c-0.2,0.1,0,0.3-0.2,0.5
		c-0.1,0-0.1,0.1-0.1,0.2c0,0.1,0,0.3,0,0.3c0.1,0.1,0.2,0.1,0.3,0c0.2-0.1,0.3-0.1,0.4,0c0.1,0.1,0.2,0.2,0.3,0
		c0.1-0.1,0.2-0.2,0.3,0c0.1,0.1,0.2,0.2,0.4,0.1c0.1-0.1,0.3-0.1,0.4,0c0.1,0.1,0.3,0.1,0.4,0.1c0.3,0,0.6-0.3,0.8,0.1
		c0,0.1,0.3,0,0.4,0c0.2-0.1,0.4,0.2,0.6,0.1c0.1,0,0.1,0.1,0.1,0.2c0.1,0.2,0.3,0.3,0.5,0.4c0.4,0.2,0.4,0.2,0.6,0.6
		c0.1,0.2,0.1,0.4,0.3,0.6c-0.2,0.3,0.3,0.3,0.2,0.5c0.4,0.8,0.4,0.9,0.2,1.7c0,0.2,0,0.5,0.2,0.7c0.2,0.2,0,0.3,0,0.4
		c0,0.1-0.1,0.3,0.1,0.5c0.1,0.1,0.1,0.1,0,0.2c-0.2,0.2-0.1,0.4,0,0.6c0.1,0.2,0.1,0.4,0.1,0.6c-0.1,0.4,0.1,0.8,0.3,1.2
		c0.1,0.1-0.1,0.3,0.1,0.3c0,0.3,0,0.6,0.2,0.8c0.1,0.1,0,0.1,0,0.2c-0.1,0.3,0,0.9,0.2,1.2c0.1,0.1,0.3,0.1,0.1,0.3
		c-0.1,0.2,0.2,0.3,0.1,0.3c-0.2,0.2,0,0.4,0.1,0.6c0,0.1,0.1,0.2,0.1,0.2c-0.2,0.2-0.1,0.3,0.1,0.4c0,0,0,0,0,0
		c0.1,0.1,0.2,0.3,0.2,0.4c0,0.1-0.1,0.3,0,0.4c-0.2,0.2,0,0.4,0,0.6c0,0.2-0.1,0.4,0.1,0.6c0.1,0.1,0.1,0.3,0,0.4c0,0,0,0.1,0,0.1
		c0,0.1,0.3,0.2,0.1,0.4c-0.1,0.1-0.2,0.2-0.2,0.3c-0.1,0.3-0.1,0.3-0.1,0.7c0,0.4,0.1,0.8-0.1,1.1c-0.1,0.3-0.1,0.6-0.1,0.8
		c0,0.3,0.1,0.7-0.1,1c0,0.1,0,0.2,0,0.3c0.1,0.2,0.2,0.4,0,0.6c0,0,0,0.1,0,0.2c0.1,0.2,0.1,0.4,0,0.5c-0.2,0.2,0.2,0.3,0,0.5
		c-0.1,0.1-0.2,0.3-0.2,0.4c0.1,0.2-0.2,0.2-0.2,0.4c0,0.1,0.2,0.2,0.2,0.4c0,0.1-0.2,0.3,0,0.5c0.1,0.1,0,0.3-0.1,0.4
		c0,0,0,0.1,0,0.1c0.1,0.2,0.1,0.4,0,0.6c-0.1,0.2,0.1,0.4-0.1,0.6c-0.1,0.1,0,0.1,0.1,0.2c0.1,0.2,0.1,0.5,0,0.7
		c-0.1,0.2-0.1,0.9-0.1,1.1c-0.1,0.2-0.1,0.3,0,0.4c-0.1,0,0,0.2-0.1,0.2c-0.3,0.2-0.2,0.4,0,0.6c0.1,0.2,0.1,0.3,0,0.5
		c-0.2,0.3-0.3,0.8-0.1,1.1c0,0.1,0.1,0.1,0.1,0.2c0.1,0.1,0.2,0.3,0,0.4c0.1,0.2-0.1,0.3-0.1,0.5c0,0.2,0,0.4-0.1,0.5
		c0,0,0,0,0,0.1c0.3,0.3,0,0.4-0.2,0.5c-0.2,0.1-0.3,0.3-0.6,0.3c-0.1,0-0.1,0-0.2,0.1c-0.1,0.1-0.2,0.2-0.3,0.3
		c-0.1-0.2-0.2-0.1-0.4-0.1c-0.3,0-0.4-0.1-0.6-0.3c0,0-0.1-0.1-0.1-0.1c-0.1,0.2-0.2-0.1-0.3,0c-0.1,0-0.1,0.1-0.1,0.2
		c0,0.2-0.1,0.2-0.2,0.1c-0.1-0.1-0.3,0.1-0.5-0.1c-0.1-0.1-0.3,0.1-0.5,0.2c0,0-0.1,0.1-0.1,0c-0.1-0.2-0.3-0.2-0.5-0.2
		c-0.2,0-0.2-0.2-0.3-0.2c-0.1,0-0.2,0.1-0.3,0c-0.3-0.2-0.6-0.3-1-0.1c-0.2-0.1-0.4,0-0.6,0c-0.2,0-0.3-0.1-0.3-0.2
		c0-0.1-0.1-0.2-0.1-0.1c-0.2,0.3-0.4,0-0.7,0.1c-0.2,0.1-0.5-0.1-0.7,0.1c0,0-0.1,0-0.2,0c-0.1-0.1-0.3-0.1-0.4,0
		c-0.2,0.2-0.4,0-0.6-0.1c-0.2,0-0.4,0.3-0.6,0.1c-0.2-0.2-0.5-0.1-0.6-0.1c-0.2,0.2-0.3,0.1-0.4-0.1c-0.1-0.1-0.1,0-0.2,0
		c-0.1,0.1-0.2,0.2-0.4,0.3c-0.1-0.2-0.4,0-0.5-0.2c-0.1-0.1-0.2-0.1-0.4,0c-0.4,0.2-0.7,0.2-1-0.1c-0.1-0.1-0.1-0.1-0.2,0
		c0,0-0.1,0.1-0.1,0.1c-0.1,0.2-0.3,0.2-0.5,0.1c-0.1-0.1-0.3-0.3-0.4,0c0,0.1-0.1,0-0.2-0.1c-0.2-0.2-0.4-0.2-0.5-0.4
		c-0.1-0.1-0.3-0.1-0.4,0c-0.2,0.2-0.3,0.2-0.5,0.1c-0.2-0.1-0.4,0.1-0.6-0.1c0,0-0.1,0.1-0.1,0.1c-0.1,0.2-0.3,0.2-0.4,0
		c-0.1-0.1-0.2-0.2-0.3,0c-0.1,0.1-0.2,0-0.3,0c0,0,0-0.1-0.1-0.1c-0.1,0-0.2,0.3-0.4,0.1c-0.2-0.1-0.3,0.1-0.4,0.2
		c-0.1,0-0.2,0-0.3-0.1c-0.1-0.2-0.3-0.2-0.4,0c-0.2,0.2-0.3-0.2-0.5,0c-0.1,0.1-0.3,0.2-0.4,0.2c-0.2,0-0.3-0.2-0.5-0.2
		c-0.2,0-0.3-0.3-0.6-0.1c-0.2,0.2-0.4-0.3-0.6-0.2c-0.2,0.1-0.3,0.3-0.5,0.1c-0.3,0.1-0.4-0.1-0.6-0.2c-0.2-0.1-0.3-0.2-0.5,0
		c-0.1,0.1-0.4,0.1-0.5,0.2c-0.1,0-0.2,0.1-0.2,0c-0.1-0.1-0.2,0-0.2-0.1c-0.2-0.1-0.3,0.3-0.5,0.1c-0.1-0.1-0.4,0-0.6-0.1
		c-0.1,0-0.2,0-0.3,0.1c-0.1,0.1-0.2,0.1-0.3,0c-0.1-0.1-0.2-0.1-0.3,0c-0.1,0.1-0.2,0.1-0.3,0c-0.1-0.1-0.2-0.1-0.4,0
		c0,0-0.1,0.1-0.1,0.1c-0.2-0.2-0.4,0-0.6,0c-0.2-0.1-0.4-0.1-0.7-0.2c0,0-0.1,0-0.1-0.1c-0.2-0.2-0.3,0.3-0.5,0.1
		c-0.1-0.1-0.3-0.1-0.5,0c-0.1,0.1-0.2-0.2-0.3-0.1c-0.1,0.1-0.1,0.1-0.2,0.2c0,0-0.1,0-0.2,0c-0.1-0.1-0.2-0.1-0.3,0
		c-0.1,0.1-0.2,0.1-0.3,0c-0.1-0.1-0.3-0.1-0.4,0c-0.1,0.1-0.2,0.1-0.2,0c-0.1-0.3-0.4-0.1-0.5-0.1c-0.1,0-0.2,0.1-0.4,0
		c-0.2-0.1-0.5-0.1-0.8,0.1c-0.1,0.1-0.1,0.1-0.2,0c-0.2-0.2-0.5-0.1-0.6-0.1c-0.2,0.1-0.3,0-0.5-0.1c-0.2-0.1-0.4-0.1-0.5,0.1
		c-0.1,0.1-0.3,0.2-0.4,0.1c-0.2-0.2-0.4,0-0.5-0.1c-0.1-0.1-0.1-0.1-0.2,0c-0.1,0.2-0.4,0.2-0.5,0.1c-0.3-0.3-0.7-0.1-1,0
		c0,0-0.8,0-0.8,0c-0.1-0.1-0.1-0.1-0.2-0.1c-0.2,0-0.3,0.1-0.4,0.1c-0.1,0-0.2-0.2-0.4-0.1c-0.1,0-0.1,0-0.2,0
		c-0.3,0.1-0.6,0.2-0.9,0.1c-0.2-0.1-0.3-0.1-0.4,0c-0.1,0-0.3-0.1-0.4-0.1c-0.2,0-0.4-0.1-0.5,0c-0.2,0.2-0.4,0-0.6,0
		c-0.2,0.1-0.4,0.1-0.5-0.1c-0.1,0-0.2,0-0.3,0c-0.1-0.1-0.2,0.2-0.4,0c-0.1-0.1-0.3,0-0.4,0.1c-0.1,0-0.3,0-0.5,0c0,0,0,0-0.1,0
		c-0.1,0-0.1,0.4-0.4,0.1c-0.1-0.1-0.3,0-0.5,0c-0.2-0.1-0.4,0.3-0.6,0c-0.2,0.1-0.3,0.2-0.5,0c-0.1-0.1-0.4,0.1-0.6-0.1
		c-0.1-0.1-0.1,0-0.1,0c-0.2,0.1-0.4,0.1-0.6,0c-0.2-0.1-0.3-0.1-0.5,0.1c-0.1,0.1-0.2,0.1-0.3,0c-0.6-0.2-0.6-0.2-1.1,0
		c-0.1,0.1-0.2,0.1-0.3,0c-0.2-0.1-0.5-0.3-0.7-0.1c-0.1,0.1-0.3,0.1-0.4,0c-0.2-0.1-0.2,0.1-0.4,0c-0.1,0-0.3,0-0.4,0
		c-0.1-0.1-0.2-0.1-0.3,0c0,0-0.1-0.1-0.1-0.1c0-0.1-0.6-0.6-0.7-0.6c-0.4-0.2-0.4-0.2-0.9-0.2c-0.3,0-0.6-0.1-0.9-0.1
		c-0.2,0-0.2-0.1-0.1-0.2c0.1-0.1,0-0.1,0-0.1c-0.1,0.1-0.3,0-0.4,0.1c-0.2,0.1-0.4,0.1-0.5-0.1c-0.1-0.3-0.3-0.5-0.3-0.8
		c0-0.2,0-0.3-0.2-0.5c-0.1-0.1-0.1-0.1-0.1-0.2c0-0.4,0-0.4-0.1-0.6c-0.1-0.1-0.2-0.2,0-0.3c0.2-0.2,0.2-0.4,0.1-0.6
		c0-0.1-0.1-0.2-0.1-0.3c0-0.1-0.1-0.2-0.1-0.2c0.1-0.1,0.1-0.2,0.1-0.3c0.1-0.2,0.1-0.3,0-0.5c-0.1-0.1-0.2-0.2,0-0.4
		c0.1-0.1,0.1-0.2,0-0.3c-0.2-0.3-0.3-0.7-0.1-1.1c0-0.1,0-0.2-0.1-0.2c-0.2,0-0.2-0.1-0.1-0.3c0.2-0.2,0.1-0.4,0-0.7
		c-0.1-0.2-0.2-0.3,0-0.5c-0.2-0.1-0.1-0.4-0.2-0.5c0-0.1,0-0.2,0.1-0.3c0.2-0.2,0.4-0.4,0.2-0.7C53,54,53,53.7,53,53.6
		c0.2-0.2,0.1-0.3-0.1-0.4c-0.3-0.3-0.3-0.5,0-0.7c0.1-0.1,0.1-0.2,0.1-0.4c-0.1-0.1,0.1-0.2,0.1-0.3c-0.1-0.1-0.2-0.2-0.3-0.3
		c-0.1,0,0-0.1-0.1-0.2c0-0.1,0.2-0.2,0-0.4c-0.1-0.1,0.1-0.3,0.1-0.4c0.1-0.1,0.1-0.2,0-0.3c-0.2-0.1-0.1-0.3,0-0.4
		c0.1-0.1,0.2-0.2,0.1-0.3c-0.2-0.2-0.1-0.5-0.1-0.7c0,0,0-0.1,0-0.1c-0.2-0.3-0.3-0.5,0-0.8c-0.2-0.2,0-0.5-0.2-0.6
		c-0.1-0.1-0.1-0.2-0.1-0.3c0.1-0.2,0.2-0.4,0-0.6c0.2-0.2,0-0.4,0.1-0.6c0-0.1,0-0.2,0.1-0.3c0.1-0.2,0.1-0.5-0.1-0.7
		c-0.1-0.1,0.2-0.2-0.1-0.3c0.1-0.2-0.3-0.3-0.1-0.4c0.2-0.1-0.2-0.2,0-0.3c0.1,0,0.1-0.2,0-0.3c-0.2-0.2-0.1-0.3,0.1-0.4
		c0.1-0.1,0.1-0.2,0-0.3c-0.1-0.1-0.1-0.1-0.2-0.2c0-0.1,0-0.2,0-0.2c0.1-0.3,0.1-0.3,0-0.5c-0.2-0.1-0.2-0.3,0-0.5
		c0.1-0.1,0-0.2,0.1-0.3c0,0,0.1-0.1,0-0.1c-0.2-0.1-0.1-0.2,0-0.4c0.1-0.1,0.1-0.3-0.2-0.4c-0.2-0.1-0.4-0.1-0.4,0.1
		c0,0.3-0.1,0.3-0.3,0.3c-0.1,0-0.2,0-0.2,0.2c0,0.1-0.1,0.1-0.1,0.1c-0.3-0.1-0.5,0.1-0.7,0.2c0,0-0.2,0.2-0.3,0
		c0-0.1-0.1,0-0.2,0.1c-0.2,0.2-0.5,0.2-0.7,0.4c-0.2,0-0.4,0.2-0.6,0c0,0-0.2-0.1-0.3,0c0,0-0.2,0.1-0.1,0.2c0.2,0.2,0,0.4,0,0.6
		c0,0.2,0,0.5,0.1,0.7c0,0.1,0.2,0.2,0,0.3c0,0,0,0.1,0,0.1c0.3,0.2,0.3,0.5,0,0.7c-0.1,0.1,0,0.1,0.1,0.1c0.4,0.2,0.2,0.5,0.1,0.8
		c-0.1,0.2-0.1,0.3,0,0.4c0.1,0.2,0.1,0.4,0,0.5c0,0.1-0.1,0.1-0.1,0.2c-0.1,0.3-0.1,0.3-0.1,0.6c0,0.2,0,0.3-0.2,0.3
		c-0.1,0.2-0.5,0-0.5,0.3c0,0-0.1,0-0.1,0c-0.2-0.2-0.4,0.1-0.6,0c0,0-0.2-0.2-0.1,0c0,0.2-0.1,0.4-0.1,0.6c0,0.2,0,0.4,0.1,0.5
		c0.2,0.1,0.1,0.4,0,0.5c-0.2,0.3-0.2,0.5-0.2,0.8c0,0.1,0,0.1,0,0.2c-0.1,0.1-0.1,0.2,0,0.3c0.1,0.1,0.3,0.2,0.3,0.5
		c0,0.2-0.3,0.6,0.1,0.7c0,0.2,0.1,0.4,0,0.6c-0.1,0.2,0.2,0.4-0.1,0.6c0.2,0.2,0.1,0.4,0.1,0.6c0,0.1,0,0.1,0,0.2
		c0.3,0.3,0.2,0.5,0,0.7c0,0-0.2,0.2,0,0.3c0.3,0.2,0.3,0.5,0.1,0.7c-0.1,0.2-0.1,0.3,0,0.4c0.2,0.2-0.1,0.2-0.1,0.4
		c0.1,0.2,0.1,0.4-0.2,0.4c-0.2,0-0.3,0.1-0.3,0.2c0,0.1-0.1,0.2-0.2,0.3c-0.1,0.1-0.2,0.2-0.3,0c-0.1-0.2-0.2,0.1-0.3,0
		c-0.2-0.2-0.2,0-0.3,0.1c-0.1,0.1-0.2,0.1-0.3,0.1c-0.1,0-0.2,0-0.3-0.1c-0.1,0.1-0.2,0.2-0.3,0.2c-0.1,0-0.2,0-0.2,0
		c-0.3-0.2-0.5-0.2-0.8,0c-0.2,0.1-0.2,0-0.3-0.1c-0.1-0.1-0.2-0.2-0.2-0.1c-0.1,0.4-0.2,0.2-0.4,0c0,0-0.1-0.1-0.1-0.1
		c-0.2,0-0.4,0.1-0.4-0.1c0-0.2-0.2-0.2-0.3-0.2c0,0-0.1,0-0.1-0.1c0-0.2,0-0.4-0.2-0.5c0,0,0-0.1,0-0.1c-0.2-0.2,0.4-0.3,0.1-0.6
		c-0.2-0.2-0.1-0.5-0.1-0.7c0-0.2,0.2-0.3,0.1-0.4c-0.1-0.2,0-0.4-0.2-0.6c-0.3-0.3-0.1-0.6,0-0.8c0.1-0.3,0-0.5,0-0.7
		c0-0.2-0.2-0.2-0.2-0.3c0-0.1,0.2-0.2,0.1-0.3c-0.2-0.2,0.1-0.2,0-0.3c-0.2-0.3-0.1-0.7-0.1-1.1c0-0.2,0-0.4,0.1-0.6
		c0.1-0.1,0.1-0.3,0-0.4c-0.1-0.1-0.1-0.2,0-0.2c0.1-0.1,0.1-0.2,0-0.2c-0.3-0.2-0.2-0.5-0.1-0.7c0.1-0.1,0.1-0.3,0-0.4
		c-0.2-0.2,0.1-0.6-0.2-0.8c0,0,0.2-0.2,0.2-0.3c0.2-0.1,0-0.1-0.1-0.2c-0.2-0.1,0-0.4-0.2-0.4l0.2-0.6c0.1-0.1,0.1-0.2,0-0.3
		C41,45.1,41,44.9,41,44.8c0-0.2,0.1-0.4-0.1-0.6c-0.1-0.1-0.2-0.3,0-0.5c0.1-0.1,0-0.4-0.2-0.6c-0.1-0.1-0.2-0.1-0.3-0.3
		c-0.1-0.3-0.4-0.4-0.6-0.6c-0.3-0.1-0.5-0.3-0.5-0.5c0-0.1,0-0.2-0.1-0.2c-0.2-0.1-0.5,0-0.6-0.3c-0.2,0.2-0.2,0-0.3-0.2
		c-0.1-0.2-0.2-0.3-0.2-0.5c-0.1-0.2-0.2-0.4-0.5-0.3c-0.1,0-0.1,0-0.2,0c-0.3-0.1-0.4,0.1-0.3,0.3c0.2,0.2,0.1,0.3-0.1,0.5
		c-0.2,0.1-0.2,0.3,0,0.4c0.3,0.2,0.2,0.5,0.1,0.7c-0.1,0.1-0.1,0.2,0,0.3c0.2,0.1,0.1,0.4,0.2,0.5c0,0,0,0.1,0,0.1
		c0,0.2-0.3,0.3-0.1,0.5c0.1,0.2,0.1,0.4-0.1,0.6c-0.1,0.1-0.1,0.3,0,0.5c0.1,0.2,0.1,0.4,0,0.6c-0.1,0.1,0,0.2,0.1,0.2
		c0.2,0.1,0.2,0.2,0,0.4c-0.1,0.1-0.1,0.2,0,0.3c0.1,0.1,0.1,0.3,0,0.4c-0.1,0.2-0.1,0.4,0.1,0.6c0.1,0.1,0.1,0.2,0,0.3
		c0,0,0,0.1,0,0.1c-0.1,0.2,0.1,0.2,0.1,0.4c0,0.2-0.2,0-0.2,0.2c0,0.1,0,0.3,0,0.3c0.2,0.3,0.1,0.7,0.3,1c0.1,0.1,0,0.3-0.2,0.4
		c-0.1,0-0.2,0.1-0.3,0.1c-0.1,0-0.2,0.1-0.2,0.3c0,0.3-0.3,0.4-0.4,0.5c0,0-0.1,0-0.2,0c-0.1-0.1-0.8-0.1-0.8-0.1
		c-0.1,0.3-0.3,0.1-0.5,0.1c-0.1,0-0.3,0-0.4,0.1c-0.1-0.2-0.3,0-0.4-0.2c0,0,0,0-0.1,0c-0.2,0.2-0.4,0-0.6,0.2
		c-0.2-0.3-0.7-0.2-0.8-0.6c-0.1-0.1-0.1-0.2-0.2-0.3c-0.1,0-0.1-0.2,0-0.3c0.2-0.2,0.1-0.3,0-0.5c0-0.1-0.1-0.1-0.1-0.2
		c0-0.2-0.3-0.3-0.2-0.4c0.1-0.2,0-0.4,0.1-0.5c0.1-0.2,0.1-0.3,0-0.4c-0.1-0.1-0.2-0.2,0-0.3c0.2-0.2-0.2-0.3,0-0.5
		c0.2-0.1,0.1-0.3,0.1-0.4c-0.1-0.2-0.2-0.3,0-0.5c0,0,0-0.1,0-0.2c-0.1-0.6-0.1-0.6,0-1.3c0-0.1,0-0.2-0.1-0.2
		c-0.1,0-0.1-0.1,0-0.2c0.1-0.2,0.2-0.4,0-0.6c0.2-0.2,0.1-0.4,0-0.6c-0.1-0.5-0.1-0.5,0.2-0.9c-0.3-0.3-0.3-0.8-0.4-1.2
		c0-0.1,0-0.1,0.1-0.1c0-0.2,0.2-0.3,0-0.5c-0.1,0,0-0.1,0-0.1c0.1-0.2,0-0.3-0.1-0.4c-0.1-0.1-0.2-0.3,0-0.4c0.1,0,0.1-0.1,0-0.2
		c-0.1-0.1-0.3-0.2-0.1-0.5c0.1-0.1,0-0.3,0.1-0.5c0,0,0.1-0.1,0-0.1c-0.2-0.2-0.2-0.4-0.1-0.6c0-0.1,0-0.2-0.1-0.3
		c-0.1-0.1,0-0.1,0-0.2c0.1-0.3,0.2-0.6-0.1-0.9c0,0-0.1-0.1-0.1-0.1c0.2-0.3-0.1-0.6,0-0.8c0.1-0.2,0.1-0.3,0-0.4c0,0,0-0.1,0-0.2
		c0.2-0.1,0.2-0.3,0.1-0.4c-0.2-0.2,0-0.6-0.2-0.8c-0.1-0.2,0-0.4,0-0.6c0-0.2-0.2-0.4-0.1-0.6c0-0.3,0.1-0.6,0.2-0.9
		c0-0.1,0.1-0.2,0-0.3c-0.2-0.2,0-0.3,0.2-0.3c0.2,0,0.3,0,0.4,0.1c0.1,0.1,0.2-0.2,0.4-0.1c0.1,0.1,0.1,0,0.1-0.1
		c0-0.1,0-0.2,0.2-0.2c0.2,0.1,0.4-0.2,0.4-0.1c0.2,0.1,0.3,0,0.4,0c0.1,0,0.1,0,0.2-0.1c0.4-0.3,0.7-0.3,1,0
		c0.2,0.2,0.4,0.1,0.5,0.1c0.4,0,0.5,0.2,0.4,0.6c0,0.1,0,0.1,0,0.1c0.3,0,0.2,0.3,0.4,0.4c0,0,0,0.1,0.1,0.2
		c0.3,0.1,0.5,0.3,0.7,0.5c0.2,0.2,0.4,0.4,0.7,0.6c0.2,0.1,0.5,0.1,0.4,0.4c0,0,0.1,0.1,0.1,0.1c0.2,0,0.4,0,0.5,0.3
		c0,0.1,0.1,0.2,0.3,0.2c0.2,0,0.2,0.1,0.3,0.2c0.1,0.3,0.3,0.5,0.6,0.5c0,0,0.1,0,0.1,0.1c0.1,0.1,0.1,0.2,0.2,0.3
		c0.1,0.1,0.2,0,0.3,0c0.1,0,0.2,0.2,0.3,0.2c0.1,0.1,0.1,0.3,0.2,0.3c0.3,0.1,0.4,0.4,0.7,0.5c0.2,0,0.3,0.1,0.3,0.3
		c0.1,0.2,0.1,0.4,0.4,0.4c0.2,0,0.2,0.3,0.4,0.4c0.3,0.2,0.7,0.5,1,0.6c0.1,0,0.2,0,0.2,0c0-0.3,0.2-0.2,0.3-0.1
		c0.1,0.1,0.1,0.1,0.3,0c0.1-0.2,0.4-0.2,0.5-0.5c0.1-0.2,0.4-0.2,0.6-0.1c0.2,0.1,0.2,0.1,0.4,0c0,0,0.2,0,0.3,0
		c0.2,0.1,0.3,0,0.4-0.2c0-0.2,0-0.3,0.2-0.2c0.1,0,0.3,0,0.3-0.2c0-0.1,0.2-0.1,0.3,0c0.4,0.1,0.8-0.1,1.1-0.4
		c0.1-0.1,0.3-0.2,0.4-0.3c0.2-0.1,0.3,0.2,0.5,0.1c0.1-0.1,0.1-0.3,0.3-0.3c0.1,0,0.1,0,0.2,0c0.3,0.2,0.5,0,0.8-0.1
		c0.2,0,0.5-0.1,0.6-0.4c0-0.1,0.1-0.2,0.3-0.1c0.2,0.1,0.3,0.2,0.5,0c0,0,0.1,0,0.1,0c0.3,0.1,0.5-0.1,0.8-0.1c0.1,0,0.2,0,0.2-0.1
		c0-0.1-0.1-0.1-0.1-0.2c-0.1-0.1-0.2-0.1-0.2,0c-0.2,0.3-0.4,0.2-0.7,0.1c-0.3-0.1-0.6-0.1-0.9,0.2c-0.1,0.1-0.3,0-0.4,0
		c-0.3,0-0.6,0.1-0.8,0.3c0,0,0,0.1-0.1,0.1c-0.4-0.1-0.5,0-0.9,0.2c-0.1,0-0.1,0.1-0.2,0.1c-0.3-0.3-0.7,0.1-1,0
		c-0.1,0-0.2,0.1-0.2,0.1c0,0-0.1,0.1-0.1,0.1c-0.3-0.3-0.6,0.1-0.9,0c-0.2-0.1-0.4,0.2-0.6,0.2c-0.2,0-0.4-0.2-0.7-0.1
		c-0.1,0-0.1,0-0.2,0.1c-0.2,0.2-0.4,0.3-0.7,0.3c-0.1,0-0.1,0-0.1,0.1c-0.1,0.3-0.3,0-0.4,0c-0.2,0-0.2,0-0.2-0.3
		c0-0.1,0-0.2-0.1-0.2c-0.2,0-0.4,0-0.4-0.3c0-0.1-0.1-0.1-0.2-0.1c-0.1,0-0.3,0-0.4,0c-0.1,0-0.1,0-0.1-0.1
		c0.1-0.3-0.4-0.3-0.3-0.6c0-0.1-0.2-0.1-0.2-0.1c-0.1,0-0.2,0.2-0.2,0.1c0-0.3-0.3-0.1-0.3-0.3c0-0.2-0.1-0.2-0.2-0.3
		c-0.3-0.2-0.7-0.3-1-0.6c-0.2-0.2-0.3-0.3-0.5-0.5c-0.2-0.2-0.4-0.3-0.5-0.5c0,0-0.1-0.1-0.1-0.1c-0.1-0.1-0.3,0-0.4-0.1
		c-0.1-0.1,0.1-0.3-0.2-0.3c-0.2,0-0.5-0.6-0.7-0.8c0-0.1,0-0.1-0.1-0.1c-0.2,0-0.3-0.1-0.4-0.3c-0.1-0.1-0.2-0.2-0.3-0.3
		c0,0-0.1,0-0.1-0.1c-0.4-0.5-1-0.9-1.4-1.4c-0.1-0.1-0.2-0.3-0.2-0.4c0-0.2,0.1-0.4-0.2-0.4c0,0,0-0.1,0-0.1c0.3-0.3,0-0.4-0.2-0.6
		c-0.1-0.1-0.2-0.3-0.2-0.5c0-0.1,0-0.1,0-0.2c-0.2-0.1-0.2-0.4-0.2-0.6c0-0.2,0-0.3-0.2-0.4c0,0-0.1-0.1-0.1-0.1
		c0.3-0.4-0.3-0.7-0.1-1.1c0,0,0-0.1,0-0.1c-0.3-0.2-0.1-0.6-0.4-0.8c0,0,0,0,0,0c-0.2-0.2,0.2-0.3,0-0.5c-0.1-0.1-0.2-0.3-0.2-0.5
		c0-0.2-0.1-0.4,0.1-0.5c-0.1-0.2,0-0.5-0.2-0.6c-0.2-0.1-0.3-0.3-0.2-0.6c0-0.2,0-0.3-0.1-0.4c-0.2-0.1-0.1-0.3-0.1-0.4
		c0-0.1-0.2-0.3-0.1-0.3c0.1-0.2-0.1-0.2-0.1-0.3c0-0.1-0.1-0.1-0.1-0.1c0.2-0.3,0-0.5-0.2-0.7c-0.1-0.1-0.1-0.2-0.1-0.3
		c0-0.1,0.1-0.1,0.1-0.2c-0.1-0.4,0.1-0.7,0.4-0.9c0.1-0.1,0.1-0.1,0.1-0.2c0-0.2,0-0.3,0.2-0.3c0.1,0,0.1-0.1,0.2-0.2
		c0-0.1,0-0.2,0.1-0.3c0,0,0,0,0.1,0c0.1,0,0.2,0,0.3,0c0.1-0.1-0.1-0.1-0.1-0.2c0-0.1,0-0.2,0-0.2c0-0.2,0-0.3,0.3-0.3
		c0,0,0.1,0,0.1-0.1c0-0.2,0-0.1,0.1-0.1c0.1,0,0.2,0,0.3,0c0.3-0.1,0.6-0.2,0.8,0.1c0.2,0.2,0.5,0,0.6,0.2c0.1-0.1,0.2-0.1,0.3-0.2
		c0.1-0.2,0.3-0.2,0.4,0c0,0,0.1,0,0.1,0c0.5,0,0.8,0.1,1,0.4c0.2,0.3,0.3,0.4,0.7,0.4c0.2,0,0.4,0.1,0.5,0.2
		c0.2,0.2,0.5,0.3,0.7,0.3c0.3,0,0.5,0.2,0.6,0.4c0.1,0.3,0.2,0.3,0.5,0.3c0.1,0,0.1,0,0.2,0c0.4,0.3,0.4,0.3,0.8,0.3
		c0.1,0,0.2,0,0.2,0.2c0,0.1,0.1,0.1,0.2,0.2c0.1,0,0.3-0.1,0.4,0.1c0.1,0.2,0.1,0.2,0.3,0.2c0.2,0,0.2,0.2,0.4,0.3
		c0.3,0.3,0.3,0.3,0.8,0.3c0.1,0,0.1,0,0.2,0.1c0.1,0.3,0.4,0.4,0.7,0.4c0.1,0,0.2,0.1,0.2,0.1c0.1,0.3,0.3,0.4,0.5,0.5
		c0.2,0.1,0.4,0.2,0.4,0.5c0,0.1,0.1,0.2,0.1,0.3c0.1,0.4,0.2,0.8,0.1,1.1c0,0.3,0,0.4,0.1,0.6c0.1,0.1,0.2,0.1,0.2,0.2
		c0,0-0.1,0.1,0,0.2c0.1,0.1,0.1,0.3,0,0.5c0,0.2,0.2,0.3,0.1,0.4c0,0.1-0.2,0.1,0,0.2c0.1,0,0.2,0.1,0.3,0.2c0.1,0.1,0.2,0.1,0.2,0
		c0.3-0.3,0.7-0.3,1-0.6c0.1-0.1,0.2-0.1,0.3,0c0.1,0.1,0.3,0,0.5,0.2c0.5-0.1,0.9,0,1.3,0.4c0.3-0.1,0.4,0.2,0.6,0.3
		c0.2,0.2,0.5,0.3,0.6,0.5c0.1,0.2,0.3,0.2,0.5,0.2c0.2,0,0.3,0.1,0.4,0.2c0,0,0,0.1,0,0.1c0.1,0.2,0.4-0.1,0.5,0.2
		c0,0.2,0.3,0.2,0.4,0.2c0.2,0.1,0.4,0.3,0.7,0.3c0.1,0,0.1,0.1,0.2,0.2c0,0.1,0.2,0.1,0.3,0.2c0.2-0.3,0.4,0,0.4,0.1
		c0.1,0.2,0.2,0.4,0.5,0.2c0.1-0.1,0.1,0,0.1,0.1c0.1,0.1,0.2,0.1,0.2,0.3c0,0.1,0.1,0.2,0.2,0.3c0.1,0.2,0.4,0,0.5,0.3
		c0,0.2,0.2,0.3,0.3,0.3c0.1,0,0.2,0.2,0.2,0.3c-0.1,0.3,0.1,0.5,0.3,0.7c0.2,0.2,0.1,0.5,0.1,0.7c0,0-0.1,0-0.1,0.1
		c0.4,0.4,0,0.8,0.1,1.2c0,0,0,0.7,0.1,0.7C57.6,32.3,57.4,32.4,57.2,32.6z M106.4,53.8c-0.1-0.2-0.2-0.3-0.3-0.4
		c-0.1-0.1-0.1-0.2,0-0.3c0.2-0.2,0.2-0.2,0.2-0.7c0.2-0.2-0.1-0.4,0.1-0.6c0.1,0-0.1-0.3,0-0.4c0-0.1-0.1-0.2-0.3-0.2
		c-0.1,0-0.3-0.2-0.2-0.2c0.1-0.3-0.2-0.4-0.4-0.6c0-0.1-0.1-0.2-0.2-0.1c-0.2,0.2-0.3,0-0.5-0.1c-0.1,0-0.1-0.1-0.2,0
		c-0.1,0.2-0.3,0.1-0.4,0c-0.2-0.2-0.5-0.1-0.7,0c-0.3,0.2-0.6,0.2-0.9,0c-0.1-0.1-0.3-0.2-0.4,0.1c0,0.1-0.1,0.1-0.2,0
		c-0.3-0.2-0.6-0.3-0.9-0.1c-0.1,0.1-0.3-0.1-0.5-0.1c-0.2,0-0.2,0.2-0.4,0.3c-0.4,0-0.8-0.1-1.1-0.3c-0.1-0.1-0.1,0-0.2,0
		c-0.2,0-0.3,0.3-0.4,0.1c-0.2-0.2-0.3,0.2-0.5,0c-0.2-0.2-0.4-0.1-0.6-0.1c-0.2,0-0.3,0.1-0.5,0.1c-0.2,0-0.4-0.2-0.6-0.1
		c0,0-0.1,0-0.1,0c-0.2,0-0.2,0.2-0.4,0.2c-0.2,0-0.2-0.2-0.4-0.2c0,0-0.1,0-0.1,0c-0.1,0.2-0.2-0.1-0.3,0c-0.1,0.1-0.2,0.2-0.3,0.1
		c-0.3-0.1-0.7,0-1.1-0.2c-0.2-0.1-0.2,0.2-0.4,0c-0.1-0.2-0.3-0.1-0.4,0.1c-0.1,0.1-0.2,0.2-0.3,0c-0.2-0.3-0.5-0.2-0.7-0.1
		c-0.3,0.1-0.5,0.1-0.8,0l-0.8-0.2c-0.2,0.3-0.4,0-0.5,0c-0.2-0.1-0.5,0.1-0.7-0.2c0-0.1-0.3-0.1-0.4,0.1c-0.2,0.3-0.4,0.1-0.5,0
		c-0.1,0-0.2-0.3-0.4-0.1c0,0-0.1,0-0.1,0c-0.2-0.2-0.3-0.1-0.5,0c0,0-0.1,0-0.1,0c-0.2-0.2-0.5,0.1-0.7-0.1c0,0-0.2-0.1-0.3,0
		c-0.1,0.2-0.3,0.2-0.4,0.1c-0.2,0.2-0.3,0.1-0.5-0.1c-0.2-0.2-0.3-0.2-0.6,0c-0.2,0.2-0.2,0.2-0.5,0c-0.1-0.1-0.2-0.1-0.4,0
		c-0.1,0.1-0.1,0.1-0.2,0.1c-0.2-0.1-0.4,0-0.7,0.1c0,0-0.1,0-0.1,0c-0.3-0.2-0.7-0.1-1,0c-0.1,0-0.3,0.1-0.3,0
		c-0.2-0.3-0.4-0.1-0.7-0.1c-0.2,0-0.2,0.1-0.3,0.2c-0.2,0.1-0.2-0.2-0.4-0.2c-0.1,0-0.3,0-0.4,0.1c-0.1,0-0.3-0.1-0.4-0.2
		c-0.1,0.2-0.3-0.1-0.5,0.1c-0.3,0.2-0.6,0.3-1,0.1c-0.1,0-0.2,0-0.2,0c-0.1,0.1-0.2,0-0.3,0c-0.2-0.1-0.4-0.2-0.5,0.1
		c-0.1,0.3-0.4-0.1-0.6,0.2c-0.1-0.3-0.5-0.2-0.8-0.4c-0.2-0.2-0.5,0.2-0.7-0.1c0,0-0.1,0-0.1,0c0,0,0,0,0,0
		c-0.1,0.1-0.2,0.2-0.3,0.3c-0.1-0.1-0.2-0.2-0.2-0.2c-0.1-0.1-0.2-0.1-0.3,0c-0.1,0-0.2,0-0.3,0c-0.3,0-0.6-0.1-0.9,0.2
		c0,0-0.1,0-0.2,0c-0.5,0.1-0.8-0.2-1.3-0.3c-0.1,0-0.2-0.1-0.2,0c-0.2,0.2-0.3,0.2-0.6,0.1c-0.1-0.1-0.3,0-0.5-0.1
		c-0.1-0.1-0.4-0.1-0.5,0.1c-0.1,0.2-0.2,0.1-0.3,0c0,0-0.1-0.1-0.1-0.1c-0.3,0.3-0.6,0-0.8-0.1c-0.1,0-0.2-0.1-0.2,0
		c-0.2,0.3-0.5-0.1-0.7,0.2c-0.2-0.3-0.4,0.1-0.6,0c-0.2-0.1-0.4-0.1-0.7-0.1c-0.1,0-0.2,0-0.2,0c-0.1,0.1-0.2,0.1-0.3,0
		c-0.1-0.1-0.2-0.2-0.4,0c-0.1,0.2-0.3,0.2-0.4,0.1c-0.2-0.1-0.5,0-0.6-0.2c-0.1-0.1-0.3-0.1-0.4,0.1c-0.1,0.1-0.1,0.1-0.2,0.2
		c-0.1,0.1-0.2,0.1-0.3,0.2c-0.1-0.1-0.2-0.1-0.2-0.1c-0.1-0.1-0.3-0.2-0.5-0.1c-0.1,0-0.2,0-0.2-0.1c0-0.2-0.1-0.2-0.3-0.1
		c-0.1,0.1-0.2,0.1-0.3,0.1c-0.2,0-0.3-0.1-0.4-0.2c0-0.1-0.1-0.1-0.2,0c-0.2,0.2-0.4,0.2-0.6,0.1c-0.1-0.1-0.2,0.1-0.2,0.1
		c-0.3,0.3-0.7-0.1-0.9,0.2c0,0-0.1,0-0.2,0c0,0-0.1-0.1-0.1-0.1c-0.2,0.1-0.3-0.1-0.4-0.2c-0.2-0.1-0.3-0.1-0.4,0
		c-0.2,0.2-0.4,0.5-0.7,0.3c0,0-0.1,0.1-0.1,0.1c-0.3,0.1-0.3,0.2,0,0.4c0.2,0.2,0.2,0.2,0,0.4c0,0-0.1,0.1-0.1,0.1
		c-0.2,0-0.2,0.1-0.1,0.2c0.1,0.1,0.3,0.3,0.4,0.4c-0.2,0.1-0.2,0.3-0.3,0.4c-0.1,0.2-0.3,0.4,0,0.6c0,0,0,0.1,0,0.1
		c-0.3,0.3,0,0.4,0.2,0.5c0.2,0.1,0.4,0.2,0.5,0.3c0.2,0.2,0.4-0.1,0.6-0.1c0.1,0,0.2,0,0.2,0c0.2,0.2,0.3,0,0.5,0
		c0.2,0,0.3-0.1,0.5-0.2c0.1-0.1,0.2-0.1,0.3,0c0.1,0.1,0.2,0.3,0.3,0.2c0.2-0.2,0.2,0.1,0.3,0.1c0.1,0,0.2,0,0.2-0.1
		c0.1-0.2,0.3-0.2,0.4,0c0.2,0.1,0.4,0.2,0.6,0.2c0.2,0,0.4-0.1,0.6,0.1c0,0,0.1,0,0.1,0c0.2-0.1,0.4-0.4,0.6-0.1c0,0,0,0,0,0
		c0.2-0.2,0.6,0,0.8-0.1c0.3-0.1,0.4-0.1,0.6,0.1c0,0.1,0.1,0.1,0.2,0c0.1-0.2,0.3,0,0.4,0c0.1,0,0.3-0.1,0.4,0.1c0,0,0.1,0,0.2,0
		c0.2-0.3,0.4-0.2,0.7-0.1c0.1,0,0.3,0.1,0.4,0c0.2-0.2,0.4-0.1,0.5,0.1c0.1,0.2,0.3,0.2,0.5,0.1c0.3-0.2,0.5-0.4,0.8,0
		c0.3,0,0.6,0.2,0.9,0.3c0.2,0,0.3,0.2,0.4,0c0.2-0.3,0.4-0.1,0.6-0.1c0.1,0,0.2,0.1,0.3,0.2c0.1,0.1,0.2,0.1,0.3,0
		c0.3-0.3,0.6-0.3,1-0.3c0.3,0,0.3,0.3,0.5,0.4c0.1-0.1,0.3-0.2,0.4-0.2c0.3-0.1,0.6-0.2,0.9,0c0.1,0,0.2,0,0.3-0.1
		c0.1-0.1,0.3,0,0.4,0.1c0.1,0.1,0.2-0.2,0.4-0.1c0,0,0.1,0,0.1,0.1c0.3,0.3,0.6,0.2,0.9,0.1c0.4-0.1,0.7-0.1,0.9,0.2
		c0.1,0.1,0.2,0.1,0.3,0c0.1-0.1,0.1-0.1,0.2-0.1c0.2,0.2,0.5-0.2,0.6,0.1c0,0,0.2,0.1,0.3,0c0.1-0.1,0.1-0.1,0.2-0.1
		c0.1,0.1,0.2,0.1,0.3,0c0.1-0.1,0.2,0.1,0.4,0.1c0.5,0,0.5,0,0.8,0.2c0.2,0.1,0.3,0.1,0.4-0.1c0.1-0.2,0.2-0.4,0.5-0.1
		c0.1,0.1,0.3,0.1,0.3,0c0.1-0.1,0.2,0,0.3,0c0.1,0,0.2,0.1,0.3,0.1c0.3,0.1,0.6-0.2,0.9,0c0,0,0.1-0.1,0.1-0.1
		c0.2-0.1,0.5-0.1,0.6,0C83.8,54,84,54,84.1,54c0.1,0,0.2,0,0.3-0.1c0.1,0.1,0.1,0.1,0.2,0.2c0.1,0.1,0.1,0,0.1,0
		c0.2-0.1,0.4,0.1,0.5,0c0.2,0,0.4-0.1,0.6-0.2c0.1,0,0.1,0,0.2,0.1c0.2,0.1,0.5,0.1,0.7,0c0.2-0.1,0.4-0.1,0.5,0.1
		c0.1,0.2,0.3,0.2,0.5,0.1c0.2-0.2,0.5-0.3,0.8-0.1c0.1,0,0.2,0,0.3,0c0.1,0,0.2-0.1,0.3,0c0,0,0.1,0.1,0.1,0.1
		c0.2,0,0.5,0.1,0.7-0.1c0.1-0.1,0.2-0.1,0.3,0c0.2,0.1,0.4,0.1,0.6,0.2c0.3,0.3,0.4-0.1,0.6,0c0.2,0,0.3,0.2,0.5,0.1
		c0.2,0,0.4-0.1,0.6,0c0.2,0.1,0.3,0,0.5,0c0.2,0,0.4,0.1,0.5-0.1c0.2,0.1,0.4,0.1,0.5,0.1c0.1,0,0.2-0.2,0.3-0.1
		c0.1,0.1,0.2,0.1,0.3,0.1c0.2,0.1,0.3,0.2,0.6,0c0.1-0.1,0.4,0.1,0.6,0c0,0,0.1,0,0.1,0.1c0.1,0.1,0.3,0.3,0.5,0.2
		c0.2-0.1,0.5,0.1,0.6-0.1c0.1-0.2,0.3,0.2,0.4,0c0-0.1,0.1,0,0.2,0c0.4,0,0.7,0.2,1.1-0.1c0,0,0.1-0.1,0.1,0c0.1,0.1,0.3,0.1,0.4,0
		c0.1-0.1,0.2-0.1,0.3,0c0.1,0.2,0.3,0.2,0.5,0.2c0.2,0,0.3-0.1,0.4-0.3c0.1-0.1,0.1,0,0.2,0c0.2,0,0.5,0.2,0.7,0.1
		c0.1,0,0.2-0.1,0.3,0c0.1,0.2,0.3,0.3,0.6,0.2c0.2,0,0.4,0.1,0.5-0.1c0.1-0.1,0.1,0,0.2,0c0.2,0.2,0.4,0.2,0.7,0.1
		c0.3-0.2,0.6-0.2,0.9,0c0.2,0.2,0.5,0.2,0.7,0c0.1-0.1,0.3-0.1,0.4,0c0.2,0.1,0.3,0,0.5,0.1c-0.2-0.2,0-0.5-0.2-0.6
		C106.2,54.1,106.3,54,106.4,53.8z M105.1,40.2c0,0,0.1,0,0.1,0c0.4-0.1,0.4-0.1,0.2-0.5c-0.1-0.1-0.1-0.2-0.1-0.3
		c0-0.2,0-0.5,0-0.7c0-0.1,0-0.2-0.1-0.3c-0.2-0.2-0.2-0.5-0.1-0.6c0.1-0.2,0-0.2-0.1-0.2c-0.2,0-0.2-0.1-0.1-0.2
		c0.1-0.1,0-0.2,0-0.2c-0.2-0.1-0.3-0.1-0.5,0c-0.2,0.2-0.4,0.2-0.6,0c-0.1-0.1-0.2-0.2-0.3-0.1c-0.3,0.1-0.5,0.1-0.8,0.2
		c-0.2,0.1-0.4,0.2-0.4,0.5c0,0.2,0,0.4-0.2,0.6c-0.1,0.1-0.1,0.3,0,0.5c0.1,0.1,0.2,0.1,0.3,0c0.1,0,0.2-0.1,0.3,0
		c0.1,0.3,0.2,0.3,0.5,0.3c0.2,0.1,0.3,0.3,0.3,0.5c0,0.1,0,0.3,0,0.4c0.1,0.3,0.4,0.4,0.7,0.4c-0.1,0.3-0.3,0.5-0.6,0.5
		c0.1,0.1,0.1,0.1,0.1,0.1c0.2,0.2,0.4,0.2,0.7,0.1c0.1,0,0.3-0.1,0.4,0.1c-0.1,0.1-0.2,0.2-0.4,0.3c-0.2,0.1-0.4,0.3-0.6,0.5
		c-0.1,0.1-0.1,0.2,0,0.3c0,0,0.2,0.1,0,0.2c-0.4,0.3-0.8,0.4-1.2,0.7c-0.2,0.1-0.5,0-0.7,0c-0.1,0-0.2,0-0.3,0.1
		c-0.1,0.1-0.2,0.1-0.3,0c-0.1-0.1-0.1-0.1-0.2-0.1c-0.1,0-0.2,0.2-0.3,0.1c-0.1-0.1-0.2-0.1-0.3-0.1c-0.1,0-0.3,0-0.4,0.1
		c-0.1,0.1-0.2-0.1-0.3,0c0,0-0.1,0-0.2,0c-0.2,0-0.3-0.2-0.5,0.1c-0.1,0.1-0.1-0.1-0.2-0.1c-0.2,0-0.3-0.3-0.5-0.3
		c-0.4,0-0.7,0-1.1,0.2c-0.1,0-0.1,0-0.2,0c-0.2-0.1-0.3-0.3-0.5-0.2c-0.4,0.2-0.7,0.1-1.1,0.1c-0.4,0-0.5,0-0.8-0.3
		c-0.1-0.1-0.2-0.1-0.3-0.1c-0.4-0.1-0.7-0.4-0.8-0.8c-0.1-0.2,0-0.2,0.2-0.3c0,0,0.1,0,0.1-0.1c-0.3-0.1-0.3-0.5-0.6-0.7
		c0.2,0,0.4,0,0.6,0c-0.1-0.1-0.1-0.2-0.1-0.2c0-0.1,0-0.1,0.1-0.1c0,0,0.1,0.1,0.1,0.1c0.1-0.1,0.1-0.1,0-0.2
		c-0.1-0.1-0.1-0.2-0.1-0.2c0.2-0.1,0.1-0.3,0.1-0.5c0-0.2,0.2-0.3,0-0.5c-0.1-0.1,0.1-0.2,0.2-0.1c0.1,0.1,0.2,0.1,0.3,0
		c0.1-0.1,0.2-0.2,0.4-0.2c0.2,0,0.3-0.3,0.6-0.1c0,0,0.2-0.2,0.3-0.3c0.1-0.2,0.3,0.2,0.4,0c0.1-0.1,0.2-0.1,0.2,0
		c0,0.1,0,0.2-0.1,0.2c-0.1,0-0.1,0.1-0.1,0.2c0,0.1,0.1,0.2,0.2,0.2c0.1,0,0-0.1,0.1-0.2c0-0.1,0.1-0.1,0.2-0.2
		c0.3-0.3,0.4-0.5,0.3-0.9c0-0.1-0.1-0.2,0-0.3c0.2-0.2-0.1-0.3-0.1-0.5c0-0.1-0.2,0-0.3,0c-0.1,0-0.2,0.2-0.3,0.1
		c-0.4-0.2-0.7-0.2-1.1,0c-0.1,0-0.2,0-0.2,0c-0.1-0.1-0.2-0.1-0.3,0c-0.1,0.1-0.2-0.2-0.4-0.1c-0.5,0.3-1,0-1.5-0.1
		c-0.2,0-0.5-0.1-0.7,0c0.2,0.3,0.2,0.7,0.1,0.9c-0.1,0.4-0.1,0.8-0.1,1.2c0,0.2,0,0.4,0.1,0.7c0.1,0.2,0.1,0.4,0.3,0.5
		c-0.3,0.2,0.1,0.4,0.1,0.5c0,0,0.1,0.1,0,0.1c-0.2,0.2,0.1,0.3,0,0.4c-0.1,0.2-0.1,0.3,0,0.5c0,0,0,0.1,0,0.2
		c-0.1,0.2-0.1,0.3,0.1,0.5c0,0,0.1,0.1,0,0.2c-0.1,0.1-0.1,0.2-0.2,0.3c0.1,0.1,0.1,0.2,0.1,0.3c0,0.4,0,0.8,0,1.2
		c0,0.3,0.1,0.6,0.5,0.6c0,0,0.1,0,0.1,0c0,0.3,0.2,0.2,0.4,0.1c0.2-0.1,0.3-0.1,0.5,0.1c0.1,0.2,0.2,0.1,0.3,0
		c0.1-0.2,0.4-0.2,0.5-0.2c0.2,0.1,0.5,0,0.7,0.1c0.2,0.2,0.4-0.1,0.7-0.1c0.1,0,0.2,0,0.2,0c0.2,0.1,0.4,0.2,0.5,0.1
		c0.2-0.1,0.3,0.2,0.5,0c0.2-0.2,0.3,0.1,0.5,0.1c0.2,0,0.4-0.1,0.6,0c0.2-0.2,0.3-0.1,0.4,0c0.1,0.1,0.3,0.1,0.3,0.1
		c0.2-0.3,0.4-0.3,0.7-0.1c0.1,0,0.2,0,0.3,0c0.2-0.1,0.3-0.1,0.5,0c0.1,0.1,0.2,0.1,0.4,0c0.2-0.1,0.6-0.2,0.8-0.1
		c0.2,0.1,0.4-0.1,0.6,0.1c0.2,0.2,0.3-0.2,0.5,0.1c0.2-0.1,0.4-0.1,0.6,0c0.1,0,0.3,0.1,0.3-0.1c0-0.1,0.1-0.1,0.2-0.1
		c0.3,0,0.6-0.1,0.8,0.2c0,0,0.1,0,0.2,0c0.4,0,0.8,0,1.2,0c0-0.4-0.2-0.8-0.1-1.2c0-0.1-0.1-0.2-0.1-0.2c-0.3-0.1-0.3-0.3-0.2-0.5
		c0.2-0.4,0.1-0.7-0.1-1.1c0-0.1-0.1-0.1-0.1-0.2c0-0.2,0-0.3-0.2-0.4c-0.1,0-0.1-0.1-0.1-0.2c0.2-0.2-0.1-0.3,0-0.5
		c0,0-0.1-0.1-0.1-0.2C105.4,40.6,105.4,40.6,105.1,40.2z M57.9,44.3c0,0.1-0.1,0.2,0.1,0.3c0.1-0.2,0.2,0,0.3,0
		c0.3,0,0.6,0.2,1,0.1c0.1,0,0.2-0.2,0.2-0.1c0.2,0.2,0.3,0.1,0.5,0.1c0.2,0,0.4-0.1,0.5-0.1c0.2,0.1,0.4,0,0.5,0.1
		c0.2,0,0.3-0.2,0.4-0.1c0.1,0.1,0.3,0.1,0.4,0.1c0.2,0,0.4-0.1,0.6,0c0.2,0.1,0.5,0,0.7,0c0.2,0,0.4,0,0.6,0c0.2,0,0.4-0.1,0.6,0.1
		c0.2,0.2,0.3-0.1,0.5-0.1c0.1,0,0.1,0,0.2,0.1c0.1,0.1,0.1,0.1,0.2,0c0.2-0.2,0.5-0.1,0.8-0.1c0.1,0,0.2,0.2,0.3,0
		c0.5,0,0.9-0.1,1.4,0.2c0.3,0.2,0.5,0.1,0.7,0c0.2-0.1,0.4-0.4,0.7-0.1c0,0,0.1,0,0.1,0c0.2-0.2,0.5-0.1,0.7-0.1
		c0.2,0,0.3-0.1,0.5-0.1c0.1,0,0.1-0.1,0.1-0.2c-0.3-0.3-0.1-0.4,0.1-0.6c0.2-0.2,0.3-0.4,0.3-0.7c0-0.1,0-0.2,0-0.4
		c0-0.1,0.1-0.2,0.1-0.4c0-0.1-0.1-0.2-0.2-0.3c-0.1-0.1-0.1-0.3,0-0.4l0.2-0.9c0-0.1,0-0.1,0-0.2c-0.1-0.2-0.1-0.4,0-0.6
		c0.1-0.1,0-0.1,0-0.2c-0.2-0.1-0.2-0.3-0.1-0.5c0-0.1,0.1-0.2,0-0.3c-0.2-0.1,0.1-0.2,0.1-0.3c-0.1-0.2,0.3-0.5,0-0.7
		c0.3-0.1,0.1-0.5,0.3-0.7c0,0,0-0.2-0.1-0.2c-0.1,0-0.2,0-0.3-0.1c-0.1-0.1-0.3-0.1-0.4,0c-0.1,0.1-0.2,0.3-0.3,0.1
		c-0.1-0.2-0.2,0.1-0.5,0c-0.2-0.1-0.5-0.1-0.8,0c-0.1,0-0.1,0.1-0.2,0c-0.3-0.2-0.7,0-1-0.1c-0.2-0.1-0.2,0.3-0.4,0.1
		c-0.1-0.2-0.4,0-0.5-0.1c-0.2-0.2-0.4-0.1-0.6,0c-0.1,0.1-0.2,0-0.3,0c-0.1,0-0.2-0.2-0.3-0.1c-0.1,0-0.2,0-0.2,0
		c0.2,0.3-0.1,0.2-0.2,0.2c-0.3,0-0.6,0-0.8,0c-0.3,0-0.5-0.3-0.8,0c0,0-0.1,0-0.1-0.1c-0.1-0.2-0.3-0.3-0.4,0
		c-0.2-0.1-0.3,0.1-0.4,0.1c-0.2,0-0.4,0-0.5,0c-0.1,0.1-0.3-0.1-0.4,0.1c-0.1-0.2-0.3,0.1-0.4-0.1c-0.3-0.3-0.7-0.3-1.1-0.1
		c-0.1,0.1-0.2,0.1-0.3,0c-0.1-0.2-0.3-0.2-0.5,0c-0.1,0.2-0.3,0.2-0.5,0.1c-0.2-0.1-0.5,0-0.7-0.2c-0.2,0.1-0.4,0.2-0.6,0.4
		c-0.1,0.1,0,0.1,0.1,0.1c0,0.1,0.1,0.2,0,0.3c-0.1,0.1-0.1,0.2,0,0.3c0,0.1,0,0.2,0,0.3c-0.1,0.4-0.1,0.5,0,0.8
		c0.1,0.3,0,0.6,0,0.8c0,0.2-0.1,0.5,0.2,0.7c0,0,0.1,0.1,0,0.1c-0.3,0.3,0.3,0.8-0.2,1.1c0,0,0,0,0,0.1c0.2,0.2,0,0.5,0.2,0.7
		c0.1,0.2,0.1,0.2,0,0.3c0,0,0,0.1,0,0.2c0.2,0.3,0,0.6,0.2,0.9C57.9,43.9,57.9,44.1,57.9,44.3z M98.8,29.7
		C98.8,29.7,98.8,29.6,98.8,29.7c-0.1-0.3-0.5-0.5,0-0.7c0,0,0-0.2,0-0.2c-0.1-0.1-0.1-0.2-0.1-0.2c0-0.1-0.1-0.1,0-0.2
		c0.2-0.2,0.2-0.3,0-0.5c-0.1-0.1-0.1-0.3,0-0.4c0.2-0.2,0.2-0.4,0.1-0.5c-0.2-0.2,0-0.4-0.2-0.5c-0.1,0-0.2,0-0.2-0.2
		c0.1-0.2-0.2-0.4-0.1-0.5c0.2-0.2,0-0.3,0-0.4c0-0.2-0.1-0.3-0.2-0.5c-0.1-0.2-0.1-0.4,0-0.5c0.2-0.2,0-0.3-0.1-0.4
		c-0.2-0.1-0.3-0.2-0.3-0.4c0-0.1,0-0.2-0.1-0.2c-0.1,0-0.1,0.2-0.2,0.1c-0.1-0.2-0.3-0.2-0.5-0.2c-0.2,0-0.3-0.1-0.3-0.2
		c0-0.3-0.2-0.3-0.3-0.5c-0.1-0.1-0.2,0-0.2-0.2c0-0.2-0.1-0.3-0.3-0.4c-0.2,0-0.3-0.3-0.4-0.4c-0.1-0.1-0.2-0.1-0.3,0
		c-0.1,0-0.1,0.1-0.1,0.2c-0.1,0.2,0.2,0.4,0.1,0.6c-0.1,0.4,0,0.7,0,1.1c0,0.2-0.1,0.3-0.1,0.4c0,0.4,0,0.4-0.1,0.5
		c-0.3,0.3-0.3,0.4-0.1,0.8c0.1,0.2,0.1,0.4,0,0.6c0,0-0.1,0.1-0.1,0.1c-0.1,0.1-0.2,0.1,0,0.3c0,0,0,0.2,0,0.2
		c-0.1,0.1-0.1,0.2-0.2,0.3c0.1,0.1,0.1,0.2,0,0.3c-0.1,0.1-0.1,0.2,0,0.3c0.1,0.1,0.1,0.1,0,0.2c-0.2,0.1-0.2,0.3-0.2,0.5
		c0,0.1,0,0.1,0,0.2c-0.3,0.4-0.4,0.6-0.3,0.8c0.1,0.1-0.1,0.3,0.1,0.4c0.2,0.1-0.2,0.2-0.2,0.4c0,0.1,0,0.1,0,0.2
		c0,0.2,0,0.4,0,0.5c-0.1,0.1,0,0.4-0.2,0.5c0.2,0.1,0,0.3,0,0.4c-0.1,0.1-0.1,0.2,0,0.3c0.1,0.2,0.1,0.4-0.1,0.5
		c-0.1,0.1-0.2,0.1-0.2,0.3c0,0.2,0.2,0.3,0.1,0.5c0,0.2,0.4,0.1,0.4,0.4c0.2,0,0-0.2,0.2-0.2c0.1,0,0.1,0,0.2,0
		c0.2,0.2,0.4,0.1,0.7,0.1c0.3,0,0.6-0.1,0.9,0.1c0.1,0.1,0.2,0,0.3-0.1c0.4-0.2,0.5-0.2,0.8,0c0.1,0.1,0.3,0.2,0.4,0
		c0.2-0.2,0.5,0.1,0.7-0.2c0.1,0.1,0.3,0.1,0.4,0.2c0.1-0.2,0-0.2-0.1-0.3c-0.1-0.2-0.2-0.3,0.1-0.5c0,0,0.1-0.1,0.1-0.1
		c0.1-0.1,0.1-0.3,0-0.4c-0.2-0.2-0.1-0.3-0.1-0.5c0-0.2,0.2-0.3,0.3-0.4c0.1-0.1,0.2-0.2,0-0.3c-0.3-0.1-0.1-0.4-0.2-0.6
		c-0.1-0.1,0.1-0.2,0.2-0.3C98.8,29.8,98.8,29.7,98.8,29.7z M37.9,22.1c-0.1,0-0.2,0-0.2,0.1c0,0.1,0,0.2,0.1,0.2
		c0.4,0.1,0.2,0.6,0.5,0.7c0,0,0,0.1,0,0.1c-0.1,0.1-0.1,0.2,0,0.3c0.1,0.2,0.1,0.5,0.3,0.7c0,0.3,0.2,0.6,0.1,1
		c-0.1,0.2,0,0.4,0.2,0.6c0.1,0.1,0.3,0.2,0.3,0.4c0,0.2-0.1,0.4,0,0.6c0.1,0.2,0.3,0.2,0.4,0.4c0.1,0.3,0.3,0.4,0.5,0.5
		c0.3,0.1,0.4,0.3,0.4,0.6c0,0.1,0,0.2,0.1,0.1c0.4,0,0.6,0.2,0.8,0.4c0.2,0.2,0.2,0.2,0.2,0.3c0,0.2,0.1,0.3,0.2,0.3
		c0.2,0.1,0.4,0.4,0.6,0.4c0.4,0,0.3,0.4,0.5,0.5c0,0,0.1,0.1,0.1,0.1c0.5,0.3,1,0.7,1.5,1c0.1,0,0.1,0,0.2,0.1
		c0.2,0.1,0,0.4,0.2,0.4c0.2,0,0.1-0.3,0.3-0.3c0.2,0,0.4,0,0.5,0c0.1,0,0.2,0.1,0.3-0.1c0.1-0.1,0.2-0.2,0.4-0.2
		c0.1,0,0.2,0.2,0.3,0.1c0.1-0.1,0.3-0.1,0.4-0.2c0,0,0.1,0,0.1,0.1c0.3,0.2,0.6,0.1,0.9,0.1c0.1,0,0.1,0,0.1-0.1
		c0-0.1,0.1-0.2,0.2-0.2c0.2,0,0.3,0,0.4-0.2c0,0,0.1-0.1,0.1,0c0.2,0.2,0.5,0,0.7-0.1c0.2-0.1,0.3-0.1,0.4,0
		c0.1,0.1,0.2,0.1,0.2-0.1c0-0.1,0.1-0.1,0.2-0.1c0.2,0,0.4,0,0.5,0c0.1,0,0.1-0.1,0.2-0.2c-0.1-0.1-0.1-0.2-0.2-0.2
		c-0.2,0-0.4,0-0.5-0.1c-0.2-0.2-0.4-0.3-0.7-0.2c-0.2,0-0.4,0-0.5-0.3c0-0.1-0.1-0.2-0.3-0.2c-0.2,0.1-0.4-0.1-0.5-0.2
		c-0.2-0.1-0.4-0.1-0.5,0c-0.2,0.1-0.4,0.2-0.4,0.6c0,0.1-0.1,0.1-0.2,0.1c-0.3,0-0.3,0-0.6,0.2c-0.2,0.1-0.3,0.3-0.6,0.3
		c-0.2,0-0.3,0-0.5,0c-0.2,0.1-0.5,0.1-0.6,0.2c-0.2,0.3-0.4-0.1-0.6,0c0,0-0.1,0-0.1,0.1c-0.2,0.2-0.4-0.2-0.6-0.1
		c-0.1-0.1,0.1-0.2,0.1-0.3c0-0.1,0-0.2-0.1-0.3c-0.1-0.2-0.2-0.4-0.2-0.6c0-0.1,0-0.1,0-0.2c-0.2-0.2-0.1-0.5-0.3-0.7
		c-0.2-0.2-0.2-0.5-0.2-0.8c0,0,0,0,0,0c-0.2-0.2-0.3-0.4-0.3-0.6c0-0.3-0.2-0.4-0.2-0.7c0-0.1-0.2-0.3,0-0.5c0,0,0-0.2-0.1-0.3
		c-0.1-0.1-0.3-0.2-0.3-0.4c0.1-0.2-0.1-0.3,0-0.5c0.1-0.3,0-0.3-0.2-0.4c-0.2-0.1-0.5-0.1-0.5-0.4c0,0-0.1,0-0.1-0.1
		c-0.3-0.1-0.6-0.1-0.9-0.4c0,0,0,0-0.1,0c-0.2,0.2-0.3,0-0.3-0.1C40,23,40,23,39.5,23c-0.1,0-0.2,0-0.2-0.1c0-0.1-0.1-0.2-0.2-0.3
		c-0.1,0-0.2,0-0.3-0.1c-0.1-0.1-0.2-0.1-0.3-0.2c-0.1-0.1-0.2,0-0.3,0.1C38.1,22.3,38.1,22.2,37.9,22.1
		C37.9,22.1,37.9,22.1,37.9,22.1z M88.6,39.6c0.1-0.1,0.2-0.3,0.5-0.2c0.5,0.2,0.4-0.5,0.8-0.5c0,0,0-0.1,0-0.1
		c-0.1-0.2,0-0.5-0.2-0.6c0.3-0.1-0.1-0.3,0.1-0.5c0.2-0.2-0.1-0.4-0.1-0.6c0-0.1-0.2-0.2,0-0.3c-0.1-0.3,0.1-0.6-0.1-1
		c-0.1-0.1,0-0.4-0.1-0.5c0.2-0.1,0-0.4,0.1-0.5c0.2-0.2,0-0.3,0-0.5c0-0.1-0.1-0.2,0-0.3c0.1-0.2,0.1-0.6,0-0.8
		c-0.2-0.3-0.2-0.5-0.3-0.8c-0.1-0.1-0.2-0.3-0.4-0.3c-0.3,0-0.6-0.1-0.8,0.2c-0.1,0.1-0.3,0.2-0.3-0.1c0-0.1-0.2-0.2-0.3-0.2
		c0,0.2-0.1,0.2-0.2,0.2c-0.4-0.1-0.6,0.3-0.9,0.2c0,0.2-0.4,0.3-0.2,0.6c0.1,0.1,0,0.3,0.1,0.4c-0.2,0.2-0.1,0.4-0.1,0.7
		c0,0.1-0.2,0.2-0.1,0.3c0.2,0.3,0.1,0.6,0.1,0.9c-0.3,0.3,0.1,0.6,0,0.9c0.2,0.1,0.1,0.4,0.1,0.5c0,0.2,0.1,0.4,0,0.6
		c-0.1,0.2,0.1,0.3,0.2,0.5c0,0.1,0,0.2,0,0.2c0,0.3,0.1,0.5,0,0.8c-0.1,0.4,0.3,0.7,0.3,1.1c0,0.1,0.3,0,0.4,0.2c0,0,0-0.1,0.1-0.2
		c0.1-0.1,0.2-0.3,0.4-0.1c0.2,0.1,0.4,0,0.6,0c0.1,0,0.1,0,0.1-0.1c0-0.2,0.2-0.2,0.2-0.3c0,0,0.1-0.1,0.1-0.1
		C88.4,39.4,88.5,39.5,88.6,39.6z M84.3,39.2c0-0.2,0.1-0.4-0.1-0.6c0.2-0.2,0.1-0.4,0.1-0.7c0-0.2,0-0.3-0.2-0.4
		c-0.1-0.1,0-0.1,0-0.2c0.1-0.2,0.3-0.3,0.1-0.6c-0.1-0.1,0-0.3,0-0.5c0,0,0.1-0.1,0.1-0.1c-0.1-0.1-0.2-0.2-0.2-0.2
		c0-0.1,0.2-0.2,0.1-0.3c-0.1-0.1-0.1-0.2,0-0.4c0.1-0.4,0.1-0.7,0-1.1c0-0.2-0.3-0.3-0.2-0.5c0.1-0.2,0-0.3,0-0.5
		c0-0.5,0-0.5-0.1-0.8c0-0.1-0.1-0.1-0.1-0.2c0-0.1-0.1,0-0.2,0c-0.1,0-0.1,0-0.2,0c-0.2-0.2-0.6-0.4-0.6-0.3
		c-0.3,0.3-0.6-0.2-0.9,0.1c-0.1-0.3-0.3-0.1-0.5-0.1c-0.1,0-0.7,0.2-0.7,0.2c-0.1,0.3-0.4,0.5-0.1,0.9c0.1,0.1,0.1,0.2,0,0.3
		c-0.1,0.1-0.1,0.2-0.1,0.3c0.1,0.4,0.1,0.8,0,1.2c-0.1,0.2-0.1,0.3,0.1,0.5c0.1,0.1,0.2,0.2,0,0.3c-0.1,0.1,0,0.3-0.1,0.4
		c0,0.8,0.2,1.5,0.1,2.3c0,0.2,0.1,0.4,0.1,0.6c0,0.1,0.2,0.1,0.3,0.2c0.1,0.1,0.2,0.1,0.5,0.1c0.2,0,0.4,0.1,0.6-0.1
		c0.1-0.1,0.2,0,0.2,0.1c0.1,0.1,0.2,0.2,0.3,0c0.1-0.1,0.3-0.2,0.4-0.1c0.1,0.1,0.2,0.1,0.4,0.1c0.2,0,0.3,0,0.3-0.2
		c0,0,0.1,0,0.1,0C83.9,39.2,84.1,39,84.3,39.2z M74.4,32.5c-0.1,0.2,0,0.4,0,0.5c-0.2,0.2,0,0.3,0,0.4c0,0.2,0,0.3,0,0.5
		c0.1,0.2,0,0.3-0.1,0.5c-0.1,0.1,0,0.1,0,0.1c0.1,0.1,0,0.2,0.1,0.3c0.1,0.1-0.1,0.2-0.1,0.3c0,0.3,0,0.7,0,1c0,0.2,0,0.6,0.1,0.8
		c0.1,0.1,0.1,0.3,0,0.4c-0.2,0.3-0.1,0.5-0.1,0.8c0,0.3,0.1,0.5,0.1,0.8c0,0.1,0.2,0,0.2,0.2c0,0.2,0.3,0.3,0.5,0.2
		c0.2-0.1,0.4,0,0.5-0.1c0.2-0.1,0.3,0,0.5,0c0.3,0,0.3,0,0.2,0.3c0,0,0,0.1,0,0.1c0.2-0.1,0.2-0.3,0.5-0.3c0.2,0,0.4,0.1,0.4-0.2
		c0,0,0.2,0,0.2,0c0,0.2,0.1,0.2,0.3,0.1c0.2-0.2,0.4-0.4,0.3-0.6c0-0.6,0.1-1.3-0.1-1.9c0-0.1,0-0.2,0-0.2c0.1-0.1,0.1-0.2,0-0.3
		c0.1-0.2,0.1-0.5,0-0.7c0.3-0.2,0-0.4-0.1-0.6c0-0.1-0.1-0.2,0-0.3c0.1-0.1,0.1-0.1,0.1-0.2c0.1-0.5-0.1-1-0.3-1.4
		c-0.1-0.2-0.2-0.5-0.6-0.4c-0.1,0-0.2-0.1-0.3-0.1c-0.1-0.1-0.2,0.2-0.3,0.1c-0.2-0.2-0.4,0.2-0.5-0.1c-0.2,0-0.4-0.1-0.5,0.1
		c-0.1,0.1-0.1,0.1-0.3,0c-0.1-0.1-0.1,0.1-0.1,0.1C74.9,32.8,74.7,32.8,74.4,32.5C74.5,32.6,74.4,32.6,74.4,32.5z"/>
	<path d="M73.6,78.5c0.1,0.1,0.2,0.2,0.2,0.2c0,0,0.1,0.1,0.1,0.1c0.2-0.3,0.5,0,0.7,0c0.1,0,0.1-0.1,0.2-0.1
		c0.1-0.1,0.2-0.2,0.3-0.3c0.2,0.2,0.3-0.1,0.5,0c0.1,0,0.3,0.1,0.4-0.1c0.1-0.1,0.2,0.1,0.3,0.1c0.3,0,0.6-0.1,0.9,0.1
		c0.1,0,0.1,0,0.1-0.1c0.1-0.1,0.3,0,0.4-0.1c0.1-0.2,0.2,0,0.3,0c0.3,0,0.6-0.1,0.8-0.3c0.1-0.1,0.2-0.1,0.3,0
		c0.3,0.2,0.4,0.2,0.6,0c0.2-0.1,0.4-0.2,0.5-0.3c0.1-0.1,0.1-0.1,0.2,0c0.2,0.1,0.3,0.1,0.5,0c0.1-0.1,0.3-0.2,0.4,0
		c0.1,0.1,0.2,0,0.3-0.1c0.2-0.2,0.4-0.2,0.6-0.3c0.2-0.1,0.4-0.1,0.6,0c0.1,0.1,0.1,0,0.2,0c0.2-0.2,0.4-0.3,0.5-0.5
		c0.3-0.4,0.6-0.5,1-0.5c0.2,0,0.4-0.1,0.6-0.1c0.2,0,0.3-0.2,0.4-0.3c0.1-0.1,0.2-0.2,0.4-0.2c0.2,0,0.3,0,0.4-0.2
		c0-0.1,0.1-0.1,0.2-0.1c0.3,0,0.6,0,0.9,0.1c0.3,0.1,0.6,0.2,0.9,0.2c0.1,0,0.2,0,0.3,0.1c0.1,0.1,0.2,0.2,0.4,0.1
		c0.4-0.1,0.6,0.2,0.8,0.5c0.1,0.1,0.5,0.5,0.7,0.5c0.2,0,0.2,0.1,0.2,0.2c0.1,0.2,0.1,0.5,0.4,0.4c0.1,0,0.2,0,0.2,0.1
		c0,0.2,0.1,0.3,0.2,0.4c0.1,0.1,0.2,0.2,0.2,0.4c0,0.2,0,0.4,0.2,0.5c0.1,0.1,0.1,0.2,0.1,0.3c0,0.3,0,0.6,0.2,0.9
		c0.1,0.3,0.2,0.6,0.4,0.9c0.1,0.1,0.1,0.4,0,0.6c-0.3,0.4,0,0.7,0.1,1c0,0.1,0.1,0.3,0.1,0.3c-0.1,0.2-0.2,0.3,0,0.5
		c0,0,0,0.1,0,0.2c-0.1,0.6-0.1,0.6,0,1.2c0,0.2,0.1,0.4-0.1,0.5c-0.1,0.1-0.1,0.2-0.2,0.3c-0.1,0.1-0.1,0.2,0,0.3
		c0.2,0.2,0.2,0.3,0,0.5c-0.1,0.2-0.2,0.4,0,0.5c0.2,0.2,0.2,0.3,0,0.4c-0.1,0-0.1,0.1-0.1,0.2c0.1,0.5-0.2,0.9-0.1,1.3
		c0,0.3,0.1,0.7-0.2,0.9c-0.1,0.1,0,0.2,0.1,0.3c0.1,0.2,0.2,0.4-0.1,0.7c-0.2,0.2-0.2,0.6-0.4,0.9c0,0.1,0,0.2,0,0.3
		c0.1,0.1,0.1,0.3,0.1,0.4c0,0.1-0.1,0.2-0.2,0.2c-0.2,0.1-0.3,0.4-0.2,0.6c0,0.1,0.1,0.1,0,0.3c-0.2,0.2-0.4,0.4-0.4,0.8
		c-0.4,0.1-0.4,0.5-0.4,0.8c0,0.1-0.2,0.2-0.2,0.3c-0.1,0.1-0.1,0.3-0.2,0.4c0,0-0.5,0.5-0.5,0.5c-0.2,0.1-0.2,0.3-0.3,0.5
		c-0.1,0.3,0,0.7-0.4,0.8c0,0,0,0.1,0,0.2c0.1,0.4-0.3,0.8,0,1.2c-0.3,0.3,0,0.6,0.1,0.9c0,0.1,0.1,0.2,0.2,0.2
		c0.3,0.2,0.3,0.4,0.4,0.7c0.1,0.2,0.1,0.5,0.3,0.7c0,0,0,0,0,0c0.1,0.2-0.1,0.5,0.1,0.5c0.2,0.1,0.2,0.2,0.3,0.3
		c0.1,0.2,0.1,0.3,0.1,0.5c0,0.2,0,0.3,0.2,0.3c0.4,0.1,0.3,0.3,0.3,0.6c0.2,0.1,0.4,0,0.6,0.1c0,0,0,0.1,0,0.1
		c0,0.3,0.1,0.5,0.4,0.6c0.3,0.1,0.5,0.3,0.6,0.6c0.1,0.2,0.2,0.5,0.4,0.7c0.3,0.3,0.3,0.4,0.7,0.6c0,0,0.1,0,0.1,0
		c0.1,0.1,0.2,0.2,0.3,0.2c0.1,0.1,0.1,0.3,0.2,0.3c0.1,0,0.3,0.1,0.3,0.2c0,0.3,0.3,0.4,0.4,0.7c0.1,0.2,0.3,0.2,0.5,0.1
		c0.1,0,0.3-0.1,0.3,0.1c0,0.1,0.1,0.2,0.2,0.2c0.2,0,0.3,0.1,0.4,0.3c0.1,0.1,0.2,0.1,0.3,0c0.1-0.1,0.3-0.1,0.4,0.1
		c0.1,0.3,0.4,0.6,0.9,0.3c0.1,0,0.2,0.1,0.2,0.1c0.3,0.2,0.5,0.2,0.8,0c0.1,0,0.2-0.1,0.2,0c0.1,0.2,0.3,0.4,0.6,0.3
		c0.2,0,0.3,0.2,0.4,0.3c0,0.1,0,0.1-0.1,0.2c-0.2,0-0.3,0.2-0.1,0.3c0.1,0.1,0.1,0.3,0.1,0.5c0,0.1-0.1,0.2,0,0.3
		c0.1,0.1,0.1,0.2,0,0.3c-0.2,0.2-0.4,0.3-0.4,0.6c0,0.2-0.3,0.2-0.4,0.2c0.1,0.2,0.1,0.3,0.2,0.4c0.3,0.3,0.3,0.4,0.1,0.7
		c-0.2,0.2-0.2,0.4-0.2,0.7c0,0.4-0.1,0.8-0.2,1.2c0,0.1-0.1,0.1-0.1,0.1c-0.3,0-0.5,0.2-0.8,0.1c-0.1,0-0.1,0-0.1,0.1
		c0,0.2-0.1,0.1-0.2,0.1c-0.1,0-0.3-0.2-0.4,0c0,0.1-0.1,0-0.2-0.1c-0.1-0.1-0.2-0.2-0.4-0.2c-0.2,0-0.2-0.1-0.2-0.2
		c0-0.1,0-0.1-0.1-0.1c-0.1,0-0.3,0-0.4,0c-0.3,0.1-0.5,0.1-0.7-0.1c-0.1-0.1-0.3-0.2-0.4-0.1c-0.2,0.1-0.3,0.1-0.4,0
		c0,0-0.1-0.1-0.1-0.1c-0.4,0.1-0.5-0.2-0.7-0.5c-0.2-0.2-0.5-0.2-0.7-0.3c-0.3,0-0.6-0.1-0.7-0.4c-0.1-0.2-0.3,0-0.4-0.1
		c-0.1-0.1-0.2-0.2-0.3-0.2c-0.1,0-0.1,0-0.1-0.1c0-0.4-0.5-0.5-0.6-0.8c-0.1-0.2-0.1-0.4-0.4-0.3c-0.3-0.2-0.7-0.3-0.9-0.6
		c-0.1-0.1-0.1-0.2-0.1-0.3c0-0.3,0-0.3-0.3-0.4c-0.3-0.1-0.6-0.3-0.9-0.5c-0.1-0.1-0.2-0.3-0.2-0.4c0.1-0.3-0.2-0.5-0.4-0.7
		c-0.1-0.1-0.1-0.1-0.1-0.2c0-0.2-0.1-0.3-0.3-0.3c-0.2,0-0.2,0-0.3-0.4c0-0.2-0.1-0.4-0.3-0.4c-0.2,0-0.3-0.1-0.3-0.3
		c0-0.2-0.2-0.2-0.3-0.4c-0.1-0.1-0.3-0.3-0.3-0.3c0.1-0.4-0.2-0.5-0.4-0.7c-0.2-0.1-0.3-0.3-0.1-0.5c0.1-0.1,0.1-0.3,0-0.4
		c-0.1-0.1-0.2-0.2-0.2-0.4c0-0.1,0-0.2-0.1-0.2c-0.1-0.1-0.3-0.2-0.4-0.3c-0.1-0.1-0.1-0.3-0.3-0.3c-0.2,0-0.2-0.1-0.1-0.2
		c0.1-0.2,0-0.3,0-0.5c0-0.2,0-0.3-0.3-0.4c-0.1,0-0.3-0.2-0.1-0.4c0.1-0.1,0-0.2,0-0.3c0-0.2-0.2-0.3-0.4-0.1
		c-0.2,0.2-0.6,0.2-0.7,0.5c-0.1,0.2-0.2,0.2-0.4,0.3c-0.3,0-0.8,0.6-0.8,0.9c0,0,0,0.1,0.1,0.1c0.1,0.1,0.3,0.2,0.4,0.2
		c0.2,0.1,0.3,0.2,0.2,0.4c0,0.2,0,0.4,0.2,0.4c0.1,0,0.2,0.2,0.3,0.3c0.1,0,0.1,0.1,0,0.2c-0.3,0.3,0.1,0.4,0.2,0.5
		c0,0,0.2,0,0.2,0.2c0,0.3,0.1,0.5,0.4,0.6c0.1,0,0.1,0.1,0.2,0.1c0.1,0,0.2,0.1,0.3,0.2c0.1,0.4,0.2,0.7,0.4,1c0,0,0,0.1,0,0.1
		c-0.3,0.5,0.1,0.9,0.4,1.2c0.1,0.2,0.2,0.3,0.3,0.5c0,0,0,0.1,0,0.2c0.2,0.1,0.5,0.1,0.5,0.5c0,0.3,0.2,0.5,0.1,0.7
		c0,0.1,0,0.1,0.1,0.2c0.3,0.4,0.3,0.9,0.7,1.2c0.1,0.1,0,0.2,0,0.3c0,0.1,0,0.2,0.1,0.3c0.1,0.2,0.2,0.4,0,0.7
		c-0.1,0.1,0,0.3,0.2,0.3c0.2,0,0.3,0.1,0.3,0.4c0,0.2,0,0.4,0.1,0.6c0.1,0.1,0,0.2-0.1,0.3c-0.2,0.1-0.3,0.3-0.4,0.6
		c-0.1,0.2-0.2,0.4-0.5,0.4c-0.1,0-0.2,0.1-0.3,0.1c-0.1,0.1-0.2,0.2-0.3,0.3c-0.1,0.1-0.2,0.3-0.5,0.3c-0.1,0.1-0.3,0.1-0.4,0.2
		c-0.1,0.1-0.3,0.2-0.4,0.2c-0.4,0-0.6,0.2-0.9,0.4c-0.2,0.2-0.3,0.2-0.5,0c-0.2-0.2-0.4-0.3-0.8-0.4c-0.2,0-0.5-0.2-0.7-0.4
		c-0.1,0,0,0,0-0.1c0.3-0.3-0.2-0.6,0-0.9c0.1-0.1,0-0.3-0.2-0.1c-0.1-0.2-0.4-0.3-0.3-0.5c0-0.2,0-0.2-0.2-0.3
		c-0.2-0.1-0.5-0.3-0.4-0.6c-0.2-0.3-0.3-0.8-0.7-1c-0.3-0.2-0.3-0.4-0.2-0.8c0-0.4,0.1-0.8-0.3-1.1c-0.1-0.1-0.3-0.2-0.1-0.4
		c0.1-0.1-0.1-0.1-0.1-0.2c-0.1-0.1-0.3-0.3-0.3-0.5c0-0.1,0-0.1-0.1-0.1c-0.3,0-0.3-0.3-0.3-0.5c0-0.1,0-0.2-0.1-0.3
		c-0.4-0.5-0.4-0.5-1-0.8c0,0.2,0,0.3,0,0.4c0,0.3,0,0.6-0.2,0.8c-0.1,0.1,0,0.1,0,0.1c0.1,0.2,0,0.3-0.1,0.4
		c-0.2,0.4-0.2,0.8-0.1,1.2c0,0.1,0,0.2-0.1,0.3c-0.1,0.1-0.1,0-0.2,0.1c-0.5,0.3-0.5,0.5-0.3,1c0.1,0.2,0.1,0.3,0,0.5
		c-0.1,0.3-0.1,0.5,0,0.8c0.1,0.2,0,0.5,0.2,0.7c0.1,0.1-0.1,0.3-0.1,0.4c-0.1,0.2-0.1,0.3,0,0.5c0.1,0.2,0.3,0.5,0,0.7
		c-0.1,0.1,0,0.2,0,0.4c0,0.5-0.1,1-0.4,1.5c-0.1,0.1-0.2,0.3-0.1,0.4c0,0,0,0.1,0,0.2c-0.2,0.2-0.3,0.4-0.4,0.6
		c-0.1,0.2-0.2,0.4-0.3,0.6c0,0.1-0.1,0.1-0.2,0.1c-0.1,0-0.1-0.1-0.1-0.1c0-0.1,0-0.2,0-0.2c0-0.1-0.1-0.1-0.2-0.1
		c-0.1,0.1-0.2,0.3-0.3,0.5c0,0.1-0.2,0.1-0.2,0c0-0.2-0.1-0.2-0.2-0.1c-0.1,0.1-0.2,0-0.2-0.1c-0.1-0.2-0.2-0.1-0.3,0
		c-0.1,0.1-0.3,0.1-0.4,0.3c-0.1,0.1-0.3,0.1-0.3,0c-0.1-0.4-0.2-0.2-0.4,0c-0.2,0.1-0.3,0.1-0.5,0.1c-0.1,0-0.3,0.1-0.4-0.2
		c0-0.1-0.2-0.1-0.3,0c-0.1,0.1-0.3,0.1-0.4,0.1c-0.2,0-0.3-0.2-0.2-0.4c0.1-0.1,0-0.3,0.2-0.4c0,0,0,0,0-0.1c0-0.1,0-0.2,0-0.2
		c-0.4-0.3-0.1-0.8-0.4-1.1c-0.2-0.2-0.4-0.5-0.1-0.8c0-0.1,0.1-0.2,0-0.3c-0.2-0.3,0-0.6-0.2-0.9c0,0,0,0,0-0.1
		c0.2-0.2,0.1-0.4-0.1-0.5c-0.2-0.1-0.1-0.2-0.1-0.4c0.1-0.2,0.1-0.5,0.2-0.7c0-0.1,0-0.2-0.1-0.3c0-0.1-0.1-0.2-0.1-0.2
		c-0.3-0.4-0.4-0.4,0-0.8c0.2-0.2,0.1-0.3,0-0.4c-0.1-0.2-0.2-0.3,0-0.5c0.1,0,0.1-0.1,0.1-0.2c-0.1-0.2,0.1-0.4,0.1-0.6
		c0.1-0.3,0.1-0.7,0.3-1.1c0,0,0-0.1,0-0.2c-0.2-0.2,0-0.4,0.1-0.5c0.2-0.2,0.2-0.4,0.1-0.6c-0.1-0.2-0.1-0.5,0.1-0.6
		c0.3-0.4,0.3-0.4,0-0.9c0.1-0.1,0.2-0.2,0.3-0.3c0.1-0.1,0.2-0.2,0.1-0.3c0-0.1,0-0.2,0.2-0.3c0.3-0.1,0.2-0.4,0.2-0.6
		c0-0.3,0-0.5,0.1-0.6c0.1-0.1,0.3-0.2,0.3-0.4c0.1-0.2,0.1-0.5,0.1-0.7c0-0.2-0.1-0.3,0.2-0.4c0.2,0,0.2-0.5,0.1-0.6c0,0,0,0,0,0
		c-0.4,0.1-0.4-0.3-0.7-0.4c-0.2-0.1-0.4-0.1-0.5-0.2c-0.1-0.1-0.3-0.2-0.4-0.4c-0.1-0.2-0.2-0.3-0.4-0.2c-0.3,0.1-0.6,0.1-0.8,0
		c-0.3-0.1-0.4-0.1-0.6,0.2c-0.1,0.2-0.3,0.5,0,0.7c0.1,0.1,0,0.2-0.1,0.2c-0.2,0.1-0.2,0.4-0.1,0.5c0.1,0.2,0.1,0.4,0.1,0.6
		c0,0.1,0,0.3-0.1,0.4c-0.2,0.1-0.2,0.4-0.2,0.6c0,0.1,0,0.2,0,0.2c0.1,0.3-0.1,0.6-0.3,0.8c-0.3,0.2-0.3,0.5-0.2,0.8
		c0.1,0.2,0.1,0.5-0.1,0.7c-0.2,0.1-0.2,0.3-0.2,0.5c0,0.1,0.1,0.3-0.1,0.4c-0.4,0.1-0.4,0.5-0.7,0.7c-0.1,0.1-0.2,0.2-0.1,0.3
		c0,0.2-0.1,0.3-0.3,0.4c-0.4,0.2-0.5,0.3-0.7,0.7c-0.1,0.2-0.3,0.2-0.4,0.3c-0.1,0.1-0.3,0-0.4,0.2c0,0.1,0,0.3-0.1,0.4
		c-0.1,0.1-0.2,0-0.3,0c-0.3,0-0.6,0-0.8,0.4c0,0.1-0.1,0.1-0.2,0.1c-0.1,0-0.2,0.1-0.3,0.1c-0.2,0.1-0.3,0.4-0.6,0.3
		c-0.2,0.4-0.8,0.4-0.9,1c0,0.1-0.2,0.3-0.4,0.1c-0.1-0.1-0.2-0.1-0.4,0.1c-0.3,0.3-0.6,0.6-1,0.3c-0.1,0-0.1,0-0.2,0.1
		c-0.2,0.2-0.4,0.3-0.7,0.3c-0.3,0-0.5,0.2-0.7,0.4c-0.4,0.3-0.4,0.3-0.7-0.1c-0.1-0.1-0.2-0.2-0.4-0.1c-0.2,0.2-0.6,0.1-0.7-0.1
		c-0.2-0.2-0.6-0.3-0.8-0.6c0.1-0.1,0.2-0.2,0.4-0.3c-0.1-0.1-0.1-0.1-0.2-0.2c-0.1-0.1-0.3-0.2-0.1-0.5c0.1-0.2-0.1-0.4-0.2-0.6
		c-0.1-0.1-0.2-0.2-0.1-0.3c0.1-0.4-0.1-0.8,0.1-1.2c0-0.1,0.1-0.2-0.1-0.3c-0.2,0-0.1-0.2-0.1-0.2c0.1-0.4,0.2-0.8,0.6-1.1
		c0.1,0,0.1-0.1,0.1-0.2c0-0.2,0.1-0.2,0.2-0.1c0.2,0.2,0.3,0.1,0.5-0.1c0.1-0.1,0.2-0.1,0.3-0.2c0.1-0.1,0.4,0,0.5-0.2
		c0.1-0.1,0.2-0.3,0.3-0.4c0.1-0.2,0.5-0.2,0.7-0.2c0.2,0.1,0.3,0,0.4-0.2l0.3-0.2c0.2-0.1,0.4-0.2,0.5-0.4c0.2-0.4,0.4-0.3,0.7-0.2
		c0.2,0.1,0.3,0,0.3-0.1c0.1-0.3,0.3-0.4,0.5-0.4c0.2-0.1,0.3-0.2,0.3-0.4c0-0.1,0-0.2,0.2-0.2c0.2,0,0.3-0.1,0.3-0.3
		c0-0.3,0.1-0.7,0.4-0.9c0.2-0.2,0-0.3,0.1-0.5c0.1-0.2,0-0.5,0.2-0.7c0,0,0.1-0.1,0-0.1c-0.1-0.2,0-0.4,0-0.6c0-0.2,0-0.4,0.2-0.5
		c0.1-0.1,0.1-0.1,0-0.2c-0.2-0.1-0.2-0.3-0.2-0.5c0-0.2,0.1-0.3-0.1-0.5c-0.1-0.1,0.1-0.2,0.1-0.2c0.1-0.2,0.2-0.3,0.2-0.5
		c0-0.2,0-0.4-0.2-0.5c-0.2-0.1-0.3-0.4-0.4-0.5c0,0-0.1-0.1-0.1-0.1c-0.1-0.2,0.1-0.4-0.1-0.5c-0.2-0.1-0.1-0.4-0.3-0.5
		C61.9,98.4,62,98.1,62,98c0-0.2,0-0.4-0.3-0.5c0,0-0.1,0-0.1,0c-0.1-0.4-0.3-0.6-0.5-0.9c-0.1-0.1,0.2-0.2,0.1-0.3
		c-0.1-0.1-0.3-0.1-0.3-0.2c0-0.1,0-0.2,0-0.2c0.3-0.3,0.1-0.4-0.1-0.6c-0.2-0.2-0.4-0.5-0.4-0.8c0-0.4,0-0.4-0.2-0.6
		c-0.1-0.1-0.1-0.2-0.1-0.3c0-0.2,0-0.3-0.2-0.4c-0.1-0.1-0.1-0.3,0-0.4c0.2-0.2,0.2-0.2,0-0.5c-0.1-0.1-0.1-0.1-0.2-0.2
		c-0.2-0.1-0.1-0.2,0-0.4c0.2-0.2,0.2-0.5,0-0.7c-0.2-0.2-0.4-0.3-0.1-0.6c0-0.5,0.2-1.1,0.1-1.6c0-0.2-0.2-0.4-0.3-0.6
		c0-0.1-0.1-0.2,0-0.3c0.2-0.2,0.3-0.4,0.3-0.7c0-0.1-0.1-0.3,0.1-0.4c0.1-0.1,0-0.2,0-0.2c-0.2-0.1-0.2-0.3-0.3-0.4
		c0.2-0.2,0.4-0.4,0.6-0.7c0.1-0.1,0.1-0.2,0-0.3c-0.1-0.2-0.1-0.4,0-0.5c0,0,0-0.1,0-0.2c0-0.5,0-0.5,0.1-0.8c0,0,0-0.1,0-0.1
		c-0.3,0-0.4,0.3-0.5,0.5c-0.1,0.1-0.2,0.2-0.3,0.2c-0.1,0-0.3-0.1-0.4-0.1c-0.1,0-0.2,0.2-0.3,0.3c-0.1,0.1-0.2,0.1-0.3,0
		c-0.2-0.2-0.3,0-0.5,0.1c-0.1,0.1-0.3,0.2-0.5,0.1c-0.1-0.1-0.3,0-0.5-0.1c-0.1,0-0.1,0-0.1,0.1c0,0.3-0.4,0.4-0.4,0.7
		c0,0.1-0.1,0.3-0.3,0.3c-0.2,0.1-0.4,0.4-0.7,0.3c-0.1,0-0.1,0-0.1,0.1c-0.1,0.3-0.4,0.3-0.5,0.6c0,0.1-0.1,0.1-0.3,0
		c-0.2-0.1-0.4,0.2-0.4,0.3c0,0.4-0.4,0.5-0.6,0.8c-0.2,0-0.2,0.1-0.2,0.2c0,0.4-0.1,0.8-0.5,1c0,0,0,0,0,0c0,0.5-0.4,0.6-0.7,0.8
		c-0.2,0.1-0.3,0.3-0.3,0.5c0,0.2-0.1,0.4-0.1,0.5c-0.1,0.3-0.3,0.3-0.5,0.2c-0.1-0.1-0.2-0.2-0.3-0.3c-0.1-0.1-0.1-0.1-0.3-0.1
		c-0.2,0-0.4,0-0.5-0.3c0-0.1-0.1-0.1-0.2-0.1c-0.4,0.1-0.5-0.1-0.8-0.4c-0.1-0.1-0.2-0.2-0.3-0.3c-0.1-0.1-0.3-0.2-0.4-0.1
		c-0.3,0.2-0.6,0-0.7-0.2c-0.2-0.2-0.4-0.4-0.6-0.7c0,0-0.1-0.1-0.1-0.1c0.1-0.3-0.2-0.5-0.3-0.7c0-0.1-0.1-0.2,0-0.3
		c0.2-0.2,0.3-0.5,0.4-0.8c0,0,0.1-0.1,0-0.2c-0.2-0.3-0.1-0.4,0.2-0.4c0.2-0.1,0.2-0.2,0.2-0.4c0-0.3,0.1-0.5,0.5-0.6
		c0.3-0.1,0.5-0.3,0.5-0.6c0-0.2,0.1-0.3,0.2-0.4c0.2-0.1,0.3-0.3,0.4-0.5c0.1-0.3,0.4-0.6,0.6-0.8c0.1-0.2,0.3-0.3,0.3-0.5
		c0-0.1,0.1-0.2,0.3-0.1c0,0.1,0.1,0,0.2-0.1c0.2-0.1,0.2-0.3,0.3-0.4c0.1-0.2,0.2-0.3,0.4-0.3c0.3-0.1,0.4-0.3,0.6-0.5
		c0,0,0-0.1,0.1-0.1c0.1-0.1,0.4,0.1,0.4-0.1c0.1-0.2,0.2-0.2,0.4-0.3c0.1-0.1,0.2-0.2,0.3-0.3c0.1-0.1,0.2-0.1,0.3-0.1
		c0.4,0.1,0.7-0.2,0.9-0.5c0.1-0.2,0.3-0.4,0.5-0.6c0.1-0.1,0.3-0.2,0.4-0.1c0.3,0.3,0.7-0.1,1,0c0.1,0,0.1-0.1,0.2-0.1
		c0.1-0.1,0.2-0.2,0.3-0.3c0.2-0.2,0.4-0.3,0.6-0.1c0.1,0.1,0.2,0.1,0.2,0l0.7-0.5c0.1-0.1,0.2-0.2,0.4,0c0,0,0.1,0,0.2,0.1
		c0.1,0.1,0.2,0.1,0.4,0c0.3-0.3,0.7-0.5,1.2-0.3c0.1,0,0.3,0.1,0.3,0c0.2-0.2,0.3-0.2,0.5-0.1c0.2,0.1,0.5,0.1,0.7-0.2
		c0.2,0,0.4,0,0.6,0.1c0.2,0.1,0.4,0.1,0.5,0c0.1-0.1,0.2,0,0.3,0c0.3,0,0.5-0.1,0.7-0.3c0.2-0.2,0.4-0.2,0.5-0.1
		c0.2,0.2,0.4,0.2,0.6,0.2c0.3,0.1,0.5,0.2,0.7,0.4c0.1,0.1,0.2,0.1,0.3,0c0.2-0.1,0.5,0,0.8-0.2c0.1-0.1,0.2,0.1,0.3,0.1
		c0.1,0,0.2-0.2,0.3-0.1c0.1,0,0.1,0,0.2,0.1c0,0.2,0.2,0.3,0.3,0.4c0.1,0.1,0.2,0.1,0.3,0.1c0.2-0.2,0.4-0.1,0.5,0.1
		c0.1,0.2,0.3,0.2,0.5,0.1c0.1-0.1,0.2-0.1,0.3-0.2c0.1,0,0.2-0.1,0.3,0.1c0.1,0.3,0.2,0.3,0.5,0.1c0.3-0.1,0.3-0.1,0.6,0
		c0.1,0.1,0.2,0,0.3,0c0.2,0.1,0.2-0.2,0.4-0.1c0.1,0.1,0.2,0.2,0.3,0.3c0.1,0.1,0.2,0.3,0.4,0.1c0,0,0.1,0,0.2,0
		C72.9,78.8,73.3,78.7,73.6,78.5z M72.6,95.9c0.2,0.1,0.3,0,0.4,0c0.1,0,0.1,0,0.2,0.1c0.1,0.3,0.4,0.3,0.6,0.3
		c0.2,0,0.3,0.1,0.4,0.2c0.2,0.2,0.2,0.6,0.6,0.5c0,0,0.1,0,0.1,0.1c0.2,0.3,0.4,0.5,0.7,0.7c0,0.3,0.3,0.3,0.5,0.5
		c0.2,0.2,0.3,0.1,0.3-0.2c0-0.2,0.1-0.2,0.2-0.2c0.2,0,0.2-0.2,0.3-0.3c0.1-0.2,0.2-0.5,0.5-0.4c0.2,0,0.4-0.2,0.5-0.4
		c0-0.1,0.3-0.3,0.4-0.3c0.2-0.1,0.5-0.2,0.7-0.4c0.2-0.2,0.4-0.4,0.5-0.7c0-0.1,0.1-0.3,0.3-0.4c0.2-0.1,0.4-0.4,0.6-0.5
		c0-0.3,0.4-0.5,0.4-0.8c0-0.3,0.4-0.4,0.3-0.8c0,0,0.1-0.1,0.1-0.1c0.2-0.1,0.3-0.2,0.3-0.4c0-0.1,0-0.2,0.1-0.3
		c0.3-0.2,0.3-0.6,0.2-0.9c-0.1-0.2-0.1-0.3,0.1-0.5c0.2-0.2,0.3-0.4,0.1-0.7c-0.1-0.2-0.1-0.4,0.1-0.5c0.2-0.1,0-0.2,0-0.3
		c0-0.1-0.2-0.1-0.2-0.1c-0.2,0.1-0.5,0.1-0.5,0.5c0,0,0,0.1,0,0.1c-0.3,0-0.4,0.3-0.6,0.5c-0.4-0.1-0.5,0.4-0.8,0.5
		c-0.4,0.1-0.7,0.5-1,0.7c-0.1,0.1-0.2,0.2-0.3,0.3c-0.2-0.3-0.3,0.1-0.4,0.2c-0.1,0-0.1,0.2-0.2,0.3c-0.1,0.2-0.2,0.1-0.3,0
		c0,0-0.1,0.1-0.1,0.1c-0.1,0.1-0.2,0.2-0.3,0.3c-0.1,0.1-0.1,0.2-0.2,0.1c-0.2,0-0.3,0.1-0.5,0.2c-0.3,0.3-0.5,0.6-0.9,0.7
		c0,0-0.1,0.1-0.1,0.1c0,0.2-0.1,0.2-0.3,0.2c-0.1,0-0.3,0.1-0.4,0.1c-0.3,0.1-0.6,0.4-1,0.3c0,0-0.2,0.1-0.3,0.2
		c-0.2,0.2-0.3,0.5-0.6,0.2c0,0-0.1,0-0.1,0.1c-0.1,0.2-0.4,0.1-0.5,0.3c-0.1-0.2-0.2,0-0.3,0c-0.1,0-0.2,0.2,0,0.2
		C72.4,95.3,72.6,95.5,72.6,95.9z M68.3,84.3c-0.1,0.5-0.2,1-0.2,1.6c0,0.2,0,0.3-0.2,0.5c-0.3,0.4-0.2,0.5,0,0.9
		c0.1,0.2,0.4,0.5,0.3,0.7c-0.2,0.3,0.1,0.5,0,0.8c0,0.1,0,0.2,0.1,0.2c0.3,0.1,0.5,0.4,0.7,0.7c0.3-0.4,0.7-0.5,1.1-0.5
		c0.4,0,0.6-0.2,0.9-0.3c0.1,0,0.1-0.1,0.2-0.2c0.1-0.1,0.1-0.1,0.2,0c0.1,0.1,0.2,0,0.3,0c0.2-0.2,0.3-0.2,0.7-0.2
		c0.1,0,0.1,0,0.2-0.1c0.2-0.1,0.4-0.2,0.6-0.2c0.3-0.1,0.6-0.1,0.8-0.4c0.1-0.2,0.2-0.4,0.5-0.3c0.1,0,0.1-0.1,0.2-0.1
		c0.1-0.1,0.3-0.2,0.4-0.4c0.2-0.2,0.5-0.3,0.7-0.5c0.1,0,0.3,0,0.3,0c0.1-0.3,0.3-0.4,0.5-0.6c0.2-0.2,0.6-0.6,0.8-0.7
		c-0.2-0.3-0.7-0.1-0.9-0.4c0,0-0.1,0.1-0.1,0.1c-0.2,0-0.3,0.2-0.5,0.2c-0.2-0.1-0.4-0.1-0.6,0c0,0-0.1-0.1-0.1-0.1
		c-0.1-0.1-0.1-0.1-0.3,0c-0.2,0-0.3,0.2-0.4,0.3c-0.3,0.3-0.4,0.3-0.7,0c-0.1-0.1-0.2-0.1-0.4,0c-0.4,0.2-0.4,0.2-0.7,0
		c-0.1-0.1-0.2-0.2-0.3-0.1c-0.2,0.1-0.3,0.2-0.4,0c-0.2,0.2-0.3,0.1-0.5,0c-0.1,0-0.2,0-0.3,0.1c-0.4,0.1-0.7,0.2-1-0.2
		c-0.1-0.1-0.2-0.2-0.4-0.1c-0.4,0.2-0.8,0-1.1-0.2C68.6,84.5,68.5,84.3,68.3,84.3z"/>
	<path d="M12.1,90.7c0.4-0.3,0.5-0.7,0.5-1.1c0-0.1,0-0.2-0.1-0.3c-0.3-0.3-0.1-0.6,0-0.8c0.1-0.2,0.2-0.4,0.2-0.6
		c0-0.1,0.1-0.2,0-0.3c-0.2-0.2-0.1-0.4,0.1-0.6c0.2-0.2,0.1-0.3,0-0.4c-0.1-0.1-0.1-0.2,0-0.3c0.3-0.2,0.3-0.4,0.3-0.7
		c0-0.1-0.1-0.3,0.2-0.3c0.1,0,0.1-0.2,0-0.3c-0.1-0.1-0.1-0.2,0-0.3c0.2-0.2,0.3-0.3,0.2-0.7c-0.1-0.3,0.1-0.6,0.4-0.7
		c-0.1-0.1-0.1-0.1-0.2-0.2c0.1-0.1,0.2-0.2,0.3-0.3c0.1-0.1,0.1-0.1,0-0.2c-0.2-0.1,0-0.2,0.1-0.3c0.1-0.1,0.2-0.2,0-0.3
		c-0.1-0.1-0.1-0.3,0-0.4c0.1-0.3,0.1-0.7,0.4-1c0.1-0.1,0-0.1,0-0.2c-0.1-0.1-0.2-0.3-0.1-0.4c0.2-0.2,0.1-0.4,0-0.6
		c-0.2-0.4-0.2-0.6,0.1-0.8c0.1-0.1,0.3-0.1,0.2-0.3c0-0.2,0.1-0.4-0.1-0.6c-0.1-0.1,0.1-0.2,0.2-0.3c0.1,0,0.3-0.1,0.3-0.2
		c0-0.2,0.1-0.4-0.1-0.5c-0.1-0.1,0-0.2,0-0.3c0.1-0.1,0.1-0.1,0.2-0.2c0.1-0.1,0.2-0.2,0-0.3c-0.1-0.1,0-0.1,0.1-0.2
		c0.1-0.1,0.3-0.2,0.4-0.4c0,0-0.1-0.1-0.1-0.1c-0.2-0.4-0.2-0.4,0.2-0.7c0.2-0.1,0.2-0.2,0.2-0.4c0-0.4,0.2-0.7,0.2-1.1
		c0-0.1,0.1-0.1,0.1-0.1c0.2-0.2,0.4-0.3,0.2-0.6c-0.1-0.1,0-0.2,0-0.3c0-0.1,0-0.2,0.2-0.3c0.1,0,0.3-0.2,0.1-0.4
		c-0.1-0.1-0.1-0.1,0.1-0.2c0.2-0.1,0.5-0.3,0.3-0.6c-0.1-0.1,0.1-0.1,0.1-0.2c0.1-0.1,0.2-0.1,0.3-0.2c0.2-0.2,0.4-0.3,0.2-0.6
		c-0.2-0.2,0.1-0.6,0.2-0.9c0.1-0.2,0.1-0.3,0.2-0.4c0.2-0.3,0.2-0.6,0.2-1c-0.3,0.1-0.2,0.3-0.4,0.5c-0.1,0.1-0.1,0.3-0.3,0.2
		c-0.1,0-0.1,0.1-0.1,0.2c-0.2,0.2-0.4,0.5-0.8,0.5c-0.5,0-0.6,0.1-0.8,0.6c0,0.1,0,0.1-0.1,0.1c0,0-0.1,0.1-0.1,0.1
		c-0.3-0.1-0.2,0.3-0.5,0.3c-0.4-0.1-0.5,0.2-0.6,0.5c-0.1,0.3-0.1,0.3-0.5,0.3c-0.1,0-0.2,0-0.3,0.2c0,0.1-0.1,0.3-0.3,0.4
		c-0.1,0-0.1,0.1-0.2,0.1c-0.3-0.1-0.5,0-0.6,0.3c0,0.1-0.1,0.1-0.2,0.1c-0.1,0-0.1,0-0.2,0.1c-0.1,0.1,0,0.3-0.2,0.3
		c-0.1,0-0.2,0-0.4,0c-0.1,0-0.1,0.1-0.2,0.2c-0.2,0.1-0.3,0.1-0.5,0.2c-0.1,0-0.3-0.1-0.3,0.2c-0.2,0-0.4,0.1-0.6,0.1
		c-0.2,0-0.2-0.1-0.3,0.1c0,0.1-0.2,0.3-0.3,0.3c-0.1,0-0.3,0-0.4,0c-0.4,0-0.7,0.2-1,0.4c-0.2,0.1-0.3,0.2-0.6,0.1
		c-0.2-0.1-0.6-0.1-0.8,0.1c-0.1,0.1-0.2,0.1-0.3,0c-0.1-0.1-0.1-0.1-0.3,0c-0.1,0.1-0.3,0-0.4,0c-0.2,0,0-0.3-0.3-0.2
		c-0.1,0-0.1,0-0.1-0.1c0-0.2,0-0.4-0.2-0.4c0,0,0-0.1,0-0.1c-0.1-0.1,0.2-0.2,0.1-0.3C5.4,72,5.4,72,5.3,71.9
		c-0.2-0.3-0.1-0.5,0.1-0.8c0.1-0.1,0.1-0.1,0-0.2c0,0-0.1,0-0.2,0C5.1,71,5.1,71,5,70.9c-0.1-0.1-0.1-0.1,0-0.3
		c0.1-0.1,0.2-0.3-0.1-0.4c-0.1,0-0.1-0.1,0-0.2C5,70,5.1,69.9,5.2,69.8C5.1,69.7,5,69.7,5,69.7c-0.1-0.1-0.2,0.2-0.3,0.1
		c-0.1-0.1-0.1-0.3,0-0.4c0.1-0.1,0.1-0.1,0.2-0.2c0.1-0.1,0.4-0.2,0.3-0.5c0,0,0.1-0.1,0.1-0.1c0,0,0.1-0.1,0.1-0.1
		c0.3,0.1,0.5-0.3,0.8-0.2c0.1,0,0.2,0.1,0.3,0C6.7,68.1,6.8,68,7,68c0.2,0,0.3,0,0.4-0.2c0.1-0.1,0.2-0.1,0.2,0
		C7.8,68,7.9,68,8,67.9C8.2,67.8,8.3,68,8.4,68c0.1-0.1,0.2-0.2,0.3-0.2c0.2-0.1,0.5-0.1,0.6-0.3c0.2-0.2,0.4-0.2,0.6-0.1
		c0.2,0,0.3-0.1,0.4-0.2c0-0.1,0.1-0.2,0.3-0.2c0.3,0,0.3-0.2,0.3-0.4c0-0.1,0-0.3,0.2-0.2c0.2,0.1,0.4-0.1,0.5-0.1
		c0.1,0,0.3-0.2,0.3-0.4c0-0.2,0.1-0.2,0.2-0.2c0.2,0.1,0.4,0,0.4-0.1c0.1-0.2,0.2-0.2,0.4-0.2c0.1,0,0.1,0,0.2-0.1
		c0.2-0.3,0.4-0.6,0.8-0.6c0.2,0,0.2-0.2,0.2-0.3c0-0.1,0-0.1-0.1-0.1c-0.2,0-0.1-0.1,0-0.1c0,0,0-0.1,0-0.2
		c0.3-0.1,0.4-0.4,0.6-0.5c0.2-0.1,0.4,0,0.3-0.3c0-0.1,0.1-0.1,0.2-0.1c0.3,0,0.5-0.1,0.6-0.4c0.1-0.2,0.4-0.4,0.7-0.4
		c0.2,0,0.2-0.3,0.4-0.3c0.3,0,0.2-0.6,0.6-0.5c0.3,0.1,0.4-0.4,0.7-0.2c0.1-0.1,0.1-0.4,0.4-0.4c0.2,0,0.3-0.2,0.5-0.1c0,0,0,0,0,0
		c0-0.3,0.3-0.2,0.5-0.4c0.2-0.2,0.2,0.1,0.3,0c0.1,0,0.1-0.2,0.3-0.2c0.2,0,0.3-0.2,0.5,0c0.2,0.2,0.5-0.1,0.7-0.1
		c0.1,0,0.2-0.2,0.3-0.3c0.4,0.5,0.8,0.2,1.2,0.1c0.2-0.1,0.3,0,0.3,0.1c0.1,0.1,0.3,0.1,0.4,0.1c0.2-0.1,0.3,0,0.5,0.1
		c0.1,0.1,0.2,0.2,0.3,0.1c0.2-0.1,0.4-0.2,0.5,0.2c0,0.1,0.2,0,0.2,0.1c0.2-0.1,0.3,0,0.3,0.1c0,0.2,0.1,0.2,0.2,0.1
		c0.4-0.1,0.4-0.1,0.7,0.3c0.1-0.1,0-0.3,0.1-0.4c0-0.1,0.1-0.2,0.3-0.2c0.2,0,0.2,0.1,0.3,0.2c0,0,0,0.1,0,0.2
		c0.1,0.2,0.2,0.4,0.5,0.4c0.2,0,0.5,0.1,0.7-0.1c0.1-0.1,0.3,0.1,0.3,0.2c0,0.1,0,0.2,0.1,0.3c0.3,0.2,0.3,0.5,0.2,0.7
		C29,62,29.1,62,29.1,62c0.2,0,0.4,0,0.5,0.2c0.1,0.1,0.2,0.2,0.4,0.2c0.2,0,0.4,0,0.4,0.3c0,0.2,0.3,0.2,0.5,0.2c0.1,0,0.2,0,0.3,0
		c0.3,0,0.3,0,0.5,0.3c0.1,0.3,0.4,0.4,0.6,0.6c0,0,0.1,0,0.1-0.1c0.1-0.1,0.2,0.2,0.3,0c0.1-0.1,0.1,0.1,0.2,0.1
		c0.1,0.2,0.4,0.3,0.4,0.5c0,0.1,0.2,0.4,0.4,0.2c0.1-0.1,0.2,0.1,0.2,0.1c0.2,0.1,0.2,0.3,0.4,0.4c0.2,0.1,0.2,0.4,0.5,0.3
		c0.1,0,0.1,0.1,0.1,0.1c0.1,0.3,0.2,0.6,0.7,0.6c0.1,0,0.2,0.2,0.3,0.3c0,0.1,0,0.2,0.1,0.2c0.3,0,0.3,0.2,0.3,0.4
		c0,0.1-0.1,0.3,0,0.4c0.1,0.1,0.2,0.1,0.4,0.1c0.1,0,0.2,0.1,0.3,0.1c0.3,0.1,0.4,0.2,0.4,0.5c0,0.3,0,0.5,0.3,0.6
		c0.1,0,0.1,0.1,0,0.3c-0.1,0.2-0.1,0.4,0.2,0.5c0.1,0.1,0.2,0.2,0.3,0.4c0.1,0.2,0.1,0.3-0.1,0.4c-0.2,0.2-0.1,0.3,0,0.4
		c0.2,0.2,0.2,0.5,0.4,0.7c0,0,0,0.1,0,0.2c0,0-0.1,0.1-0.1,0.1c0.2,0.2,0.2,0.5,0.2,0.8c0,0.1,0.1,0.2,0.1,0.2
		c0.1,0.1,0.2,0.2,0.1,0.2c-0.1,0.1-0.1,0.2,0,0.3c0.1,0.1,0,0.1-0.1,0.2c-0.1,0.2-0.1,0.5,0,0.7c0.1,0.2,0.1,0.3-0.1,0.4
		c-0.1,0-0.2,0.2-0.2,0.3c0,0.6-0.2,0.9-0.6,1.2c0,0-0.1,0-0.1,0.1c0,0.2,0,0.3-0.2,0.3c-0.1,0-0.2-0.1-0.4-0.1
		c-0.1,0-0.1-0.1-0.3,0c-0.2,0.1-0.3,0.1-0.6,0c-0.2-0.1-0.3,0.2-0.6,0c-0.1-0.1-0.4-0.1-0.4,0.2c-0.2,0.1-0.3,0.1-0.5,0
		c-0.2-0.1-0.3-0.3-0.5-0.1c-0.3-0.1-0.5-0.2-0.8-0.2c-0.1,0-0.1-0.1-0.1-0.1c0-0.2,0.2-0.4-0.1-0.5c0,0-0.1-0.2,0-0.3
		c0.1-0.1,0.1-0.1,0.1-0.2c0-0.2-0.2-0.3-0.1-0.5c0.2-0.2-0.1-0.3,0-0.5c0.1-0.2-0.1-0.3-0.2-0.5c0-0.1-0.1-0.2,0-0.3
		c0.2-0.2,0-0.5,0.2-0.7c0.2-0.2-0.1-0.4,0.1-0.5c0,0,0-0.2,0-0.2c-0.3-0.3-0.2-0.8-0.5-1.1c-0.1-0.1-0.2-0.3-0.2-0.5
		c0-0.2-0.1-0.3-0.2-0.3c-0.3-0.2-0.6-0.5-0.8-0.8c-0.1-0.1-0.1-0.1-0.2-0.2c-0.2-0.2-0.5-0.2-0.6-0.4c-0.1-0.2-0.3-0.4-0.4-0.5
		c-0.1-0.2-0.4,0-0.5-0.1c-0.1-0.1-0.2-0.3-0.3-0.4c-0.1-0.1-0.3,0-0.4,0c-0.2,0-0.3,0-0.3-0.2c0-0.1-0.2-0.3-0.3-0.1
		c-0.1,0.1-0.2,0-0.2-0.1c-0.1-0.3-0.3-0.4-0.5-0.4c-0.1,0-0.3-0.1-0.3-0.2c0-0.1-0.1-0.1-0.2,0c0,0.1-0.1,0.1-0.1,0.2
		c0.1,0.2,0.2,0.4,0,0.6c0,0,0,0.1,0,0.2c0.4,0.3,0.2,0.7,0.1,1.1c0,0.1-0.1,0.1,0,0.3c0.1,0.1,0.1,0.4,0,0.6c-0.1,0.2,0,0.2,0,0.3
		c0,0.1,0,0.3,0,0.4c-0.1,0.1-0.2,0.2,0,0.4c0.1,0.1,0.1,0.3,0,0.4c-0.1,0.1-0.2,0.2-0.3,0.3c-0.1,0.1,0.1,0.2,0.1,0.3
		c0,0.1-0.1,0.3-0.1,0.4c0,0,0,0.1,0.1,0.1c0.1,0.2,0.1,0.5,0,0.7c0,0.1-0.1,0.1,0,0.2c0.3,0.2,0,0.5,0.1,0.7
		c0.1,0.2-0.2,0.5-0.2,0.7c0,0.3-0.3,0.7-0.1,1c0.1,0.2-0.1,0.5,0.1,0.7c0,0,0,0,0,0.1c-0.1,0.1-0.2,0.2-0.2,0.3
		c0,0.1-0.3,0.2-0.1,0.4c0.2,0.1-0.1,0.2-0.1,0.3c0.1,0.2,0,0.5-0.1,0.7c0,0.2-0.1,0.4,0.1,0.5c0.1,0.1,0.1,0.2,0,0.3
		c-0.1,0.2-0.3,0.3-0.1,0.5c0,0,0,0.1,0,0.2c-0.1,0.4,0,0.6,0.2,1c0.1,0.2,0,0.4,0.3,0.5c0.1,0,0.1,0.1,0.1,0.1
		c-0.3,0.2-0.1,0.5,0,0.7c0.1,0.2-0.1,0.3,0,0.4c0.1,0.1,0.2,0.3,0.4,0.4C28,82.9,28,83,28,83.1c0,0.1,0,0.1,0.1,0.1
		c0.3-0.1,0.3,0.2,0.3,0.4c0,0.2,0.1,0.2,0.2,0.3c0.2,0.1,0.3,0.3,0.3,0.5c0,0.1,0,0.3,0.1,0.4c0.3,0.2,0.2,0.6,0.6,0.6
		c0.1,0,0.1,0.2,0.1,0.3c0,0.1,0,0.2,0.1,0.2c0.2,0,0.3,0,0.2,0.2c0,0.1,0,0.1,0,0.2c0,0.3,0.1,0.6,0.4,0.7c0.2,0.1,0.3,0.2,0.3,0.4
		c-0.1,0.3,0.1,0.4,0.3,0.5c0.2,0.1,0.2,0.3,0.1,0.3c-0.2,0.2-0.2,0.3,0.1,0.3c0.1,0,0.2,0.2,0.3,0.2c0.1,0,0.2,0.1,0.2,0.2
		c-0.1,0.4,0.3,0.6,0.3,0.9c0,0.2,0,0.3,0.3,0.3c0.2,0,0.2,0.3,0.4,0.4c0,0,0,0.1,0,0.1c-0.3,0.2,0,0.4,0.1,0.5
		c0.1,0.1,0.1,0.3,0.3,0.3c0.1,0,0.3,0.1,0.3,0.2c-0.1,0.1,0,0.3-0.1,0.4c-0.1,0.1-0.1,0.1,0,0.1c0.2,0,0.2,0.2,0.3,0.3
		c0,0.2,0.3,0.4,0.2,0.7c0,0,0.1,0.1,0.1,0.1c0.4,0.3,0.4,0.5,0.2,0.9c-0.1,0.2-0.2,0.4,0,0.6c0.3,0.2,0.2,0.6,0.3,0.9
		c0,0.1,0,0.2-0.1,0.3c-0.3,0.3-0.5,0.6-0.6,1c-0.1,0.3-0.4,0.3-0.5,0.6c-0.1,0.2-0.3,0-0.5,0.1c-0.1,0-0.2,0-0.2,0.1
		c0,0.3-0.1,0.3-0.3,0.1c0,0-0.2,0-0.2,0.1c0,0.1-0.1,0.2-0.2,0.3c-0.1,0.1-0.2,0.2-0.3,0.1c0,0-0.1-0.1-0.1-0.1
		c-0.5-0.1-0.5-0.1-0.9-0.4c-0.1-0.1-0.3-0.3-0.5-0.1c-0.1,0.1-0.2-0.1-0.3-0.1c-0.2,0-0.1-0.2-0.1-0.3c0-0.1,0-0.3-0.2-0.4
		c-0.3-0.2-0.5-0.6-0.9-0.8c0,0-0.1-0.1,0-0.1c0.2-0.3-0.1-0.3-0.2-0.5c-0.1-0.2,0-0.4-0.2-0.7c0-0.1-0.1-0.2-0.1-0.2
		c-0.1-0.1-0.3,0-0.4-0.1c-0.1-0.1,0.1-0.3-0.2-0.3c-0.1,0-0.1-0.2-0.1-0.2c0-0.3,0-0.5-0.3-0.7c-0.1-0.1-0.2-0.2-0.2-0.4
		c0-0.1-0.1-0.3-0.3-0.4c-0.2-0.1,0.1-0.4-0.2-0.4c0,0-0.1-0.1-0.1-0.1c0.1-0.3-0.2-0.5-0.4-0.7c-0.1-0.1-0.2-0.2,0-0.3
		c0.1-0.1,0-0.2,0-0.2c-0.3,0-0.2-0.2-0.2-0.3c0-0.2-0.1-0.3-0.3-0.3c-0.3-0.1-0.5-0.4-0.6-0.7c0-0.1,0-0.2-0.2-0.2
		c-0.2-0.3-0.5-0.5-0.4-0.8c0-0.2-0.1-0.3-0.3-0.3c-0.2,0-0.3-0.2-0.4-0.3c0,0,0-0.1,0-0.2c0,0,0.1,0,0-0.1
		c-0.1-0.1-0.1-0.3-0.4-0.4c-0.2,0,0-0.3-0.1-0.5c-0.2-0.1-0.2-0.3-0.5-0.4c-0.1,0-0.1-0.1,0-0.2c0.1-0.1,0.1-0.1,0-0.2
		c-0.2-0.2-0.3-0.4-0.4-0.6c-0.1-0.2-0.3-0.2-0.4-0.3c-0.1,0-0.2-0.1-0.4-0.1c-0.3-0.1-0.4-0.1-0.5,0.2c0,0.1,0,0.2,0,0.2
		c0,0.1-0.1,0.1-0.1,0.1c0,0-0.1,0-0.1-0.1c0,0,0-0.1,0-0.1c0-0.1,0-0.2-0.2-0.2c-0.2,0-0.2,0-0.2,0.2c0,0.1,0,0.2-0.2,0.2
		c-0.1,0-0.2,0-0.4,0c-0.3,0-0.6,0-0.7,0.3c-0.1,0.2-0.2,0.2-0.3,0.1c-0.2-0.1-0.2-0.1-0.2,0.1c0,0.2-0.3,0.5,0,0.7
		c-0.2,0.2-0.1,0.5-0.1,0.7c0,0-0.1,0-0.1,0c-0.1,0.1-0.3,0.2-0.1,0.4c0,0,0,0.2,0,0.2c-0.1,0.3-0.2,0.5-0.1,0.8
		c0,0.1,0,0.2-0.1,0.3c-0.1,0.1-0.1,0.2,0,0.4c0.1,0.1,0.1,0.2,0,0.3c0,0-0.1,0.1-0.1,0.1c0.1,0.2,0.2,0.3,0,0.5
		c-0.1,0.1,0,0.3-0.1,0.5c-0.1,0.1-0.1,0.2,0,0.3c0.1,0.1,0.1,0.2,0,0.2c-0.2,0.2-0.2,0.3-0.1,0.5c0.1,0.2,0.2,0.4-0.1,0.5
		c-0.1,0-0.1,0.2,0,0.2c0.3,0.1,0.2,0.2,0.1,0.3c0,0,0,0.1,0,0.2c0,0.2,0.1,0.3,0,0.5c0,0.2-0.1,0.3-0.1,0.5c-0.1,0.2-0.1,0.5,0,0.6
		c0.1,0.2,0,0.4,0.2,0.5c0,0,0.1,0.2,0,0.2c-0.3,0.5,0,0.9,0.3,1.2c0.1,0.1,0.2,0.2,0,0.3c0,0,0.1,0.7,0.2,0.7
		c0.2,0.1,0.2,0.4,0.1,0.5c-0.1,0.2-0.2,0.3,0.1,0.4c0.1,0,0.4,0.2,0.2,0.4c-0.1,0.1,0,0.1,0.1,0.1c0.2,0.1,0.2,0.2,0.2,0.4
		c0,0.4,0.2,0.7,0.1,1.1c0,0.2,0.3,0,0.2,0.3c0,0.1-0.1,0.2,0.1,0.3c0,0,0.1,0.1,0.1,0.1c0,0.2,0,0.3,0,0.5c0,0.2-0.2,0.1-0.3,0.3
		c-0.1,0.2-0.3,0.4-0.6,0.4c-0.1,0-0.1,0.1-0.1,0.1c-0.1,0.2-0.2,0.3-0.2,0.6c0,0.3-0.1,0.4-0.5,0.5c-0.1,0-0.2,0-0.3,0.2
		c0,0.1-0.2,0.2-0.3,0.1c0,0-0.2,0-0.3,0c-0.3,0.1-0.3,0.1-0.5-0.1c-0.2-0.3-0.2-0.3-0.6-0.3c-0.1,0-0.1,0-0.2,0
		c-0.3,0-0.4-0.1-0.4-0.4c0-0.1,0.1-0.2-0.1-0.2c-0.2,0-0.2-0.1-0.3-0.2c-0.1-0.2-0.2-0.4-0.2-0.6c0-0.3-0.2-0.5-0.5-0.5
		c-0.2,0-0.2-0.1-0.2-0.2c0-0.1,0-0.2-0.1-0.1c-0.3,0-0.1-0.2-0.1-0.2c-0.2-0.1,0-0.4-0.1-0.5c-0.1-0.1-0.2-0.3-0.3-0.4
		c-0.2-0.2-0.2-0.4-0.1-0.5c0.1-0.2,0.1-0.3,0-0.3c-0.3-0.1-0.2-0.5-0.5-0.6c0,0-0.1-0.1-0.1-0.1c0-0.1,0-0.2,0-0.2
		c0-0.1-0.3-0.1-0.2-0.3c0.1-0.1,0-0.3,0.1-0.4c0.1-0.2,0-0.3-0.3-0.5c-0.1-0.1-0.2-0.1-0.3-0.2c-0.1-0.1,0.1-0.2,0.1-0.3
		c0-0.2,0.2-0.3,0.1-0.5c0.2-0.1,0.1-0.2,0-0.2c-0.3-0.1-0.3-0.3-0.2-0.4c0.1-0.2,0.1-0.3-0.1-0.4c-0.2-0.1-0.1-0.2-0.1-0.4
		c0-0.2,0.1-0.4-0.1-0.6c-0.1-0.1,0-0.2,0.1-0.4c0.1-0.2,0.2-0.4,0.1-0.6c0-0.1,0-0.2-0.2-0.2c-0.2,0-0.2-0.2-0.1-0.3
		c0,0,0-0.2,0-0.2c-0.1-0.5-0.1-0.6,0-1.2C12.4,90.9,12.2,90.9,12.1,90.7z"/>
	<path d="M131,77.9c0.3,0.3,0.3,0.6,0.1,0.8c-0.1,0.1-0.1,0.1-0.1,0.3c0,0.2-0.1,0.2-0.2,0.1c-0.1-0.1-0.2-0.1-0.3,0
		c-0.1,0.2-0.4,0.2-0.6,0.3c-0.2,0.1-0.3,0.3-0.6,0.3c-0.1,0-0.2,0.1-0.3,0c-0.2,0-0.4,0-0.6,0.2c-0.1,0.1-0.2,0.2-0.4,0.1
		c-0.3-0.1-0.5,0.2-0.8,0.1c-0.1,0-0.1,0-0.1,0.1c-0.1,0.2-0.3,0.2-0.4,0.2c-0.3,0-0.6,0-0.8,0.1c-0.2,0.1-0.3,0-0.4,0
		c-0.3,0.1-0.7-0.1-1,0.2c-0.1,0.1-0.2,0-0.3,0c-0.2-0.1-0.3-0.1-0.6-0.1c-0.1,0-0.2,0.1-0.3,0c-0.1-0.1-0.2-0.1-0.3,0.1
		c0,0-0.1,0.1-0.1,0c-0.1-0.1-0.2-0.1-0.3,0c-0.1,0.1-0.2-0.1-0.2-0.1c-0.2-0.1-0.4-0.2-0.6-0.2c-0.3,0-0.4,0-0.5-0.4
		c0-0.2-0.2-0.3-0.4-0.4c-0.1-0.2-0.1-0.2,0.1-0.3c0.2-0.1,0.2-0.1,0.1-0.3c-0.1-0.1-0.3-0.2-0.4-0.4c-0.1-0.2,0.1-0.2,0.1-0.4
		c-0.1-0.6,0.3-1,0.8-1.3c0.2-0.1,0.3-0.2,0.4-0.3c0.1-0.2,0.4-0.4,0.7-0.2c0.1,0.1,0.1-0.1,0.2-0.1c0.1-0.1,0.2-0.1,0.4-0.1
		c0.1,0,0.2,0.3,0.3,0.2c0.1,0,0.2,0,0.3,0c0.5,0.1,1,0.1,1.4-0.2c0.1-0.1,0.3-0.1,0.1-0.3c-0.1-0.1,0.2-0.2,0.1-0.3
		c0-0.1-0.2-0.2-0.2-0.3c0,0,0-0.1,0-0.1c0.1-0.3-0.1-0.5-0.2-0.7c-0.2-0.4-0.5-0.7-0.5-1.2c0,0,0-0.1,0-0.1
		c-0.4-0.1-0.3-0.4-0.3-0.6c0,0,0-0.1,0-0.1c-0.3,0-0.2-0.4-0.4-0.4c-0.1,0-0.1-0.1-0.1-0.2c0-0.2-0.1-0.3-0.2-0.1
		c-0.1,0.1-0.3,0-0.3,0.2c0,0.1-0.2,0.2-0.3,0.3c-0.1,0.1-0.3,0.1-0.3,0.4c0,0.1-0.2,0.2-0.3,0.3c0.1,0.3-0.2,0.3-0.2,0.4
		c0,0.2-0.3,0.2-0.2,0.5c0,0.1-0.1,0.1-0.2,0.1c-0.1,0-0.2,0-0.2,0.2c0,0.1,0.1,0.3,0,0.4c-0.3,0.2-0.1,0.5-0.4,0.6
		c-0.1,0-0.2,0.1-0.2,0.2c0,0.1,0,0.4-0.1,0.5c-0.1,0.1-0.2,0.1-0.2,0.3c-0.1,0.1-0.1,0.2-0.1,0.3c0,0.3,0,0.6-0.3,0.8
		c0,0-0.1,0.1-0.1,0.1c0.1,0.3-0.2,0.4-0.2,0.6c-0.1,0.2-0.1,0.4-0.2,0.6c0,0-0.1,0.1-0.1,0.1c0,0.2,0.1,0.3,0.1,0.5
		c0,0.1-0.2,0.2,0,0.4c0,0,0,0.1,0,0.2c-0.3,0.1-0.2,0.3-0.1,0.5c0.2,0.3-0.2,0.6-0.1,0.9c0.1,0.3,0.1,0.5,0,0.8
		c0,0.1-0.1,0.2,0,0.3c0.1,0.1,0.2,0.1,0.3,0c0.1-0.1,0.2-0.1,0.2,0c0.1,0.2,0.4,0.2,0.6,0.2c0.3,0,0.3,0,0.6,0.3
		c0.2,0.2,0.5,0.1,0.7,0c0.2-0.1,0.2-0.1,0.3,0.1c0,0.1,0.1,0.2,0.3,0.2c0.1,0,0.2,0.1,0.2,0.1c0.1,0.4,0.2,0.2,0.4,0.1
		c0.2-0.1,0.3-0.1,0.4,0.1c0.1,0.3,0.4,0.2,0.6,0.3c0.3-0.2,0.4,0.2,0.6,0.2c0,0.3,0.4,0.2,0.5,0.4c0,0,0.1,0,0.2,0
		c0.3-0.2,0.4-0.1,0.7,0.1c0.2,0.2,0.5,0.3,0.8,0.5c0.2,0.1,0.3,0.4,0.6,0.5c0.3,0.1,0.2,0.4,0.5,0.4c0,0.1,0,0.1,0,0.2
		c-0.1,0.1-0.1,0-0.1,0c-0.1,0-0.1,0.1-0.2,0.1c-0.1,0.1,0,0.1,0,0.1c0.1,0.1,0.2,0.2,0.2,0.4c0,0,0,0.2,0,0.2
		c-0.4,0.1-0.1,0.4-0.2,0.6c0,0.1,0,0.1,0.1,0.1c0.2,0,0.2,0.1,0.2,0.2c0,0.2-0.1,0.3-0.2,0.4c-0.1,0.1-0.1,0.1-0.1,0.2
		c0.1,0.1,0.1-0.1,0.2-0.1c0.1,0,0.2,0,0.2,0.1c0,0.2,0,0.5-0.1,0.7c-0.1,0.1-0.1,0.2-0.3,0.2c-0.3-0.1-0.4,0.1-0.5,0.3
		c-0.1,0.2-0.4,0.2-0.5,0.5c-0.1,0.1-0.3,0.1-0.4,0.1c-0.1,0-0.2,0-0.2,0.2c0,0.2-0.1,0.5-0.4,0.4c-0.1,0-0.1,0.1-0.2,0.2
		c-0.1,0.2-0.1,0.4-0.4,0.2c-0.1,0-0.2,0.1-0.2,0.3c0,0.1,0,0.2-0.2,0.2c-0.2,0-0.3,0-0.3,0.2c0,0-0.1,0.1-0.1,0.1
		c-0.5,0.1-0.6,0.6-1,0.8c-0.1,0.1-0.1,0.2-0.1,0.3c0,0.2,0.1,0.1,0.2,0.1c0.3,0.1,0.4,0.3,0.4,0.6c0,0.3,0,0.5,0.3,0.7
		c0.1,0.1,0.4,0.3,0.1,0.6c0,0,0,0.1,0,0.2c0.3,0,0.2,0.3,0.2,0.4c-0.2,0.3-0.1,0.6,0,0.8c0.1,0.2,0,0.4,0.1,0.5
		c0.1,0.2,0.1,0.3,0,0.5c0,0,0,0.1,0,0.1c-0.1,0.1,0.2,0.2,0.1,0.4c-0.1,0.1-0.2,0.2-0.2,0.3c0,0.1-0.1,0.1,0,0.3
		c0.1,0.1,0,0.3,0.1,0.4c0.1,0.1-0.2,0.2-0.3,0.3c-0.1,0.2,0,0.4-0.2,0.6c-0.1,0.2,0.3,0.4,0,0.6c-0.2,0.1,0,0.4-0.2,0.6
		c0,0,0,0.1,0,0.2c0,0.2,0,0.3-0.2,0.4c-0.1,0-0.1,0.1-0.1,0.2c0,0.4,0,0.4-0.1,0.5c-0.1,0.1-0.1,0.2-0.1,0.3c0,0.1,0,0.1-0.1,0.1
		l-0.4,0.6c-0.1,0.1,0,0.4-0.3,0.5c-0.1,0.1-0.1,0.2-0.1,0.3c0,0.2,0,0.3,0,0.5c0,0.1-0.1,0.2-0.2,0.2c-0.2,0.1-0.4,0.3-0.3,0.6
		c0.1,0.3-0.2,0.5-0.3,0.7c-0.1,0.1-0.2,0.2-0.2,0.4c0,0.2-0.1,0.3-0.3,0.4c-0.1,0.1-0.1,0.4-0.3,0.4c0.2,0.2-0.2,0.3-0.1,0.5
		c0.1,0.3-0.2,0.5-0.4,0.6c-0.1,0.1-0.2,0.2-0.2,0.4c0,0.1,0,0.1,0,0.2c0,0.2-0.4,0.1-0.3,0.3c0,0.2-0.1,0.3-0.2,0.5
		c-0.1,0.1-0.1,0.3-0.3,0.2c0,0,0,0-0.1,0c-0.3-0.1-0.2,0.5-0.5,0.3c-0.3-0.2-0.4,0-0.6,0.1c-0.2,0.1-0.2,0.1-0.3-0.1
		c0-0.1-0.1-0.1-0.1-0.1c-0.2,0-0.2-0.1-0.2-0.2c0-0.1,0-0.2,0-0.2c-0.1,0-0.1-0.2-0.2-0.1c-0.1,0.1-0.2,0.2-0.3,0.1
		c-0.1,0-0.2-0.2-0.3-0.2c0,0,0-0.1,0-0.2c-0.1-0.1-0.2,0.2-0.3,0c-0.1-0.1,0-0.2-0.1-0.3c0,0-0.1,0-0.2,0c-0.1,0.2-0.2-0.1-0.3-0.1
		c-0.2,0.1-0.2-0.1-0.1-0.2c0-0.1-0.1-0.1-0.1-0.1c0-0.2-0.3-0.3-0.3-0.5c0-0.2,0-0.4-0.1-0.6c-0.1-0.2-0.1-0.4,0.2-0.5
		c0.1,0,0.2-0.1,0.2-0.2c0-0.3,0.2-0.5,0.3-0.7c0.1-0.2,0.1-0.5,0.4-0.6c0,0,0-0.1,0-0.2c0-0.2,0.1-0.4,0.2-0.5
		c0.2-0.2,0.2-0.4,0.3-0.5c0.1-0.2-0.1-0.5,0.1-0.6c0.2-0.2,0.2-0.4,0.2-0.6c0-0.2,0.1-0.3,0.2-0.3c0.2,0,0.3-0.2,0.4-0.3
		c0.1,0,0-0.1,0-0.2c-0.1-0.4,0-0.5,0.2-0.8c0.1-0.2,0.2-0.4,0.3-0.6c0.1-0.2,0.1-0.3,0.2-0.4c0.1-0.1,0.2-0.2,0.1-0.3
		c0-0.1,0-0.2,0-0.3c0-0.3,0.1-0.5,0.3-0.7c0.1-0.1,0.3-0.2,0.1-0.4c-0.1-0.1,0.1-0.2,0.1-0.2c0.3-0.2,0.3-0.6,0.4-0.8
		c0.1-0.2-0.2-0.4-0.1-0.5c0.1-0.2,0.2-0.4,0.1-0.5c-0.1-0.2-0.1-0.4-0.1-0.6c0-0.1,0-0.1,0-0.2c-0.1-0.5-0.4-0.6-0.7-0.3
		c-0.2,0.2-0.4,0.2-0.5,0.4c0,0.1-0.1,0.1-0.2,0.1c-0.2,0-0.4-0.1-0.3,0.3l-0.6,0.5c-0.2,0,0,0.3-0.3,0.2c-0.1,0-0.2,0-0.3,0
		c-0.1,0.1-0.3,0.1-0.3,0.3c0,0.1-0.1,0.2-0.2,0.2c-0.3,0.1-0.5,0.1-0.6,0.4c0,0.1-0.1,0.1-0.2,0.1c-0.3,0-0.5,0-0.7,0.3
		c-0.2,0.2-0.5,0.3-0.8,0.1c0,0,0,0-0.1,0l-1-0.8c-0.1-0.1-0.1-0.1,0-0.3c0.1-0.1-0.1-0.3-0.2-0.3c-0.3,0-0.2-0.3-0.2-0.3
		c0.1-0.1,0.1-0.3,0.1-0.4c0.1-0.1,0.2-0.3-0.1-0.4c-0.3-0.1-0.3-0.4-0.4-0.7c0-0.1,0.1-0.1,0.1-0.2c0.1-0.1,0-0.2-0.1-0.2
		c-0.1,0-0.1-0.1-0.1-0.2c0.1-0.3,0.2-0.5,0.3-0.8c0-0.1,0.1-0.1,0.2-0.1c0.2-0.1,0.5-0.1,0.5-0.4c0-0.1,0.1-0.1,0.2-0.1
		c0.2,0,0.3-0.1,0.5-0.1c0.2,0,0.2-0.2,0.3-0.2c0.2-0.2,0.1-0.5,0.4-0.6c0-0.3,0.2-0.4,0.4-0.4c0.2,0,0.4-0.3,0.6-0.2
		c0.2,0.1,0.2,0,0.3,0c0.3-0.1,0.3-0.3,0.4-0.5c0.1-0.2,0.1-0.3,0.4-0.4c0.2,0,0.2-0.1,0.2-0.4c0-0.3-0.3-0.3-0.3-0.7
		c0-0.2-0.3-0.4-0.3-0.6c0-0.1-0.1-0.2-0.2-0.2c-0.4-0.2-0.5-0.6-0.6-0.9c-0.1-0.4-0.4-0.6-0.4-1c-0.3-0.2-0.4-0.5-0.7-0.7
		c0,0-0.1,0-0.1-0.1c0.1-0.3-0.1-0.2-0.3-0.3c-0.1,0-0.2,0.2-0.3,0.1c-0.1-0.1-0.2,0-0.3,0c-0.1,0-0.1,0-0.2-0.1
		c-0.3-0.3-0.7-0.4-1.1-0.2c-0.1,0.1-0.3,0.1-0.4-0.1c-0.2-0.3-0.6-0.3-1-0.4c-0.2,0-0.3,0-0.6,0c0.3-0.3,0.2-0.6,0-0.9
		c-0.2-0.3-0.2-0.7-0.4-1c0-0.1,0-0.2,0-0.3c0,0,0.1,0,0-0.1c-0.2-0.2-0.1-0.5-0.2-0.7c-0.1-0.3-0.2-0.6-0.2-1c0,0,0-0.1-0.1-0.1
		c-0.3-0.3-0.3-0.6,0-0.9c0.1-0.1,0.1-0.2,0.1-0.2c-0.2-0.1,0-0.3-0.1-0.5c0-0.1-0.1-0.1,0-0.2c0.2-0.1,0.2-0.3,0.2-0.5
		c0-0.2,0-0.3,0.2-0.3c0,0,0.2-0.2,0.1-0.4c0-0.1-0.2-0.3,0.2-0.4c0.1,0,0-0.3,0.1-0.4c0.3-0.4,0.2-0.8,0.4-1.2c0,0,0-0.1,0-0.1
		c0-0.2,0-0.4,0.2-0.6c0.1-0.1,0.1-0.4,0.3-0.5c0.1,0,0.1-0.1,0-0.2c-0.2-0.1-0.1-0.2,0-0.3c0.1-0.1,0.1-0.1,0.2-0.2
		c0.1-0.1,0.2-0.2,0.1-0.3c0-0.1,0-0.2,0-0.2c0.3,0,0.2-0.2,0.2-0.4c0-0.2,0.1-0.3,0.2-0.3c0.2,0,0.2-0.2,0.2-0.3
		c0.1-0.1,0.1-0.1,0-0.2c-0.1-0.1-0.1,0.1-0.2,0.1c-0.2,0.2-0.2-0.1-0.3-0.1c-0.2,0.3-0.4,0.6-0.8,0.8c-0.1,0.1-0.4,0.1-0.3,0.3
		c-0.2,0.1-0.4,0.2-0.6,0.2c-0.2,0-0.4,0.1-0.5,0.3c-0.2,0.3-0.3,0.6-0.8,0.6c0,0-0.1,0-0.1,0.1c0,0.4-0.4,0.3-0.6,0.5
		c0,0.1-0.1,0.1-0.2,0.1c0,0-0.3,0.3-0.4,0.3c-0.1,0.1,0,0.3-0.3,0.3c-0.1,0-0.1,0-0.1,0.1c-0.1,0.2-0.3,0.3-0.5,0.4
		c-0.1,0.1-0.5,0-0.4,0.4c0,0-0.1,0.1-0.1,0.1c-0.2,0.1-0.3,0.3-0.5,0.4c-0.1,0-0.1,0.1-0.2,0.2c0,0.6-0.5,0.9-0.9,1.3
		c0,0-0.1,0-0.1,0c-0.3,0.1-0.5,0.2-0.6,0.6c0,0.2-0.2,0.2-0.2,0.3c-0.1,0.1-0.2,0.1-0.4,0c-0.2-0.2-0.4-0.3-0.7-0.3
		c-0.1,0,0-0.1,0-0.1c0-0.1-0.1-0.2-0.2-0.3c-0.1-0.1-0.3-0.2-0.4-0.1c-0.1,0.1-0.1,0.2-0.2,0.2c-0.1,0-0.3,0.1-0.3-0.1
		c-0.1-0.3-0.4-0.5-0.4-0.9c0,0-0.1-0.1-0.1,0c-0.2,0.2-0.4-0.1-0.6-0.1c-0.1,0-0.3-0.2-0.3-0.4c0-0.2-0.1-0.3-0.2-0.4
		c-0.2-0.1-0.2-0.4-0.1-0.5c0.1-0.1,0.1-0.2,0-0.3c-0.1-0.1-0.1-0.3,0.2-0.3c0,0,0.1-0.1,0.1-0.1c0.2-0.1-0.1-0.6,0.4-0.5
		c0.2-0.2,0.2-0.4,0.2-0.6c0-0.1,0-0.1,0.1-0.1c0.1,0,0.3-0.2,0.3-0.2c0-0.3,0.4-0.3,0.3-0.7c0-0.1,0.1-0.1,0.2-0.1
		c0.2,0,0.3,0,0.3-0.2c0-0.2,0.1-0.5,0.4-0.6c0.1-0.1,0.2,0,0.3,0c0,0,0.1,0,0.2,0c0.1-0.1,0.1-0.2,0.2-0.3c0.1,0.1,0.1,0.1,0.3,0
		c0.2-0.1,0.2-0.4,0.3-0.5c0.2-0.1,0.3-0.1,0.3-0.3c0.4,0,0.3-0.4,0.5-0.6c0-0.1,0-0.2,0.1-0.2c0.3,0,0.4-0.2,0.5-0.3
		c0.1-0.1,0.1-0.1,0.2,0c0.1,0.2,0.3,0.1,0.3-0.1c0.1-0.1,0.2-0.3,0.3-0.4c0.1-0.1,0.2-0.4,0.3-0.4c0.1,0,0.3,0.1,0.5,0.1
		c0.2,0,0.6-0.3,0.6-0.6c0-0.2,0-0.2,0.2-0.3c0.2-0.1,0.5-0.2,0.7-0.3c0.1,0,0.2-0.1,0.3-0.1c0.2-0.1,0.1-0.3,0.3-0.4
		c0.1,0,0.3,0,0.4-0.1c0.1-0.1,0.3-0.1,0.4-0.2c0.1-0.2,0.3-0.2,0.5-0.2c0.2,0,0.4-0.1,0.4-0.3c0-0.2,0.1-0.3,0.2-0.3
		c0.2,0,0.4,0.1,0.4-0.2c0,0,0.2,0,0.3,0c0.4,0.1,0.6-0.2,0.8-0.4l0.6-0.4c0.1,0,0.1,0,0.2,0.1c0.1,0.1,0.1,0.2,0.2,0.1
		c0.1-0.1,0.3-0.1,0.3-0.2c0.1-0.1,0.1-0.3,0.2-0.3c0.1-0.1,0.1-0.1,0.3-0.1c0.3,0.1,0.6,0,0.8-0.3c0.1-0.1,0.2-0.2,0.4-0.2
		c0.2,0.1,0.3-0.1,0.4-0.3c0.1-0.2,0.3,0.1,0.3-0.1c0.2,0.1,0.2-0.2,0.4-0.1c0.2,0.1,0.5-0.3,0.7,0c0.1-0.1,0.2-0.1,0.2-0.2
		c0-0.3,0.1-0.1,0.2,0c0.1,0.1,0.2-0.2,0.3,0c0.1,0.1,0.2-0.1,0.3-0.2c0.3-0.2,0.7-0.3,1-0.6c0.1-0.1,0.3-0.1,0.4,0
		c0,0,0,0.1,0.1,0.1c0.2-0.1,0.4-0.2,0.6-0.2c0.2,0,0.3,0.3,0.4,0.4c0.1,0.1,0.1,0.1,0.2,0c0,0,0.1-0.1,0.1-0.1c0.1,0,0.3,0,0.4,0.1
		c0.1-0.1,0.2-0.2,0.3-0.3c0.1-0.1,0.1,0,0.1,0c0.1,0.1,0.2,0.1,0.3,0.2c0.1,0.2,0.3,0.3,0.5,0.1c0.1-0.1,0.3-0.1,0.3,0.2
		c0,0.1,0.1,0.2,0.1,0.3c0,0.1,0.1,0,0.1,0c0.3-0.1,0.5-0.1,0.7,0.2c0.2,0.2,0.4,0.2,0.6,0.3c0.3,0.1,0.6,0.1,0.8,0.4
		c0.1,0.2,0.3,0.3,0.5,0.4c0.1,0.1,0.3,0.2,0.3,0.4c0,0.1,0.1,0.1,0.1,0.2c0.2,0.2,0.4,0.3,0.4,0.6c0,0.1,0.1,0.1,0.2,0.2
		c0.2,0.1,0.3,0.3,0.4,0.4c0.1,0.1,0.1,0.4,0.2,0.5c0.2,0.2,0.2,0.5,0.5,0.6c0.1,0,0.1,0.1,0.1,0.2c0,0.2,0,0.4,0.3,0.4
		c0.1,0,0.1,0.1,0.1,0.1c0.1,0.3,0.1,0.5,0.4,0.6c0.1,0,0,0.1,0.1,0.2c0.1,0.3,0.1,0.6,0.4,0.8c0.1,0.1,0,0.1,0,0.2
		c0,0.1,0,0.2,0.1,0.2c0.3-0.1,0.3,0.2,0.3,0.3c0,0.2,0.4,0.2,0.3,0.5c0,0.2,0.3,0.2,0.2,0.4c0,0.2,0,0.3,0.2,0.5
		c0.1,0.1,0.1,0.1,0,0.2c0,0.1,0,0.2,0.2,0.3c0.1,0,0.1,0.1,0.1,0.3c-0.1,0.2-0.1,0.5,0.3,0.5c0.1,0,0.3,0.1,0.1,0.3
		c0,0,0,0.1,0,0.2c0.2,0.1,0.2,0.3,0.2,0.5c0,0.1,0.1,0.1,0.2,0.2c0.2,0,0.2,0.2,0.3,0.4c0.1,0.1,0,0.1,0,0.1
		c-0.2,0.1-0.1,0.2,0,0.3c0.1,0.1,0,0.4,0.2,0.5c0.2,0.1,0.3,0.3,0.3,0.4C131.3,77.7,131.1,77.8,131,77.9z"/>
	<path d="M146.2,79.5c-0.1,0.2-0.5,0.5-0.6,0.7c-0.1,0.1-0.3,0-0.4,0.2c-0.1,0.1-0.2,0.2-0.4,0.2c-0.1,0-0.1,0.1-0.1,0.1
		c-0.1,0.2-0.5,0.4-0.7,0.5c-0.6,0.2-0.6,0.2-0.8,0.9c0,0.1-0.1,0.1-0.2,0.1c-0.2-0.2-0.3,0-0.3,0.1c-0.2,0.4-0.2,0.5-0.6,0.6
		c-0.2,0.1-0.4,0.3-0.5,0.5c-0.1,0.2-0.1,0.5-0.5,0.5c-0.1,0-0.1,0.1-0.1,0.2c0,0.1-0.1,0.2-0.2,0.2c-0.1,0-0.2,0-0.2,0
		c0,0.5-0.5,0.3-0.6,0.6c0,0.1-0.1,0.1-0.2,0.1c-0.3-0.1-0.4,0.2-0.6,0.3c-0.1,0.1-0.1,0.4-0.4,0.4c0,0,0,0.1,0,0.1
		c-0.1,0.7-0.1,0.7-0.6,1.2c0,0-0.1,0.1-0.1,0.1c-0.2,0.1,0,0.5-0.3,0.5c-0.1,0.2-0.1,0.4-0.3,0.5c-0.1,0,0,0.1,0,0.1
		c0,0.4,0,0.5-0.3,0.9c-0.1,0.2-0.2,0.3-0.4,0.5c0,0,0,0,0,0.1c0.2,0.2,0,0.2-0.1,0.3c-0.2,0.2-0.3,0.5-0.2,0.7c0,0,0.1,0.1,0.1,0.1
		c-0.1,0.1-0.1,0.3-0.1,0.4c0,0.1,0.2,0.2,0,0.3c-0.1,0,0,0.1,0.1,0.2c0.1,0.1,0.1,0.2,0,0.3c-0.2,0.2-0.2,0.4-0.2,0.6
		c0,0-0.1,0.1-0.1,0.1c-0.3,0-0.6,0.2-0.9,0.1c-0.1,0-0.2-0.1-0.2,0.1c-0.1,0.3-0.1,0.3-0.3,0.1c0,0-0.1-0.1-0.1-0.1
		c-0.2,0.1-0.2,0.3-0.3,0.4c-0.1,0.1-0.2,0.1-0.2-0.1c0-0.2-0.1-0.1-0.2-0.1c-0.1,0-0.1,0-0.1-0.1c0-0.1-0.1-0.2-0.1,0
		c-0.1,0.2-0.1,0.2-0.3,0.1c-0.1-0.1-0.2-0.2-0.3-0.3c-0.2,0-0.2,0.2-0.3,0.3c-0.2-0.1-0.3-0.4-0.5-0.1c0,0-0.2,0-0.1,0
		c0-0.3-0.2-0.1-0.3-0.3c0-0.1-0.1-0.1-0.2-0.2c0-0.3-0.4-0.4-0.5-0.7c-0.1-0.2,0-0.3,0.1-0.5c0.1-0.1,0.3-0.4,0-0.6
		c-0.1-0.1,0-0.1,0-0.2c0.1-0.2,0.1-0.3,0-0.5c-0.2-0.3-0.1-0.6,0.1-0.8c0.1-0.1,0.1-0.3,0.1-0.4c0.1-0.2,0-0.4,0-0.6
		c0-0.1,0.3-0.2,0.3-0.5c0,0,0.1-0.1,0.1-0.1c-0.2-0.3-0.1-0.5,0.2-0.5c0.1,0,0-0.1,0-0.2c0-0.3-0.1-0.6,0.3-0.8
		c0.1-0.1,0.2-0.3,0.1-0.5c0-0.2,0.2-0.4,0.1-0.7c0-0.1,0.1-0.2,0.3-0.3c0.1-0.1,0.3-0.1,0.1-0.4c-0.1-0.2,0-0.3,0.2-0.4
		c0.1,0,0.2,0,0.2-0.1c0-0.2,0-0.3,0-0.5c0.1-0.1,0.2-0.1,0.2-0.3c0-0.2,0.1-0.1,0.2-0.1c0.3-0.1,0.4-0.2,0.2-0.4
		c-0.1-0.2,0-0.2,0.1-0.3c0.2-0.1,0.3-0.1,0.3-0.4c0-0.2,0.3-0.3,0.2-0.6c0.2,0,0.3-0.2,0.4-0.3c0.2-0.1,0.3-0.2,0.3-0.4
		c0-0.1,0-0.1,0.1-0.1c0.4,0.1,0.4-0.3,0.5-0.5c0,0,0-0.2,0.1-0.1c0.4,0.1,0.4-0.1,0.4-0.4c0-0.1,0-0.3,0.3-0.4
		c0.2,0,0.1-0.3,0.3-0.3c0.2,0,0.3-0.1,0.3-0.2c0.1,0.1,0.2,0.2,0.2,0c0-0.2,0.1-0.4,0.3-0.3c0-0.2,0.3,0,0.3-0.3
		c0-0.1,0.2-0.1,0.3-0.1c0.2,0,0.4-0.1,0.5-0.2c0.1,0,0.2-0.1,0.1-0.3c-0.1-0.2,0.2-0.5,0.4-0.4c0.2,0.1,0.3-0.1,0.3-0.1
		c0-0.4,0.3-0.4,0.6-0.5c0.1,0,0.2,0,0.3-0.1c0.3-0.1,0.5-0.2,0.6-0.5c0.1-0.3,0.4-0.5,0.6-0.4c0.5,0,0.8-0.3,1.1-0.6
		c0.1-0.1,0.1-0.2,0-0.3c-0.1-0.3,0.1-0.4,0.1-0.7c0-0.2,0.4-0.1,0.2-0.4c-0.1-0.1,0-0.3,0-0.5c0-0.3,0.2-0.5,0.4-0.8
		c0.1-0.1,0-0.2,0-0.3c0-0.3-0.2-0.7,0.2-0.9c0-0.3,0.2-0.5,0.1-0.8c0-0.2,0.2-0.4-0.1-0.5c-0.1,0-0.1-0.2,0-0.2
		c0.2-0.5-0.1-0.9-0.1-1.4c0-0.2-0.3-0.2-0.2-0.5c0-0.2,0-0.4,0-0.7c0,0,0,0,0-0.1c-0.1,0-0.1,0.1-0.2,0.1c-0.2,0-0.3,0-0.3,0.3
		c0,0.1,0,0.2,0,0.2c-0.3,0.2-0.1,0.7-0.5,0.8c-0.1,0-0.2,0.2-0.3,0.1c-0.1,0-0.1,0-0.1,0.1c0,0.3-0.3,0.4-0.5,0.6
		c-0.2,0.1-0.4,0.2-0.3,0.5c-0.2,0.1,0,0.4-0.3,0.4c-0.1,0-0.1,0.1-0.1,0.2c0,0.1,0,0.1-0.1,0.2c-0.1,0-0.3,0.2-0.5,0.3
		c-0.1,0.1-0.2,0.2-0.4,0.3c-0.1,0.1-0.2,0.2-0.4,0.2c-0.1,0-0.1,0.2-0.2,0.3c-0.1,0.1-0.1,0.3-0.3,0.3c-0.1,0-0.2,0.1-0.3,0
		c-0.1-0.1-0.1,0-0.2,0.1c-0.3,0.3-0.6,0.5-0.9,0.7c-0.2,0.1-0.4,0.2-0.6,0.3c-0.2,0.1-0.4,0.1-0.3,0.3c0,0-0.1,0.2-0.2,0.2
		c-0.2,0-0.3,0.2-0.4,0.2c-0.2,0-0.3,0.1-0.5,0.2c-0.1,0.1-0.2,0.1-0.2,0.3c0,0.1-0.1,0.1-0.2,0.1c-0.3,0-0.7,0-1,0.1
		c-0.1,0-0.3,0.1-0.4-0.1c-0.3-0.3-0.7-0.4-1-0.5c-0.1,0-0.2-0.1-0.3-0.1c-0.1,0-0.2-0.2-0.2-0.2c0.1-0.3-0.3-0.5,0-0.8
		c0.1-0.1-0.1-0.2-0.1-0.3c-0.1-0.2-0.3-0.4-0.2-0.7c0-0.1-0.1-0.1-0.1-0.2c0-0.1-0.1-0.3,0-0.4c0.1-0.1,0.3-0.2,0.1-0.3
		c-0.1-0.1,0.1-0.2,0-0.3c-0.2-0.2,0-0.3,0.1-0.3c0.4,0,0.5-0.3,0.5-0.6c0-0.2,0.1-0.3,0.2-0.3c0.2,0,0.2-0.1,0.4-0.2
		c0.2-0.1,0.3-0.2,0.5-0.4c0.1-0.1,0.4-0.2,0.6-0.3c0.2-0.1,0.6-0.4,0.7-0.5c0.2-0.2,0.3-0.4,0.6-0.2c0.1,0.1,0.2,0.1,0.2-0.1
		c0.1-0.2,0.1-0.4,0.3-0.4c0.1,0,0.1-0.1,0.1-0.2c0-0.2,0.1-0.2,0.2-0.3c0.2-0.1,0.1-0.4,0.5-0.3c0.1,0,0.1-0.1,0.1-0.2
		c0-0.2,0-0.3,0.2-0.3c0.1,0,0.2,0,0.3-0.1c0.1-0.1,0.2-0.3,0.3-0.4c0.1-0.1,0.2-0.1,0.3-0.2c0,0,0.1-0.1,0.1-0.1
		c-0.1-0.3,0.2-0.5,0.2-0.8c0-0.1,0-0.2,0.2-0.2c0,0,0.1,0,0.1-0.1c0-0.2,0-0.4,0.2-0.5c-0.1-0.2,0.1-0.4,0.1-0.7
		c0-0.3,0.1-0.6,0.2-0.8c0.1-0.2,0.1-0.5,0.4-0.6c0.1-0.1,0.2-0.4,0.2-0.6c0-0.2,0-0.3,0-0.5c0.1-0.1,0-0.3,0.1-0.4
		c0.4-0.5,0.4-0.5,0.3-1.1c0-0.1-0.2-0.2,0-0.3c0.2-0.1,0.3-0.4,0.2-0.6c0-0.2,0.1-0.4,0-0.6c0-0.1-0.2-0.2-0.1-0.3
		c0.1-0.1,0.1-0.2,0.3-0.3c0.3-0.1,0.5-0.3,0.4-0.6c0-0.1,0-0.1,0.1-0.1c0.3-0.1,0.7-0.2,1-0.4c0.1-0.1,0.3-0.1,0.5,0
		c0.1,0.1,0.2,0,0.2-0.1c0-0.3,0.1-0.4,0.4-0.5c0.1,0,0.2-0.2,0.4-0.2c0.3-0.2,0.6-0.3,0.9-0.3c0.2,0,0.3,0,0.5-0.1
		c0.3-0.1,0.7-0.2,1.1-0.1c-0.1,0.5,0.1,0.8,0.5,1c0.1,0,0.2,0.2,0.3,0.3c0.1,0.1,0.2,0.1,0.4,0.1c0.1,0,0.4-0.1,0.5,0.1
		c0.1,0.1,0.1,0,0.2,0c0.3-0.1,0.6-0.1,0.8,0.2c0.1,0.1,0.2,0.2,0.3,0.1c0.3-0.1,0.6,0.1,0.8,0.3c0.1,0.2,0.2,0.1,0.3,0
		c0.1,0,0.1,0,0.2,0c0.4,0.1,0.8,0.3,1.2,0.5c0.2,0.1,0.3,0.3,0.6,0.3c0.1,0,0.1,0.1,0.2,0.1c0,0,0.1,0.1,0.1,0.1
		c0.4-0.3,0.5,0.1,0.7,0.2c0.3,0.2,0.6,0.2,0.8,0.5c0.1,0.1,0.2,0,0.3,0c0.2,0,0.3,0,0.3,0.2c0,0.2,0.2,0.1,0.3,0.1
		c0.2-0.2,0.3,0,0.5,0.1c0.1,0.1,0.2,0.3,0.3,0.4c0.1,0.3,0.2,0.2,0.4,0.2c0.1,0,0.3-0.2,0.4,0.1c0.1,0.1,0.3,0,0.3,0.3
		c0,0.2,0.3,0.2,0.4,0.3c0.1,0.1,0.2,0.1,0.3,0.2c0.1,0.2,0.2,0.3,0.4,0.3c0.2,0.1,0.4,0.2,0.5,0.5c0,0.1,0.1,0.3,0.1,0.4
		c0.1,0.1,0.2,0.3,0.4,0.2c0.3,0.3,0.8,0.4,1,0.8c0.1,0.1,0.1,0.2,0.2,0.2c0.1,0,0.1,0.1,0.1,0.2c0,0.2,0.2,0.4,0.4,0.4
		c0.3,0,0.3,0.2,0.3,0.4c0,0.2,0.2,0.4,0.3,0.5c0,0.1,0.1,0.1,0.2,0.2c0.3,0.2,0.5,0.3,0.5,0.7c0,0.2,0.1,0.4,0.2,0.6
		c0.1,0.1,0.2,0.1,0.1,0.2c-0.1,0.3,0.1,0.4,0.3,0.5c0.1,0.1,0.2,0.1,0.3,0.2c0,0,0.1,0.1,0.1,0.1c-0.2,0.3-0.1,0.5,0.1,0.7
		c0.1,0.1,0,0.1-0.1,0.1c-0.1,0.1-0.2,0.2-0.1,0.4c0.1,0.1,0.2,0.2,0.1,0.4c-0.4,0.1-0.7,0.3-0.6,0.9c-0.3-0.1-0.5-0.2-0.7-0.4
		c0,0.2-0.1,0.3-0.2,0.5c-0.1,0.1-0.2,0-0.3,0c-0.1,0.1-0.1,0.2-0.2,0.3c-0.1,0.1-0.2,0-0.4,0.1c-0.1,0.1-0.2-0.1-0.3-0.1
		c0,0,0,0,0,0c-0.1-0.1-0.3-0.1-0.4,0c-0.1,0,0,0.2-0.1,0.3c-0.3-0.1-0.6-0.4-0.9-0.1c-0.1,0.1-0.3,0-0.3-0.2c0-0.2-0.3-0.4-0.5-0.5
		c-0.2-0.1-0.3-0.2-0.4-0.4c-0.1-0.1-0.1-0.4-0.4-0.4c0-0.4-0.5-0.6-0.6-0.9c-0.1-0.3-0.6-0.3-0.5-0.7c0,0-0.1,0-0.1-0.1
		c-0.1,0-0.2,0-0.2,0c-0.2-0.5-0.7-0.6-1-0.9c-0.1-0.1-0.1-0.1-0.1-0.3c0-0.1,0.1-0.3-0.1-0.4c-0.1-0.1-0.1-0.4-0.3-0.2
		c-0.1-0.1-0.3,0-0.3-0.2c0-0.1-0.1-0.2-0.1-0.3c0-0.1-0.1-0.2-0.3-0.1c-0.1,0.1-0.3-0.1-0.3-0.2c0-0.3-0.1-0.3-0.3-0.2
		c-0.3,0.1-0.2-0.2-0.3-0.3c-0.2-0.1-0.4,0.1-0.5-0.1c-0.1-0.3-0.2-0.2-0.4-0.2c-0.1,0-0.2,0-0.2-0.1c-0.1-0.4-0.4-0.4-0.7-0.5
		c0,0-0.1-0.1-0.1-0.1c-0.1,0-0.1,0-0.2,0c0,0,0,0.1,0,0.1c0.1,0.1,0.1,0.2,0.2,0.3c0.1,0.1,0,0.2,0,0.2c-0.2,0.1-0.1,0.3,0,0.4
		c0.1,0.2,0.3,0.4,0.5,0.4c0.3,0.1,0.3,0.4,0.4,0.6c0,0.2-0.1,0.5,0.1,0.7c0.2,0.2,0.1,0.4,0.3,0.6c0.1,0.2,0.2,0.4,0.4,0.6
		c0.1,0.1,0.2,0.2,0.1,0.4c0,0.2,0.2,0.5,0,0.7c0,0,0,0.1,0,0.1c0.3,0,0.3,0.3,0.4,0.5c0.1,0.1,0.1,0.2,0,0.2
		c-0.1,0.1-0.1,0.2,0,0.2c0.2,0.1,0.1,0.3,0.2,0.5c0.1,0.2,0,0.3-0.1,0.5c-0.1,0.2,0.2,0.4,0.1,0.7c0,0.1,0.1,0.1,0,0.3
		c-0.1,0.1-0.1,0.3,0,0.3c0.2,0.2,0.1,0.4,0.1,0.6c0,0.2,0.3,0.4,0,0.6c0,0,0,0,0,0c0.3,0.2,0.2,0.5,0.1,0.7c0,0,0.1,0.1,0.1,0.1
		c0,0.1,0,0.2,0,0.2c0.1,0.2-0.3,0.4-0.1,0.6c0.1,0.1,0.2,0.3,0.3,0.5c0.1,0.1,0.1,0.3,0,0.3c-0.3,0.2-0.2,0.5-0.2,0.7
		c0,0.1,0.1,0.3-0.2,0.3c-0.1,0-0.1,0,0,0.1c0.2,0.2,0,0.4,0,0.6c0,0.4-0.4,0.7-0.3,1.1c0,0.1-0.2,0.2-0.4,0.2
		c-0.1,0-0.2,0.1-0.1,0.2c0.1,0.1,0.1,0.2,0.1,0.3c0.1,0.3,0.1,0.4-0.1,0.5c-0.1,0.1-0.2,0.3-0.4,0.3c-0.1,0-0.1,0-0.1,0.1
		c0,0.4-0.2,0.6-0.3,0.9c-0.1,0.2-0.2,0.3-0.1,0.5c0.1,0.1-0.1,0.2-0.1,0.2c-0.2,0.2-0.4,0.4-0.5,0.6c-0.1,0.2-0.1,0.5,0,0.7
		c0.1,0.3,0.1,0.4-0.2,0.5c-0.2,0-0.3,0.1-0.3,0.2c-0.1,0.3-0.4,0.4-0.5,0.6c-0.1,0.2-0.2,0.5-0.4,0.7c-0.1,0.1-0.1,0.2-0.1,0.4
		c0,0,0.1,0.1,0.1,0.1c-0.2,0.1-0.2,0.3-0.1,0.5c0.1,0.2-0.1,0.4-0.2,0.5c-0.1,0.1-0.1,0.2,0,0.3c0,0.2-0.1,0.3-0.2,0.5
		c-0.1,0.1-0.2,0.2-0.3,0.3c0.2,0.3,0,0.6,0.1,0.8c0.2,0.3,0.1,0.6,0.1,0.9c0,0.4,0,0.4,0.1,0.6c0.1,0.2,0.2,0.4,0,0.5
		c-0.2,0.2-0.2,0.3,0,0.4c0.3,0.2,0.3,0.6,0.4,0.8c0,0.1,0,0.2-0.1,0.3c-0.3,0.3,0,0.6,0.1,0.8c0.2,0,0.2,0.1,0.2,0.3
		c0.1,0.2,0,0.6,0.2,0.8c0,0,0,0.1,0,0.1c0.1,0.2-0.2,0.3-0.1,0.5c0.1,0.1,0.3,0.3,0.4,0.4c0.1,0.1,0.1,0.3,0,0.5
		c0,0.2,0,0.4,0.2,0.5c0.2,0.1,0.2,0.3,0.1,0.5c-0.1,0.2,0,0.5,0,0.8c0,0.1-0.1,0.2-0.2,0.2c-0.2,0.1-0.4,0.3-0.7,0.4
		c-0.2,0-0.4,0.2-0.6,0.4c-0.4,0.4-1,0.5-1.4,0.7c-0.2,0.1-0.4-0.2-0.6-0.1c-0.2,0.1-0.4-0.1-0.5-0.3c-0.1-0.1,0-0.4-0.3-0.3
		c0,0-0.1-0.1-0.1-0.1c0-0.1-0.1-0.2-0.1-0.3c-0.1-0.1-0.3-0.2-0.2-0.5c0-0.1,0-0.2-0.1-0.2c-0.2,0-0.2-0.3-0.3-0.3
		c-0.2-0.2-0.3-0.4-0.3-0.7c0-0.3-0.1-0.7-0.3-1c-0.3-0.4-0.3-0.4-0.3-0.7c0-0.1,0-0.2-0.1-0.3c-0.2-0.2-0.3-0.4-0.3-0.7
		c0-0.3,0.1-0.6-0.2-0.8c-0.1,0-0.1-0.2,0-0.3c0-0.2,0.1-0.3-0.1-0.4c-0.1,0-0.1-0.1,0-0.2c0.1-0.2-0.1-0.4-0.1-0.7
		c0-0.2,0-0.4-0.1-0.6c0-0.2-0.1-0.4,0.1-0.6c0.1-0.1,0-0.1,0-0.2c-0.1-0.1-0.1-0.2-0.1-0.3c0.2-0.4,0.2-0.8,0-1.3
		c-0.1-0.2-0.1-0.4,0.1-0.6c0.1-0.1,0.3-0.3,0.1-0.6c-0.1-0.1,0-0.3,0-0.5c0-0.2,0.1-0.3-0.1-0.4c0,0,0-0.1,0-0.1c0,0,0-0.1,0-0.1
		c0.4-0.2,0.1-0.7,0.4-0.9c0.3-0.3,0.3-0.7,0.4-1.1c0-0.1,0-0.2-0.1-0.3c-0.1,0,0-0.1,0-0.2c0-0.1,0-0.1,0-0.2
		c0.3-0.2,0.1-0.7,0.5-0.8c0.1,0,0.2-0.1,0.2-0.2c0-0.1,0-0.3,0-0.4c0-0.2,0-0.4,0.2-0.5C146.2,80.1,146.3,79.9,146.2,79.5z"/>
	<path d="M1,91.6c-0.1-0.2-0.1-0.3,0.1-0.4c0.1,0,0.1-0.4,0-0.5c0-0.1,0-0.2,0-0.4c0-0.2,0.2-0.2,0.2-0.3c0-0.1-0.2-0.2-0.2-0.3
		c0-0.1,0-0.2,0.1-0.3c0.1-0.1,0.4-0.3,0.3-0.4c-0.1-0.1,0-0.3-0.1-0.4c-0.1-0.1-0.1-0.4,0.1-0.5c0.2-0.2,0.2-0.4,0-0.6
		c0.1-0.2,0.3-0.3,0.2-0.6c0-0.1-0.1-0.2-0.1-0.3c-0.1-0.2-0.1-0.3,0-0.4c0.1-0.1,0.1-0.2,0.1-0.3c0-0.2,0-0.3,0.1-0.4
		c-0.3-0.2,0.1-0.3,0-0.5c0-0.2,0-0.3,0-0.5c0-0.1,0-0.1,0-0.2C2.1,84.2,2,84,1.9,83.8c-0.1-0.3-0.1-0.3,0.1-0.5
		c0.1-0.1,0.1-0.2,0-0.3c-0.1-0.2,0.2-0.3,0.1-0.4c-0.1-0.2,0-0.3,0.1-0.4c0.1-0.1,0.2-0.2,0.2-0.4c0-0.2,0-0.3,0.1-0.4
		c0.1-0.1-0.1-0.2-0.1-0.4c0-0.2,0.2-0.3,0.1-0.6c0-0.5,0-0.5,0.2-0.7c0.2-0.3,0.3-0.4,0-0.7c-0.1-0.1-0.1-0.1,0-0.2
		c0.1-0.1,0.3-0.3,0.1-0.4c0-0.1,0-0.1,0-0.1c0.1-0.1,0.2-0.2,0.3-0.3c0.1-0.1,0.1-0.2,0.1-0.3c-0.1-0.2-0.1-0.4,0.2-0.6
		c0.2-0.2,0.2-0.4,0.1-0.6c-0.1-0.3-0.2-0.3,0.1-0.5C3.6,76,3.6,76,3.6,75.9c0.1-0.4,0.5-0.5,0.6-0.9c0-0.1,0.2-0.1,0.3,0
		c0.1,0,0.2,0.2,0.3,0.2c0.1,0.1,0.2,0.1,0.2,0C5,75.1,5.2,75.1,5.3,75c0.1-0.1,0.2-0.1,0.2,0.1c0,0.1,0,0.2,0.1,0.3
		c0,0,0.1,0.1,0.1,0c0.1-0.1,0.2-0.2,0.4-0.1c0,0,0.1,0,0.2,0c0.1-0.2,0.3,0,0.3,0.1c0,0.5,0.4,0.5,0.7,0.5c0.2,0,0.3,0.1,0.3,0.3
		c0,0.2,0.1,0.3,0,0.5c-0.1,0.2-0.2,0.4,0.1,0.6c0.1,0.1,0.1,0.3,0,0.4c-0.3,0.6-0.3,0.6-0.2,1.4c0,0,0,0,0,0.1
		c0,0.2-0.4,0.2-0.2,0.5c0.2,0.2,0,0.3-0.1,0.5C7.1,80.3,7,80.5,7,80.8c0,0.7-0.2,1.4-0.4,2.1c0,0.1-0.1,0.2,0,0.2
		c0.2,0.2,0.1,0.4,0,0.7c-0.1,0.3,0,0.7-0.3,1c0,0,0,0.1,0,0.1c0,0.2-0.1,0.6-0.1,0.7C6,85.8,6,86.2,6,86.4c0.1,0.3,0,0.5-0.1,0.8
		c-0.1,0.2-0.1,0.3-0.1,0.5c0,0.2,0,0.3-0.1,0.4c-0.1,0.2-0.2,0.3,0,0.5c0,0,0.1,0.1,0.1,0.1c-0.1,0.3,0.2,0.7-0.1,1.1
		c-0.2,0.2-0.1,0.4-0.2,0.6c0,0,0,0.2,0,0.2c0.2,0.1,0,0.4,0.2,0.5c-0.2,0.1-0.1,0.3-0.1,0.5c0,0.2,0.1,0.5-0.2,0.6
		c-0.1,0.1,0,0.1,0,0.2c0,0.4-0.1,0.8-0.3,1.2c-0.1,0.1-0.1,0.2,0,0.4c0.1,0.1,0.2,0.3,0.1,0.5c-0.1,0.1,0,0.4-0.2,0.5
		c-0.1,0-0.1,0.1-0.1,0.2c0.2,0.2,0.1,0.3,0,0.4c-0.1,0.1-0.1,0.1,0,0.2c0.1,0.1,0,0.2,0,0.4c-0.1,0.2-0.3,0.3-0.1,0.5
		c0,0,0,0.2-0.1,0.3c-0.1,0.1-0.1,0.2,0,0.2c0,0,0.1,0.1,0,0.1c-0.3,0.2-0.2,0.6-0.4,0.8C4.2,98.3,4,98.5,4,98.8
		C4,99,3.8,99,3.8,98.9c-0.1-0.2-0.3,0.1-0.4-0.1c-0.1-0.1-0.1-0.3-0.2-0.3c-0.1,0-0.2,0.2-0.3,0.2c-0.1,0-0.1,0.1-0.2,0.1
		c-0.3,0.3-0.3-0.1-0.5-0.1c-0.1,0-0.2,0.3-0.4,0.1c0,0-0.1-0.1-0.1-0.1c-0.1-0.1-0.1,0-0.2,0c-0.1,0-0.2,0.3-0.3,0.1
		c-0.2-0.2-0.5-0.3-0.5-0.7c0-0.3-0.1-0.5-0.3-0.6c-0.2-0.1-0.4-0.2-0.2-0.5C0.2,97,0,96.9,0,96.7c0-0.1,0.2-0.2,0.1-0.4
		C0,96.2,0.2,96.1,0.3,96c0.1-0.1,0.1-0.2,0-0.3c-0.1-0.1-0.1-0.6,0-0.7c0.1-0.2,0.4-0.3,0.4-0.5c-0.1-0.2-0.1-0.4-0.1-0.6
		c0-0.4,0-0.8,0.2-1.2c0-0.1,0.1-0.1,0.1-0.2C0.9,92.2,0.8,91.9,1,91.6z"/>
	<path d="M86.5,0.7c0.1-0.1,0.2-0.1,0.3-0.1c0.2,0,0.2,0,0.2-0.2c0-0.2,0.1-0.2,0.2-0.3l0.5,0C87.9,0.3,88.1,0,88.2,0
		c0.3,0.2,0.5-0.1,0.8,0c0.2,0.1,0.5,0,0.8,0c0.2,0,0.2,0.1,0.3,0.2c0.2,0.3,0.4,0.7,0.8,0.8c0.2,0,0.1,0.1,0.1,0.2
		c0,0.2,0,0.4,0.2,0.5c0.2,0.1,0.2,0.4,0.1,0.6c0,0.1,0,0.1,0,0.2c0.1,0.1,0,0.2,0,0.4c-0.1,0.1,0.3,0,0.2,0.2c0,0.1,0,0.3-0.1,0.5
		c-0.1,0.2-0.1,0.4,0,0.7c0.1,0.1,0.2,0.3,0.1,0.5c0,0.1,0.1,0.2,0.1,0.2c0.1,0.1,0.2,0.2,0,0.3c-0.1,0.1-0.1,0.3,0.1,0.4
		C92,5.7,92,6,92,6.2c0,0.1,0,0.1,0,0.2c0.1,0.1,0.1,0.3,0.1,0.5c0,0.2-0.2,0.4-0.1,0.6c0.1,0.2,0.3,0.2,0.5,0.4
		c0.1,0.1,0,0.2,0,0.3c0,0.2-0.3,0.4,0,0.6c0.1,0.1-0.1,0.4-0.2,0.4c-0.2,0-0.3,0.1-0.4,0.3c-0.1,0.2-0.3,0-0.4,0.1
		c-0.1,0.2-0.2,0.1-0.3,0c0,0-0.1,0-0.2,0c0,0,0,0.1,0,0.2c0,0.1,0.1,0.1,0.2,0.2c0.1,0.1,0.1,0.2-0.1,0.2c-0.2,0-0.3,0-0.2,0.2
		c0,0,0.1,0.1,0,0.1c-0.1,0.1-0.2,0.2-0.3,0.2c-0.3,0-0.4,0.2-0.5,0.3c-0.2,0.2-0.4,0.2-0.5,0.2c-0.1,0-0.2-0.1-0.3,0
		c-0.1-0.1-0.1-0.2-0.2-0.3c-0.1-0.2-0.4-0.4-0.7-0.4c-0.1,0-0.2-0.1-0.2-0.1c-0.1-0.2-0.2-0.4-0.5-0.5c-0.1,0-0.1-0.1-0.1-0.1
		c0.1-0.2-0.1-0.3-0.3-0.4c-0.1-0.1-0.2-0.2-0.3-0.3C87,8.9,87,8.8,87,8.6c0-0.3-0.1-0.5-0.2-0.8c-0.1-0.2-0.3-0.5,0-0.7
		c0.1-0.1,0-0.3-0.1-0.4c-0.2-0.1-0.3-0.3-0.2-0.6c0-0.1,0-0.2-0.1-0.2c-0.3-0.2-0.2-0.4-0.2-0.6c0-0.1,0.1-0.1,0-0.3
		c-0.1-0.1-0.3-0.3,0-0.5c0,0,0-0.2,0-0.2c-0.2-0.3-0.2-0.6-0.3-1c0,0-0.1-0.1-0.1-0.1c0.1-0.2-0.3-0.3-0.2-0.4
		c0.1-0.1,0.1-0.3,0.3-0.4C86.1,2.3,86.1,2.1,86,2c-0.2-0.4,0.1-0.7,0.2-1.1c0-0.1,0.1-0.1,0.2,0c0.1,0,0.1,0.1,0.1,0.1
		c0.1,0.1,0.1,0.2,0.2,0.1c0.1,0,0-0.1,0-0.2C86.8,0.7,86.6,0.8,86.5,0.7C86.5,0.7,86.5,0.7,86.5,0.7z"/>
	<path d="M137.2,49.3c0-0.1,0.1-0.2,0.1-0.3c0.1-0.2,0.1-0.4,0.1-0.6c0-0.2-0.2-0.4,0-0.6c0.1-0.1-0.1-0.2-0.1-0.3
		c0-0.2,0-0.4,0.1-0.5c0.1-0.1,0.2-0.2,0.3-0.3c0.2-0.1,0.3-0.3,0.2-0.5c0-0.2,0.1-0.3,0.2-0.3c0.4,0,0.6-0.2,0.9-0.4
		c0.2-0.1,0.4-0.2,0.6-0.2c0.2,0,0.3,0,0.4-0.2c0-0.1,0.1-0.1,0.2-0.2c0.1-0.1,0.3,0,0.4-0.1c0.1,0.1,0.1,0.1,0.2,0.2
		c0.1,0.1,0.2,0.2,0.3,0.3c0.1,0.1,0.2,0.2,0.4,0.1c0.2-0.1,0.4,0,0.5,0.2c0.2,0.3,0.5,0.4,0.7,0.5c0.4,0.1,0.5,0.4,0.6,0.7
		c0.1,0.4,0.2,0.9,0.5,1.2c0.1,0.1,0.1,0.2,0.1,0.3c0,0.3,0.1,0.6,0.3,0.8c0.2,0.3,0.3,0.6,0.3,1c0,0.3-0.1,0.6,0.2,0.8
		c0.2,0.2,0,0.5-0.2,0.7c-0.1,0.1-0.2,0.2-0.2,0.4c0,0,0,0.1,0,0.1c-0.4,0.2-0.3,0.6-0.5,0.9c0,0.1,0,0.2-0.1,0.1
		c-0.2-0.1-0.3,0.3-0.5,0.2c-0.2,0-0.3,0.2-0.4,0.3c-0.1,0.1-0.1,0.1-0.2,0.1c-0.4,0-0.7,0.1-1.1,0.3c-0.3,0.2-0.6,0-0.9,0
		c-0.5-0.4-1-0.5-1.6-0.7c-0.2-0.1-0.3-0.2-0.4-0.3c-0.1-0.1-0.1-0.3,0-0.4c0.1-0.1,0-0.1,0-0.1c0-0.2-0.2-0.3-0.2-0.5
		c0-0.1,0-0.1-0.1-0.2c-0.3-0.1-0.3-0.4-0.4-0.6c-0.1-0.4,0-0.4-0.2-0.5c-0.2-0.1-0.1-0.3-0.1-0.5c0-0.1,0-0.2-0.1-0.2
		c-0.1,0-0.2,0.1-0.2-0.1C137.4,49.7,137.2,49.6,137.2,49.3z"/>
	<path d="M79.9,73.7c0-0.1,0-0.2,0.1-0.3c0.1-0.1,0.1-0.3,0-0.4c-0.2-0.2-0.1-0.5-0.2-0.7c-0.2-0.4,0-0.8-0.1-1.2
		c0-0.1,0-0.2,0.1-0.3c0.1-0.1,0.2-0.3,0.3-0.4c0.1-0.2,0.3-0.3,0.1-0.6c-0.1-0.1-0.1-0.2,0-0.3c0.1-0.2,0.1-0.4,0-0.6
		c-0.1-0.1,0-0.2,0.1-0.3c0.3-0.2,0.5-0.5,0.5-0.9c0-0.1,0.1-0.1,0.1-0.2c0.2-0.1,0.3-0.3,0.2-0.5c0-0.2,0.1-0.3,0.2-0.3
		c0.4,0,0.6-0.3,0.8-0.6c0.2-0.2,0.3-0.2,0.5-0.2c0.4,0,0.9,0.1,1.2,0.5c0.1,0.1,0.4-0.1,0.5,0.2c0.3-0.3,0.5,0.3,0.8,0.1
		c0,0,0.1,0.1,0.1,0.1c-0.1,0.3,0.2,0.4,0.3,0.5c0.1,0.1,0.1,0.1,0,0.2c-0.1,0.1-0.1,0.3,0,0.4c0.1,0.3,0.2,0.5,0.1,0.8
		c-0.1,0.3-0.1,0.6,0.3,0.8c0.2,0.1,0.1,0.3,0,0.4c-0.2,0.2-0.2,0.5-0.1,0.7c0.1,0.1,0.1,0.2,0,0.3c-0.2,0.4-0.1,0.8-0.1,1.2
		c0,0.1,0,0.3-0.2,0.3c-0.1,0-0.2,0.1-0.2,0.3c-0.1,0.3-0.3,0.5-0.3,0.9c0,0.2-0.1,0.4-0.2,0.6c-0.1,0.2-0.2,0.4-0.5,0.4
		c-0.3,0-0.5,0.4-0.6,0.7c-0.1,0.2-0.3,0.2-0.3,0.1c-0.2-0.2-0.5,0-0.7-0.2c-0.2-0.1-0.5,0-0.8,0c-0.1,0-0.2,0-0.3,0
		c-0.3,0.1-0.6,0-0.6-0.2c0-0.3-0.3-0.3-0.3-0.5c0,0-0.1-0.1-0.1-0.1c-0.1-0.1-0.4,0.1-0.4-0.1c-0.1-0.1,0-0.4-0.2-0.4
		C79.9,74,79.9,73.9,79.9,73.7z"/>
	<path d="M67,72.6c0.1-0.4,0.2-0.9,0.1-1.4c0-0.2,0.1-0.4-0.1-0.5c0,0,0,0,0-0.1c0.2-0.2,0.2-0.4,0.2-0.7c0-0.1,0.1-0.1,0.2-0.2
		c0.1-0.1,0.1-0.1,0-0.2c-0.1-0.1-0.1-0.2,0-0.3c0.3-0.2,0.4-0.6,0.4-0.9c0-0.2,0.1-0.3,0.3-0.4c0.1-0.1,0.2-0.1,0.2-0.3
		c0-0.2,0.2-0.3,0.3-0.3c0.3,0,0.3-0.2,0.4-0.4c0.1-0.2,0.2-0.3,0.5-0.1c0.1,0,0.2,0.1,0.3,0.1c0.3-0.2,0.6,0,0.9,0
		c0.1,0,0.3,0.1,0.4,0.1c0.3,0,0.5,0.2,0.8,0.2c0.2,0,0.4,0,0.5,0.3c0.1,0.1,0.2,0.2,0.3,0.2c0.2,0,0.3,0.1,0.3,0.3
		c-0.1,0.3,0.3,0.4,0.2,0.6c-0.1,0.2-0.1,0.4-0.1,0.7c0,0.3,0,0.5,0.2,0.6c0.1,0.1,0.1,0.2,0,0.3c-0.1,0.2-0.3,0.4,0,0.7
		c0,0-0.2,0.7-0.2,0.8c-0.1,0.1-0.2,0.2-0.1,0.4c0.1,0.2,0,0.5,0.1,0.7c0,0.1-0.1,0.1-0.1,0.2c-0.1,0.1-0.1,0.3-0.2,0.3
		c0.1,0.4-0.2,0.5-0.4,0.7c-0.1,0.1-0.2,0.3-0.2,0.4c-0.1,0.2-0.1,0.5-0.4,0.6c-0.1,0-0.1,0.2-0.1,0.3c0,0.3-0.1,0.3-0.4,0.3
		c-0.2,0-0.4,0-0.5,0.2c-0.1,0.1-0.3,0.1-0.3,0.1c-0.2-0.2-0.5,0-0.7-0.1c-0.1-0.1-0.1,0-0.2,0c-0.2,0-0.4,0.1-0.5-0.1
		c-0.2-0.2-0.6-0.3-0.6-0.6c0-0.1,0,0-0.1,0c-0.2,0.2-0.4,0.1-0.5-0.2c0,0-0.1-0.1-0.1-0.1c-0.4-0.1-0.4-0.4-0.4-0.7
		c0-0.3,0.1-0.6-0.2-0.8C67,73,67.1,72.8,67,72.6z"/>
	<path d="M126.6,66.6c-0.1-0.2-0.1-0.4-0.3-0.5c-0.1-0.1-0.2-0.2-0.3-0.2c-0.2,0-0.4-0.1-0.5-0.2c-0.1-0.1-0.4-0.2-0.1-0.5
		c-0.2-0.1-0.1-0.3-0.2-0.4c-0.1-0.2-0.2-0.4-0.2-0.6c0,0,0,0,0-0.1c0.1-0.2-0.3-0.2-0.2-0.4c0.1-0.2,0-0.4,0-0.6c0-0.2,0-0.4,0-0.5
		c0-0.1,0.1-0.3-0.1-0.4c-0.1-0.1-0.1-0.1,0-0.2c0.2-0.1,0.1-0.4,0.2-0.4c0.2-0.2,0.2-0.5,0.2-0.7c0-0.3,0.1-0.4,0.2-0.6
		c0.2-0.3,0.4-0.4,0.5-0.8c0-0.2,0.4-0.5,0.6-0.5c0.3-0.1,0.6-0.2,0.8-0.4c0.1-0.1,0.2-0.2,0.4-0.1c0.4,0.2,0.5,0.2,1.2,0
		c0.1,0,0.1,0,0.2,0c0.1,0.1,0.3,0.3,0.5,0.2c0.1,0,0.1,0,0.2,0.1c0.2,0.2,0.5,0.5,0.8,0.6c0.1,0.1,0.3,0.2,0.1,0.3c0,0,0,0.1,0,0.2
		c0.2,0.1,0.3,0.4,0.5,0.6c0.1,0.1,0.2,0.2,0.1,0.4c-0.1,0.2,0.2,0.3,0.1,0.4c-0.2,0.2,0.1,0.2,0.1,0.3c0,0.2,0.3,0.3,0,0.5
		c-0.1,0.1-0.1,0.2-0.1,0.3c0,0.1-0.3,1.2-0.4,1.3c-0.1,0.2-0.3,0.3-0.3,0.6c0,0.1-0.1,0.1,0,0.2c0.1,0.1,0,0.2-0.1,0.4
		c-0.2,0.2-0.2,0.5-0.5,0.7c-0.2,0.2-0.5,0.3-0.6,0.4c-0.2,0.2-0.4,0.4-0.7,0.5c0,0-0.1,0.1-0.1,0.1c-0.3-0.1-0.6,0.1-0.8,0.3
		c-0.1,0-0.1,0.1-0.2,0c-0.1-0.2-0.3-0.2-0.5-0.2C127.1,66.6,126.9,66.6,126.6,66.6z"/>
	<path d="M27,57.1c-0.2,0.1-0.4,0-0.6,0.1c-0.2,0.1-0.3,0.1-0.4,0.3c-0.2,0.3-0.3,0.4-0.7,0.2c-0.2-0.1-0.3,0.2-0.4,0
		c0-0.1-0.2,0.1-0.2,0.1c-0.1,0.1-0.2,0.1-0.3,0c-0.1-0.1-0.2-0.3-0.4-0.1c0,0,0,0,0,0c-0.2-0.4-0.8-0.3-1-0.6
		c0-0.1-0.1-0.1-0.1-0.1c-0.3,0.2-0.3,0-0.3-0.3c0-0.1-0.3-0.5-0.4-0.7c-0.2-0.2-0.4-0.4-0.3-0.7c0-0.3-0.1-0.5-0.3-0.8
		c-0.1-0.1-0.1-0.3,0-0.4c0.2-0.1,0.2-0.3,0.2-0.5c0-0.1-0.2-0.3,0.1-0.4c0.1,0,0-0.1,0-0.1c-0.1-0.2-0.1-0.4,0.2-0.5
		c0.2-0.1,0.3-0.5,0.4-0.7c0,0,0-0.1,0.1-0.1c0.3,0,0.2-0.3,0.3-0.5c0.1-0.2,0-0.5,0.4-0.4c0.1,0,0.2-0.1,0.2-0.2
		c0.1-0.2,0.2-0.4,0.4-0.4c0.1,0,0.1-0.2,0.2-0.3c0.1-0.1,0.3-0.2,0.4-0.1c0.3,0.2,0.5,0,0.6-0.1c0.1-0.1,0.2-0.1,0.3,0
		c0.3,0.2,0.6,0.3,1,0c0.1,0,0.2,0,0.2,0.1c0.1,0.4,0.4,0.4,0.7,0.4c0.4,0,0.4,0,0.5,0.4c0,0.1,0,0.2,0.2,0.2c0.1,0,0.1,0.1,0.1,0.1
		c0,0.6,0,0.6,0.2,1c0,0,0,0.1,0,0.1c-0.1,0.3,0.1,0.6,0.3,0.8c0.1,0.1,0,0.2-0.1,0.2c-0.1,0.1-0.2,0.2,0,0.3
		c-0.1,0.1,0.2,0.2,0,0.3c0,0,0.1,0.2,0.1,0.3c0,0,0,0.1,0,0.1c-0.3,0.2-0.1,0.7-0.5,0.8c-0.1,0-0.1,0.1-0.1,0.2
		c0.1,0.4-0.2,0.6-0.4,0.9c0,0.1-0.2,0.1-0.1,0.2c0.1,0.2-0.2,0.2-0.3,0.3c-0.1,0-0.1,0.2-0.1,0.3C27,56.8,27,57,27,57.1z"/>
	<path d="M93.4,6.4c0.1-0.5-0.3-0.8-0.5-1.1c0-0.1-0.1-0.1,0-0.2c0.1-0.2,0.1-0.4,0-0.6c0-0.1-0.3,0-0.2-0.2c0-0.1,0.1-0.1,0.1-0.2
		c0-0.2,0.1-0.4-0.1-0.5c0-0.3-0.4-0.6-0.3-1c0,0-0.1-0.1-0.1-0.1c-0.1-0.1-0.2-0.2,0-0.3c0.1-0.1,0.2-0.3,0.1-0.4
		c-0.2-0.2,0-0.4,0.1-0.5c0.2-0.1,0.3-0.2,0.4-0.4c0.2-0.2,0.4-0.3,0.8-0.2c0.1,0,0.1,0,0.2,0c0.3-0.1,0.3-0.1,0.5,0
		c0.1,0.1,0.2,0.1,0.4,0c0.1-0.1,0.3-0.1,0.4,0c0.2,0.1,0.2,0,0.2-0.1c0-0.1,0-0.2,0.1-0.2c0.2,0.1,0.4,0,0.6,0c0.1,0,0.2,0,0.2,0.2
		c0,0.2,0.1,0.4,0.3,0.5c0.1,0.1,0.2,0.3,0.2,0.5c0,0.1,0,0.1,0.1,0.2C97,1.8,97,2.1,96.8,2.4c0,0.1,0,0.1,0.1,0.2
		c0.2,0.2,0.2,0.4,0.1,0.6c-0.1,0.1,0,0.3,0,0.5c0,0.1,0.1,0.2,0.3,0.2c0.2,0.1,0.3,0.3,0.2,0.4c-0.2,0.3-0.2,0.6-0.2,0.9
		c0,0.1,0,0.1,0,0.2c-0.2,0.2-0.5,0.2-0.6,0.4c-0.2,0.3-0.5,0.1-0.7,0c-0.2-0.1-0.3-0.1-0.3,0.1c-0.1,0.3-0.1,0.3-0.4,0.2
		c-0.1,0-0.2,0.1-0.2,0.1c-0.1,0-0.1-0.2-0.2-0.2c-0.1,0-0.3-0.1-0.3,0c-0.1,0.4-0.4,0.3-0.7,0.3C93.6,6.4,93.5,6.4,93.4,6.4z"/>
	<path d="M59.6,38.8c0.2,0,0.4,0.1,0.5,0c0.2-0.2,0.4-0.2,0.6-0.3c0.2-0.2,0.4-0.4,0.5-0.5c0.1-0.1,0-0.2,0.1-0.3
		c0-0.1,0.1-0.2,0.2-0.2c0.2,0.2,0.4,0,0.6,0c0.2,0,0.4,0,0.6-0.1c0,0,0.2,0,0.2,0c0.1,0.1,0.2,0.1,0.3,0c0.1-0.1,0.2-0.1,0.3,0
		c0.1,0.1,0.2,0.1,0.3,0c0.2-0.1,0.3,0,0.5-0.1c0,0,0.1,0,0.1,0.1c-0.1,0.5,0.2,0.2,0.4,0.2c0.1,0,0.2,0,0.3,0
		c0.2,0.2,0.3,0.1,0.5,0.1c0.2,0,0.3,0,0.3-0.2c0,0,0,0,0,0c0.1,0,0.1,0,0.2,0c0.2,0.2,0.4-0.1,0.6,0c0.1,0,0.1,0.1,0.1,0.1
		c0.1,0.1,0.2,0.3,0.4,0.4c0.1,0,0.2,0.2,0.3,0.3c0.1-0.2,0.4,0,0.5-0.1c0.2-0.1,0.3-0.2,0.3,0.1c0.3,0,0.5,0.4,0.8,0.1
		c0.1-0.1,0.2,0.1,0.2,0.1c-0.2,0.2,0,0.3,0,0.4c0,0.3,0.3,0.5,0.1,0.8c0,0,0,0.1,0,0.1c0.2,0,0.2,0.2,0.3,0.3
		c-0.2,0.1-0.1,0.3-0.1,0.4c0,0.2-0.1,0.3,0,0.5c0.1,0.1,0,0.1,0,0.2c-0.1,0.1-0.2,0.2-0.1,0.3c0,0.2,0,0.3,0,0.5
		c0,0.1-0.3,0-0.4,0.1c0,0.1-0.2,0-0.2,0.2c0,0.1-0.2,0.2-0.3,0.2c-0.3-0.2-0.4,0-0.4,0.3c0,0.2-0.3,0.2-0.4,0.3
		c-0.1,0.1-0.2,0.2-0.4,0c-0.2,0.1-0.6,0-0.8,0.2c-0.3,0.3-0.5,0-0.7,0c0,0-0.1-0.2-0.3-0.2c-0.1,0-0.2,0.1-0.3,0.2
		c-0.1,0.1-0.1,0.1-0.2,0c-0.1-0.2-0.2-0.1-0.3,0c0,0-0.1,0.1-0.2,0c-0.2-0.2-0.4,0.1-0.4,0c-0.2-0.2-0.3,0-0.5,0.1
		c-0.1,0-0.2,0.1-0.3,0c-0.1-0.1-0.2-0.1-0.3,0c-0.1,0.1-0.2,0.1-0.3,0.1c-0.4-0.2-0.7,0.1-1.1,0c-0.2,0-0.5,0-0.6-0.2
		c0,0-0.1,0-0.2,0c-0.1,0-0.1-0.1,0-0.1c0.1-0.1,0.1-0.2-0.1-0.2c-0.1,0-0.2,0-0.3-0.1c-0.1-0.2-0.3-0.2-0.5-0.2c-0.1,0-0.2,0-0.2,0
		c0-0.3-0.2-0.3-0.4-0.4c0,0,0-0.1-0.1-0.2c-0.1,0-0.1-0.1,0-0.2c0.2-0.1-0.1-0.3,0-0.4c0.1-0.1,0.1-0.2,0.1-0.3
		c0-0.1,0.1-0.3-0.2-0.3c-0.1,0,0-0.1,0-0.1c0.1-0.1,0.4-0.3,0-0.4c-0.1,0,0-0.1,0-0.1c0-0.1,0.1-0.2,0-0.2c-0.3,0-0.2-0.2-0.1-0.3
		c0.1-0.1,0.1-0.2,0.3-0.2c0.2,0,0.1-0.1,0-0.1C59.6,39.2,59.6,39,59.6,38.8z"/>
</g>
</svg>
