<?xml version="1.0" encoding="utf-8"?>
<!-- Generator: Adobe Illustrator 27.7.0, SVG Export Plug-In . SVG Version: 6.00 Build 0)  -->
<svg version="1.1" id="Ebene_1" xmlns="http://www.w3.org/2000/svg" xmlns:xlink="http://www.w3.org/1999/xlink" x="0px" y="0px"
	 viewBox="0 0 132.3 93.8" style="enable-background:new 0 0 132.3 93.8;" xml:space="preserve">
<g>
	<path d="M53.9,49.9c0.1,0,0-0.2,0.2-0.3c0,0,0.1-0.1,0.1,0c0.1,0.2,0.2,0.2,0.4,0c0.1-0.1,0.3-0.1,0.5,0.1c0.2,0.2,0.3,0.2,0.5,0
		c0.2-0.1,0.3,0,0.4,0.1c0.3,0.2,0.4,0.5,0.9,0.2c0.1-0.1,0.3,0.2,0.4,0.3c0,0.2,0.1,0.4,0.1,0.5c0,0.1-0.1,0.2-0.1,0.3
		c-0.1,0.1-0.1,0.2,0,0.3c0.1,0.1,0.1,0.3,0.2,0.4c0.1,0.2,0.1,0.3,0.1,0.5c0,0.1,0,0.2,0,0.4c0,0.1,0,0.1,0.1,0.2
		C57.8,53,58,53,58,53.2c0,0.1-0.2,0.3-0.2,0.4c0,0.1-0.1,0.3,0.1,0.4c0.1,0.1,0,0.2,0.1,0.3c0.1,0.2-0.2,0.4-0.1,0.5
		c0.1,0.2,0.1,0.3,0.1,0.5c0,0.1,0,0.2-0.1,0.3c-0.1,0.1-0.1,0.3,0,0.4c0.1,0.3,0.1,0.3,0,0.5c-0.1,0.1-0.1,0.1-0.2,0.6
		c0,0.1-0.1,0.1-0.1,0.2c-0.2,0.2-0.5,0.4-0.5,0.8c0,0.1,0,0.1-0.1,0c-0.2-0.1-0.3,0-0.5-0.1c-0.1,0-0.3,0.2-0.4,0
		c-0.1-0.1-0.2,0-0.3,0.1c-0.1,0.2-0.2,0.1-0.3,0c-0.1-0.1-0.2-0.2-0.3,0.1c-0.1,0.2-0.3,0.1-0.4,0c-0.1-0.2-0.3-0.2-0.4,0
		c-0.2,0.2-0.3-0.2-0.5,0c-0.1,0.1-0.2,0.3-0.4,0.2c-0.2-0.1-0.6-0.1-0.8-0.3c-0.1-0.1-0.2,0.1-0.2,0.1c-0.1-0.2-0.4-0.1-0.3-0.3
		c0-0.2-0.3-0.2-0.2-0.5c0-0.1,0-0.3,0.1-0.4c0.1-0.1,0.1-0.2,0-0.3c-0.3-0.3-0.3-0.5,0-0.7c0.1,0,0.1-0.1,0-0.2
		c-0.1-0.1-0.1,0-0.2,0c-0.1,0-0.1,0-0.2,0.1c-0.1,0.2-0.3,0.2-0.5,0.1c-0.2-0.1-0.3-0.1-0.3,0.1c-0.1,0.2-0.2,0.2-0.4,0.3
		c-0.2,0.1-0.4,0.3-0.7,0.2c-0.1,0-0.1,0.1-0.2,0.1c-0.2,0.1-0.8,0.4-0.9,0.3c-0.2-0.1-0.3-0.1-0.4,0.1c-0.2,0.3-0.6,0.2-0.7,0.5
		c-0.3-0.2-0.5,0.2-0.7,0.2c-0.4,0-0.6,0.2-1,0.6c-0.1,0.1-0.2,0.2-0.3,0.2c-0.1,0-0.3-0.1-0.3,0.2c0,0.1-0.1,0-0.1,0
		c-0.3-0.1-0.6-0.2-0.7,0.3c0,0.1-0.2,0.2-0.3,0.2c-0.3,0-0.5-0.1-0.8,0.1c-0.1,0.1-0.2,0.1-0.2,0.2c-0.1,0.3-0.2,0.3-0.4,0.1
		c-0.1-0.1-0.2,0-0.2,0c-0.2,0.3-0.6,0.3-0.8,0.6c0,0-0.1,0-0.1,0c-0.3,0-0.3,0-0.4,0.2c-0.1,0.1-0.2,0.2-0.4,0.2
		c-0.3,0-0.5,0.2-0.8,0.1c-0.1,0-0.1,0-0.1,0.1c0,0.2-0.2,0.3-0.3,0.4c-0.1,0.1-0.1,0.2,0,0.3c0,0,0,0,0,0.1
		c-0.1,0.1-0.1,0.1-0.2,0.2c0.1,0.1,0.1,0.1,0,0.2c0,0,0,0.2,0,0.2c0,0.1,0,0.2,0,0.3c0.1,0.2,0,0.3-0.1,0.5c0,0.1-0.3,0.2-0.2,0.3
		c0.2,0.2-0.1,0.4,0,0.6c0.2,0.2,0.1,0.4,0.1,0.6c0,0.2,0.1,0.4,0.1,0.6c0,0.1-0.1,0.3,0.1,0.2c0.2-0.1,0.4,0.2,0.5,0
		c0.1-0.1,0.2-0.2,0.4-0.2c0.2,0,0.3,0,0.5-0.2c0.1-0.2,0.4,0,0.5-0.2c0-0.1,0.2,0,0.3,0c0.1,0,0.1-0.2,0.2-0.3c0,0,0.1-0.1,0.1-0.1
		c0.3,0.2,0.4-0.2,0.6-0.1c0.2,0.1,0.3,0.1,0.3-0.1c0.1-0.2,0.3-0.1,0.4-0.4c0.1-0.2,0.4-0.1,0.5,0c0.1,0.1,0.2,0.1,0.2,0
		c0.2-0.4,0.5-0.5,0.9-0.6c0.2-0.1,0.4-0.2,0.7-0.2c0.1,0,0.2-0.1,0.2-0.1c0.2-0.2,0.4-0.3,0.6-0.2c0.2,0,0.3-0.1,0.3-0.2
		c0.1-0.1,0.2-0.2,0.4-0.1c0.2,0,0.3,0,0.4-0.2c0.1-0.1,0.2-0.2,0.3-0.1c0,0,0.2-0.2,0.3-0.3c0.1-0.1,0.2-0.1,0.2,0
		c0.2,0.2,0.3,0.1,0.5-0.1c0.1-0.1,0.2-0.2,0.5-0.1c0.1,0.1,0.8-0.2,0.9-0.3c0.2-0.2,0.5-0.3,0.7-0.3c0.6-0.1,1.2-0.3,1.6-0.7
		c0.2-0.2,0.4-0.2,0.6-0.1c0.1,0,0.1,0,0.2,0c0.1-0.1,0.2-0.2,0.4-0.2c0.3,0,0.5-0.1,0.7-0.4c0,0,0.1-0.1,0.1-0.1
		c0.2,0.3,0.4-0.1,0.6,0c0.2,0,0.5,0,0.6-0.4c0-0.1,0.1-0.1,0.2-0.1c0.3,0,0.4-0.1,0.6-0.2c0.2-0.1,0.3-0.4,0.5-0.3
		c0,0,0.1-0.1,0.2-0.2c0.1-0.1,0.2,0.2,0.3,0.1c0.1-0.1,0.2-0.2,0.3-0.2c0.3,0.2,0.4-0.1,0.5-0.2c0,0,0,0,0.1,0
		c0.3,0.2,0.2,0,0.3-0.2c0-0.1-0.1-0.2-0.1-0.3c0-0.1-0.1-0.2,0-0.3c0.2-0.1,0.2-0.4,0.2-0.6c0-0.1-0.1-0.3,0.1-0.4
		c0.1-0.1,0-0.2,0-0.2c-0.3-0.2-0.3-0.5-0.2-0.6c0.1-0.2,0-0.4,0.1-0.5c0.1-0.2,0-0.4,0.1-0.5c0.2-0.2,0.1-0.4-0.1-0.5
		c-0.2-0.1-0.1-0.2,0-0.4c0.1-0.2,0.1-0.5,0.2-0.7c0.1-0.1,0-0.1,0-0.2C59,52.1,59,52,58.9,51.9c-0.1-0.1,0.2-0.3,0-0.4
		c0.3-0.1-0.1-0.3,0-0.4c0.1-0.2,0.1-0.3,0-0.5c-0.1-0.2-0.1-0.4,0.1-0.6c0.2-0.2,0.1-0.5,0-0.7C59,49.1,59,49,59,48.9
		c0-0.1,0.1-0.2,0.2-0.2c0.1,0,0.1,0,0.2,0.1c0.1,0.1,0.2,0,0.2-0.1c0-0.2,0.1-0.2,0.2-0.1c0.1,0.1,0.2,0.1,0.3,0.2
		c0.2,0.2,0.4,0.1,0.6,0c0.2-0.1,0.1-0.3,0.2-0.2c0.1,0,0.1,0.1,0.2,0.2c0.1,0.1,0.2,0,0.2-0.1c0-0.2,0.3-0.1,0.3-0.3c0,0,0,0,0.1,0
		c0.2,0.1,0.5,0.1,0.8,0.1c0.1,0,0.2,0,0.2,0c0.2,0.2,0.3,0.2,0.4,0c0.1-0.1,0.3-0.1,0.3-0.1c0.1,0.2,0.3,0,0.4,0.2
		c0.1,0.1,0.1,0.4,0.1,0.6c-0.1,0.3-0.2,0.5,0,0.6c0.2,0.2,0.2,0.5,0.2,0.8c0,0.1,0,0.2,0.1,0.3c0.4,0.2,0.2,0.6,0.4,0.8
		c-0.2,0.2,0.1,0.5,0,0.7c0,0.2,0.2,0.3-0.1,0.5c-0.1,0.1,0.1,0.1,0.1,0.2c0,0.2-0.1,0.5,0.1,0.7c0,0,0,0.2,0,0.3
		c-0.1,0.1-0.2,0.2-0.2,0.3c0,0.2-0.2,0.3-0.1,0.5c0,0.2,0.2,0.1,0.3,0.3c0.1,0.1,0.2,0.3,0.2,0.4c0.1,0.2-0.1,0.4-0.2,0.5
		c-0.1,0.1,0,0.2,0,0.3c0,0.2,0.2,0.4,0,0.6c0,0.1,0,0.2,0,0.3c0.1,0.3,0.1,0.3,0.1,0.7c0,0.3-0.2,0.5,0.1,0.7
		c0.2,0.1,0.1,0.4,0,0.6c-0.1,0.1-0.2,0.2-0.3,0.4c0,0.1-0.1-0.2-0.2,0c0,0.1-0.1,0.2-0.1,0.3c0,0.1,0,0.2,0,0.3
		c-0.2,0.3-0.1,0.8-0.6,0.8c-0.3,0.3-0.6,0.3-1,0.1c0,0-0.1,0-0.1,0c0,0.3-0.4,0.2-0.6,0.4c-0.2,0.3-0.7,0.3-1,0.6
		c-0.5-0.1-0.7,0.2-1,0.5c-0.1,0.1-0.2,0.2-0.3,0.1c-0.1,0-0.2,0-0.2,0.2c0,0.1-0.1,0.2-0.3,0.2c-0.3,0-0.6,0.3-0.9,0.2
		c-0.1,0-0.3,0.2-0.5,0.2c-0.2,0-0.3,0.1-0.5,0.1c0,0-0.1,0.1-0.1,0.1c-0.3,0.2-0.7,0.3-1,0.4c-0.1,0-0.2,0-0.1,0.1
		c0,0.2,0,0.3-0.2,0.2c-0.1,0-0.2,0-0.3,0.1c-0.1,0.1-0.2,0.2-0.3,0.1c-0.1-0.1-0.1,0-0.2,0.1c-0.2,0.2-0.5,0.1-0.6,0.4
		c0,0-0.1,0-0.1,0c-0.2-0.2-0.3-0.1-0.3,0.1c-0.1,0.2-0.3,0.1-0.4,0.2c-0.3,0.1-0.6,0.3-0.9,0.4c-0.2,0.1-0.3,0.2-0.6,0.2
		c-0.1,0-0.1,0-0.2,0.1c-0.1,0.1-0.1,0.2-0.2,0.3c-0.1,0.1-0.2-0.1-0.3-0.1c-0.1,0-0.1,0-0.1,0.1c-0.1,0.2-0.4,0.1-0.4,0.2
		c-0.1,0.2-0.3,0.1-0.4,0.1c-0.3,0-0.4,0.2-0.6,0.4c-0.2,0.2-0.4,0.3-0.6,0.1c-0.1-0.1-0.2,0-0.4,0c-0.4,0.2-0.7,0.3-1.1,0.4
		c-0.2,0-0.3,0.1-0.3,0.3c0,0-0.5,0.3-0.5,0.3c0,0.2-0.3,0-0.3,0.3c0,0.1-0.1,0.1-0.2,0.1c-0.1,0-0.3,0-0.4,0.1c0,0-0.1,0.1-0.1,0.1
		c-0.4-0.1-0.7,0.1-1,0.4c-0.1,0.1-0.2,0.1-0.4,0.1c-0.2,0-0.4-0.1-0.5,0.2c0,0-0.1,0-0.2,0c-0.1,0-0.2,0-0.3,0.2
		c-0.1,0.2-0.5,0-0.6,0.3c0,0-0.1-0.1-0.1-0.1c-0.2-0.1-0.4-0.1-0.5,0.1c-0.2,0.2-0.5,0.3-0.8,0.4c-0.1,0-0.1,0-0.2,0
		c-0.2-0.1-0.3-0.1-0.4,0.1c-0.3-0.1-0.3,0.2-0.6,0.3c-0.3,0.1-0.7,0.2-0.8,0.6c-0.3,0.1-0.2,0.3-0.2,0.5c0,0.2,0.4,0.1,0.2,0.4
		c-0.1,0.1,0,0.3,0,0.5c0,0.3,0,0.4-0.1,0.6c-0.1,0.1,0,0.2,0,0.3c0.1,0.1,0.1,0.2,0.2,0.3c0.1,0.1,0.1,0.2,0,0.4
		c-0.1,0.1-0.1,0.1-0.2,0.2c-0.1,0.1-0.1,0.2,0,0.3c0.2,0.1,0.2,0.3,0,0.4c-0.2,0.2-0.2,0.4,0,0.6c0.1,0.2,0.1,0.3,0,0.5
		c-0.1,0.1-0.1,0.3-0.2,0.4c0.3,0.2,0.4,0.5,0.4,0.8c0,0.1,0,0.2,0.1,0.3c0.1,0.2,0.1,0.4-0.1,0.5c0,0-0.1,0.1-0.1,0.1
		c0,0.2,0,0.5,0.1,0.7c-0.2,0.2-0.2,0.4,0,0.6c0.1,0.1,0.1,0.2,0,0.3c-0.2,0.1-0.1,0.3-0.1,0.5c0,0.1,0,0.2,0,0.3
		c0,0.2-0.4,0.3-0.2,0.6c0.2,0.2,0.2,0.4,0.3,0.6c0.2,0.3,0.2,0.3,0,0.5c0,0-0.1,0.1-0.1,0.1c0.1,0.1,0.2,0,0.2,0.1
		c0,0.1,0.1,0.3-0.1,0.4c-0.2,0.2-0.2,0.3,0,0.5c0.2,0.2,0.1,0.4,0,0.6c-0.1,0.2-0.1,0.4,0,0.7c0.1,0.1,0.1,0.2,0,0.3
		c-0.1,0.1-0.1,0.3,0,0.4c0.1,0.1,0.2,0.2,0,0.4c-0.1,0.1-0.2,0.3,0,0.4c0.1,0,0.1,0.1,0,0.2c-0.2,0.2-0.1,0.3,0,0.5
		c0.1,0.2,0.1,0.2,0.2,0c0.1-0.2,0.2-0.4,0.4-0.1c0.1,0.1,0.2,0,0.2-0.1c0.1-0.2,0.3-0.3,0.5-0.2c0.2,0,0.3-0.2,0.4-0.3
		c0.1-0.1,0.2-0.1,0.3,0c0.2,0.1,0.4-0.1,0.6-0.1c0.1,0,0.1-0.2,0.2-0.3c0.1-0.1,0.1-0.3,0.2-0.3c0.1-0.1,0.1,0,0.2,0
		c0.2,0.1,0.4,0.2,0.5-0.2c0.3,0,0.4-0.2,0.6-0.3c0.1-0.1,0.2-0.1,0.3,0c0.2,0.1,0.3,0.1,0.5,0c0.1-0.2,0.3-0.3,0.5-0.2
		c0,0,0.1,0,0.1,0c0.1-0.1,0.2-0.3,0.4-0.3c0.2,0.1,0.3,0,0.5,0.1c0.2,0,0.3-0.1,0.3-0.2c0.1-0.3,0.2-0.4,0.5-0.4
		c0.1-0.2,0.2-0.3,0.4-0.2c0.2-0.3,0.5-0.2,0.7-0.2c0.2,0,0.5,0.1,0.6-0.2c0,0,0.1,0,0.2,0c0.1,0,0.2,0,0.2-0.2
		c0-0.1,0.1-0.1,0.2-0.2c0.1,0,0.3,0,0.3-0.2c0-0.1,0.1,0,0.1,0c0.2,0,0.3,0.1,0.4,0c0.3-0.2,0.7-0.2,0.8-0.6c0-0.1,0.1-0.1,0.2-0.1
		c0.2,0.2,0.3,0.1,0.3-0.1c0.1-0.3,0.3-0.4,0.5-0.2c0.2,0.1,0.2,0.1,0.3,0c0.1-0.1,0.2-0.1,0.3-0.1c0.1,0,0.3,0,0.3-0.1
		c0-0.3,0.2-0.2,0.4-0.2c0.1,0,0.3,0,0.4,0c0.1,0,0.2,0,0.2,0c0.2-0.5,0.6-0.3,0.9-0.4c0.1,0,0.2,0,0.2-0.2c0,0,0,0,0,0
		c0.2-0.1,0.6,0.1,0.7-0.2c0.1-0.3,0.4-0.3,0.5-0.5c0.1-0.1,0.1,0,0.1,0c0.2,0,0.4,0.2,0.6,0.1c0.2-0.1,0.3-0.1,0.3-0.3
		c0-0.2,0.2-0.3,0.3-0.2c0.3,0.2,0.4,0,0.6-0.2c0.1-0.1,0.1-0.1,0.5-0.1c0.2,0,0.5-0.1,0.7-0.3c0.1-0.1,0.1-0.1,0.2-0.1
		c0.1,0,0.1,0.2,0.2,0c0.1-0.3,0.2-0.3,0.6-0.3c0.1,0,0.1-0.1,0.2-0.1c0.1-0.2,0.2-0.3,0.4-0.4c0.3-0.1,0.5-0.3,0.8-0.2
		c0.1,0,0.1-0.1,0.1-0.2c0.1-0.2,0.2-0.2,0.3-0.1c0.1,0.1,0.2,0,0.3-0.1c0.2-0.4,0.6-0.4,1-0.4c0.2,0,0.4,0,0.5-0.3
		c0-0.1,0.1-0.2,0.2-0.2c0,0,0.1,0.1,0.2,0.1c0,0,0.1,0,0.1,0c0-0.2,0.2-0.2,0.3-0.2c0.1,0,0.2,0,0.3,0c0.2,0,0.4-0.1,0.5-0.3
		c0.1-0.2,0.4-0.2,0.5-0.4c0.1,0.1,0.2,0.1,0.3,0c0.3-0.1,0.5-0.1,0.7-0.4c0.1-0.1,0.1-0.1,0.2,0c0.2,0.2,0.3,0,0.4-0.1
		c0-0.3,0.4-0.3,0.6-0.5c0,0,0.1,0,0.1,0c0.2,0.3,0.4,0,0.6,0c0.4,0,0.6-0.1,0.9-0.4c0.1-0.1,0.2-0.1,0.2-0.2
		c0.1-0.1,0.3-0.2,0.4-0.1C71,74.2,71,74.2,71,74c0.3,0,0.5-0.3,0.8-0.5c0.1-0.1,0.3-0.1,0.4,0c0.3,0.2,0.5,0,0.8-0.1
		c0,0,0.1-0.1,0.1-0.1c0.2-0.2,0.4,0,0.7-0.1c0.2-0.1,0.3-0.3,0.5-0.3c0.2,0,0.3,0,0.3-0.1c0.1-0.2,0.2-0.3,0.5-0.1c0,0,0.1,0,0.1,0
		c0.1-0.1,0.2-0.2,0.3-0.2c0.1,0,0.2,0.1,0.3,0c0.1-0.2,0.3-0.2,0.6-0.3c0.4-0.1,0.9-0.1,1.1-0.6c0-0.1,0.1-0.1,0.2-0.1
		c0.2,0.1,0.7,0,0.8-0.1c0.3-0.2,0.5-0.4,0.9-0.4c0.2,0,0.4-0.1,0.5-0.2c0.2-0.1,0.3-0.2,0.5-0.3c0.2-0.1,0.4-0.1,0.5,0
		c0.1,0.1,0.1,0,0.1-0.1c0.2-0.2,0.3-0.3,0.6-0.4c0.1,0,0.2-0.2,0.3,0c0,0,0.3,0.1,0.3-0.2c0-0.1,0.2-0.2,0.2-0.2
		c0.3,0.1,0.3-0.2,0.5-0.2c0.2,0,0.3-0.1,0.5-0.2c0.2-0.1,0.4,0,0.6-0.1c0.1-0.1,0.3-0.1,0.4-0.2c0.1-0.1,0.2-0.3,0.4-0.1
		c0,0,0.1,0,0.1,0c0.1-0.2,0.4,0,0.5-0.3c0-0.1,0.1-0.1,0.2,0c0.3,0.3,0.3,0,0.4-0.1c0,0,0.1-0.1,0.2,0c0.2,0.1,0.4,0.1,0.6-0.1
		c0.1-0.1,0.2-0.2,0.5-0.1c0,0,0-0.2,0.1-0.2c0.1,0,0.2,0,0.2,0c0.1,0,0.1-0.1,0.2,0c0.2,0.1,0.5,0.3,0.7,0.1c0,0,0,0,0.1,0
		c0.3,0.2,0.6,0.1,0.8-0.1c0,0,0.2,0,0.2,0c0.1,0.1,0.3,0.2,0.4,0.3c0.1,0.1-0.1,0.3,0.1,0.5c-0.1,0.1-0.2,0.2-0.2,0.3
		c0,0,0.1,0,0.1,0.1c0.5,0.2,0.6,0.3,0.3,0.8c-0.1,0.2-0.1,0.2,0.1,0.3c0.1,0,0.3,0.1,0.4,0.2c0.1-0.1,0.2,0.2,0.3,0
		c0,0,0.1,0,0.1,0c0,0.2,0,0.3,0,0.5c-0.1,0.2-0.1,0.2,0.2,0.3c0,0,0,0,0.1,0c0,0.1-0.1,0.2-0.2,0.2c-0.2,0.1-0.4,0.3-0.3,0.6
		c-0.2,0-0.2,0-0.3,0c-0.3-0.1-0.4,0.1-0.6,0.3c-0.1,0.1-0.2,0.2-0.3,0.2c-0.1,0-0.2,0-0.3,0.1c-0.1,0.2-0.3,0.2-0.5,0.1
		c-0.1,0-0.2,0-0.2,0.1c0,0.2-0.2,0.3-0.4,0.2c-0.1,0-0.3,0-0.4,0.1c-0.1,0.2-0.2,0.3-0.4,0.2c-0.2,0-0.4,0-0.5,0.2
		c-0.1,0.1-0.1,0.1-0.2,0.1c-0.2,0-0.4,0.1-0.6,0.2c-0.1,0.1-0.2,0.1-0.3,0.1c-0.1,0-0.3,0-0.3,0c-0.2,0.4-0.6,0.3-0.9,0.4
		c-0.3,0.1-0.6,0.2-0.9,0.3c0,0-0.1,0.1-0.2,0.1c-0.4-0.1-0.6,0.3-0.9,0.3c-0.1,0.3-0.4,0.2-0.6,0.2c-0.2,0-0.3,0.1-0.5,0.2
		c-0.3,0.2-0.6,0.2-0.9,0.5c0,0.1-0.1,0-0.2,0c-0.2,0-0.4,0.1-0.5,0.1c-0.2-0.1-0.2,0.2-0.4,0.2c-0.1,0-0.3,0.2-0.4,0.2
		c-0.1-0.1-0.2-0.2-0.3,0c-0.2-0.2-0.4,0-0.5,0.1c-0.1,0.1-0.3,0.4-0.5,0.1c-0.3,0.1-0.6,0.2-0.7,0.5c-0.1,0.2-0.1,0.3-0.3,0.1
		c-0.2-0.1-0.2,0.2-0.4,0.1c-0.4-0.1-0.6,0.2-1,0.3c-0.2,0-0.3,0.2-0.3,0.5c0,0.1-0.1,0.2-0.2,0.3c-0.2,0.1-0.5-0.1-0.5,0.1
		c-0.1,0.3-0.3,0.1-0.5,0.2c-0.3,0-0.3,0-0.5,0.3c-0.1,0.2-0.1,0.2-0.3,0.2c-0.1,0-0.2,0-0.2,0c-0.2,0-0.4,0-0.5,0.3
		c0,0.1-0.1,0.2-0.2,0.2c-0.3-0.1-0.4,0.1-0.6,0.2c-0.1,0-0.2,0.2-0.3,0c-0.1,0.1-0.4-0.2-0.4,0.2c0,0-0.1,0.1-0.1,0.1
		c-0.3-0.1-0.5,0.1-0.7,0.1c-0.2,0-0.4,0-0.6,0.1c-0.3,0.2-0.6,0.4-0.6,0.7c-0.1,0.2-0.1,0.2-0.3,0.1c0,0-0.1,0-0.1-0.1
		c-0.3-0.1-0.3-0.1-0.5,0.2c-0.1,0.1-0.2,0.2-0.3,0.2c-0.2,0-0.4,0-0.6,0.2c-0.1,0.1-0.2,0.1-0.3,0.1c-0.2,0-0.5,0-0.7,0.1
		c-0.3,0.1-0.4,0.1-0.5,0.4c0,0.1-0.2,0.2-0.3,0.1c-0.1-0.1-0.3-0.1-0.4,0.1c-0.1,0.1-0.3,0.2-0.3,0.4c0,0-0.1,0.2-0.2,0.1
		c-0.1-0.2-0.2,0.1-0.4,0c-0.2-0.2-0.4-0.1-0.6,0.1c-0.1,0.1-0.2,0.2-0.4,0.2c-0.1,0-0.2,0-0.2,0.1c-0.1,0.2-0.2,0.2-0.4,0.2
		c-0.2,0-0.4,0.1-0.5,0.4c-0.1,0.2-0.1,0.4-0.3,0.1c0,0-0.1,0-0.2,0c-0.1,0.2-0.3,0.2-0.5,0.1c-0.1-0.1-0.3,0-0.4,0.1
		c-0.1,0.1-0.3,0.2-0.3,0.3c-0.1,0.2-0.2,0-0.3,0c-0.1,0.1-0.1,0.3-0.2,0.3c-0.2,0.1-0.4,0.1-0.5,0c-0.2-0.2-0.3,0.1-0.5,0.1
		c-0.2-0.1-0.2,0.1-0.3,0.3c-0.1,0.2-0.2,0.2-0.4,0.2c-0.1,0-0.2,0-0.4,0c-0.1,0-0.2,0-0.2,0.2c0,0-0.2,0.1-0.4,0.2
		c-0.1,0-0.2,0.1-0.3,0.2c-0.2,0.1-0.3,0.2-0.6,0.2c-0.2-0.1-0.5,0.1-0.7,0.2c-0.1,0.1-0.2,0.2-0.3,0.4c-0.1,0.1-0.3-0.1-0.4,0.1
		c-0.1,0.2-0.3,0.2-0.5,0.2c-0.3,0-0.5,0.2-0.7,0.1c-0.1,0-0.1,0.1-0.1,0.2c-0.1,0.2-0.6,0.4-0.8,0.4c-0.1,0-0.2,0-0.2,0
		c-0.1,0.1-0.2,0.1-0.3,0.2c-0.1-0.2-0.2,0-0.3,0c-0.3,0-0.4,0.1-0.4,0.4c0,0.1-0.1,0.1-0.2,0.1c-0.3-0.2-0.6-0.1-0.9,0
		c-0.3,0.1-0.4,0.2-0.4,0.4c0,0.2-0.1,0.3-0.3,0.1c-0.2-0.1-0.3-0.1-0.4,0c-0.2,0.1-0.4,0.3-0.6,0.4c-0.1,0-0.1,0.2-0.2,0.1
		c-0.3-0.3-0.4,0-0.6,0.1c0,0,0,0,0,0c-0.4-0.4-0.4,0.1-0.6,0.2c-0.1,0.1-0.1,0.2-0.2,0.1c-0.2,0-0.3,0-0.5,0
		c-0.1,0-0.1,0.3-0.3,0.2c-0.1,0-0.1,0-0.1,0.1c-0.1,0.3-0.4,0.4-0.7,0.5c-0.1,0-0.2,0-0.1,0.1c0,0.1-0.1,0.1-0.2,0.1
		c-0.3-0.3-0.7,0.2-1,0c-0.2,0.4-0.5,0.2-0.8,0.1c-0.1,0-0.2,0.1-0.2,0.2c0,0.3-0.3,0.4-0.5,0.4c-0.3,0-0.4,0.1-0.5,0.3
		c-0.2,0.3-0.6,0.2-0.8,0.5c0,0.1-0.1,0-0.2,0c-0.4-0.3-0.6-0.2-0.7,0.3c0,0.1,0,0.1-0.1,0.2c-0.1,0.2-0.1,0.2-0.3,0.2
		c-0.1,0-0.2,0-0.4,0c-0.1,0-0.2,0-0.2,0.1c-0.2,0.5-0.7,0.3-1.1,0.3c-0.2,0-0.4,0-0.5,0.2c-0.1,0.1-0.2,0.1-0.3,0.1
		c-0.2-0.1-0.3-0.1-0.4-0.2c-0.1-0.1-0.3-0.2-0.4-0.2c-0.1-0.1-0.3,0.1-0.4-0.1c-0.1-0.2-0.2-0.3-0.1-0.5c0.1-0.2-0.2-0.3,0-0.4
		c0,0-0.1-0.1-0.1-0.2c0-0.1-0.1-0.1-0.2-0.2c-0.1,0.1,0,0.2-0.2,0.3c-0.1,0.1-0.2,0.1-0.2,0c-0.1-0.2-0.5-0.1-0.6-0.4
		c0-0.1-0.3,0-0.4,0.2c-0.1,0.2-0.2,0.2-0.3,0.1c-0.2-0.3-0.4-0.4-0.7-0.4c-0.1,0-0.2-0.1-0.2-0.2c-0.1-0.2-0.3-0.2-0.5-0.2
		c-0.1,0-0.2,0-0.3-0.1c-0.2-0.2-0.5-0.3-0.7-0.5c-0.1-0.1-0.2-0.1-0.3-0.1c-0.2,0.1-0.2,0-0.4-0.1c-0.3-0.1-0.4-0.3-0.5-0.4
		c-0.1-0.1-0.1-0.1-0.2-0.1c-0.1-0.1-0.2,0.2-0.3,0.1c-0.1-0.1-0.1-0.2-0.3-0.2c-0.1,0-0.2-0.1-0.3-0.2c-0.1-0.1-0.3-0.2-0.5-0.2
		c-0.1,0-0.2,0-0.2-0.1c-0.1-0.1-0.2-0.2-0.4-0.1c-0.1,0-0.2-0.1-0.2-0.1c-0.2,0,0-0.5-0.3-0.2c-0.1-0.2-0.4,0-0.5-0.3
		c-0.1-0.2-0.3-0.1-0.4-0.3c0,0-0.1-0.1-0.1,0c-0.3,0.1-0.5-0.1-0.8-0.1c-0.2,0-0.5,0.1-0.5-0.3c-0.2-0.1-0.4-0.1-0.5-0.3
		c-0.1-0.1-0.3-0.1-0.3-0.3c0-0.1-0.1-0.2-0.2-0.2c-0.1,0-0.4-0.3-0.5-0.5c0-0.1-0.1-0.1-0.2-0.1c-0.1-0.1-0.3-0.2-0.3-0.3
		c0-0.1-0.1-0.3,0.1-0.3c0.1,0,0.2,0,0.2,0c0-0.1,0-0.3,0.1-0.4c0,0-0.3-0.2-0.4-0.1c-0.1,0-0.1,0.1-0.2,0c-0.1-0.3-0.4-0.3-0.6-0.5
		c-0.1,0-0.2-0.2-0.1-0.2c0.1-0.1,0-0.3,0.1-0.4c0.2-0.3,0-0.5-0.1-0.6c-0.1-0.1-0.1-0.2,0-0.4c0.1-0.2,0.3-0.4,0-0.6
		c0-0.4-0.1-0.8-0.1-1.1c0-0.2,0.1-0.2,0.1-0.4c0-0.1-0.1-0.2-0.1-0.3c0-0.2,0.1-0.4,0.1-0.5c0.2-0.3,0.1-0.7,0.1-1
		c0-0.1,0-0.2-0.1-0.2c-0.3-0.2-0.2-0.5-0.1-0.9c0.1-0.3,0.2-0.7,0.2-1c0-0.2-0.3-0.4,0-0.6c-0.1-0.2-0.1-0.3-0.2-0.4
		c-0.1-0.1-0.1-0.1,0-0.3c0-0.3,0.3-0.5,0-0.8c0.1-0.4-0.1-0.7,0.1-1.1c0,0,0-0.1,0-0.2c-0.1-0.1-0.1-0.3-0.1-0.4
		c0-0.1,0.1-0.2,0.1-0.4c0-0.1-0.1-0.2-0.2-0.3c0,0,0-0.1,0-0.1c-0.1-0.2,0.2-0.3,0.1-0.4c-0.1-0.1-0.1-0.2,0-0.3c0,0,0-0.2,0-0.2
		c-0.2-0.5-0.2-0.5,0-1c0-0.1,0-0.1,0-0.2c0-0.2-0.2-0.3,0-0.6c0.1-0.1-0.1-0.4,0.1-0.6c0,0,0.1-0.2,0-0.3c-0.1-0.1-0.1-0.2,0-0.3
		c0,0,0-0.1,0-0.1c-0.2-0.2-0.1-0.5-0.1-0.8c0-0.3-0.1-0.5,0.1-0.8c0,0,0-0.3-0.1-0.3c-0.2-0.2-0.1-0.4,0-0.6c0.1-0.2,0.2-0.3,0-0.5
		c-0.1-0.1,0-0.1,0-0.2c0.1-0.1,0.3-0.2,0.3-0.5c0-0.2,0.3-0.2,0.3-0.4c0-0.1,0.1-0.2,0.1-0.3c0-0.1-0.1-0.1-0.2-0.2
		c0,0-0.1-0.1-0.1-0.1c0-0.2,0.1-0.4,0-0.5c-0.1-0.2,0-0.3,0-0.4c0-0.2,0-0.3,0.2-0.3c0.1,0,0.1-0.2,0.3-0.2c0.2,0,0.1-0.3,0.3-0.2
		c0.2,0.1,0.3,0,0.4-0.2c0.4-0.4,0.5-0.5,1-0.5c0.2,0,0.3-0.3,0.5-0.3c0.2,0,0.3,0.2,0.5,0.1c0.1,0,0.1,0,0.2-0.1
		c0.1-0.1,0.2-0.2,0.4,0c0.1,0.1,0.3-0.1,0.4-0.2c0.2-0.2,0.4-0.4,0.7-0.3c0,0,0.1-0.1,0.2-0.1c0.1-0.1,0.2-0.1,0.3,0
		c0.1,0.2,0.2,0.1,0.3,0c0.2-0.2,0.5-0.3,0.6-0.6c0-0.1,0.2-0.1,0.2-0.1c0.3,0.2,0.6,0.5,1,0.5c0,0.2,0.4,0.3,0.3,0.6
		c-0.1,0.3,0.1,0.5,0.3,0.8c0,0.1,0.3,0.1,0.1,0.3c0,0,0,0.1,0.1,0.1c0.1,0,0.1,0.1,0.1,0.2c-0.2,0.2-0.1,0.3,0.1,0.4
		c0.1,0.1,0.1,0.2,0,0.2c0,0-0.1,0.1,0,0.1c0.3,0.2,0,0.4,0.1,0.6c0,0.1-0.1,0.1-0.1,0.1c-0.2,0-0.4,0.1-0.5,0.2
		c-0.1,0.2-0.2,0.4-0.5,0.4c-0.2,0.2-0.5,0.3-0.7,0.5c-0.2,0.2-0.4,0.2-0.7,0.3c-0.1,0-0.3,0.1-0.3,0.2c0,0.1,0.3,0.4,0.4,0.4
		c0.2,0,0.4,0.2,0.6,0.1c0.2,0,0.1,0.2,0.3,0.2c0.1,0,0.3,0,0.4,0c0.1,0,0.1,0.1,0.2,0.1c0.1,0.1,0.3,0.3,0.3,0.4
		c0.1-0.2,0.3-0.1,0.5-0.1c0.2,0,0.1,0.2,0.2,0.2c0.3,0.1,0.4,0.6,0.9,0.4c0.1,0.3,0.5,0.2,0.6,0.4c0.1,0.1,0.2,0.1,0.3,0.2
		c0.1,0.1,0.1,0,0.1,0c0,0,0.1-0.1,0-0.2c0,0-0.1-0.1-0.1-0.1c-0.2-0.3-0.3-0.4,0-0.8c0.1-0.1,0.1-0.2,0.2-0.3
		c0.1-0.1,0.1-0.2,0-0.3c-0.3-0.3-0.5-0.6-0.3-1.1c0,0,0-0.1,0-0.2c-0.2-0.1-0.1-0.2,0-0.3c0.1-0.1,0.1-0.2,0.1-0.2
		c0.1-0.1,0.1-0.2,0-0.3c-0.2-0.1-0.3-0.1-0.1-0.3c0.1-0.1,0.1-0.3,0-0.3c-0.2-0.2-0.2-0.3,0-0.5c0,0,0-0.1,0-0.2
		c-0.1-0.1-0.1-0.2,0-0.3c0.2-0.2,0.2-0.3,0-0.4c-0.1-0.1-0.1-0.2,0-0.3c0.2-0.2,0.2-0.3,0-0.6c-0.1-0.1-0.2-0.2,0-0.4
		c0.1,0,0.1-0.2,0.2-0.3c0.1-0.1,0.1-0.2,0-0.3c-0.3-0.2-0.2-0.5-0.2-0.8c-0.1-0.2-0.1-0.4,0.1-0.5c0.1-0.1,0.3-0.3,0.1-0.4
		c-0.1-0.2,0.1-0.3,0-0.4c-0.2-0.3-0.1-0.6-0.1-0.9c0-0.4,0-0.4-0.1-0.6c-0.1-0.2-0.2-0.3,0-0.5c0.1-0.1,0.1-0.2,0.2-0.3
		c0.2-0.4,0.2-0.6-0.1-0.9c-0.2-0.3-0.2-0.3,0-0.6c0.1-0.1,0.1-0.1,0-0.3c-0.2-0.3,0-0.6-0.1-0.9c0,0,0-0.1,0.1-0.1
		c0.3-0.2,0.2-0.3,0-0.5c-0.1-0.1,0-0.1,0-0.1c0.1-0.1,0-0.2,0-0.3c0-0.3-0.3-0.6,0-0.9c-0.2-0.1-0.1-0.3,0-0.4
		c0.1-0.2-0.1-0.4-0.2-0.5c-0.1-0.1-0.1-0.1,0-0.2c0.1-0.1,0.2-0.2,0.3-0.3c-0.2-0.2-0.1-0.3,0-0.5c0,0-0.1-0.1-0.1-0.1
		c-0.1-0.1-0.2-0.2,0-0.3c0.1-0.1,0.1-0.2,0-0.3c-0.1-0.1-0.3-0.2-0.2-0.3c0.1-0.2,0-0.4,0.2-0.6c0.1-0.1,0.1-0.2,0.1-0.2
		c0,0,0.1,0,0.1-0.1c-0.1-0.1-0.3-0.2-0.1-0.4c0.1-0.1-0.2-0.2-0.1-0.4c0.1-0.2,0-0.3-0.1-0.4c0,0,0,0,0-0.1c0-0.2,0.2-0.3,0.1-0.5
		c-0.1-0.2-0.1-0.3-0.1-0.5c0-0.1,0-0.2,0.1-0.3c0.1-0.2,0.1-0.4-0.1-0.5c-0.2-0.1-0.1-0.3,0-0.5c0.1-0.1,0.1-0.2,0.1-0.2
		c-0.1-0.1-0.1-0.1-0.1-0.2c0-0.1-0.1-0.1,0-0.2c0.2-0.2,0.1-0.4,0-0.5c-0.1-0.2-0.1-0.5-0.1-0.7c0-0.1,0-0.2,0.1-0.3
		c0.2-0.1,0.1-0.3,0.1-0.5c-0.1-0.3-0.2-1.1-0.2-1.3c0-0.1,0.2-0.3,0.1-0.4c-0.1-0.2,0-0.4,0.1-0.7c0.1-0.2,0.1-0.5,0-0.7
		c0-0.1-0.1-0.1,0-0.2c0.2-0.1,0.1-0.2,0-0.3c-0.1-0.1-0.1-0.1-0.1-0.2c0.1-0.3,0.1-0.7,0-1c0,0,0.1-0.1,0-0.2
		c-0.2-0.1-0.2-0.4-0.1-0.6c0.1-0.3,0-0.6-0.1-0.9c0,0-0.1,0,0-0.1c0.1-0.1,0.3-0.1,0.1-0.3c-0.1-0.1,0.1-0.2,0.1-0.4
		c0-0.1,0-0.3-0.1-0.4c-0.1,0,0-0.2,0.1-0.2c0.1-0.1,0.1-0.2,0.2-0.3c0.1-0.1,0.1-0.1,0-0.2c-0.2-0.1-0.1-0.3-0.1-0.5
		c0-0.1,0-0.3-0.2-0.3c-0.1,0-0.1-0.2,0-0.3c0.1-0.2,0.3-0.3,0.2-0.5c0,0,0.1,0,0.1-0.1c0.2-0.1,0.4-0.2,0.5-0.3
		c0.1-0.1,0.2-0.1,0.2-0.2c0-0.1,0-0.3,0.2-0.3c0,0,0.1-0.1,0-0.1c-0.2-0.2,0-0.3,0.1-0.4c0.1-0.1,0.2-0.3,0.3-0.4
		c0.1-0.1,0.2-0.2,0.2-0.3c0.1-0.1,0.1-0.2,0.3,0c0,0,0.1,0,0.2,0c0.2-0.3,0.6-0.3,0.8-0.5c0.1-0.1,0.2-0.1,0.3,0
		c0.3,0,0.5-0.2,0.8-0.1c0.1,0,0.1-0.1,0.2-0.1c0.1-0.2,0.3-0.2,0.5-0.1c0.2,0.1,0.3-0.1,0.3-0.2c0-0.1,0-0.1,0.1-0.2
		c0.2,0,0.4,0.1,0.5-0.1c0.1-0.2,0.4,0,0.5-0.3c0-0.1,0.1-0.1,0.2-0.1c0.1,0,0.2,0.1,0.3-0.2c0-0.2,0.3,0,0.4-0.1
		c0.1-0.1,0.1-0.2,0.3-0.2c0.2,0,0.4,0,0.6,0c0.1,0,0.2,0,0.3-0.2c0-0.1,0.1-0.2,0.3-0.2c0.1,0,0.2-0.1,0.3-0.1
		c0.3-0.1,0.5-0.3,0.8-0.2c0.1-0.2,0.5,0,0.5-0.4c0-0.1,0.1-0.1,0.2-0.1c0.3,0.1,0.5-0.1,0.7-0.2c0.1,0,0.1-0.1,0.2-0.1
		c0.3,0.1,0.5-0.2,0.8,0c0,0,0.1,0.1,0.1,0c0.1-0.4,0.4-0.3,0.6-0.3c0.2,0,0.3,0,0.5,0c0.1,0,0.2,0,0.2-0.2c0-0.1,0.1-0.2,0.3-0.2
		c0.2,0,0.4,0.1,0.5-0.2c0.3,0,0.6-0.1,0.8-0.3c0.1-0.1,0.4,0,0.6,0c0.1,0,0.2,0,0.2-0.1c0.1-0.2,0.1-0.4,0.3-0.4
		c0.2,0,0.3-0.1,0.5-0.2c0.1-0.1,0.2,0,0.2,0c0.3,0,0.6-0.1,0.8-0.3c0.1-0.1,0.3-0.2,0.4-0.2c0.2,0,0.3-0.1,0.5-0.2
		c0.2-0.1,0.4,0,0.5-0.1c0.1-0.1,0.4,0,0.5,0c0.2,0,0.3-0.1,0.5-0.1c0.1,0,0.1-0.3,0.4-0.2c0.2,0.1,0.2-0.2,0.3-0.3
		c0.2-0.1,0.4-0.3,0.6-0.4c0.1,0,0.2-0.1,0.2-0.2c0-0.2,0.1-0.2,0.2-0.2c0.2,0,0.3,0,0.5-0.1c0.2-0.2,0.5-0.1,0.8-0.3
		c0.1-0.1,0.2,0,0.3,0.1c0,0,0.2,0,0.2,0c0.1-0.4,0.6-0.1,0.7-0.5c0-0.1,0.2-0.2,0.3-0.2c0.4,0,0.8-0.3,1.3-0.2c0,0,0.1,0,0.1,0
		c0.2-0.2,0.3-0.4,0.6-0.4c0.2,0,0.4-0.2,0.6-0.2c0.2,0,0.1-0.3,0.3-0.2c0.1,0.1,0.2-0.2,0.3,0c0.1-0.1,0.2-0.2,0.3-0.3
		c0.1-0.1,0.2-0.2,0.4-0.1c0.1,0,0.4,0.1,0.4-0.2c0.4-0.1,0.5-0.6,1-0.6c0.1,0,0.2,0,0.3,0c0.1,0,0.2,0,0.3-0.1
		c0.1-0.1,0.2-0.2,0.3,0c0.1,0.1,0.1,0,0.1-0.1c0.1-0.2,0.5,0,0.5-0.4c0-0.2,0.3,0.2,0.4,0c0.1-0.1,0.1-0.3,0.3-0.4
		c0.2-0.1,0.4-0.1,0.5-0.3c0,0,0.1,0.1,0.1,0.1c0.1,0,0.3,0.1,0.3-0.1c0-0.2,0.2-0.2,0.4-0.2c0.3,0,0.5,0.1,0.8-0.1
		c0.1-0.1,0.2-0.1,0.2-0.2c0.3-0.3,0.3-0.3,0.6-0.1c0.2,0.1,0.3,0.1,0.4-0.1c0.1-0.3,0.2-0.4,0.5-0.4c0.1,0,0.2-0.1,0.2-0.2
		c0.1-0.1,0.2-0.2,0.4-0.2c0.2,0,0.4,0.1,0.5-0.2c0,0,0.1,0,0.2,0c0.1,0,0.2,0,0.2-0.1c0-0.4,0.3-0.2,0.5-0.2c0.1,0,0.2,0,0.4,0
		c0.2,0,0.3-0.1,0.4-0.2c0.3-0.4,0.4-0.4,0.8-0.4c0.2,0,0.4,0,0.5,0c0.4,0,0.4,0,0.4-0.4c0,0,0-0.1,0-0.1c0.1-0.1,0.3,0,0.4,0
		c0.4,0,0.7-0.1,1-0.4c0.1-0.1,0.1,0,0.2,0c0.1,0,0.2,0,0.2-0.1c0.1-0.3,0.2-0.4,0.4-0.2c0,0,0.1,0,0.2-0.1c0-0.1-0.1-0.3,0-0.3
		c0.1-0.1,0.3-0.1,0.4,0c0.2,0.2,0.2-0.1,0.4-0.1c0-0.3,0.4-0.2,0.4-0.2c0.2,0.2,0.4,0.1,0.4-0.1c0.1-0.3,0.2-0.2,0.3-0.1
		c0.1,0,0.1,0.1,0.2,0c0.1-0.1,0.2-0.2,0.3-0.4c0.1-0.1,0.3,0,0.4-0.1c0.2-0.2,0.4-0.3,0.7-0.2c0.1,0,0.2,0,0.2-0.1
		c0.1-0.1,0.2-0.2,0.3-0.1c0,0,0.2-0.1,0.2-0.3c0-0.1,0.1-0.1,0.2-0.1c0.1,0,0.3,0,0.4,0c0.3,0.1,0.5-0.1,0.6-0.3
		c0.1-0.3,0.4-0.4,0.6-0.3c0.3,0.1,0.3-0.2,0.5-0.2c0,0,0-0.2,0.1-0.1c0.4,0.1,0.6-0.3,0.9-0.3c0.2-0.3,0.5-0.2,0.7-0.2
		c0.1,0,0.2,0,0.3-0.1C84.5,9,85,9.1,85.2,8.8c0.1-0.1,0.4-0.1,0.4,0c0.4,0.3,0.7-0.1,1-0.2c0.1,0,0.2-0.2,0.3-0.2
		C87,8.2,87,8.1,87.2,8.1c0.1,0,0.2-0.2,0.3,0C87.6,8,87.7,8,87.7,7.8c0,0,0.1-0.1,0.1-0.1c0.3,0.1,0.7-0.3,1-0.1
		c0.1,0.1,0.1,0,0.2-0.1c0.1-0.1,0.3-0.2,0.4-0.2c0.3,0,0.5-0.1,0.6-0.4c0.1-0.3,0.2-0.3,0.5-0.1c0.2,0.1,0.3,0,0.3-0.1
		c0.1-0.2,0.2-0.4,0.5-0.4c0.2,0,0.3-0.2,0.5-0.3c0.1,0,0.3-0.1,0.3,0c0.3,0.3,0.7,0.1,0.9,0c0.2-0.1,0.5-0.2,0.6-0.4
		c0.1-0.2,0.3-0.2,0.3-0.1c0.2,0.2,0.3,0.1,0.4,0c0.1-0.1,0.1-0.2,0.2-0.2c0,0,0.1,0.2,0.2,0c0-0.2,0.2-0.1,0.3-0.1
		C95,5.1,95,5,95.1,5c0.1,0,0.2-0.1,0.2-0.1c0.1-0.1,0.2,0.2,0.3,0c0.1-0.1,0.2-0.2,0.3-0.2c0.1,0,0.1,0,0.2-0.1
		c0.3-0.4,0.8-0.2,1.2-0.5c0,0,0.1,0,0.1,0c0.2,0.2,0.3,0.1,0.4-0.1c0.3-0.3,0.6-0.4,0.9-0.6c0.2-0.1,0.2,0.1,0.3,0
		c0.1-0.1,0.2-0.2,0.4-0.2c0.1,0,0.2-0.1,0.4-0.1c0.1,0,0.3-0.1,0.4-0.2c0.2-0.2,0.5-0.2,0.7-0.4c0.2-0.2,0.5-0.2,0.7-0.2
		c0.1,0,0.3-0.1,0.4-0.1c0.1,0,0.3,0,0.4-0.1c0-0.1,0.1-0.1,0.2-0.1c0.4,0.1,0.6-0.2,0.9-0.2c0.2,0,0.1-0.2,0.2-0.3
		c0.1-0.1,0.2-0.2,0.3-0.3c0.1,0,0.1,0.1,0.2,0.1c0.1,0,0.1,0.2,0.2,0c0.1-0.2,0.3-0.2,0.4-0.4c0.2-0.3,0.5,0,0.7-0.3
		c0.2,0.2,0.3,0.1,0.4-0.1c0.2-0.2,0.4-0.3,0.7-0.3c0.1,0,0.1,0,0.2,0c0.1-0.1,0.1-0.2,0.2-0.1c0.1,0.1,0.2,0.1,0.3,0
		c0.1-0.1,0.2,0.1,0.2,0.1c0.1,0.1,0.2,0.3,0.5,0.1c0.2-0.1,0.8,0.4,0.7,0.7c-0.1,0.2,0,0.2,0.1,0.3c0.1,0.1,0.1,0.1,0.1,0.2
		c0,0.3,0,0.3,0.2,0.5c0.1,0.1,0.1,0.1,0.1,0.2c0,0.1,0,0.2,0.1,0.1c0,0,0.1,0,0.2,0c0.2-0.1,0.3,0,0.3,0.1c-0.1,0.2,0.1,0.4,0,0.6
		c-0.1,0.2,0.1,0.4,0.2,0.5c0,0.1,0,0.1,0,0.1c-0.2,0.2-0.2,0.4-0.1,0.6c0.1,0.2,0.1,0.3,0,0.4c-0.2,0.3-0.2,0.6-0.1,1
		c0,0.1,0.2,0.2,0,0.4c-0.1,0,0,0.1,0.1,0.2c0.2,0.1,0.2,0.4,0.1,0.5c-0.1,0.2,0,0.2,0,0.3c0,0.1,0.1,0.2,0,0.4
		c-0.2,0.2-0.1,0.5,0,0.7c0.1,0.2,0.2,0.4-0.1,0.5c-0.1,0.1-0.1,0.2-0.2,0.3c0.1,0.1,0.1,0.2,0.1,0.2c0.1,0.1,0.1,0.2,0.1,0.3
		c-0.1,0.3-0.1,0.6,0,0.9l0.1,0.6c-0.1,0.2-0.1,0.3-0.1,0.5c0,0.2,0.1,0.4-0.1,0.6c-0.1,0.1,0,0.2,0,0.2c0.1,0.3,0.3,0.6,0.1,0.9
		c-0.1,0.2,0,0.5,0,0.8c0,0.1,0,0.1,0.1,0.2c0.1,0.1,0.1,0.1,0,0.3c-0.1,0.1,0,0.3,0.1,0.4c-0.3,0.2-0.2,0.4,0,0.6c0,0,0,0.1,0,0.2
		c-0.2,0.1-0.1,0.3-0.1,0.4c0,0.2,0,0.3-0.1,0.5c-0.1,0.1-0.1,0.3,0,0.4c0.4,0.4,0.1,0.7,0,1.1c0,0.1-0.3,0.2-0.1,0.4
		c0,0,0,0.1,0,0.1c-0.1,0-0.3,0-0.4,0.1c0-0.1-0.1-0.1-0.1-0.2c-0.1,0.1-0.2,0.2-0.2,0.3c0,0.2-0.1,0.2-0.2,0.2
		c-0.1,0-0.2,0-0.3,0.1c0,0-0.2,0.1-0.2,0c-0.2-0.2-0.4-0.3-0.5,0.1c0,0.1-0.2,0.1-0.3,0c-0.1-0.3-0.3-0.1-0.5-0.1
		c-0.2,0-0.4-0.1-0.4,0.2c0,0.1-0.1,0-0.2,0c-0.1,0-0.5,0-0.6,0c-0.1,0.1-0.2,0.1-0.4,0c-0.4-0.2-0.5-0.2-0.7-0.5
		c0-0.1-0.1-0.1-0.1-0.2c-0.1-0.1-0.2-0.2-0.2-0.3c0-0.1,0.1-0.2,0.2-0.3c0-0.1,0.1-0.1,0-0.2c-0.3-0.3,0.1-0.7-0.2-1
		c0,0,0-0.1,0-0.2c0.2-0.1,0.1-0.3,0-0.5c-0.1-0.1-0.1-0.3-0.1-0.3c0.3-0.3,0-0.6,0-0.9c-0.1-0.3-0.1-0.5,0.1-0.7
		c0,0,0.1-0.1,0.1-0.1c-0.2-0.2,0.1-0.4,0-0.6c0-0.1-0.1-0.1-0.1-0.1c-0.2-0.3-0.2-0.5,0-0.8c0-0.1,0.1-0.1,0-0.2
		c-0.2-0.3-0.1-0.5,0-0.7c0.2-0.3,0.2-0.3,0-0.5c-0.3-0.3-0.3-0.9-0.1-1.2c0.1-0.1,0.1-0.2,0-0.3c-0.1-0.1-0.1-0.1,0-0.3
		c0.1-0.1-0.1-0.4,0.1-0.6c0,0,0,0,0,0c-0.4-0.2-0.1-0.5-0.1-0.8c0-0.2-0.2-0.4-0.1-0.7c-0.2-0.1-0.1-0.4-0.2-0.5
		c-0.3,0.3-0.5,0.6-0.9,0.6c-0.2,0-0.3,0.2-0.5,0.3c-0.2,0.1-0.5,0-0.5,0.3c0,0.1,0,0-0.1,0c-0.2-0.2-0.3,0-0.4,0.1
		c0,0.2-0.1,0.2-0.2,0.2c-0.3,0-0.5,0-0.7,0.2c0,0-0.1,0-0.1,0c-0.3,0-0.3,0-0.4,0.2c-0.1,0.1-0.3,0.2-0.4,0.3c0,0-0.1,0-0.2,0
		c0,0-0.5,0.1-0.5,0.1c-0.2,0-0.1,0.2-0.2,0.2c-0.1,0-0.2,0-0.4,0c-0.1,0-0.2,0-0.4,0c-0.2,0-0.4,0-0.4,0.2c0,0.1-0.1,0.2-0.2,0.2
		c-0.3,0.3-0.7,0.3-1,0.2c-0.2,0-0.3,0-0.3,0.2c0,0.1-0.1,0.2-0.3,0.2c-0.1,0-0.2,0-0.2,0c-0.1,0-0.3,0-0.4,0c-0.2,0,0,0.3-0.3,0.2
		c-0.2,0.2-0.4,0.3-0.7,0.2c-0.3-0.1-0.5,0-0.7,0.3c-0.2,0.2-0.5,0.3-0.6,0.5c0,0-0.1,0-0.1,0c-0.1,0-0.2-0.2-0.4,0
		c-0.1,0.2-0.3,0.1-0.5,0.1c-0.2,0-0.3,0-0.5,0c-0.1,0-0.1,0-0.2,0.1c-0.1,0.1-0.1,0.2-0.1,0.4c-0.2,0-0.3,0-0.5,0
		c-0.1,0-0.1,0-0.2,0c-0.2,0.5-0.6,0.3-1,0.4c-0.3,0.1-0.7-0.1-0.9,0.4c-0.3-0.1-0.5,0.2-0.6,0.4c-0.1,0.2-0.1,0.2-0.3,0.1
		c-0.2-0.1-0.5-0.2-0.7,0.1c-0.1,0.2-0.3,0-0.4,0.2c-0.1,0.1-0.2,0.2-0.3,0.3c-0.1,0.1-0.1,0-0.2,0.1c-0.1,0-0.2,0-0.3,0.1
		c-0.2,0.2-0.5,0.2-0.7,0.1c-0.1-0.1-0.2-0.1-0.2,0.1c0,0.2-0.5,0.2-0.1,0.4c-0.1,0.2-0.8,0.8-1,0.8c-0.2,0-0.3-0.2-0.6-0.1
		c-0.1,0-0.2,0-0.2,0c-0.1,0.5-0.7,0.2-0.8,0.6c-0.4,0-0.6,0.2-1,0.2c-0.4,0.1-0.8,0.2-1.1,0.5c-0.2,0.2-0.4,0.2-0.6,0.1
		c-0.1-0.1-0.2-0.1-0.3,0c-0.3,0.3-0.7,0.3-1.1,0.5c-0.1,0.1-0.3,0.1-0.4,0.1c-0.1,0-0.4-0.1-0.4,0.2c0,0.1-0.1,0-0.2,0
		c-0.4,0-0.7,0.1-1,0.5c-0.2,0.2-0.3,0.3-0.5,0.1c-0.2-0.1-0.3,0-0.3,0.1c0,0.2-0.2,0.2-0.2,0.3c-0.1,0.1-0.2,0.1-0.3,0.1
		c-0.4-0.1-0.6,0-0.8,0.2c-0.2,0.2-0.3,0.3-0.6,0.4c-0.3,0.1-0.5,0.3-0.9,0.4c-0.1,0-0.3,0.1-0.4,0c-0.3,0-0.3,0-0.5,0.2
		c-0.2,0.3-0.4,0.3-0.8,0.3c-0.1,0-0.2,0-0.2,0c-0.2,0.3-0.7,0.2-0.9,0.7c-0.1-0.1-0.1-0.2-0.2-0.4c-0.2,0.4-0.3,0.5-0.8,0.4
		c-0.1,0-0.2,0-0.3,0.1c-0.1,0.1-0.2,0.2-0.3,0.3c-0.1,0.1-0.1,0.1-0.3,0c-0.1-0.1-0.4,0.1-0.5,0.2c-0.1,0.1-0.1,0.2-0.2,0.2
		c-0.3-0.1-0.5,0.3-0.7,0.2c-0.2,0-0.1,0.2-0.3,0.2c-0.1,0-0.3,0-0.4,0c0,0-0.1,0-0.1,0.1c-0.2,0.2-0.4,0.4-0.7,0.3
		c-0.1,0-0.1,0-0.1,0.1c0,0.2-0.1,0.2-0.2,0.1c-0.2-0.1-0.4-0.2-0.5,0.1c-0.1,0.2-0.3,0.1-0.5,0.2c-0.1,0.1-0.2,0.2-0.4,0.1
		c-0.1-0.1-0.4-0.1-0.4,0.2c-0.3,0.1-0.4,0.4-0.7,0.3c-0.1,0-0.3,0.2-0.4,0c-0.1,0.1-0.2,0.2-0.3,0.3c-0.2,0.3-0.6,0.4-0.8,0.6
		c0,0-0.1,0-0.1,0.1c-0.2-0.3-0.3,0.1-0.5,0c-0.3-0.1-0.4-0.1-0.5,0.1c-0.1,0.2-0.2,0.4-0.4,0.2c-0.1,0.2-0.4,0.2-0.5,0.3
		c-0.1,0.1-0.1,0.2-0.2,0.2c-0.1,0-0.2-0.1-0.3-0.1c0,0-0.1-0.1-0.1-0.1c-0.2,0-0.3,0.2-0.4,0.3c-0.1,0.1-0.3,0-0.3,0.2
		c0,0.1-0.1,0.1-0.2,0.1c-0.1,0.1-0.2-0.2-0.3-0.1c-0.2,0.2-0.5,0.2-0.6,0.4c-0.1,0.2-0.2,0.3-0.4,0.1c-0.2-0.1-0.4-0.1-0.5,0.2
		c-0.1,0.2-0.4,0.5-0.7,0.4c-0.2-0.1-0.5,0.2-0.7,0.1c-0.1,0.2-0.3,0.3-0.5,0.5c-0.1,0.1-0.3,0.2-0.4,0.1c-0.2-0.2-0.3,0-0.4,0.1
		c-0.5,0.5-0.5,0.5-1.2,0.5c-0.1,0-0.2,0-0.2,0.2c0,0.2-0.3,0-0.3,0.1c0,0.1-0.1,0.2-0.2,0.2c-0.2,0-0.5,0.1-0.7,0.2
		c-0.2,0.1-0.3,0.2-0.5,0.1c-0.2,0-0.4,0.1-0.5,0.2c-0.1,0.1-0.2,0.3-0.4,0.1c0,0-0.1,0-0.2,0c-0.2,0.3-0.6,0.3-0.8,0.6
		c-0.1,0.2-0.3,0-0.5,0.2c-0.1,0.1-0.2,0.2-0.3,0.3c-0.1,0.1-0.3-0.1-0.3-0.1c-0.2,0.3-0.7,0.2-0.8,0.6c0,0-0.1,0.1-0.1,0.1
		c-0.4-0.1-0.7,0.4-1.1,0.2c-0.3-0.1-0.5,0.1-0.6,0.3c-0.1,0.2-0.1,0.2-0.3,0.2c-0.1,0-0.3,0-0.4,0c-0.1,0-0.1,0.1-0.2,0.2
		c-0.1,0.2-0.2,0.4-0.5,0.3c-0.1,0-0.1,0-0.2,0c-0.4,0-0.5,0-0.7,0.4c-0.1,0.1-0.1,0.2-0.3,0.2c-0.3,0-0.6,0.1-0.9,0.3
		c-0.2,0.3-0.5,0.3-0.9,0.3c-0.2,0-0.3,0.1-0.4,0.2c-0.1,0.2-0.2,0.4-0.2,0.7c0,0.1,0,0.2-0.1,0.3c-0.1,0.2-0.1,0.4,0,0.6
		c0.1,0.2,0.1,0.3,0,0.5c-0.1,0.3,0,0.7-0.3,0.9c0.3,0.1-0.1,0.4,0.1,0.6c0.1,0.1,0.2,0.3,0,0.5c-0.1,0.3-0.1,0.6-0.3,0.8
		c0,0,0,0.1,0,0.2c0.1,0.1,0.1,0.1,0.2,0.2c0,0.2,0.2,0.3,0.3,0.4c-0.2,0.2-0.1,0.5-0.1,0.7c0,0.1-0.1,0.1-0.2,0.2c0,0-0.1,0,0,0.1
		c0.3,0.6,0.3,0.8,0.1,1.2c-0.1,0.1-0.1,0.2,0,0.4c0.2,0.2,0.1,0.5,0,0.7c-0.1,0.1,0,0.2-0.1,0.3c-0.1,0.1-0.1,0.1,0,0.2
		c0.2,0.3,0.2,0.4,0,0.6c-0.1,0.1-0.2,0.3-0.1,0.4c0.2,0.3,0,0.4-0.1,0.7c0.1,0,0.1,0.1,0.2,0.1c0.2,0.1,0.2,0.2,0.1,0.4
		c-0.1,0.1-0.2,0.2,0,0.4c0.1,0.1,0.1,0.3,0,0.3c-0.2,0.3-0.1,0.5,0.1,0.8c0,0,0,0.1,0,0.1c-0.3,0.2,0,0.5,0,0.7
		c0,0.3-0.1,0.6-0.2,0.8c-0.1,0.2,0,0.2,0.1,0.3c0.2,0.2,0.2,0.4,0,0.6c-0.1,0.2-0.2,0.3,0.1,0.3c0.1,0,0.1,0.2,0,0.2
		c-0.1,0.2-0.1,0.4-0.1,0.7c0,0,0,0,0,0.1c-0.1,0.2-0.3,0.3-0.1,0.5c0.2,0.2,0,0.4,0.2,0.6c0.1,0.1,0.1,0.2,0,0.2
		c-0.2,0.3,0,0.7-0.2,1c0,0,0,0.1,0,0.1c0.2,0.1,0.1,0.3,0.1,0.4c0,0.1,0,0.1,0.1,0.2c0.1,0.1,0.1,0.3,0,0.4c-0.1,0.1-0.1,0.1,0,0.2
		c0.3,0.4,0.1,0.8-0.2,1.1c-0.1,0.1-0.1,0.2,0,0.2c0.1,0,0.2,0.2,0.3,0.1c0,0,0.1-0.1,0.1-0.1c0.3-0.3,0.3-0.3,0.7-0.2
		c0.2,0,0.3,0,0.3-0.2c0-0.2,0.2-0.4,0-0.6c0.1-0.2,0.1-0.4,0.2-0.5c0.1-0.1,0.1-0.3,0-0.4c-0.2-0.1,0.1-0.2,0-0.3
		c-0.1-0.1-0.1-0.2-0.2-0.3c0-0.1,0-0.2,0.1-0.2c0.1-0.1,0.1-0.2,0.1-0.4c0-0.2-0.1-0.3-0.1-0.4c-0.1-0.1,0.3-0.2,0-0.4
		c0,0,0,0,0-0.1c0.1-0.3,0.2-0.5,0-0.8c-0.1-0.1,0-0.2,0.1-0.3c0.4-0.4,0.3-0.9,0.2-1.4C41,49.2,41,49,41.2,48.8
		c0.2-0.2,0.2-0.5,0.3-0.8c-0.2-0.2,0.1-0.3,0-0.5c0-0.1,0-0.2,0.2-0.2c0.1,0,0.1-0.1,0-0.2c-0.1-0.2-0.2-0.4,0.1-0.5
		c0-0.2,0.3-0.4,0.1-0.6c-0.1-0.2-0.1-0.3,0-0.4c0.1-0.1,0.2-0.1,0.2-0.2c0,0-0.1-0.1-0.1-0.2c0-0.1,0.2-0.1,0.1-0.3
		c0-0.1,0.2-0.1,0-0.3c-0.1-0.1,0.1,0,0.2-0.1c0-0.1,0.1-0.2,0.1-0.2c0.2-0.2,0-0.5,0.2-0.6c0.3-0.1,0.1-0.4,0.2-0.6
		c0.1-0.1,0-0.1,0-0.1c-0.1-0.3-0.1-0.5,0.3-0.6c0.2-0.1,0.2-0.3,0.3-0.5c0.1-0.3,0-0.7,0.5-0.8c0.1,0,0.1-0.2,0.1-0.3
		c-0.1-0.3,0.1-0.5,0.3-0.7c0.2-0.1,0.2-0.3,0.3-0.5c0.1-0.3,0.3-0.7,0.5-1c0.1-0.2,0.3-0.4,0.6-0.5c0.1,0,0.1,0,0.1-0.1
		c0-0.3,0.2-0.5,0.3-0.7c0.1-0.1,0.1-0.2,0.2-0.2c0.1,0,0.1,0,0.1-0.1c0.4-0.4,0.5-0.4,1-0.3c0.1,0,0.3,0.2,0.5,0
		c0.1,0.1,0.3,0.1,0.4,0.2c0.3-0.2,0.6-0.1,1-0.1c0.1,0,0.2,0,0.3,0c0.2,0.1,0.3,0.4,0.6,0.4c0.2,0,0.4,0.3,0.6,0.3
		c0.1,0,0.1,0,0.1,0.1c0,0.4,0.3,0.4,0.5,0.5c0.2,0,0.2,0.1,0.2,0.2c0,0.1,0,0.1,0.1,0.2c0.1,0,0.1-0.2,0.2-0.1c0,0.1,0,0.1,0.1,0.2
		c0.2,0.1,0.3,0.2,0.5,0.2c0.2,0,0.3,0.1,0.5,0.1c0.2,0,0.2,0.2,0.3,0.3c0.1,0.1,0.3,0,0.5,0c0.1,0,0.1,0.1,0.1,0.2
		c0.1,0,0.2,0.3,0.4,0.1c0.1-0.1,0.3-0.1,0.3,0.2c0,0.2,0.2,0.2,0.4,0.1c0.2-0.2,0.3-0.1,0.4,0.1c0.1,0.1,0.1,0.1,0.1,0
		c0.1-0.1,0.3-0.1,0.3,0c0.1,0.2,0.2,0,0.4,0.1c0.1,0.1,0.3,0.2,0.5,0c0-0.1,0.1-0.1,0.2,0c0.2,0.2,0.3,0.1,0.4,0
		c0.3-0.1,0.6,0,0.9,0.2c0.1,0.1,0.2,0.1,0.3,0c0.1-0.2,0.4-0.2,0.3-0.5c0-0.1,0-0.1,0.1-0.1c0.2,0.1,0.3-0.2,0.4-0.1
		c0.2,0,0.2-0.1,0.2-0.2c0-0.1,0-0.2,0-0.2c0-0.1,0.1-0.2,0.2-0.2c0.2,0,0.3-0.4,0.6-0.3c0,0,0,0,0,0c-0.1-0.4,0.1-0.5,0.4-0.4
		c0-0.4,0.7-0.3,0.7-0.7c0-0.1,0.1-0.1,0.2-0.1c0.1-0.1,0.4-0.1,0.4-0.3c0,0,0,0,0,0c0.5-0.1,0.7-0.6,1-0.9c0.1-0.1,0.3-0.2,0.5-0.3
		c0.2-0.1,0.4-0.2,0.5-0.5c0.1-0.2,0.3-0.4,0.6-0.3c0.1,0,0.1,0,0.2-0.1c0.1-0.3,0.3-0.4,0.6-0.4c0.2,0,0.3,0,0.7-0.4
		c0,0,0.1-0.2,0.2-0.1c0.2,0.2,0.6,0.2,0.7,0.5c0.1,0.1,0.1,0,0.2,0c0.2,0,0.4,0.2,0.3,0.3c0,0.1-0.2,0.3,0.1,0.2
		c0.2,0,0.1,0.3,0.3,0.3c0.2,0-0.1,0.4,0.2,0.5c0.2,0.1,0.1,0.4,0.1,0.5c-0.1,0.4,0,0.5,0.4,0.7c0.1,0,0.2,0.1,0.3,0.1
		c0.1,0,0.2,0.1,0.1,0.3c-0.1,0.1,0.3,0.2,0.1,0.4c-0.2,0.1,0,0.2,0,0.3c0,0.2-0.3,0.6-0.4,0.6c-0.2,0-0.5,0.1-0.7,0.2
		c-0.2,0.1-0.3,0.2-0.3,0.4c0,0.2-0.1,0.3-0.3,0.3c-0.3,0-0.4,0.2-0.6,0.4c-0.1,0.1-0.2,0.2-0.4,0.2c0,0.1,0.1,0.1,0.2,0.1
		c0.1,0.1,0.1,0.1,0.3,0c0.2,0,0.5-0.1,0.7,0.2c0,0,0.1,0.1,0.1,0.1c0.2,0.2,0.2,0.2,0.3,0.1c0.1-0.3,0.2-0.3,0.4-0.1l0.5,0
		c0.2-0.2,0.5,0.1,0.7,0c0.1-0.1,0.3,0.2,0.3,0.3c0,0.2,0.1,0.2,0.3,0.2c0.2,0,0.4,0.1,0.3,0.3c-0.1,0.4,0.1,0.6,0.4,0.9
		c0.3,0.3,0.3,0.3,0.1,0.6c0,0.1-0.1,0.2,0,0.3c0,0,0,0.1,0,0.2c-0.3,0.2,0,0.4,0.1,0.5c0,0,0.1,0.1,0.1,0.1
		c-0.1,0.1-0.2,0.3-0.3,0.4c-0.1,0.1-0.1,0.2,0,0.2c0.2,0.1,0.2,0.2,0,0.4c-0.2,0.1-0.3,0.3-0.2,0.5c0,0.1-0.1,0.1-0.1,0.2
		c0,0.1,0.1,0,0.2,0.1c0.1,0.1,0.2,0.2,0,0.3c-0.2,0.2,0.2,0.3,0,0.5c-0.1,0.1-0.2,0.2-0.1,0.4c0,0.1-0.1,0.2-0.1,0.3
		c-0.1,0.1-0.1,0.2-0.1,0.3c0,0.2,0.5,0.1,0.3,0.4c-0.2,0.3-0.1,0.4,0.1,0.5c0,0,0,0,0,0.1c-0.2,0.2-0.2,0.4-0.1,0.6
		c0.1,0.1-0.1,0.2-0.1,0.3c-0.1,0.1-0.1,0.2,0,0.3c0,0,0.1,0.1,0.1,0.2c0.2,0.5,0.2,0.5-0.1,0.8c-0.1,0.1-0.1,0.2,0,0.3
		c0.1,0.1,0.2,0.3,0.1,0.5c-0.1,0.1,0,0.3,0.1,0.5c0,0.2,0.1,0.4-0.1,0.5c-0.1,0-0.1,0.1,0,0.2c0.3,0.2,0,0.6,0.2,0.8
		c0,0,0,0.2,0,0.2c-0.3,0.2-0.1,0.3,0,0.5c0.1,0.2,0.2,0.4,0,0.5c-0.1,0.1,0,0.3-0.2,0.5c0,0,0,0.1,0,0.1c0.3,0,0.2,0.2,0.1,0.3
		c0,0,0,0.2,0,0.2c0.3,0.3,0.1,0.5-0.1,0.7c0.2,0.2,0.2,0.4,0.1,0.6c-0.1,0.2,0,0.5-0.3,0.5c-0.1,0-0.1,0.1-0.2,0.2
		c0,0.1,0,0.2-0.1,0.3c-0.1,0.1-0.2,0-0.2,0.1c-0.1,0.2-0.2-0.1-0.3,0c-0.2,0.2-0.4-0.1-0.5,0.1c-0.1-0.1-0.2-0.1-0.3-0.2
		c0,0.2-0.2,0.3-0.2,0.5c-0.1,0-0.2-0.1-0.2-0.2c-0.1-0.1-0.1,0.1-0.2,0.1c0,0-0.1,0-0.1,0c-0.2,0-0.5,0-0.6,0.1
		c-0.2,0.1-0.3,0.2-0.4,0c-0.1-0.2-0.1,0-0.2,0c-0.2,0-0.3-0.2-0.4-0.3c-0.1-0.1-0.2-0.1-0.2,0c-0.1,0.3-0.3,0-0.4,0
		c-0.3,0-0.3-0.1-0.2-0.3c0-0.2-0.1-0.3-0.2-0.4c-0.1-0.1-0.2-0.2-0.1-0.3c0.2-0.2,0.2-0.5,0.1-0.8c0.3-0.3,0-0.5-0.1-0.7
		c-0.1-0.1-0.2-0.2,0-0.3c0.1,0,0.1-0.1,0.1-0.2c-0.2-0.2-0.1-0.3,0.1-0.4c0.1-0.1,0.1-0.2,0-0.4c-0.1-0.3-0.3-0.7-0.2-1.1
		c0.1-0.2,0.1-0.4-0.1-0.5c-0.1,0-0.1-0.1,0-0.2c0.1-0.1,0.2-0.2,0.2-0.3c0.1-0.3,0.2-0.5-0.1-0.7c-0.1-0.1-0.1-0.2-0.2-0.3
		c-0.1-0.1-0.1-0.2,0-0.3c0-0.1,0.2-0.2,0.2-0.3c0.1-0.1-0.2-0.2-0.1-0.3c0,0,0-0.1,0-0.1c0-0.1,0.3-0.1,0.2-0.3
		c-0.1-0.1-0.2-0.2-0.2-0.3c-0.1-0.1-0.1-0.2,0-0.3c0.2-0.1,0.2-0.3,0.1-0.4c0-0.1-0.1-0.1,0-0.2c0.3-0.3,0-0.5,0-0.7L66,47.6
		c0.1-0.1,0.2-0.3,0.1-0.4c-0.2-0.2,0.1-0.2,0-0.3c-0.1-0.1-0.1-0.3-0.1-0.4c0-0.1-0.1-0.1,0-0.2c0.3-0.2,0.1-0.5,0.2-0.8
		c0-0.2-0.1-0.2-0.1-0.4c0-0.1,0.3-0.2,0-0.3c0.1-0.1,0-0.2,0-0.3c0-0.1,0-0.3,0-0.4c-0.1-0.2-0.1-0.3,0.1-0.4c0.1,0,0.1-0.1,0-0.1
		c-0.2-0.3-0.1-0.5,0.1-0.7c0.2-0.3,0.2-0.5,0-0.7C66.1,42,66.1,42,66.2,42c0.2,0,0.2,0,0.1-0.2c-0.1-0.1-0.1-0.3,0.1-0.4
		c0.2-0.2,0.5-0.4,0.4-0.8c-0.2,0-0.5-0.1-0.9,0.1c-0.1,0-0.2,0.1-0.1,0.2c0.1,0.4-0.3,0.5-0.4,0.8c0,0.1-0.2,0.1-0.3,0.1
		c-0.3-0.1-0.4,0.1-0.5,0.3c-0.1,0.1-0.1,0.2-0.2,0.3c-0.1,0.2-0.5,0.5-0.8,0.5c-0.1,0-0.2,0-0.2,0.2c0,0.1-0.1,0.2-0.2,0.3
		c-0.4,0.3-0.6,0.6-0.7,1c0,0.1-0.1,0.1-0.2,0.1c-0.2,0-0.3,0-0.3,0.2c0,0.1-0.1,0.2-0.3,0.2c-0.1,0-0.2,0-0.2,0.1
		c0.1,0.4-0.5,0.3-0.4,0.7c0,0.1-0.2,0-0.3,0c0,0-0.1-0.1-0.1-0.1c-0.1,0-0.3,0.4-0.2,0.5c0,0.1,0,0.1,0,0.2c0,0.1-0.1,0.1-0.2,0
		c-0.1-0.2-0.2-0.1-0.3,0c-0.3,0.3-0.7,0.1-1.1,0.1c0-0.2-0.2-0.3-0.3-0.2c-0.2,0.2-0.3-0.1-0.4,0c-0.2,0.1-0.4-0.1-0.6,0
		c-0.1,0.1-0.2-0.1-0.3-0.2c-0.1-0.1-0.2-0.1-0.3,0c0,0-0.2,0-0.3,0c-0.3-0.3-0.7-0.3-1,0c-0.1,0.1-0.1,0-0.1,0
		c-0.2-0.1-0.5-0.1-0.7-0.3c-0.2-0.1-0.5-0.1-0.6-0.3c-0.1-0.1-0.1,0-0.2,0c-0.1,0.1-0.2,0.2-0.3,0.1c-0.2-0.1-0.5,0-0.6-0.2
		c-0.1-0.3-0.3-0.3-0.5-0.2c-0.1,0.1-0.1,0-0.2,0c-0.2-0.1-0.3-0.1-0.3,0.1c0,0.2,0,0.4,0,0.5c0,0.2,0.1,0.5-0.2,0.6
		c-0.1,0.1-0.1,0.3,0,0.4c0.1,0.2,0.2,0.4,0.1,0.5c-0.2,0.1,0,0.2-0.1,0.4c-0.1,0.1-0.1,0.3,0.1,0.3c0.1,0,0.1,0.1,0,0.2
		c-0.2,0.2-0.3,0.4-0.1,0.8c0.1,0.2,0.1,0.5-0.2,0.7c-0.1,0.1-0.1,0.3,0,0.4c0.1,0.1,0.1,0.2,0.2,0.3c0.1,0.1,0.1,0.3,0.3,0.3
		c0.1,0,0.1-0.2,0.2-0.3c0.1-0.2,0.3-0.2,0.5-0.3C53.7,49.4,53.7,49.4,53.9,49.9z"/>
	<path d="M0.1,33.6c0.1-0.1,0.2-0.1,0.2-0.1c0.4-0.3,0.3-0.7,0.3-1.1c0,0,0-0.1,0-0.1c-0.6-0.1-0.1-0.6-0.4-0.8c0,0,0-0.1,0.1-0.1
		c0.1-0.2,0.2-0.3,0.4-0.5c-0.1-0.2-0.3-0.4-0.2-0.7c0.1-0.2-0.1-0.4-0.2-0.5c-0.1-0.2-0.1-0.3,0.1-0.5c0.1-0.1,0.1-0.1,0.2-0.2
		c0.1-0.1,0.1-0.2,0-0.2c-0.3-0.2-0.1-0.6-0.2-0.9c0.3-0.2,0-0.6,0.2-0.8c0.1-0.1,0-0.1-0.1-0.1c0,0-0.1-0.1-0.1-0.1
		c-0.2-0.1-0.1-0.3-0.2-0.4c-0.2-0.2,0.2-0.2,0-0.3c0,0,0.1-0.1,0.1-0.1c-0.3-0.2,0.1-0.4,0-0.6c0,0,0-0.1,0-0.1
		c0-0.1-0.3-0.1-0.1-0.3c0.1-0.1,0-0.2,0-0.3c0-0.1,0-0.2,0.1-0.3c0.1-0.1,0.2-0.2,0.3-0.4c0-0.1,0.1-0.2,0.3-0.1
		c0.1,0.1,0-0.2,0.2-0.2c0.1,0,0.2,0,0.3,0c0.1,0,0.2,0.1,0.3,0.2c0.1,0.1,0.2,0.1,0.3,0.2C2.2,24,2.2,24,2.6,24
		C3,24,3.4,24,3.7,24.3c0.3,0.3,0.6,0.3,0.8,0.1c0.2-0.1,0.3-0.1,0.4,0.1c0.1,0.1,0.1,0.4,0.3,0.4C5.4,25,5.6,25,5.7,25.1
		c0.1,0,0.2,0.1,0.2,0.1c0.1,0.1,0.1,0.1,0.2,0c0.2-0.1,0.4-0.2,0.6,0.1c0,0.1,0.2,0.1,0.3,0.2c0,0,0.1,0.1,0.1,0.1
		c0.2-0.2,0.6,0,0.8-0.3c0.1-0.2,0.4-0.4,0.6-0.5c0.1,0,0.1-0.1,0.2-0.1c0.3,0.1,0.6-0.2,0.9-0.3c0.1,0,0.2-0.2,0.3,0
		c0.1,0.1,0.2,0,0.2-0.1c0.1-0.1,0.2-0.2,0.3-0.2c0,0,0.1,0.2,0.2,0c0.3,0.1,0.5-0.2,0.6-0.3c0.3-0.2,0.6-0.3,1-0.3
		c0.2,0,0.3,0,0.4-0.2c0.2-0.3,0.7-0.4,1-0.6c0.1,0,0.1,0,0.2,0c0.2,0,0.6-0.1,0.8-0.3c0.3-0.2,0.6-0.1,0.8-0.3
		c0.3,0.2,0.5-0.1,0.6-0.2c0.1-0.3,0.3-0.3,0.5-0.2c0.1,0.1,0.2,0.1,0.3,0c0.2-0.3,0.6-0.3,0.8-0.6c0,0,0.1,0,0.1,0
		c0.3,0.1,0.5-0.1,0.7-0.3c0-0.1,0.1-0.1,0.2,0c0.2,0.3,0.3,0,0.5-0.1c0.1-0.1,0.2-0.2,0.4-0.1c0.2,0,0.3-0.1,0.5-0.1
		c0.1,0,0.2-0.3,0.3-0.2c0.2,0.1,0.2-0.1,0.3-0.1c0.1-0.1,0.3,0,0.4-0.1c0.1,0,0.1-0.1,0.1-0.1c0.1-0.3,0.3-0.3,0.5-0.3
		c0.3,0,0.7-0.1,1-0.2c0.2-0.1,0.1-0.3,0.4-0.3c0.1,0,0.2-0.1,0.3,0c0.1,0.1,0.1,0,0.1,0c0.1-0.3,0.3-0.3,0.5-0.3
		c0.2-0.4,0.8-0.2,1-0.6c0.1-0.1,0.2,0,0.3,0c0.2-0.1,0.5,0.2,0.7-0.1c0.1-0.2,0.5-0.1,0.6-0.3c0.2-0.2,0.5-0.1,0.7-0.3
		c0.2-0.3,0.5-0.1,0.7-0.3c0,0,0.1,0,0.2,0c0.2,0.2,0.4,0,0.5-0.1c0.2-0.2,0.3-0.4,0.7-0.4c0.1,0,0.2-0.1,0.2-0.2
		c0-0.1,0.1-0.1,0.1-0.1c0.2,0.2,0.4-0.1,0.7,0.1c0.1,0.1,0.2,0,0.2-0.1c0-0.1,0-0.2,0.1-0.2c0.3-0.1,0.6-0.1,0.8-0.4
		c0.2-0.2,0.4-0.1,0.6,0c0.1,0,0.1,0,0.2,0c0.2,0,0.3-0.2,0.4-0.3c0.4-0.2,0.8-0.3,1.1-0.7c0.2-0.2,0.3,0,0.5,0.1
		c0.1,0.1,0.3,0.2,0.3-0.1c0,0,0,0,0,0c0.2-0.1,0.4-0.1,0.5-0.2c0.1-0.3,0.3-0.1,0.5-0.1c0.1,0,0.2,0,0.3-0.1
		c0.1-0.2,0.3-0.2,0.5-0.3c0.2-0.1,0.4-0.2,0.6-0.3c0.2-0.1,0.4-0.2,0.5-0.3c0.1-0.1,0.1-0.1,0.2-0.1c0.1,0,0.2,0,0.4,0.1
		c0.1,0,0-0.3,0.2-0.2c0.2,0.1,0.2-0.1,0.4-0.1c0.1,0,0.3-0.1,0.4-0.1c0.2-0.1,0.5,0,0.6-0.4c0-0.1,0.1-0.1,0.2,0
		c0.2,0.1,0.3,0,0.4-0.2c0.2-0.3,0.2-0.3,0.5-0.2c0.1,0,0.2,0.1,0.3,0c0.4-0.3,0.9-0.5,1.3-0.8c0.1,0,0.1-0.1,0.2-0.1
		c0.2,0,0.5,0.1,0.6-0.2c0,0,0.1,0,0.2,0c0.1,0,0.3,0.1,0.3-0.2c0-0.1,0.1,0,0.2,0c0.2,0,0.3,0,0.4-0.3c0.1-0.1,0.3-0.2,0.5-0.2
		c0.1,0,0.2,0.2,0.2,0.3c0,0-0.1,0.1-0.1,0.1c-0.1,0.2-0.1,0.3,0.1,0.5c0.2,0.2,0.4,0.4,0.6,0.5c0.2,0.2,0.3,0.7,0.3,1
		c0,0.1,0.1,0.2,0.1,0.4c0,0.1-0.2,0.2-0.1,0.3c0,0.1,0,0.2,0,0.2c0.4,0.3,0,0.7,0.1,1.1c0,0.2-0.1,0.2-0.3,0.3
		c-0.4,0.1-0.4,0.1-0.3,0.5c0,0.1,0,0.1,0,0.2c-0.1,0.1-0.2,0.2-0.3,0.4c0.2,0.1,0.1,0.4,0.2,0.5c0.2,0.1,0.2,0.3,0,0.4
		c-0.1,0.1-0.2,0.3-0.1,0.4c0.3,0.1-0.1,0.4,0.1,0.5c0.1,0.1-0.1,0.4-0.1,0.6c0,0.1-0.1,0.2,0,0.3c0.2,0.1,0.2,0.3,0.1,0.5
		c-0.2,0.3-0.2,0.3,0,0.7c0.1,0.2,0.2,0.5,0,0.7c-0.1,0.1-0.1,0.3,0,0.4c0.2,0.2,0,0.4,0.2,0.6c0.1,0.1-0.1,0.4-0.1,0.6
		c0,0.1,0.1,0.7,0.2,0.8c0.1,0.1,0.2,0.2,0,0.3c-0.1,0.1-0.2,0.3-0.4,0.3c-0.1,0-0.2,0.1-0.3,0.2c-0.2,0.6-0.6,0.3-1,0.4
		c-0.2-0.3-0.4,0-0.6,0c-0.1,0-0.2,0.1-0.3,0.1c-0.1,0-0.2,0-0.1,0.1c0,0.2-0.1,0.2-0.2,0.3c-0.1,0.1-0.3,0-0.3,0.2
		c0,0.1-0.1,0.1-0.2,0.1c-0.2-0.2-0.3-0.1-0.5-0.1C41,25,41,25,40.8,24.5c-0.1-0.1-0.2-0.2-0.3-0.3c-0.2-0.2-0.4-0.4-0.5-0.7
		c-0.3-0.1,0.1-0.3-0.1-0.5c-0.1-0.1,0-0.3,0.1-0.4c-0.1-0.1-0.2-0.2-0.2-0.3c0,0,0-0.1,0-0.1c0.1-0.2,0.2-0.5,0-0.8
		c0-0.1,0.1-0.3,0.2-0.4c0.2-0.1,0.1-0.3,0-0.4c-0.1-0.2-0.1-0.4-0.1-0.6c0-0.4,0.1-0.8-0.2-1.1C39.7,19,39.8,19,39.8,19
		c0-0.3,0.1-0.7-0.1-1c0,0,0-0.1,0-0.1c0.1-0.1,0.1-0.1,0-0.2c-0.1-0.1-0.2-0.1-0.3-0.2c-0.2,0.2-0.6,0-0.8,0.2
		c-0.2,0.2-0.4,0.1-0.7,0.1c-0.3,0-0.4,0.1-0.5,0.3c-0.1,0.1-0.1,0.3-0.2,0.3c-0.1,0-0.2,0-0.4,0c-0.1,0-0.1,0-0.2,0c0,0,0,0-0.1,0
		c0.1,0.2,0.1,0.2,0.3,0.4c0.2,0.1,0.3,0.3,0.2,0.5c0,0.1,0,0.2,0,0.3c0.1,0.3,0.2,0.6-0.1,0.9c0,0-0.1,0,0,0.1
		c0.1,0.3,0.1,0.6,0.2,0.9c0.1,0.2,0.1,0.3,0,0.4c-0.3,0.3-0.3,0.3,0,0.6c0.2,0.2,0.1,0.3,0,0.4c-0.1,0.1,0,0.1,0,0.2
		c0,0.1,0.2,0.2,0,0.4c-0.1,0,0,0.1,0.1,0.1c0.2,0.1,0.4,0.2,0.1,0.4c0,0,0,0.1,0,0.2c0.3,0.3,0.1,0.6-0.1,0.9
		c-0.1,0.2-0.2,0.2-0.2,0.5c0,0.1-0.1,0.2-0.3,0.2c-0.4,0-0.5-0.1-0.7,0.2c-0.1,0.2-0.3,0-0.4,0.1c-0.1,0.2-0.3,0.1-0.5,0.2
		c0,0,0,0.1-0.1,0c-0.4-0.2-0.8-0.2-1.2,0c-0.1,0.1-0.1-0.1-0.2-0.1c-0.1-0.1-0.1-0.1-0.2,0c-0.2,0.3-0.5,0.2-0.8,0.1
		c-0.3,0-0.7-0.4-0.7-0.6c0-0.1,0-0.2,0.1-0.3c0.1-0.2,0.2-0.3,0-0.5c-0.1-0.2-0.1-0.4-0.1-0.7c0-0.1,0-0.2,0-0.2
		c-0.1-0.1-0.2-0.3-0.2-0.4c0-0.1,0.2-0.2,0.2-0.4c0-0.1,0-0.2,0-0.3c-0.2-0.2-0.3-0.3-0.1-0.5c-0.2-0.2-0.1-0.3,0.1-0.4
		c0.1-0.1,0.1-0.1,0-0.2C32,21.6,31.9,21.3,32,21c0-0.1,0-0.3,0-0.4c-0.2-0.2,0.1-0.2,0-0.3c0-0.1-0.1-0.1-0.2-0.1
		c-0.1,0-0.2,0.1-0.3,0.2c-0.2,0.1-0.3,0.3-0.5,0.3c-0.1,0-0.2,0-0.2,0.1c-0.1,0.2-0.3,0.3-0.5,0.3c-0.2,0-0.4-0.1-0.5,0.2
		c-0.2-0.1-0.3,0.2-0.5,0c-0.2,0.1-0.5,0.2-0.6,0.3c-0.1,0.1-0.2,0.2-0.4,0.2c-0.2,0-0.5,0.1-0.6,0.3c-0.1,0.2-0.3,0.1-0.4,0.2
		c-0.1,0.1-0.3,0-0.3,0.1c-0.1,0.1,0,0.2-0.2,0.2c-0.2,0.3-0.5,0.3-0.7,0.2c-0.1,0-0.1,0-0.2,0c-0.4,0.3-0.9,0.4-1.3,0.7
		c-0.2-0.1-0.3,0.1-0.5,0.1c-0.1,0-0.1,0.1-0.1,0.2c0,0,0,0,0,0c0.2,0.2,0.3,0.3,0.5,0.5c-0.2,0.2-0.1,0.4-0.1,0.6
		c0,0.3,0.1,0.6,0.2,0.9c0,0.1,0,0.1,0,0.2c0,0.2-0.2,0.5-0.1,0.7c0.1,0.2,0.1,0.4-0.1,0.6c0,0,0,0.1,0,0.1c0,0.2,0.1,0.3,0.1,0.4
		c0,0.1-0.1,0.2-0.2,0.3c0,0.1,0,0.2,0,0.3c0.1,0.1,0.1,0.3,0,0.4c-0.2,0.1-0.2,0.2-0.1,0.4c0,0,0,0.1,0,0.2c0,0.1,0,0.2-0.1,0.2
		c0,0-0.1,0-0.2-0.1c-0.1,0-0.1-0.1-0.2-0.2c-0.1,0.1-0.1,0.3-0.2,0.5c-0.1,0.2-0.2,0.2-0.4,0.2C23.1,29.9,23,30,23,30
		c-0.1,0.3-0.3,0.3-0.5,0.4c-0.1,0.1-0.2,0.1-0.3,0.2c-0.1,0.1-0.1,0.1-0.2,0c-0.1-0.2-0.4-0.2-0.6-0.3c0,0-0.1,0-0.2,0.1
		c-0.1,0.1-0.2,0.2-0.2,0.3c0,0.1-0.1,0.1-0.1,0.1c-0.2-0.2-0.6,0-0.8-0.2c-0.2-0.2-0.3-0.2-0.5,0c-0.1,0.1-0.3,0.1-0.4,0.1
		c-0.1-0.1-0.2-0.1-0.3-0.3c-0.1-0.3-0.2-0.6-0.3-0.8c0-0.1,0-0.1,0-0.2c0-0.2,0-0.4,0-0.5c0-0.1-0.1-0.2-0.1-0.4
		c0,0-0.1-0.1-0.1-0.1c0.2-0.4,0-0.7-0.1-1.1c-0.1-0.4-0.1-0.8,0.1-1.2c0.1-0.1,0-0.2-0.2-0.2c-0.3,0.1-0.5,0.2-0.8,0.3
		c-0.2,0.1,0.1,0.2,0,0.3c-0.3,0.2-0.1,0.5-0.1,0.8c0,0.1,0.1,0.1,0,0.3c-0.1,0.1-0.3,0.3,0,0.5c0.1,0.1,0,0.3,0,0.5
		c-0.1,0.4,0,0.8,0.1,1.1c0,0.1,0,0.1,0,0.1c-0.3,0.3-0.2,0.5,0,0.8c0.2,0.2,0.1,0.4,0,0.6c0,0.1-0.1,0.2,0,0.2
		c0.1,0.2,0,0.3-0.1,0.4c0,0-0.1,0.2,0,0.2c0.1,0.2,0.1,0.4,0,0.6c0,0.1-0.2,0.4,0.2,0.4c0.1,0,0,0.1,0,0.1c-0.1,0.1,0,0.2-0.2,0.3
		c0.1,0.1,0.1,0.2,0.2,0.3c0.1,0.1,0.1,0.2,0,0.3c-0.3,0.3-0.5,0.5-0.7,0.8c-0.1,0.2-0.3,0.2-0.5,0.3c-0.2-0.2-0.4,0.1-0.6,0
		c-0.2-0.1-0.3-0.1-0.5,0c-0.1,0.1-0.2,0.1-0.4,0.1c-0.2-0.1-0.5-0.3-0.7-0.1c-0.2-0.1-0.3-0.1-0.5,0c-0.1,0-0.2,0-0.3-0.1
		c-0.1-0.1-0.1-0.4-0.4-0.3c0,0-0.1-0.1-0.1-0.1c0.1-0.3-0.3-0.4-0.3-0.7c0-0.2-0.1-0.5-0.1-0.7c0-0.2,0.1-0.4-0.1-0.5
		c0,0,0-0.1,0-0.2c-0.1-0.2,0.3-0.4,0.1-0.5c-0.2-0.2-0.1-0.4-0.1-0.6c0-0.3,0-0.6,0.1-0.9c0.1-0.5-0.1-0.9-0.1-1.4
		c0-0.2-0.1-0.3,0-0.5c0.1-0.2-0.1-0.4,0-0.6c0.1-0.1-0.1-0.1-0.2-0.1c-0.1,0-0.1,0.1-0.1,0.1c-0.1,0.3-0.3,0.5-0.7,0.5
		c-0.2,0.2-0.7,0.3-0.6,0.8c0,0.1-0.2,0.2,0,0.3c0.3,0.3,0.2,0.6-0.1,0.9c0,0-0.1,0.1,0,0.2c0.2,0.1,0.2,0.3,0.2,0.5
		c0,0.1,0,0.2,0.1,0.3c0.1,0.1,0,0.1,0,0.2c0.1,0.2-0.2,0.3-0.2,0.4c0,0.2,0.3,0.2,0.2,0.4c0,0.1,0,0.2-0.1,0.2
		c-0.2,0.1-0.1,0.2,0,0.3c0.2,0.2-0.1,0.4-0.1,0.6c0,0.1-0.1,0.2,0,0.2c0.2,0.2,0.2,0.3,0.1,0.5c0,0.1,0,0.3,0,0.4l0,0.5
		c-0.1,0-0.1,0.1,0,0.2c0.2,0.2,0.2,0.4,0,0.6c-0.1,0.2,0.1,0.5-0.1,0.7c0.1,0.1,0.2,0.3,0.3,0.4c-0.2,0.1-0.1,0.3-0.1,0.4
		c0,0.1,0.1,0.1,0.2,0.1c0.3-0.1,0.7-0.1,1-0.2c0.1-0.1,0.3-0.1,0.4-0.3c0.1-0.2,0.4-0.3,0.7-0.3c0.3,0,0.6-0.1,0.9-0.2
		c0.1-0.1,0.2-0.1,0.3-0.3c0-0.1,0.1-0.1,0.2-0.1c0.2,0.2,0.3,0.1,0.4-0.1c0,0,0.1-0.1,0.1-0.1c0.2-0.2,0.5,0,0.7-0.2
		c0.1-0.2,0.4-0.3,0.6-0.2c0.3,0.1,0.5-0.1,0.8-0.2c0.1,0,0.4-0.1,0.4-0.3c0-0.2,0.1-0.2,0.2-0.2c0.3,0,0.5-0.1,0.7-0.3
		c0.1-0.1,0.3,0,0.5-0.2c0.1-0.1,0.3-0.1,0.3-0.2c0.2-0.3,0.4-0.5,0.8-0.5c0.1-0.3,0.3-0.3,0.5-0.1c0.1-0.2,0.3,0,0.4-0.2
		c0.1-0.1,0.3-0.1,0.4-0.2c0.3-0.1,0.6-0.2,0.9-0.4c0.1-0.1,0.1-0.1,0.2-0.1c0.1,0,0.3,0.1,0.3-0.2c0-0.1,0.3,0,0.4-0.1
		c0.3-0.4,0.6-0.1,0.8,0c0.2,0.1,0.3,0.1,0.4-0.1c0.1-0.1,0.1-0.1,0.2-0.2c0.1-0.1,0.3-0.2,0.5-0.2c0.1,0,0.2,0,0.2-0.2
		c0-0.2,0.2-0.3,0.3-0.4c0.1-0.1,0.2,0.1,0.2,0.1c0.1,0,0.2,0.1,0.3,0c0-0.1,0-0.1,0-0.2c-0.1-0.1-0.1-0.3-0.3-0.2
		c-0.1,0-0.2-0.2-0.2-0.2c0.2-0.2-0.1-0.4-0.1-0.5c0-0.2-0.1-0.3-0.3-0.4c-0.1-0.1-0.2-0.2-0.1-0.3c0.2-0.2,0-0.4,0-0.6
		c0-0.2-0.3-0.4,0-0.6c-0.2-0.2,0-0.5-0.2-0.7c0,0-0.1-0.1-0.1-0.1c0.4-0.2,0.1-0.4,0-0.6c0,0,0-0.1,0-0.1c-0.1-0.2,0.1-0.3,0.1-0.5
		c0-0.2-0.2-0.3-0.1-0.4c0.1-0.2,0-0.4-0.1-0.6c0.1-0.1,0.3-0.2,0.4-0.3c0.1-0.2-0.1-0.2-0.1-0.3c-0.1-0.2-0.2-0.3,0.1-0.5
		c0.2-0.1,0.3-0.3,0.5-0.5c0.1-0.1,0.3-0.2,0.5-0.3c0.5-0.2,0.5-0.2,0.9-0.1c0.1,0,0.2-0.1,0.4-0.1c0.1,0,0.2,0.1,0.3,0.1
		c0.3-0.1,0.5-0.1,0.8,0c0.1,0,0.1,0,0.2,0c0.1-0.1,0.3-0.1,0.4,0c0.2,0.2,0.5,0.1,0.7,0.1c0.2,0,0.4,0,0.4,0.3
		c0,0.1,0.1,0.2,0.2,0.1c0.3-0.2,0.3,0,0.4,0.2c0.1,0.1,0.2,0.1,0.3,0.1c0.1,0,0.1,0,0.1,0.1c-0.1,0.3,0,0.7-0.1,1.1
		c0,0.1,0.1,0.1,0.1,0.2c0.1,0.1,0.1,0.1,0,0.3c0,0.1-0.1,0.2,0,0.4c0.1,0.1,0.1,0.4,0,0.6c-0.1,0.1,0.2,0.3,0,0.5
		c-0.1,0.1,0.1,0.2,0.1,0.3c0,0.1-0.2,0.2-0.1,0.3c0,0.1,0.1,0.1,0.1,0.1c0.2,0.2,0.1,0.4,0.1,0.7c0,0.2-0.1,0.3-0.3,0.4
		c0.1,0.1,0.1,0.1,0.2,0.2c0.3,0.3,0.3,0.3-0.1,0.5c-0.1,0.1-0.1,0.1-0.1,0.2c0.1,0.1,0,0.2,0.1,0.3c0.1,0.1,0.1,0.2,0,0.3
		c-0.2,0.1-0.2,0.4-0.5,0.2c-0.3,0.2-0.4,0.4-0.2,0.7c0.1,0.2,0,0.3-0.1,0.3c-0.3,0.1-0.5,0.2-0.8,0.2c-0.1,0-0.1-0.1-0.2-0.2
		c0-0.1-0.1-0.1-0.2,0c-0.1,0,0.1,0.3-0.2,0.1c-0.1-0.1-0.1,0.1-0.2,0.1c-0.1,0-0.2,0.2-0.3,0.2c-0.1,0-0.4,0-0.4-0.1
		c-0.2-0.2-0.3-0.2-0.5,0c0,0-0.1,0-0.1,0.1c-0.2,0.1-0.2,0.2,0,0.3c0.1,0,0.1,0,0.2,0.1c0.1,0.1,0.2,0.1,0,0.3
		c-0.1,0.1,0.1,0.2,0.2,0.3c0.1,0.1,0.3,0.2,0.1,0.4c0,0,0,0.1,0,0.2c0.2,0.2,0.2,0.5,0.4,0.6c0.1,0.1,0.2,0.2,0.1,0.4
		c0,0,0.1,0.3,0.1,0.3c0.1,0.1,0.1,0.3,0.1,0.4c-0.1,0.2-0.1,0.2,0.1,0.2c0.1,0,0.2,0.1,0.1,0.2c0,0.1,0.1,0.2-0.1,0.3l-0.3,0.4
		c0,0.1-0.2,0.2-0.1,0.3c0.1,0.3-0.2,0-0.2,0.2c0,0-0.1,0.1-0.1,0.2C28.3,38,28,38,27.8,38c-0.3,0.1-0.5,0.2-0.8,0.2
		c-0.1,0-0.2,0.1-0.3,0.1c-0.1,0.1-0.2,0.1-0.3,0c-0.1-0.1-0.1,0-0.1,0c-0.1,0.1-0.3,0.3-0.5,0.3c-0.2,0-0.1,0.3-0.3,0.3
		c-0.2-0.1-0.4,0.1-0.6,0.1c-0.2,0-0.4,0.1-0.5,0.3c-0.1,0.1-0.2,0-0.3,0c-0.2-0.1-0.3,0.1-0.4,0.2c-0.1,0.1-0.3,0.2-0.4,0.1
		c-0.2-0.2-0.3,0-0.4,0.1c0,0,0,0.2-0.1,0.2c-0.2,0-0.5-0.1-0.5,0.1c-0.1,0.3-0.3,0.1-0.4,0.2c-0.1,0-0.2,0.1-0.2,0.2
		c-0.1,0.2-0.4-0.1-0.4,0.1c0,0.2-0.2,0.2-0.3,0.3c-0.1,0.1-0.2-0.2-0.4-0.1c-0.1,0-0.1,0-0.2,0.1c0,0.1,0,0.2,0.1,0.2
		c0.1,0,0.1,0,0.2,0.1c0.1,0.2-0.2,0.3,0.1,0.5c0.2,0.1,0.1,0.4,0,0.6c0,0.1,0.1,0.5,0.2,0.6c0.1,0,0.1-0.1,0.2-0.1
		c0.1,0.1,0,0.1,0,0.2c-0.1,0.1,0,0.2,0,0.2c0.1,0.4,0.2,0.7,0.4,1c0,0,0,0,0,0c-0.1,0.5,0.4,0.6,0.6,0.9c0.1-0.2,0.2,0,0.4,0
		c0.2,0,0.4,0.1,0.5,0c0.2-0.2,0.4,0.1,0.6,0c0,0,0.2,0.1,0.2,0c0.1-0.1,0.1-0.3,0.2-0.4c0.2-0.2,0.1-0.3,0-0.4
		c-0.2-0.3-0.1-0.5,0-0.7c0.1-0.1,0.1-0.2,0-0.2c-0.2-0.1-0.1-0.3-0.1-0.4c0-0.2,0.1-0.4,0-0.5c-0.1-0.3,0.3-0.4,0.3-0.6
		c0.2,0,0.3-0.2,0.4-0.3c0.2-0.1,0.3-0.2,0.5,0c0.1,0.1,0.1,0.1,0.2,0c0.2-0.1,0.3-0.2,0.5-0.2c0.1,0,0.3-0.2,0.4,0
		c0.3,0,0.6,0.1,0.9-0.1c0,0,0.1,0,0.2,0c0.1,0.1,0.3,0.1,0.3,0.1c0.2-0.2,0.3,0,0.4,0c0.1,0,0.2,0.3,0.4,0.1c0.1-0.1,0.1,0,0.1,0
		c0,0.1,0,0.2,0,0.4c0,0.2-0.1,0.4,0.2,0.4c0,0.2,0.1,0.2,0.1,0.4c0,0.2-0.1,0.4,0.1,0.6c0.1,0.1-0.1,0.4,0.2,0.5c0,0,0,0.2,0,0.2
		c-0.1,0.1-0.2,0.2,0,0.3c0,0,0,0.1,0,0.1c0.1,0.2-0.2,0.3-0.1,0.4c0.1,0.1,0.1,0.3,0.1,0.4c0,0.2,0,0.3,0,0.5c0,0,0.1,0.1,0.1,0.1
		c0.2,0,0.4,0,0.6-0.1c0,0,0,0,0,0c0.1,0.2,0.3,0.3,0.4,0.4c0.4,0.3,0.7,0.7,0.7,1.3c0,0.1,0.1,0.2,0.1,0.2c0.1,0.2,0.2,0.4-0.1,0.6
		c-0.1,0.1,0,0.1,0,0.2c0,0.3,0.3,0.6,0,0.9c0,0,0,0.1,0,0.1c-0.1,0.2,0.2,0.3,0.1,0.4c-0.1,0.1-0.1,0.3-0.2,0.4
		c0.1,0.2,0.1,0.4-0.1,0.5c-0.1,0.1,0,0.1,0.1,0.2c0.1,0.1,0.2,0.3,0.1,0.4c-0.2,0.3-0.1,0.6-0.1,0.9c0,0.1,0,0.1,0.1,0.2
		c0.3,0.2,0.2,0.3,0,0.5c-0.1,0.1,0,0.2,0,0.2c0.1,0.1,0.2,0.2,0.1,0.4c-0.3,0.4,0,0.7,0,1c0,0.1,0.1,0.1,0.1,0.2
		c-0.1,0.3,0.1,0.6,0.3,0.8c0.1,0.2,0.3,0.3,0,0.4c-0.1,0.1,0,0.3,0.2,0.4c0.1,0.1,0.2,0.1,0.1,0.2c-0.1,0.1-0.2,0.3-0.2,0.5
		c0,0-0.1,0.1-0.1,0.1c-0.3-0.1-0.3,0.3-0.6,0.3c-0.2,0-0.4,0.2-0.6,0.3c-0.2,0.1-0.3,0.2-0.5,0.2c-0.2,0-0.2,0.2-0.3,0.3
		c0,0-0.3-0.2-0.4-0.1c-0.2,0.2-0.4,0.4-0.7,0.3c-0.3,0.4-0.8,0.3-1.2,0.3c-0.2,0-0.3,0.1-0.4,0.3c-0.1,0.2-0.1,0.3-0.3,0.1
		c0-0.1-0.2,0-0.2,0c-0.1,0.3-0.4,0.2-0.6,0.2c0,0-0.1,0-0.1,0.1c-0.1,0.1-0.2,0.2-0.3,0.3c0,0-0.1-0.1-0.3-0.1
		c-0.4,0.2-0.8,0.4-1.2,0.4c0,0-0.1,0-0.1,0c-0.3,0.4-0.9,0.5-1.3,0.8C22.5,61,22.5,61,22.4,61c-0.3-0.1-0.6,0.1-0.8,0.3
		c-0.2,0.2-0.5,0.2-0.8,0.4c-0.3,0.2-0.7,0.3-1,0.6c-0.1,0.1-0.3,0-0.5,0c-0.2,0-0.5-0.1-0.7,0.2c0,0-0.4,0.1-0.5,0
		c-0.2-0.1-0.3,0.1-0.4,0.2c-0.1,0.1,0,0.1,0,0.2c0.1,0.4,0.1,0.9,0,1.3c-0.3,0.2,0.2,0.4-0.1,0.6c0.3,0.2,0.2,0.3,0,0.5
		c-0.1,0.1-0.1,0.3,0,0.4c0.1,0.2,0.1,0.3-0.1,0.4c-0.1,0.1-0.1,0.1,0,0.2c0.1,0.2,0.2,0.3,0,0.5c-0.1,0.1,0,0.1,0,0.2
		c0,0.2,0.3,0.2,0.2,0.4c-0.1,0.1-0.1,0.3,0,0.4c0.1,0.1,0.1,0.2,0,0.2c-0.1,0.1-0.1,0.3,0,0.3c0.2,0.3-0.1,0.5,0,0.7
		c0,0.2-0.3,0-0.2,0.2c0,0.1-0.1,0.2-0.1,0.3c-0.1,0.1-0.1,0.2,0,0.3c0.1,0.1,0.1,0.3,0.2,0.4c0.2,0.2,0.1,0.3,0,0.5
		c-0.2,0.3-0.1,0.6-0.1,0.9c0,0.2,0.2,0.5,0,0.7c0.2,0.1,0.1,0.3,0.1,0.5c0,0.2,0.1,0.5-0.1,0.7c-0.1,0.2,0,0.4,0,0.6
		c0,0.2,0.1,0.4,0,0.6c0,0.1,0.1,0.1,0.1,0.1c0.1,0.1,0.1,0.2-0.1,0.2c-0.1,0-0.1,0-0.1,0.1c0.1,0.1,0.2,0.2,0.2,0.3
		c0,0.1-0.2,0.2-0.1,0.3c0.2,0.1,0,0.3,0.2,0.4c0.1,0.1,0.1,0.1,0.1,0.2c0,0.2-0.4,0.4-0.1,0.7c0.2,0.1,0,0.5,0.1,0.7
		c0,0,0,0.1,0,0.1c0.4,0.2,0,0.6,0.1,0.8c0,0.1,0,0.2-0.1,0.2c-0.1,0.1-0.3,0.2-0.2,0.3c0.2,0.2,0,0.5,0.2,0.7
		c0.2,0.2,0.1,0.2-0.1,0.3c-0.1,0.1-0.2,0.2-0.4,0.2c-0.2,0,0,0.3-0.3,0.3c-0.1,0-0.1,0.1-0.1,0.1c-0.1,0.3-0.3,0.3-0.4,0.1
		c-0.1-0.1,0-0.2-0.2-0.2c-0.1,0-0.3,0.1-0.3,0.2c-0.1,0.3-0.1,0.2-0.3,0.1c-0.2-0.1-0.3,0.1-0.4,0.1c0,0-0.1,0.1-0.1,0
		c-0.2-0.3-0.4-0.1-0.6-0.1c-0.3,0.1-0.7-0.1-1,0.1c0,0-0.1-0.1-0.2-0.1c-0.2,0-0.1-0.4-0.4-0.2c-0.1-0.2-0.4-0.1-0.5-0.2
		c-0.1-0.1-0.3-0.2-0.5-0.2c-0.1,0-0.3-0.1-0.4-0.2c-0.2-0.2-0.4-0.3-0.6-0.2c-0.1,0-0.2-0.1-0.2-0.1c-0.2,0.1-0.2-0.3-0.5-0.2
		c-0.2,0-0.3-0.1-0.3-0.3c0-0.1-0.1-0.1-0.2-0.1c-0.3,0-0.5,0-0.7-0.2c-0.2,0.3-0.1-0.1-0.3-0.1c-0.2,0-0.3,0-0.3-0.2
		c0,0-0.1,0-0.2-0.1c-0.2-0.1-0.3,0-0.5-0.1c-0.2,0-0.2-0.3-0.4-0.2c-0.4,0.1-0.5-0.2-0.7-0.4c-0.3-0.3-0.4-0.4-0.8-0.4
		c-0.2,0-0.3-0.1-0.5-0.2c-0.1-0.1-0.3-0.3-0.4-0.4C4.7,77,4.5,76.9,4.2,77c0,0,0,0.1-0.1,0c-0.1-0.1-0.3-0.2-0.4-0.3
		c-0.1-0.1-0.2,0.2-0.4,0c-0.1-0.1-0.3-0.2-0.5-0.2c-0.1,0-0.2-0.2-0.4-0.2c-0.1-0.1-0.3-0.1-0.4-0.3c-0.1-0.1-0.1,0.1-0.3,0
		c-0.3-0.2-0.5-0.5-0.5-0.8c-0.1-0.2-0.2-0.4-0.4-0.5c-0.1-0.1-0.3-0.2-0.3-0.4c0-0.2-0.2-0.2-0.3-0.3c-0.1-0.2-0.2-0.3,0-0.5
		c0.2-0.2,0.1-0.4-0.1-0.5c-0.2-0.1-0.2-0.3,0-0.4c0.1-0.1,0.1-0.3,0.1-0.3c-0.3-0.2,0.1-0.5-0.1-0.6c0,0,0,0,0-0.1
		c0.1-0.2,0.3-0.3,0.2-0.5c-0.1-0.1-0.1-0.3-0.2-0.5C0,70.5,0,70.4,0,70.3c0-0.2,0.3-0.5,0-0.7c0,0,0.1-0.1,0.1-0.1
		c0-0.2,0.3-0.4,0-0.6c-0.1-0.1-0.1-0.3,0-0.5c0.1-0.2,0.1-0.2,0-0.5c0-0.1,0-0.2,0-0.3c0.1-0.2,0.1-0.4,0.1-0.7
		c0-0.1,0.1-0.1,0-0.2c-0.2-0.3-0.2-0.3,0-0.8c0-0.1,0.1-0.1,0.1-0.2c-0.3-0.3-0.1-0.7-0.1-1c-0.1-0.4-0.1-0.8,0.1-1.1
		c0-0.1,0.1-0.2,0-0.3c-0.2-0.2-0.1-0.5-0.1-0.6c0.1-0.3,0-0.5,0.1-0.7c0-0.3,0-0.5,0.1-0.8c0.1-0.2-0.2-0.3,0-0.5
		c0.1-0.1,0-0.4-0.1-0.5c0.2-0.2,0-0.5,0.2-0.7c0.1-0.1,0.1-0.2,0-0.3c-0.1-0.1-0.2-0.2,0-0.4c0.1-0.1,0-0.2-0.1-0.2
		c0.1-0.1,0.1-0.1,0.2-0.2c0.1-0.1,0-0.2-0.1-0.2c-0.2-0.3-0.2-0.3,0-0.6c0.1-0.1,0.1-0.2,0-0.3c0,0,0-0.1,0-0.2
		c0-0.2,0.2-0.4,0.1-0.6c0-0.2-0.1-0.4,0-0.6c0.1-0.1-0.1-0.2-0.1-0.3c-0.1-0.1,0-0.2,0-0.3c0.1-0.4,0.3-0.7,0.1-1.1
		c0-0.1-0.1-0.2-0.2-0.2c0,0-0.1-0.1-0.1-0.1c0.2-0.3,0.1-0.5-0.1-0.7c0,0,0,0,0-0.1c0.2-0.4,0.2-0.4,0.2-0.9c0-0.1,0-0.3,0.1-0.4
		c-0.1-0.1-0.1-0.2,0-0.3c0.1-0.2,0.1-0.5,0-0.7c-0.1-0.1-0.1-0.2,0-0.2c0,0,0.1-0.1,0-0.1c-0.4-0.1-0.3-0.3-0.2-0.6
		c0-0.1-0.1-0.2-0.1-0.3c0-0.2,0.2-0.3,0.2-0.4c-0.3,0-0.2-0.2-0.2-0.4c0-0.2,0.2-0.3,0.2-0.4c0.1-0.2,0.3-0.4,0-0.6
		c-0.1-0.1,0-0.2,0-0.3c0-0.1-0.1-0.2-0.2-0.3c-0.1-0.1-0.1-0.2,0-0.3c0.1-0.1,0.1-0.1,0.2-0.2c0.1-0.1,0.1-0.1,0-0.2
		c-0.2-0.1-0.2-0.3-0.1-0.5c0.1-0.2,0.3-0.3,0.1-0.5c0.3-0.3,0-0.6-0.1-0.9c0-0.3-0.1-0.6,0-0.9c0.1-0.3,0.1-0.6,0.2-0.8
		c0-0.1,0-0.2,0-0.3c-0.1-0.2-0.2-0.3-0.1-0.5c0.1-0.2-0.3-0.3-0.1-0.5c0,0-0.1-0.3-0.1-0.4c0.1-0.1,0.1-0.2,0-0.3c0,0,0-0.1,0-0.2
		c0.3-0.1,0.2-0.4,0.2-0.6c0-0.1-0.1-0.7-0.2-0.8c0,0,0,0,0,0c-0.2-0.3-0.2-0.4,0-0.7c0.1-0.2,0.2-0.3,0-0.4c-0.1-0.1-0.2-0.3,0-0.4
		c0.1,0,0.1-0.1,0-0.2c0,0-0.1-0.1-0.1-0.1c-0.1-0.1,0-0.3-0.1-0.4c0.1-0.1,0.1-0.2,0.2-0.3c0.2-0.1,0.2-0.3,0-0.4
		c-0.1-0.1-0.1-0.2,0-0.3c0.2-0.2,0.3-0.4,0.3-0.7c0-0.1,0-0.3,0-0.4C0.6,34.1,0.6,34.1,0.1,33.6z M9.6,51.6c0.3,0.3,0.5,0.6,0.2,1
		c0,0,0,0.1,0,0.1c0.2,0.2,0,0.5,0,0.7c0,0.3-0.1,0.7,0.1,1c0,0,0,0.2,0,0.2c-0.1,0.1-0.1,0.1-0.1,0.2C9.9,54.9,10,55,10.1,55
		c0.3,0,0.4,0,0.2,0.3c-0.1,0.1,0,0.2,0.1,0.2c0.2,0,0.3-0.2,0.4-0.1c0.2,0.2,0.3,0,0.4,0c0.2,0,0.3,0,0.5,0c0.2,0,0.3-0.2,0.5-0.1
		c0.2,0,0.5,0,0.7-0.1c0.1,0.2,0.4,0.2,0.5,0.1c0.1-0.1,0.3-0.1,0.4-0.2c0.1,0,0.1-0.1,0.2-0.2c0,0,0.1,0.2,0.2,0.1
		c0.2-0.2,0.4-0.4,0.4-0.8c0-0.2,0.1-0.4-0.1-0.5c0.1-0.1,0.2-0.3,0.2-0.4c0-0.2,0-0.3,0-0.5c0-0.3-0.4-0.6-0.1-0.9c0,0,0-0.1,0-0.2
		c-0.1-0.1-0.1-0.3,0-0.4c0.2-0.2,0.2-0.3,0-0.5c-0.2-0.1-0.1-0.3-0.1-0.5c0-0.3,0.2-0.6,0-0.8c-0.1-0.3-0.1-0.5-0.1-0.7
		c0-0.2,0.1-0.3,0.1-0.4c0.1-0.2-0.1-0.3-0.1-0.4c0-0.1,0-0.1,0-0.2c0.1-0.1,0.1-0.2,0-0.3c-0.1-0.2-0.1-0.4,0-0.5
		c0.2-0.2,0-0.4,0.2-0.6c0,0-0.1-0.2-0.2-0.3c-0.1-0.1,0.2-0.2,0-0.4c-0.2-0.2-0.2-0.5-0.2-0.8c0-0.1,0-0.2-0.1-0.2
		c-0.3-0.1-0.5-0.3-0.8-0.4c-0.4-0.1-0.7-0.1-1-0.1c-0.5,0-0.5,0-0.8,0.2c-0.1,0.1-0.1,0-0.1,0c-0.5-0.2-0.9,0.2-1.3,0.3
		c-0.1,0-0.1,0.1-0.1,0.2c0,0.3,0,0.6-0.2,0.8c0,0,0,0.1,0,0.2c0.1,0.2,0,0.4,0.1,0.6c0,0.3,0.1,0.5,0,0.8c-0.1,0.2-0.2,0.5,0.1,0.8
		c0.3,0.3,0.2,0.8,0.1,1.1c-0.1,0.3,0,0.5-0.1,0.7c-0.1,0.3,0,0.5,0.1,0.7C9.9,50.9,9.9,51.2,9.6,51.6z M18.6,49.6
		c-0.1,0.1-0.2,0.2-0.3,0.3c-0.1,0.1-0.1,0.1,0,0.2c0.2,0.2,0.3,0.3,0,0.5c-0.1,0,0,0.1,0.1,0.2c0.1,0.4,0.2,0.9,0.1,1.4
		c0,0.1,0,0.3-0.1,0.4c-0.1,0.1,0.2,0.3,0,0.5c-0.1,0.1,0.2,0.3,0,0.4c0.1,0.1,0.2,0.2,0.1,0.2c-0.2,0.2-0.1,0.4,0.1,0.5
		c0.1,0.1,0.1,0.2,0,0.3c-0.1,0.1-0.3,0.2-0.1,0.4c0.1,0.1,0,0.2,0,0.3c0,0.4,0,0.5,0.2,0.6c0.2,0.1,0.5,0.3,0.8,0.4
		c0.3,0.1,0.5,0,0.7-0.1c0.2-0.1,0.3-0.2,0.5-0.2c0.2,0,0.7-0.2,0.8-0.3c0.1-0.1,0.2-0.2,0.4-0.2c0.1,0,0.2,0.1,0.3-0.1
		c0.1-0.1,0.2-0.2,0.4-0.2c0.3,0,0.3-0.3,0.5-0.5c0.2-0.2-0.1-0.2-0.1-0.4c0-0.2,0-0.5,0-0.7c0-0.2,0-0.4,0-0.5c0-0.1-0.1-0.1,0-0.2
		c0.1-0.2,0.3-0.4,0-0.6c-0.1,0-0.1-0.1,0-0.2c0-0.2-0.1-0.5,0.1-0.7c0.1-0.1,0.1-0.4,0-0.5c-0.2-0.2-0.1-0.3,0-0.5
		c0.2-0.2,0.1-0.5,0-0.7c-0.1-0.2-0.1-0.3,0-0.4c0.1-0.1,0.1-0.2,0-0.2c-0.1-0.4-0.3-0.8-0.7-0.9c-0.1,0-0.2-0.1-0.2-0.1
		c0-0.3-0.3-0.2-0.4-0.3c-0.2-0.2-0.3-0.1-0.5-0.1c0,0-0.1,0-0.1,0c-0.4,0.3-0.7,0.6-1.2,0.6c-0.2,0.3-0.5,0.2-0.8,0.2
		c-0.6,0-0.5,0-0.9,0.5c-0.1,0.1-0.1,0.2,0,0.3C18.4,49.3,18.5,49.4,18.6,49.6z"/>
	<path d="M112.8,76.7c0,0.1,0.4,0.1,0.1,0.4c-0.1,0.1,0,0.1,0.1,0.2c0.2,0.3,0.2,0.3,0,0.6c-0.1,0.1-0.1,0.1-0.2,0.2
		c0,0,0,0.1,0,0.1c0,0.3-0.3,0.6-0.2,0.8c0.1,0.3,0.1,0.4-0.2,0.5c0,0,0,0,0,0c-0.2,0.2-0.3,0.4-0.6,0.4c-0.2,0-0.4-0.1-0.6-0.2
		c-0.1-0.1-0.1,0-0.2,0c-0.2,0.2-0.2,0.2-0.5-0.1c-0.1,0.1-0.1,0.1-0.2,0.2c-0.2,0.2-0.2,0.3-0.5,0.2c-0.1,0-0.2,0-0.2,0.1
		c-0.1,0.1-0.1,0-0.2,0.1c-0.2,0.1-0.1-0.3-0.2-0.2c-0.1,0.1-0.2,0.1-0.3,0c-0.2-0.2-0.3-0.3-0.5-0.4c-0.1,0-0.2-0.2-0.3-0.4
		c0.2-0.1,0-0.2,0-0.3c0-0.2,0.1-0.4,0-0.6c-0.1-0.2,0-0.4-0.1-0.6c0.2-0.3,0-0.6,0.2-0.8c0.1-0.3,0.1-0.6,0-0.9
		c-0.2-0.2,0-0.4,0-0.5c0-0.2,0.2-0.3,0-0.5c-0.1-0.1-0.1-0.2,0.1-0.3c0.1-0.1-0.1-0.1-0.1-0.2c0-0.1,0-0.2,0.1-0.3
		c0,0,0.1-0.1,0-0.1c-0.3-0.1-0.1-0.3,0-0.5c0-0.1,0.1-0.1,0.1-0.2c0-0.2-0.3-0.4,0-0.6c-0.1-0.2-0.1-0.4-0.1-0.5
		c0-0.2,0-0.4-0.1-0.6c0-0.1,0-0.2,0.1-0.3c0.1-0.1,0.1-0.3,0-0.5c-0.3,0.2-0.3,0.6-0.5,0.8c-0.1,0.1,0.1,0.2-0.1,0.3
		c-0.1,0.1-0.1,0.2-0.1,0.3c0,0.2-0.3,0.1-0.2,0.3c0,0.1,0,0.3,0,0.5c0,0.2-0.2,0.3-0.1,0.6c0,0.1-0.1,0.1-0.1,0.1
		c-0.2,0-0.5,0-0.6,0.2c-0.1,0.2-0.3,0.4-0.3,0.7c0,0.3,0,0.5,0.1,0.7c0,0.1,0.2,0.2,0,0.4c-0.1,0.1,0.2,0.2,0.1,0.4
		c0,0.1,0.1,0.3-0.1,0.4c0.1,0.2,0,0.3,0,0.5c0,0.2,0.1,0.4,0.2,0.5c0,0,0,0.5-0.1,0.5c-0.2,0.1-0.1,0.3,0,0.5
		c0,0.1,0.1,0.1,0.1,0.1c0.1,0.1,0.1,0.2,0,0.3c-0.1,0.1-0.1,0.1-0.2,0.2c-0.1,0.1-0.1,0.1,0,0.2c0.2,0.2,0.3,0.5,0.1,0.7
		c-0.1,0.3-0.2,0.7,0,1c0,0.1,0,0.2-0.1,0.2c-0.2,0.1-0.1,0.5-0.4,0.4c0,0-0.1,0-0.1,0.1c-0.1,0.1-0.1,0.3-0.2,0.3
		c-0.1,0-0.1-0.2-0.3-0.1c-0.1,0.1-0.3-0.1-0.3,0.2c-0.2-0.1-0.3,0.2-0.5,0c-0.1-0.1-0.3-0.1-0.4,0.1c-0.1,0.1-0.2,0.1-0.3,0
		c-0.3-0.2-0.5,0.1-0.7,0.1c0,0.3-0.2,0.2-0.4,0.1l-0.4-0.2c0-0.1,0-0.1-0.1-0.1c-0.1,0-0.3,0-0.4-0.1c0,0-0.1,0.1-0.1,0
		c0-0.2-0.1-0.4-0.3-0.5c-0.2-0.2-0.3-0.5-0.4-0.7c0,0,0-0.1,0-0.1c0-0.1,0.2-0.2,0.2-0.3c0-0.1-0.2-0.2-0.2-0.3
		c0-0.1,0.1-0.2,0.1-0.3c0.1-0.2,0.2-0.4,0-0.7c-0.1-0.1-0.2-0.2,0-0.4c0,0,0-0.1,0-0.1c-0.1-0.1-0.2-0.2-0.2-0.3
		c-0.1-0.1,0.2-0.2,0.1-0.3c-0.1-0.2-0.2-0.3,0-0.5c0.1-0.1,0-0.4,0.1-0.6c0.1-0.2,0.1-0.5,0-0.8c-0.1-0.1-0.1-0.3-0.1-0.4
		c0-0.1,0-0.3-0.1-0.4c0,0,0-0.1,0-0.2c-0.1-0.2,0.2-0.4,0.1-0.6c0-0.2-0.1-0.5,0-0.6c0.1-0.2,0-0.3,0-0.4c0-0.1,0.3-0.2,0-0.4
		c-0.1-0.1-0.2-0.2-0.3-0.3c0.2-0.3,0.3-0.5,0.3-0.8c0.1-0.2,0.2-0.4-0.1-0.5c-0.1,0,0-0.1,0-0.2c0-0.1,0-0.2,0-0.3
		c0-0.3,0-0.6,0.1-0.8c0.1-0.1,0.1-0.2,0-0.4c-0.1-0.1,0-0.4-0.1-0.6c0-0.3,0.1-0.6-0.2-0.8c-0.1-0.1-0.1-0.4,0-0.5
		c0.1-0.1,0.1-0.2,0.1-0.3c0-0.2,0-0.4-0.1-0.6c0.2-0.1,0.3-0.3,0.2-0.6c0,0,0-0.1,0.1-0.1c0.1,0,0.2,0,0.2-0.2
		c-0.1-0.2-0.2-0.1-0.3-0.1c-0.1,0.1-0.2,0.1-0.3,0c-0.3-0.2-0.7,0-0.8-0.5c0-0.1-0.4-0.1-0.5,0c-0.2,0.2-0.3,0-0.5,0
		c-0.1,0-0.3-0.2-0.4-0.1c-0.2,0.2,0.2,0.3,0.1,0.4c0,0.1,0.1,0.1,0.2,0.2c0.2,0.1,0.2,0.3,0.1,0.5c0,0,0,0,0,0
		c0,0.2,0.1,0.4,0.1,0.6c0,0.2-0.2,0.3,0,0.5c0.1,0.1,0,0.2,0,0.3c0,0.1-0.1,0.1,0,0.2c0.2,0.1,0.1,0.3,0.1,0.5
		c0,0.2,0.1,0.6,0.3,0.9c0,0,0,0.1,0,0.1c-0.4,0.1-0.2,0.3-0.1,0.5c0.1,0.2-0.1,0.2-0.1,0.3c0,0.2-0.4,0.2-0.2,0.5
		c0.1,0.2,0,0.3,0.1,0.5c0.1,0.2,0.1,0.3,0,0.5c-0.1,0.3-0.2,0.6,0.1,0.9c0.1,0.1,0.1,0.1,0,0.2c0,0-0.1,0.1-0.1,0.1
		c-0.3,0.2-0.2,0.4-0.1,0.6c0.1,0.2,0.1,0.3,0,0.4c-0.3,0.4-0.2,0.6,0,1c0.1,0.1,0.1,0.2,0,0.3c-0.2,0.1-0.1,0.3,0,0.5
		c0,0.1,0.1,0.2,0.1,0.3c-0.2,0.3-0.1,0.7-0.1,1c0,0.2,0,0.4,0.1,0.7c0,0.1,0.1,0.2,0,0.4c-0.1,0.3-0.1,0.3,0,0.6
		c0.1,0.1-0.2,0.3,0,0.4c0,0.2,0.1,0.3,0.1,0.5c0.1,0.2-0.2,0.3-0.1,0.5c0.1,0.3-0.2,0.2-0.3,0.3c-0.3,0.3-0.8,0.4-1.2,0.6
		c-0.2-0.1-0.2-0.4-0.5-0.3c-0.2,0-0.4-0.1-0.4,0.2c0,0.1-0.2,0.1-0.3,0.1c-0.1,0-0.2-0.1-0.2-0.1c-0.1-0.1-0.2-0.1-0.3,0
		c-0.1,0.1-0.2,0.2-0.3,0.3c-0.3-0.3-0.6-0.3-1-0.3c-0.1,0-0.3,0-0.4,0c-0.1-0.1-0.4,0-0.4-0.3c0-0.1-0.1-0.2-0.2-0.2
		c-0.1-0.1-0.1-0.3,0-0.4c0.1-0.1,0.2-0.2,0.2-0.4c-0.1-0.2-0.2-0.5,0-0.7c0,0,0-0.1,0-0.2c-0.3-0.2-0.2-0.4-0.2-0.7
		c0-0.2,0.1-0.4,0-0.6c-0.1-0.1,0.1-0.2,0.1-0.3c0.1-0.2,0.2-0.4,0-0.6c-0.2-0.2-0.2-0.5,0-0.7c0.1,0-0.1-0.4-0.2-0.5
		c0,0-0.1,0-0.1-0.1c0.1-0.4-0.1-0.8,0.1-1.2c0.1-0.2,0-0.5,0.1-0.7c0-0.1,0-0.2-0.1-0.3c-0.3-0.2-0.2-0.5,0-0.8
		c0.1-0.2,0.1-0.3,0.1-0.5c0-0.1-0.1-0.2-0.1-0.3C93,71,93,70.8,93.3,70.6c0.1-0.1,0.1,0,0.1-0.1c-0.1-0.2-0.2-0.4-0.2-0.7
		c0-0.2-0.2-0.3-0.3-0.3c-0.3,0-0.3-0.2-0.4-0.3c-0.4-0.3-0.6-0.8-0.8-1.2c-0.1-0.1-0.1-0.2-0.2-0.2c-0.1,0-0.2-0.1-0.2-0.1
		c-0.2-0.3-0.5-0.4-0.5-0.7c0-0.3-0.1-0.5-0.3-0.5c-0.2-0.1-0.2-0.3-0.1-0.3c0.1-0.1,0.1-0.2,0.1-0.3c0-0.1,0-0.2,0-0.2
		c-0.3,0-0.3-0.3-0.4-0.5c-0.4,0-0.2-0.4-0.4-0.6c0,0,0-0.2-0.1-0.2c-0.3-0.1-0.4-0.4-0.5-0.6c0-0.1-0.1-0.1-0.2-0.1
		c-0.2-0.1-0.4-0.3-0.3-0.6c0-0.2-0.2-0.2-0.2-0.3c0-0.2-0.4-0.2-0.3-0.5c-0.2-0.2-0.3-0.5-0.5-0.6c-0.3-0.3-0.3-0.4-0.1-0.7
		c0.1-0.1,0.1-0.3,0.1-0.5c0-0.1-0.2-0.3,0.1-0.3c0.2,0,0.6-0.1,0.6-0.4c0-0.1,0.1-0.2,0.2-0.1c0.1,0,0.1,0,0.2-0.1
		c0.1-0.1,0.2-0.4,0.4-0.3c0-0.2,0.2-0.2,0.4-0.2c0,0,0,0,0,0c0.1-0.3,0.4-0.3,0.6-0.3c0.1,0,0.2,0,0.2-0.1c0.1-0.3,0.5-0.4,0.7-0.7
		c0.1-0.1,0.1,0.1,0.2,0.1c0.1,0,0.1,0,0.2,0c0-0.2,0.1-0.2,0.3-0.2c0.3,0,0.5-0.1,0.5-0.4c0.1-0.3,0.4-0.4,0.6-0.4
		c0.1,0,0.2-0.1,0.4-0.1c0.2,0.1,0.3-0.2,0.4-0.1c0.1,0,0.1,0,0.2-0.1c0.1-0.2,0.1-0.5,0.5-0.4c0.1,0,0.1,0,0.1-0.1
		c0.4-0.3,0.4-0.3,0.8-0.2c0.1,0,0.1,0,0.2,0c0.2-0.2,0.3-0.4,0.6-0.1c0.3-0.2,0.7-0.1,1-0.4c0.3-0.2,0.6-0.4,1-0.4
		c0.1,0,0.2,0,0.3-0.1c0.1-0.1,0.3-0.2,0.4-0.2c0.3-0.1,0.4-0.3,0.3-0.6c-0.1-0.2-0.3-0.3-0.2-0.5c0.1-0.2-0.1-0.4,0.2-0.5
		c0,0,0-0.2,0-0.2c-0.3-0.2,0.1-0.2,0.1-0.4c-0.1-0.1-0.2-0.2-0.3-0.3c-0.1-0.1-0.1-0.2,0-0.3c0.2-0.2,0.2-0.5,0.1-0.7
		c-0.1-0.1-0.1-0.2,0-0.4c0.1-0.3,0.1-0.6-0.2-0.9c-0.2-0.2-0.2-0.2,0-0.5c0.1-0.1,0.1-0.2,0-0.3c-0.2-0.1-0.2-0.2,0-0.4
		c0.2-0.2,0.2-0.6,0-0.9c-0.1-0.2-0.2-0.3-0.2-0.5c0-0.1,0-0.2-0.1-0.1c-0.1,0-0.1,0-0.1,0.1c0,0.1-0.2,0.2,0,0.3c0,0,0,0.1,0,0.1
		c-0.4,0.2-0.3,0.8-0.8,1c-0.2,0.1-0.2,0.2-0.2,0.4c0,0.2,0,0.4,0,0.6c-0.2,0.1-0.4,0-0.5,0.1c-0.1,0.2-0.2,0.2-0.4,0.2
		c0,0,0,0.1-0.1,0.1c-0.2,0.2-0.2,0.5-0.6,0.5c-0.1,0-0.1,0.1-0.2,0.2c-0.1,0.2-0.3,0.4-0.6,0.3c-0.1,0-0.2,0.1-0.2,0.2
		c0,0.1-0.1,0.1-0.1,0.1c-0.1-0.2-0.4,0-0.5-0.2c-0.2-0.2-0.4-0.1-0.5,0.1c-0.1,0.1-0.3,0.1-0.3,0.1c-0.1-0.2-0.3,0-0.4,0
		c-0.1-0.1-0.3,0-0.4-0.1c-0.2-0.1-0.3,0.2-0.5,0.1c-0.1-0.1-0.3-0.1-0.4,0c0,0,0,0,0,0c-0.3-0.4-0.8-0.1-1.1-0.3c0,0,0,0-0.1,0
		c-0.3,0.2-0.7,0.2-0.9-0.1c-0.1,0.1-0.3,0-0.5,0.2c-0.1,0.1-0.4,0.1-0.4,0c-0.1-0.2-0.2-0.3-0.4-0.1c0,0-0.1,0-0.1,0
		c-0.2-0.2-0.4-0.3-0.6,0c0,0-0.1,0-0.1,0c-0.7-0.1-1.2,0.4-1.9,0.5c-0.2,0-0.3,0.2-0.4,0.3c-0.1,0.1-0.3,0.1-0.4,0.1
		c-0.1,0.1-0.2,0.2-0.3,0c-0.1-0.1-0.1,0-0.2,0c-0.2,0.2-0.4,0.5-0.8,0.4c-0.2,0.3-0.5,0.2-0.7,0.2c-0.1,0-0.2,0.1-0.3,0.2
		c-0.3,0.3-0.6,0.5-1,0.5c-0.1,0-0.1,0.1-0.2,0.1c-0.3,0-0.4,0.3-0.6,0.4c-0.2,0.1-0.4,0.1-0.5,0.3c0,0-0.1,0-0.2,0
		c-0.4,0-0.7,0.2-1.1,0.3c-0.2,0-0.4,0.2-0.5,0.4c0,0.1-0.3,0.4-0.4,0.4c-0.3,0.1-0.6,0.3-0.9,0.1c-0.2-0.1-0.1,0-0.2,0.1
		c0,0,0,0,0,0c-0.3,0.1-0.6-0.1-0.9,0.1c-0.2-0.3-0.6-0.1-0.8-0.2c-0.2-0.1-0.4-0.3-0.6-0.2c0,0-0.2-0.1-0.2-0.2
		c0-0.1,0-0.1-0.1-0.1c-0.4,0.1-0.4-0.3-0.5-0.4c0,0,0-0.1-0.1-0.1c-0.3,0-0.3-0.2-0.3-0.5c0-0.2-0.1-0.4,0.2-0.6
		C74,53.1,74,53,74,52.9c0-0.2,0.1-0.5-0.1-0.7C73.9,52,74,52,74,52c0-0.1,0.1-0.2,0.2-0.3c0.1-0.2-0.2-0.3-0.1-0.5
		c0.1-0.1,0.1-0.3,0-0.4c-0.1-0.1,0-0.2,0-0.3c-0.1-0.2,0.2-0.2,0-0.4c-0.2-0.1,0.1-0.2,0.1-0.4c0-0.1,0-0.3,0.1-0.4
		c0.1-0.1,0.1-0.3,0-0.5c0-0.2-0.3-0.3-0.1-0.5c0.1-0.1-0.2-0.3,0-0.5c0.1-0.1-0.1-0.1-0.1-0.2c0-0.2,0-0.3,0.1-0.5
		c0.2-0.4,0.5-0.8,0.8-1.2c0,0,0-0.1,0-0.1c0-0.2,0.1-0.3,0.2-0.3c0.1,0,0.3,0,0.5,0c0.1,0,0.1,0.1,0.1,0.1c0,0,0,0.2,0.1,0.1
		c0.2-0.2,0.3-0.1,0.5,0c0.1,0.1,0.1,0.1,0.2,0c0.2-0.1,0.3-0.2,0.4,0.1c0,0.1,0,0,0.1,0c0.2-0.2,0.3-0.1,0.5,0
		c0.2,0.1,0.5,0.1,0.7,0.3c0.3,0.2,0.3,0.2,0.5-0.2c0.4,0.3,0.4,0.8,0.6,1.2c0,0.1,0.2,0.3,0,0.4c-0.1,0.1,0,0.1,0,0.2
		c0.1,0.2,0.2,0.3,0,0.5c0,0,0.2,0.8,0.2,0.8c0.1,0,0.2,0,0.2,0c0.3-0.3,0.6-0.3,0.9-0.4c0.3,0,0.5-0.2,0.8-0.3
		c0.1,0,0.4-0.2,0.4-0.3c0-0.2,0.1-0.4,0-0.6c-0.1-0.1-0.1-0.2-0.2-0.3c-0.1-0.3-0.3-0.5-0.1-0.8c0.2-0.3,0-0.7-0.1-1
		c-0.1-0.2-0.1-0.3,0-0.4c0.1-0.1,0-0.2,0-0.3c0-0.2-0.1-0.5,0.1-0.7c0.1-0.1-0.3-0.3,0-0.4c0.1-0.1-0.2-0.3,0-0.4
		c-0.1-0.1-0.2-0.3-0.3-0.4c-0.1-0.1-0.1-0.4,0-0.5c0,0,0.2-0.1,0.1-0.2c-0.2-0.2,0.3-0.5,0-0.7c-0.3-0.2-0.1-0.5-0.1-0.8
		c0-0.3,0.1-0.6,0.2-1c0-0.1,0-0.4,0.3-0.2c0,0,0.2-0.1,0.1-0.3c0-0.3,0-0.5,0.2-0.7c0.1-0.1,0.3-0.2,0.1-0.4c-0.1-0.1,0-0.1,0-0.1
		c0.2-0.3,0.4-0.3,0.8-0.2c0.1,0,0.3,0,0.4-0.1c0.1,0.1,0.2,0.1,0.3,0.1c0.2,0,0.4-0.1,0.5,0.1c0.2-0.1,0.5-0.1,0.7-0.3
		C84.8,37,85,37,85.2,37c0.2,0,0.3,0.2,0.5,0.1c0.2-0.1,0.2,0.2,0.4,0.1c0.1-0.1,0.1,0.1,0.1,0.1c0.1,0.1,0.2,0.4,0.4,0.3
		c0.1,0,0.2,0.1,0.2,0.2v0.6c-0.1,0.1-0.1,0.3,0,0.4c0.1,0.1,0.1,0.2,0,0.4C86.8,39.5,87,39.8,87,40c0.1,0.5,0.1,1,0.2,1.6
		c0,0.2-0.2,0.4-0.1,0.5c0.1,0.1,0.2,0.2,0,0.3c-0.1,0.1,0,0.1,0.1,0.1c0.1,0,0.2,0,0.3,0c0,0.3,0.1,0.7,0.3,0.9
		c0.1,0.1,0.1,0.2,0,0.3c0,0-0.1,0,0,0c0.3,0,0.4,0.3,0.7,0.3c0.3,0,0.3,0,0.5,0.1c0.1,0.1,0.1,0.1,0.2,0.1c0.2,0,0.3-0.3,0.5,0
		c0.1,0.2,0.3,0.1,0.5,0.1c0.1,0,0,0.2,0.1,0.2c0.1,0,0.1-0.1,0.2-0.1c0.2,0,0.4,0.3,0.5,0.2c0.2-0.1,0.4,0,0.6-0.1
		c0.1,0.2,0.4,0,0.6,0.2c0.1,0.1,0.4,0,0.5-0.2c0.1-0.2,0.3-0.4,0.2-0.6c0-0.1,0.3-0.6,0.4-0.7c0.2-0.1,0.1-0.4,0.4-0.3
		c0,0,0.1-0.1,0.1-0.1c0-0.2,0.1-0.4,0.2-0.5c0.1-0.1,0.2-0.3,0.2-0.4c0.1-0.1,0-0.3,0.2-0.3c0.1,0,0-0.3,0.2-0.4
		c0.1-0.2,0.4-0.4,0.4-0.7c0.4-0.1,0.3-0.5,0.4-0.8c0-0.1,0-0.2,0.2-0.3c0.2-0.1,0.2-0.2,0-0.4c-0.1-0.2,0.1-0.3,0.2-0.4l0.3-0.4
		c0-0.1,0.1-0.2,0.1-0.4c0.1-0.3,0.1-0.3,0.2-0.4c0.1-0.1,0.2-0.2,0.2-0.3c-0.1-0.2,0.2-0.3,0.1-0.5c0-0.1,0.1-0.2,0.2-0.2
		c0.3,0,0.4-0.2,0.5-0.4c0.1-0.2,0.4-0.3,0.5-0.6c0.3,0,0.2-0.4,0.4-0.5c0,0.1,0.1,0.1,0.2,0.2c0.1,0.2,0.3,0.3,0.4,0.1
		c0.1-0.1,0.1-0.3,0.3-0.1c0.1,0.1,0.1,0,0.1-0.1c0.1-0.1,0.1-0.3,0.3-0.3c0.2,0,0.2-0.2,0.3-0.2c0.1-0.1,0.3,0.1,0.4-0.1
		c0.1-0.1,0.1,0,0.1,0c0.1,0.1,0.3,0.1,0.4,0c0.2-0.2,0.4-0.2,0.6-0.3c0.2-0.1,0.2-0.1,0.3,0c0,0,0.1,0,0.2,0c0.2-0.2,0.3,0.1,0.4,0
		c0.2,0,0.2,0.1,0.3,0.2c0.1,0.3,0.3,0.4,0.6,0.4c0.2,0,0.3,0.3,0.5,0c0,0,0.1,0,0.2,0c0,0.3,0.2,0.3,0.5,0.3c0.1,0,0.1,0.1,0.2,0.2
		c0.1,0.1,0.2,0.4,0.5,0.3c0.1,0,0.1,0.1,0.1,0.1c0.1,0.1,0.2,0.1,0.2,0c0.1-0.2,0.2-0.2,0.3-0.3c0.2-0.1,0.4-0.2,0.5-0.3
		c0.1-0.2,0.1-0.4,0.4-0.2c0,0,0.1,0,0.1,0c0-0.4,0.4-0.4,0.6-0.6c0.2-0.1,0.3-0.4,0.6-0.3c0,0,0.1-0.1,0.1-0.1
		c0.2-0.2,0.4-0.4,0.7-0.4c0.1,0,0.4-0.2,0.4-0.4c0.1-0.2,0.4-0.1,0.5-0.3c0.5,0,0.8-0.3,1.1-0.6c0.1-0.1,0.2-0.2,0.4-0.1
		c0.1,0.1,0.2-0.1,0.3-0.2c0.1-0.1,0.2-0.1,0.3,0c0,0,0.1,0,0.1,0c0.2,0.1,0.2-0.3,0.4-0.1c0.1,0.1,0.2-0.1,0.4-0.1
		c0.2,0.1,0.3-0.1,0.4-0.1c0.1,0,0.3-0.1,0.4-0.2c0.4-0.1,0.9-0.3,1.3,0.1c0,0,0.1,0.1,0.1,0c0.1-0.2,0.4,0.2,0.5-0.1
		c0-0.1,0.2-0.2,0.2-0.1c0.2,0.3,0.5,0,0.7,0.2c0.1,0.1,0.3-0.1,0.3,0.2c0,0.1,0.1,0.1,0.2,0.1c0.1,0,0.2,0,0.3,0
		c0.2,0.1,0.4,0.2,0.5,0.3c0.1,0.1,0.4,0,0.6,0.1c0.2,0.1,0.2,0.2,0.3,0.3c0.2,0.1,0.2,0.5,0.5,0.3c0.1,0,0.2,0.1,0.2,0.1
		c0,0.3,0.3,0.4,0.5,0.6c0.2,0.2,0,0.4,0.2,0.5c0.1,0.1,0.4,0,0.5,0.2c0,0.2,0.4,0.3,0.3,0.6c0,0.1,0.1,0.2,0.2,0.3
		c0.2,0.2,0.4,0.4,0.5,0.6c0.1,0.1,0.1,0.2,0,0.3c-0.1,0.2,0.1,0.4,0.4,0.5c0.1,0,0.2,0.1,0.1,0.2c-0.1,0.2-0.1,0.2,0,0.4
		c0.1,0.1,0.2,0.2,0.2,0.4c0.1,0.3,0.1,0.3,0.4,0.5c0.1,0.1,0.1,0.2,0.1,0.2c-0.2,0.3,0.3,0.3,0.3,0.6c0,0.2,0.1,0.5,0.4,0.5
		c0.1,0,0.2,0.1,0.2,0.3c0,0.2,0.3,0.3,0.2,0.6c-0.1,0.2,0.1,0.4,0.1,0.5c0,0.1,0,0.1,0.1,0.2c0.4,0.1,0.5,0.5,0.5,0.8
		c0,0.1-0.1,0.4,0.2,0.4c0,0,0,0.1,0,0.1c-0.1,0.3,0.1,0.6,0.3,0.8c0.1,0.2,0.3,0.3,0.2,0.5c0,0.1,0.1,0.2,0.1,0.2
		c0.2,0.1,0.4,0.1,0.1,0.4c-0.1,0.1,0,0.1,0.1,0.2c0.2,0.4,0.3,0.7,0.1,1.1c0,0.1,0,0.2,0,0.3c0,0,0.1,0.1,0.1,0.1
		c0,0.2,0,0.4-0.1,0.5c0.2,0.1,0.2,0.3,0.2,0.5c0,0,0,0.1,0,0.1c0.1,0.3,0.3,0.5,0.1,0.8c-0.1,0.2,0,0.6-0.1,0.8
		c-0.1,0.3,0.1,0.5,0.2,0.8c0,0.1,0.1,0.2,0.1,0.3c-0.2,0.5-0.3,1.1-0.7,1.5l-0.3,0.8c0,0.2-0.2,0.4-0.4,0.4c-0.3,0-0.4,0.2-0.5,0.5
		c0,0-0.1,0.1-0.1,0.1c-0.3,0.5-0.3,0.5-0.7,0.7c-0.1,0-0.2,0-0.2,0c-0.1,0.1-0.2,0.3-0.3,0.4c-0.2-0.1-0.3,0-0.3,0.2
		c0,0.1-0.1,0.1-0.2,0.1c-0.1,0-0.3,0.1-0.4-0.1c0,0-0.1,0-0.1,0c-0.2,0.3-0.5,0.2-0.8,0.3c-0.1,0.1-0.2,0.1-0.3,0.1
		c-0.3,0.2-0.5,0.1-0.7,0c-0.1-0.1-0.2-0.1-0.3,0c-0.2,0.2-0.4,0.3-0.6,0.3c-0.2,0-0.2,0.1-0.3,0.2c-0.2,0.5-0.2,0.5-0.7,0.6
		c0,0-0.1,0-0.1,0c-0.3,0.1-0.3,0.1-0.8,0.1c-0.4,0-0.8,0.1-1.2,0.3c-0.1,0-0.1,0.1-0.3,0c-0.3-0.1-0.5-0.1-0.7,0.1
		c-0.2,0.1-0.5,0.2-0.7,0.2c-0.1,0-0.3,0-0.3,0.2c-0.2-0.1-0.2,0.3-0.5,0.1c0,0-0.1-0.1-0.1,0c-0.1,0.1-0.1,0.3-0.1,0.4
		c-0.1,0.1,0,0.2,0,0.3c0.2,0.1,0.1,0.4,0.1,0.5c-0.1,0.2-0.1,0.4-0.1,0.5c0,0.1,0.1,0.3-0.1,0.4c-0.1,0.1-0.1,0.1,0,0.2
		c0.1,0.2,0.3,0.4,0.1,0.6c0.2,0.2,0.2,0.5,0,0.7c0,0.1,0,0.2,0,0.2c0.2,0.1,0.2,0.4,0.2,0.6c-0.1,0.4-0.1,0.8-0.2,1.2
		c0,0.1,0,0.2,0,0.2c0.1,0.3,0.2,0.5-0.1,0.7c-0.1,0,0.1,0.1,0.1,0.1c0,0.2,0.1,0.3,0,0.4c-0.3,0.3-0.1,0.6,0,0.9
		c0,0.2,0.1,0.4,0.1,0.7c0,0.1,0,0.3,0.1,0.4c-0.1,0.1-0.2,0.2,0,0.3c0.1,0.1,0.1,0.2,0,0.2c-0.2,0.3,0.1,0.8-0.2,1.1
		c-0.2,0.2-0.1,0.4,0,0.5c0.1,0.1,0,0.2,0,0.3c0,0.5-0.2,0.9-0.1,1.4c0,0.1,0,0.2,0,0.3c0.3,0.3,0.1,0.6,0.1,0.9c0,0.1,0,0.1,0,0.2
		c-0.4,0.3,0,0.6,0,0.9c0,0.1,0.1,0.2,0,0.3c-0.1,0.1-0.1,0.2,0,0.3c0,0.1,0.1,0.3-0.1,0.3c0,0-0.1,0-0.1,0.1c0,0.2,0,0.4-0.1,0.6
		c-0.1,0.1,0.1,0.3,0.2,0.4c0.1,0,0.1,0.1,0,0.2c-0.1,0.2,0,0.6-0.2,0.8c0.2,0.2,0.1,0.3,0,0.5c0,0.2,0.1,0.3,0.2,0.5
		c0.1,0.1,0.1,0.2-0.1,0.3C112.9,76.5,112.8,76.6,112.8,76.7z M114.8,40.8c-0.1,0-0.2,0-0.2,0c-0.3,0.2-0.5,0.1-0.7-0.1
		c-0.2-0.1-0.3-0.2-0.4-0.3c-0.2-0.2-0.4-0.3-0.7-0.4c-0.1,0-0.3,0-0.4,0c-0.2,0.1-0.1-0.2-0.3-0.3c-0.4-0.1-0.8-0.1-1.2-0.3
		c0,0-0.1,0-0.1,0c0,0-0.1,0.1-0.1,0c-0.1-0.1-0.2-0.3-0.3-0.4c-0.1-0.1-0.3-0.2-0.5-0.2c-0.1,0-0.1-0.1-0.1-0.2
		c0-0.1-0.1-0.2-0.2-0.3c0,0-0.1,0.1-0.1,0.1c-0.2,0.3-0.2,0.3-0.4,0.2c-0.1-0.1-0.2-0.1-0.3-0.2c-0.1-0.2-0.2-0.2-0.5-0.1
		c-0.2,0.1-0.5,0.2-0.7,0.3c0.2,0.2,0.3,0.4,0.2,0.6c0,0.1-0.2,0.2-0.1,0.4c0.2,0.3,0.2,0.5,0.2,0.8c0,0.2,0,0.3,0,0.5
		c0.1,0.2,0.2,0.3,0,0.5c0,0,0,0.2,0,0.3c0.1,0.1,0.2,0,0.3,0c0.3,0,0.5,0.2,0.6,0.5c0,0.1,0.1,0.2,0.2,0.2c0.2,0,0.4,0,0.6,0.2
		c0,0.1,0.2-0.2,0.3-0.1c0.2,0.2,0.4,0.3,0.7,0.4c0.5,0.3,0.8,0.8,1.4,0.8c0,0,0.1,0.1,0.1,0.1c0.2,0.3,0.5,0.4,0.9,0.2
		c0,0,0.1,0,0.2,0c0.1,0.4,0.3,0.3,0.5,0.2c0,0,0.1,0,0.1,0c0.3,0.3,0.8,0.1,1.1,0.5c0.1,0.1,0.3,0.3,0.4,0.2
		c0.3-0.2,0.5-0.1,0.7,0.2c0.1,0.1,0.3,0.1,0.4,0.1c0.2,0,0.1-0.1,0.1-0.2c0.1-0.3,0.2-0.6,0.5-0.7c0,0,0,0,0,0
		c-0.1-0.1-0.1-0.1,0-0.2c0.1-0.1,0.2-0.1,0.3-0.1c0.1,0,0.2-0.1,0.3-0.1c0.2,0,0.4-0.2,0.4-0.4c0-0.3,0.2-0.5,0.1-0.7
		c0-0.1,0-0.2,0.1-0.3c0.1-0.1,0.2-0.6,0.3-0.7c0-0.1,0-0.2,0-0.2c0.3-0.2,0.2-0.6,0.4-0.9c0.1-0.1-0.1-0.1,0-0.2
		c0.3-0.2,0.3-0.5,0.4-0.9c0-0.2,0.1-0.4,0.1-0.6c0-0.1,0-0.2,0.1-0.3c0.1-0.1,0.2-0.1,0.1-0.2c0-0.3,0.3-0.6,0-0.9c0,0,0-0.1,0-0.1
		c0-0.2,0.3-0.2,0.2-0.4c0-0.2-0.3-0.2-0.2-0.4c0-0.1,0-0.1,0-0.2c0-0.2-0.1-0.3-0.2-0.4c-0.1-0.1-0.2-0.1-0.2,0
		c0,0.1-0.1,0.2-0.2,0.3c-0.1-0.1-0.3-0.3-0.4-0.4c-0.1,0.1-0.1,0.1-0.2,0.2c-0.1-0.1,0-0.5-0.4-0.2c-0.2-0.2-0.4-0.3-0.6-0.2
		c-0.1,0-0.1,0-0.1,0.1c0,0.1-0.1,0.1-0.2,0.1c0,0-0.1-0.1-0.1-0.1c-0.1,0-0.6,0.2-0.7,0.3c-0.2,0.2-0.3,0.3-0.3,0.6
		c0,0.1,0.1,0.3-0.1,0.4c-0.1,0.1-0.1,0.2,0,0.3c0.2,0.2,0.1,0.3,0,0.5c-0.1,0.2-0.1,0.4-0.1,0.5c-0.1,0.2-0.2,0.3-0.3,0.5
		c-0.1,0.1,0,0.3-0.1,0.4c0.2,0.2,0,0.4-0.1,0.5c-0.1,0.1-0.1,0.2-0.1,0.3C114.8,40.4,114.8,40.6,114.8,40.8z"/>
	<path d="M115.4,59.4c0.3-0.2,0.4-0.5,0.4-0.9c0-0.1,0-0.2,0.1-0.3c0,0,0.1,0.2,0.2,0.1c0.2-0.2,0.3-0.3,0.5-0.5
		c0.1-0.1,0.1-0.2,0.2-0.3c0.1-0.1,0.2,0,0.3-0.1c0.2-0.1,0.3-0.1,0.5-0.3c0.2-0.1,0.2,0.2,0.4,0.2c0.1,0,0.3,0,0.4,0.1
		c0.1,0,0.2-0.1,0.4-0.2c0,0,0,0,0,0c0.2-0.1,0.4-0.2,0.5-0.3c0.1,0.2,0.4,0.1,0.5,0.2c0.2,0.1,0.5,0.2,0.7-0.1
		c0.1-0.1,0.2-0.1,0.3-0.1c0.2,0,0.3,0,0.4-0.2c0,0,0.1,0,0.1-0.1c0.3,0.4,0.6-0.1,0.9,0.1c0.1,0.1,0.2,0,0.2-0.1
		c0-0.1,0.1-0.1,0.2,0c0.2,0.1,0.4,0.2,0.7,0c0.1-0.2,0.4-0.2,0.6-0.3c0,0,0.1-0.1,0.1-0.1c0.1,0,0.2,0.2,0.3,0.1
		c0.1-0.1,0.2-0.2,0.3-0.2c0,0,0.1,0,0.2,0.1c0.2,0.1,0.3,0.1,0.5,0c0.3-0.2,0.6-0.2,0.9-0.2c0.1,0,0.2-0.1,0.2-0.2
		c-0.1-0.3-0.1-0.6-0.1-1c0-0.1,0-0.1-0.1-0.2c-0.2-0.3-0.2-0.4,0-0.7c0.2-0.2,0.5-0.4,0.6-0.7c0-0.1,0.1-0.1,0.2,0
		c0.2,0.1,0.2-0.1,0.4-0.1c0.2,0,0.2-0.4,0.5-0.2c0.2,0.1,0.4-0.1,0.6,0.1c0,0,0.2,0,0.2-0.1c-0.1-0.3,0.2-0.2,0.3-0.4
		c0-0.1,0.1,0,0.1,0c0.3,0.2,0.3,0.2,0.5-0.1c0.1-0.2,0.2-0.1,0.3-0.1c0.1,0.1,0,0.4,0.3,0.3c0.2-0.1,0.1,0.3,0.3,0.3
		c0.2,0,0.3,0.2,0.4,0.5c0.2,0.6,0.2,0.5,0.5,0.9c-0.2,0.2-0.3,0.5-0.1,0.7c0.1,0.2,0,0.4,0.3,0.5c0.1,0-0.1,0.2,0,0.4
		c0.1,0.1,0.1,0.2,0.2,0.4c0,0.1,0.1,0.3,0.1,0.4c0,0.2,0.2,0.3,0,0.5c-0.1,0.1,0.1,0.1,0.2,0.2c0.2,0.3,0.4,0.6,0,0.9
		c-0.1,0.1,0,0.3-0.2,0.4c0.2,0.1,0,0.4,0.2,0.5c0.1,0.1,0.1,0.3,0.2,0.5c-0.1,0-0.1,0.1-0.2,0.1c-0.3,0.3-0.3,0.3,0,0.6
		c0.1,0.2,0.2,0.3,0,0.5c-0.2,0.3-0.3,0.6-0.1,1c0.1,0.2,0.2,0.3,0,0.5c0,0-0.1,0.2,0,0.2c0.3,0.2,0,0.6,0.2,0.7
		c-0.1,0.2-0.2,0.4,0.1,0.6c0,0,0,0.1-0.1,0.1c-0.3,0.4-0.4,0.6-0.1,1c0.1,0.2,0.1,0.3,0,0.4c-0.1,0.1-0.1,0.3-0.1,0.4
		c0,0.2-0.1,0.3-0.1,0.4c0,0.2,0.2,0.3,0.1,0.4c0,0.2,0.1,0.4-0.1,0.5c0.1,0.2,0.1,0.4,0.2,0.6c0.1,0.1,0.1,0.2,0,0.4
		c-0.1,0.3-0.2,0.7,0.1,1c0.1,0.1,0,0.2,0,0.3c0,0.1,0,0.2-0.1,0.3c0.1,0.1,0.2,0.1,0.2,0.2c0.1,0.1,0.1,0.2,0,0.3
		c-0.2,0.3-0.3,0.8-0.1,1.2c0.1,0.1,0.1,0.2,0,0.3c0,0,0,0.1,0,0.2c0,0.2,0.4,0.1,0.1,0.4c-0.1,0.1,0,0.3,0,0.5c0,0.1,0,0.2,0,0.2
		c0,0,0.1,0.1,0,0.1c-0.3,0.2-0.2,0.5-0.3,0.8c-0.1,0.1,0,0.3,0,0.4c0,0.2-0.2,0.1-0.3,0.2c-0.1,0.1-0.1,0.3-0.2,0.3
		c-0.1,0.1-0.3,0-0.3,0.2c0,0.1-0.1,0-0.1,0c-0.1-0.1-0.2,0-0.2,0c-0.2,0-0.2,0.3-0.4,0.2c-0.2-0.1-0.3-0.1-0.4,0
		c-0.1,0.1-0.3,0.1-0.4-0.1c-0.1,0.1-0.2,0.1-0.4,0.1c-0.1,0-0.2,0-0.2,0.2c0,0,0,0.1-0.1,0c-0.1-0.1-0.1-0.1-0.2-0.1
		c-0.5-0.1-0.5-0.1-0.6,0.4c-0.1-0.3-0.1-0.3-0.5-0.5c-0.2-0.1-0.3-0.2-0.6-0.2c0-0.2,0-0.4,0-0.6c0-0.4-0.1-0.7-0.4-0.9
		c-0.1-0.1-0.1-0.1-0.2-0.2c0-0.1,0.4-0.2,0.1-0.4c-0.1-0.1-0.1-0.2,0-0.3c0.2-0.3,0.3-0.5,0.1-0.8c0,0,0,0,0-0.1
		c0.1-0.1,0.2-0.2,0.2-0.2c-0.2-0.2,0-0.5-0.2-0.8c-0.1-0.1-0.1-0.3,0-0.4c0.2-0.1,0.1-0.2,0-0.4c-0.1-0.1,0-0.4,0-0.5
		c0.2-0.3,0.1-0.5-0.1-0.7c-0.2-0.2-0.2-0.5-0.3-0.8c0-0.1,0.1-0.1,0.1-0.1c0.1-0.2,0.3-0.5,0-0.7c-0.1-0.1,0.1-0.2,0.1-0.3
		c0-0.1-0.2-0.1,0-0.3c0.1-0.1,0.1-0.2,0-0.3c-0.2-0.1-0.1-0.3,0-0.4c0.1-0.2,0.2-0.3,0-0.5c-0.1-0.1-0.1-0.2,0-0.3
		c0.3-0.3-0.1-0.6,0-0.9c-0.2-0.1-0.2-0.3,0-0.4c0.1-0.1,0-0.3,0-0.4c0-0.2-0.4-0.3-0.1-0.5c-0.2-0.2-0.2-0.3,0-0.5c0,0,0,0,0-0.1
		c0-0.2-0.1-0.5-0.1-0.7c0-0.2,0.1-0.4,0.1-0.6c-0.1-0.2,0-0.5,0.3-0.9c-0.3,0.2-0.6,0.1-0.8,0.4c0,0.1-0.1,0.1-0.2,0.1
		c-0.2,0-0.4,0.1-0.6,0.2c-0.1,0-0.2,0.1-0.2,0c-0.2-0.3-0.4,0-0.6,0c-0.2,0.1-0.3,0.2-0.6,0.1c-0.2-0.1-0.4,0.2-0.3,0.4
		c0.1,0.1,0.1,0.2,0.2,0.3c0,0,0.1,0.1,0.1,0.1c-0.1,0.1-0.1,0.2-0.1,0.4c0,0.1,0,0.4,0,0.4c-0.2,0.1,0.2,0.2,0,0.3
		c-0.1,0,0,0.2,0.1,0.2c0.1,0.1,0.2,0.2,0.1,0.2c-0.2,0.2,0,0.3,0,0.5c0,0.1,0.2,0.3,0,0.4c-0.2,0.1,0.1,0.5-0.2,0.6
		c0,0,0.1,0.2,0.1,0.2c0.1,0.2,0.2,0.3,0,0.5c-0.1,0.1-0.1,0.2,0,0.3c0.1,0.1,0.1,0.2,0,0.3c0,0.1,0.2,0.2,0,0.3
		c-0.1,0.1,0.2,0.3,0,0.4c-0.1,0.1-0.1,0.3-0.2,0.3c-0.1,0,0,0.1,0.1,0.1c0,0.1,0.1,0.1,0.1,0.2c0,0.2,0,0.3-0.1,0.5
		c0,0.1,0.2,0.3,0.1,0.4c-0.2,0.4-0.1,0.8-0.3,1.2c0,0.1,0,0.1,0,0.2c0.3,0.4,0.5,1.2,0.4,1.6c0,0,0,0,0,0.1
		c-0.1,0.2-0.3,0.5-0.2,0.7c0.1,0.2,0.2,0.5,0.1,0.7c-0.1,0.2,0.3,0.3,0,0.5c-0.2,0.1,0.2,0.3,0,0.4c0.1,0.1,0,0.3,0,0.4
		c0,0.1,0,0.3,0,0.4c0.2,0.2-0.2,0.2,0,0.3c0,0,0,0.1,0.1,0.2l0.1,0.5c0.1,0.1,0,0.1,0,0.1c-0.3,0.2-0.4,0.6-0.8,0.6
		c0,0-0.1,0.1-0.1,0.1c-0.2,0.2-0.4,0.2-0.6,0.2c-0.1,0-0.3-0.2-0.3,0.1c0,0.1-0.1,0-0.2,0c-0.2,0-0.5,0-0.5,0.1
		c-0.2,0.3-0.5,0.1-0.6,0c-0.2-0.2-0.6-0.2-0.8-0.4c0,0-0.1,0-0.2,0c-0.1,0.1-0.2,0.2-0.2,0.1c-0.1-0.1-0.3-0.2-0.3-0.4
		c0-0.1,0-0.2,0-0.3c0-0.1,0-0.2-0.1-0.3c-0.3-0.3-0.4-0.6-0.4-1c0-0.4-0.1-0.7,0.1-1.1c-0.2-0.3-0.1-0.7-0.1-1
		c0-0.2-0.3-0.3-0.4-0.5c0,0-0.1,0-0.2,0c-0.3,0.2-0.7,0.1-1.1,0.1c-0.1,0-0.2,0-0.3,0.1c-0.1-0.1-0.1-0.2-0.2-0.2
		c-0.1,0-0.2,0-0.3,0c-0.1,0-0.2-0.1-0.2-0.2c0-0.2,0-0.3-0.2-0.3c0,0,0,0,0,0c0-0.2,0.2-0.4-0.1-0.6c0-0.2-0.1-0.4,0.1-0.6
		c0,0,0-0.1,0-0.1c-0.2-0.4,0.1-0.8,0-1.2c0-0.2,0-0.4,0.1-0.6c0.1-0.1-0.2-0.3,0-0.5c-0.2-0.3,0-0.6-0.2-0.9
		c-0.1-0.1-0.1-0.3,0-0.4c0.1-0.2,0-0.3,0.1-0.5c0.1-0.2-0.2-0.3-0.1-0.5c0.2-0.2,0-0.3,0-0.4c0-0.1,0.2-0.2,0-0.3
		c-0.1-0.1,0.1-0.2,0.2-0.3c0.1-0.1,0.1-0.3,0-0.4c-0.2-0.2-0.2-0.3,0-0.5c0-0.1,0.1-0.2,0.1-0.2c-0.1-0.1-0.1-0.2-0.2-0.3
		c-0.3-0.2-0.1-0.5,0-0.6c0.1-0.2,0.2-0.3,0-0.6c-0.1-0.1-0.2-0.3,0-0.5c-0.2-0.3,0-0.6-0.2-0.9c-0.1-0.1,0.1-0.2,0.1-0.3
		c0-0.1-0.2-0.2-0.2-0.3c0-0.1,0-0.2,0-0.3C115.7,59.9,115.7,59.6,115.4,59.4z"/>
	<path d="M11.9,20.3c-0.1-0.1-0.1-0.1-0.2-0.2c-0.1-0.1-0.2,0-0.2,0c0,0.3-0.3,0.2-0.4,0.4c-0.2-0.1-0.3-0.1-0.5,0
		c-0.1,0-0.2,0-0.2,0.1c-0.2,0.2-0.3,0.3-0.5,0.1c-0.2,0.2-0.3,0.1-0.4-0.1c-0.1-0.1-0.2-0.3-0.4-0.4c-0.2-0.1-0.2-0.1-0.4-0.4
		c-0.1-0.1-0.2-0.2-0.3-0.2c-0.3,0-0.3-0.3-0.2-0.4c0.1-0.2-0.1-0.4,0-0.4c0.2-0.2,0.1-0.3,0-0.4c-0.1-0.2,0-0.3-0.1-0.5
		c-0.1-0.1,0.1-0.3,0.1-0.4c-0.1-0.2-0.2-0.4,0.1-0.6c0.1,0,0-0.1,0-0.2c-0.1-0.2-0.3-0.4-0.1-0.6c0,0,0-0.1-0.1-0.1
		c-0.1-0.2-0.1-0.4,0.1-0.5c0.2-0.1,0.1-0.2,0-0.4c-0.2-0.2-0.3-0.4-0.1-0.6c0-0.1,0-0.2,0-0.3c-0.2-0.2-0.2-0.5,0-0.7
		c0,0-0.1-0.2-0.1-0.3c0-0.1,0.2-0.2,0.1-0.3c-0.1,0,0-0.1,0-0.2c-0.1-0.2,0.2-0.4,0.1-0.5c-0.2-0.2,0.1-0.3,0-0.4
		c0,0,0.4-0.4,0.4-0.4c0.1-0.1,0.3,0,0.4-0.3C8.9,11,9,11,9.1,11c0.1,0,0.2,0.1,0.2,0.1c0.1,0,0.2,0.3,0.4,0.1
		c0.1-0.2,0.2,0.1,0.3,0c0.2-0.2,0.4-0.1,0.6,0c0.1,0.1,0.3,0,0.3,0c0.2-0.2,0.4,0.1,0.5-0.1c0.2,0.1,0.3,0.3,0.4-0.1
		c0-0.1,0.1,0,0.2,0c0.2,0.2,0.5,0.3,0.7,0.5c0.1,0.1,0.2-0.2,0.3,0c0.1,0.1,0.3,0.1,0.3,0.2c0.1,0.2,0.3,0.3,0.5,0.4
		c0.1,0,0.1,0.1,0.1,0.2c0,0.3,0.1,0.5,0.2,0.7c0.2,0.2,0.3,0.6,0.3,0.9c0,0.1-0.1,0.3,0.1,0.4c0.1,0.1,0,0.1,0,0.2
		c-0.1,0.1-0.3,0.2-0.1,0.4c0,0.2,0.1,0.5-0.1,0.7c-0.1,0.1,0,0.2,0,0.2c0,0.2,0.3,0.2,0.2,0.4c0,0.2-0.2,0.2-0.2,0.4
		c0,0.3,0.1,0.6,0.2,0.9c0,0.1,0.1,0.2,0.1,0.3c0,0.1-0.2,0.3-0.2,0.4c0,0.1,0.1,0.3,0.1,0.4c0,0.2-0.3,0.3-0.3,0.5
		c-0.1,0-0.3,0.1-0.3,0c-0.2-0.1-0.3-0.1-0.3,0.1c0,0.2-0.1,0.3-0.3,0.3c-0.3-0.1-0.4,0.2-0.6,0.3c-0.1,0.1-0.1,0.4-0.4,0.3
		C12.1,20,12.1,20.3,11.9,20.3z"/>
	<path d="M112,21.8c0-0.1,0.1-0.2,0.1-0.2c0,0,0.1-0.2,0.2,0c0.1,0.2,0.4,0.1,0.4,0.4c0,0,0,0,0,0c0.2-0.2,0.4,0.2,0.5,0.1
		c0.1-0.1,0.2,0,0.3,0c0.1,0,0.1-0.2,0.2-0.3c0.1-0.1,0.2-0.1,0.3,0c0.1,0.1,0.1,0.1,0.2,0.2c0.3,0.2,0.2,0.6,0.5,0.8
		c0,0.2,0.1,0.4-0.1,0.6c-0.1,0.1-0.1,0.2,0.1,0.2c0.1,0,0.1,0,0.1,0.1c0,0.4,0.1,0.9,0.2,1.3c0,0.1,0,0.2-0.1,0.2
		c-0.5,0.3-0.6,0.8-0.5,1.3c0,0.2-0.1,0.4,0.1,0.5c0,0,0,0.1,0,0.1c-0.2,0.2-0.2,0.4-0.3,0.7c0,0-0.1,0.1-0.1,0.1
		c-0.5,0-0.5,0.3-0.4,0.6c0,0,0,0.1,0,0.1c-0.3,0-0.1,0.3-0.3,0.4c-0.1,0-0.1,0.1-0.2,0.1c-0.5,0-0.9,0.2-1.4,0.4
		c-0.1,0.1-0.3,0.4-0.5,0.1c-0.1-0.1-0.1,0-0.1,0.1c-0.1,0.1-0.3,0.2-0.5,0.3c-0.3,0.1-0.3,0.1-0.4-0.1c0,0,0-0.1-0.1-0.1
		c-0.4,0-0.6-0.4-0.8-0.7c-0.1-0.1-0.3-0.2-0.4-0.3c-0.1-0.3-0.2-0.4-0.4-0.6c0,0,0-0.1,0-0.2c0-0.1,0-0.2-0.2-0.2
		c-0.1,0-0.1-0.2-0.1-0.3c0-0.2-0.1-0.4-0.2-0.5c0-0.1-0.2-0.1-0.2-0.2c0.1-0.1,0-0.2,0.1-0.3c0,0,0.1-0.1,0.1-0.1
		c-0.4-0.2-0.1-0.4,0-0.6c0-0.1,0.1-0.3,0-0.5c-0.1-0.2-0.1-0.4,0-0.6c0,0,0-0.1,0-0.2c0-0.1-0.2-0.2-0.1-0.4
		c0.1-0.1,0.2-0.2,0.3-0.3c0.1-0.1,0.1-0.1,0-0.2c-0.2-0.2-0.1-0.4,0.1-0.5c0.2-0.1,0.3-0.4,0.7-0.4c0.1,0,0.3-0.1,0.4-0.3
		c0-0.3,0.2-0.6,0.6-0.5c0.1,0,0.2-0.1,0.3-0.1c0.2-0.1,0.3-0.1,0.4,0c0,0,0.1,0.1,0.2,0.1C111.4,21.3,111.7,21.5,112,21.8z"/>
	<path d="M21.3,16c-0.2,0,0,0.4-0.3,0.1c-0.1-0.1-0.2-0.2-0.4,0c0,0-0.1,0-0.2,0c-0.2,0.2-0.5,0.2-0.7,0c-0.1-0.1-0.3,0-0.4-0.2
		c0,0-0.1,0-0.2,0c-0.1,0.3-0.2,0.2-0.3,0.1c-0.5-0.2-0.5-0.1-0.8-0.4c-0.2-0.2-0.2-0.1-0.3,0.1c0,0-0.1,0.1-0.1,0.1
		c0,0.1,0,0.2-0.2,0.2c-0.1,0-0.3-0.2-0.2-0.3c0.1-0.1,0.1-0.2,0-0.3c-0.1-0.1-0.2-0.2-0.3-0.3c0.2-0.1,0-0.4,0.2-0.5
		c0.1-0.1,0.1-0.3,0.1-0.3c-0.3-0.2-0.2-0.5-0.1-0.7c0.2-0.3,0.1-0.5,0-0.7c-0.1-0.2-0.2-0.3,0-0.4c-0.1-0.3,0-0.7-0.1-1
		c-0.1-0.3,0-0.7,0-1c0-0.1,0.1-0.2,0.2-0.2c0.1-0.1,0.1-0.2,0.1-0.3c0-0.9,0-0.9,0.4-1.9c0.2,0,0.2,0.2,0.3,0.3
		c0,0,0.1-0.1,0.1-0.1c0.2-0.1-0.1-0.4,0.2-0.4c0.3,0,0.6-0.1,0.8,0.1c0.1,0.2,0.1,0.1,0.2-0.1c0.1-0.2,0.3,0,0.4-0.1
		c0.1,0,0.3,0,0.3-0.2c0-0.1,0.1-0.1,0.2,0c0.1,0.1,0.1,0.1,0.2,0.2c0.2,0.1,0.3,0,0.3-0.2c0-0.1,0-0.1,0-0.2c0-0.1,0.1-0.1,0.2-0.1
		c0.2,0.1,0.3,0.3,0.5,0.5c0.1-0.2,0-0.4,0.1-0.6c0.4,0,0.4,0,0.6,0.4c0.1,0.2,0.1,0.5,0.4,0.6c0.1,0.1,0.1,0.1,0.1,0.3
		c0,0.1,0,0.1,0,0.2c0.4,0.3,0.2,0.8,0.2,1.2c0,0.1,0,0.4,0,0.4c0.3,0.1,0.2,0.4,0.2,0.6c0.3,0.4,0,0.8-0.1,1.2c0,0.2-0.1,0.4,0,0.6
		c0.1,0.1,0,0.2,0,0.2c-0.1,0.1-0.2,0.3-0.1,0.4c0.2,0.2,0.1,0.3,0,0.4c-0.1,0-0.1,0.1,0,0.2c0.1,0.2,0.1,0.5,0.2,0.8
		c0.1,0.3-0.2,0.4-0.3,0.7c0,0-0.1,0.1-0.1,0.1c0.1,0.2,0.1,0.3-0.1,0.4C22,15.8,22.1,16,22,16.2c-0.1,0.2-0.4,0.2-0.6,0.1
		C21.4,16.1,21.4,16,21.3,16z"/>
	<path d="M101.5,24.2c0.1,0.2,0.1,0.5,0.4,0.2c0.1-0.1,0.2,0.1,0.3,0.2c0.2,0.2,0.3,0.4,0.6,0.3c0.1,0,0.1,0.1,0.1,0.1
		c0,0.1,0,0.1,0,0.2c0.2,0.2,0.4,0.2,0.7,0.2c0,0.3-0.1,0.6,0.2,0.8c0.2,0.2,0.3,0.4,0.1,0.6c-0.1,0.2,0.1,0.4-0.1,0.5
		c-0.1,0-0.1,0.1,0,0.1c0.4,0.2,0,0.6,0.2,0.8c0.1,0.2-0.3,0.2-0.2,0.4c0.1,0.1,0,0.3,0,0.5c0,0.1-0.1,0.2-0.1,0.3
		c0,0.1,0,0.1,0,0.2c0.1,0.2,0,0.4-0.1,0.5c-0.1,0.2-0.3,0.1-0.3,0.2c0,0.1,0,0.2,0,0.4c0,0.1-0.1,0.1-0.1,0.1
		c-0.1,0-0.2,0.1-0.2,0.1c0,0.3-0.3,0.4-0.4,0.6c-0.1,0.1-0.1,0.3-0.3,0.3c-0.1,0-0.1,0.1-0.1,0.2c0,0.1,0,0.2-0.1,0.2
		c-0.3,0-0.4,0.2-0.5,0.4c-0.1,0.1-0.2,0.3-0.4,0.1c-0.1-0.1-0.2,0-0.3,0.1c-0.2,0.2-0.3,0.1-0.5,0.1c-0.3-0.1-0.6-0.1-1,0
		c-0.2,0.1-0.4,0-0.4-0.2c0-0.1-0.1-0.2-0.1-0.2c-0.4-0.1-0.5-0.5-0.9-0.7c-0.3-0.1-0.5-0.3-0.4-0.6c0-0.1,0-0.2-0.1-0.3
		c-0.1-0.1-0.1-0.1-0.1-0.5c0-0.2-0.2-0.3-0.1-0.4c0.1-0.1,0-0.2,0-0.3c-0.1-0.2,0-0.5,0.2-0.7c0.1-0.1,0.1-0.1,0-0.3
		c-0.1-0.1-0.1-0.3,0-0.3c0.2-0.2,0.1-0.3,0.1-0.5c0-0.5,0.1-0.7,0.5-1c0.1-0.1,0.3-0.3,0.2-0.4c-0.1-0.3,0-0.3,0.2-0.5
		c0.2-0.1,0.4-0.3,0.4-0.5c0,0,0-0.1,0-0.1c0.3-0.2,0.6-0.5,0.8-0.7c0,0,0.1,0,0.1,0c0.1,0.1,0.2,0.1,0.3,0c0.1-0.1,0.1-0.2,0.2-0.3
		c0.1-0.1,0.2,0.1,0.3,0.1c0.1,0,0.2,0,0.2,0C101,24.4,101.3,24.4,101.5,24.2z"/>
	<path d="M34.5,12.9c-0.1,0.1,0,0.2-0.1,0.3c-0.1,0.1-0.3,0.1-0.4,0c-0.1,0-0.2-0.1-0.3,0c0,0-0.1,0-0.1,0c-0.1-0.3-0.4-0.4-0.6-0.6
		c-0.1,0.2-0.1,0.4-0.2,0.7c0,0.1,0,0.1-0.1,0.1c-0.1,0-0.1,0-0.1-0.1c0-0.1-0.1-0.2-0.1-0.1c-0.2,0.2-0.5,0-0.7,0
		c-0.1,0-0.2,0-0.3,0c0.1-0.2-0.1-0.5,0.1-0.7c0,0,0-0.1,0-0.2c-0.1-0.2-0.3-0.4-0.2-0.7c0-0.1,0-0.3-0.2-0.6c0,0-0.1-0.1-0.1-0.1
		c0.2-0.2,0-0.4-0.1-0.6c0-0.1-0.1-0.2,0-0.2c0.2-0.2,0.2-0.3,0.1-0.5c0-0.1,0-0.2,0-0.2c0.2-0.2,0.1-0.4-0.1-0.6
		c-0.1-0.1-0.1-0.2,0-0.3c0.2-0.1,0-0.3,0.2-0.4c0.2-0.2-0.2-0.4-0.1-0.6c0.1-0.2,0.2-0.3,0.3-0.5c0,0-0.1-0.1-0.1-0.1
		c-0.1-0.2-0.1-0.4,0.2-0.5c0.1,0,0.1-0.1,0.1-0.1C31.9,6,32.1,6.1,32.1,6c0.2-0.2,0.3,0.2,0.5,0c0.2-0.2,0.3,0,0.4,0.1
		c0.1,0,0.1,0.1,0.2,0C33.3,6.1,33.4,6,33.4,6c0.2,0.2,0.1,0,0.2-0.1c0-0.1,0.1-0.1,0.2,0c0.1,0.1,0.1,0.2,0.3,0.2
		c0.1,0,0.2,0.1,0.3,0c0.1-0.1,0.2-0.1,0.4,0c0.1,0.1,0.2-0.2,0.4,0c0.1,0.1,0.3,0,0.4-0.1c0,0,0.1,0,0.1,0c0,0.3,0.3,0.2,0.4,0.3
		c0.1,0.2,0.3,0.2,0.5,0.2c0.2,0,0.3,0.2,0.1,0.4c-0.2,0.2-0.2,0.4-0.1,0.5c0.2,0.2,0,0.5,0.1,0.7c0.1,0.2,0.1,0.5,0.1,0.7
		c0,0.2,0,0.5,0,0.7c0,0.1,0,0.2,0,0.2c-0.4,0.3-0.1,0.5,0.1,0.8c0.1,0.1,0.1,0.2,0,0.3c-0.1,0-0.1,0.1-0.1,0.2
		c0,0.1,0.3,0.2,0.2,0.3c-0.1,0.1-0.2,0.2-0.2,0.4c0,0,0,0.1,0,0.1c-0.4,0.3-0.4,0.7-0.4,1.2c0,0.1-0.2,0.2-0.3,0.1
		C36,13,36,12.9,35.9,13c-0.1,0.1-0.2,0-0.3,0.2c0,0.1,0,0.1-0.1,0.2c-0.2,0-0.3-0.2-0.6-0.1C34.7,13.2,34.6,13,34.5,12.9z"/>
	<path d="M54.3,37.4c0.1,0.1,0.3,0.2,0.4,0.3c-0.3,0-0.5,0.2-0.8,0c-0.2-0.1-0.5,0-0.8,0c-0.1,0-0.2,0-0.2,0
		c-0.1-0.3-0.4-0.3-0.6-0.5c-0.1,0-0.1-0.1-0.2-0.2c-0.1-0.2-0.1-0.5-0.5-0.4c-0.1,0-0.1-0.2-0.2-0.3c-0.1-0.1,0-0.3,0-0.4
		c0-0.1,0.2-0.3,0-0.5c-0.1-0.1,0.2-0.2,0-0.4c0,0,0-0.2,0-0.2c0.2-0.1,0.1-0.3,0.1-0.4c0-0.2,0.1-0.4,0-0.5c-0.2-0.2,0.2-0.3,0-0.5
		c-0.1-0.1,0.1-0.4-0.1-0.5c0.2-0.1,0.1-0.2,0-0.4c0,0,0-0.2,0-0.2c0.2-0.2,0.2-0.5,0.3-0.7c0.1-0.1,0.1-0.2,0.1-0.4
		c0-0.2,0-0.4,0.3-0.4c0.1,0,0.2-0.1,0.2-0.2c0.1-0.3,0.2-0.2,0.5-0.4c0.4-0.2,0.7-0.2,1-0.2c0.1,0,0.2,0,0.3-0.1
		c0.3-0.2,0.4-0.2,0.6,0C55,30,55.1,30,55.3,30c0.2,0,0.4,0,0.5,0.2c0.1,0.1,0.3,0.2,0.2,0.4c0,0.1,0.1,0.2,0.2,0.3
		c0.4,0.3,0.6,0.6,0.6,1.1c0,0.5,0.1,1,0.2,1.5c0.1,0.2,0.1,0.5-0.1,0.8c-0.2,0.1,0.1,0.3,0.1,0.5c0,0,0.1,0.1,0,0.2
		c-0.2,0.2-0.4,0.6-0.4,0.9c0.1,0.4-0.3,0.6-0.3,0.9c0,0-0.2,0.1-0.3,0.1c-0.2,0-0.3,0-0.4,0.2c-0.1,0.2-0.2,0.2-0.3,0
		c-0.1-0.1-0.2-0.1-0.2-0.1C54.9,37.3,54.5,37.1,54.3,37.4z"/>
</g>
</svg>
