<?xml version="1.0" encoding="utf-8"?>
<!-- Generator: Adobe Illustrator 27.7.0, SVG Export Plug-In . SVG Version: 6.00 Build 0)  -->
<svg version="1.1" id="Ebene_1" xmlns="http://www.w3.org/2000/svg" xmlns:xlink="http://www.w3.org/1999/xlink" x="0px" y="0px"
	 viewBox="0 0 111.6 89.9" style="enable-background:new 0 0 111.6 89.9;" xml:space="preserve">
<g>
	<path d="M85.1,78.2C85.1,78.2,85.1,78.2,85.1,78.2c0.1,0.6-0.2,0.9-0.6,1.2c-0.2,0.1-0.2,0.3-0.5,0.2c-0.1,0-0.1,0.1-0.2,0.1
		c-0.1,0.1-0.2,0.3-0.4,0.2c-0.1,0-0.1,0.1-0.1,0.2c-0.1,0.1-0.2,0.3-0.4,0.1c-0.1-0.1-0.1,0-0.1,0c-0.1,0.1-0.2,0.2-0.3,0.3
		c-0.1,0.1-0.1,0.1-0.2,0c-0.2-0.2-0.3,0.1-0.4,0.1c0,0.2-0.1,0.2-0.2,0.2c-0.2,0-0.3,0-0.4-0.1c-0.2,0.3-0.5,0.3-0.7,0.5
		c-0.3,0.3-0.7,0.3-1,0.6c-0.1,0.1-0.4-0.1-0.6,0.1c-0.3-0.2-0.4,0-0.5,0.2c-0.2,0.2-0.3,0.4-0.6,0.3c-0.2,0.2-0.5,0.3-0.7,0.3
		c0,0-0.1,0.1-0.1,0.1c-0.2,0-0.5-0.1-0.6,0.1c-0.1,0.2-0.4,0.2-0.4,0.4c-0.2-0.1-0.2,0.2-0.4,0.1c-0.5-0.1-0.8,0.1-1.1,0.5
		c-0.1,0.1-0.1,0.1-0.3,0c-0.1-0.1-0.3-0.2-0.4,0c-0.1,0.1-0.2,0.3-0.4,0.4c-0.1,0.1-0.3,0.3-0.5,0.1c-0.1-0.1-0.2,0-0.3,0.1
		c-0.1,0.2-0.2,0.3-0.3,0.2c-0.1-0.1-0.2,0.2-0.3,0.1c-0.1-0.1-0.2,0.1-0.2,0.2c-0.1,0.1-0.3,0.2-0.4,0.2c-0.3,0-0.6,0-0.8,0.2
		c-0.2,0.2-0.5,0.1-0.6,0.4c0,0.1-0.2,0-0.3,0.1c-0.1,0-0.3,0-0.4,0.1c-0.1,0.2-0.3,0.2-0.5,0c0,0-0.1,0-0.2,0
		c-0.2,0.2-0.5,0.3-0.8,0.6c0,0,0,0.1-0.1,0.1c-0.2,0-0.4,0-0.5,0.2c-0.3-0.1-0.4,0.2-0.7,0.2c-0.1,0-0.5,0.1-0.6,0
		c-0.1,0-0.1,0-0.2,0c-0.3,0.3-0.8,0.3-1,0.6c-0.1,0.1-0.1,0-0.2,0c-0.1,0-0.2,0-0.2,0.1c0,0.2-0.2,0.3-0.3,0.2
		c-0.3-0.1-0.5,0.2-0.7,0.1c-0.1,0-0.2,0.1-0.2,0.1c0,0.3-0.3,0.3-0.5,0.5c-0.1,0.1-0.2,0.2-0.3,0c0,0-0.1,0-0.1,0
		c0,0.2-0.1,0.2-0.3,0.2c0,0-0.1,0-0.1,0.1c-0.1,0.1-0.1,0.2-0.2,0.3c-0.1,0.2-0.2-0.1-0.3,0.1c0,0.1-0.2,0.2-0.3,0.3
		c-0.3-0.4-0.6-0.5-1.1-0.5c-0.3,0-0.5-0.3-0.8-0.2c-0.2-0.3-0.5-0.2-0.8-0.5c-0.2-0.2-0.4-0.3-0.6-0.4c-0.2-0.2-0.1-0.5,0-0.7
		c0-0.1-0.2-0.2-0.1-0.4c0.2-0.2-0.1-0.2-0.1-0.3c0-0.1-0.1-0.2-0.2-0.4c0-0.1-0.2-0.2,0-0.3c0.1,0,0.1-0.1,0.1-0.2
		c0-0.1-0.2-0.1-0.3-0.1c-0.1,0-0.1,0-0.2,0c0-0.2,0-0.4,0-0.5c0-0.1,0.2-0.2,0.1-0.3c-0.1-0.1-0.2,0-0.4-0.1
		c0.2-0.1,0.2-0.3,0.4-0.3c0.1,0,0.1-0.1,0.1-0.2c0-0.3,0.1-0.6,0.2-0.9c0.1-0.1-0.1-0.2-0.1-0.2c0-0.1,0.2-0.2,0.1-0.2
		c-0.1-0.2,0.2-0.5-0.2-0.5c0-0.1,0-0.3,0.1-0.4c0.1-0.1,0.1-0.2,0-0.3c0,0,0-0.2,0-0.2c0.1-0.3,0-0.7,0.1-1c0.2-0.4,0-0.7-0.1-1
		c0-0.1-0.1-0.2,0-0.4c0.1-0.2,0.1-0.5,0-0.7c-0.1-0.1,0-0.2,0.1-0.3c0.1-0.1,0.1-0.2,0.2-0.3c0.1-0.1,0.1-0.2,0-0.3
		c-0.1-0.1-0.1-0.1-0.2-0.2c-0.1-0.1-0.1-0.2,0-0.3c0,0,0.1-0.1,0.1-0.1c0-0.2-0.3-0.2-0.2-0.4c0-0.1,0.2-0.1,0.1-0.3
		c-0.1-0.2-0.1-0.5,0-0.7c0-0.1,0-0.1,0-0.2c-0.1-0.1-0.2-0.3-0.1-0.4c-0.2-0.2-0.1-0.3,0-0.5c-0.3-0.2,0.1-0.5,0-0.7c0,0,0,0,0-0.1
		c0.3-0.3,0.1-0.7-0.1-1c0,0,0-0.1,0-0.1c0.2-0.2,0-0.4,0-0.6c0-0.3,0.2-0.4,0.4-0.6c0,0-0.1-0.1-0.1-0.1c-0.2-0.1-0.2-0.3-0.1-0.5
		c0-0.1,0.1-0.1,0-0.2c-0.2-0.1-0.2-0.3-0.2-0.5c0-0.3,0-0.6-0.2-0.9c-0.1-0.2-0.3-0.4-0.4-0.6c-0.1-0.2-0.3-0.1-0.4-0.3
		c-0.3,0-0.4-0.3-0.6-0.5c0,0,0,0,0-0.1c-0.1-0.2-0.3,0-0.5-0.1c-0.1-0.1,0-0.3-0.3-0.3c-0.2,0-0.3,0-0.4-0.2c0-0.1-0.2-0.2-0.3-0.3
		c-0.1-0.1-0.1-0.1-0.2,0c-0.3,0.3-0.4,0-0.5-0.2c-0.1-0.2-0.4-0.2-0.4-0.5c0-0.1-0.2-0.1-0.3-0.1c-0.2,0-0.4,0-0.5-0.3
		c0-0.1-0.2-0.3-0.4-0.1c-0.1,0.1-0.2,0-0.2,0c-0.2-0.2-0.3-0.3-0.6-0.3c-0.1,0-0.2,0-0.2-0.1C51,65,50.6,65,50.3,64.9
		c-0.3-0.1-0.4-0.2-0.6-0.4c-0.1-0.1-0.1-0.2-0.3-0.2c-0.2,0-0.4,0.1-0.5-0.1c-0.1-0.2-0.3-0.2-0.4-0.4c-0.2-0.3-0.6-0.2-0.8-0.4
		c0,0-0.1,0.1-0.1,0.1c-0.1,0-0.2,0-0.2,0c0-0.3-0.3-0.2-0.3-0.3c-0.1-0.1-0.2-0.2-0.3-0.3c-0.1-0.1-0.3-0.2-0.4,0
		c-0.1,0.1-0.2,0-0.3,0c-0.2,0-0.1-0.3-0.4-0.3c-0.2,0.1-0.3-0.2-0.4-0.2c-0.2,0-0.3-0.2-0.4-0.3c-0.1-0.1-0.1-0.1-0.2-0.1
		c-0.2,0-0.4,0-0.4-0.3c0-0.1-0.1-0.1-0.1-0.1c-0.2,0.1-0.4-0.1-0.6-0.1c-0.2-0.1-0.5,0-0.5-0.3c-0.2-0.1-0.4-0.1-0.6-0.2
		c-0.1-0.1-0.3-0.1-0.4-0.2c-0.1-0.1-0.2-0.1-0.2,0c-0.1,0.1-0.2,0.1-0.2,0c-0.7-0.7-0.9-0.8-2.2-1.2c-0.2-0.1-0.3-0.2-0.4-0.4
		c-0.1-0.1-0.2-0.2-0.2-0.1c-0.2,0.2-0.3,0.1-0.3-0.1c0-0.1-0.1-0.2-0.3-0.2c-0.3,0-0.5,0-0.7-0.2c-0.1-0.1-0.3,0.2-0.4-0.1
		c-0.1-0.1-0.2-0.2-0.3-0.3c0,0-0.1-0.1-0.1-0.1c-0.3,0-0.5,0-0.6-0.3c0,0-0.1,0-0.2,0c-0.2,0.2-0.3,0.1-0.4-0.1
		c-0.1-0.3-0.4-0.4-0.7-0.5c-0.1-0.1-0.4,0.1-0.4-0.2c0-0.1-0.5,0-0.5,0.2c0,0,0,0.1,0,0.1c0.5,0.3,0.3,0.8,0.4,1.2
		c0.1,0.4,0.1,0.9,0,1.3c-0.1,0.2,0.1,0.2,0.2,0.2c0.2,0,0.3,0,0.3,0.3c0,0.1,0.1,0.2,0.3,0.2c0.3,0.1,0.7,0.1,0.8,0.5
		c0.3,0.1,0.5,0.4,0.8,0.3c0.2,0,0.2,0,0.3,0.2c0.1,0.2,0.3,0.3,0.5,0.4c0.1,0,0.1,0,0.2,0c0.5,0.2,0.5,0.2,0.6,0.7
		c0,0.1,0.1,0.1,0.2,0.1c0.1,0,0.2,0,0.2,0.1c0,0.3,0.1,0.4,0.4,0.4c0.3,0,0.4,0.1,0.5,0.4c0.1,0.2,0.4,0.5,0.7,0.5
		c0.4,0,0.4,0,0.5,0.4c0,0.1,0,0.2,0.1,0.2c0.4-0.1,0.3,0.3,0.3,0.4c0,0.1,0.1,0.2,0.2,0.2c0.3-0.1,0.2,0.2,0.3,0.3
		c0.1,0.2,0.2,0.5,0.5,0.7c0.1,0.1,0.3,0.2,0.3,0.4c0,0,0.1,0,0.1,0.1c-0.1,0.5,0,0.6,0.5,0.7c0.1,0,0.2,0,0.2,0.2
		c0,0.1,0,0.3,0,0.4c0,0.1,0,0.2,0,0.2c0.3,0.4,0.3,0.9,0.8,1.3c0.1,0.1,0.1,0.2,0.2,0.3c0.1,0.2,0.2,0.4,0.4,0.6
		c0.1,0.1,0.2,0.2,0,0.3c0,0-0.1,0.1,0,0.1c0.3,0.3,0.3,0.7,0.3,1c0,0,0.3,0.7,0.4,0.8c0.1,0.1,0.1,0.1,0.1,0.2
		c-0.1,0.4,0,0.6,0.1,0.9c0.1,0.2,0.1,0.5,0.1,0.8c0,0.3,0,0.6,0.3,0.8c0.2,0.2,0.2,0.2,0,0.4c-0.1,0.1-0.1,0.1,0,0.2
		c0.1,0.1,0.2,0.2,0.2,0.4c0,0.2-0.1,0.3,0.1,0.5c0.1,0.1,0.1,0.2,0,0.3c-0.2,0.3,0,0.6-0.1,0.9c0,0.1,0,0.1,0.1,0.1
		c0.3,0.2,0.1,0.4,0,0.5c0,0.1-0.1,0.5-0.1,0.6c0,0,0,0.1,0,0.1c0,0.1-0.1,0.1-0.1,0.1c-0.5,0-0.5,0-0.7,0.4
		c-0.1,0.2-0.1,0.2-0.3,0.1c-0.1-0.1-0.1,0-0.2,0c-0.2-0.2-0.3,0.2-0.5,0c-0.1-0.1-0.3-0.1-0.5,0.1c0,0-0.2-0.2-0.3,0
		c-0.1,0.1,0,0.3-0.2,0.3c-0.1,0-0.2-0.1-0.3-0.2c-0.1,0-0.1,0-0.1,0c-0.3,0-0.6,0.3-0.8-0.2c-0.3-0.1-0.6-0.4-0.7-0.6
		c0-0.1-0.1-0.1-0.1-0.2c-0.1-0.1-0.2-0.2,0-0.3c0.1-0.1,0.1-0.2,0-0.3c0,0-0.1-0.1-0.1-0.1c0.1-0.3-0.1-0.6-0.3-0.7
		c-0.3-0.2,0-0.4-0.1-0.6c-0.1-0.2,0-0.4-0.2-0.5c-0.1,0-0.1-0.1-0.1-0.2c0-0.4-0.2-0.7-0.1-1c0-0.1,0-0.2-0.1-0.3
		c-0.1-0.2-0.2-0.5-0.3-0.7c-0.1-0.2-0.1-0.5-0.4-0.6c-0.2,0-0.1-0.3-0.2-0.4c-0.1-0.2-0.3-0.3-0.1-0.5c-0.2-0.1-0.2-0.3-0.3-0.5
		c-0.1-0.1,0-0.1,0-0.2c0-0.2,0.1-0.4-0.2-0.5c-0.1,0-0.2-0.2-0.2-0.4c0-0.3-0.2-0.4-0.4-0.6c-0.1-0.1-0.2-0.2-0.3-0.4
		c-0.1-0.2-0.1-0.5-0.4-0.6c-0.2,0-0.1-0.3-0.2-0.3c-0.2,0-0.2-0.3-0.4-0.3c-0.1,0-0.2-0.3-0.4-0.3c-0.1-0.1-0.2-0.1-0.1-0.2
		c0-0.1,0-0.2-0.1-0.2c-0.2,0-0.2-0.5-0.5-0.4c-0.2-0.2-0.4-0.1-0.6-0.2c-0.1-0.1-0.3-0.1-0.4,0c0,0.1-0.1,0.2,0.1,0.3
		c0,0,0,0.1,0,0.2c0,0.2,0.2,0.4-0.1,0.5c-0.1,0.1-0.1,0.2-0.1,0.3c0.2,0.2,0.1,0.5,0.1,0.7c0,0.2,0,0.4,0.1,0.6
		c0.2,0.2,0.1,0.4,0.1,0.6c-0.3,0.2,0.1,0.3,0,0.5c0.3,0.1,0.1,0.4,0.1,0.6c0,0.1-0.1,0.1-0.1,0.2c0,0.2,0.5,0.3,0.1,0.6
		c-0.2,0.2-0.1,0.4-0.1,0.7c-0.1,0.1-0.2,0-0.3,0c-0.1,0-0.2,0.1-0.2,0.2c0,0.2-0.3,0.2-0.3,0.4c-0.1,0-0.1,0-0.2,0
		c-0.1-0.1-0.1-0.1-0.2,0c0,0.1-0.2,0.1-0.2,0.1c-0.3-0.3-0.5,0-0.7,0.1c-0.1,0-0.2,0-0.2,0c-0.1,0.1-0.2-0.1-0.4-0.1
		c-0.1,0-0.1,0.3-0.3,0.1c0,0-0.1,0-0.1,0.1c-0.1,0.3-0.1,0.3-0.3,0.2c-0.1-0.1-0.1-0.1-0.2,0.1c-0.1,0.3-0.2,0.3-0.4,0.1
		c-0.1-0.1-0.2-0.1-0.3-0.2c-0.1-0.1-0.1,0-0.1,0c-0.1,0.3-0.2,0.2-0.3,0c-0.1-0.3-0.3-0.4-0.6-0.5c-0.3-0.2-0.2-0.6-0.4-0.8
		c-0.1-0.1,0-0.2-0.1-0.3c-0.1-0.1-0.1-0.3,0.1-0.4c0.2-0.2,0.2-0.3,0-0.5c-0.2-0.1-0.2-0.4-0.1-0.5c0.2-0.2,0.1-0.4,0-0.5
		c-0.1-0.1-0.1-0.3,0-0.4c0.1,0,0-0.4-0.1-0.4c-0.1-0.1-0.2-0.1-0.4,0c-0.3,0.3-0.3,0.2-0.5,0.3c-0.2,0-0.4,0.1-0.7,0.1
		c-0.2,0-0.2,0.1-0.3,0.3c0,0.1-0.1,0.1-0.2,0.1c-0.2,0.1-0.2-0.2-0.4-0.1c-0.1,0.1-0.1,0.3-0.2,0.3c-0.1,0.1-0.3,0.1-0.4,0.2
		c-0.1,0.1-0.2,0.2-0.3,0.3c-0.1-0.1-0.1-0.1,0-0.2c0-0.1,0.2-0.1,0-0.1c-0.1,0-0.3,0-0.3,0c-0.1,0.1-0.3,0.1-0.4,0.1
		c-0.1,0-0.2,0-0.3,0.1c-0.2,0.2-0.5,0.2-0.7,0.2c-0.2,0-0.3,0.1-0.3,0.2c-0.1,0.3-0.3,0.2-0.4,0.4c0,0.1-0.2,0.1-0.3,0
		c-0.1-0.1-0.2-0.1-0.2,0.1c0,0.1,0,0.1-0.1,0.1c-0.3,0-0.6,0-0.7,0.4c0,0-0.5,0.1-0.5,0.1c-0.2-0.1-0.3,0-0.5,0.1
		c-0.2,0.3-0.5,0.4-0.8,0.3c-0.3-0.1-0.5,0.2-0.8,0.1c-0.1,0-0.1,0-0.1,0.1c0,0.2-0.1,0.3-0.2,0.3c-0.1,0-0.2,0.2-0.4,0
		c-0.1-0.1-0.2,0-0.2,0.1c-0.2,0.2-0.3,0.4-0.6,0.1c0,0-0.2,0-0.2,0c-0.2,0.1-0.4,0.4-0.7,0.1c0,0-0.1,0.1-0.2,0.2
		c-0.1,0.1-0.3,0.2-0.3-0.1c0-0.1-0.1-0.1-0.1-0.1c-0.1,0-0.1,0.1-0.1,0.2c0,0.1,0,0.2,0,0.3c0.3-0.1,0.5,0,0.7,0.1
		c0.2,0.1,0.3,0.1,0.4,0.1c0.2,0,0.3,0.2,0.4,0.1c0.1,0,0.2,0,0.3,0.1c0.1,0.2,0.3,0.2,0.5,0.1c0.1-0.1,0.2-0.1,0.3-0.1
		c0.3,0.4,0.8,0.1,1.1,0.4c0.1,0.1,0.3,0,0.4,0.1c0.1,0.1,0.2-0.2,0.3,0.1c0.4,0,0.8,0.1,1.2,0.3c0.2-0.3,0.4,0.1,0.6,0
		c0.1-0.1,0.2,0.1,0.2,0.1c0.1,0.2,0.3,0.3,0.5,0.3c0.2,0,0.2,0.1,0.1,0.2c-0.1,0.1-0.1,0.1-0.2,0.2c0,0.1-0.1,0.2,0,0.3
		c0.2,0.1,0.2,0.2,0.2,0.3c0,0.1,0.2,0.2,0.3,0.3c0.1-0.2,0.4,0,0.5-0.1c0.2-0.1,0.3-0.1,0.4,0.1c0,0.1,0.2,0.2,0.3,0.3
		c0.1,0.2,0,0.4-0.2,0.5c-0.1,0-0.1-0.2-0.2-0.1c-0.1,0.1-0.1,0.3,0,0.3c0.4,0.3-0.1,0.4-0.2,0.7c-0.2,0-0.3,0.2-0.3,0.4
		c0,0.1-0.1,0.2-0.2,0.2c-0.2,0-0.2,0.1-0.1,0.2c0,0,0,0,0,0.1c0,0,0,0.1,0,0.1c-0.3,0-0.2,0.4-0.5,0.4c-0.2,0-0.4-0.1-0.6,0.1
		c0,0,0,0-0.1,0c-0.2-0.2-0.4-0.2-0.7-0.2c-0.1,0-0.1,0-0.2-0.1c-0.1-0.1-0.1-0.1-0.3,0c-0.1,0.1-0.4,0.2-0.4-0.2c0,0-0.1,0-0.1,0
		c-0.3,0.3-0.6-0.1-0.9,0c-0.1-0.2-0.2-0.1-0.4-0.1c-0.3,0-0.6,0-0.8-0.3c-0.1-0.1-0.2-0.1-0.4,0c-0.2,0.1-0.3,0.1-0.4-0.1
		c-0.2-0.3-0.4,0.1-0.6-0.1c0,0-0.1,0.1-0.1,0.1c0,0.1,0.1,0.2,0,0.4c0,0,0,0.1,0.1,0.1c0.3,0,0.3,0.2,0.3,0.4c0,0.3,0,0.6,0.3,0.9
		c0.1,0.1,0,0.2,0.1,0.3c0.2,0.1,0,0.3,0.2,0.4c0.1,0.1,0.1,0.4,0,0.5c-0.1,0.1-0.1,0.3,0,0.4c0.2,0.1,0.2,0.3,0.2,0.5
		c0,0.3,0.2,0.5,0.1,0.9c0,0,0,0,0,0.1c0.5,0.3,0.2,0.9,0.5,1.4c-0.2,0.3,0.1,0.4,0.2,0.5c-0.1,0.2-0.4,0.3-0.4,0.7
		c0,0.1-0.1,0.2-0.1,0.2c-0.3,0.1-0.3,0.5-0.6,0.5c-0.2,0-0.4,0.1-0.6,0c-0.1,0-0.1-0.1-0.1,0c-0.5,0.4-0.5,0.4-0.9,0.4
		c-0.1,0-0.2,0-0.3,0.1c-0.4,0.1-0.6,0.1-0.8-0.4c0-0.1-0.1-0.2-0.2-0.2c-0.3,0-0.3-0.1-0.3-0.3c-0.4-0.2-0.3-0.7-0.6-1
		c-0.1-0.1,0-0.3-0.1-0.4c-0.3-0.2-0.2-0.5-0.2-0.8c0-0.1-0.1-0.1-0.1-0.2c0,0-0.1-0.1-0.1-0.1c0.3-0.2-0.1-0.5,0-0.7
		c0-0.1,0-0.2-0.1-0.3c-0.1-0.1-0.2-0.2-0.1-0.4c0.1-0.4-0.3-0.8-0.2-1.2c-0.3-0.2-0.3-0.5-0.1-0.8c-0.1-0.2-0.1-0.5-0.3-0.6
		c-0.2-0.1-0.2-0.2-0.2-0.4c0-0.3-0.1-0.5-0.1-0.7c0-0.1-0.3-0.3-0.1-0.4c0.2-0.1-0.2-0.2,0-0.4c0.2-0.2-0.1-0.2-0.1-0.4
		c-0.2,0.2-0.4,0.3-0.4,0.5c0,0.1,0,0.1-0.1,0.1c-0.3-0.1-0.5,0.3-0.8,0.2C10.1,80.1,9.8,80,9.6,80c-0.2,0-0.3,0-0.3,0.3
		c0,0.1-0.1,0.2-0.3,0.2c-0.5,0-0.9,0.2-1.1,0.6c-0.1,0.1-0.3,0.3-0.4,0.3c-0.2,0-0.1,0.2-0.2,0.2c-0.1,0-0.1-0.1-0.2-0.1
		c-0.2,0-0.4,0.1-0.6,0.1c-0.2,0-0.3,0.2-0.4,0.3c-0.1,0.1-0.2,0.2-0.3,0.1c-0.2-0.1-0.3,0-0.3,0.1L4.5,83c-0.1-0.2-0.2,0-0.3,0.1
		c0,0-0.1,0-0.1,0c-0.2-0.3-0.6-0.2-0.9-0.5c-0.1-0.1-0.2-0.2,0-0.3c0,0,0-0.2-0.1-0.2c-0.2,0-0.2-0.4-0.4-0.2c0,0,0,0,0,0
		c0-0.2-0.1-0.3-0.3-0.4c-0.1-0.1-0.1-0.3-0.2-0.4c-0.1-0.1,0-0.2,0.1-0.3c0.1-0.1,0.1-0.2-0.1-0.2c-0.3,0-0.3-0.1-0.1-0.3
		c0.1-0.1,0.2-0.1,0.1-0.3c-0.6,0.3-0.7,0.3-0.7-0.5c0-0.2-0.1-0.5,0.3-0.5c0,0,0.1-0.1,0.1-0.1c0-0.3,0.3-0.5,0.4-0.7
		c0-0.1,0.1-0.1,0.2,0c0.1,0.1,0.2,0.1,0.3,0.1c0,0,0.1,0.1,0.1,0c0.1-0.3,0.4-0.1,0.5-0.3c0.1-0.2,0.4-0.1,0.5-0.4
		c0-0.2,0.3-0.2,0.4-0.4c0-0.2,0.3-0.2,0.4-0.1c0.2,0.2,0.3,0,0.4-0.1c0.1-0.1,0.2-0.3,0.4-0.4c0.3-0.3,0.5-0.3,0.9-0.3
		c0.1,0,0.2,0,0.3-0.2c0-0.1,0.2-0.3,0.4-0.1c0.1,0.1,0.1,0,0.2,0c0.1-0.1,0.2-0.2,0.3-0.3c0-0.2,0.2-0.3,0.3-0.3
		c0.3,0,0.4-0.1,0.5-0.3c0.1-0.1,0.1-0.1,0.2,0C8.5,75,8.6,75,8.7,74.7c0.1-0.2,0.3-0.4,0.5-0.3c0.1,0,0.2,0,0.2-0.1
		c0.1-0.3,0.4-0.4,0.5-0.6c0-0.1,0.1-0.1,0.2-0.1c0.3,0.1,0.3,0,0.5-0.2c0.1-0.4-0.1-0.7,0-1.1c0,0,0,0,0,0c-0.2,0-0.4,0-0.3-0.3
		c-0.2-0.1-0.3-0.3-0.4-0.3c-0.4,0-0.7-0.2-1-0.3c-0.3,0-0.5-0.1-0.5-0.4c0-0.2-0.2-0.2-0.3-0.3c-0.3-0.1-0.7-0.2-1-0.2
		c-0.3,0-0.4-0.2-0.5-0.4c0-0.1,0-0.1-0.1-0.1c-0.3,0-0.5-0.2-0.6-0.4c-0.1-0.1-0.3-0.1-0.4-0.1c-0.3-0.1-0.5-0.4-0.9-0.4
		c0-0.2-0.1-0.3-0.3-0.2c-0.1,0.1-0.2-0.2-0.4,0c-0.1,0.1-0.2-0.1-0.3-0.2c-0.1-0.2-0.2-0.3-0.3-0.1c0,0-0.2,0-0.2,0
		c-0.2-0.3-0.6-0.3-0.7-0.6C2.2,68,2.2,68,2,68c-0.2,0-0.3-0.2-0.5-0.1c-0.1,0-0.2-0.2-0.4-0.2c-0.2,0-0.3,0-0.5,0
		c-0.1-0.1-0.1-0.3-0.2-0.4c-0.1-0.1-0.3-0.4,0-0.6c0.1-0.2-0.1-0.6-0.3-0.8c-0.1-0.1-0.3-0.3,0-0.3c0.1,0,0-0.1,0-0.2
		c0-0.2,0-0.3,0.1-0.4c-0.2-0.1,0-0.2,0.1-0.3c0.1-0.1-0.1-0.2-0.1-0.3c0-0.1-0.1-0.1,0-0.2c0.2-0.1,0.2-0.3,0-0.4
		c-0.1-0.1-0.1-0.2,0-0.4c0.1-0.2,0.1-0.4-0.1-0.6c-0.1-0.1-0.1-0.2,0-0.3c0.1-0.1,0.1-0.1,0-0.2c-0.2-0.2,0.1-0.3,0.1-0.5
		c-0.1-0.1-0.2-0.3,0-0.4c0,0,0.1-0.1,0.1-0.1c-0.2-0.2,0-0.5,0-0.7c0-0.1,0-0.2-0.1-0.3c-0.2-0.2-0.2-0.3,0-0.4
		c0.3-0.1,0.2-0.3,0.2-0.4c-0.2-0.3-0.1-0.5,0-0.8c0-0.1,0-0.7-0.1-0.8c-0.2-0.1-0.1-0.3-0.2-0.4c0-0.1-0.1-0.1,0-0.2
		c0.2-0.1,0.2-0.3,0-0.5c-0.2-0.2-0.2-0.3,0-0.5c0,0,0,0,0,0c0.2-0.3,0.2-0.5,0-0.7c-0.1-0.2-0.1-0.3,0-0.4c0.3-0.3,0.2-0.6,0-0.8
		C0.2,54,0.2,54,0.4,53.9c0.1,0,0.1-0.1,0-0.2c0,0-0.1-0.1-0.1-0.1c0.1-0.2,0.3-0.4,0.3-0.7c0-0.2-0.3-0.4-0.3-0.6
		c-0.1-0.2-0.1-0.4,0.1-0.6c0.1-0.1,0.3-0.3,0-0.4c0,0,0,0,0-0.1c0.3-0.3,0-0.5-0.1-0.8c-0.1-0.3,0-0.5,0.1-0.7
		c0.2-0.3,0.2-0.4,0-0.5C0.2,49,0.2,49,0.4,48.8c0.1-0.1,0.2-0.1,0-0.3c-0.2-0.2-0.2-0.3,0-0.5c0.1-0.1,0.2-0.2,0.1-0.3
		c-0.3-0.3,0-0.7,0-1.1c0-0.1,0.1-0.1,0.1-0.2c0-0.4,0-0.9,0.1-1.3c0.1-0.2,0-0.5-0.2-0.6c-0.2-0.2-0.2-0.5-0.1-0.6
		c0.3-0.3,0.3-0.6,0.2-0.9c-0.2-0.5-0.2-1-0.3-1.4c-0.1-0.2,0.1-0.5,0.2-0.8c0,0,0.1-0.1,0.2,0c0.2,0.2,0.3-0.1,0.3-0.1
		c0-0.3,0.2-0.3,0.3-0.5c0,0,0-0.1,0-0.1c0.4,0.1,0.4-0.3,0.6-0.5c0.2-0.2,0.3-0.2,0.4,0c0.1,0.1,0.3,0.1,0.4,0.1
		c0.1,0,0.2,0,0.3,0.1C3,40,3.2,39.9,3.4,39.9c0.2,0,0.5-0.1,0.6,0.2c0.1,0.1,0.1,0,0.2,0c0.1,0,0.2,0,0.3,0.1
		c0.1,0.2,0.3,0.2,0.5,0.1c0.2,0,0.4,0.1,0.5,0.3c0.2,0.2,0.4,0.5,0.8,0.2c0.1-0.1,0.2,0,0.2,0.1c0.1,0.2,0.3,0.3,0.6,0.2
		c0.2,0,0.3,0,0.4,0.2c0.2,0.3,0.4,0.2,0.7,0c0.1-0.1,0.2-0.2,0.4-0.2c0,0,0.1,0,0.1-0.1c0.4-0.3,0.4-0.4,0.9-0.5
		c0.1,0,0.2-0.1,0.3-0.2c0.1-0.2,0.3-0.3,0.5-0.3c0.2,0,0.3,0,0.4-0.2c0.1-0.3,0.4-0.2,0.5-0.5c0.2,0.1,0.3,0,0.5-0.1
		c0.1-0.1,0.3,0,0.4-0.2c0.1-0.1,0.3,0,0.3-0.2c0-0.1,0.1-0.1,0.1-0.1c0.3,0.1,0.4-0.1,0.6-0.3c0.3-0.4,0.8-0.6,1.3-0.5
		c0.2,0,0.4-0.1,0.4-0.3c0-0.1,0-0.2,0-0.4c0-0.2-0.2-0.4,0.1-0.6c0-0.3,0.1-0.5-0.1-0.8c-0.1-0.2-0.1-0.3,0.1-0.4
		c0.1,0,0.1-0.1,0.1-0.2c0.1-0.2-0.2-0.4-0.1-0.6c0.1-0.2,0.2-0.4,0-0.6c-0.1-0.3,0-0.5,0-0.8c0-0.3-0.2-0.5,0-0.8
		c0.1-0.2,0.1-0.3,0-0.4c-0.1-0.2-0.2-0.5-0.2-0.8c0-0.1,0.2-0.3,0-0.4c-0.2-0.2,0.2-0.4-0.1-0.5c0-0.2,0.2-0.3,0.1-0.5
		c0.2-0.3,0-0.6,0.2-0.9c0.1-0.1,0-0.1,0-0.1c-0.2-0.2-0.4-0.4-0.2-0.7c0.1-0.1-0.1-0.4,0.1-0.5c0,0,0-0.1,0-0.2
		c-0.4-0.3-0.1-0.7-0.2-1.1c0-0.1,0.1-0.1,0.1-0.2c0.2-0.2,0.2-0.5,0-0.7c-0.2-0.2-0.2-0.3-0.1-0.5c0.1-0.1,0-0.3,0-0.4
		c-0.1-0.4-0.1-0.5,0-1.1c0-0.1-0.1-0.3,0-0.4c0.1-0.1,0-0.3-0.2-0.5c-0.1-0.1-0.1-0.2-0.1-0.3c0-0.1,0.2-0.2,0-0.3
		c-0.1-0.1,0.1-0.1,0.2-0.2c0-0.1,0-0.2,0-0.3c0-0.3,0.2-0.5,0.6-0.5c0.1,0,0.2,0.1,0.3-0.1c0-0.1,0.1,0,0.1-0.2
		c0-0.1,0-0.6,0.1-0.6c0.1-0.1,0.2-0.2,0.3-0.1c0.1,0.1,0.3-0.2,0.4,0.1c0.1,0,0.1-0.1,0.2-0.1c0.1-0.1,0.1-0.1,0.2-0.1
		c0.4,0,0.6,0,0.9-0.2c0.1,0,0.1-0.1,0.2,0c0.2,0.2,0.3,0.4,0.6,0.1c0.1-0.1,0.1,0.1,0.2,0.1c0.3,0.1,0.3,0.1,0.5-0.2
		c0,0,0.1-0.1,0.1-0.1c0.2,0-0.1,0.4,0.2,0.3c0.2,0,0.3,0.1,0.4,0.1c0.2,0,0.5-0.1,0.7,0.1c0.1,0.1,0.1,0,0.2-0.1
		c0.3-0.1,0.5-0.3,0.8-0.1c0.1,0.1,0.1-0.1,0.2-0.1c0.2,0,0.4-0.2,0.7-0.1c0.3,0,0.6,0,0.9,0.2c0,0,0.1,0,0.2,0
		c0.1-0.1,0.1-0.1,0-0.2c-0.1-0.2-0.1-0.3,0-0.5c0,0,0.1-0.1,0.1-0.1c0.1-0.2-0.1-0.3-0.1-0.5c0-0.2,0.2-0.4,0.1-0.5
		c-0.1-0.2-0.1-0.2,0-0.3c0.2-0.2,0.2-0.5,0-0.7c-0.1-0.1-0.2-0.2-0.1-0.2c0.1-0.2,0.1-0.3,0-0.5c0-0.1-0.1-0.2,0-0.3
		c0.1-0.1,0.1-0.2,0-0.3c-0.1-0.1-0.1-0.2,0-0.3c0.1-0.1,0.1-0.2,0-0.3c-0.1-0.1-0.1-0.3,0.1-0.4c0.2-0.1,0.2-0.2,0-0.4
		c0-0.3,0-0.6-0.2-0.9c0.2-0.2-0.2-0.6,0.2-0.8c0.1-0.1,0-0.2,0-0.2c-0.1-0.1-0.2-0.2-0.1-0.4c0.1-0.1-0.1-0.4,0.1-0.5
		c-0.1-0.1-0.1-0.2-0.1-0.4l0-0.8c0-0.1,0-0.1,0-0.2c-0.1-0.2-0.1-0.3,0.1-0.4c0.1-0.1,0.1-0.2,0-0.3c0,0-0.1-0.1-0.1-0.1
		c0.3-0.3-0.2-0.6,0.1-0.9c0,0,0,0,0-0.1c-0.1-0.1-0.2-0.3-0.2-0.3c0.1-0.1,0.1-0.3,0.1-0.4c0-0.3,0-0.6,0-1c0-0.4,0.2-0.9,0.1-1.3
		c0-0.2,0.2-0.4,0.4-0.6c0,0,0.2,0,0.2,0c0.1,0.1,0.3,0.2,0.4,0c0,0,0.1,0,0.2,0c0,0.1,0,0.2,0.2,0.2c0.1,0,0.3-0.3,0.3-0.4
		c0-0.3,0-0.5,0.3-0.6c0.1,0,0.1-0.1,0.1-0.2c0-0.1,0.1-0.2,0.2-0.3c0.1,0,0.2,0.1,0.3,0.1c0.3,0,0.6,0.1,0.8,0.2
		c0.2,0,0.3,0,0.4,0.2c0,0,0.1,0.1,0.1,0.1c0.2,0.1,0.4-0.2,0.6,0c0.2,0.2,0.4,0.1,0.6,0.1c0.1,0,0.2,0,0.2,0.2
		c0.3,0.1,0.5,0.3,0.7,0.4c0.2,0,0.2,0.1,0.3,0.2c0.1,0.1,0.1,0.2,0.3,0c0,0,0.1,0,0.2,0c0.2,0.3,0.8,0.2,0.9,0.6
		c0,0.1,0.1,0.1,0.2,0.1c0.2,0,0.3,0,0.5,0c0.1,0,0.3-0.1,0.3,0.2c0,0,0.1,0,0.1,0c0.1,0.1,0.3-0.2,0.3-0.1c0.1,0.1,0.1,0.2,0.2,0.3
		c0,0,0.1,0.1,0.1,0.1c0.4,0,0.7,0.3,1,0.2c0.1,0,0.2,0,0.2,0.1c0,0.1,0,0.1,0.1,0.1c0.1,0,0.3-0.1,0.4,0.1c0.1,0.2,0.2,0,0.3,0.1
		c0.1,0.1,0.3,0.1,0.3,0.2c0,0.1,0.1,0.1,0.2,0.1c0.3,0,0.5,0,0.6,0.3c0.1,0.1,0.1,0,0.2,0c0.1-0.1,0.2-0.1,0.3,0.2
		c0.1,0.4,0.6,0.3,0.9,0.4c0.1,0,0.3,0,0.4,0.2c0,0,0.1,0.1,0.1,0.1c0.4-0.1,0.6,0.2,0.9,0.3C39,8.9,39.2,8.9,39.3,9
		c0.1,0,0.4-0.1,0.4,0.1c0,0.3,0.3,0.1,0.3,0.2c0,0.2,0.2,0.2,0.3,0.3c0.2,0.1,0,0.3,0.2,0.3c0.1,0,0.2-0.1,0.3-0.2
		c0.1-0.1,0.2-0.1,0.2,0c0.1,0.1,0.2,0.2,0.4,0.2c0.1,0,0.3,0,0.3,0.2c0,0.1,0.3,0.1,0.4,0.1c0,0,0.1,0,0.1,0c0.2,0,0.2,0.3,0.4,0.3
		c0.2,0,0.4,0.2,0.6,0.1c0.3,0.3,0.8,0.2,1.2,0.4c0,0,0.1,0,0.1,0c0,0.4,0.5,0.3,0.7,0.4c0.2,0.2,0.5,0.3,0.7,0.5
		c0.1,0.1,0.2,0.2,0.4,0.2c0.2-0.1,0.2,0.1,0.4,0.1c0.1,0,0.2,0.2,0.3,0.2c0.1,0.1,0.2-0.1,0.3-0.1c0.1,0,0.2,0,0.2,0.1
		c0.1,0.1,0.1,0.2,0.2,0.2c0.3-0.1,0.5,0.1,0.7,0.3c0,0,0.1,0,0.1,0c0.3-0.1,0.4,0.3,0.7,0.3c0,0,0.1,0.1,0.1,0.1
		c0.2,0.1-0.1,0.4,0.2,0.4c0.1,0,0.3-0.1,0.4-0.1c0.1,0,0.3,0,0.4,0.1c0.1,0.1,0.2,0.3,0.4,0.1c0,0,0,0,0.1,0C51,13.7,51,14,51.3,14
		c0.2,0,0.3,0,0.5,0.1c0.3,0.1,0.4,0.2,0.6,0.4c0.1,0.1,0.2,0.2,0.4,0.2c0.5,0,0.8,0.1,1.1,0.5c0.1,0.1,0.2,0.2,0.3,0.1
		c0.1-0.1,0.1-0.1,0.2,0c0.2,0.2,0.5,0.3,0.7,0.5c0.1,0.1,0.2,0.2,0.3,0c0.1-0.1,0.1,0,0.2,0.1c0.2,0.4,0.7,0.2,1,0.6
		c0,0.1,0.1,0,0.1-0.1c0.3-0.1,0.5,0.1,0.7,0.2c0.4,0.3,0.4,0.3,0.8,0.4c0.2,0,0.3,0.2,0.5,0.4c0.1,0.1,0.1,0.1,0.3,0
		c0.1-0.1,0.3-0.1,0.5,0.1c0.2,0.2,0.3,0.3,0.6,0.4c0.2,0.1,0.4,0.3,0.6,0.4c0.1,0,0.3,0.1,0.3,0.2c0.1,0.1,0.2,0.1,0.3,0.1
		c0.3,0,0.3,0,0.6,0.2c0.1,0.1,0.3,0.2,0.5,0.2c0.3,0,0.5,0,0.6,0.3c0.1,0.2,0.2,0.1,0.4,0.1c0.2,0,0.3,0,0.3,0.2
		c0.1,0.2,0.3,0.3,0.5,0.2c0.1,0,0.3-0.1,0.3,0.1c0,0.1,0,0.1,0.1,0.1c0.3-0.1,0.5,0.3,0.8,0.3c0,0,0.1,0.1,0.1,0.1
		c0.2,0.1,0,0.3,0.2,0.4c0.1,0,0.3-0.2,0.4-0.1c0.3,0.2,0.7,0.1,0.9,0.4C67,21,67.3,21,67.3,21c0.2-0.1,0.3,0,0.4,0.1
		c0.1,0.1,0.2,0.2,0.3,0.3c0.1-0.2,0.2,0,0.4,0c0.1,0,0.2,0.2,0.3,0.2c0.1,0,0.2,0,0.2,0.1c0.1,0.1,0.2,0.2,0.3,0c0,0,0.1,0,0.2,0.1
		c0.1,0.3,0.5,0.1,0.5,0.5c0,0,0.2,0,0.2,0c0.2-0.1,0.4,0.1,0.5,0.1c0.2,0.1,0.3,0.3,0.6,0.2c0.1,0,0.2,0,0.3,0.1
		c0.1,0.1,0.2,0.2,0.3,0.1c0.1,0,0.2,0,0.2,0c0.3,0.4,0.7,0.3,1.1,0.4c0.2,0.1,0.3,0,0.4,0.3c0,0.1,0.2,0.2,0.3,0.3
		c0.1,0.1,0.3,0.2,0.5,0.1c0.2-0.2,0.4,0,0.5,0.1c0.1,0.2,0.3,0.3,0.5,0.3c0.5-0.1,0.7,0.3,1.1,0.4c0,0,0.1,0.1,0.1,0.1
		c0,0.1,0,0.2,0.1,0.3c0.1,0,0.3,0.1,0.3,0c0.3-0.3,0.4,0.1,0.7,0.1c0.1,0,0.3,0.1,0.4,0.2c0.3,0.4,0.8,0.4,1.2,0.6
		c0.1,0.1,0.2-0.2,0.3,0c0.1,0.1,0.2,0.2,0.3,0.3c0.1,0.1,0.1,0.1,0.2,0.1c0.3,0,0.4,0.1,0.6,0.3c0.1,0.2,0.3,0.4,0.6,0.2
		c0.1-0.1,0.1,0,0.1,0.1c0.1,0.1,0.2,0.2,0.3,0.3c0.1,0.1,0.2,0.1,0.3,0.1c0.3-0.2,0.4,0,0.6,0.2c0.1,0.1,0.1,0.3,0.3,0.2
		c0.2,0,0.3,0,0.5,0.2c0.3,0.4,0.7,0.6,1.2,0.5c0.1,0,0.2,0,0.2,0.1c0.1,0.2,0.2,0.3,0.4,0.2c0.2,0.3,0.8,0.2,0.7,0.8
		c0,0.1,0,0.2,0.1,0.2c0.2,0.1,0.1,0.4,0.2,0.5c0.1,0.2-0.3,0.3-0.1,0.5c0.1,0.1,0.1,0.4,0,0.6c0,0.2,0.1,0.3,0.1,0.4
		c0,0.4,0,0.8-0.1,1.1c-0.1,0.1-0.1,0.2,0,0.3c0.1,0.1-0.2,0.2-0.1,0.4c0.2,0.5,0,1,0.1,1.5c0,0.1-0.2,0.2,0,0.4
		c0.1,0.1-0.1,0.3-0.1,0.4c0.1,0.3,0,0.5,0,0.7c0,0.4,0,0.5,0.1,0.7c0.1,0.2,0.2,0.3,0,0.4c-0.1,0.1-0.1,0.2-0.1,0.5
		c0,0.2,0.1,0.5,0,0.7c-0.1,0.1-0.1,0.4,0.1,0.5c0.1,0.1,0.1,0.2,0.1,0.3c0.1,0.2-0.3,0.3-0.1,0.5c0.2,0.2-0.1,0.3,0,0.4
		c0.2,0.2-0.1,0.3-0.1,0.5c0.1,0.2-0.2,0.3-0.2,0.5c0,0.2,0.3,0.3,0.3,0.5c0,0.2,0.1,0.4-0.1,0.7c-0.1,0.1-0.2,0.4,0,0.6
		c0.2,0.1,0,0.4-0.1,0.6c-0.1,0.1-0.1,0.2,0,0.3c0.2,0.1,0.2,0.3,0.1,0.5c-0.1,0.2-0.3,0.4,0,0.7c0.1,0.1,0.1,0.5,0,0.6
		c-0.1,0.2-0.1,0.3,0.1,0.4c0.1,0.1,0.1,0.3,0,0.4c-0.1,0.1-0.1,0.2-0.1,0.3c0.1,0.3,0.1,0.5,0,0.8c-0.1,0.2,0,0.5-0.1,0.8
		c0,0.2-0.2,0.5,0,0.7c0.1,0.1,0.1,0.3,0,0.4c-0.1,0.2-0.1,0.6,0,0.8c0.1,0.2-0.2,0.3,0,0.4c0.1,0.1,0.1,0.3,0,0.5c0,0,0,0.1,0,0.1
		c0.2,0.1,0.1,0.3,0.1,0.4c0,0.1,0,0.1,0.1,0.2c0.1,0.1,0.1,0.2,0,0.2c-0.2,0.2-0.2,0.4-0.1,0.6c0.1,0.2,0.1,0.3,0,0.4
		c-0.1,0.2-0.1,0.3,0,0.5c0.1,0.1,0,0.2,0,0.3c-0.1,0.1-0.1,0.3,0,0.5c0.2,0.3,0.1,0.6-0.1,0.9c0,0.1-0.1,0.1,0,0.2
		c0.1,0.1,0.2,0.2,0.2,0.4c-0.1,0.2,0.3,0.4,0,0.6c-0.1,0.1-0.1,0.4,0,0.6c0.1,0.3-0.2,0.4-0.1,0.7c0,0.1-0.1,0.2,0,0.3
		c0.1,0.1,0.1,0.2,0.2,0.3c0,0,0.1,0.1,0,0.1c-0.2,0.1-0.2,0.4-0.3,0.6c-0.1,0.1-0.3,0.3,0.1,0.4c0.1,0,0.1,0.2,0,0.3
		c-0.1,0.1-0.1,0.2,0,0.2c0.3,0.2,0.1,0.4,0.1,0.6c0,0.3-0.1,0.5,0.1,0.8c0.1,0.1-0.1,0.2-0.1,0.3c-0.1,0.2-0.2,0.4,0,0.6
		c0.2,0.2,0.1,0.4,0.1,0.6c-0.1,0.2,0,0.4-0.1,0.6c-0.1,0.2-0.1,0.3,0,0.5c0.1,0.2,0.2,0.4-0.1,0.5c-0.1,0-0.1,0.1,0,0.2
		c0.2,0.1,0,0.3,0.1,0.4c0.1,0.2,0,0.3,0.1,0.5c0,0.2,0,0.4,0,0.5c0,0.1,0,0.2,0.1,0.3c0.1,0.1,0.1,0.3-0.1,0.4
		c-0.2,0.1-0.2,0.2,0,0.4c0.2,0.2,0.2,0.3,0,0.5c-0.1,0.1-0.2,0.2,0,0.3c0.1,0.1,0.1,0.2,0,0.3c-0.1,0.1-0.2,0.3,0,0.4
		c-0.2,0.1-0.1,0.2,0,0.4c0,0.1,0,0.2,0,0.3c0,0-0.1,0.1-0.1,0.1c0.4,0.2,0,0.5,0.1,0.8c0,0.2,0.1,0.3,0.1,0.5
		c-0.1,0.1,0,0.3-0.1,0.4c-0.1,0.1,0.1,0.2,0.1,0.2c0.1,0.3-0.1,0.6,0.1,0.9c0,0,0,0.1,0,0.1c-0.2,0.3-0.2,0.3,0,0.6
		c0,0,0.1,0.1,0,0.1c-0.3,0.2-0.1,0.4,0,0.6c0,0.1,0.1,0.2,0,0.3c-0.1,0.1-0.1,0.2,0,0.3c0.1,0.1,0.3,0.3,0,0.4
		c-0.1,0,0,0.1,0.1,0.2c0.2,0.1,0.2,0.4,0.3,0.6c0.1,0.1,0.1,0.2,0,0.2c-0.1,0.1,0,0.2,0,0.2c0.3,0.4,0.2,0.7,0,1
		c-0.1,0.1-0.3,0.2-0.3,0.4c0,0.1,0,0.1-0.1,0.1c-0.2,0-0.3,0.1-0.4,0.2C85.4,78.2,85.2,78.1,85.1,78.2z M28.2,9.1
		c-0.2,0.1-0.2,0.3-0.4,0.4c-0.2,0.2,0.2,0.3,0,0.5c0,0,0,0.1,0,0.1c0,0.2,0,0.5,0.1,0.7c0.1,0.2,0.1,0.5,0,0.7
		c-0.4,0-0.1,0.2,0,0.3c0.1,0.1,0.1,0.1,0,0.3c-0.1,0.1,0.1,0.2,0.1,0.4c0,0.2-0.2,0.3-0.1,0.5c0,0.1,0,0.2,0.1,0.3
		c0.1,0.1,0.1,0.2,0,0.2c-0.2,0.1-0.1,0.3,0,0.5c0.1,0.1,0.1,0.2,0,0.3c-0.1,0.1,0.1,0.4-0.2,0.5c0.2,0.1,0,0.3,0.2,0.4
		c0.1,0.1,0.1,0.3,0.1,0.3c-0.2,0.2,0,0.5-0.2,0.6c-0.1,0.1-0.1,0.2,0,0.2c0.2,0.2,0.2,0.5,0.1,0.7c-0.1,0.2-0.2,0.4,0,0.6
		c0,0.1,0,0.2,0.1,0.2c-0.3,0.3-0.1,0.6,0,0.9c0,0.2-0.1,0.4-0.2,0.5c-0.1,0.3,0,0.5,0.3,0.5c0.2,0,0.3,0,0.5,0.1
		c0.1-0.3,0.3,0.1,0.4-0.1c0.1-0.1,0.3,0,0.5-0.1c0.1-0.2,0.3,0.1,0.4,0c0.3-0.2,0.6,0,0.8,0.1c0.1,0.1,0.2,0.1,0.3,0
		c0.2-0.1,0.4-0.2,0.6-0.2c0.2,0.1,0.5,0.2,0.7,0c0,0,0.1,0,0.1,0.1c0.1,0,0.2,0.2,0.4,0.1c0.1-0.1,0.3,0,0.4-0.1
		c0.2-0.1,0.3-0.1,0.4,0c0.2,0.1,0.4,0.1,0.6,0c0.1-0.1,0.2-0.1,0.3,0c0.1,0.1,0.2,0.1,0.3,0.1c0.2,0,0.4,0.1,0.6,0
		c0.2-0.1,0.4,0.1,0.6,0c0.1,0,0.2,0,0.2,0c0.3-0.3,0.5,0,0.8-0.1c0.1,0.2,0.2-0.1,0.3,0c0.1,0.2,0.2,0,0.3,0c0.2,0,0.4-0.1,0.6,0.1
		c0.2,0.1,0.4,0.3,0.7,0c0.1-0.1,0.2,0,0.4,0c0.2,0,0.5,0,0.7,0c0.1,0,0.3-0.2,0.4,0c0.1,0.1,0.2,0.1,0.3,0c0.1-0.1,0.2,0,0.2,0
		c0,0.2,0.1,0.2,0.2,0.2c0.2,0,0.3,0,0.5,0c0.1,0.3-0.1,0.7,0.3,0.8c0,0,0,0.1,0,0.1c-0.2,0.2-0.1,0.3,0,0.5c0.1,0.2,0.2,0.6,0,0.8
		c0,0-0.1,0.1,0,0.2c0.2,0.2,0,0.5,0.2,0.8c0.1,0.1,0,0.2,0,0.3c-0.2,0.1-0.1,0.3-0.1,0.5c0.1,0.3,0.2,0.6-0.1,0.8
		c0,0-0.1,0.1,0,0.1c0.1,0.1,0.1,0.1,0.2,0.2c0,0.1-0.1,0.1-0.1,0.2c0.1,0.2,0.3,0.3,0.1,0.5c-0.2,0.2,0.1,0.4,0,0.5
		c-0.2,0.2,0.2,0.3,0.1,0.4c-0.2,0.1,0,0.3-0.2,0.4c-0.2,0.2,0.1,0.3,0,0.4c-0.2,0.3-0.1,0.5-0.1,0.8c-0.1,0.3,0.2,0.5,0,0.7
		c0,0,0,0.1,0,0.1c0.3,0.1,0.2,0.3,0.1,0.5c-0.1,0.1-0.1,0.2,0,0.3c0.1,0.2-0.1,0.3-0.1,0.4c0,0,0,0.1,0.1,0.1
		c0.3,0,0.2,0.2,0.1,0.3c-0.1,0.2-0.1,0.3-0.3,0.5c-0.1,0.1-0.1,0.2,0,0.3c0.2,0.1,0.2,0.2,0,0.4c-0.2,0.2-0.1,0.3,0,0.5
		c0.1,0.2,0.4,0.4,0.1,0.7c0,0,0,0.1,0,0.2c0.2,0.1,0.1,0.4,0.2,0.6c0.1,0.2,0,0.4,0,0.6c0,0.2-0.2,0.3,0,0.5
		c-0.2,0.2,0.1,0.3,0,0.5c0,0,0.1,0.1,0.1,0c0.1,0,0-0.1,0-0.1c0-0.2,0.1-0.6,0.3-0.8c0.2-0.1,0.2-0.4,0.3-0.5c0.1-0.1,0-0.2,0-0.3
		c0,0,0.1-0.2,0.2-0.3c0,0,0-0.1,0-0.1c-0.1-0.3,0.2-0.5,0.1-0.9c0-0.1,0.1-0.2,0.1-0.2c0.2-0.1,0.1-0.4,0.4-0.5
		c0.2-0.2,0.1-0.5,0.1-0.7c0-0.1,0-0.3,0.1-0.3c0.3-0.1,0.2-0.2,0.2-0.4c0-0.3,0.1-0.6,0.3-0.9c0.1-0.1,0.1-0.3,0.2-0.4
		c0.2-0.1-0.2-0.3,0-0.5c0,0,0-0.2,0.1-0.1c0.2,0,0.2-0.1,0.2-0.3c0-0.1,0.1-0.2,0.1-0.3c0-0.3,0.2-0.4,0.3-0.6
		c0-0.2,0.1-0.5,0.1-0.7c0-0.4,0.3-0.7,0.4-1.1c0-0.1,0-0.1,0.1-0.1c0.1,0,0.2-0.1,0.2-0.1c0.1-0.1-0.1-0.2-0.1-0.3
		c0-0.1,0-0.2,0.1-0.2c0.3,0,0.3-0.2,0.3-0.4c0-0.1,0-0.3,0-0.3c0.3-0.1,0.4-0.4,0.6-0.5c0.1-0.1,0.3-0.3,0.4-0.5
		c0.1-0.2,0.2-0.3,0.4-0.1c0.1,0.1,0.2,0.1,0.3,0c0.3-0.2,0.8-0.2,1,0c0.3,0.3,0.6,0.4,1,0.4c0.2,0,0.4-0.3,0.5,0.1c0,0,0.1,0,0.1,0
		c0.1,0,0.1-0.2,0.2-0.1c0.2,0.3,0.6,0.2,0.8,0.3c0.3,0.1,0.6,0.2,0.7,0.5c0.1,0.1,0.1,0.2,0.2,0.1c0.1-0.1,0.2,0,0.3-0.1
		c0.1-0.1,0.3-0.1,0.3,0.1c0.2,0.5,0.5,0.6,1,0.5c0.3-0.1,0.5,0.1,0.8,0.2c0.1,0.4,0.5,0.4,0.8,0.4c0.1,0,0.2,0.1,0.3,0.1
		c0.1,0.2,0.3,0.2,0.5,0.2c0.1,0,0.2,0,0.2,0c0,0.4,0.5,0.1,0.6,0.4c0,0.1,0.2,0.2,0.3,0.1c0.3-0.2,0.4,0,0.5,0.2
		c0.1,0.1,0.1,0.1,0.2,0.1c0.5,0,0.9,0.2,1.3,0.4c0.2,0.1,0.3,0.2,0.6,0.1c0.2-0.1,0.2,0.4,0.5,0.3c0,0,0.1,0,0.1,0
		c0.2,0,0.3,0,0.4,0.3c0,0.2,0.2,0.2,0.4,0.2c0.1,0,0.2,0,0.3,0.1c0.1,0.1,0.2,0.1,0.4,0.2c0.2,0,0.4,0.1,0.7,0.1
		c0.2,0,0.4,0.2,0.6,0.3c-0.1,0.2,0.2,0.1,0.2,0.2c0,0.2,0.2,0.3,0.3,0.4c0.2,0.1-0.2,0.2,0,0.3c0.1,0.1,0.3,0.3,0.1,0.5
		c0,0,0,0.1,0,0.1c0.2,0,0.3,0.2,0.2,0.3c-0.2,0.2,0.2,0.2,0.1,0.4c0,0-0.1,0.1-0.1,0.1c-0.1,0.3-0.2,0.7-0.2,1c0,0.2,0,0.4-0.2,0.5
		c-0.1,0.1,0,0.3-0.1,0.4c-0.1,0.1-0.1,0.3-0.2,0.3c-0.2,0.1,0.1,0.2,0,0.3c-0.1,0.1-0.1,0.3-0.2,0.4c-0.1,0.1,0,0.3-0.1,0.4
		c0,0.1-0.1,0.1-0.1,0.3c0,0.2,0,0.4-0.2,0.6c-0.1,0,0,0.2-0.1,0.2c0.2,0.2,0,0.3,0,0.4c0,0.1-0.2,0.3-0.2,0.4
		c0.1,0.3-0.4,0.4-0.3,0.7c0.1,0.2-0.1,0.3-0.2,0.5c-0.1,0.1,0.1,0.4-0.2,0.5c-0.1,0-0.1,0.1-0.1,0.2c0,0.2-0.1,0.4-0.1,0.6
		c0,0.2-0.3,0.3-0.3,0.5c0,0.2,0.2,0.4,0,0.6c-0.1,0.1-0.1,0.2-0.1,0.2c-0.1,0.1-0.1,0.3-0.2,0.4c-0.1,0.2,0,0.3-0.2,0.5
		c-0.1,0.1,0,0.3-0.2,0.4c0.3,0.2-0.2,0.2-0.1,0.4c0.1,0.2-0.2,0.4-0.1,0.6c0,0.1-0.1,0.2-0.1,0.3c-0.1,0.2-0.2,0.3-0.1,0.5
		c0,0.2-0.2,0.2-0.1,0.4c0,0.2,0.1,0.4-0.2,0.4c0,0-0.1,0.2,0,0.3c0.1,0.1,0.3,0.3,0.5,0.4c0.2,0.1,0.2-0.1,0.3-0.1
		c0.1,0,0.2,0.2,0.2,0.3c0.1,0.1,0.5,0,0.6-0.1c0.2-0.2,0.3-0.3,0.4-0.6c0.1-0.3,0.2-0.3,0.2-0.7c0-0.1,0-0.1,0.1-0.2
		c0.2-0.2,0.3-0.4,0.3-0.7c0-0.2,0-0.5,0.2-0.7c0.2-0.2,0.2-0.5,0.4-0.7c0.2-0.2,0.2-0.5,0.3-0.8c0.1-0.3,0.2-0.5,0.3-0.8
		c0-0.1,0.1-0.1,0.1-0.2c0-0.3,0.1-0.6,0.3-0.8c0.1-0.1,0-0.1,0-0.1c-0.1-0.1-0.1-0.2,0-0.3c0.2-0.2,0.2-0.4,0.3-0.6
		c0-0.1,0.3-0.2,0.2-0.4c-0.1-0.2,0.3-0.2,0.2-0.5c0-0.1,0.1-0.2,0.1-0.2c0.3-0.1,0.4-0.3,0.6-0.5c-0.1-0.1-0.1-0.3-0.2-0.4
		c0.2-0.1,0.1-0.3,0.1-0.4c0.4-0.1,0.1-0.5,0.3-0.7c-0.1-0.1-0.1-0.2,0-0.3c0.1,0,0.2,0,0.2-0.1c0.1-0.1-0.1-0.1-0.1-0.2
		c0.1-0.1,0.3-0.3,0.4-0.4c0,0,0.1,0,0-0.1c-0.2-0.2,0-0.3,0.2-0.4c0.2-0.1,0.4-0.2,0.5-0.4c0.1-0.2,0.2-0.2,0.4-0.1
		c0.2,0.1,0.3,0.3,0.3,0.6c0.1-0.1,0.1-0.1,0.1-0.1c0.1-0.3,0.1-0.3,0.3,0c0.1,0.1,0.1,0.1,0.2,0c0.1-0.1,0.2-0.2,0.4-0.1
		c0.2,0.1,0.4-0.1,0.6-0.1c0,0,0,0,0-0.1c-0.2-0.2,0-0.3,0.1-0.4c0.1-0.1,0.3,0.1,0.3,0.2c0,0.2,0.2,0.2,0.3,0.1
		c0.2-0.1,0.3-0.1,0.3,0.1c0,0.1,0.1,0.1,0.2,0.2c0.1,0,0.2,0.1,0.2,0.3c0,0.3,0.1,0.4,0.3,0.6c0.1,0,0.1,0,0.2,0.1
		c0.1,0.2,0.2,0.3,0.4,0.4c0.2,0.1,0.1,0.4,0.3,0.5c0.1,0.1,0.2,0.2,0.3,0.4c0.1,0.1,0.2,0,0.2,0.1c0,0.1-0.1,0.1-0.1,0.2
		c0,0.1,0,0.2,0.1,0.2c0.1,0,0.1,0.1,0.3,0.1c0.3,0,0.3,0.1,0.3,0.4c0.1,0.4,0.5,0.8,0.8,1.1c0.2,0.2,0.5,0.4,0.5,0.7
		c0,0.1,0,0.2,0.2,0.3c0.2,0,0.4,0.2,0.5,0.6c0,0.3,0.3,0.4,0.4,0.6c0.2-0.1,0.2,0.2,0.3,0.2c0.2,0.1,0.3,0.2,0.4,0.3
		c0.1,0,0.1,0.1,0.1,0.2c0.3,0.6,0.4,0.7,0.8,1.1c0,0,0,0,0,0c0,0.3,0,0.5,0.4,0.5c0,0,0,0,0,0.1c0,0.1,0.1,0.3,0.1,0.4
		c0,0.1,0.3,0.1,0.2,0.3c0,0.2,0.3,0.2,0.2,0.5c0,0.2,0.3,0.3,0.5,0.3c0.1,0.1,0.1,0.2,0.1,0.2c-0.2,0.3-0.1,0.5-0.1,0.8
		c0,0.3-0.1,0.5-0.2,0.8c-0.1,0.3-0.2,0.6-0.2,0.9c0,0.3,0,0.6-0.1,0.7c-0.2,0.1-0.1,0.3-0.2,0.5c0,0.2,0.1,0.3-0.1,0.5
		c-0.2,0.2-0.3,0.4-0.3,0.7C77,48.9,77,49.2,77,49.5c0,0-0.1,0.1-0.1,0.1c-0.2,0.7-0.5,1.5-0.9,2.2C76,51.8,76,52,76.1,52
		c0.1,0,0.2,0.1,0.3,0.2c0.1,0.1,0.2,0.2,0.4,0.2c0.1,0,0.2,0.1,0.2,0.1c0.1,0.1,0.1,0.1,0.2,0c0.1-0.1,0.1,0.1,0.1,0.2
		c0.1,0.1,0.1,0.3,0.4,0.2c0.1,0.2,0.4,0,0.5,0.2c0.2,0.2,0.5,0.2,0.7,0.3c0.1,0,0.1,0,0.1,0.1c0.2,0.5,0.6,0.5,1,0.5
		c0.5,0.1,0.8,0.2,1,0.7c0.1,0.1,0.1,0.3,0.3,0.4c0.1,0,0.1-0.1,0-0.2c-0.1-0.1-0.2-0.2,0-0.3c0.2-0.2,0.2-0.3,0-0.5
		c-0.1-0.1-0.1-0.2,0-0.3c0.1-0.2,0.2-0.4,0.1-0.7c-0.1-0.1-0.1-0.4,0-0.5c0.2-0.3,0.1-0.6-0.1-0.9c-0.1-0.3-0.2-0.5,0.1-0.7
		c0.1-0.1,0.1-0.1,0.1-0.2c-0.1-0.2-0.2-0.3-0.2-0.5c0-0.2,0.2-0.3,0.2-0.5c0-0.1,0-0.2-0.1-0.3c-0.1-0.2-0.2-0.5-0.1-0.8
		c0.1-0.6,0.1-0.6,0-1.1c0-0.1,0-0.2,0.1-0.2c0.2-0.1,0.2-0.2,0-0.4c-0.1-0.1-0.2-0.1-0.3-0.2c0.1-0.1,0.1-0.1,0.1-0.1
		c0.1-0.2,0.3-0.4,0-0.6c-0.1,0-0.1-0.1,0-0.2c0.1-0.1,0.1-0.2,0-0.2c-0.1-0.1-0.1-0.2,0-0.3c0.2-0.2,0.2-0.3,0-0.4
		c-0.1-0.1,0-0.1,0-0.2c0.1-0.1,0.1-0.3,0.2-0.4c0-0.1,0.1-0.1,0-0.2c-0.2-0.2-0.2-0.4-0.1-0.7c0,0,0-0.1,0-0.1
		c-0.2-0.2-0.1-0.4-0.1-0.6c0-0.2,0-0.5-0.1-0.7c-0.1-0.3-0.2-0.6,0-0.9c0.1-0.1,0.1-0.3-0.1-0.4c-0.1-0.1-0.1-0.1,0-0.2
		c0.1-0.1-0.1-0.3,0.1-0.5c0.1-0.1-0.1-0.1-0.1-0.2c0.1-0.1-0.2-0.2-0.1-0.3c0.2-0.2,0.2-0.4,0.2-0.6c0-0.1,0-0.3-0.1-0.5
		c-0.1-0.1,0.1-0.2,0.1-0.4c0-0.1,0-0.2-0.1-0.3c-0.1-0.2-0.1-0.5,0-0.7c0.1-0.2,0-0.2-0.1-0.3c0-0.1,0.2-0.2,0.1-0.4
		c0-0.1-0.1-0.2-0.2-0.2c-0.1-0.1-0.1-0.2-0.1-0.3c0.2-0.2,0.3-0.5,0-0.7c0,0,0,0,0-0.1c0-0.1,0.1-0.2,0.1-0.3
		c0-0.1-0.1-0.2-0.1-0.3c0-0.2,0.2-0.2,0.2-0.3c0-0.1-0.3-0.3-0.2-0.4c0.2-0.2-0.2-0.4,0.1-0.5c-0.2-0.2-0.1-0.4-0.1-0.7
		c0-0.2,0-0.4,0-0.6c-0.3,0-0.3,0-0.7-0.3c0,0-0.1-0.1-0.2-0.1c-0.3,0-0.4-0.3-0.6-0.3c-0.3-0.1-0.4-0.2-0.6-0.4
		c-0.1-0.1-0.1-0.1-0.2-0.1c-0.3,0.2-0.4-0.3-0.7-0.2c0-0.3-0.2-0.3-0.3-0.2c-0.2,0.2-0.3,0.1-0.4,0C77.4,30.2,77.2,30,77,30
		c-0.3,0-0.4-0.4-0.7-0.3c-0.1,0-0.3-0.1-0.4-0.2c-0.1-0.2-0.4-0.1-0.4-0.2c-0.1-0.3-0.3-0.1-0.5-0.2c-0.1,0-0.1,0-0.2-0.1
		c-0.1-0.1-0.3-0.3-0.4-0.3c-0.4,0.3-0.2-0.3-0.4-0.3c-0.1,0-0.2,0-0.2,0c-0.2,0-0.3,0-0.5-0.2c-0.1-0.1-0.2-0.3-0.4-0.1
		c-0.1,0.1-0.2,0-0.2-0.1c-0.1-0.2-0.2-0.4-0.4-0.4c-0.2-0.3-0.7-0.2-0.9-0.5c-0.1-0.1-0.3-0.2-0.5,0c-0.1,0.1-0.3,0.1-0.3-0.2
		c0-0.1-0.2-0.2-0.2-0.3c-0.1-0.1-0.1-0.1-0.2,0c-0.3,0.3-0.4-0.1-0.5-0.2c0,0,0-0.2-0.2-0.2c-0.4,0-0.7,0-0.9-0.4
		c0,0-0.1-0.1-0.1-0.1c-0.2,0-0.4-0.1-0.6-0.2c-0.2-0.1-0.4-0.2-0.5-0.3c-0.2-0.2-0.5-0.3-0.8-0.2c-0.2,0-0.4,0-0.6-0.2
		c-0.1-0.2-0.4-0.2-0.5-0.2c-0.1,0-0.2,0.1-0.3-0.1c0-0.2-0.2-0.3-0.4-0.1c-0.1,0.1-0.3,0.1-0.3-0.2c0-0.1-0.2-0.3-0.3-0.2
		c-0.2,0.1-0.2,0-0.3-0.1c-0.1-0.1-0.2-0.3-0.4-0.3c-0.3,0-0.5-0.2-0.9-0.1c-0.1,0-0.2,0-0.2-0.2c0-0.2-0.3-0.2-0.4-0.3
		c-0.1,0.2-0.2-0.1-0.3,0C61,23.3,61.1,23.1,61,23c-0.1-0.1-0.3-0.2-0.4-0.2c-0.5,0-0.9-0.3-1.3-0.5c-0.1-0.1-0.3-0.2-0.4-0.2
		c-0.3,0.1-0.2-0.3-0.4-0.3c-0.3,0-0.5-0.2-0.8-0.1c-0.1,0-0.1,0-0.1-0.1c0-0.2-0.1-0.2-0.2-0.1c-0.1,0-0.2,0-0.3-0.1
		c-0.2-0.2-0.4-0.4-0.8-0.4c-0.1,0-0.1-0.1-0.2-0.1c-0.1-0.1-0.2-0.1-0.3-0.1c-0.2,0-0.3-0.2-0.5-0.1c-0.1-0.3-0.4-0.2-0.6-0.3
		C54.5,20.1,54.2,20,54,20c-0.1,0-0.2-0.1-0.2-0.2c0-0.3-0.2-0.2-0.3-0.2c-0.3,0.1-0.3,0.1-0.4-0.2c0-0.1-0.1-0.2-0.2-0.2
		c-0.1,0-0.2,0-0.2-0.1c0-0.3-0.3-0.2-0.3-0.1c-0.2,0.2-0.3,0.1-0.4,0c-0.1-0.1-0.2-0.2-0.3-0.4c-0.1-0.2-0.3-0.2-0.4-0.1
		c-0.2,0.2-0.4,0.2-0.6,0c-0.1-0.1-0.2-0.3-0.5-0.2c-0.2,0-0.2-0.1-0.3-0.2c-0.3-0.2-0.5-0.4-0.9-0.4c-0.1,0-0.2,0-0.2-0.1
		c-0.1-0.2-0.2-0.2-0.4-0.2c-0.1,0-0.1,0-0.2-0.1c-0.2-0.2-0.4-0.2-0.6-0.3c-0.3-0.1-0.7,0-0.8-0.4c0-0.1-0.1-0.2-0.3-0.2
		c-0.1,0.1-0.3-0.1-0.4-0.1c-0.2,0.1-0.2-0.1-0.3-0.2c-0.1-0.1-0.2-0.1-0.2-0.1c-0.2,0.2-0.3,0-0.4-0.1c-0.2-0.1-0.2-0.5-0.5-0.2
		c0,0-0.1,0-0.2,0c-0.1-0.1-0.2-0.2-0.3-0.3c-0.1-0.1-0.2-0.1-0.2-0.1c-0.2,0.3-0.4-0.1-0.5-0.1c-0.1-0.3-0.5-0.3-0.7-0.5
		c0,0-0.2-0.1-0.3,0c0,0-0.1,0-0.1,0.1c-0.1-0.2-0.4-0.2-0.6-0.3c0-0.3-0.3-0.2-0.4-0.2c-0.1,0-0.2,0-0.3-0.1
		c-0.1-0.1-0.1-0.2-0.2-0.1c-0.2,0.1-0.3-0.1-0.5-0.2c-0.1-0.2-0.4-0.2-0.5-0.4c-0.1,0.1-0.2,0.1-0.4,0.1c-0.4,0.1-0.6-0.2-0.8-0.4
		c-0.1-0.1-0.1-0.1-0.2-0.2c-0.5-0.1-1-0.1-1.4-0.6c-0.2-0.3-0.7,0-0.9-0.4c0,0-0.1,0-0.1,0c-0.1,0-0.1,0-0.2,0.1
		c-0.2,0.1-0.4,0-0.4-0.1c-0.1-0.3-0.3-0.3-0.5-0.3c-0.3,0-0.5,0-0.7-0.2c-0.2-0.1-0.4-0.3-0.6-0.4c-0.1,0-0.3,0-0.4,0
		c-0.1,0-0.2-0.3-0.3-0.2c-0.2,0.2-0.2-0.1-0.4-0.1c-0.1,0-0.2,0-0.2-0.1c-0.1-0.3-0.3-0.3-0.5-0.3c-0.2,0-0.3-0.2-0.5-0.1
		c-0.3,0.1-0.2-0.3-0.4-0.4c-0.1-0.1-0.2-0.2-0.3,0c-0.1,0.1-0.1,0-0.2,0c-0.2-0.1-0.3-0.2-0.4-0.3c-0.1-0.1-0.2-0.1-0.3-0.1
		c-0.3,0-0.7,0.1-0.9-0.2C28.4,9.6,28.3,9.3,28.2,9.1z M18,57.7c0.4,0,0.7,0.1,1-0.2c0.1-0.1,0.2-0.3,0.4-0.1
		c0.1-0.2,0.3-0.1,0.5-0.1c0.2-0.1,0.3-0.3,0.5-0.2c0,0,0.2-0.1,0.2-0.2c0-0.2,0.1-0.3,0.2-0.3c0.1,0,0.4-0.1,0.5,0
		c0.2,0.2,0.3,0,0.5,0c0.1,0,0.2-0.2,0.3-0.3c0.1-0.1,0.2-0.1,0.2,0c0.1,0.1,0.1,0.1,0.3,0c0.2-0.1,0.4-0.2,0.5-0.4
		c0-0.1,0-0.2,0.1-0.1c0.2,0,0.4-0.1,0.6,0.1c0.1,0.1,0.2,0.1,0.3,0c0.1-0.1,0.2-0.3,0.4-0.3c0.3,0.1,0.6-0.1,0.8-0.3
		c0.2-0.2,0.6-0.3,0.8-0.5c0.1-0.1,0.2-0.1,0.2,0c0.1,0,0.2,0.1,0.3-0.1c0.1-0.2,0.4-0.2,0.7-0.3c0.1,0,0.3,0,0.4-0.2
		c0,0,0-0.1,0-0.2c0-0.1-0.1-0.1-0.2,0c-0.2,0.2-0.3,0.1-0.4-0.1c0-0.1,0-0.1-0.1-0.1c-0.1,0-0.3,0-0.3-0.2c0-0.1-0.3,0-0.4-0.1
		c-0.2-0.1-0.3-0.2-0.6-0.2c-0.3,0-0.6-0.2-0.9-0.4c-0.2-0.2-0.2-0.3-0.1-0.5c0.2-0.3,0.1-0.7,0-1c-0.1-0.3-0.1-0.6,0.1-0.8
		c0.1-0.2,0.2-0.4,0.2-0.6c0-0.2,0.1-0.3,0.2-0.4c0.1-0.3,0.3-0.6,0.2-1c-0.1-0.1-0.1-0.2-0.1-0.3c0-0.2,0-0.2,0.3-0.2
		c0.1,0,0.3,0.1,0.4-0.1c0.1-0.1,0.2-0.1,0.2,0.1c0.1,0.2,0.1,0.4,0.3,0.4c0.3,0,0.1,0.3,0.3,0.4c0,0,0.1,0.1,0.1,0.1
		c0.1,0,0.2,0.1,0.2,0.2c0,0.1,0,0.3,0.1,0.4c0.2,0.2,0.3,0.5,0.4,0.8c0.1,0.1,0.1,0.3,0.3,0.4c0.2,0.1,0.1,0.4,0.3,0.5
		c-0.1,0.2,0,0.3,0.1,0.3c0,0,0.1,0,0.1,0.1c0.1,0.3,0.3,0.4,0.5,0.6c0.2,0.2,0.2,0.4,0.5,0.5c0.2,0,0.2,0.3,0.2,0.4
		c0,0.2,0,0.4,0.2,0.4c0.3,0,0.2,0.3,0.4,0.4c0.2,0,0.3,0.1,0.4,0.3c0.3,0.5,0.5,0.6,1,0.8c0.2,0.1,0.4,0.3,0.7,0.4
		c0.1,0,0,0.1,0,0.2c0,0.1,0.1,0.2,0.3,0.3c0.2,0.1,0.4,0.1,0.4,0.2c0,0.3,0.3,0.2,0.3,0.2c0.2-0.2,0.6-0.1,0.8-0.3
		c0.2-0.2,0.5-0.3,0.7-0.2c0.2,0.2,0.3,0.1,0.4-0.1c0.1-0.2,0.3-0.3,0.5-0.1c0.2,0.1,0.4,0.1,0.5-0.2c0.1-0.1,0.2-0.2,0.4-0.3
		c0.2,0.2,0.3,0,0.4-0.1c0.1-0.1,0.1-0.1,0.2,0c0.1,0.1,0.2,0.1,0.3,0c0.1-0.1,0.3-0.2,0.3-0.3c0.1-0.3,0.2-0.2,0.3-0.1
		c0.3,0.2,0.6,0.1,0.8-0.2c0.1-0.1,0.2-0.2,0.3-0.3c0.1-0.1,0.3-0.1,0.4,0c0.2,0.2,0.3,0.1,0.3-0.1c0.1-0.3,0.3-0.4,0.6-0.3
		c0.1,0,0.2,0,0.2-0.2c0-0.2,0.1-0.3,0.4-0.3c0.1,0,0.2-0.1,0.3,0c0.1,0.1,0.2,0.1,0.3-0.1c0.1-0.2,0.2-0.5,0.6-0.5
		c0.2,0,0.3-0.2,0.6-0.2c0.4,0,0.1-0.4,0.2-0.6c0,0,0.1-0.1,0.1-0.1c0.1-0.1,0.1-0.3,0-0.4c-0.1-0.1-0.1-0.3-0.2-0.4
		c-0.1-0.1-0.3-0.1-0.2-0.3c0,0-0.1-0.2-0.1-0.2c-0.3,0-0.1-0.4-0.3-0.5c0.3-0.4-0.1-0.4-0.3-0.5c-0.1-0.1-0.1-0.1-0.3-0.2
		c0.2-0.1,0.3-0.3,0.4-0.4c0.1-0.1,0.1-0.2-0.1-0.2c-0.3-0.1-0.6-0.4-1-0.4c-0.1,0-0.1-0.1-0.1-0.1c0,0,0-0.1-0.1-0.1
		c-0.1,0.1-0.3,0.1-0.4,0.1c-0.1,0-0.2,0.1-0.3,0c-0.1-0.1-0.2,0.1-0.3,0.2c-0.1,0-0.2,0-0.2,0c-0.2,0-0.3,0-0.5,0
		c-0.1,0-0.2,0-0.2,0.1c0,0.2-0.3,0.3-0.4,0.5c0,0.2-0.1,0.1-0.2,0.1c-0.3-0.1-0.3-0.1-0.5,0.2c-0.1,0.1-0.2,0.2-0.5,0.1
		c-0.5-0.1-0.6,0.5-1.1,0.4c0,0-0.1,0.1-0.1,0.1c0,0,0,0,0,0c0,0.3-0.2,0.3-0.5,0.2c-0.1,0-0.2,0-0.3,0.1c0,0.1-0.1,0.1-0.2,0.1
		c-0.3-0.1-0.4,0.1-0.6,0.3c-0.1,0.1-0.2,0.1-0.3,0.1c-0.2-0.2-0.5,0-0.7,0c0-0.2,0.1-0.4,0-0.6c-0.1-0.2-0.4-0.3-0.5-0.6
		c0-0.1-0.2-0.1-0.3-0.1c-0.1,0-0.1-0.1-0.1-0.2c0-0.1,0-0.2-0.1-0.3c-0.2-0.2-0.2-0.4-0.3-0.6c0-0.2-0.1-0.4-0.4-0.5
		c-0.4,0-0.5-0.4-0.6-0.7c0-0.1,0-0.2-0.1-0.3c-0.2-0.2-0.3-0.3-0.1-0.5c0,0,0-0.1,0-0.1c-0.4,0-0.1-0.6-0.5-0.6
		c-0.1,0-0.1-0.1-0.2-0.2c-0.1-0.1-0.2-0.2-0.1-0.3c0.1-0.1,0.2-0.4-0.2-0.5c-0.1,0-0.2-0.1-0.2-0.3c0-0.2-0.1-0.4,0.1-0.5
		c0-0.1,0-0.1,0-0.1c-0.2,0-0.2-0.3-0.4-0.4c-0.2-0.1-0.3-0.3-0.1-0.4c0.1-0.1,0-0.1,0-0.2c-0.1-0.1-0.1-0.2-0.1-0.4
		c0-0.1,0.1-0.2,0-0.3c-0.5-0.3-0.1-1-0.7-1.3c0,0,0-0.1,0-0.1c0-0.2-0.1-0.5,0-0.7c0.1-0.2,0-0.3-0.1-0.3c-0.2-0.1-0.3-0.2-0.3-0.4
		c0-0.5-0.1-1-0.4-1.4c-0.1-0.1-0.1-0.2,0-0.2c0.1-0.2,0-0.3-0.2-0.4c-0.2,0-0.3-0.1-0.5-0.2c-0.2-0.1-0.4-0.3-0.6,0
		c0,0.1-0.1,0-0.2-0.1c-0.2-0.1-0.3-0.1-0.5-0.2c-0.3-0.1-0.5-0.2-0.7-0.5c-0.1-0.1-0.2-0.3-0.4-0.2c-0.2,0-0.3-0.1-0.4-0.2
		c-0.1-0.2-0.2-0.4-0.5-0.4c-0.4,0-0.6-0.1-0.7-0.4c0-0.1-0.1-0.2-0.4-0.2c0,0,0,0.1-0.1,0.1c-0.2,0.2-0.3,0.4-0.6,0.3
		c-0.1,0-0.1,0-0.1,0.1c0,0.3-0.3,0.3-0.5,0.3c-0.2,0-0.4,0-0.4,0.2c-0.1,0.2-0.2,0.3-0.4,0.2c-0.1,0-0.2,0.1-0.3,0.2
		c0,0.1,0,0.2-0.2,0.2c-0.2,0-0.3,0.1-0.3,0.2c0,0.2-0.2,0.2-0.3,0.2c-0.3,0-0.5,0.3-0.7,0.5c0,0,0,0.1-0.1,0.2
		c-0.3,0.1-0.4,0.5-0.8,0.6c0,0.4-0.6,0.3-0.5,0.7c0,0-0.1,0.1-0.1,0.1c-0.2,0-0.2,0.1-0.2,0.2c0,0.2,0,0.3-0.2,0.4
		c-0.2,0.1-0.3,0.4-0.6,0.5c0.1,0.3-0.2,0.3-0.4,0.4c-0.1,0-0.2,0.1-0.3,0.2c-0.1,0.1,0,0.3-0.1,0.4c0,0.1,0,0.2,0,0.3
		c0,0.1,0,0.2-0.2,0.2c-0.3,0.1-0.5,0.4-0.7,0.6c0,0-0.1,0.1-0.1,0.1c0.2,0.2,0,0.3-0.1,0.4c-0.1,0.1-0.3,0.2,0,0.4
		c0.1,0.1-0.1,0.1-0.1,0.2c0,0.2-0.1,0.5,0.1,0.6c0.2,0.1,0.4,0.3,0.7,0.4c0.3,0,0.6,0,0.7,0.4c0,0.1,0.1,0.2,0.3,0.1
		c0.2-0.1,0.5,0.1,0.8,0.1c0.1,0.4,0.5,0.4,0.7,0.6c0.2,0.2,0.3,0.5,0.4,0.7c-0.2,0.1,0,0.4-0.3,0.5c-0.1,0.1-0.1,0.3-0.1,0.3
		c0.2,0.2,0,0.3,0,0.4c-0.1,0.2-0.3,0.3-0.1,0.6c0.1,0.1-0.2,0.2-0.1,0.3c0.2,0.2,0.1,0.3,0,0.4c-0.1,0.2-0.1,0.3,0,0.5
		c0,0.2,0.3,0.5-0.1,0.8c0,0-0.1,0.2,0,0.2c0.2,0.2,0,0.3,0,0.5c-0.1,0.3,0,0.4,0.1,0.6c0.2,0.3,0.2,0.3,0,0.6
		c-0.1,0.1-0.2,0.3-0.2,0.5c0.1,0.2,0,0.5,0.1,0.7c0.1,0.2-0.2,0.4,0,0.5c0.1,0.1,0.2,0.3,0.1,0.4c-0.2,0.2,0.1,0.3,0,0.4
		c-0.1,0.1-0.2,0.3,0,0.5c0.1,0.1-0.2,0.3-0.1,0.5c0.1,0.2-0.1,0.4,0.1,0.6c0.2,0.2-0.2,0.4-0.1,0.6c0,0,0,0.1,0,0.2
		C18.1,57.1,18,57.4,18,57.7z M58.1,31.3c0-0.2,0-0.4-0.2-0.5c-0.3-0.1-0.5-0.2-0.8-0.1c-0.2,0-0.3,0-0.4-0.1
		c-0.3-0.1-0.4-0.5-0.8-0.6c-0.2,0-0.4-0.1-0.6-0.1c-0.2,0-0.3,0-0.4-0.2c-0.3-0.3-0.6-0.5-1.1-0.4c-0.1,0-0.2,0.1-0.3-0.1
		C53.5,29,53.3,29,53.1,29c-0.2,0-0.4,0-0.4-0.2c0-0.1,0-0.1-0.1-0.1c-0.4,0.1-0.6-0.3-1-0.3c-0.2,0-0.5,0-0.6-0.3
		c-0.1-0.3-0.3-0.2-0.4-0.2c-0.2,0.1-0.3,0.1-0.5-0.1c-0.1-0.1-0.3-0.1-0.3,0c-0.1,0.2-0.4,0.5-0.3,0.7c0,0.5-0.4,0.8-0.3,1.2
		c0,0,0,0.1,0,0.1c-0.4,0.1-0.3,0.4-0.3,0.6c0,0.1,0,0.2-0.2,0.2c-0.1,0-0.3,0.2-0.2,0.3c0.3,0.4,0,0.6-0.2,0.9
		c-0.1,0.2-0.3,0.3-0.3,0.5c0,0.4-0.3,0.8-0.3,1.2c0,0.1,0,0.2-0.1,0.3c-0.1,0.1-0.2,0.2-0.1,0.4c0,0.2,0,0.4-0.3,0.5
		c-0.1,0-0.3,0.2-0.1,0.4c0.1,0.1,0,0.3-0.1,0.4c-0.2,0.2-0.3,0.5-0.3,0.8c0,0.2-0.1,0.4-0.2,0.6c0.3,0.2-0.1,0.4,0,0.6
		c0,0-0.1,0.1-0.1,0.2c-0.4,0.3-0.5,0.5-0.4,0.9c0,0.4,0.3,0.6,0.7,0.6c0.1,0,0.2,0,0.4-0.1c0,0.3,0.3,0.1,0.4,0.3
		c0.1,0.2,0.4,0.2,0.5,0.4c0.1,0.3,0.5,0,0.6,0.2c0,0.1,0.2,0.1,0.2,0.1c0.1,0.2,0.5,0.1,0.6,0.3c0,0,0.2,0,0.3,0
		c0.1,0,0.1,0,0.2,0.1c0.2,0.2,0.5,0.2,0.6,0.5c0,0.1,0.1,0.1,0.2,0c0.1-0.1,0.2-0.1,0.2,0c0.2,0.2,0.4,0.3,0.7,0.4
		c0.2,0,0.4,0,0.5,0.2c0,0.1,0.2,0.1,0.3,0.1c0.3,0,0.5,0.1,0.7,0.2c0.2,0.1,0.4,0.3,0.7,0.2c0.1,0.1,0.3,0.1,0.4,0.2
		c0,0,0.1,0.1,0.1,0.1c0.1-0.2,0.2,0.1,0.3,0c0.2-0.1,0.3,0.1,0.4,0.1c0.1,0,0.2,0,0.2,0c0.1-0.2,0.3-0.2,0.5-0.3
		c0.1,0,0.1,0,0.1-0.1c0-0.4,0-0.7,0.3-0.9c0,0,0-0.1,0-0.2c0.1-0.1,0.1-0.3,0.2-0.4c0.3-0.2,0-0.3-0.1-0.4c0,0,0.1-0.1,0.1-0.1
		c0.2-0.2,0.4-0.4,0.2-0.8c-0.1-0.1,0-0.3,0.1-0.4c0.1,0,0.2-0.1,0.1-0.2c-0.1-0.1-0.1-0.2,0-0.3c0.1-0.1,0.2-0.3,0.2-0.4
		c0.1-0.2,0-0.5,0.2-0.7c0.1-0.1,0.2-0.2,0.2-0.3c0.1-0.1-0.1-0.2-0.1-0.3c0-0.1,0-0.1,0.1-0.2c0.1-0.1,0.2-0.3,0.3-0.4
		c0.1-0.1,0.2-0.6,0.1-0.8c0-0.1-0.1-0.2,0-0.3c0.2-0.2,0.1-0.5,0.5-0.6c-0.1-0.1,0.1-0.2,0.1-0.3c0-0.2,0-0.3,0-0.5
		c0-0.1,0-0.2,0-0.2c0.2,0,0.2-0.1,0.2-0.3c0-0.2,0-0.3,0.2-0.5c0.1-0.2,0.2-0.4,0.2-0.6c0-0.2,0-0.4,0.2-0.5c0.1-0.1,0.1-0.2,0-0.2
		c-0.2,0-0.3-0.2-0.5-0.2C58.6,31.2,58.3,31.3,58.1,31.3z M68.4,39.8c-0.1,0.1-0.2,0.1-0.2,0.3c0,0.4-0.1,0.7-0.4,0.9
		c-0.1,0.1-0.3,0.2-0.1,0.4c0.1,0-0.1,0.1-0.1,0.2c0,0.3-0.5,0.4-0.2,0.7c0,0,0,0.1-0.1,0.1c-0.1,0.1-0.2,0.2-0.3,0.3
		c-0.2,0.1,0.1,0.2,0,0.3c-0.1,0.2-0.1,0.4-0.3,0.5c-0.2,0.2-0.3,0.5-0.3,0.8c0,0.1,0,0.1,0,0.2c-0.1,0.1-0.4,0.2-0.3,0.5
		c0.1,0.3-0.2,0.3-0.3,0.5c-0.1,0.1,0,0.3-0.1,0.4c-0.2,0.1-0.2,0.3-0.2,0.4c0.1,0.4-0.3,0.7-0.3,1.1c0,0.1-0.1,0.2-0.2,0.2
		c-0.2,0-0.4,0.2-0.6,0.2c-0.2,0.1-0.1,0.2-0.1,0.3c0,0,0,0.1,0.1,0.1c0.2,0.1,0,0.4,0.2,0.4c0.3,0.1,0.1,0.3,0.2,0.5
		c0,0.1,0.1,0.1,0.2,0.1c0,0,0.1,0,0.1,0.1c-0.1,0.1-0.1,0.2,0,0.3c0.1,0.1,0.3,0.3,0.4,0.4c0.2,0.2,0.4,0.5,0.4,0.8
		c0,0.2,0.1,0.3,0.2,0.3c0.2,0,0.3,0.1,0.3,0.2c0,0.1,0.2,0.2,0.1,0.4c-0.1,0.2,0.3,0,0.2,0.2c0,0.4,0.2,0.8,0.5,1
		c0.1,0.1,0.1,0.3,0.1,0.3c-0.2,0.2,0,0.2,0.1,0.3c0.3,0.2,0.4,0.4,0.4,0.7c0,0.2,0,0.4,0.3,0.3c0.1,0,0.1,0.1,0.1,0.2
		c0,0.2,0.2,0.4,0.1,0.6c0,0.1,0,0.1,0.1,0.2c0.2,0.3,0.5,0.5,0.5,0.9c0,0.1,0.1,0.1,0.2,0c0.1-0.1,0.2-0.1,0.2-0.2
		c-0.1-0.3,0.1-0.4,0.3-0.5c0.1-0.1,0.2-0.2,0.2-0.4c-0.1-0.2,0.1-0.5,0.3-0.7c0.1-0.1,0.3-0.2,0.2-0.3c-0.2-0.2,0-0.3,0-0.3
		c0.1-0.2,0.1-0.4,0.1-0.6c0-0.4,0.1-0.7,0.5-0.9c0.3-0.2,0.3-0.6,0.3-1c0-0.1-0.1-0.1,0-0.2c0.2-0.1,0.4-0.4,0.3-0.6
		c-0.1-0.3,0-0.4,0.2-0.6c0.1-0.1,0.1-0.1,0.1-0.2c0-0.2,0.3-0.3,0.3-0.5c0.1-0.2,0-0.4,0.1-0.6c0.3-0.2,0.3-0.5,0.5-0.7
		c0.2-0.2,0.2-0.5,0.3-0.7c0.1-0.2,0-0.4,0.1-0.7c0.1-0.2-0.2-0.4-0.2-0.7c0,0,0,0,0-0.1c0.1-0.3-0.1-0.4-0.3-0.5
		c-0.4-0.2-0.5-0.6-0.8-0.9c-0.1-0.2-0.4-0.4-0.4-0.6c0-0.2-0.1-0.3-0.2-0.5c-0.1-0.1-0.3-0.2-0.4-0.4c0-0.2-0.2-0.2-0.3-0.2
		c-0.3,0-0.4-0.1-0.4-0.4c0-0.2-0.1-0.3-0.2-0.4c-0.1-0.2-0.2-0.2-0.3-0.3c-0.2-0.2,0.2-0.3,0-0.4c-0.1-0.1-0.1-0.2-0.2-0.3
		c-0.2-0.2-0.3-0.4-0.5-0.6C68.8,40.3,68.7,40,68.4,39.8z M50.6,48.6c-0.1-0.1-0.2-0.2-0.3-0.3c0,0-0.1-0.1,0-0.1c0,0,0.1,0,0.1,0
		c0.4,0.1,0.5,0,0.6-0.3c0-0.1,0-0.2,0.1-0.3c0.2-0.2,0.2-0.2,0.1-0.4c-0.2-0.2-0.2-0.4,0-0.6c0,0,0.1-0.1,0-0.2
		c-0.1-0.1-0.3-0.1-0.4-0.2c-0.2,0.2-0.3,0-0.4-0.1c-0.1-0.2-0.4-0.2-0.5-0.3c-0.1-0.1-0.2-0.1-0.2,0c-0.1,0.1-0.1,0.1-0.2,0
		c-0.3-0.1-0.7-0.2-0.9-0.5c-0.1-0.1-0.2-0.1-0.3-0.1c-0.3,0-0.6-0.1-0.8-0.5c0-0.1-0.1-0.1-0.2-0.1c-0.2,0-0.5,0.1-0.7-0.2
		c0,0-0.1,0-0.2,0c-0.1,0-0.3,0-0.4-0.1C45.9,44,45.7,44,45.5,44c-0.1,0-0.2,0-0.3-0.1c-0.1-0.2-0.3-0.3-0.4-0.4
		c-0.1-0.1-0.2-0.2-0.4-0.2c-0.3,0-0.3,0-0.6-0.3c-0.1-0.1-0.1-0.1-0.2-0.1c-0.1,0-0.3,0-0.4,0c-0.1,0-0.3,0-0.3-0.1
		c0-0.3-0.2-0.2-0.4-0.2c-0.1,0-0.2,0-0.3-0.1c-0.1-0.1-0.9-0.3-1-0.2c-0.1,0.1-0.1,0.2-0.2-0.1c0-0.1-0.1-0.4-0.3-0.3
		c-0.2,0.1-0.3,0-0.4-0.1c-0.2-0.2-0.4-0.4-0.8-0.4c-0.2,0-0.5-0.2-0.7-0.3c-0.2,0-0.3-0.3-0.5-0.1c0,0-0.1,0-0.1-0.1
		c0-0.2-0.2-0.2-0.3-0.2c-0.2,0-0.4-0.1-0.5-0.2c-0.3,0.3-0.3,0.3-0.8,0.2c0,0-0.1,0-0.1,0c-0.5,0.2-0.6,0.5-0.4,0.9
		c0,0,0.1,0.1,0.1,0.1c-0.1,0.1-0.2,0.1-0.3,0.2c-0.2,0-0.1,0.1,0,0.2c0.1,0.1,0,0.2,0,0.2c-0.3,0-0.2,0.2-0.1,0.3
		c0,0,0.1,0.1,0.1,0.1c-0.1,0.1-0.1,0.1-0.2,0.2c0.1,0.1,0.1,0.1,0.1,0.3c0,0.2-0.1,0.2-0.2,0.3c-0.1,0-0.2,0.1,0,0.1
		c0.3,0,0.2,0.3,0.2,0.3c-0.2,0.2,0,0.3,0,0.4c0.1,0.2,0.2,0.4,0.6,0.4c0.2,0,0.3,0.3,0.5,0.1c0,0,0.1,0,0.1,0.1
		c0,0.3,0.2,0.2,0.4,0.3c0.2,0,0.3,0.2,0.5,0.2c0.3,0,0.6,0,0.8,0.3c0.1,0.1,0.2,0.1,0.2,0c0.2-0.1,0.3,0.1,0.4,0.1
		c0.4,0.2,0.8,0.3,1.1,0.3c0.2,0,0.5-0.1,0.5,0.3c0,0,0.1,0.1,0.1,0.1c0.2-0.1,0.3,0.2,0.5,0.1c0.3-0.1,0.4,0.1,0.5,0.3
		c0,0.1,0,0.1,0.1,0.1c0.1,0,0,0,0,0c0.4,0,0.5,0,0.9,0.3c0.1,0.1,0.3,0.2,0.4,0.2c0.2,0,0.4,0,0.4,0.3c0,0,0,0.1,0.1,0
		c0.3-0.2,0.5-0.1,0.7,0.2c0.1,0.1,0.3,0.2,0.4,0.2c0.1,0,0.2-0.1,0.3,0c0.1,0.2,0.5,0.1,0.5,0.5c0,0.1,0.1,0.1,0.2,0
		c0,0,0.1-0.1,0.1,0c0.1,0.2,0.4,0.2,0.6,0.2c0.1,0,0.2,0,0.3,0.1c0.2,0.1,0.2,0.5,0.5,0.2c0.2,0.3,0.5,0.3,0.7,0.5
		c0.1,0.1,0.2,0.2,0.4,0.1c0.1,0.2,0.4,0,0.5,0.3c0.1,0.2,0.2,0.2,0.3,0.2c0.2,0.1,0.3,0,0.4,0c0.1,0,0.2-0.2,0.2-0.1
		c0.3,0.3,0.4,0,0.5-0.1c0.1-0.1,0-0.3,0.2-0.4c0,0,0-0.1,0-0.2c-0.1-0.1,0-0.3,0-0.4C50.2,48.8,50.5,48.8,50.6,48.6z M59,58.7
		c0.3,0.1,0.4,0.2,0.6,0.5c0.1,0.1,0.2,0.2,0.3,0.2c0.2-0.1,0.6,0.2,0.5-0.3c0-0.1,0.2-0.1,0.3,0c0.2,0.1,0.2,0,0.2-0.1
		c0-0.1,0-0.2,0-0.2c0-0.1,0.1-0.1,0.2,0c0.1,0,0.2,0.2,0.2,0c0-0.1,0-0.2,0.1-0.2l0.6,0c0,0,0.1,0,0.1,0c0.1,0,0-0.2,0.1-0.2
		c0.1,0,0.1-0.2,0.2-0.1c0.1,0.1,0.2-0.1,0.2-0.1c0-0.2,0.1-0.2,0.2-0.3c0.1-0.1,0.3-0.2,0.3-0.4c0-0.1,0.1-0.1,0-0.2
		c-0.3-0.2-0.2-0.4-0.2-0.6c0-0.2,0-0.4-0.3-0.4c-0.2-0.1-0.5-0.1-0.2-0.5c0-0.1,0-0.2-0.1-0.3c-0.2-0.3-0.5-0.5-0.4-1
		c0-0.1-0.1-0.1-0.1-0.1c-0.4-0.2-0.3-0.3-0.5-0.9c0,0,0-0.1-0.1-0.1c-0.1-0.2-0.3-0.4-0.4-0.6c0-0.1-0.2-0.1-0.3-0.2
		c0.1-0.1,0.1-0.2,0.1-0.3c0-0.2-0.1-0.3-0.2-0.3c-0.1,0-0.2-0.1-0.1-0.1c0.2-0.2,0-0.3-0.1-0.4c-0.1-0.1-0.3-0.3-0.3-0.4
		c0-0.2-0.1-0.4-0.3-0.5c-0.2-0.1-0.3-0.3-0.2-0.5c0.1-0.3-0.1-0.6-0.3-0.8c-0.2-0.2-0.4-0.4-0.7-0.6c-0.1-0.1-0.1-0.1-0.1-0.2
		c0-0.2-0.1-0.2-0.4-0.2c-0.1,0-0.2,0-0.3-0.1c-0.1-0.1-0.4,0.1-0.4,0.2c0,0.1,0,0.1-0.1,0.1c-0.2,0-0.3,0.1-0.4,0.3
		c0,0.1-0.2,0.3-0.4,0.1c0,0-0.1,0-0.2,0c-0.2-0.1-0.2,0-0.3,0.2C56.2,49,56.2,49,56.2,49c-0.2-0.1-0.3,0.1-0.4,0.1
		c-0.3,0.1-0.3,0.2-0.4,0.3c0,0,0,0.1,0,0.1c0,0.1,0,0.2-0.2,0.2c-0.1,0-0.1,0.1-0.2,0.2C54.9,50,55,50.2,55,50.3
		c0,0.2,0.1,0.1,0.2,0.2c0.3,0.3,0.8,0.6,0.6,1.2c0.2,0.3,0.1,0.8,0.5,1c0.1,0.1,0.3,0.2,0.1,0.4c-0.1,0,0,0.2,0.1,0.2
		c0.2,0.1,0.1,0.3,0.2,0.4c0.1,0.1,0.2,0.2,0.4,0.2c0.1,0,0.2,0.2,0.2,0.3c0,0.2,0.1,0.4,0.2,0.6c0.1,0.1-0.1,0.3,0.1,0.4
		c-0.3,0.3,0,0.4,0.2,0.6c0.1,0.1,0.1,0.2,0.1,0.3c0,0.2,0.2,0.1,0.2,0.2c0,0.1,0,0.3,0,0.4c0,0.1,0.1,0.2,0.2,0.2
		c0,0,0.2,0,0.2,0.1c0,0.3,0.2,0.4,0.3,0.5c0.2,0.3,0.4,0.5,0.3,0.9C59,58.6,59,58.7,59,58.7z M32.2,30.2c0-0.1,0-0.2-0.1-0.3
		c-0.1-0.4-0.4-0.8-0.3-1.2c-0.2-0.2-0.1-0.4-0.1-0.5c0-0.2-0.1-0.2-0.2-0.3c-0.2-0.1-0.4-0.2-0.3-0.3c0.1-0.3-0.2-0.3-0.3-0.6
		c0-0.2-0.2-0.3-0.4-0.1C30.3,27,30.2,27,30.1,27c-0.1,0-0.2,0-0.3,0c-0.1,0-0.2-0.1-0.2-0.1c-0.1,0-0.2,0.2-0.2,0.1
		c-0.2-0.2-0.4,0-0.6-0.2c-0.1-0.1-0.3-0.1-0.5,0.1c-0.2,0.2-0.5,0.2-0.6,0.6c0,0.1-0.1,0.1-0.2,0.1c-0.2,0-0.3,0.1-0.5,0.2
		c-0.2,0-0.3,0.1-0.2,0.3c0,0.2,0.1,0.4-0.1,0.6c-0.3,0.2-0.1,0.6-0.4,0.8c0,0,0,0.1,0,0.1c0.3,0.3,0,0.6,0,0.9c0,0.2-0.3,0.4,0,0.5
		c0,0,0,0,0,0.1c-0.1,0.2-0.1,0.3,0,0.5c0.2,0.2-0.3,0.3-0.2,0.5c0,0,0,0.1,0,0.1c-0.1,0.4,0.1,0.7,0.2,1.1c0,0.1,0.2,0.2,0.1,0.2
		c-0.3,0.3,0,0.4,0.1,0.6c0.1,0.1,0.1,0.2,0.1,0.3c0,0.2,0.2,0.4,0.4,0.6c0.1,0.1,0.3,0.2,0.3,0.3c0,0.4,0.2,0.4,0.5,0.4
		c0.2,0,0.5,0,0.7,0.1c0.1,0.1,0.2,0.4,0.4,0.2c0.3-0.2,0.3,0.1,0.4,0.1c0.1,0,0.1-0.1,0.2-0.1c0.1-0.1,0.3-0.3,0.4-0.2
		c0.1,0.1,0.2,0.1,0.3,0c0-0.2,0.2-0.3,0.3-0.3c0.3,0,0.4-0.3,0.6-0.5c-0.1-0.3,0.1-0.3,0.3-0.3c0.2-0.1,0.3-0.3,0.3-0.5
		c0-0.3,0.1-0.5,0.2-0.7c0.1-0.3,0.1-0.7,0.1-0.9c0,0,0-0.1,0-0.1c-0.1-0.1,0.2-0.2,0-0.4c-0.1-0.1,0-0.2,0.1-0.4
		c0.1-0.1-0.1-0.2,0-0.4c0.1-0.1,0.1-0.4-0.1-0.5c-0.1-0.1-0.1-0.2,0-0.3C32.1,30.4,32.2,30.3,32.2,30.2z M17.7,63.9
		c0.1,0.2,0.2,0.4,0.3,0.5c0.1,0.1,0.1,0.3,0.2,0.5c0,0.2,0.3,0.1,0.5,0.2c0.1,0.1,0.4,0.1,0.4,0.3c0,0.1,0.2,0.1,0.3,0.1
		c0.2,0,0.4,0.1,0.5,0.2c0.2,0.1,0.3,0.4,0.6,0.1c0.1,0.1,0.3,0.1,0.4,0.3c0.2,0.1,0.4,0.1,0.6,0.2c0.4-0.2,0.9-0.2,1.3-0.4
		c0.1-0.1,0.2-0.1,0.3,0c0.2,0.3,0.2,0,0.3-0.1c0.1,0,0.2-0.2,0.4-0.2c0.1,0,0.2-0.1,0.3-0.3c0.1-0.2,0.2,0.1,0.4,0
		c0.1,0,0.1,0,0.1-0.1c0-0.1,0.1-0.2,0.3-0.3c0.4-0.1,0.8-0.2,1.1-0.6c0-0.1,0.1-0.1,0.2-0.1c0.2,0,0.4-0.1,0.5-0.3
		c0.2-0.2,0.5-0.3,0.7-0.1c0.1,0.1,0.2,0,0.2-0.1c0.1-0.1,0.1-0.3,0-0.3c-0.1-0.2-0.1-0.4-0.1-0.6c0-0.1-0.1-0.2-0.1-0.3
		c-0.1,0-0.1-0.1,0-0.2c0.3-0.2,0.1-0.4,0-0.7c0-0.1-0.1-0.1,0-0.2c0.3-0.2,0.1-0.4,0-0.6c0-0.2-0.2-0.2-0.4-0.1
		c-0.2,0.1-0.4,0.2-0.7,0c-0.3-0.2-0.5,0.1-0.7,0.1c-0.2,0.3-0.5,0.3-0.8,0.3c-0.1,0-0.3,0-0.3,0.1c-0.1,0.3-0.2,0.2-0.4,0.2
		c-0.2,0-0.5-0.1-0.6,0.3c0,0.1-0.1,0.1-0.1,0.1c-0.2-0.1-0.4,0.1-0.5,0.2c-0.2,0.1-0.4,0-0.5,0.2c-0.1,0.1-0.3,0.2-0.4,0.3
		c-0.1,0.1-0.3,0.1-0.4,0.2c-0.2,0.1-0.3-0.1-0.4,0c-0.3,0.1-0.6,0.4-0.9,0.4c0,0-0.1,0.1-0.1,0.1c-0.2,0.3-0.5,0.3-0.7,0.4
		c-0.1,0-0.3,0.3-0.4,0.1C18.3,63.6,18.1,64,17.7,63.9z"/>
	<path d="M101,50.9c0.1,0.1,0.2,0.2,0.3,0.3c0.1,0.1,0.2,0.2,0.1,0.4c0,0,0,0.1,0,0.2c0.2,0.6,0.1,1.2,0.1,1.8c0,0.1,0,0.2,0,0.3
		c0.1,0.1,0.1,0.2,0,0.3c0,0,0,0.1,0,0.2c0,0.2,0.3,0.4,0.1,0.6c-0.1,0.2-0.2,0.4-0.2,0.6c-0.1,0.2-0.2,0.4-0.2,0.6
		c0,0.1-0.2,0.2-0.1,0.3c-0.3,0-0.2,0.3-0.2,0.5c-0.1,0.1-0.3,0.1-0.4,0c-0.3,0-0.6,0-0.7,0.4c0,0,0,0,0,0c-0.3,0.2-0.5,0.4-0.7,0.7
		c-0.1,0.1-0.1,0-0.2,0c-0.2,0-0.3-0.2-0.5-0.3c-0.2-0.1-0.4-0.1-0.5,0c-0.2,0.1-0.5,0.1-0.7,0.1c0.1-0.3,0.4-0.2,0.5-0.5
		c-0.4,0.1-0.7-0.1-1.1-0.2C96,57,96.1,56.8,96,56.7c-0.1-0.1,0-0.2,0-0.4c0-0.2,0-0.3-0.2-0.5c-0.1-0.2-0.4-0.4-0.1-0.6
		c0-0.3,0.2-0.7-0.2-0.9c-0.1,0-0.1-0.3,0-0.5c0-0.1-0.1-0.6-0.2-0.7c0,0-0.1-0.1-0.1-0.1c0.1-0.1,0.2-0.2,0.2-0.3
		c0-0.1-0.1-0.2-0.2-0.3c0-0.1-0.1-0.3,0.1-0.4c-0.2-0.2-0.2-0.4,0-0.6c0.1-0.1-0.1-0.2-0.1-0.2c-0.2-0.2-0.2-0.3,0-0.4
		c0.2-0.1,0-0.3,0-0.4c-0.1-0.1-0.3-0.2-0.3-0.3c0-0.2,0.1-0.2,0.1-0.3c0-0.1,0.2-0.3,0-0.4c0.1-0.2,0-0.5,0-0.7
		c0-0.2,0-0.4-0.1-0.6c-0.1-0.3-0.2-0.6,0.1-0.8c0.1-0.1,0.1-0.2,0-0.2c-0.2-0.2-0.2-0.4-0.1-0.6c0.1-0.1-0.1-0.3,0.1-0.4
		c0.2-0.1,0.2-0.1,0.1-0.3c0,0,0-0.1,0-0.2c-0.2-0.2-0.1-0.4,0.1-0.5c0.1-0.1,0.2-0.2,0.1-0.4c-0.1-0.2,0-0.5-0.1-0.8
		c0,0,0.1-0.1,0.1-0.1c0.2-0.4,0.3-0.8,0.3-1.2c0-0.1-0.1-0.3,0.2-0.3c0.1,0,0.1-0.2,0-0.3c-0.1-0.1-0.1-0.2,0-0.3
		c0.2-0.2,0.2-0.4,0.1-0.6c-0.1-0.2-0.1-0.4,0.1-0.6c0.2-0.2,0.1-0.4,0.2-0.6c0.1-0.2,0.1-0.3,0.2-0.5c-0.3-0.1,0.2-0.3-0.1-0.5
		c-0.1,0-0.1,0,0-0.1c0.3-0.3,0.2-0.6,0.2-0.9c-0.2-0.1,0-0.3,0-0.4c0.1-0.2,0.1-0.3,0.1-0.5c0-0.1,0-0.2,0.1-0.3
		c0.1-0.1,0.1-0.1,0-0.2c0,0-0.1,0.1-0.1,0.1c-0.1,0-0.1-0.1-0.2-0.1c-0.2-0.1-0.2-0.4-0.5-0.3c-0.1,0-0.2-0.1-0.2-0.2
		c0-0.2-0.1-0.2-0.2-0.4c-0.1-0.1-0.3-0.1-0.3-0.3c0-0.1-0.1,0-0.2,0c-0.1,0-0.1,0.1-0.1,0.2c0,0.1,0,0.3-0.1,0.4
		c-0.2,0.2-0.2,0.3,0,0.5c0.2,0.2,0.1,0.3,0,0.4c-0.2,0.1-0.2,0.3-0.3,0.5c-0.1,0.1-0.2,0.3-0.2,0.5c0,0.1,0,0.1,0,0.2
		c-0.2,0.3-0.2,0.3-0.2,0.7c0,0.1,0,0.3,0.1,0.4c-0.1,0.1-0.1,0.2-0.1,0.3c0.1,0.4-0.1,0.7-0.4,1c-0.2,0.2-0.1,0.3,0,0.4
		c0.1,0.1,0.1,0.2,0,0.3c-0.2,0.1-0.2,0.4-0.1,0.5c0.1,0.2,0.1,0.2,0,0.3c-0.1,0.1-0.2,0.3-0.2,0.4c-0.2,0.4-0.2,0.5,0,0.8
		c0.1,0.2,0.1,0.5,0.1,0.7c-0.2,0.1,0,0.3,0,0.4c0,0.2,0.3,0.4,0,0.6c0.3,0.3-0.2,0.7,0.1,0.9c0,0-0.1,0.1-0.1,0.2
		c0,0.1-0.2,0.3,0.1,0.4c0.1,0.1,0.1,0.3,0,0.4c-0.1,0.2-0.1,0.3-0.1,0.4c0,0.1-0.1,0.3,0.2,0.3c0.1,0.2,0,0.4,0.2,0.6
		c0,0,0,0.2,0,0.2c0.3,0.2,0.2,0.4,0,0.5c-0.1,0.1,0,0.2,0,0.3c0.1,0.2,0.2,0.5,0.4,0.7c0.1,0.1,0.1,0.5,0.2,0.6
		c0.1,0.3,0,0.6,0.1,0.9c0,0.1,0.1,0.2,0.1,0.3c-0.3,0.3,0,0.5,0,0.8c0,0.1,0.2,0.2,0.1,0.3c-0.1,0.1-0.2,0.3-0.3,0.3
		c-0.2,0.1-0.4,0.2-0.4,0.5c0,0.1,0,0.1-0.1,0.1l-0.9,0.4c-0.2,0-0.3,0.1-0.4,0.2c-0.1,0.2,0,0.5-0.4,0.5c-0.1,0,0,0.1,0,0.1
		c0,0.1,0.1,0.2-0.1,0.2c-0.2,0-0.4,0.1-0.6-0.1c0,0-0.1-0.1-0.1,0c-0.1,0.3-0.3,0.1-0.5,0.1c-0.5-0.1-0.9-0.2-1.4-0.1
		c0.1-0.4-0.1-0.7-0.1-1c0-0.2-0.2-0.3-0.3-0.3c-0.3-0.1-0.2-0.2-0.1-0.3c0.2-0.3-0.2-0.5,0-0.8c0,0,0,0,0,0
		c-0.5-0.1-0.5-0.5-0.4-0.8c0,0,0-0.1-0.1-0.2c0-0.1-0.2-0.1-0.2-0.2c0,0,0,0,0-0.1c0,0,0-0.1,0-0.1c0.2-0.1,0-0.2,0.1-0.4
		c0.2-0.2,0.1-0.5-0.1-0.7c-0.3-0.3-0.2-0.8-0.4-1.1c0,0,0-0.1,0-0.2c0.1-0.2,0.2-0.3,0.1-0.5c-0.1-0.2,0.1-0.5,0-0.6
		c-0.1-0.2-0.1-0.3,0-0.4c0.1-0.1,0.1-0.2,0-0.3c-0.1-0.1-0.1-0.2-0.2-0.3c-0.1-0.1-0.1-0.1-0.1-0.2c0.2-0.3,0.1-0.7,0.1-1
		c0-0.1,0-0.2,0-0.2c-0.3-0.1-0.1-0.4-0.1-0.5c-0.1-0.2,0-0.4,0.1-0.6c0.1-0.2,0-0.4,0.2-0.6c0.1-0.1-0.1-0.2-0.1-0.4
		c0-0.2,0.1-0.4-0.1-0.6c-0.1-0.2,0.1-0.3,0.1-0.5c0-0.1-0.2-0.3,0-0.5c0.1-0.1-0.1-0.3,0.1-0.4c-0.1-0.1,0-0.3,0-0.4
		c0-0.2-0.1-0.3,0-0.4c0,0,0-0.1,0-0.1c-0.3-0.3,0-0.5,0.2-0.7c0.1-0.1-0.1-0.1-0.1-0.2c0-0.2-0.3-0.3,0-0.5c0,0,0-0.2,0-0.2
		c-0.1-0.1-0.1-0.1,0-0.2c0.1-0.1,0.2-0.2,0.4-0.3c-0.1-0.2-0.1-0.3-0.2-0.5c0.2-0.2-0.1-0.4,0-0.5c0.2-0.1,0-0.4,0.2-0.5
		c0.2-0.1,0.1-0.3,0.1-0.4c-0.2-0.3,0-0.4,0.1-0.5c0,0,0.1-0.1,0.1-0.1c-0.2-0.1-0.2-0.4-0.3-0.5c0-0.1,0-0.1,0-0.1
		c0.2-0.3,0.2-0.5,0.2-0.8c0-0.1-0.1-0.2,0-0.3c0.2-0.1,0.2-0.3,0.3-0.4c0.2-0.2,0.2-0.2-0.1-0.5c0.1-0.1,0.2-0.2,0.3-0.3
		c0.3-0.3,0.3-0.3,0-0.6c0.1-0.1,0.2-0.2,0.3-0.3c0.1-0.1,0.2-0.2,0.1-0.3c0,0,0-0.1,0-0.1c0.3-0.3,0.3-0.6,0.4-1
		c0.1-0.2,0.2-0.3,0-0.6C89.8,29.2,90,29.1,90,29c-0.1-0.3,0-0.4,0.2-0.6c0.2-0.3,0.5-0.6,0.4-1.1c0-0.2,0.2-0.4,0.1-0.6
		c0,0,0-0.1,0.1-0.1c0.4,0.1,0.2-0.4,0.4-0.5c0-0.4,0.2-0.6,0.4-0.9c0.1-0.1,0.2-0.2,0-0.3c-0.1-0.1-0.1-0.2,0-0.3
		c0.2-0.2,0-0.5,0.2-0.6c0.2-0.1,0.2-0.4,0.3-0.6c0.1-0.1,0.1-0.2,0.1-0.3c0-0.3,0-0.8,0.2-1.1c0.1-0.1,0.2-0.2,0.1-0.4
		c-0.1-0.2,0.1-0.3,0.1-0.5c0.1-0.2,0.4-0.4,0.3-0.6c0-0.2,0.1-0.4,0-0.6c0-0.2,0-0.3,0.2-0.4c0.2-0.1,0-0.3,0.2-0.4
		c0.1-0.1,0-0.1-0.1-0.1c-0.1-0.1-0.1-0.2,0-0.3c0.2-0.1,0.1-0.4,0.2-0.5c0,0,0.1-0.2,0-0.2c-0.1,0-0.2-0.1-0.2,0
		c-0.3,0.2-0.6,0.3-0.8,0.6c-0.1,0.1,0,0.3,0,0.4c0,0.2-0.1,0.3-0.2,0.3c-0.1,0-0.2,0-0.3,0.2c-0.1,0.2-0.2,0.3-0.5,0.3
		c-0.1,0-0.2,0.1-0.3,0.2c-0.1,0.1-0.3,0.2-0.5,0.3c-0.1,0-0.1,0-0.2,0c-0.1,0.4-0.3,0.5-0.7,0.4c-0.1,0-0.2,0.1-0.2,0.1
		c-0.1,0.3-0.4,0.3-0.6,0.3c-0.3,0-0.4,0.2-0.6,0.3c-0.1,0.1-0.2,0.2-0.4,0.2c-0.2,0-0.3,0.1-0.5,0.2c-0.1,0.1-0.2,0.1-0.2,0
		c0-0.2-0.1-0.2-0.2-0.1c0,0.1-0.1,0.2-0.2,0.1c-0.2-0.3-0.4,0-0.6,0.1c-0.2,0.1-0.4,0.1-0.6,0.1c-0.2,0.1-0.5,0-0.7,0.1
		c-0.3,0.1-0.6,0.1-0.8-0.2c-0.1-0.2-0.3-0.3-0.6-0.1c-0.1,0-0.3,0.1-0.3-0.2c0-0.1-0.2-0.2-0.4-0.2c-0.2,0-0.4,0-0.7,0
		c-0.1,0-0.3,0-0.3-0.2c0-0.1-0.1-0.1-0.1,0c-0.2,0.2-0.4-0.1-0.6,0c0,0-0.1,0-0.1,0c-0.1-0.4-0.4-0.3-0.6-0.3
		c-0.3-0.1-0.5-0.2-0.8-0.4c-0.1,0-0.1-0.1-0.2-0.2c-0.1-0.1-0.4,0.1-0.4-0.1c0-0.2-0.1-0.3-0.2-0.4c-0.1-0.1-0.2-0.3-0.3-0.4
		c0-0.1-0.6-0.5-0.6-0.5c-0.2,0-0.2-0.2-0.3-0.2c-0.1,0-0.3,0-0.4-0.1c0-0.1-0.1-0.2-0.1-0.2c-0.1,0.2-0.4,0-0.4,0.2
		c-0.1,0.3-0.5,0.3-0.6,0.7c0,0.1-0.1,0.2-0.2,0.1c-0.3,0-0.6,0.3-0.8,0.1c-0.3-0.1-0.5,0-0.7,0c-0.1,0-0.2,0.1-0.3,0c0,0,0,0,0,0
		c-0.1-0.2-0.6,0.1-0.5-0.4c-0.2-0.2-0.3-0.4-0.5-0.5c-0.2-0.2,0-0.3,0-0.5c-0.2,0-0.4,0-0.4-0.2c0-0.2-0.1-0.3-0.2-0.4
		c-0.1-0.1-0.2-0.2-0.1-0.3c0.1-0.1,0-0.1,0-0.1c-0.1-0.1-0.2-0.2-0.2-0.3c0-0.1-0.1-0.2,0.1-0.3c0.2-0.1,0.4-0.1,0.5-0.4
		c0.1-0.2,0.4-0.2,0.4-0.4c0-0.1,0.1-0.1,0.2-0.2c0.3-0.1,0.5-0.3,0.7-0.5c0.2-0.3,0.5-0.4,0.9-0.5c0.2-0.1,0.4-0.2,0.5-0.4
		c0.1-0.1,0.1-0.2,0.2-0.3c0.1-0.1,0.2-0.2,0.3,0c0,0,0.1,0.1,0.1,0c0-0.3,0.1-0.4,0.4-0.4c0-0.3,0.4-0.2,0.5-0.3
		c0.3,0.1,0.4-0.3,0.7-0.4c0.1-0.3,0.4-0.2,0.6-0.3c0.2-0.1,0.4,0,0.6,0c0.1,0,0.2,0.1,0.2,0.1c0.1,0.1,0.3,0.2,0.4,0.2
		c0.1,0.1,0.2,0.1,0.1,0.3c-0.1,0.1,0,0.3,0.1,0.5c0.1,0.1,0.2,0.4,0.3,0.5c0.2,0.1,0.3,0.3,0.3,0.4c0.1,0.2,0.4,0.2,0.6,0.3
		c0.2,0.1,0,0.4,0.2,0.5c0.2,0.1,0.2,0.4,0.5,0.3c0.2,0,0.1,0.2,0.2,0.3c0.1,0.3,0.3,0.5,0.6,0.5c0.1,0,0.1,0,0.1,0.1
		c0,0.4,0.5,0.3,0.6,0.6c0,0,0.1,0.1,0.1,0.1c0.3,0,0.7,0.1,1-0.1c0.1,0,0.2-0.1,0.3,0c0.2,0.2,0.4,0.1,0.5-0.1
		c0.1-0.1,0.1-0.1,0.2-0.1c0.2,0,0.2,0.2,0.4,0.1c0.1-0.1,0.2-0.1,0.3-0.1c0.2,0.1,0.4-0.1,0.6-0.2c0.3-0.2,0.7-0.4,0.9-0.7
		c0.1-0.1,0.2-0.1,0.3-0.2c0.2-0.1,0.5-0.2,0.6-0.5c0.1-0.2,0.3-0.4,0.5-0.3c0.1,0,0.1,0,0.2-0.1c0-0.1,0.1-0.2,0.3-0.3
		c0,0,0.1,0,0-0.1c-0.2-0.3,0.1-0.5,0.1-0.7c0,0,0.1-0.1,0.2-0.1c0.5-0.1,0.8-0.3,1.1-0.7c0.2-0.2,0.4-0.1,0.6-0.2
		c0-0.3,0-0.6,0.3-0.8c0.1-0.1,0.1-0.1,0.3-0.1c0.2,0.1,0.3-0.1,0.4-0.3c0.1-0.1,0.1-0.2,0.2-0.3c0.1-0.1,0.1-0.1,0.3,0
		c0.2,0.1,0.4-0.2,0.2-0.4c-0.2-0.2,0-0.2,0.1-0.3c0.3-0.2,0.6-0.2,0.8-0.5c0,0,0.1-0.1,0.1-0.1c0.3,0,0.5-0.3,0.8-0.5
		c0.1-0.2,0.3-0.3,0.5-0.3c0.2,0.2,0.3,0,0.4-0.1c0.1-0.1,0.2-0.3,0.5-0.1c0.1,0.1,0.3,0,0.3-0.1c0.1-0.3,0.3-0.2,0.5-0.2
		c0.1,0.1,0.3,0.1,0.4,0.1c0.3,0,0.5,0.1,0.7,0.2c0.1,0.1,0.3,0,0.5,0c0.4,0.1,0.8,0,1.1,0.4c0.1,0.1,0.3,0.1,0.4,0
		c0.2-0.2,0.4-0.1,0.5,0.1c0.1,0.2,0.3,0.2,0.5,0.2c0.2,0,0.5,0.3,0.7,0c0.2,0.1,0.5,0.2,0.7,0.4c0.2,0.2,0.3,0.5,0.6,0.3
		c0,0,0.1,0.1,0.1,0.1c0.1,0,0.1,0.1,0.2,0.1c0.4-0.2,0.4-0.2,0.8,0.1c0.1,0.1,0.2,0.1,0.3,0.1c0.2,0,0.3,0,0.4,0.2
		c0.1,0.1,0.1,0.3,0.3,0.3c0.1,0,0.2,0.2,0.4,0c0,0,0.1,0.1,0.2,0.1c0.2,0.2,0.2,0.2,0.5,0.2c0,0,0.1,0,0.1,0
		c0.2,0.3,0.6,0.1,0.8,0.4c0,0,0.1,0.1,0.1,0.1c0.3-0.1,0.5,0.2,0.7,0.4c0.2,0.2,0.4,0.3,0.4,0.6c0,0.3,0.3,0.2,0.5,0.2
		c0,0,0.1,0.1,0.1,0.1c0,0.5,0,0.5,0.6,0.6c0.1,0,0.2,0,0.2,0.2c0,0.1,0.1,0.2,0.1,0.2c0.1,0.1,0.2,0.1,0.2,0.3
		c-0.1,0.2,0.2,0.1,0.2,0.2c0.1,0.1,0.1,0.3,0,0.4c-0.1,0.1-0.1,0.1,0,0.3c0.1,0.1,0.4,0.1,0.2,0.4c-0.1,0.2,0.2,0.2,0.2,0.4
		c0,0,0.1,0.1,0.1,0.1c0.1,0.2,0.4,0,0.4,0.2c0,0.2,0.1,0.3,0.2,0.4c0.2,0.1,0,0.3,0.1,0.4c-0.1,0.1-0.1,0.1,0,0.2
		c0.2,0.1,0.3,0.3,0.1,0.5c-0.1,0.1,0.1,0.2,0.1,0.3c0,0.2-0.1,0.5,0.1,0.7c-0.1,0.2,0,0.4,0,0.6c0,0.1,0,0.3-0.1,0.4
		c-0.1,0.1,0.1,0.2,0.1,0.3c0,0,0,0.1,0,0.1c0,0.2-0.4,0.1-0.3,0.3c0,0.1,0.2,0.3,0,0.4c0,0,0,0.1,0,0.2c-0.1,0.2,0.3,0.3,0,0.5
		c-0.1,0.1-0.1,0.3,0.1,0.5c-0.1,0.3-0.1,0.6-0.2,0.9c-0.4,0.1-0.4,0.5-0.4,0.8c0,0,0,0.1-0.1,0.1c-0.2,0.2-0.4,0.3-0.4,0.7
		c0,0-0.1,0.1-0.1,0.1c-0.2,0.2,0,0.5-0.1,0.7c-0.1,0.2-0.4,0.3-0.3,0.5c0,0.1,0,0.3-0.2,0.3c-0.4,0.4-0.8,0.8-0.8,1.5
		c0,0.2-0.1,0.3-0.2,0.3c-0.4,0-0.5,0.3-0.7,0.6c-0.1,0.2-0.2,0.3-0.4,0.4c-0.4,0.2-0.8,0.3-1.1,0.5c-0.2-0.1-0.3,0.2-0.5,0.1
		c-0.2-0.2-0.4,0-0.5-0.1c-0.1,0-0.1-0.1-0.2-0.1c-0.2-0.1-0.3,0.2-0.4,0.1c-0.2-0.2-0.3-0.3-0.4-0.5c-0.1-0.2-0.2-0.2-0.3,0
		c0,0,0,0,0,0.1c0,0.2-0.2,0.2-0.4,0.3c0.2,0.1,0.2,0.4,0.1,0.5c-0.2,0.3-0.2,0.7-0.4,1.1c0,0-0.1,0.1-0.1,0.1c0,0.1-0.1,0.3,0,0.4
		c0.2,0.2-0.1,0.3,0,0.4c0.1,0.1,0,0.3,0.1,0.4c0,0,0.1,0.1,0,0.2c-0.2,0.3,0,0.7-0.2,0.9c-0.1,0.1,0.2,0.2,0,0.4
		c-0.1,0.1,0,0.4-0.1,0.7c0,0.1,0,0.2,0,0.3c0.2,0.1,0.1,0.2,0,0.4c0,0.1,0,0.2,0.1,0.3c-0.2,0.2-0.3,0.3-0.5,0.5
		c0.2,0.2,0.1,0.4,0,0.6c0,0-0.1,0.1-0.1,0.1c-0.2,0-0.3,0.1-0.2,0.3c0,0.2-0.1,0.3,0.1,0.5c0.1,0,0.1,0.2-0.1,0.3
		c-0.2,0.1-0.1,0.3-0.2,0.4c0,0.4-0.1,0.7-0.4,1.1c-0.1,0.2-0.5,0.3-0.2,0.6c-0.2,0.2-0.2,0.5-0.1,0.7c0.1,0.2-0.1,0.5,0,0.7
		c0,0.1,0,0.2-0.1,0.3c-0.2,0.1-0.2,0.3-0.1,0.4c0.2,0.3,0.1,0.5-0.1,0.6c-0.2,0.1-0.2,0.2,0,0.4c0.1,0.1,0.2,0.2,0.1,0.2
		c-0.2,0.2-0.1,0.5-0.2,0.6c-0.1,0.1-0.2,0.3-0.1,0.5c0.1,0.1,0,0.4,0.2,0.5c0,0,0.1,0.1,0,0.1c-0.1,0.1-0.1,0.1-0.2,0.2
		c-0.1,0.1-0.1,0.2,0,0.3c0.1,0.1,0.1,0.1,0,0.2c-0.1,0.1-0.1,0.2,0,0.2c0.1,0.1,0.1,0.2,0,0.2c-0.1,0.1-0.2,0.2-0.2,0.4
		c0,0.1-0.1,0.2,0,0.4c0.1,0.1,0.2,0.3,0,0.6c-0.1,0.1-0.1,0.3,0,0.3c0.2,0.2,0,0.4,0,0.6c-0.1,0.1-0.1,0.2,0,0.3
		c0.3,0.2,0.1,0.6,0.3,0.9c0.1,0.1-0.1,0.1-0.1,0.2c0,0.2-0.1,0.4,0,0.6c-0.2,0.3,0.1,0.4,0.2,0.6C101.3,50.7,101.1,50.8,101,50.9z
		 M104.2,24c0.1,0,0.1,0,0.1-0.1c0-0.1,0-0.2,0.1-0.3c0.2-0.1,0.2-0.4,0.4-0.5c0.2-0.2,0.4-0.3,0.6-0.5c0.2-0.2,0.3-0.3,0.3-0.6
		c0-0.2,0-0.2,0.2-0.3c0.3-0.1,0.3-0.3,0.3-0.7c0-0.1,0-0.1,0-0.2c0.1-0.1,0.1-0.1,0.2-0.2c-0.1-0.1-0.1-0.1-0.1-0.3
		c0-0.1,0.2-0.2,0-0.4c-0.1-0.1,0-0.2,0-0.4c0-0.1,0.2-0.2,0.1-0.4c0-0.1-0.2-0.2-0.2-0.3c0-0.1-0.2-0.2-0.1-0.3
		c0.1-0.3-0.1-0.4-0.3-0.5c-0.2-0.1-0.2-0.1-0.2-0.3c0-0.3,0-0.5-0.4-0.5c-0.1,0-0.2-0.1-0.3-0.3c-0.2-0.4-0.2-0.4-0.6-0.6
		c-0.1,0-0.3,0-0.2,0.2c0.1,0.2,0.2,0.5,0.1,0.7c-0.2,0.3,0.2,0.4,0.2,0.6c0,0.1-0.1,0.1-0.1,0.1c0,0.2-0.1,0.4,0.1,0.6
		c0.1,0.1,0.1,0.2,0,0.3c-0.2,0.1,0,0.4-0.2,0.5c-0.2,0.2,0.1,0.3,0.1,0.5c0,0.1,0,0.2,0,0.3c-0.1,0.1-0.1,0.3,0,0.4
		c0.1,0.2,0.1,0.4-0.1,0.5c-0.2,0.1-0.3,0.3-0.1,0.5c0.1,0.1,0,0.2-0.1,0.3c-0.1,0.1-0.1,0.1-0.1,0.2c0.1,0.3,0,0.6-0.2,0.9
		c0,0.1-0.1,0.1,0,0.2c0.1,0.1,0.2,0.3,0.2,0.5C104,23.9,104.1,23.9,104.2,24z"/>
	<path d="M95.2,4.3c-0.1,0.3-0.1,0.6-0.2,0.8c-0.1,0.2-0.1,0.3,0,0.4c0.1,0.1,0.1,0.2,0,0.3c-0.1,0.2-0.3,0.4,0,0.6
		c0.1,0,0.1,0.1,0,0.2c-0.2,0.1-0.3,0.4-0.4,0.6c0,0.2-0.1,0.3-0.3,0.4c-0.2,0.1-0.3,0.3-0.3,0.5c0,0.1,0,0.1-0.1,0.1
		c-0.6,0.2-0.6,0.6-0.5,1.1c0,0.1,0.1,0.2-0.1,0.2c-0.1,0-0.3,0.1-0.3-0.1c0-0.1,0-0.2-0.1-0.2c-0.1,0-0.1,0.1-0.2,0.1
		c0,0-0.1,0.1-0.1,0.2c-0.1,0.1-0.2,0.1-0.3,0.2c-0.2,0.2-0.3,0-0.3-0.1c-0.2-0.2-0.3,0-0.4,0c-0.2,0.1-0.3,0.4-0.5,0.2
		c-0.1-0.1-0.5,0.1-0.4-0.3c-0.5-0.1-0.8-0.5-1.2-0.7c-0.2-0.1-0.5-0.1-0.5-0.3c0-0.2-0.3-0.3,0-0.5c-0.2-0.2,0-0.5-0.3-0.7
		c-0.2-0.1-0.2-0.4-0.2-0.7c0-0.2,0-0.5-0.2-0.6c-0.1-0.1-0.1-0.3,0-0.5c0.1-0.1,0.1-0.2,0-0.3c-0.1-0.1-0.1-0.2,0-0.3
		c0.1-0.1,0-0.2-0.1-0.3c-0.1-0.1,0.2-0.1,0.1-0.3c-0.1-0.1-0.1-0.2,0-0.4c0.2-0.3,0.2-0.3,0-0.7c-0.1-0.2-0.1-0.3,0-0.4
		c0.2-0.2,0.2-0.5,0.1-0.6c-0.1-0.2,0-0.2,0.1-0.3c0.2-0.1,0.5-0.2,0.4-0.5c0.3-0.1,0.4-0.6,0.9-0.5c0.1-0.1,0.3-0.1,0.5-0.4
		c0.1-0.3,0.5-0.3,0.8-0.3c0.1,0,0.3,0,0.5,0c0.1,0,0.3,0,0.4-0.1c0.1-0.1,0.1-0.1,0.2,0c0,0.2,0.3,0.2,0.2,0.4
		c0,0.1,0.1,0.1,0.1,0.1c0.2,0,0.3,0.1,0.5,0.2c0.2,0.1,0.4,0.2,0.5,0.4c0.1,0.1,0.2,0.1,0.2,0C93.9,0.7,94,1,94.2,1.1
		c0.3,0,0.4,0.4,0.7,0.5c0.1,0,0.1,0.2,0,0.3c-0.1,0.2-0.1,0.4,0.1,0.6c0.1,0,0.1,0.1,0,0.2c-0.1,0.3-0.1,0.6,0.1,0.9
		c0.1,0.1,0.2,0.2,0,0.3C95,4,95.1,4,95.1,4.1C95.2,4.2,95.3,4.2,95.2,4.3z"/>
	<path d="M84.8,14.9c-0.1,0-0.2,0.1-0.3,0.1c-0.2,0.2-0.5,0-0.7,0.2c0,0-0.2,0-0.2-0.1c0-0.2-0.2-0.2-0.3-0.1
		c-0.1,0.1-0.2,0.2-0.3,0.3c-0.1,0.1-0.1,0.1-0.2,0c-0.1-0.1-0.3-0.1-0.4,0c-0.1,0.1-0.2,0-0.2-0.1c-0.1-0.1-0.1-0.4-0.4-0.3
		c-0.1,0-0.2-0.1-0.2-0.3c0-0.1,0-0.2,0-0.2c-0.1-0.2-0.3-0.4-0.4-0.6c-0.1-0.2,0-0.5-0.2-0.7c-0.1-0.1-0.3-0.2-0.1-0.4
		c0,0,0-0.1,0-0.1c0,0-0.1-0.1-0.1-0.1c-0.1-0.4-0.2-0.8-0.2-1.3c0-0.1,0.1-0.1,0.2-0.2c0.1-0.1,0.2-0.2,0.2-0.4
		c0-0.2,0-0.4,0.3-0.4c0.1,0,0.1-0.1,0.2-0.2c0.1-0.1,0.1-0.3,0.2-0.4c0.1-0.2,0.2,0.1,0.3-0.1c0.1-0.2,0.4-0.3,0.7-0.3
		c0.2,0,0.2-0.1,0.3-0.2c0.1-0.2,0.3-0.2,0.5-0.2c0.1,0.1,0.3,0,0.4,0c0.3,0,0.5,0,0.8,0.2c0.1,0.1,0.1,0,0.2,0
		c0.2-0.1,0.4,0,0.6,0.3c0.1,0.2,0.3,0.4,0.5,0.6c-0.1,0.3,0.3,0.4,0.3,0.7c0,0.1,0.2,0.2,0.3,0.3c0.2,0.2,0.3,0.4,0.3,0.7
		c0,0.2-0.1,0.4,0.1,0.6c0,0,0,0.1,0,0.1c-0.4,0-0.1,0.6-0.5,0.6c-0.2,0.3-0.2,0.6-0.2,0.9c0,0.1,0.1,0.1,0,0.2
		c-0.2,0.2-0.4,0.4-0.5,0.6c-0.1,0.1-0.3,0.2-0.5,0.3C84.9,15,84.9,15,84.8,14.9z"/>
</g>
</svg>
