<?xml version="1.0" encoding="utf-8"?>
<!-- Generator: Adobe Illustrator 27.7.0, SVG Export Plug-In . SVG Version: 6.00 Build 0)  -->
<svg version="1.1" id="Ebene_1" xmlns="http://www.w3.org/2000/svg" xmlns:xlink="http://www.w3.org/1999/xlink" x="0px" y="0px"
	 viewBox="0 0 110.5 75.5" style="enable-background:new 0 0 110.5 75.5;" xml:space="preserve">
<g>
	<path d="M61.2,58.4c0,0.2,0,0.4,0,0.6c0,0.2,0,0.4-0.1,0.7c0.3,0.2,0,0.4-0.1,0.5c0,0.1,0,0.1,0,0.1c0.1,0.2,0.2,0.3,0.3,0.5
		c0,0.1,0,0.1,0,0.2c-0.2,0.2-0.2,0.3-0.1,0.6c0,0.1,0.1,0.1,0,0.2c-0.2,0.2,0,0.3,0,0.4c0,0.3,0,0.5-0.1,0.8
		c-0.1,0.1-0.2,0.2-0.1,0.2c0.1,0.1,0.1,0.2,0,0.2c-0.2,0.1-0.3,0.1-0.3,0.4c0,0.2-0.2,0.2-0.4,0.2c-0.1-0.1-0.2-0.1-0.3,0
		c-0.2,0.2-0.2,0.2-0.5-0.1c-0.1,0.2-0.2,0.3-0.3,0.5c-0.1-0.1-0.2-0.2-0.3-0.3c-0.2-0.2-0.4-0.2-0.6,0.1c-0.1,0.2-0.2,0.2-0.4,0
		c-0.1-0.1-0.2-0.1-0.4-0.1c-0.2,0.1-0.3,0.2-0.4,0.3c-0.2,0-0.2-0.1-0.2-0.2c-0.1-0.1-0.2-0.3-0.4-0.3c-0.1,0-0.4,0-0.3-0.3
		c0-0.2-0.2-0.3-0.3-0.3c-0.3-0.1-0.2-0.3-0.1-0.4c0.1-0.1,0.1-0.3,0.2-0.5c0.1-0.2,0-0.3,0-0.4c-0.1-0.1-0.1-0.2,0-0.3
		c0.1-0.1-0.2-0.3-0.1-0.3c0.2-0.2,0-0.4-0.1-0.5c-0.1-0.2-0.1-0.3,0-0.4c0,0,0.2-0.1,0.1-0.2c-0.1-0.1-0.1-0.3-0.3-0.3
		c-0.1,0-0.1,0-0.2,0.1c-0.2,0.3-0.2,0.3-0.5,0.2c-0.1,0-0.2-0.1-0.3,0c0,0-0.1,0-0.1,0.1c-0.1-0.3-0.5-0.2-0.6-0.4
		c-0.3-0.3-0.6-0.4-1-0.4c-0.1,0-0.2,0-0.2-0.2c0-0.1-0.2-0.4-0.5-0.2c-0.1,0-0.1,0-0.1-0.1c-0.2-0.1-0.3-0.3-0.5-0.3
		c-0.1,0-0.1,0-0.2-0.1c-0.2-0.2-0.4-0.3-0.6-0.2c-0.1,0-0.2,0-0.2-0.2c0-0.1-0.1-0.2-0.1-0.2c-0.4,0.1-0.4-0.3-0.7-0.4
		c-0.1,0-0.2-0.2-0.3,0c0,0.1-0.1,0-0.2-0.1c-0.1-0.1-0.2,0-0.3-0.1c-0.1-0.1-0.2,0-0.2,0c-0.1-0.1-0.2-0.1-0.2-0.2
		c-0.2-0.3-0.5-0.5-0.9-0.5c-0.2,0-0.2-0.4-0.5-0.3c-0.1-0.1-0.2-0.1-0.3,0c-0.1,0.1-0.3,0.1-0.3-0.2c0,0-0.2-0.1-0.2-0.1
		c-0.1-0.1-0.2-0.1-0.1-0.2c0.1-0.1,0.2-0.2,0-0.2c-0.3,0-0.5-0.1-0.6-0.4c-0.2-0.2-0.4-0.2-0.6-0.4c-0.1-0.1-0.4,0.1-0.4-0.2
		c-0.2,0-0.5,0-0.6-0.3c-0.4,0.3-0.4-0.1-0.5-0.3c-0.1-0.1-0.7-0.5-0.9-0.5c-0.2,0-0.4,0-0.4-0.3c0,0,0,0-0.1-0.1
		c-0.2,0.2-0.3,0-0.4-0.1c-0.3-0.3-0.3-0.3-1-0.5c-0.2-0.1-0.4-0.2-0.3-0.4c0-0.2-0.3-0.3,0-0.5c0,0,0-0.1-0.1-0.1
		c-0.3,0-0.3-0.3-0.3-0.5c0-0.1,0-0.3-0.1-0.4c-0.1-0.1-0.1-0.2,0-0.3c0,0,0.1-0.1,0.1-0.2c0-0.2-0.2-0.3-0.1-0.6
		c0-0.2,0.1-0.3,0-0.5c-0.1-0.2-0.1-0.3,0-0.5c0.1-0.1,0.1-0.2,0-0.3c-0.1-0.2-0.1-0.3,0.2-0.4c0.1,0,0.2-0.2,0.1-0.3
		c0.2-0.1,0-0.4,0.3-0.5c0.1-0.1,0.1-0.2,0.1-0.3c0-0.2,0.2-0.4,0.4-0.4c0.2,0,0.3-0.1,0.4-0.2c0.2-0.1,0.5-0.2,0.8-0.2
		c0.2,0,0.3,0,0.4-0.2c0-0.1,0.2-0.1,0.2-0.1c0.1-0.2,0.3,0,0.4-0.2c0.1-0.1,0.2-0.3,0.3-0.4c0.1-0.1,0.2-0.3,0.4-0.1
		c0.1-0.2,0.4-0.1,0.5-0.2c0.1-0.2,0.4-0.3,0.6-0.2c0.1,0,0.2,0,0.3-0.1c0.3-0.2,0.6-0.3,0.9-0.4c-0.1-0.2-0.4,0-0.4-0.3
		c0-0.1-0.1-0.1-0.2-0.1c-0.1,0-0.2-0.2-0.4-0.1c-0.1,0.1-0.1-0.2-0.2-0.2c0,0-0.1-0.1-0.1-0.1c-0.3,0-0.6-0.1-0.7-0.4
		c0-0.1-0.1-0.1-0.2,0c-0.2,0.1-0.4-0.1-0.6-0.2c-0.1,0-0.4-0.1-0.4-0.4c0,0-0.1-0.1-0.1-0.1c-0.4,0-0.7,0-0.9-0.3
		c-0.1-0.1-0.1,0.2-0.2,0c-0.1-0.1-0.2-0.2-0.2-0.2c-0.4,0-0.3-0.4-0.5-0.5c0,0,0,0,0-0.1c0,0,0.1-0.9,0.1-1c0,0,0-0.1,0-0.1
		c-0.1-0.1-0.1-0.2,0.1-0.2c0.2-0.1,0.4-0.2,0.1-0.4c-0.1-0.1,0-0.1,0.1-0.2c0.1-0.1,0.2-0.1,0.2-0.1c0-0.3,0.1-0.5,0.3-0.7
		c-0.1-0.4,0.2-0.6,0.3-0.9c0,0,0-0.1,0.1-0.2c0.3-0.1,0.6,0.1,0.9-0.1c0.1,0,0.2,0,0.3,0.1c0.2,0.2,0.4,0.2,0.7,0.3
		c0.3,0.1,0.7,0,0.9,0.4c0.1,0.2,0.3,0,0.4,0.1c0.1,0.3,0.4,0.4,0.6,0.4c0.2,0,0.1,0.4,0.4,0.3c0.2-0.1,0.2-0.3,0.4-0.4
		c0,0,0-0.1,0-0.1c0.2-0.1,0-0.3-0.1-0.3c-0.4,0-0.5-0.3-0.6-0.5c-0.1-0.2-0.3-0.3-0.5-0.3c-0.1,0-0.2,0-0.2-0.2c0-0.1,0-0.2,0-0.2
		c-0.1-0.1-0.1-0.1,0.1-0.2c0.2-0.1,0.1-0.4,0-0.6c-0.2-0.2-0.2-0.5-0.3-0.7c-0.1-0.2-0.2-0.5-0.4-0.7c-0.1-0.1-0.2-0.3-0.2-0.5
		c-0.1-0.2-0.1-0.4-0.1-0.6c-0.4,0-0.1-0.3-0.2-0.4c-0.2-0.2,0-0.4-0.2-0.6c-0.1-0.1-0.1-0.3,0.2-0.3c0.2,0,0.4-0.1,0.4-0.4
		c0,0,0.1-0.1,0.1-0.1c0.4,0,0.7-0.3,1-0.2c0.1,0,0.2-0.1,0.2-0.1c0.1-0.1,0.3-0.2,0.4-0.2c0.3,0,0.4-0.1,0.6-0.3
		c0.1-0.1,0.1-0.1,0.2-0.1c0.1,0,0.3,0,0.4,0c0.2,0,0.4,0,0.5-0.2c0.2-0.4,0.5-0.4,0.8-0.5c0.1,0,0.2,0,0.3-0.2
		c0-0.2,0.2-0.2,0.4-0.2c0.3,0,0.6,0,0.8-0.2c0,0,0.1,0,0.2,0c-0.3-0.2-0.3-0.6-0.7-0.7c0-0.3-0.3-0.4-0.3-0.6
		c0-0.3-0.2-0.2-0.3-0.3c0-0.2,0-0.3,0-0.5c0-0.1,0-0.1-0.1-0.1c-0.2,0-0.2-0.1-0.3-0.2c0.1-0.1,0.1-0.2,0-0.3
		c-0.1-0.2-0.1-0.4-0.3-0.4c-0.2-0.1-0.1-0.4-0.2-0.5c-0.1-0.1,0.1-0.2,0.1-0.2c0-0.1-0.2,0-0.3-0.1c0,0-0.1-0.1-0.1-0.1
		c0.1-0.3-0.4-0.3-0.2-0.6c-0.2-0.2-0.1-0.4-0.2-0.7c-0.1,0-0.1,0-0.2,0c-0.2,0-0.3-0.1-0.2-0.3c0.1-0.1,0.1-0.2,0-0.3
		c-0.2-0.1-0.1-0.4-0.4-0.4c0-0.4-0.3-0.7-0.4-1c0-0.1-0.1-0.2,0.2-0.3c0.2-0.1,0.2-0.5,0.6-0.5c0-0.1,0.1-0.3-0.1-0.3
		c-0.2,0-0.2-0.2-0.3-0.2c-0.1-0.1-0.1-0.1-0.1-0.2c0-0.6,0-0.7-0.3-1.1c-0.1-0.2,0-0.3-0.1-0.5c0-0.1,0-0.2,0-0.4
		c0-0.2,0.2-0.1,0.3-0.2c0-0.1,0.1-0.1,0.1-0.2c0-0.1,0.1-0.2,0.3-0.2c0.2,0,0.4,0,0.5-0.3c0-0.1,0.1-0.1,0.2-0.1
		c0.2,0.1,0.5-0.3,0.7,0c0.1-0.2,0.4-0.2,0.6-0.3c0.1,0,0.3-0.2,0.4-0.2c0.2-0.1,0.2-0.4,0.5-0.2c0,0,0.1-0.1,0.2-0.2
		c0.2-0.1,0.4-0.2,0.6-0.2c0.4,0,0.7-0.2,1-0.3c0.3-0.2,0.6-0.3,0.8-0.5c0.2-0.1,0.3-0.3,0.6-0.1c0.1,0.1,0.1-0.1,0.2-0.1
		c0.2,0,0.3-0.3,0.5-0.1c0.1,0.1,0.1,0,0.1-0.1c0-0.1,0.2-0.2,0.1-0.3c0,0,0.1-0.1,0.1-0.1c0.3,0.3,0.6,0,0.9-0.2
		c0.2-0.1,0.4-0.2,0.7-0.2c0.2,0,0.3,0,0.5-0.2c0.2-0.2,0.4-0.2,0.6-0.4c0.1-0.1,0.1,0,0.2,0c0.3,0.1,0.5,0.1,0.7-0.1
		c0.2-0.1,0.4-0.4,0.7-0.3c0,0,0.1,0,0.1,0c0.1-0.3,0.3-0.2,0.5-0.1c0.1,0,0.2,0.1,0.2,0c0.1-0.3,0.5-0.2,0.6-0.4
		c0.1-0.1,0.2-0.1,0.3,0c0.1,0.1,0.2,0.2,0.4,0.1c0.1-0.1,0.4,0.1,0.5-0.1c0,0,0.1,0,0.2,0c0.1,0.1,0.2,0.1,0,0.3
		c0.1,0.1,0.1,0.2,0.2,0.2c0.2,0,0.2,0.2,0.1,0.3c0,0.2,0.1,0.3,0.1,0.5c0,0.2,0.1,0.3,0.1,0.4c0,0.1,0.1,0.1,0,0.2
		c-0.4,0.4,0.2,0.7,0,1c0.1-0.1,0.2-0.1,0.2-0.3c0-0.1,0-0.1,0.1-0.1c0,0,0,0,0.1,0c0.2,0.2,0.5-0.1,0.7,0c0.1,0,0.2,0.1,0.3,0.1
		c0.1,0.2,0.3,0,0.5,0.2c0.2,0.2,0.3,0.5,0.5,0.6c0.1,0.1,0,0.3,0,0.5c0,0.2-0.1,0.4,0.2,0.4c0.1,0.3,0.4,0.5,0.4,0.9
		c0,0.1,0.3,0.5,0.4,0.5c0.1,0.1,0.2,0.2,0.1,0.4c0,0,0,0.2,0,0.2c0.3,0,0.2,0.3,0.3,0.5c0.1,0.2,0.3,0.3,0.4,0.4
		c0,0.2,0.1,0.3,0.3,0.5c0.1,0.1,0,0.3,0.1,0.5c0.1,0.2,0.1,0.5,0.3,0.6c0,0,0,0,0,0c0.1,0.2,0.1,0.4,0.2,0.5c0.3,0,0.1,0.3,0.2,0.4
		c0.1,0.1,0.1,0.1,0.1,0.2c-0.1,0.3,0.1,0.6,0.3,0.8c0.2,0.2,0.4,0.3,0.3,0.6c-0.1,0.2,0.2,0.3,0,0.4c0.2,0.2,0.4,0.4,0.6,0.5
		c0.1,0.1,0.2,0.1,0.2,0.2c0,0.1,0,0.2,0,0.4c0,0.2,0,0.3,0.2,0.4c0.1,0.1,0.2,0.2,0.2,0.3c0,0.1-0.2,0.3-0.1,0.4
		c0.1,0.2,0,0.3-0.1,0.4c-0.1,0.1-0.1,0.4,0,0.5c0.1,0.2,0.1,0.3-0.1,0.5c-0.2,0.2-0.2,0.3-0.1,0.5c0,0.1,0.1,0.1,0,0.2
		c-0.3,0.1-0.5,0.3-0.7,0.5c-0.1,0.1-0.1,0.2,0,0.2c0.1,0,0.2,0.1,0.2,0.2c0.1,0.1,0,0.2,0.1,0.3c0.1-0.2,0.3,0,0.4-0.2
		c0.2-0.2,0.2,0,0.3,0.1c0.1,0.1,0.1,0.3,0.4,0.3c0.3,0,0.4,0.3,0.5,0.5c0.1,0.1,0,0.3,0.2,0.2c0.2,0,0.5,0.1,0.7-0.1
		c0.3-0.3,0.3-0.4,0.6-0.2c0.3,0.1,0.5,0.1,0.6-0.1c0.2-0.2,0.3-0.1,0.4,0c0.3,0.2,0.7,0.4,0.7,0.8c0,0.1,0.1,0.1,0.2,0.1
		c0.2,0,0.5-0.1,0.6,0.3c0,0.1,0.2,0,0.4,0.1c0.3,0.3,0.3,0.3,0.6,0.3c0.4,0,0.8,0,1.2-0.1c0.1,0,0.2,0,0.2-0.1
		c0.1-0.3,0.3-0.3,0.5-0.3c0.3,0,0.6,0,0.7-0.4c0-0.1,0.1,0,0.2,0c0.2,0,0.3,0.3,0.5,0.1c0.1-0.1,0.3-0.2,0.4-0.4
		c0-0.1,0.2-0.2,0.4-0.1c0.3,0.2,0.6,0.2,0.8-0.1c0.1-0.2,0.2-0.2,0.4-0.3c0.2-0.1,0.3-0.1,0.5-0.2c0.1,0,0.2-0.2,0.3-0.3
		c0,0,0.1,0,0.1,0c0.1,0.1,0.3-0.1,0.4,0c0.3,0.2,0.5,0,0.6-0.2c0.1-0.3,0.3-0.3,0.4-0.4c0.2-0.1,0.4-0.1,0.6,0c0.2,0.1,0.3,0,0.4,0
		c0.4-0.1,0.6-0.5,1-0.5c0.1,0,0.1-0.1,0.2-0.1c0.4,0.1,0.7-0.1,1.1-0.1c-0.1-0.3,0.1-0.6-0.1-0.9c-0.1-0.2,0.1-0.4,0.1-0.5
		c0.1-0.2-0.1-0.4,0.1-0.6c-0.1-0.1-0.2-0.2-0.3-0.3c0,0-0.1-0.1-0.1-0.1c-0.1,0.1-0.2,0.2-0.2,0.2c-0.1,0-0.2-0.1-0.4-0.1
		c-0.1,0-0.1-0.1-0.1-0.1c0-0.3-0.1-0.4-0.4-0.2c-0.2,0.1-0.4,0-0.5-0.2c0-0.1,0-0.1-0.1-0.1c-0.3-0.1-0.3-0.1-0.4-0.3c0,0,0,0,0,0
		c0,0-0.1,0.1-0.1,0.1c-0.1,0.1-0.2,0.2-0.3,0c-0.1-0.1-0.1-0.3-0.3-0.1c-0.1,0.1-0.1,0-0.1-0.1c0-0.2,0-0.2-0.2-0.1
		c0,0-0.1,0-0.1,0c-0.1,0,0-0.2-0.1-0.2c-0.1,0-0.1,0.1-0.2,0.2c-0.1,0-0.2,0-0.2-0.1c0-0.4,0-0.7-0.2-1c0.2-0.3,0-0.5-0.1-0.7
		c0-0.1-0.1-0.3,0.2-0.3c0.1,0,0.1-0.1,0.2-0.2c0.1-0.1,0.1-0.2,0-0.3c-0.1-0.2-0.1-0.4,0.1-0.5c0.1-0.1,0-0.1,0.2-0.2
		c0.2-0.1,0.4-0.3,0.4-0.6c0-0.3,0-0.4,0.2-0.6c0.1-0.1,0.1-0.2,0-0.3c-0.1-0.1,0-0.3,0.1-0.4c0.2-0.1,0.3-0.3,0.2-0.5
		c0,0,0.3-0.8,0.4-0.8c0.3-0.1,0.4-0.3,0.3-0.6c0-0.1,0-0.2,0.1-0.2c0.1-0.1,0.3-0.1,0.3-0.3c0-0.2,0.1-0.5-0.1-0.7
		c-0.1-0.1-0.1-0.2,0.1-0.2c0.2,0,0.3,0,0.2-0.2c0-0.1,0-0.1,0-0.2c-0.1-0.3,0.1-0.3,0.3-0.4c0.1-0.1,0.2-0.1,0.2-0.3
		c-0.1-0.2,0.1-0.4,0.1-0.6c0-0.1,0-0.1,0.1-0.1c0.4,0,0.5-0.3,0.5-0.6c0-0.2,0.1-0.2,0.2-0.2c0.4-0.1,0.7-0.4,0.8-0.9
		c0-0.3,0.2-0.4,0.4-0.6l0.6-0.5c0-0.1,0.2-0.1,0.2-0.1c0.2,0.2,0.3,0,0.3-0.1c-0.1-0.5,0.3-0.6,0.6-0.8c0.1-0.1,0.3-0.2,0.4-0.3
		c0.1-0.1,0.3-0.2,0.4,0c0.1,0.1,0.2,0,0.3-0.1c0.1-0.2,0.3-0.4,0.4-0.7c0.1-0.2,0.1-0.4,0.4-0.2c0,0,0.1,0,0.2,0
		c0.1-0.1,0.3-0.1,0.4-0.3c0.1-0.1,0.2,0.2,0.3-0.1c0-0.1,0.1-0.1,0.1-0.1c0.5,0.1,0.6-0.3,0.7-0.6c0-0.1,0.1-0.2,0.3-0.1
		c0.1,0.1,0.3-0.2,0.5-0.1c0.3-0.2,0.7-0.2,1-0.5c0-0.1,0.1-0.2,0.3-0.1c0.1,0.1,0.2-0.1,0.2-0.2c0.2-0.1,0.2,0.1,0.4,0.1
		c0.1,0,0.2,0.1,0.3,0c0.1-0.1,0.1-0.1,0.2-0.1c0.2,0,0.2-0.2,0.1-0.3c-0.1-0.1-0.2-0.2-0.3-0.3c0,0-0.2-0.1,0-0.2
		c0.1-0.1,0.1-0.1,0.2,0c0.1,0.1,0.1,0,0.2,0c0,0-0.1-0.1-0.1-0.1c0-0.1-0.1-0.1-0.2-0.1c-0.3,0-0.5-0.1-0.4-0.5c0,0,0-0.1,0-0.1
		c-0.2-0.2-0.4-0.2-0.4-0.6c0-0.2-0.2-0.4-0.4-0.5c-0.1-0.1-0.1-0.2,0-0.3c0.2-0.1,0.2-0.2,0-0.4c-0.1-0.1-0.2-0.2,0-0.3
		c0.1-0.1,0-0.3-0.1-0.4c-0.1-0.1-0.2-0.2,0-0.3c0.1-0.1,0-0.1,0-0.2c0-0.3-0.1-0.6,0.1-0.9c0.1-0.1,0.1-0.3,0-0.4
		c-0.2-0.3-0.1-0.5,0-0.7c0.1-0.1,0.1-0.2,0.1-0.4c0-0.1,0-0.2,0.1-0.3c0.1-0.1,0.3-0.2,0.3-0.4c0-0.2,0.4-0.1,0.2-0.4
		c0-0.1,0.1-0.1,0.2-0.1c0.1,0,0.2,0,0.2-0.1c0.1-0.1,0.4-0.2,0.6-0.1c0.1,0,0.1,0,0.2-0.1c0.1-0.1,0.1-0.2,0.2-0.3
		c0.1,0.1,0.2,0.2,0.3,0.2c0.2-0.1,0.4,0.1,0.6,0c0.2-0.1,0.2-0.1,0.3,0c0.1,0.1,0.2,0.1,0.2,0.1c0.1,0.1,0.1,0.1,0.2,0
		c0.1-0.2,0.2-0.2,0.4,0c0.1,0.1,0.3-0.1,0.4-0.2c0.1,0,0.1,0,0.1,0c0.2,0.3,0.3,0.7,0.7,0.8c0.1,0,0.2,0.1,0.2,0.3
		c0,0.2,0.1,0.4,0.4,0.4c0.1,0,0.1,0.1,0.1,0.1c0,0.1,0,0.2,0,0.3c-0.1,0.2-0.2,0.4,0.1,0.5c0.1,0.1,0,0.3,0.1,0.5
		c0.1,0.1,0.2,0.2,0.1,0.4c0,0,0,0.1,0.1,0.2c0.2,0.1,0.3,0.2,0.2,0.4c0,0-0.1,0.1-0.1,0.1c0.2,0.2,0.1,0.4,0,0.6
		c0,0,0.1,0.1,0.1,0.1c0.1,0.1,0.2,0.2,0.3,0.4c-0.2,0.1,0,0.3-0.2,0.4c-0.1,0.1-0.1,0.2,0,0.3c0.2,0.1,0.2,0.3,0.1,0.5
		c-0.2,0.2-0.2,0.6-0.4,0.8c-0.1,0.1-0.1,0.3-0.1,0.4c0,0.2,0.2,0.1,0.2,0.1c0.1,0.2,0.2,0,0.2-0.1c0.1-0.1,0.2-0.2,0.2-0.1
		c0.3,0.3,0.6,0,0.8-0.1c0.3-0.2,0.6-0.2,0.9-0.2c0.2,0,0.4,0,0.5,0c0.3,0,0.5,0.1,0.6,0.4c0,0.1,0.1,0.1,0.1,0c0.1-0.1,0.2,0,0.3,0
		c0.1,0,0.3,0,0.3,0.2c0,0.2,0.1,0.3,0.3,0.3c0.2,0,0.3,0.2,0.5,0.1c0.2,0,0.3,0.1,0.3,0.2c0,0.3,0.2,0.2,0.3,0.3
		c0.1,0.1,0.4,0,0.3,0.3c-0.1,0.3-0.1,0.3,0.2,0.4c0.3,0.1,0.6,0.2,0.8,0.4c0.1,0.1,0.1,0.3,0.2,0.3c0,0.3,0.1,0.6,0.3,0.8
		c0.1,0.2,0.1,0.5,0.2,0.7c0,0.4,0.2,0.6,0.5,0.8c0.3,0.2,0.3,0.2,0.2,0.5c0,0.1-0.1,0.3,0.2,0.3c0.1,0,0.1,0.3,0.2,0.4
		c0.3,0.2-0.1,0.4,0,0.6c0.1,0.2,0.4,0.3,0.4,0.5c0,0.2,0,0.3,0,0.5c0,0.1,0,0.1,0.1,0.2c0.3,0.3,0.3,0.3,0.3,0.6c0,0.1,0,0.1,0,0.2
		c0.5,0.1,0.3,0.4,0.3,0.7c0,0.1,0,0.2,0.1,0.3c0.3,0.2,0.3,0.5,0.2,0.8c-0.1,0.3,0,0.4,0,0.6c0,0.2,0,0.2-0.1,0.4
		c0,0.2,0.3,0.1,0.3,0.3c0,0.2,0,0.4-0.1,0.5c-0.2,0.3-0.1,0.4,0.1,0.5c0.1,0.1,0.3,0.2,0.1,0.4c0,0,0,0,0,0
		c0.1,0.4,0.1,0.4-0.1,0.7c0.1,0.1,0.1,0.1,0.2,0.2c0.2,0.1,0.2,0.4,0.1,0.5c-0.2,0.2,0,0.4-0.2,0.6c-0.1,0,0,0.1,0.1,0.2
		c0.1,0.2,0.1,0.5-0.1,0.7c-0.1,0.1-0.1,0.2,0,0.2c0.2,0.1,0.2,0.3,0.2,0.5c0,0.3,0.2,0.5,0.1,0.8c0,0.1,0,0.2,0,0.2
		c-0.2,0.2-0.1,0.4,0,0.6c0.1,0.2,0.1,0.4,0,0.5c-0.1,0.1-0.1,0.4-0.1,0.4c0.2,0.2,0.1,0.4,0,0.6c-0.1,0.1,0,0.2,0,0.3
		c0,0.3,0.2,0.6-0.2,0.9c-0.1,0.1-0.1,0.3,0,0.4c0.2,0.2,0.1,0.4-0.1,0.5c-0.2,0.1-0.2,0.2-0.1,0.5c0.1,0.2,0,0.5,0.2,0.7
		c0,0,0,0,0,0.1c-0.1,0.1-0.2,0.1-0.3,0.2c-0.1,0.1,0.2,0.2,0.1,0.3c-0.1,0.1-0.2,0.2-0.2,0.3c0,0-0.1,0,0,0.1
		c0.1,0.2,0.2,0.7,0.1,0.9c-0.1,0.2-0.1,0.5-0.1,0.7c0,0,0,0.1,0,0.1c-0.3,0.1-0.2,0.2-0.1,0.5c0.1,0.3,0.2,0.6-0.1,0.9
		c-0.1,0.1-0.1,0.1-0.1,0.2c0,0.3-0.1,0.5-0.3,0.8c-0.1,0.1-0.3,0.3-0.1,0.5c0.1,0.1,0,0.3-0.1,0.4c-0.2,0.2-0.4,0.3-0.1,0.6
		c0,0,0,0.1,0,0.1c0.1,0.2-0.3,0.2-0.2,0.4c0.1,0.2,0.1,0.3-0.1,0.5c-0.1,0.1-0.1,0.2,0,0.3c0.1,0.1,0.1,0.3,0,0.4
		c-0.1,0.2-0.1,0.3-0.1,0.5c0,0.1,0,0.1,0,0.2c0,0.2-0.6,0.1-0.2,0.4c-0.1,0.2-0.2,0.3-0.2,0.6c0,0.2,0,0.4,0,0.7
		c0,0.3,0,0.3-0.3,0.6c-0.1,0.1-0.1,0.2,0,0.3c0.1,0.2,0.2,0.3,0,0.5c0,0,0,0,0,0c0.3,0.1,0,0.3,0.1,0.4c0.1,0.1,0,0.2,0.1,0.3
		c0,0.1,0,0.1-0.1,0.1c-0.2,0-0.2,0.1-0.3,0.2c0.2,0.1,0,0.4,0.2,0.5c0.1,0.2,0.1,0.4,0.1,0.5c-0.2,0.3,0,0.6-0.2,0.8
		c0,0-0.2,0.4,0.2,0.4c0.1,0,0.1,0.2,0,0.3c-0.1,0.1-0.1,0.3-0.1,0.4c0.1,0.3,0.1,0.6-0.1,0.8c0,0,0,0.1,0,0.2
		c0,0.1,0.2,0.1,0.2,0.3c0,0.1-0.1,0.2,0,0.2c0.1,0.1,0.1,0.2,0,0.3c-0.1,0.1,0.2,0.2,0.2,0.4c0,0.1-0.2,0.2-0.2,0.3
		c0,0,0,0.1,0,0.1c0.4,0,0.1,0.3,0.2,0.4c-0.3,0.1,0,0.3-0.1,0.4c-0.1,0.2,0,0.3,0,0.4c0.1,0.2-0.2,0.2-0.2,0.4c0,0,0.1,0.1,0.1,0.1
		c0.1,0.1,0.3,0.3,0.4,0.4c-0.2,0.1-0.1,0.2,0,0.4c0.1,0.1-0.1,0.2-0.1,0.4c0,0.1,0.1,0.2,0.2,0.3c0,0,0,0.1,0,0.1
		c-0.2,0.1,0.1,0.3,0,0.5c-0.2,0.3,0,0.5,0.1,0.7c0,0,0.2,0,0.2,0.2c-0.1,0.3,0,0.6,0.3,0.8c0.1,0.1-0.2,0.1,0,0.2
		c0.1,0.1,0.2,0.1,0.2,0.2c-0.1,0.1,0,0.2,0,0.2c0.1,0.1,0.4,0.2,0.1,0.5c-0.1,0.1,0.2,0.2,0.1,0.3c-0.2,0.2,0,0.2,0.1,0.3
		c0,0,0.1,0.1,0.1,0.1c0,0.4,0,0.7,0.3,0.9c0,0,0,0,0,0.1c-0.2,0.3,0,0.6-0.2,0.8c-0.3,0.2-0.1,0.5-0.2,0.8
		c-0.2-0.1-0.2-0.2-0.3-0.4c-0.1,0.1-0.1,0.2-0.1,0.3c0,0.3,0,0.3-0.3,0.5c-0.2,0.1-0.2,0.4-0.5,0.4c0-0.2,0.1-0.3,0.1-0.4
		c0-0.1,0.2-0.3,0.1-0.4c0,0-0.1,0-0.1,0c-0.2,0.1,0,0.4-0.2,0.5c-0.1,0.1-0.3,0.2-0.3,0.4c0,0.2-0.1,0.1-0.2,0.1
		c-0.1-0.1-0.2-0.1-0.3-0.2c-0.3-0.1-0.6,0.1-0.7,0.4c0,0.1-0.1,0.1-0.2,0.2c-0.1-0.1-0.3-0.3-0.4-0.4c-0.3-0.3-0.7-0.4-1.1-0.4
		c-0.1,0-0.2,0-0.2,0c-0.1-0.1-0.1-0.2-0.1-0.2c0-0.2-0.1-0.2-0.1-0.4c0-0.2-0.5,0-0.2-0.4c-0.2-0.1-0.2-0.4-0.4-0.4
		c-0.1,0-0.1-0.1-0.1-0.2c0-0.3-0.1-0.5-0.2-0.8c-0.1-0.3-0.3-0.6-0.3-0.9c0-0.3-0.3-0.6-0.3-0.9c0-0.1-0.1-0.1-0.1-0.2
		c0,0-0.1,0-0.1,0c0.1,0.3-0.2,0-0.2,0.1c0,0.2-0.3,0.1-0.3,0.3c-0.1,0.2-0.2,0.3-0.4,0.1c0,0-0.2,0-0.3,0c-0.2,0.2-0.4,0.2-0.6,0.3
		c-0.2,0.1-0.3,0.1-0.6,0.1c-0.2,0-0.4-0.1-0.3,0.2c0,0.3-0.3,0.3-0.5,0.3c-0.6,0-0.9,0.3-1.3,0.8c-0.1-0.1-0.1-0.1-0.2-0.2
		c-0.2-0.1-0.4-0.1-0.5,0.1c-0.1,0.3-0.4,0.3-0.6,0.4c-0.1,0.1-0.3,0.3-0.4,0c-0.2,0-0.5-0.1-0.4,0.3c0,0.1-0.1,0.1-0.2,0.1
		c-0.3,0-0.6,0-0.8,0c-0.1,0-0.2,0-0.2,0.2c0,0.2-0.1,0.3-0.3,0.2c-0.1-0.1-0.4-0.1-0.5,0.2c-0.1,0.2-0.3,0.2-0.4,0.4
		c-0.1,0.2-0.4,0.1-0.5,0c-0.2-0.1-0.3,0.2-0.5,0c-0.1-0.1-0.3,0-0.4,0.1c-0.1,0.1-0.3,0.2-0.5,0.2c-0.2,0-0.4,0.2-0.6,0.3
		c-0.1,0-0.2,0.1-0.2,0.2c0.1,0.4-0.4,0.4-0.5,0.6c-0.1,0.1-0.2,0-0.2-0.1c-0.2,0-0.2-0.1-0.3-0.3c-0.2-0.4-0.3-0.4-0.8-0.2
		c-0.1,0-0.4,0.2-0.4-0.2c-0.2-0.1-0.4-0.1-0.7-0.2c-0.2-0.1-0.4-0.3-0.7-0.4c-0.2-0.1-0.5-0.2-0.8-0.3c-0.1,0-0.2,0-0.2-0.1
		c-0.2-0.4-0.5-0.4-0.9-0.3c-0.1,0-0.1,0-0.1-0.1c-0.1-0.2-0.3-0.3-0.4-0.4c0-0.1-0.1-0.1-0.2,0c-0.2,0.2-0.3,0-0.4-0.1
		c-0.1-0.1-0.2-0.2-0.3-0.3c-0.1-0.1-0.3,0-0.3,0.2c0,0,0,0.1,0,0.1c-0.2,0.6-0.3,0.7-0.1,1.3c0.1,0.2,0.1,0.4,0,0.5
		c-0.2,0.1-0.1,0.1-0.1,0.2c0,0.2,0.2,0.3,0.2,0.4c0,0,0.1,0.1,0.1,0.2c-0.1,0.3-0.2,0.6,0.1,0.9c0,0-0.1,0.2-0.1,0.3
		c-0.3,0.2-0.2,0.4-0.1,0.7c0,0,0,0,0,0.1c0.1,0.3,0.1,0.3-0.2,0.5c-0.1,0.1-0.1,0.2-0.1,0.2c0.3,0.2-0.1,0.4,0,0.6
		c0.1,0.1,0.2,0.3,0.3,0.5c0.1,0.1-0.1,0.2-0.1,0.2c-0.3,0-0.4,0.1-0.5,0.4c0,0.1-0.2,0.2-0.4,0.2c-0.3,0-0.4,0-0.8,0.1
		c-0.3,0.1-0.5,0.2-0.8,0c-0.2-0.1-0.6,0-0.8,0.2c-0.3,0.2-0.6,0.1-0.8,0.3c0,0-0.1,0-0.1,0c-0.2-0.1-0.4-0.3-0.6-0.4
		c0.1-0.3-0.2-0.3-0.3-0.4c-0.2-0.2-0.4-0.3-0.3-0.6c0.1-0.2-0.1-0.3-0.1-0.5c-0.1-0.2-0.2-0.3,0-0.5c0,0,0-0.1,0-0.1
		c-0.2-0.3,0-0.8-0.2-1c-0.2-0.3,0-0.5,0-0.8c0-0.1,0.1-0.1,0-0.2c-0.2-0.1-0.2-0.3-0.1-0.4c0.2-0.3,0.1-0.7-0.1-1
		c-0.1-0.2,0.2-0.2,0-0.4c-0.1-0.1-0.1-0.3,0-0.4c0.1-0.1,0-0.1,0-0.2c-0.2-0.1-0.2-0.3-0.1-0.5c0.1-0.1-0.1-0.4,0-0.5
		c0.2-0.2,0-0.3,0-0.4c0.1-0.2-0.1-0.3-0.1-0.5c0-0.2-0.2-0.2-0.2-0.1c-0.3,0.2-0.8,0.2-1,0.5c-0.1,0.1-0.2,0.1-0.4,0
		c-0.3-0.2-0.5-0.1-0.7,0.1c-0.2,0.2-0.4,0.5-0.7,0.4c-0.1,0.2-0.4,0.1-0.6,0.3C73.6,58.9,73.2,59,73,59c-0.3,0-0.3,0.2-0.4,0.3
		c-0.1,0.2-0.1,0.2-0.3,0.2c-0.4,0-0.6,0.1-0.9,0.3c-0.1,0.1-0.2,0.2-0.3,0.1c-0.4-0.1-0.6,0.2-0.8,0.4c0.1,0.2,0.2,0.3,0.2,0.4
		c0,0.2,0.1,0.4,0.2,0.6c0.1,0.1,0.1,0.2,0,0.3c-0.1,0.1-0.1,0.2,0,0.3c0.1,0.1,0,0.1-0.1,0.2c-0.1,0-0.1,0.1,0,0.2
		c0.5,0.2,0.2,0.4,0,0.6c-0.1,0.2-0.1,0.4-0.2,0.6c0,0.1,0,0.2,0.1,0.2c0.2,0.1,0.2,0.3,0.3,0.5c-0.2,0.1,0,0.3,0,0.4
		c0,0.2-0.2,0.3-0.1,0.4c0.1,0.2,0.1,0.2,0,0.4c-0.1,0.2-0.1,0.5,0.2,0.6c0.1,0.1,0,0.1,0,0.2c-0.2,0.1-0.2,0.2,0,0.4
		c0.1,0.1,0.1,0.4,0.2,0.5c0.1,0.1,0.1,0.2,0,0.3c-0.2,0.1-0.2,0.3-0.1,0.5c0,0.1,0.1,0.2,0.1,0.3c0,0.2,0.3,0.2,0.2,0.4
		c-0.1,0.1-0.2,0.2-0.2,0.4c-0.1,0.4-0.4,0.6-0.7,0.8c-0.1,0.1-0.2,0.1-0.3,0c-0.1,0-0.2,0-0.2,0.1c0,0.2,0,0.3-0.2,0.2
		c-0.1,0-0.2,0-0.3,0.1c-0.1,0.2-0.3,0.2-0.5,0c-0.1,0.1-0.1,0.4-0.4,0.4c-0.1,0-0.2,0.2-0.4,0.1c-0.1-0.1-0.2,0.1-0.4,0.1
		c-0.1,0-0.2,0-0.3,0.1c-0.1,0.1-0.2,0-0.2,0c-0.1-0.1-0.2-0.1-0.3,0c-0.1,0.1-0.2,0-0.3-0.1c-0.1-0.1-0.2-0.2-0.3-0.3
		c-0.1-0.1-0.1-0.1-0.2-0.2c-0.3-0.1-0.4-0.2-0.3-0.5c0.1-0.2,0-0.3,0-0.5c0-0.1-0.2-0.3,0-0.4c0,0,0-0.2,0-0.2
		c-0.3-0.2-0.1-0.5-0.1-0.7c0-0.1,0-0.2,0-0.4c0-0.1-0.2-0.1-0.1-0.2c-0.1-0.3-0.1-0.7,0.1-1c0.1-0.2-0.1-0.3-0.1-0.4
		c0-0.2,0.2-0.4-0.1-0.5c0,0,0-0.1,0-0.1c0.2-0.2,0.1-0.4,0.1-0.6c0-0.2,0.3-0.2,0.1-0.4c-0.1-0.1,0-0.3-0.2-0.4c0,0,0-0.1,0-0.1
		c-0.1-0.2,0.2-0.3,0.1-0.4c-0.1-0.1-0.1-0.3-0.1-0.4c0-0.2,0-0.3,0-0.5c0-0.2,0.3-0.3,0-0.5c0.3-0.4,0-0.8-0.2-1.1
		c-0.1-0.2-0.1-0.2,0-0.3c0.1-0.1,0.2-0.2,0-0.3c-0.1-0.1-0.2-0.2-0.1-0.4c0.1-0.1-0.1-0.3-0.2-0.2c-0.3,0-0.5,0-0.7-0.3
		c0,0-0.1-0.1-0.1-0.1c-0.4,0.1-0.7-0.2-1.1-0.4c0,0-0.1,0-0.1,0c-0.1,0,0.1,0.2-0.2,0.2c-0.3-0.1-0.3-0.3-0.6-0.4
		c0-0.4-0.3-0.2-0.5-0.2C61.4,58.4,61.3,58.4,61.2,58.4z M106.7,15.8c0.1-0.1,0-0.2-0.1-0.3c-0.1-0.1-0.1-0.1-0.1-0.2
		c0.1-0.4-0.1-0.9-0.1-1.3c0-0.2-0.1-0.3-0.2-0.4c-0.2-0.2-0.3-0.4-0.3-0.8c0-0.1,0-0.1-0.1-0.2c-0.2-0.1-0.3-0.4-0.5-0.6
		c-0.1-0.1-0.2-0.2-0.4,0c-0.1,0.1-0.1,0.2-0.2,0.1c-0.2,0-0.4,0.1-0.6,0.1c-0.1,0-0.3,0.2-0.4-0.1c0-0.1-0.1-0.1-0.1-0.1
		c-0.1,0.2-0.4,0-0.5,0.2c-0.1,0.1-0.3,0.3-0.5,0.1c-0.1,0.1-0.1,0.2-0.2,0.3c-0.1,0.1-0.2,0.2-0.3,0.3c-0.1,0.1,0.2,0.2,0,0.4
		c-0.1,0.2,0,0.4,0.1,0.6c0,0.2,0,0.5,0.2,0.6c0.2,0.2,0.1,0.5,0,0.7c0,0,0,0,0,0.1c0.2,0.2,0.2,0.5,0.1,0.6
		c-0.2,0.3,0.3,0.3,0.2,0.6c0,0,0.1,0.2,0,0.3c0,0.3-0.1,0.6,0.1,0.9c0.1,0.2,0.1,0.4,0,0.5c-0.2,0.2-0.1,0.4,0,0.5
		c0.1,0.1,0.1,0.3,0,0.3c-0.2,0.2,0,0.3,0,0.4c0,0.2-0.2,0.3-0.1,0.5c0,0.1-0.1,0.3,0.1,0.4c0.2,0.2,0.1,0.3-0.1,0.4
		c-0.1,0.1-0.1,0.1,0,0.2c0.1,0.1,0,0.2,0,0.3c0,0.2,0.1,0.5,0,0.7c-0.1,0.2,0,0.5-0.2,0.6c-0.2,0.2,0,0.4,0,0.6
		c0,0.3-0.3,0.5-0.1,0.8c0,0-0.1,0.1-0.1,0.1c-0.1,0.2-0.2,0.5-0.1,0.6c0.1,0.3,0.2,0.5,0,0.7c-0.2,0.2,0.2,0.5-0.1,0.7
		c0,0-0.1,0.1-0.1,0.1c-0.1,0.1-0.1,0.1,0,0.2c0,0,0.1,0.2,0,0.2c-0.2,0.2-0.2,0.5-0.1,0.7c0.2,0.3-0.3,0.4-0.1,0.6c0,0,0,0,0,0.1
		c-0.2,0.3,0,0.6-0.2,0.9c-0.2,0.3-0.1,0.7-0.4,0.9c0,0,0,0.1,0,0.1c0,0.3-0.1,0.7-0.2,0.9c-0.2,0.3-0.2,0.3,0,0.5
		c0.1,0.1,0.2,0.3,0.1,0.4c-0.1,0.1-0.1,0.2-0.1,0.3c0,0.2,0.2,0,0.3,0.1c0,0,0.1,0.1,0.1,0.1c0.3,0.2,0.6,0.3,0.9,0.2
		c0.1,0,0.3,0,0.4,0.1c0.1,0.1,0.2-0.2,0.4-0.1c0.1,0,0.2,0,0.2,0.2c0,0.1,0.1,0.2,0.3,0.2c0.3-0.1,0.6,0,0.8-0.3
		c0.2-0.2,0.5-0.3,0.4-0.6c0,0,0.1-0.1,0.1-0.1c0-0.1,0.1-0.1,0.1-0.2c0-0.3,0-0.6,0.2-0.8c0.1-0.1-0.1-0.4-0.1-0.5
		c0-0.2,0.3-0.3,0.2-0.5c0-0.2,0.1-0.4,0.1-0.6c0-0.2,0.2-0.3,0.1-0.5c0-0.2,0.1-0.4,0.1-0.6c0-0.2,0.2-0.2,0.1-0.4
		c-0.2-0.2,0.1-0.2,0.1-0.3c0-0.1,0-0.2,0-0.2c0-0.1-0.1-0.3,0.1-0.4c0.1-0.1,0-0.1,0-0.2c-0.2-0.2-0.1-0.3,0.1-0.5
		c0.1-0.1,0.3-0.2,0.2-0.3c-0.2-0.3-0.1-0.5,0.1-0.6c0,0,0-0.1,0-0.1c-0.1-0.1-0.1-0.2,0-0.3c0.1-0.1,0.2-0.3,0-0.4c0,0,0-0.1,0-0.1
		c-0.1-0.2,0.2-0.3,0.1-0.4c-0.1-0.2,0-0.3,0.1-0.4c0.1-0.1,0-0.1,0-0.1c-0.2-0.2,0.1-0.2,0.2-0.4c0-0.2-0.2-0.2-0.2-0.4
		c0-0.1,0.1-0.1,0.1-0.1c0.2-0.1,0.2-0.3,0.1-0.4c-0.2-0.2,0-0.4,0.1-0.6c0.1-0.1,0.1-0.2,0-0.2c-0.1-0.1,0.1-0.1,0.1-0.2
		c0-0.1-0.1-0.2-0.1-0.3c0-0.1,0.2-0.2,0.1-0.3c0-0.1-0.1-0.2-0.1-0.4c0-0.2,0-0.4,0.1-0.5c-0.2-0.2-0.1-0.4-0.1-0.6
		c0-0.2,0.2-0.4,0.1-0.6c-0.1-0.2,0.1-0.5-0.1-0.7c0.2-0.2,0-0.5,0-0.7C106.8,16.7,106.5,16.2,106.7,15.8z M59.1,18.5
		c-0.2,0.1-0.2,0.3-0.5,0.4c-0.2,0-0.4,0-0.5,0c-0.2,0-0.2,0.3-0.4,0.2c-0.2,0-0.3,0.1-0.3,0.2c0,0.3-0.2,0.2-0.3,0.2
		c-0.4-0.1-0.4-0.1-0.7,0.2c-0.1,0.2-0.3,0.4-0.6,0.3c-0.3-0.1-0.5,0-0.7,0.3c-0.1,0.2-0.3,0.2-0.5,0.2c-0.1,0-0.3,0-0.4,0.1
		c-0.2,0.1-0.4,0.2-0.6,0.2c-0.1,0-0.2,0-0.2,0.1c0,0.2-0.1,0.2-0.2,0.1c-0.1-0.1-0.3-0.2-0.4,0.1c-0.2,0-0.3,0.3-0.5,0.3
		c-0.2,0-0.4,0.1-0.5,0.3c-0.2,0.2-0.5,0.5-0.9,0.2c0,0-0.1,0-0.1,0c0,0,0,0.1,0,0.2c0,0,0,0.1,0.1,0.1c0.2,0.1,0.3,0.3,0.3,0.5
		c0,0.1,0,0.2,0,0.4c0,0.2,0.1,0.3,0.3,0.3c0.2,0,0.2,0.1,0.2,0.2c0.1,0.2,0,0.5,0.2,0.6c0.3,0.1,0.3,0.3,0.4,0.5
		c0.1,0.2,0.3,0.3,0.4,0.6c0,0,0,0.1,0,0.1c0,0.2,0.1,0.4,0.2,0.5c0.1,0.1,0.3,0.3,0.2,0.5c-0.1,0.2-0.1,0.2,0.1,0.3
		c0.1,0.1,0.4,0.1,0.4,0.3c0,0.2,0.1,0.4,0.1,0.5c0,0.2,0.1,0.3,0.2,0.5c0.1,0.1,0.3,0.1,0.4,0.3c0,0.2,0.1,0.3,0.2,0.5
		c0.1,0.2,0.1,0.4,0,0.6c0,0.3,0.4,0.1,0.4,0.4c0,0.3,0.4,0.3,0.5,0.5c0.1,0.1,0.2-0.1,0.3-0.2c0.1-0.1,0.3-0.1,0.4,0
		c0,0,0.1,0.1,0.1,0c0.2-0.4,0.5-0.3,0.8-0.3c0.1,0,0.2-0.1,0.3-0.1c0.1-0.1,0.3-0.4,0.4-0.4c0.2,0,0.4,0,0.5-0.2
		c0.1-0.1,0.1-0.1,0.3,0c0.2,0.1,0.5,0.1,0.7-0.2c0.1-0.3,0.4-0.2,0.6-0.4c0.1-0.1,0.3,0,0.4-0.2c0,0,0.1-0.1,0.1-0.1
		c0.2,0.2,0.3,0,0.4-0.2c0.2-0.2,0.4-0.2,0.8-0.2c0.2,0,0.5-0.1,0.7-0.1c0-0.3,0.2-0.2,0.3-0.2c0.2,0.2,0.3,0,0.3-0.1
		c0-0.1,0-0.1,0.1-0.1c0.1,0,0.1,0.2,0.2,0.1c0.1-0.1-0.1-0.2-0.1-0.2c0.1-0.2-0.1-0.3-0.1-0.5c0-0.1,0.2-0.4-0.2-0.4
		c-0.1,0-0.1-0.4-0.3-0.5c-0.2-0.1-0.2-0.3-0.2-0.5c0-0.2,0-0.3-0.2-0.4c-0.3-0.2-0.3-0.5-0.5-0.8c-0.2-0.3-0.2-0.4-0.2-0.8
		c0-0.1,0-0.2-0.1-0.3c-0.2-0.2-0.3-0.5-0.4-0.8c-0.1-0.2-0.1-0.4-0.3-0.5c-0.1,0-0.2-0.2-0.2-0.3c0-0.4-0.3-0.6-0.5-0.8
		c-0.1-0.1-0.2-0.2-0.1-0.3c0-0.3-0.1-0.5-0.3-0.6c-0.3-0.1,0-0.5-0.2-0.6C59.2,18.6,59.1,18.5,59.1,18.5z M90.4,47
		c-0.3,0.3-0.7,0.3-1,0.6c0,0-0.1,0-0.2,0c-0.2,0-0.3,0.1-0.5,0.1c-0.1,0-0.3,0.2-0.4,0.1c-0.2-0.2-0.3,0.1-0.4,0.1
		c-0.2,0-0.1,0.3-0.3,0.3c-0.2,0-0.4,0.1-0.6,0.2c0,0-0.1,0-0.2,0c-0.1-0.1-0.1-0.1-0.2,0.1c-0.1,0.2-0.3,0.4-0.6,0.3
		c-0.2,0-0.4,0-0.5,0.2c-0.1,0.1-0.2,0.1-0.2,0c-0.1-0.1-0.2-0.1-0.3,0c-0.2,0.2-0.3,0.5-0.7,0.4c-0.1,0-0.1,0.1-0.2,0.1
		c-0.1,0.1-0.1,0.3-0.3,0.1c-0.1,0-0.2,0-0.3,0.1c-0.1,0.2-0.2,0.3-0.5,0.3c0,0.3-0.2,0.2-0.4,0.1c-0.2-0.1-0.3-0.1-0.4,0
		c-0.3,0.2-0.5,0.5-0.9,0.4c0,0-0.1,0.1-0.1,0.1c0.2,0.1,0.3,0.3,0.5,0.3c0.1,0,0.2-0.1,0.3,0.1c0,0,0.1,0.1,0.1,0.1
		c0.3,0,0.5,0.2,0.7,0.2c0.2,0,0.4,0.1,0.5,0.2c0.1,0.3,0.4,0.1,0.5,0.2c0.1,0,0.1,0.1,0.2,0.2c0.1,0.1,0.1,0.5,0.4,0.2
		c0.1-0.1,0.2,0.1,0.2,0.1c0.1,0.1,0.2,0.3,0.4,0.2c0.3-0.1,0.4,0.1,0.6,0.3c0.2,0.2,0.5,0.3,0.7,0.3c0.1,0,0.2-0.1,0.3,0
		c0.1,0.1,0.2,0.2,0.3,0.4c0.1,0.1,0.4,0.2,0.5,0.2c0.2,0,0.4,0.1,0.6,0.1c0.1,0.2,0.4,0.3,0.4,0.5c0,0.2,0.1,0.2,0.3,0.1
		c0.1-0.1,0.2,0,0.2,0c0.3,0.3,0.7,0.4,1.2,0.4c0.4,0,0.7-0.2,1-0.4c0.1,0,0.2-0.2,0.3-0.1c0.1,0,0.2,0.2,0.3,0.2
		c0.1-0.1,0.3-0.3,0.4-0.4c0.1-0.1,0.1-0.2,0.2-0.1c0.3,0,0.5-0.1,0.7-0.2c0.2-0.2,0.5-0.1,0.7-0.3c0.1-0.1,0.4-0.1,0.6-0.2
		c0.1-0.1,0.2-0.2,0.4-0.1c0.4,0.1,0.7-0.1,0.9-0.3c0.1-0.1,0.3-0.2,0.4-0.1c0.3,0,0.1-0.3,0.3-0.4c0.1,0,0.1,0,0.2,0
		c0.2,0.1,0.4-0.1,0.6-0.1c0.3,0,0.4-0.3,0.6-0.4c0.1-0.1,0.2-0.1,0.3,0c0.1,0.1,0.1-0.1,0.2-0.1c0.1-0.1,0-0.2-0.1-0.2
		c-0.2,0-0.3-0.4-0.6-0.2c-0.2-0.1-0.3-0.3-0.5-0.4c-0.1-0.1-0.2,0-0.3,0c-0.1,0-0.3,0.1-0.4-0.1c-0.2-0.2-0.5-0.3-0.8-0.3
		c-0.1,0-0.3-0.1-0.4-0.2c0-0.1,0-0.3-0.2-0.3c-0.1,0-0.2,0.1-0.4,0.1c-0.2,0-0.2-0.2-0.3-0.2c-0.1-0.1-0.4,0-0.4-0.1
		c-0.1-0.2-0.2-0.2-0.3-0.3c-0.1-0.1-0.2,0-0.3,0c-0.1,0.1-0.2,0.1-0.3,0c-0.1,0,0-0.1-0.1-0.2c0-0.2-0.1-0.3-0.3-0.1
		c-0.1,0.1-0.3,0-0.3-0.2c0-0.1-0.2-0.3-0.4-0.1c-0.1,0.1-0.2,0-0.2-0.1c-0.1-0.1-0.2-0.2-0.4-0.2c-0.1,0-0.2,0-0.2-0.1
		c0-0.4-0.3-0.3-0.5-0.3c-0.2,0-0.3-0.2-0.5-0.3c-0.1-0.1-0.1-0.3-0.3-0.3c-0.1,0-0.2-0.2-0.1-0.2C90.6,47.2,90.3,47.1,90.4,47z
		 M96.4,38.4c0.1-0.1,0.1-0.2,0.1-0.2c0-0.2,0.4-0.4-0.1-0.5c0,0,0,0,0-0.1c0.1-0.2,0.1-0.2-0.1-0.3c-0.1-0.1-0.6,0-0.4-0.4
		c0,0-0.1-0.1-0.1-0.1c-0.3,0-0.5-0.1-0.8-0.1c-0.3-0.1-0.5-0.3-0.8-0.2c-0.1,0-0.1-0.1-0.2-0.2c-0.1-0.2-0.2-0.4-0.5-0.3
		c-0.2,0.1-0.3-0.1-0.4-0.2c-0.3-0.3-0.4-0.3-0.7-0.4c-0.4-0.1-0.6-0.4-1-0.4c0-0.2-0.2-0.2-0.3-0.2c-0.1,0-0.2,0-0.2,0
		c0-0.3-0.3-0.3-0.4-0.4c-0.2-0.2-0.4-0.3-0.7-0.3c-0.3,0.1-0.5-0.1-0.6-0.4c-0.1-0.2-0.2-0.4-0.4-0.1c-0.1,0.1-0.1,0-0.2-0.1
		c-0.4-0.1-0.7-0.4-1.1-0.5c-0.2-0.1-0.4,0-0.4,0.2c0,0.2-0.2,0.3-0.1,0.5c0,0-0.1,0.3-0.3,0.1c-0.1-0.1-0.3,0-0.4-0.1
		c-0.1,0.1-0.2,0.2-0.3,0.3c-0.1,0.1-0.1,0.1-0.2,0.2c0,0-0.1,0.1-0.1,0.1c-0.2-0.2-0.3,0-0.4,0.1c-0.1,0.1-0.1,0-0.2,0
		c-0.1-0.1-0.3-0.1-0.4,0.1c-0.1,0.1-0.2,0.2-0.3,0.3c-0.1,0.1-0.3,0.2-0.4,0.1c-0.3-0.3-0.5,0.3-0.7,0.1c0,0-0.1,0-0.1,0
		c0,0,0,0.1,0,0.1C83,35,82.8,35.1,82.4,35c-0.1,0-0.2,0-0.2,0c-0.3,0.3-0.8,0.4-1.1,0.7c-0.1,0.1-0.1,0.1-0.2,0
		c-0.1-0.1-0.2,0-0.2,0.1c0,0.1,0,0.2,0.1,0.2c0.2,0,0.4,0.1,0.6,0.1c0.4,0,0.7,0.2,0.9,0.5c0,0,0.1,0.2,0.2,0.1
		c0.2-0.2,0.4,0,0.4,0.1c0,0.2,0.2,0.2,0.3,0.2c0.2,0.1,0.5,0.1,0.5,0.4c0,0.1,0.2,0.1,0.2,0c0.1-0.1,0.2-0.1,0.3,0.1
		c0,0.1,0.1,0.2,0.2,0.1c0.1-0.1,0.3,0.3,0.4,0c0.1,0.1,0.3,0.2,0.4,0.4c0.1,0.1,0.1,0.1,0.2,0.1c0.3,0.2,0.7,0.2,1,0.6c0,0,0,0,0,0
		c0.1,0,0.3-0.1,0.4,0.1c0.1,0.3,0.4,0,0.4,0.2c0.3,0,0.5,0.2,0.7,0.4c0.2,0.2,0.4,0.4,0.8,0.3c0.1,0,0.1,0,0.1,0.1
		c0.1,0.1,0.2,0.2,0.3,0.1c0.1-0.1,0.3,0.1,0.4-0.1c0.1-0.3,0.2-0.2,0.4-0.1c0.2,0.1,0.3,0.1,0.4-0.1c0.2-0.3,0.7-0.1,0.7-0.6
		c0,0,0.1,0,0.2,0c0.2,0.1,0.3,0,0.5-0.1c0.1-0.1,0.2-0.3,0.4-0.2c0.1,0,0.1,0.1,0.2,0c0.1-0.1,0.2-0.1,0.3-0.2
		c0.2-0.1,0.3-0.1,0.5,0c0.2,0.2,0.3,0.3,0.3,0.6c0.2-0.1,0.1,0.3,0.4,0.3c0.2,0,0,0.3,0.1,0.4c0.4,0.4,0.7,0.8,0.9,1.3
		c0,0.1,0.1,0.1,0.1,0c0.1-0.1,0.2-0.1,0.2,0c0.1,0.2,0.3,0.2,0.5,0.2c0.2,0,0.3-0.1,0.6-0.3c0.4-0.2,0.7-0.4,1.1-0.6
		c0.1,0,0.2,0,0.1-0.1c0-0.2,0.1-0.3,0.2-0.4c0.2-0.2,0.2-0.3,0-0.4c-0.1-0.1-0.1-0.2-0.2-0.3c-0.1-0.1-0.1-0.2-0.2-0.3
		c-0.3-0.1-0.3-0.2-0.2-0.5c0,0,0-0.1,0-0.1C96.8,38.4,96.7,38.4,96.4,38.4z M74.2,48.2c0.3,0.3,0.3,0.3,0.6,0
		c0.1-0.1,0.2-0.1,0.3-0.2c0.1-0.1,0.4,0,0.5-0.2c0.1-0.3,0.4,0,0.6-0.1c0.2-0.1,0.5,0.1,0.5-0.3c0-0.1,0.1,0,0.1,0
		c0.1,0.1,0.3,0.1,0.4-0.1c0-0.1,0.1-0.1,0.2-0.1c0.3,0.1,0.5-0.2,0.6-0.3c0.1-0.1,0.2-0.2,0.4-0.1c0.1,0.1,0.2,0.1,0.3,0
		c0.1,0,0.2-0.2,0.2-0.3c0-0.1,0.2-0.2,0.3,0c0.2-0.2,0.4,0,0.6-0.1c0.1-0.1,0.2-0.2,0.3-0.3c0.1-0.1,0.2-0.1,0.3-0.1
		c0.4,0,0.7-0.1,0.9-0.4c0.1-0.1,0.2-0.3,0.5-0.1c0,0,0.4,0.2,0.4-0.2c0-0.1,0.1-0.1,0.2-0.1c0.2,0.1,0.3,0.1,0.4-0.2
		c0-0.1,0.2-0.2,0.4-0.2c0.3,0,0.5-0.1,0.6-0.3c0.1-0.2,0.1-0.2,0.2-0.2c0.3,0.1,0.4-0.3,0.7-0.3c0.1,0,0-0.3,0.1-0.4
		c0.1-0.2,0.1-0.3,0.1-0.5c-0.1,0-0.2-0.3-0.4-0.1c0,0,0,0,0,0c0-0.3-0.2-0.4-0.4-0.2c-0.2-0.1-0.3-0.3-0.5-0.3c0,0,0-0.1,0-0.1
		c0-0.1,0-0.2-0.2-0.2c-0.1,0-0.2-0.2-0.3-0.3c-0.1-0.2-0.3-0.2-0.5-0.2c-0.1,0-0.3,0-0.4,0.1C82,42,82,41.7,81.8,41.6
		c-0.1,0-0.2-0.1-0.3-0.2c-0.1-0.1-0.4,0-0.5-0.2c-0.2-0.2-0.3-0.2-0.5-0.1c-0.2,0.2-0.3-0.1-0.5,0c-0.1,0-0.2-0.2-0.2-0.1
		c0,0.1-0.2,0.2-0.1,0.3c0.2,0.2,0.1,0.6,0.4,0.8c0.1,0.1,0.2,0.3,0.1,0.5c-0.1,0.2-0.1,0.5-0.3,0.7c-0.1,0,0,0.2-0.1,0.3
		c-0.2,0-0.3,0-0.5,0c-0.1,0-0.2,0-0.2,0.1c-0.1,0.3-0.3,0.5-0.5,0.6c-0.2,0.1-0.4,0.2-0.6,0.4c0,0,0,0-0.1,0
		c-0.2-0.2-0.3-0.1-0.4,0.1c-0.1,0.2-0.3,0.2-0.5,0.3c-0.2,0.1-0.4,0-0.6,0.1c-0.2,0.1-0.4,0.3-0.6,0.3c-0.2,0-0.4,0.1-0.5,0.3
		c-0.1,0.1-0.2,0.1-0.4,0c-0.1-0.1-0.2-0.1-0.2,0c-0.1,0.2-0.4,0.1-0.5,0.3c-0.3-0.1-0.4,0.3-0.6,0.2c-0.2,0-0.3,0.1-0.3,0.2
		c0,0.1-0.1,0.2-0.2,0.2c-0.1,0-0.2,0.1-0.3,0.1c-0.2,0-0.2,0.2-0.2,0.3c-0.1,0.1-0.2-0.2-0.4-0.1c-0.1,0-0.1,0-0.2,0.1
		c-0.3,0.3-0.8,0.3-1.1,0.6c-0.3,0-0.6,0-0.8,0c-0.1,0-0.2-0.1-0.3,0c-0.1,0.1-0.1,0.1-0.2,0.2c-0.1,0.1-0.3,0-0.4-0.1
		c-0.2,0,0.1-0.1,0-0.2c0-0.1,0-0.1-0.1-0.1c-0.4,0.1-0.7,0.4-1.1,0.1c0,0-0.1,0-0.1,0c-0.2,0.2-0.3,0-0.4,0c-0.2,0-0.3,0-0.2-0.3
		c0.1-0.1,0.1-0.3,0-0.5c-0.1,0.1-0.2,0.3-0.4,0.1c-0.1-0.1-0.2-0.2-0.3-0.2c-0.5,0-0.7-0.5-1.2-0.5c-0.1,0-0.1-0.1-0.1-0.1
		c-0.1-0.4-0.2-0.5-0.6-0.4c-0.2,0-0.4-0.1-0.6,0.1c-0.1,0.1-0.2,0-0.2-0.1c-0.2-0.2-0.4-0.3-0.6-0.3c-0.1,0-0.2,0-0.3-0.1
		c-0.3-0.4-0.9-0.4-1.2-0.7c0,0-0.1,0-0.1,0c-0.3,0.1-0.4-0.2-0.6-0.2c-0.2-0.1-0.1-0.2-0.1-0.3c-0.1-0.2-0.3-0.1-0.3-0.3
		c0,0,0-0.1,0-0.1c0.1-0.1,0.1-0.2,0-0.2c-0.1,0-0.3-0.1-0.3,0.1c0,0.1,0,0.2-0.2,0.2c-0.1,0-0.2,0.1-0.3,0.1
		C59.8,44,59.7,44,59.7,44c-0.1-0.1-0.2-0.1-0.3,0c-0.2,0.3-0.2,0.3-0.5,0.2c-0.2-0.1-0.2-0.1-0.3,0.1c0,0.1-0.1,0.2-0.2,0.2
		c-0.4,0-0.7,0.4-1.2,0.4c0.5,0,0.8,0.3,1.1,0.6c0.1,0.2,0.3,0.2,0.5,0.2c0.1,0,0.3-0.1,0.3,0.2c0,0.1,0.2,0.2,0.3,0.3
		c0.1-0.2,0.2,0,0.3,0.1c0,0,0.1,0,0.1,0c0.3-0.3,0.5,0,0.6,0.2c0.3,0.3,0.6,0.4,0.9,0.5c0.3,0.1,0.7,0,0.9,0.4c0,0,0.2,0,0.3,0
		c0.2,0,0.3,0,0.3,0.2c0,0.1,0.1,0.1,0.2,0.2c0.2-0.2,0.3,0,0.4,0.1c0.1,0.2,0.4,0.1,0.5,0.2c0.2,0.2,0.4,0.4,0.7,0.3
		c0.1,0.2,0.4,0,0.5,0.2c0.1,0.1,0.3,0.3,0.5,0.1c0.1,0.2,0.3,0.2,0.5,0.1c0.1,0,0.1,0.1,0.2,0.1c0.1,0.1,0,0.2,0.1,0.2
		c0.3,0.1,0.4,0.3,0.6,0.5c0.2,0.1,0.5,0.1,0.6,0.4c0.3,0,0.5,0.2,0.7,0.3c0.2,0.1,0.4,0,0.6,0.1c0.3,0.1,0.4-0.3,0.7-0.3
		c0.2,0,0.5-0.2,0.7-0.2c0.3,0.1,0.5-0.2,0.7-0.3c0.1,0,0.3-0.1,0.4-0.1c0.1-0.2,0.3,0.1,0.4,0c0.2-0.2,0.6-0.1,0.6-0.5
		c0-0.1,0.2-0.1,0.3-0.2c0.1,0.2,0.3-0.1,0.4,0c0.1-0.2,0.3,0.1,0.5-0.1c0.1-0.2,0.3-0.3,0.4-0.4C74.1,48.3,74.1,48.3,74.2,48.2z
		 M88.6,20.2c0,0-0.1,0-0.1,0c-0.4,0-0.4,0-0.2,0.4c0.1,0.2,0,0.3-0.1,0.4c-0.2,0.2-0.1,0.4,0.1,0.4c0.4,0,0.7,0.3,1,0.4
		c0.2,0,0.2,0.3,0.5,0.1c0.1-0.1,0.2,0.1,0.3,0.2c0,0.1,0,0.2,0.2,0.2c0.2,0,0.3,0.1,0.5,0.2c0.2,0.1,0.4,0.2,0.6,0.2
		c0.1,0,0.3,0,0.4,0c0,0,0.2,0.1,0.1,0.2c-0.1,0.1-0.1,0.2,0.1,0.2c0.3-0.1,0.5,0.3,0.8,0.3c0,0.3,0.4,0.3,0.5,0.5
		c0.1,0.2,0.3,0.2,0.4,0.1c0.1-0.1,0.2,0,0.3,0c0.2,0.1,0.4,0.2,0.6,0.3c0.1,0.1,0.2,0.1,0.3,0.1c0.2-0.2,0.3-0.1,0.4,0.1
		c0,0,0.1,0.1,0.1,0.1c0.1,0,0.3,0,0.4,0c0.1,0.1,0.1,0.3,0.2,0.3c0.2,0.1,0.4,0.1,0.5,0.4c0,0,0.1,0,0.1,0c0,0,0.1-0.1,0.1-0.1
		c-0.2-0.2-0.3-0.4,0-0.6c-0.2-0.1,0-0.4-0.2-0.5c-0.1-0.1-0.1-0.2,0-0.3c0,0,0.2-0.1,0.1-0.2c-0.2-0.2,0.2-0.4,0-0.6
		c-0.1-0.2,0.1-0.3,0.1-0.5c0-0.2,0-0.4,0-0.7c0-0.1,0-0.1,0-0.2c0.1-0.1,0.3-0.2,0.1-0.5c-0.1-0.1,0.1-0.4,0-0.5
		c-0.1-0.2-0.1-0.4-0.1-0.6c-0.1-0.3-0.1-0.7-0.2-1c-0.1-0.2-0.1-0.5,0-0.7c0.1-0.1,0.1-0.2,0-0.2c-0.2-0.1-0.2-0.3,0-0.4
		c0,0,0-0.1-0.1-0.1c-0.2,0-0.3-0.1-0.2-0.2c0.2-0.2-0.1-0.2,0-0.3c0.1-0.1,0.2-0.2,0.2-0.4c0-0.1-0.1-0.3-0.2-0.4c0,0,0-0.1,0-0.2
		c0.2-0.2,0.1-0.3,0-0.4c-0.1-0.1,0.1-0.3,0-0.3c-0.2-0.1,0.1-0.2,0-0.3c0-0.1,0-0.2-0.1-0.2c-0.2,0-0.1-0.3-0.3-0.3
		c-0.1,0,0-0.2-0.1-0.3c-0.1-0.2-0.4-0.4-0.6-0.3c-0.2,0,0,0.3-0.2,0.2c-0.3-0.1-0.5,0.1-0.7,0.1c-0.3,0-0.7,0-0.8,0.4
		c0,0.1-0.2,0.2-0.3,0.2c-0.2,0-0.3,0.1-0.3,0.2c0,0.3-0.1,0.3-0.4,0.3c-0.3,0-0.4,0.2-0.5,0.3c-0.1,0.1-0.2,0.3-0.2,0.2
		c-0.3-0.1-0.4,0.2-0.6,0.3c-0.1,0-0.5,0.5-0.5,0.5c0.2,0.3,0,0.3-0.2,0.3c0,0-0.4,0.4-0.4,0.4c0,0.1,0,0.2-0.1,0.2
		c-0.2,0-0.3,0.1-0.3,0.3c0,0.1-0.1,0.3-0.2,0.3c-0.2,0-0.2,0.1-0.2,0.2c0,0.1-0.1,0.1-0.1,0.1c-0.1,0-0.1,0.1-0.1,0.2
		c0.1,0.1,0.1,0.2,0,0.3c-0.1,0.1-0.1,0.3-0.3,0.3c-0.1,0-0.1,0.1-0.1,0.2C88.6,20,88.7,20.1,88.6,20.2z M54,53.6
		c0.3-0.1,0.6,0.1,0.7-0.2c0.1-0.1,0.1,0.1,0.2,0c0.1-0.1,0.1-0.2,0.3-0.2c0.3,0,0.5-0.1,0.6-0.4c0-0.1,0.1-0.1,0.2-0.1
		c0.2,0.2,0.3,0.1,0.4,0c0.2-0.1,0.3-0.1,0.5-0.1c0.1,0,0.2,0,0.2-0.2c0.2,0,0.2-0.3,0.5-0.3c0.3,0,0.5-0.1,0.7,0
		c0.1,0,0.3,0.1,0.2-0.1c0-0.1,0-0.2,0.2-0.2c0.2,0,0.3-0.2,0.6-0.1c0.2,0,0.1-0.3,0.2-0.2c0.1,0.1,0.3,0.1,0.4,0.1
		c0.2,0,0.3,0,0.4-0.3c-0.3,0.2-0.4-0.1-0.6-0.1c-0.2,0-0.3-0.1-0.3-0.2c0-0.1-0.1-0.2-0.2-0.1c-0.2,0.2-0.3,0.1-0.3-0.1
		c0-0.1-0.1-0.2-0.3-0.2c-0.3,0-0.3,0-0.4-0.1c-0.1-0.2-0.2-0.2-0.4-0.2c-0.2,0-0.4,0-0.5-0.1c-0.2-0.2-0.5-0.3-0.7-0.5
		c-0.1-0.1-0.2-0.3-0.4-0.1c-0.2-0.2-0.5-0.2-0.7-0.4c-0.4-0.4-0.4-0.4-0.7-0.5c-0.2-0.1-0.4-0.1-0.5-0.3c0,0-0.1-0.1-0.1-0.1
		c-0.3,0.1-0.4-0.1-0.6-0.3c-0.1-0.1-0.1-0.1-0.2-0.1c-0.1,0-0.3,0-0.4,0c-0.2,0-0.3,0-0.2-0.2c0-0.1,0-0.1-0.1-0.1
		c-0.3,0-0.6-0.1-0.8,0.2c-0.1,0.2-0.4,0.2-0.6,0.2c-0.3,0-0.3,0-0.6,0.3c-0.1,0.1-0.1,0.1-0.2,0c-0.2,0.2-0.7-0.1-0.8,0.4
		c0,0.1-0.1,0-0.2,0.1c-0.4,0.1-0.7,0.1-1.1,0.3c0,0-0.1,0-0.2,0c-0.2,0-0.3,0-0.3,0.2c0,0-0.1,0.2-0.2,0.1c-0.3-0.3-0.5,0.3-0.8,0
		c0,0-0.1,0-0.1,0.1c0,0.2-0.3,0.2-0.4,0.4c-0.1,0.1-0.2-0.1-0.2-0.1c-0.1,0-0.1,0.2-0.2,0.3c-0.1,0.1-0.1,0-0.2,0
		c-0.3-0.1-0.5-0.1-0.6,0.3c0,0.1-0.2,0-0.2,0.1c0.1,0,0.4,0,0.4,0.1c0.1,0.4,0.5,0.3,0.8,0.4c0.1,0,0.2,0,0.2,0.1
		c0.2,0.2,0.4,0.4,0.7,0.3c0,0,0,0.1,0.1,0.1c0.1,0.2,0.3,0,0.4,0.1c0.1,0.1,0.1,0.3,0.3,0.4c0,0,0,0,0.1,0c0.1-0.2,0.2,0,0.2,0
		c0,0.2,0.2,0.3,0.3,0.2c0.2-0.1,0.3,0.2,0.5,0c0.1,0.3,0.5,0.2,0.7,0.4c0.2,0.1,0.4,0.4,0.7,0.3c0.1,0,0.1,0.1,0.2,0.1
		c0.3,0.2,0.5,0.4,0.9,0.3c0.2,0.1,0.4,0.1,0.7,0.1c0,0.3,0.4,0.2,0.5,0.4c0.1,0.1,0.3,0.1,0.4,0c0.2-0.2,0.4,0,0.4,0.1
		c0,0.2,0.5-0.1,0.2,0.3c0,0,0.1,0.2,0.2,0.2c0.1,0,0.1-0.1,0.1-0.2C54,53.9,54,53.8,54,53.6z M52.3,33.9c-0.2,0.2-0.4,0.3-0.7,0.4
		c-0.2,0.1-0.5,0-0.7,0.1c-0.3,0.3-0.6,0.3-0.9,0.4c-0.1,0.1-0.2,0.1,0,0.2c0,0,0.1,0.1,0.1,0.1c0.2,0,0.3,0.1,0.3,0.2
		c0,0.1,0.1,0.1,0.2,0.1c0.2,0,0.3,0,0.5,0c0.2,0,0.1,0.3,0.3,0.4c0,0,0.1,0,0.1,0c0.3,0.2,0.7,0.3,1.1,0.4c0.3,0.1,0.5,0.1,0.7,0.4
		c0.1,0.1,0.2,0.3,0.4,0.3c0.2,0,0.4,0,0.5,0c0.2,0,0.1,0.3,0.4,0.3c0.2,0,0.4,0.2,0.6,0.2c0.2,0.1,0.4,0.3,0.7,0.2
		c0.1,0,0.2,0.1,0.2,0.2c0,0.3,0.3,0.4,0.4,0.6c0.1,0.1,0.1,0.1,0.2,0.1c0.1-0.1,0.2-0.1,0.3,0c0.1,0.2,0.3,0.3,0.5,0.3
		c0.1,0,0.2,0,0.2,0c0,0.3,0.3,0.2,0.5,0.2c0.1,0,0.2,0,0.2,0c0.1,0.3,0.2,0.2,0.3,0.1c0.1-0.1,0.9-0.1,1-0.1
		c0.4-0.2,0.4-0.2,0.4-0.6c0-0.1,0-0.4,0.2-0.3c0.3,0,0.2-0.2,0.2-0.3c0-0.1-0.2-0.1-0.1-0.2c0.3-0.3,0.1-0.6,0-0.7
		c-0.2-0.2-0.2-0.4-0.1-0.6c0.1-0.2,0.1-0.2-0.1-0.4c-0.1-0.1-0.1-0.2,0.1-0.2c0.1,0,0.2-0.1,0.2-0.2c0.2-0.2,0.4-0.4,0.7-0.3
		c0.1,0,0.2,0,0.2-0.1c0.1-0.2,0.3-0.3,0.6-0.2c0.2,0,0.4,0,0.5-0.2c0.2-0.3,0.5-0.1,0.7-0.2c0.1,0.2,0.3,0,0.3-0.1
		c0.1-0.1,0.1-0.3,0.3-0.2c0.3,0.1,0.4-0.1,0.5-0.3c0,0,0-0.1,0-0.1c0-0.1-0.1-0.1-0.1-0.1c-0.2,0-0.6,0.2-0.6-0.3c0,0-0.1,0-0.2,0
		c-0.1,0-0.3,0-0.3,0c-0.1-0.3-0.4-0.1-0.6-0.2c-0.2-0.1-0.5,0-0.5-0.3c0-0.1,0-0.3-0.2-0.3c-0.1,0-0.3-0.1-0.4,0
		c-0.2,0.2-0.5,0.4-0.8,0.2c0,0-0.1,0.1-0.1,0.1c-0.2,0-0.3,0.2-0.4,0.3c-0.1,0.1-0.1,0.2-0.3,0.2c-0.2,0-0.3,0-0.5,0.2
		c0,0.1-0.1,0.1-0.2,0c-0.2-0.3-0.4,0-0.6,0.1C58,34,57.6,34.2,57,34.2c-0.2,0-0.3,0.1-0.4,0.2c-0.1,0.1-0.2,0.3-0.3,0.3
		c-0.1,0.1-0.3,0-0.5,0.1c-0.1,0.1-0.4,0-0.4,0.2c-0.2,0-0.5-0.1-0.6,0.2c0,0-0.1,0-0.2,0c-0.1-0.1-0.3-0.1-0.4,0
		c-0.1,0.1-0.4,0-0.4,0.3c-0.2,0.1-0.6-0.1-0.7-0.3c0-0.3-0.2-0.4-0.4-0.4c-0.1,0-0.2,0-0.2-0.1C52.5,34.4,52.3,34.2,52.3,33.9z
		 M75.1,38.3c-0.1-0.1-0.4,0-0.4-0.2c-0.1-0.3-0.3-0.3-0.5-0.3c-0.1,0-0.2-0.1-0.4-0.2c0.2-0.3-0.1-0.2-0.2-0.2
		c-0.1,0-0.2,0.1-0.3,0.1c-0.2,0.1-0.4,0-0.6-0.2c-0.1-0.2-0.2-0.4-0.5-0.3c-0.1,0-0.1-0.1-0.2-0.1c-0.1-0.1-0.1-0.1-0.2,0
		c-0.1,0-0.4,0.2-0.4-0.1c0-0.1-0.1-0.1-0.1,0c-0.1,0.2-0.2,0.1-0.3,0c-0.2-0.1-0.6-0.2-0.6-0.1c-0.1,0.2-0.1,0.2-0.3,0.1
		c-0.1-0.1-0.3-0.1-0.4,0.1c-0.2,0.3-0.5,0.2-0.7,0.5c0,0-0.1,0-0.2,0c-0.3-0.3-0.4,0-0.6,0.2c-0.1,0.1-0.5,0.3-0.6,0.3
		c-0.3,0-0.3,0-0.5,0.1c-0.1,0.1-0.1,0.1-0.2,0.1c-0.2,0-0.3,0.1-0.3,0.3c0,0.1-0.1,0.1-0.2,0.1c-0.1-0.2-0.3-0.1-0.4,0
		c-0.1,0.1-0.3,0.1-0.4,0c-0.1-0.1-0.2,0-0.3,0c-0.2,0-0.2,0.2-0.4,0.3c-0.1,0.1-0.1,0.1,0,0.2c0.1,0.1,0.2,0.1,0.2,0.2
		c0,0.1,0,0.2,0.1,0.2c0.2,0,0.3,0.2,0.4,0.1c0.3-0.2,0.3-0.1,0.4,0.1c0,0.1,0.1,0.1,0.2,0.1c0.1,0,0.3,0,0.4,0
		c0.2,0,0.1,0.3,0.2,0.2c0.2,0,0.3,0.1,0.4,0.2c0.2,0.2,0.5,0.2,0.8,0.2c0.1,0,0.3-0.1,0.3,0.2c0,0.1,0.2,0.3,0.3,0.2
		c0.2-0.1,0.3,0.1,0.4,0.1c0.1,0,0.2,0.1,0.3,0c0.1-0.2,0.4-0.1,0.5-0.2c0,0,0.2,0,0.3,0.1c0.1,0.1,0.1-0.1,0.1-0.1
		c0.3,0,0.5-0.2,0.6-0.4c0.1-0.1,0.1-0.1,0.3,0c0.2,0.1,0.4-0.1,0.6,0.1c0.1-0.1,0.3-0.2,0.4-0.3c0.1-0.1,0.2-0.1,0.4-0.1
		c0.1,0,0.2,0,0.2-0.1c0-0.2,0.2-0.1,0.2-0.1c0.3,0.2,0.5,0,0.7-0.2C74,39,74.1,39,74.3,39C74.7,38.9,75,38.8,75.1,38.3z
		 M102.1,47.3c0-0.1,0-0.1-0.1-0.2c0-0.2-0.1-0.4,0-0.5c0.3-0.2,0-0.3,0-0.4c0-0.1-0.2-0.2-0.3-0.3c-0.1-0.1-0.1-0.2,0-0.2
		c0.1,0,0.2,0,0.1-0.1c0-0.2,0.1-0.3,0-0.5c-0.1-0.1-0.1-0.3-0.1-0.4c0.1-0.2,0-0.5,0.1-0.7c0.1-0.3,0.2-0.5,0-0.7
		c0.2-0.3,0.3-0.6,0.1-1c0.3-0.2,0-0.3,0-0.4c0.1-0.3-0.2-0.2-0.3-0.3c-0.1-0.1-0.2-0.2-0.3-0.2c-0.3,0.1-0.5-0.1-0.6-0.3
		c-0.1-0.1-0.3-0.1-0.3-0.1c-0.1,0.1-0.2,0.3-0.3,0.4c-0.1,0.1,0,0.2,0,0.3c0.1,0.1,0.1,0.3-0.1,0.4c-0.1,0.1-0.2,0.2-0.3,0.3
		c-0.1,0.1-0.3,0.1-0.2,0.3c0.1,0.1-0.1,0.2-0.1,0.3c-0.2,0.2-0.2,0.6-0.3,0.8c-0.1,0.2-0.1,0.4,0,0.6c0.1,0.2,0.2,0.5,0,0.7
		c-0.2,0.2-0.2,0.4-0.1,0.7c0,0.1,0.1,0.2,0,0.3c-0.1,0.1-0.2,0.2-0.2,0.3c-0.1,0.2-0.1,0.3,0.1,0.4c0.2,0,0.3,0.2,0.5,0.1
		c0.2-0.1,0.2,0.4,0.4,0.2c0.1,0,0.1,0,0.1,0.1c0.1,0.4,0.4,0.4,0.7,0.4c0.2,0,0.4,0,0.5,0.2c0,0,0.1,0.2,0.2,0.1
		c0.1-0.1,0.3,0.1,0.4,0.1C102.2,47.7,102,47.5,102.1,47.3C102,47.4,102,47.4,102.1,47.3z"/>
	<path d="M34.6,35.3c-0.1,0.1-0.2,0.3-0.3,0.3c-0.2,0-0.3,0.1-0.4,0.1c-0.1,0-0.2,0-0.2-0.2c0-0.3-0.1-0.6-0.3-0.7
		c-0.4-0.3-0.7-0.7-1.2-0.9c0.1,0.4,0.1,0.4-0.3,0.8c0.2,0.1,0.3,0.4,0.2,0.6c-0.2,0.3-0.1,0.6,0,0.9c0,0.1,0.2,0.1,0.1,0.2
		c-0.3,0.3-0.2,0.7-0.1,1c0,0,0,0.1,0,0.2c-0.1,0.2-0.1,0.3,0,0.5c-0.2,0.1-0.2,0.3,0,0.5c0.1,0.1,0.1,0.2-0.1,0.4
		c-0.1,0.2-0.1,0.4-0.2,0.6c-0.1,0.1-0.1,0.4,0.1,0.6c0,0,0,0,0,0c0,0.2-0.2,0.3-0.1,0.5c0.1,0.1,0.2,0.3,0.2,0.4c0,0,0,0.1,0,0.1
		c-0.2,0.3-0.2,0.5-0.1,0.8c0,0.3,0.2,0.7-0.1,1.1c0,0,0,0.1,0,0.2c0.2,0.3,0.1,0.6,0,1c0,0.2,0,0.5,0.1,0.8
		c0.1,0.2,0.1,0.4-0.1,0.5c-0.2,0.1-0.3,0.2-0.1,0.5c0.1,0.1-0.1,0.4,0.1,0.5c0.1,0.1,0,0.1-0.1,0.2c-0.1,0.1-0.2,0.2-0.2,0.3
		c-0.1,0.4-0.4,0.5-0.7,0.6c-0.1,0.1-0.2,0.1-0.2-0.1c0,0-0.1-0.1-0.1-0.1c-0.1-0.1-0.2-0.2-0.3,0c0,0.1,0,0.1-0.1,0.1
		c-0.2,0-0.3,0.1-0.3,0.3c0,0.2-0.1,0.1-0.1,0c-0.1,0.1-0.5,0.1-0.2,0.4c0,0,0,0,0,0.1c0,0-0.4,0.3-0.5,0.3c-0.3,0-0.3,0.1-0.5-0.1
		C28.5,48.1,28.2,48,28,48c-0.4-0.1-0.6-0.4-0.9-0.4c-0.1-0.3-0.3-0.4-0.6-0.3c-0.1,0-0.1-0.1-0.2-0.1c-0.1-0.1-0.3-0.3-0.4-0.4
		c-0.1-0.1-0.2-0.1-0.3,0c-0.1,0.1-0.2,0-0.3-0.1c-0.1-0.1-0.2-0.3-0.5-0.3C24.6,46,24.3,46,24,46c-0.1,0-0.2,0-0.2-0.2
		c-0.1-0.2-0.2-0.3-0.5-0.3c-0.2,0-0.4-0.2-0.6-0.4c-0.1-0.3-0.3-0.5-0.6-0.5c-0.3-0.1-0.5-0.3-0.8-0.5C21,44,20.6,44,20.6,43.6
		c-0.2-0.1-0.4-0.3-0.5-0.4c-0.3,0.1-0.4-0.3-0.7-0.3c-0.1,0-0.3-0.3-0.4-0.3c-0.3,0-0.3-0.3-0.4-0.4c-0.1-0.1-0.2-0.4-0.5-0.3
		c0,0-0.2-0.1-0.2-0.3c0-0.1,0-0.2,0-0.3c0-0.2,0.2-0.3,0.1-0.6c0-0.2-0.2-0.3-0.1-0.5c0.1-0.2-0.1-0.4-0.1-0.5
		c0-0.2-0.3-0.3-0.2-0.4c0-0.2,0.1-0.3,0.1-0.5c0-0.1-0.3-0.2,0-0.4c0.2-0.1-0.2-0.2,0-0.4c0.2-0.1-0.2-0.2-0.1-0.4
		c0.1-0.1,0.1-0.3,0-0.4c-0.1-0.1,0-0.1,0.1-0.1c0.2-0.4,0.2-0.8,0.1-1.2c-0.1-0.2-0.1-0.4,0.1-0.5c0.1-0.1,0.1-0.2,0-0.3
		c-0.2-0.3-0.2-0.7-0.1-1.1c0.1-0.2,0-0.5,0-0.8c0-0.1-0.1-0.2-0.1-0.3c-0.1-0.1-0.2,0-0.3,0c0,0-0.1,0-0.1,0c-0.5-0.1-0.6,0-1,0.1
		c-0.1,0.1-0.3,0.3-0.4,0c-0.1,0.2-0.3,0-0.5,0.2c0,0.1-0.1,0-0.1-0.1c-0.2-0.2-0.4-0.4-0.7-0.1c0,0-0.1,0-0.2,0
		c-0.1,0-0.2,0-0.3,0.1c-0.1,0.1-0.1,0.1-0.2,0c-0.2-0.2-0.5-0.3-0.7-0.3c-0.2,0-0.4,0-0.5,0.2c-0.1,0.1-0.2,0-0.3,0.1
		c-0.1,0-0.1,0.1-0.1,0.2c0,0,0.1,0.1,0.1,0.1c0.2,0,0.2,0.1,0.2,0.3c-0.1,0.5,0.1,0.8,0.6,1c0.1,0,0.2,0.1,0.2,0.3
		c0,0.1-0.1,0.2,0,0.3c0.2,0.1,0.3,0.3,0.3,0.6c0,0.2,0.2,0.4,0.2,0.6c0,0.2,0.2,0.3,0.4,0.4c0.3,0.1,0.3,0.1,0.2,0.4
		c0,0.2-0.1,0.4,0.1,0.5c0.2,0.2,0.4,0.3,0.3,0.6c0,0.2,0.3,0,0.2,0.2c0,0.1,0,0.3,0,0.4c0,0.1,0,0.1,0.1,0.2
		c0.2,0.1,0.5,0.2,0.5,0.6c0,0.1,0.1,0.2,0.1,0.3c-0.1,0.3,0.1,0.6,0.2,0.8c0.2,0.2,0.3,0.3,0.2,0.6c0,0.1,0,0.1,0,0.2
		c0.3,0.3,0.3,0.6,0.3,1c0,0.1,0,0.2,0.1,0.2c0.4,0.1,0.2,0.3,0.1,0.5c-0.1,0.2-0.1,0.3,0,0.4c0.3,0.3,0.4,0.7,0.7,0.9
		c0.1,0.1,0.1,0.2,0,0.3c-0.2,0.2-0.1,0.5,0,0.7c0.1,0.2,0,0.3,0.1,0.5c0.1,0.3,0.2,0.6,0.5,0.8c0.3,0.3,0.2,0.6,0.2,0.9
		c0,0.1-0.1,0.1-0.1,0.2c0.1,0.2,0.4,0.3,0.1,0.6c0,0,0.1,0.1,0.1,0.1c0,0.1,0.2,0.1,0.1,0.2c-0.2,0.3,0,0.6,0.2,0.8
		c0.2,0.2,0.2,0.4,0.4,0.6c0.1,0.1,0.1,0.3,0,0.4c-0.2,0.3-0.1,0.6,0,0.8c0.3,0.3,0.1,0.5,0,0.8c-0.2,0.4-0.2,0.4,0.1,0.7
		c0.1,0.1,0.2,0.2,0,0.3c-0.1,0.1,0,0.1,0.1,0.1c0.1,0.1,0.2,0.4,0.1,0.5c0,0.2-0.2,0.4,0,0.6c0,0,0,0.1,0,0.2
		c-0.2,0.1-0.1,0.2,0,0.3c0.2,0.1,0.3,0.1,0.1,0.3c-0.2,0.1-0.2,0.3-0.1,0.5c0.1,0.2,0.2,0.3,0.2,0.5c-0.1,0.2-0.2,0.4-0.2,0.6
		c0,0.2,0.2,0.3,0.3,0.5c-0.2,0.3,0,0.6-0.2,0.9c-0.1,0.1-0.2,0.2-0.1,0.2c0.2,0.2,0.1,0.3,0.1,0.5c0,0.2,0.1,0.4-0.1,0.6
		c-0.1,0.1,0,0.2,0.1,0.2c0.2,0.1,0.1,0.2,0.1,0.4c0,0.2-0.2,0.3,0,0.6c0.1,0.1-0.1,0.3-0.2,0.5c-0.1,0.1-0.2,0.2-0.2,0.4
		c0,0.1-0.1,0.2,0,0.2c0.3,0.2,0.2,0.5,0.2,0.8c0,0,0,0.1-0.1,0.1c-0.1,0.2-0.1,0.4,0.1,0.5c-0.2,0.1-0.2,0.3-0.3,0.5
		c0,0,0.1,0.1,0.1,0.1c0,0.2,0.1,0.4-0.1,0.6c-0.1,0.1,0.1,0.3,0,0.6c-0.1,0.2-0.2,0.4-0.2,0.7c0,0.1-0.1,0.1,0,0.2
		c0.1,0.1,0.1,0.2,0,0.3c-0.4,0.2-0.2,0.3-0.1,0.6c0,0.1,0.1,0.2-0.1,0.3c-0.1,0.1-0.2,0.2-0.3,0.3c0,0.1-0.3,0.3,0,0.5
		c0.1,0.1-0.1,0.3,0.1,0.4c0.1,0.1,0,0.1,0,0.1c0,0-0.1,0.1-0.1,0.1c0.1,0.4-0.3,0.7-0.3,1.1c0,0.2-0.2,0.4-0.1,0.6
		c0,0.2-0.2,0.3-0.3,0.5c-0.1,0.2-0.2,0.3,0,0.4c0.1,0.1,0.1,0.1,0,0.2c-0.1,0.3-0.2,0.6-0.4,0.8c-0.1,0.1-0.1,0.1,0,0.2
		c0.1,0.1,0,0.1-0.1,0.2c-0.1,0.1-0.1,0.1-0.2,0.2c0,0.1,0.1,0.3,0.1,0.4c0,0.1-0.2,0.1-0.3,0.2c-0.1,0,0,0.2,0,0.3
		c0,0.3,0.2,0.7-0.3,0.8c-0.1,0-0.1,0.1,0,0.2c0.1,0.4-0.2,0.6-0.3,0.8c0,0-0.2,0-0.2,0.1c0,0.1,0.1,0.3-0.1,0.3
		c-0.1,0-0.1-0.1-0.2-0.2c0,0-0.1-0.1-0.1-0.1c-0.3,0.3-0.5,0-0.6-0.2c-0.2-0.3-0.6-0.2-0.8-0.3c0,0-0.1,0-0.2,0
		c-0.2,0.2-0.3,0.3-0.5,0.1c-0.2-0.1-0.4,0-0.6-0.1c-0.2-0.1-0.4-0.2-0.6-0.3c-0.2-0.1-0.4-0.2-0.6-0.4c-0.2-0.3-0.5-0.4-0.8-0.3
		c-0.2-0.3,0.2-0.6,0.1-0.9c0,0,0.1-0.1,0.1-0.1c0.3,0.1,0.2-0.2,0.3-0.3c0.1-0.1,0.1-0.3,0.3-0.4c0.1-0.1,0.2-0.2,0.2-0.3
		c0-0.2,0.2-0.3,0.4-0.4c0,0,0.2-0.1,0.1-0.2c-0.1-0.1-0.3-0.2-0.2-0.4c0.1-0.2,0-0.2,0-0.3c0-0.3,0.1-0.5,0.3-0.7
		c0.1-0.1,0.1-0.2,0-0.3c-0.1-0.1-0.1-0.1,0-0.2c0.3-0.3,0.3-0.7,0.3-1.1c0.1-0.6,0.1-1.2,0.3-1.8c0-0.1,0-0.2,0-0.2
		c0-0.2,0-0.4,0.2-0.5c0.1-0.1,0.2-0.2,0.1-0.4c0,0,0-0.1,0-0.2c0.2-0.2,0.1-0.4,0.1-0.6c0-0.1,0.1-0.3-0.1-0.4
		c0.2-0.1,0.3-0.4,0.3-0.6c0.3-0.1,0.2-0.3,0.2-0.5c0.1-0.2,0.1-0.4,0.1-0.6c0-0.1,0-0.3,0.1-0.4c0.1-0.2,0-0.4-0.1-0.6
		c-0.1-0.1-0.1-0.3,0-0.4c0.1-0.1,0.1-0.1,0.1-0.2C13.9,60.5,14,60.2,14,60c0-0.1-0.1-0.2-0.2-0.3c-0.1-0.1,0-0.2-0.2-0.3
		c0.1-0.1,0.1-0.2,0.2-0.3c0.2-0.2,0.2-0.4,0.1-0.7c-0.1-0.2,0-0.5-0.1-0.7c0-0.1,0-0.2,0-0.2c0.4-0.3,0.1-0.7,0.1-1.1
		c0-0.2-0.2-0.4-0.2-0.6c0-0.2,0.1-0.4,0.1-0.6c0-0.1-0.1-0.1-0.1-0.1c0,0,0,0-0.1,0c-0.2-0.2,0.1-0.3,0-0.5c0-0.2-0.3,0-0.3-0.3
		c0-0.2,0-0.3-0.2-0.5c-0.1-0.1-0.1-0.2,0-0.2c0.2-0.3-0.1-0.5,0-0.7c0-0.1-0.1-0.2-0.1-0.3c0-0.1-0.2,0-0.3,0
		c-0.1,0-0.2-0.1-0.2-0.1c-0.1,0-0.2,0.1-0.3,0.1c-0.4,0.2-0.8-0.1-1.2,0c-0.1-0.1-0.3-0.2-0.4-0.4c-0.1-0.1-0.2-0.1-0.4-0.1
		c-0.1,0-0.2,0.1-0.1,0.3c0.1,0.1,0.1,0.3,0,0.4c-0.2,0.3-0.2,0.6,0.1,0.9c0.1,0.2,0.1,0.5,0.3,0.7c0,0,0,0.1,0,0.2
		c-0.3,0.3-0.1,0.5,0.2,0.7c0,0,0.1,0.1,0.1,0.1c-0.1,0.2-0.4,0.2-0.1,0.5c0.2,0.3,0,0.6,0,0.8c-0.1,0.3-0.2,0.6-0.2,1
		c0,0.1,0,0.2-0.1,0.3c-0.1,0.1-0.1,0.2,0,0.3c0.2,0.2,0,0.5,0.2,0.7c-0.1,0.4-0.2,0.7,0.1,1.1c0,0,0,0.1-0.1,0.2
		c-0.3,0.3-0.2,0.5-0.1,0.8c0.1,0.1,0.1,0.3,0,0.4c-0.1,0.1-0.1,0.2,0,0.3c0.1,0.1,0,0.3-0.1,0.5c0.2,0.2,0.1,0.3,0,0.5
		c0.1,0.4-0.2,0.8,0,1.2c0.1,0.1,0.1,0.3-0.1,0.5c-0.1,0.1-0.1,0.5-0.1,0.7c0,0.1,0,0.2,0,0.2c-0.2,0.4,0.1,0.7,0,1.1
		c0,0,0,0.1,0,0.1c0.1,0.4,0,0.5-0.3,0.6c-0.1,0-0.2,0-0.2,0.1c-0.1,0.2-0.2,0.2-0.3,0c-0.1-0.1-0.2-0.1-0.3,0
		c-0.2,0.1-0.4,0.2-0.6,0.1c-0.1,0-0.4,0.1-0.5,0.3c-0.1,0.3-0.2,0.2-0.3,0.1c-0.1-0.1-0.1-0.2-0.3,0c0,0-0.2,0-0.3,0
		c-0.3-0.1-0.5-0.2-0.8,0c-0.1,0.1-0.2,0.1-0.3-0.1c-0.2-0.4-0.3-0.4-0.8-0.2c-0.1-0.1,0-0.3,0-0.5c0-0.1,0-0.2,0-0.2
		c-0.3-0.2-0.1-0.4,0-0.6c0.1-0.2,0.1-0.2,0.1-0.6c0-0.3-0.1-0.4-0.3-0.6c0,0-0.1-0.1-0.1-0.2c0-0.3,0.4-0.6,0.1-0.9
		c0,0,0.1-0.1,0.1-0.1c0.1-0.1,0.1-0.1,0-0.2c-0.1-0.1-0.1-0.4,0-0.5c0-0.2,0-0.4,0.1-0.5c0.1-0.1,0.1-0.3,0.2-0.5c0,0,0,0,0,0
		c0-0.2-0.4-0.2-0.1-0.5c0.1-0.1-0.1-0.4-0.1-0.5c0-0.1-0.1-0.1,0-0.2c0.2-0.1,0.1-0.2,0-0.3c0-0.1,0-0.2-0.1-0.3
		c0-0.1,0.1-0.1,0.1-0.2c0-0.1,0-0.3-0.1-0.4c-0.1-0.1-0.1-0.1,0-0.2c0.2-0.1,0.2-0.3,0-0.5c-0.2-0.1-0.2-0.3,0-0.5
		c0.1-0.1,0.1-0.3,0-0.4c-0.2-0.2,0.1-0.5-0.2-0.6c0-0.2-0.1-0.3,0.1-0.5c0.1-0.1,0.3-0.2,0.2-0.4c-0.1-0.2-0.1-0.5-0.3-0.6
		c-0.1-0.1-0.3-0.2-0.1-0.5c0,0,0-0.2,0-0.3c-0.1-0.1-0.1-0.2,0-0.4c0,0,0.1-0.1,0.1-0.1c-0.3-0.3,0-0.6,0-0.9c0,0,0-0.1,0-0.1
		c0.4-0.4,0-0.7-0.1-1l-0.1-0.4c0-0.2,0-0.4,0.2-0.5c0.2-0.1,0.2-0.3,0.1-0.4c-0.1-0.1-0.1-0.2,0-0.3c0.3-0.2,0-0.4-0.1-0.5
		c-0.1-0.2-0.2-0.3-0.2-0.5c0.1-0.6-0.2-1.1-0.1-1.6c0-0.2-0.1-0.2-0.2-0.3c-0.2-0.2-0.3-0.3-0.1-0.5c0.1-0.1,0-0.2-0.1-0.2
		c-0.1-0.1,0-0.2,0.1-0.2c0,0-0.1-0.1-0.1-0.2c0-0.1,0-0.2-0.1-0.3c-0.2-0.3-0.2-0.5-0.2-0.8c0-0.2,0.2-0.4-0.2-0.5
		c-0.1,0-0.1-0.2,0-0.3c0.1-0.3,0.1-0.4-0.1-0.5c-0.1-0.1-0.2-0.1-0.1-0.2c0.2-0.3,0-0.6,0-0.9c0-0.2-0.1-0.4-0.1-0.6
		c0,0,0-0.1,0-0.1c-0.4-0.3-0.2-0.7-0.2-1c0-0.1-0.2-0.7-0.3-0.8c-0.2-0.2-0.2-0.3,0-0.6c0-0.1,0-0.1,0-0.2c0-0.2-0.3-0.3-0.3-0.4
		c0-0.2-0.1-0.3-0.2-0.4c-0.1-0.1-0.1-0.2,0-0.2c0.2-0.1,0.2-0.3,0-0.5c-0.2-0.2-0.1-0.6-0.3-0.8C2,37.7,2,37.5,1.9,37.4
		c0,0-0.1-0.1-0.1-0.1c0.3-0.2,0-0.4-0.1-0.5c-0.1-0.1-0.1-0.2-0.1-0.3c-0.1-0.4-0.1-0.7-0.5-1C1,35.4,0.9,35.3,1,35.1
		c0-0.2,0-0.4-0.2-0.5c-0.1-0.1-0.1-0.2-0.1-0.3c0-0.1,0-0.2-0.1-0.3c-0.2-0.2-0.3-0.3-0.1-0.5c0.1-0.1,0-0.2-0.1-0.2
		c-0.1,0-0.1-0.1,0-0.2c0.1-0.1,0.2-0.3,0.2-0.4c0-0.1-0.2-0.2-0.2-0.4c-0.1-0.2-0.2-0.3-0.2-0.5c0-0.1-0.2-0.2,0-0.3
		c0,0,0-0.1,0-0.2C0.3,31.1,0,30.9,0,30.7c0-0.2,0.2-0.4,0.2-0.6c0-0.2,0-0.4-0.2-0.5c0,0-0.1-0.1-0.1-0.1c0-0.2,0.2-0.4,0.1-0.5
		c-0.1-0.2,0-0.3,0.1-0.4c0.1-0.1,0.1-0.4,0.4-0.4c0.1,0,0.1-0.2,0-0.3c-0.1-0.2-0.2-0.3,0.1-0.3c0.1,0,0.1-0.2,0.2-0.3
		c0-0.2,0.2-0.3,0.3-0.4c0.2-0.1,0.4-0.2,0.5-0.5c0-0.1,0.2,0,0.2-0.1c0.1-0.1,0.3,0,0.3-0.1c0-0.2,0.1-0.4-0.1-0.6
		c-0.1-0.1-0.1-0.3,0-0.3c0.3,0,0.4-0.2,0.6-0.4c0,0,0.1,0,0.2,0c0.1,0,0.5,0,0.6,0C3.6,25,3.8,24.8,4,24.8c0.2,0,0.4-0.1,0.5-0.4
		c0-0.1,0.2-0.2,0.3-0.2c0.1,0,0.3,0.1,0.4-0.1c0.1-0.2,0.3-0.2,0.5-0.1c0.1,0,0.2,0,0.2-0.1c0.1-0.3,0.5-0.1,0.6-0.4
		c0.1-0.1,0.3,0,0.5,0c0.2,0,0.3,0,0.5-0.2c0.1-0.1,0.2-0.3,0.4-0.1C7.9,23.2,8,23.1,8,23c0.1-0.2,0.2-0.4,0.4-0.2
		c0,0,0.1-0.1,0.1-0.1c0.4,0,0.6-0.1,0.9-0.4c0.4,0,0.6-0.1,0.9-0.4c0.1-0.1,0.2-0.1,0.3-0.1c0.1,0,0.1,0,0.2,0
		c0.2-0.1,0.2-0.4,0.5-0.1c0.1-0.1,0.3-0.1,0.5-0.1c0.1,0,0.1,0,0.2,0c0.1,0,0.1-0.3,0.3-0.1c0.1,0.1,0.2-0.1,0.3-0.1
		c0.4,0.1,0.6-0.2,0.9-0.3c0.2-0.1,0.3-0.1,0.5-0.2c0.2,0,0.4,0.2,0.5-0.2c0-0.1,0.1,0,0.2,0c0.3,0,0.6-0.3,0.9,0c0,0,0,0,0,0
		c0.1-0.4,0.3-0.1,0.5-0.1c0.2,0,0.4-0.1,0.5-0.1c0.1,0,0.2-0.1,0.4-0.1c0.1,0,0.1-0.1,0.2-0.2c0.1-0.2,0.2-0.2,0.3,0
		c0.1,0.1,0.2,0.1,0.3,0.1c0.1,0,0.2,0,0.2,0c0.3,0.5,0.5,0.1,0.7-0.1c0.1-0.2,0.4-0.1,0.5-0.1c0.2-0.1,0.3-0.2,0.5,0
		c0.1,0.1,0.2,0.1,0.3,0c0,0,0.6-0.2,0.7-0.2c0.4-0.1,0.8,0.2,1.3,0.1c0,0,0,0,0.1,0c0.2,0.3,0.5,0.3,0.7,0c0.1,0.1,0.3,0.1,0.4,0.1
		c0.2,0.1,0.3,0.1,0.5,0.1c0.1,0,0.1,0.1,0.1,0.2c0,0.1,0.1,0.1,0.2,0.1c0.2-0.1,0.4,0.1,0.6,0c0.2-0.1,0.3,0.1,0.5,0.2
		c0.1,0.1,0.2,0.2,0.4,0.1c0.2-0.1,0.3,0.1,0.4,0.1c0.1,0,0.2,0.3,0.4,0.1c0.1-0.1,0.2,0.1,0.2,0.2c0.1,0.3,0.2,0.3,0.4,0.3
		c0.2,0,0.5-0.1,0.7,0.1c0.1,0.2,0.4,0,0.5,0.3c0.1,0.2,0.3,0,0.4,0.1c0.1,0.1,0.1,0.3,0.2,0.3c0.1,0,0.2,0.3,0.4,0.1
		c0.1-0.1,0.1,0,0.2,0.1c0.1,0.1,0.2,0.3,0.4,0.2c0.2,0,0.4,0,0.5,0.3C30,23,30,23,30.1,23c0.2,0,0.3,0.4,0.6,0.2
		c0,0,0.1,0.1,0.1,0.1c0,0.1,0.1,0.2,0.3,0.2c0.3,0,0.4,0.1,0.5,0.3c0,0.1,0.1,0.2,0.2,0.3c0,0.1,0.1,0.1,0.2,0
		c0.2-0.2,0.3,0.1,0.5,0.1c0.1,0,0.1,0.1,0.2,0.2c0.2,0.3,0.5,0.5,0.7,0.8c0.4,0.1,0.4,0.5,0.7,0.7c0.1,0.1,0.1,0.2,0.2,0.3
		c0.1,0.2,0.2,0.3,0.4,0.4c0.3,0.1,0.5,0.5,0.5,0.8c0,0.4,0.2,0.6,0.5,0.8c0.1,0.1,0.4,0.1,0.4,0.4c0,0,0.1,0.2,0.2,0.2
		c0.1,0,0.2,0,0.2,0.1c-0.1,0.3,0.3,0.3,0.3,0.5c0.3,0,0.3,0.2,0.3,0.3c0.1,0.2,0,0.5,0.3,0.5c0.1,0,0,0.1,0.1,0.2
		c0,0.1-0.1,0.3,0.2,0.3c0.1,0,0,0.1,0,0.2c0.1,0.3,0.1,0.5,0.4,0.6c0.1,0,0.3,0.2,0.3,0.3c-0.1,0.2-0.1,0.3,0,0.5
		c-0.2,0.1,0,0.4-0.3,0.4c-0.1,0-0.1,0.1-0.1,0.2c0,0.2,0,0.5-0.3,0.5c-0.1,0,0,0.1,0,0.2c0,0.1-0.1,0.1-0.2,0.1
		c0,0-0.1-0.1-0.1-0.1c-0.2-0.1-0.3,0-0.3,0.2c0,0.2,0,0.3-0.3,0.2c-0.1-0.1-0.1,0-0.1,0c0,0.2-0.4,0.1-0.3,0.3c0,0.1,0,0.2-0.1,0.2
		c-0.2,0-0.3,0.1-0.4,0.2c-0.1,0.1-0.1,0.4-0.4,0.1c0,0-0.1,0-0.2,0.1C34.9,35.5,34.8,35.5,34.6,35.3z M27.8,31.2
		c-0.2,0.3-0.4,0.5-0.7,0.4c-0.2,0-0.2,0.2-0.3,0.2c-0.2,0.1-0.3,0.4-0.5,0.1C26.1,31.8,26,31.9,26,32c-0.1,0-0.2,0.1-0.3,0
		c-0.1-0.3-0.4-0.1-0.5-0.1c-0.3,0-0.6,0-0.9,0.2c0,0-0.1,0-0.2,0c-0.1-0.2-0.3,0-0.4,0c-0.3,0.1-0.7,0.2-1,0.1c-0.1,0-0.1,0-0.2,0
		c-0.1,0.2-0.3,0-0.4,0.2c0.1,0.2-0.1,0.4,0.1,0.7c0,0,0,0.1,0,0.1c-0.3,0.3-0.3,0.6-0.2,0.9c0.2,0.4,0.1,0.8-0.2,1.1
		c-0.1,0.1-0.1,0.2,0,0.3c0.1,0.1,0.1,0.2,0.2,0.3c0.1,0.1,0.1,0.2,0,0.3c-0.1,0.1-0.1,0.2-0.1,0.3c0.2,0.3,0.1,0.5,0.1,0.8
		c0,0.2-0.1,0.3,0.1,0.5c0.1,0,0,0.1,0,0.1c-0.1,0.2-0.1,0.5-0.2,0.7c-0.2,0.3,0.2,0.4,0.2,0.7c0,0.1,0,0.2,0,0.2
		c0,0.2,0.1,0.2,0.2,0.3c0.1,0,0.2,0,0.2,0c0.1,0.2,0.2,0.3,0.5,0.1c0.1-0.1,0.4,0,0.4,0.2c0,0.3,0.2,0.3,0.3,0.4
		c0.2,0.1,0.3,0.2,0.4,0.4c0,0.1,0.1,0.1,0.2,0.1c0.2,0,0.4,0.1,0.5,0.2c0.1,0.2,0.3,0,0.5,0.2c0.1,0.2,0.3,0.3,0.4,0.4
		c0.1,0,0.2,0.2,0.3,0.1c0.3,0,0.4,0.1,0.5,0.3c0,0,0.1,0.2,0.2,0.1c0.3-0.2,0.5-0.1,0.7,0.2c0.1,0.1,0.1,0.2,0.3,0.1
		c0.1-0.2,0-0.4,0.1-0.6c0.1-0.2-0.1-0.3,0-0.5c0-0.1-0.2-0.3,0-0.4c0,0,0-0.1,0-0.2c-0.1-0.1-0.1-0.2-0.1-0.3
		c0.3-0.2-0.2-0.7,0.2-0.9c0,0,0,0,0,0c-0.2-0.4,0.1-0.9-0.2-1.4c0,0,0-0.1,0-0.1c0.2-0.2,0.1-0.5,0.1-0.7c0-0.2,0.2-0.5,0-0.7
		c0.1-0.1,0.1-0.2,0-0.4c-0.1-0.1,0-0.3,0-0.5c0-0.2,0.2-0.2,0.2-0.3c0.1-0.1-0.1-0.3-0.1-0.4c0.1-0.1,0.1-0.3,0-0.4
		c-0.2-0.1,0.2-0.3,0-0.4c0,0,0-0.1,0-0.1c0.1-0.1,0.2-0.2,0.2-0.3c0.1-0.1-0.1-0.1-0.1-0.3c0.1-0.3,0.1-0.6,0-0.8
		c-0.1-0.1-0.1-0.3,0-0.4c0.1-0.1,0-0.2,0-0.3c-0.1-0.2-0.1-0.3,0.1-0.4c0.3-0.2,0.2-0.4,0-0.7C27.8,31.3,27.8,31.2,27.8,31.2z
		 M14.8,27.7C14.8,27.7,14.8,27.7,14.8,27.7c0.2,0.3,0.5,0,0.7,0.2c0.2,0.2,0.5-0.3,0.7,0c0.1-0.2,0.4,0,0.5-0.2
		c0.2,0.1,0.4,0,0.6,0c0.1-0.1,0.3-0.1,0.4-0.1c0.5,0,0.6-0.2,0.6-0.6c0-0.2-0.1-0.4,0.1-0.5c0,0,0.1-0.2,0-0.3
		c-0.2-0.1,0-0.2,0-0.3c0,0,0.1-0.1,0.1-0.1c0-0.1-0.1-0.1-0.2-0.2c-0.2,0-0.5,0.1-0.8-0.1c-0.2-0.1-0.5,0-0.7,0.1
		c-0.2,0.1-0.3,0-0.4-0.1c-0.1-0.1-0.2-0.1-0.3,0c-0.1,0.2-0.4,0.2-0.5,0.1c-0.2-0.1-0.2,0-0.3,0.1c0,0-0.7,0.2-0.7,0.2
		c-0.2-0.2-0.4-0.1-0.5,0.1c-0.1,0.1-0.2,0.2-0.3,0.2c-0.1,0-0.2-0.2-0.3-0.1c-0.1,0.1-0.3,0-0.4,0.1c0,0.1-0.1,0-0.2,0
		c-0.4-0.1-0.7,0.1-1.1,0.1c-0.1,0-0.1,0-0.2,0c-0.2,0.2-0.5,0.2-0.7,0.3c-0.1,0-0.2,0.1-0.1,0.1c0.1,0.1,0,0.3,0,0.4
		c0.2,0.2,0.1,0.3,0,0.4c0,0-0.1,0,0,0.1c0.1,0.1,0.8,0.4,0.9,0.4c0.2-0.2,0.6,0,0.8-0.2c0.2-0.1,0.5,0,0.7-0.1
		c0.2,0.2,0.4,0.1,0.6,0c0,0,0.1,0,0.1,0c0.3,0.2,0.5,0,0.7-0.1C14.7,27.7,14.7,27.7,14.8,27.7z M24.3,27.1c0.1-0.2,0.5,0,0.6-0.3
		c0-0.1,0.1-0.1,0.2-0.1c0.1,0,0.3,0,0.3,0c0.2,0.1,0.3,0.2,0.5,0c0,0,0.2-0.1,0.2,0c0.2,0.2,0.3,0,0.4-0.1c0.2-0.1,0.3-0.2,0.5-0.2
		c0.1,0,0.1-0.1,0.1-0.2c0-0.1-0.1-0.1-0.1-0.1c-0.1,0.2-0.4,0-0.4,0c-0.1-0.3-0.4-0.2-0.6-0.4c-0.1-0.1-0.4,0-0.4-0.3
		c0-0.1-0.1-0.1-0.2-0.1c-0.2,0.2-0.3,0-0.5,0c-0.2,0-0.2-0.2-0.3-0.3c-0.1-0.2-0.3,0.1-0.4,0c-0.1-0.2-0.4-0.2-0.5-0.4
		c0,0,0-0.1-0.1,0c-0.1,0.1-0.3,0.1-0.5,0.1c-0.2,0-0.6,0.5-0.5,0.6c0.3,0.4-0.1,0.7,0,1c-0.2,0.2-0.1,0.3,0.1,0.4
		c0.1,0.1,0.2,0.1,0.3,0.2c0.1,0.1,0.2,0.1,0.2-0.1c0.1-0.3,0.2-0.1,0.4-0.1c0.2,0,0.3,0.1,0.5,0.2C24.2,27.1,24.2,27.1,24.3,27.1z"
		/>
	<path d="M8.1,14c0,0,0.1,0.1,0.1,0.1c0.2,0.3,0.2,0.3,0.5,0.2c0.2-0.1,0.2-0.1,0.3,0.1c0.1,0.2,0.4,0.2,0.6,0.3
		c0.3,0.1,0.5,0.2,0.7,0.3c0.2,0.1,0.4,0,0.6,0.2c0.2,0.2,0,0.4,0.1,0.6c0,0.2,0.2,0.3,0.3,0.3c0.2,0,0.2,0.2,0.2,0.3
		c-0.2,0.2,0,0.4,0,0.5c0.1,0.2,0.1,0.2,0,0.4c-0.2,0.2-0.2,0.4-0.1,0.7c0.1,0.1,0.3,0.3,0.2,0.4c-0.2,0.2-0.2,0.4-0.3,0.6
		c-0.1,0.1-0.2,0.3-0.1,0.5c0.1,0.1,0,0.1,0,0.1c-0.2,0.2-0.3,0.3-0.3,0.6c0,0.2-0.4,0.3-0.3,0.6c0,0.2-0.2,0.4-0.2,0.6
		c-0.1,0.3-0.4,0.4-0.5,0.7c0,0,0,0,0,0c-0.3-0.2-0.5,0.2-0.8,0.3c-0.2,0-0.4,0.1-0.5,0.3c-0.2-0.2-0.3-0.3-0.6-0.2
		c-0.1,0-0.2-0.1-0.3-0.1c-0.1-0.1-0.2-0.1-0.3,0c-0.1,0.1-0.2,0.1-0.4,0C6.6,22,6.3,21.8,6,21.5c-0.1-0.1-0.2-0.2-0.4-0.2
		c-0.2,0-0.4-0.2-0.4-0.5c0-0.2-0.1-0.3-0.1-0.4C4.9,20,4.9,20,4.9,19.5c0-0.5,0.2-1,0.1-1.4c0-0.1,0.1-0.2,0.1-0.2
		c0-0.2,0.2-0.3,0-0.5c0.1-0.2,0.1-0.4,0.2-0.6c-0.2-0.2,0-0.3,0.1-0.5c0.1-0.3,0.3-0.5,0.3-0.8c0-0.3,0.1-0.4,0.4-0.6
		c0.1-0.1,0.4-0.1,0.3-0.4c0-0.1,0.1-0.1,0.2-0.1c0.3,0.1,0.5-0.3,0.7,0c0,0,0.2-0.2,0.2-0.2C7.9,14.4,7.9,14.1,8.1,14z"/>
</g>
</svg>
