<?xml version="1.0" encoding="utf-8"?>
<!-- Generator: Adobe Illustrator 27.7.0, SVG Export Plug-In . SVG Version: 6.00 Build 0)  -->
<svg version="1.1" id="Ebene_1" xmlns="http://www.w3.org/2000/svg" xmlns:xlink="http://www.w3.org/1999/xlink" x="0px" y="0px"
	 viewBox="0 0 124.6 101.8" style="enable-background:new 0 0 124.6 101.8;" xml:space="preserve">
<g>
	<path d="M20.2,79.9c-0.2,0.4-0.3,0.9-0.7,0.3c0,0-0.5-0.3-0.7,0.1c-0.2,0.3-0.4,0.2-0.7,0.1c-0.9-0.4-1.4-1.1-1.8-2
		c-0.9,0.5-1.9,0.3-2.8,0.8c-0.4,0.2-0.8,0.6-1.1,0.9c-0.4,0.4,0,0.8,0.3,1.1c0.2,0.2,0.1,0,0.2-0.1c0-0.1,0.1-0.2,0.2-0.1
		c0.3,0.3,0.6,0.2,1,0c0.1-0.1,1.5,0.4,1.5,0.5c0.1,0.3,0.1,0.7,0,1c0,0.8,0,1.5,0,2.3c0,0.4,0,0.9-0.1,1.3
		c-0.1,0.4-0.2,0.9-0.7,1.1c-0.3,0.2-0.7,0.3-0.7,0.8c0,0.3-0.2,0.4-0.5,0.2c-0.4-0.3-0.9-0.4-1.4-0.6c-0.6-0.3-0.8-0.9-1.1-1.4
		c0-0.1-0.1-0.1-0.1-0.2c0.5-0.5-0.2-1.1,0-1.6c0.1-0.2,0-0.5-0.3-0.3c-0.5,0.2-1,0.3-1.6,0.4c-0.8,0.2-2.1-0.3-2.3-1.3
		c0-0.1-0.1-0.3,0-0.4c0.3-0.6,0-1.2,0.1-1.9c0.1-0.7,0.4-1.5,0.4-2.2c0-0.9,0.7-1.4,0.7-2.2c0-0.3,0.2-0.3,0.4-0.3
		c0.4,0,0.6-0.1,0.9-0.4c0.3-0.3,0.9-0.2,1.3-0.4c0.1,0,0.2,0,0.2,0c0.7-0.7,1.6-0.8,2.5-1.1c0.9-0.4,1.9-0.5,2.9-0.7
		c0.3-0.1,0.4-0.2,0.4-0.4c-0.1-0.3-0.3-0.2-0.5-0.1c-0.5,0.1-0.8-0.4-1.2-0.3c-0.4,0.1-0.8-0.1-1-0.6c0-0.1-0.2-0.2-0.4-0.2
		c-0.3-0.1-0.8-0.2-0.8-0.7c0-0.1-0.1-0.3-0.3-0.3c-0.8,0.1-1.1-0.6-1.4-1c-0.5-0.7-1.3-1.3-1.4-2.3c0-0.2-0.2-0.2-0.3-0.2
		c-0.2,0-0.4-0.1-0.5-0.3c-0.2-0.6-0.9-0.8-0.8-1.5c0-0.2-0.2-0.4-0.3-0.4c-0.5-0.2-0.5-0.8-1-1c-0.1-0.1-0.1-0.2-0.1-0.3
		c0-0.1,0.1-0.3,0-0.3c-0.8-0.6-0.5-1.6-1.1-2.2c-0.3-0.4-0.3-0.8-0.7-1.2c-0.2-0.2-0.4-0.5-0.2-0.8c0,0,0.1-0.1,0-0.2
		c-0.5-0.5-0.6-1.1-0.8-1.7c0-0.1-0.2-0.2-0.2-0.2c0.3-0.9-0.5-1.5-0.7-2.3C2.8,54,2.9,53,2.2,52.3c-0.2-0.2,0.2-0.6-0.1-0.8
		c-0.3-0.4-0.3-0.9-0.1-1.3c0.1-0.3-0.3-0.4-0.3-0.7c0-0.3-0.1-0.6,0.1-0.8c0.2-0.3,0-0.5-0.1-0.8c-0.2-0.4,0.3-0.7,0.5-0.9
		c0.3-0.6-0.1-0.9-0.4-1c-0.7-0.2-0.8-0.8-1-1.2c-0.2-0.5-0.5-0.9-0.7-1.4C-0.1,42.8,0,42,0.4,41.6c0.4-0.3,1-0.5,1.1-1.1
		c0.9-0.2,1.1-1.4,2-1.7c0.2-0.7,1.2-0.6,1.4-1.4c0.6,0,0.8-0.7,1.2-0.9c0.6-0.3,1.1-0.7,1.7-1c0.6-0.4,0.9-0.3,1.2,0.3
		c0.2,0.4,0.4,0.7,0.8,1c0.3,0.2,0.4,0.7,0.7,1c0.3,0.4,0.2,0.8,0,1.1c-0.3,0.4-0.6,0.8-1.2,1c-0.7,0.3-1.2,0.7-1.6,1.3
		c-0.2,0.4-0.6,0.4-1.1,0.6C7.4,42,8,42.1,8.8,42c0.3-0.1,0.8,0.1,1.1,0.1c0.5,0.1,1,0,1.6,0c0.6,0,1.2-0.2,1.8,0
		c0.1,0,0.2,0.1,0.3,0c0.5-0.4,0.9,0,1.4,0.1c0.4,0.1,0.5,0.1,0.5-0.3c0-0.2,0.2-0.2,0.3-0.2c1.1,0.4,1.7-0.4,2.4-0.8
		c0.1-0.1,0.3-0.1,0.4-0.2c0.3,0,0.7,0,0.8-0.5c0,0,0.1-0.1,0.1-0.1c0.7,0.2,0.7-0.8,1.3-0.8c0.1,0,0.3-0.3,0.3-0.4
		c0-0.5,0.6-0.6,0.7-1.1c0-0.1,0.2-0.1,0.3-0.1c0.3,0.1,0.5-0.1,0.5-0.3c0-0.3-0.3-0.3-0.5-0.3c-0.2,0-0.4,0-0.6-0.1
		c-0.9-0.1-1.7-0.7-2.5-0.9c-0.7-0.2-0.9-0.7-0.5-1.4c0.3-0.5,0.5-1.1,0.9-1.5c0,0,0-0.1,0.1-0.2c0.3-0.2-0.3-0.5,0.1-0.6
		c0.5-0.2,1-0.3,1.6-0.2c0.5,0.1,1,0.1,1.4,0.5c0.1,0.1,0.4-0.1,0.6,0c0.7,0.1,1.4,0.2,2,0.7c0.2,0.1,0.4,0.2,0.7,0.3
		c0.4,0.1,0.9,0,1,0.6c0.5,0,0.5,0.7,1.1,0.6c0.2,0,0.5,0.2,0.5,0.5c0,0.7-0.1,1.4-0.6,2c-0.1,0.1-0.1,0.3-0.1,0.4
		c-0.1,0.2-0.1,0.5-0.2,0.7c-0.9,0.7-1.3,1.8-2.1,2.6c-0.3,0.4-1.1,0.6-1,1.3c0,0-0.1,0.2-0.2,0.2c-0.6,0-0.7,0.4-0.9,0.8
		c-0.1,0.2-0.2,0.3-0.4,0.2c-0.1,0-0.2,0-0.3,0.1c-0.7,0.3-1.3,0.9-1.9,1.3c-0.2,0.1-0.3,0.5-0.2,0.7c0.1,0.6-0.1,1.2,0.3,1.7
		c0,0,0,0,0,0.1c-0.3,0.8,0.4,1.2,0.5,1.9c0,0.2,0.2,0.4,0.3,0.5c0.5,0.4,0.6,1,0.9,1.5c0.1,0.2,0.3,0.3,0.4,0.4
		c0.6,0.2,0.9,0.8,1.4,1.1c0.1,0.1,0.1,0.2,0.2,0.3c0.2,0.4,0.2,0.8,0.9,0.8c0.3,0,0.5,0.5,0.8,0.8c0.1,0.2,0.2,0.3,0.5,0.3
		c0.8,0.2,1.5,0.7,2,1.4c0.2,0.2,0.4,0.3,0.6,0.3c0.4,0.1,0.2-0.3,0.3-0.4c0.2-0.4,0.5-0.6,0.7-0.9c0.5-0.4,0.6-1.1,1.2-1.4
		c0.5-0.2,0.7-0.9,1.4-1c0.4,0,0.2-0.5,0.5-0.6c1.4-0.6,2.6-1.5,4.1-1.7c0.3,0,0.6-0.2,0.8-0.3c0.3-0.2,0.6-0.4,1-0.1
		c0.2,0.2,0.4-0.1,0.6-0.2c0.6-0.4,1.3-0.6,2-0.3c0.3,0.1,0.6,0.1,0.9-0.2c0.3-0.4,0.7-0.4,1-0.1c0.1,0.1,0.3,0.1,0.4,0
		c0.2-0.1,0.3-0.3,0.2-0.4c-0.4-0.7,0.2-1.1,0.5-1.6c0.1-0.1,0.2-0.2,0.3-0.2c0.7,0.3,1.5-0.5,2.2,0c0.6-0.5,1.4,0,2-0.3
		c0.3-0.2,0.8,0.1,1.1,0.2c1,0.2,2.1,0.2,3.1,0.2c0.4,0,0.8,0,1.2,0c1.3,0.1,2.6-0.1,3.8,0.1c0.4,0.1,0.1-0.4,0.4-0.5
		c0-0.5,0.4-0.9,0.6-1.3c0.2-0.7,0.4-1.3,0.5-2c0-0.2,0.1-0.4,0.2-0.5c0-0.1,0.2-0.2,0.2-0.2c-0.2-0.5,0.1-0.9,0.1-1.4
		c0-0.6,0-1.1,0.3-1.5c0.2-0.3-0.2-0.9-0.6-0.9c-0.4,0-0.8,0-1.3,0.3c-0.2,0.2-0.6,0.5-1.1,0.2c-0.1,0-0.3,0.1-0.4,0.2
		c-0.3,0.3-0.7,0.5-1.1,0.2c-0.1-0.1-0.2,0-0.4,0c-0.6,0.4-1.3,0.7-2.1,0.6c-0.2,0-0.6-0.1-0.9,0.2c-0.1,0.2-0.3,0-0.4,0
		c-0.2-0.1-0.4-0.1-0.6,0.1c-0.1,0.2-0.2,0.2-0.4,0.1c-0.5-0.1-1,0-1.5,0.2c-0.6,0.2-1.3,0.2-1.9,0.2c-0.9,0-1.7,0-2.6,0.3
		c-0.6,0.2-1.5-0.1-2.2-0.4c-0.6-0.3-1-0.8-1.7-0.9c-0.2,0-0.3-0.2-0.4-0.4c-0.1-0.2-0.2-0.4-0.5-0.5c-0.4-0.1-0.4-0.6-0.5-0.9
		c-0.1-0.3,0.3-0.2,0.5-0.4c-0.5-0.2-0.6-0.5-0.5-0.9c0.1-0.4,0.6-0.3,0.9-0.5c-0.4-0.2-0.4-0.4-0.1-0.7c0.4-0.4,0.5-0.9,1.1-1.1
		c0.1,0,0.2-0.2,0.3-0.1c0.5,0.3,1.2,0.2,1.7,0.6c0.1,0.1,0.3,0.2,0.4,0.2c0.9-0.3,1.6,0.2,2.4,0.4c0.6,0.1,1.1,0.1,1.7,0.1
		c0.3,0,0.8-0.2,1.1-0.3c0.5-0.3,1,0,1.5-0.3c0.1-0.1,0.2,0,0.3,0.1c0.3,0.2,0.6,0.1,0.8-0.1c0.3-0.3,0.6-0.3,0.9-0.3
		c0.4,0,0.8,0.1,1.2-0.3c0.1-0.1,0.3-0.2,0.3-0.1c0.7,0.4,1.1-0.1,1.6-0.4c0.1-0.1,0.2,0,0.3,0c0.2,0.1,0.4,0.1,0.5,0
		c0.6-0.6,1.4-0.2,2-0.6c0.1-0.1,0.2-0.1,0.4,0c0.2,0.1,0.4,0.1,0.5-0.1c0.4-0.3,0.8-0.4,1.3-0.2c0.1,0,0.2,0.1,0.3,0
		c0.4-0.4,0.8-0.2,1.2-0.1c0.6,0,1.3,0.2,1.9,0c0.5-0.2,1,0.2,1.5-0.1c0.1,0,0.3,0,0.3,0.1c0.2,0.9,1,0.5,1.4,0.5
		c0.7,0,0.8,0.5,0.9,0.9c0.1,0.2,0.1,0.5,0.4,0.7c0.2,0.1,0.2,0.2,0.2,0.4c0,0.2,0,0.3,0.2,0.4c0.3,0.1,0.4,0.3,0.3,0.7
		c0,0.1,0,0.2,0.1,0.2c0.7,0.2,0.7,0.8,0.8,1.3c0.1,0.4,0.6,0.7,0.5,1.2c0,0,0.1,0.1,0.1,0.1c0.7-0.2,1.2,0.5,1.9,0.3
		c0.1,0,0.2-0.1,0.3,0c0.5,0.3,1,0.4,1.5,0.5c0.4,0.1,0.9,0.3,1.3,0.5c0.5,0.2,0.7,0.8,1.2,1c0.3,0.2,0.5,0.5,0.7,0.7
		c0.5,0.3,0.4,0.9,0.7,1.3c0.5,0.7,0.6,1.5,0.8,2.2c0.1,0.4,0.3,0.8,0,1.2c-0.1,0.1,0,0.2,0,0.3c0.4,0.8,0.2,1.6,0.1,2.4
		c-0.1,1.3-0.5,2.5-0.7,3.8c0,0.2,0,0.3,0.1,0.5c0.5,0.4,1,0.6,1.6,0.9c0.4,0.2,0.9,0.3,1.2,0.7c0.2,0.3,0.6,0.5,0.8,0.6
		c0.7,0.3,1.2,0.8,1.6,1.4c0,0,0.1,0.1,0.1,0.1c0.6,0,0.8,0.6,1.2,0.9c0.2,0.2,0.4,0.2,0.7,0.2c0.3,0,0.7-0.3,0.9,0.2
		c0.3-0.3,0.7,0.2,1-0.1c0.3-0.2,0.6-0.3,0.8-0.1c0.4,0.2,0.7,0.2,1-0.1c0.3-0.3,0.7-0.4,1.1-0.4c0.1,0,0.3,0,0.3,0
		c0.4-0.7,1.3-0.5,1.8-0.9c0.1-0.1,0.3-0.2,0.3-0.3c0.2-0.3,0.5-0.4,0.9-0.5c0.3,0,0.4-0.1,0.6-0.4c0.2-0.3,0.4-0.6,0.8-0.4
		c0.1,0,0.2,0,0.3-0.1c0.4-0.7,1.1-1,1.6-1.4c0.6-0.5,1.2-1,1.7-1.7c0.1-0.2,0.3-0.3,0.5-0.3c0.4-0.1,0.6-0.3,0.7-0.7
		c0.1-0.4,0.5-0.5,0.8-0.8c0.2-0.2,0.5-0.4,0.5-0.6c0.1-0.4,0.4-0.5,0.7-0.5c0.5,0,1-0.2,1.4-0.3c0.1,0,0.2,0,0.2,0
		c0.4,0.5,1,0.5,1.6,0.3c0,0,0.1,0,0.1,0c1,0.5,2.1,0.6,2.9,1.4c0.5,0.5,1,0.9,1.4,1.5c0.1,0.1,0.2,0.2,0.4,0.3
		c-0.1-0.7,0.4-0.7,0.8-0.9c0.1-0.1,0.3,0,0.3-0.2c0.3-0.5,1-0.8,1.6-0.7c0.5,0.1,1,0.1,1.5,0.2c0.2,0,0.5,0.1,0.7,0.2
		c0.7,0.4,1.5,0.3,2.1,0.7c0.5,0.3,1.1,0,1.6,0.5c0.1,0.2,0.5,0.3,0.9,0.2c0.4-0.2,0.7,0.4,1.2,0.5c0.4,0.1,0.7,0.7,1.2,0.7
		c0.3,0,0.2,0.3,0.2,0.4c0,0.6,0.3,1,0.8,1.2c0.5,0.3,0.6,1.1,0.3,1.5c-0.1,0.1-0.3,0.3-0.2,0.5c0.3,0.6,0.2,1.2-0.1,1.7
		c-0.4,0.8-0.3,1.6-0.6,2.4c-0.2,0.5-0.5,1-0.3,1.6c0.1,0.2-0.1,0.5-0.2,0.6c-0.3,0.6,0,1.2-0.4,1.8c-0.3,0.3-0.5,0.9-0.4,1.5
		c0.1,0.5-0.4,0.7-0.5,1.2c-0.1,0.5-0.4,1.1-0.7,1.5c-0.4,0.6-0.9,1.2-1.3,1.7c-0.1,0.1-0.3,0.1-0.2,0.3c0.1,0.2,0,0.3-0.2,0.5
		c-0.1,0.1-0.2,0.2-0.2,0.4c0,0.6-0.2,1-0.7,1.3c-0.2,0.1-0.2,0.3-0.3,0.5c-0.2,0.6-0.6,0.7-1.1,1c-0.2,0.1-0.6,0.3-0.7-0.1
		c-0.1-0.2-0.3-0.1-0.4,0c-0.2,0.2-0.3,0.4-0.2,0.6c0,0.1,0.1,0.1,0.1,0.1c0.3,0.8,0.2,0.9-0.3,1.5c-0.6,0.6-1.4,1-2.2,1.1
		c-0.5,0.1-0.8,0.5-1.4,0.5c-1,0-1.9,0.5-2.8,0.9c-0.1,0-0.2,0.1-0.2,0.2c-0.1,0.6-0.2,1.3-0.1,1.9c0.1,0.6,0.7,0.6,1.2,0.8
		c0.8,0.3,1.5,0.6,2.3,1c0.3,0.1,0.6,0.4,0.9,0.5c0.9,0.3,1,1.1,1.4,1.7c0,0,0,0.1,0,0.1c-0.8,0.5-0.7,1.6-1.3,2.3c0,0,0,0.1,0,0.1
		c0.5,0,1,0.2,1.6,0c0.7-0.2,1.4,0.2,1.9,0.6c0.3,0.3,0.7,0.9,0.6,1.5c0,0.2,0,0.4,0.1,0.6c0.3,0.5,0.2,1,0.1,1.4
		c0,0.2,0,0.7-0.6,0.5c-0.1,0-0.2,0.1-0.3,0.2c-0.2,0.5-0.6,0.4-1,0.6c-0.6,0.2-1.2,0.3-1.8,0.2c-0.4,0-0.7-0.4-1.1-0.4
		c-0.6,0-0.4-0.5-0.6-0.8c-0.4-0.6,0-1.4-0.5-2c-0.2-0.2,0.2-0.7,0.5-0.9c0.4-0.2,0.4-0.6,0.3-0.9c-0.1-0.3-0.3-0.4-0.7-0.4
		c-0.6,0-1.1-0.3-1.6-0.7c-0.7-0.5-1.6-0.7-2.4-1.2c-0.4-0.2-0.8,0.3-1.2,0.4c-0.8,0.3-1.2,1.2-2,1.4c-0.4,0.1-0.1,0.4,0.1,0.5
		c0.9,0.5,1.3,1.3,1.2,2.3c0,0.5,0.2,0.9,0.3,1.3c0.1,0.4,0.2,0.7-0.2,1c-0.4,0.3-0.7,0.7-1,1.1c-0.1,0.1-0.2,0.6-0.5,0.1
		c0,0-0.1,0-0.2,0c-1.1,0.6-2.2,0.6-3.3-0.2c-0.2-0.1-0.5-0.2-0.7-0.4c-0.2-0.2-0.2-0.5-0.3-0.7c-0.4-0.6,0.1-1.1,0-1.7
		c0,0,0-0.1,0-0.1c0.6-0.8,0.6-1.9,1.4-2.7c0.3-0.2,0-0.5-0.2-0.8c-0.2-0.2-0.6-0.6-0.5-0.8c0.2-0.6-0.3-0.7-0.5-0.9
		c-0.2-0.3-0.1-0.5,0-0.6c0.7-0.6,1.6-1.1,2.2-1.7c0.5-0.5,1.3-0.6,1.5-1.4c0.2-0.5,0-1-0.3-1.4c-0.7,0.7-1.5,1.3-2.2,2
		c-0.1,0.1-0.2,0.2-0.2,0.3c-0.1,0.7-0.6,1-1.1,1.5c-0.2,0.2-0.5,0.4-0.5,0.8c-0.1,0.3-0.2,0.6-0.4,0.8c-0.1,0.1-0.2,0.2-0.1,0.4
		c0,0.1,0,0.2,0,0.3c-0.8,1.1-0.9,2.3-1,3.5c-0.2,1.3-0.1,2.7-0.6,4c-0.2,0.5-0.7,0.6-1.1,0.9c-0.6,0.5-1.4,0.1-2,0.6
		c-0.4-0.5-1.2,0.4-1.5-0.4c0-0.1-0.2-0.1-0.3-0.1c-0.3,0.1-0.4-0.1-0.4-0.4c0,0,0-0.1,0-0.1c0.2-0.5-0.5-0.9-0.3-1.2
		c0.2-0.4,0.4-0.8,0.2-1.2c0-0.1,0-0.2,0.1-0.3c0.2-0.3,0.5-0.6,0.2-1c0,0,0-0.1,0-0.2c0.5-0.9,0.1-1.8,0.2-2.7
		c0-0.2,0.1-0.3,0.2-0.4c0.5-0.4,0.5-0.9,0.2-1.6c-0.3,0.4-0.8,0.3-1.2,0.3c-0.7,0-1.5,0-2.1,0.4c-0.5,0.4-0.8,1-1,1.6
		c-0.3,0.7-0.8,1.1-1.3,1.6c-0.4,0.3-0.6,0.8-0.6,1.3c0,0.6-0.2,0.9-0.7,0.9c-0.4,0-0.7,0.2-0.9,0.5c-0.1,0.2-0.2,0.1-0.4,0.1
		c-0.4-0.1-0.7-0.6-1.2-0.5c-0.1,0-0.3-0.2-0.4-0.3c-0.1-0.1-0.1-0.1-0.1-0.2c-0.4,0.5-0.5-0.2-0.8-0.3c-0.4-0.1-0.7-0.9-0.5-1.2
		c0.5-0.7,0.2-1.6,0.9-2.1c0.1,0,0.1-0.2,0-0.3c-0.2-0.4,0-0.7,0.5-1c-0.7-0.3-1.3-0.6-2-0.5c-0.9,0.1-1.8,0.1-2.7-0.1
		c-0.1,0-0.3,0-0.4,0.1c-0.4,0.1-0.8,0.1-1.2-0.2c-0.2-0.2-0.5-0.1-0.8-0.1c-0.5,0.1-1,0.3-1.5-0.1C75.1,88,75,87.9,74.9,88
		c-0.3,0.1-0.5,0-0.9-0.1c-0.6-0.2-1.3-0.2-2-0.3c-0.3-0.1-0.4,0.1-0.3,0.4c0.2,0.6,0.3,1.3,0.1,1.9c-0.2,0.6,0.3,1.4-0.3,1.9
		c0,0,0,0.1,0,0.2c0.7,1,0,2.1,0.1,3.1c0,0.4,0,0.8,0.1,1.1c0.2,0.8-0.5,1.5,0.1,2.2c0.1,0.1-0.1,0.3-0.1,0.5
		c-0.1,0.2-0.2,0.4-0.1,0.6c0.3,0.7,0,1.1-0.5,1.5c-0.1,0.1-0.1,0.2-0.2,0.4c-0.2,0.3-0.4,0.6-0.8,0.4c-0.2-0.1-0.3,0-0.4,0
		c-0.2,0.1-0.4,0.2-0.5-0.1c-0.1-0.1-0.2-0.1-0.2-0.1c-0.4,0.3-0.9-0.2-1.3,0.2c0,0-0.2,0-0.2,0c0-0.7-1.2-0.6-1.1-1.6
		c0.1-0.7,0-1.4-0.1-2.1c0-0.1,0.1-0.3-0.1-0.4c-0.2-0.2-0.2-0.4-0.1-0.7c0.4-0.8,0.2-1.6,0.2-2.4c0-0.5-0.2-1,0-1.6
		c0.1-0.3,0.2-0.8,0.2-1.2c0-0.3-0.3-0.5-0.2-0.8c0-0.3,0.1-0.8,0.1-1.1c0-0.7-0.2-1.3,0.1-2c0.1-0.3-0.2-0.5-0.2-0.8
		c0-0.4-0.4-0.2-0.6-0.2c-0.3,0-0.5-0.2-0.7-0.3c-0.6-0.4-1.2-0.4-1.8-0.6c-0.8-0.3-1.7-0.2-2.5-0.8c-0.2-0.2-0.4,0.1-0.6,0.1
		c-0.4-0.1-0.6-0.4-1-0.5c-0.6-0.1-1.2-0.1-1.7-0.3c-0.8-0.3-1.7-0.3-2.3-1c-0.1-0.2-0.3-0.1-0.4-0.1c-0.6,0-1.1,0-1.7-0.3
		c-0.5-0.2-1.1-0.7-1.8-0.4c-0.2,0.1-0.4-0.1-0.6-0.2c-0.4-0.3-1.1,0-1.3-0.7c0,0-0.1-0.1-0.2-0.1c-0.8,0-1.4-0.4-2-0.8
		c0,0-0.1-0.1-0.2-0.1c-0.7,0.3-0.9-0.4-1.2-0.7c-0.3-0.3-0.8-0.4-1.1-0.3c-0.3,0.1-0.1,0.6,0,0.7c0.3,0.4,0.1,0.8-0.1,1.1
		c-0.3,0.4,0,0.8,0.1,1.2c0,0.1,0.2,0.3,0.1,0.4c-0.5,0.4-0.1,0.7-0.1,1.1c0.1,0.4,0,0.8,0,1.2c0,0.4-0.2,0.7,0.1,1.1c0,0,0,0,0,0.1
		c-0.4,0.6,0,1.3,0,1.9c0,0.7-0.3,1.2-0.4,1.8c0,0.2-0.4,0.3-0.6,0.5c-0.2,0.2-0.4,0.2-0.6-0.1c-0.1-0.1-0.1,0-0.2,0.1
		c-0.5,0.5-1.7,0.5-2.3,0c-0.1-0.1-0.2-0.2-0.3-0.1c-0.1,0.1-0.1,0.5-0.4,0.3c-0.2-0.1-0.4-0.4-0.4-0.6c0-0.4-0.5-0.7-0.1-1.2
		c0.1-0.1-0.1-0.2-0.2-0.3c-0.2-0.2-0.2-0.4-0.1-0.7c0.3-0.6-0.1-1.3,0.3-1.9c0-0.1,0-0.5-0.1-0.6c-0.4-0.6-0.1-1.2-0.3-1.8
		c-0.1-0.3-0.1-0.6,0.2-0.9c0.2-0.2,0.1-0.5,0-0.7c-0.2-0.4-0.2-0.7-0.1-1.1c0-0.2,0-0.5-0.1-0.7c-0.2-0.6,0.1-1.1,0.1-1.6
		c-0.1-0.8,0-1.6-0.2-2.4c-0.1-0.4-0.5-0.2-0.7-0.4c-0.1,0.2-0.2,0.4-0.3,0.6c-0.4,0.9,0,1.9-0.5,2.7c0,0.1-0.1,0.2,0,0.3
		c0.4,1-0.1,1.9-0.5,2.7c-0.2,0.6-1.8,0.8-2.3,0.4c-0.3-0.3-0.6,0.2-1,0c-0.1-0.1-0.1,0.4-0.1,0.5c0.1,1-0.2,1.9-0.1,2.9
		c0.1,0.8-0.5,1.4-0.9,2c-0.1,0.1-0.3,0.1-0.4,0.1c-0.6,0-1.2,0.1-1.8,0.2c-1,0.1-1.9-0.3-2.7-0.9c-0.1-0.1-0.1-0.1-0.1-0.2
		c0.3-0.6,0-1.3,0.2-2c0.1-0.3,0-0.4-0.3-0.4c-0.1,0-0.2,0-0.2,0c-0.4-0.2-0.8-0.2-1.3-0.1c-0.8,0.3-1.5-0.2-1.6-1.2
		c-0.1-0.4-0.2-0.8-0.3-1.2c-0.2-0.8,0.3-1.6,0.3-2.4c0-0.2,0.2-0.2,0.3-0.3c0.6-0.1,1.1-0.5,1.7-0.5c0.4,0,0.6-0.4,1.1-0.3
		c0.1,0,0.2-0.4,0-0.5c-0.2-0.2-0.2-0.4-0.3-0.7c-0.1-0.7-0.3-1.4-0.8-1.9c-0.6-0.6-0.7-1.4-0.9-2.1c-0.2-0.7-0.2-0.7-0.8-0.4
		c-0.2,0.1-0.5,0.2-0.7,0.2c-0.5-0.1-0.9,0.1-1.4,0c-0.4-0.1-0.8,0.5-0.6,0.9c0.4,0.7,0.2,1.3,0.1,2c0,0.2-0.1,0.3,0,0.5
		c0.3,1-0.3,1.7-0.6,2.5C21.1,80.2,20.6,80.3,20.2,79.9z M47.5,61.8c-0.5-0.1-1.1,0.1-1.5-0.4c-0.1-0.1-0.3-0.1-0.4-0.1
		c-0.4,0.1-0.6-0.2-0.6-0.4c0-0.3-0.2-0.6,0.2-0.8c0.2-0.1,0.1-0.2,0-0.3c-0.2-0.3-0.2-0.6-0.1-0.8c0.1-0.4,0.1-0.7-0.2-1.1
		c-0.1-0.1,0-0.2-0.1-0.3c-0.1-0.4-0.1-0.9-0.1-1.3c0-0.6-0.4-1-0.3-1.6c0-0.2-0.3-0.3-0.3-0.2c-0.2,0.5-0.6,0.2-0.9,0.3
		c-1.4,0.2-2.8,0.7-4.2,0.8c-0.4,0-0.8,0.1-0.9,0.7c0,0.2-0.2,0.4-0.5,0.3c-0.5,0-0.9,0.1-1.1,0.7c0,0.1-0.2,0.3-0.3,0.3
		c-0.5,0-0.8,0.3-1.1,0.6c-0.4,0.4-0.6,1-1.2,1.3c-0.1,0-0.1,0.3-0.1,0.4c0.1,0.4,0,0.7-0.2,1c-0.2,0.5-0.1,1.1-0.1,1.6
		c0.1,0.8,0.6,1.4,1,2c0.3,0.7,0.6,1.4,1.1,1.9c0.5,0.5,0.7,1.2,1.2,1.6c0.8,0.8,1.8,1.6,2.7,2.3c0.6,0.4,1,1.1,1.7,1.3
		c0.6,0.2,1.1,0.7,1.6,0.9c0.7,0.3,1.3,0.9,2.1,1.3c0.8,0.4,1.6,0.8,2.4,0.9c0.1,0,0.3,0,0.3,0.1c0.2,0.5,0.7,0.6,1.1,0.7
		c0.4,0.1,0.9,0,1.1,0.5c0,0.1,0.1,0.1,0.2,0.1c0.6,0,1,0.2,1.5,0.5c0.1,0.1,0.2,0.1,0.4,0.1c0.3,0,0.6,0.1,0.9,0.2
		c0.5,0.1,0.9,0.6,1.3,0.6c0.5,0,0.9,0.5,1.4,0.2c0.9,0.6,2,0.5,2.9,1c0.6,0.3,1.4,0.3,2,0.7c0.6,0.3,1.4,0.2,2,0.5
		c0.3,0.1,0.7,0,0.8,0.4c0,0,0.1,0.1,0.1,0.1c0.8,0,1.5-0.2,2.1,0.5c0,0,0.2,0,0.3,0c0.8,0,1.6,0.5,2.4,0.5c0.1,0,0.2,0.1,0.2,0.2
		c0.1,0.3,0.2,0.2,0.4,0.1c0.5-0.2,1.1-0.3,1.5-0.1c0.6,0.3,1.3,0.2,1.9,0.5c0.5,0.3,1.2,0.4,1.8,0.3c0.2,0,0.5,0.1,0.7,0.2
		c0.6,0.3,1.2,0.4,1.8,0.4c0.8,0,1.5,0,2.2,0.2c0.3,0.1,0.7,0.1,0.9,0c0.3-0.1,0.5-0.1,0.7-0.1c0.5,0.1,0.9,0.3,1.4,0.2
		c0.7-0.1,1.5,0.2,2.2,0.1c0.1,0,0.2-0.1,0.3,0c0.7,0.2,1.3,0,2,0.1c0.3,0,0.4-0.3,0.6-0.2c0.5,0.4,0.9,0.1,1.4,0.1
		c0.7,0,1.5,0.1,2.1-0.1c0.9-0.3,1.8-0.3,2.6-0.6c1.4-0.5,2.7-1,3.8-1.9c0.6-0.5,1.3-1,1.8-1.6c0.5-0.5,0.7-1.2,1.1-1.7
		c0.2-0.3,0.5-0.5,0.5-0.9c-0.1-0.9-0.1-1.8,0.4-2.5c0.1-0.1,0.1-0.2,0-0.3c-0.4-0.2-0.5-0.5-0.3-0.9c0.1-0.1,0-0.2-0.1-0.3
		c-0.4-0.3-0.7-0.6-0.5-1.1c0,0-0.1-0.2-0.2-0.2c-0.3-0.3-0.6-0.6-1-0.9c-0.1-0.1-0.3-0.2-0.5-0.2c-0.5,0.1-0.9,0.6-1.5,0.1
		c0,0-0.1,0-0.1,0c-0.3,0.4-0.8,0.3-1.2,0.3c-0.9,0-1.8,0.3-2.7,0.6c-0.5,0.1-1.1,0.2-1.6,0.4c-0.6,0.3-1.2,0.1-1.7,0.4
		c-0.4,0.2-1,0.3-1.4,0.4c-0.5,0.2-1.1,0.4-1.6,0.4c-0.7-0.1-1.4-0.4-2.1-0.7c-0.9-0.4-1.8-0.8-2.6-1.2c-0.7-0.3-1.5-0.8-2.2-1.1
		c-0.3-0.1-0.7-0.3-1-0.5c-0.5-0.5-1.4-0.5-1.8-1.3c0,0-0.1,0-0.1,0c-0.7,0.1-1-0.5-1.5-0.8c-0.2-0.2-0.6,0-0.7-0.4
		c-0.1-0.4-0.3-0.4-0.6-0.4c-0.3-0.1-0.6-0.2-0.6-0.6c0-0.1,0-0.2-0.1-0.3c-0.7-0.1-0.5-0.9-0.8-1.3c-0.3-0.5-0.3-1.2-0.6-1.7
		c-0.4-0.8-0.7-1.7-0.5-2.6c0.1-0.4-0.4-0.6-0.4-0.9c0-0.8-0.4-1.5-0.5-2.3c0-0.2,0-0.3-0.3-0.3c-0.3,0.1-0.6,0-0.8-0.2
		c-0.1-0.1-0.5-0.1-0.5,0.1c0,0.4-0.2,0.7,0,1.1c0.2,0.6,0.5,1.4-0.1,2.1c-0.1,0.1,0,0.2,0,0.3c0.2,0.3,0.2,0.5-0.1,0.6
		c-0.1,0.1-0.2,0.2-0.1,0.3c0.2,0.2,0,0.4-0.1,0.6c-0.1,0.3-0.4,0.3-0.6,0.5c-0.4,0.4-1,0.4-1.5,0.6c-0.1,0-0.3,0-0.5-0.2
		c-0.2-0.3-0.6-0.6-0.9-0.5c-0.4,0.1-0.8,0-1.1,0.4c-0.3,0.4-0.8,0.3-1.1,0.7c-0.1,0.1-0.1,0-0.2,0c-0.3-0.3-0.6-0.4-1.1-0.1
		c-0.1,0.1-0.6-0.2-0.7-0.1c-0.6,0.7-1.3-0.3-1.9,0.2c-1.1-0.2-2.2-0.3-3.4-0.3c-0.9,0-1.7-0.1-2.5-0.2c-0.5-0.1-1.1,0.2-1.6-0.3
		c0,0-0.1,0-0.2,0c-0.5,0.4-1,0.1-1.4,0C49,61.9,48.2,62,47.5,61.8z M19.9,67.9c0,0,0.3,0.1,0.4,0c0.2-0.1,0.6,0,0.6-0.3
		c0-0.2-0.2-0.4-0.5-0.5c-0.3-0.2-0.5-0.5-0.6-0.8c-0.3-0.4-0.3-0.9-0.8-1.2c-0.5-0.3-1-0.6-1.3-1.1c-0.2-0.3-0.3-0.7-0.3-1.1
		c-0.1-0.5-0.6-0.7-0.8-1c-0.7-0.9-1.1-2-1.7-2.9c-0.2-0.2-0.4-0.4-0.5-0.8c-0.1-0.4-0.2-0.9-0.4-1.3c-0.5-0.7-0.9-1.5-1.2-2.3
		c-0.4-0.9-0.5-1.9-1.3-2.6c-0.2-0.2,0.1-0.5-0.1-0.7c-0.5-0.3-0.5-0.9-0.6-1.3c-0.2-0.6-0.5-1.2-0.6-1.9c-0.2-0.8-0.8-0.9-1.3-0.9
		c-0.4,0-0.9,0-1.4,0c-0.3,0-0.4,0.2-0.2,0.4c0.4,0.6,0.2,1.4,0.3,2c0.1,0.7-0.1,1.5,0.6,2.1c0,0,0,0.1,0,0.1c0,0.8,0.5,1.5,0.3,2.2
		c0,0.1,0,0.2,0,0.2c0.6,0.4,0.6,1,0.8,1.6c0.1,0.4,0.3,0.6,0.2,1c-0.1,0.2,0.1,0.4,0.3,0.6c0.7,0.5,0.6,1.4,1.2,2.1
		c0.2,0.2,0.2,0.7,0.4,1.1c0.2,0.6,0.5,1.2,0.9,1.6c0.3,0.3,0.4,0.8,0.8,1c0.2,0.1,0.2,0.3,0.4,0.4c0.3,0.4,0.3,1,0.8,1.2
		c0.3,0.1,0.5,0.3,0.7,0.6c0.2,0.3,0.3,0.7,0.8,0.6c0.3,0,0.2,0.3,0.2,0.4c0,0.2-0.1,0.6,0.2,0.6c0.4,0.1,0.8,0.4,1.2,0.4
		C17.9,67.8,18.8,67.9,19.9,67.9z M92.8,67.3c0,0.3-0.4,0.5-0.2,0.6c0.3,0.1,0.4,0.6,0.8,0.4c0.4-0.2,0.8-0.2,1.1-0.2
		c0.5,0,0.9-0.4,1.3-0.3c0.2,0.1,0.4,0,0.5-0.1c0.5-0.1,0.9-0.7,1.4-0.6c1.1,0.2,1.8-0.9,2.8-0.9c0.5,0,1.1-0.7,1.7-1.1
		c0.7-0.4,1.4-0.8,2-1.4c0.3-0.2,0.4-0.6,0.8-0.8c0.6-0.3,1.1-0.8,1.4-1.3c0.4-0.5,0.7-1.1,1.2-1.5c0.4-0.3,0.7-0.9,0.9-1.3
		c0.3-0.5,0.5-1.1,0.6-1.7c0.1-0.4-0.2-0.8-0.5-0.8c-0.2,0-0.3,0-0.5-0.1c-0.3-0.2-0.7-0.1-0.8-0.6c-0.4,0.2-0.6-0.1-0.8-0.3
		c-0.3-0.2-0.5-0.1-0.8,0c-0.5,0.3-0.6,0.9-1,1.3c-0.5,0.6-1.1,1.1-1.6,1.7c-0.2,0.2-0.2,0.6-0.5,0.7c-0.5,0.4-0.8,0.9-1.5,1.2
		c-0.8,0.3-1.1,1.3-1.9,1.7c-0.6,0.4-1.1,0.5-1.7,0.8c-0.2,0.1-0.3,0.1-0.5,0.2c-0.7,0.6-1.6,0.5-2.4,0.8c-0.6,0.2-1.3,0.2-1.9,0.3
		c-0.5,0.1-0.9,0.5-1.2,0.9c-0.2,0.3,0.1,0.6,0.2,0.9c0,0.2,0.3,0.4,0.1,0.7C92.1,66.7,92.2,67.4,92.8,67.3z M50.1,57.6
		c0.7-0.4,1.2,0.3,1.9,0.2c1.1-0.1,2.1,0.6,3.2,0.3c0.7-0.2,1.3,0.4,2,0.2c0.3-0.1,0.7,0,1,0c0.5,0,1.5,0.5,1.1-0.8
		c0.4-0.5,0.3-1.1,0.3-1.6c0.1-0.9,0-1.8,0.4-2.7c0.1-0.2,0-0.4-0.2-0.4c-0.5,0-1.1-0.2-1.5-0.1c-0.8,0.2-1.6-0.2-2.5,0
		c-0.8,0.2-1.6-0.2-2.4-0.1c-0.5,0.1-1.1-0.2-1.7-0.1c-0.5,0.1-1-0.2-1.5-0.1c-0.2,0-0.5,0.1-0.7-0.2c-0.2-0.2-0.3-0.1-0.5,0
		c-0.2,0.1-0.2,0.2-0.2,0.4c0.2,0.5-0.1,1.1,0.2,1.7c0.2,0.4,0.2,1.1,0.2,1.6c0,0.4,0.3,0.9,0.1,1.3c-0.2,0.3-0.2,0.5,0.3,0.4
		C49.7,57.5,49.9,57.6,50.1,57.6z M112.7,73.7c0.6,0.1,0.9-0.2,1.2-0.5c0.2-0.2,0.5-0.6,0.3-0.9c-0.2-0.4-0.4-0.9-0.5-1.3
		c-0.1-0.5-0.9-0.6-0.5-1.2c0,0-0.1-0.1-0.1-0.1c-0.2-0.2-0.8,0.1-0.7-0.5c-0.1,0-0.3-0.1-0.3,0c-0.6,0.6-1.4,0.4-2.1,0.6
		c-0.4,0.2-0.9,0.2-1.3,0.3c-0.3,0.1-0.5,0.4-0.9,0.3c-0.7-0.2-1,0.3-1.4,0.6c-0.6,0.5-0.5,0.8-0.2,1.5c0.2,0.4,0.5,0.9,0.3,1.2
		c-0.1,0.4,0,0.6,0,1c0,0.3,0.1,0.5,0.4,0.3c0.7-0.4,1.6,0.2,2.2-0.5c1.1,0.1,2-0.4,3-0.6C112.3,73.8,112.5,73.5,112.7,73.7z
		 M115.2,68.5c0.7-0.1,1.1-0.2,1.3-0.7c0.2-0.4,0.6-0.8,0.7-1.2c0.1-0.5,0.6-1,0.5-1.5c-0.2-0.8,0.2-1.4,0.4-2
		c0.2-0.6,0.5-1.3,0.4-1.8c-0.1-0.6,0.2-1.1,0.2-1.6c0.1-0.5,0.6-1-0.4-1.1c-0.4-0.7-1.2-0.5-1.9-0.8c-0.6-0.3-1.4-0.5-2.2-0.5
		c-0.3,0-0.6,0-0.8,0.2c-0.1,0.2,0.2,0.3,0.2,0.5c0,0,0,0,0,0.1c-0.1,1,0.7,1.7,0.6,2.7c0,0.1,0,0.1,0.1,0.2
		c0.4,0.6,0.5,1.2,0.5,1.9c0,0.4-0.1,0.8,0.1,1.2c0.4,1,0.8,1.9,0.3,3c0,0,0,0.1,0,0.1C115.5,67.5,115.1,68,115.2,68.5z M74.8,57.9
		c0.1,0.2,0.2,0.4,0.2,0.5c0.4,1.3,0.9,2.6,1.3,3.8c0.3,0.8,1,1.2,1.5,1.7c0.3,0.3,0.9,0.2,1.2,0.5c1,0.8,2.2,1.1,3.2,1.8
		c0.1,0.1,0.3,0.1,0.4,0c0.2-0.1,0.1-0.2,0.1-0.4c-0.1-0.3-0.2-0.7-0.4-1.1c-0.4-0.8-0.7-1.6-0.8-2.5c0-0.2-0.1-0.4-0.2-0.6
		c-0.6-0.5-1.1-0.9-1.8-1.2c-0.4-0.2-0.5-0.8-1.1-0.6c0,0-0.1-0.1-0.1-0.2c-0.2-0.4-0.7-0.6-1-0.6c-0.4,0-0.8-0.3-0.8-0.3
		c-0.2-0.5-0.7-0.5-1.1-0.6C75.2,58.2,75.3,57.7,74.8,57.9z M73,50.3c0.1,0.3,0,0.5,0,0.6c0.1,0.7,0.6,0.7,1.1,0.7
		c0.4,0,0.6-0.1,0.7-0.4c0.1-0.4,0.1-0.7,0.3-1.1c0.2-0.6,0.5-1.2,0.5-1.8c0-0.6-0.1-1.3-0.3-2c-0.2-0.5-0.3-0.8-0.8-1.1
		c-0.3-0.2-0.7-0.3-1.1-0.5c-0.3-0.2-0.5-0.1-0.6,0c-0.2,0.2-0.3,0.5-0.2,0.8c0.4,0.8,0.5,1.5,0.3,2.4c-0.1,0.3-0.2,0.8-0.1,0.9
		C73.1,49.3,72.5,50,73,50.3z M30.3,71.4c0.2,0.4,0.4,0.7,0.5,1.2c0.1,0.4,0.2,0.9,0.5,1.2c0.6,0.5,0.9,1.2,1.1,1.9
		c0.1,0.2,0.1,0.5,0.3,0.5c0.1,0,0.2-0.3,0.2-0.5c-0.1-1.1,0.2-2.2,0.2-3.3c0-0.3-0.1-0.5-0.3-0.8c-0.2-0.3-0.7-0.4-0.7-0.8
		c0-0.2,0.1-0.5-0.1-0.5c-0.2,0-0.5,0-0.7,0.3C31.1,71,30.8,71.3,30.3,71.4z"/>
	<path d="M58.2,11.6c-0.2-0.6-0.1-1.2,0-1.7c0-0.5-0.5-0.8-0.8-1.1c-0.5-0.5-1.1-0.8-1.8-0.9c-0.1,0-0.1-0.1-0.2-0.2
		c-0.3-0.6-1-0.8-1.3-1.4c-0.2-0.4-0.2-1,0.2-1.1c0.4-0.2,0.6-0.5,0.9-0.8c0.4-0.4,0.5-1.2,1.3-1c0.1,0,0.2,0,0.2,0
		c0.7,0.5,1.5,0.8,2.2,1.3c0.5,0.4,1.2,0.8,1.8,1.1c0.5,0.2,1.1-0.4,1.1-1c0-0.4,0.1-0.8,0.3-1.1c0.2-0.3-0.1-0.4,0-0.6
		c0.1-0.7,0.3-1,1.1-1c0.4,0,0.8,0,1.2,0c0.1,0,0.4,0,0.4,0.2c0,0.6,0.3,0.5,0.6,0.2c0.2-0.2,0.6-0.1,0.6,0c0.2,0.3,0.5,0.7,0.4,1.1
		c-0.1,0.5,0,1.1-0.1,1.6c0,0.1-0.1,0.2-0.2,0.3c-0.2,0.2-0.2,0.5-0.1,0.7c0.1,0.2,0.4,0,0.5,0c0.4,0.2,0.7,0.2,1.1,0.1
		c0.2,0,0.6,0,0.5-0.1c-0.1-0.3,0.1-0.5,0-0.8c-0.3-0.8-0.8-1.4-0.7-2.3c0-0.3-0.3-0.4-0.4-0.7c0-0.2-0.1-0.4,0.1-0.6
		c0.1-0.2,0.2-0.4,0.1-0.6c0-0.1,0-0.4,0.1-0.3c0.6,0.4,0.8-0.5,1.3-0.4C69,0.5,69.4,0.1,69.9,0c0.6-0.1,1.4,0.6,1.4,1.2
		c0.1,0.7,0.2,1.4,0.4,2c0.1,0.4,0.3,0.9,0.6,1.2c0.1,0.1,0.1,0.4,0.4,0.2c0,0,0.3,0.4,0.6,0.4c0.1,0,0.2,0.1,0.3-0.1
		c0.5-0.7,1.1-1.4,1.4-2.2c0.1-0.2,0.8-0.4,1-0.3c0.5,0.2,1,0.3,1.3,0.7c0.3,0.4,0.7,0.5,1,0.7c0.3,0.2,0.5,0.5,0.2,0.9
		c-0.2,0.3,0,0.7-0.1,1c-0.4,1.1-0.8,2.2-1.7,3c-0.3,0.3,0,0.9-0.7,0.9c0.5,0.5,0.5,0.4,0.9,0c0.1-0.1,0.1-0.1,0.2-0.2
		c0.5-0.2,1.1-0.1,1.6-0.5c0.2-0.2,0.8,0.2,1.3,0.1c0.4-0.1,0.8,0.5,0.7,1.2c-0.1,0.8,0.4,1.4,0.5,2.2c0,0.1,0.2,0.4,0.4,0.1
		c0.3-0.6,1-0.8,1.3-1.4c0.1-0.2,0.3-0.3,0.4-0.5c0.4-0.7,1.1-1,1.7-1.3c0.2,0.4,0.5,0.1,0.8,0.3c0.4,0.4,0.9,0.7,1.4,1.1
		c0.2,0.1,0.6,1.4,0.5,1.5c-0.4,0.3-0.5,0.8-0.8,1.1c-0.6,0.4-1,1-1.4,1.6c-0.3,0.4-0.8,0.5-1,0.9c0.1,0.1,0.2,0.1,0.3,0
		c0.8-0.5,1.4,0,2,0.4c0.7,0.4,0.3,1.1,0.3,1.6c0,0.5-0.1,1-0.4,1.4c-0.1,0.1,0,0.2,0.1,0.3c0.1,0.3,0,0.3-0.3,0.4
		c-0.9,0.2-1.8,0-2.7,0.1c-0.2,0-0.4-0.1-0.6-0.2c-0.9-0.1-1,0.6-1.4,1.1c-0.2,0.2-0.4,0.3-0.6,0.4c-0.6,0.4-0.5,0.9-0.4,1.4
		c0,0.2,0.1,0.4-0.1,0.5c-0.2,0.2-0.4,0.4-0.3,0.7c0.1,0.3,0.4,0.4,0.8,0.5c0.7,0.2,1.2,0.6,1.7,1.1c0.1,0.1,0.2,0.3,0.4,0.4
		c0.1,0.1,0.2,0.2,0.1,0.3c-0.4,0.7-0.7,1.5-1,2.2c-0.1,0.2-0.2,0.5-0.5,0.7c-0.3,0.2-0.6,0.4-0.9,0.1c-0.5-0.5-1.2-0.5-1.6-1.1
		c-0.1-0.2-0.5-0.1-0.8-0.1c-1,0-1.6-1-1.2-1.9c0.1-0.3,0-0.7,0.4-0.9c0.1,0,0.1-0.2,0-0.2c-0.7-0.3-1-1.1-1.6-1.5
		c-0.3,0.6-0.5,1.3-0.8,1.9c0,0.1-0.2,0.2-0.1,0.3c0.6,0.4,0.4,1.1,0.7,1.7c0.2,0.3,0.1,0.8-0.2,1.2c-0.3,0.4-0.7,0.6-1,1
		c-0.3,0.4-0.9,0.2-1.3,0.3c-0.1,0-0.3-0.1-0.3,0c-1,0.4-1.3-0.5-1.9-1c-0.1-0.1-0.1-0.1-0.2-0.1c-0.6,0-0.9-0.5-1.3-0.9
		c-0.2,0.8-0.3,1.5-0.3,2.3c0,0.5-0.2,1.1-0.5,1.5c-0.3,0.3-0.9,0.7-1.4,0.6c-0.9-0.1-1.8-0.1-2.7-0.5c-0.9-0.4-1.3-0.7-1.2-1.7
		c0-0.5-0.1-0.5-0.4-0.3c-0.2,0.2-0.4,0.1-0.6,0c-0.2-0.2-0.4-0.4-0.7-0.4c-0.1,0-0.1,0-0.1-0.1c-0.1-0.5-0.5-0.7-0.7-1.1
		c-0.5-0.7-0.2-1.4,0.6-2.1c0.1-0.1,0.3-0.2,0.4-0.3c0.3-0.2,0.5-0.4,0.3-0.8c-0.1-0.1,0-0.3,0.1-0.4c0.1-0.1,0-0.3-0.1-0.3
		c-0.4,0.2-0.9-0.1-1.4,0.1c-0.5,0.3-0.3,0.7-0.4,1c-0.3,0.5-0.5,1-0.9,1.5c-0.1,0.2-0.2,0.4-0.3,0.6c-0.2,0.7-0.9,0.9-1.3,1.4
		c0,0-0.2,0.1-0.2,0c-0.7-0.6-1.6-0.8-2.2-1.3c-0.2-0.2-0.3-0.5-0.6-0.7c-0.1,0-0.1-0.3-0.1-0.3c0.3-0.4,0.4-1,0.7-1.4
		c0.4-0.7,0.9-1.2,1.5-1.7c0.3-0.2-0.2-0.6-0.3-1c-0.1-0.2-0.3-0.1-0.5,0.1c-0.6,0.5-1.2,0.5-1.9,0.2c-0.5-0.2-1-0.4-1.6-0.6
		c-0.3-0.1-0.3-0.7-0.7-0.9c0.2-0.2,0-0.6,0.4-0.8c0.2-0.1,0.3-0.2,0.2-0.4c-0.2-0.3-0.2-0.4,0.1-0.7c0.1-0.1,0.6-0.2,0.4-0.8
		c-0.2-0.4,1-0.9,1.5-0.6c0.4,0.3,0.9,0.2,1.3,0.4c0.2,0.1,0.6-0.3,0.9-0.6c0.1-0.1,0.2-0.3,0.4-0.2c0.5,0.4,0.4,0,0.5-0.3
		c0.1-0.6,0.2-1.2,0.2-1.8c-0.1-0.5-0.2-0.7-0.6-0.4c-0.3,0.1-0.5,0.3-0.8,0.2c-0.6-0.3-1.1,0.1-1.7,0.3c-0.3,0.1-0.5,0.1-0.7-0.1
		c-0.5-0.4-0.9-0.6-1-1.5c0-0.5,0.1-1.1-0.1-1.7c-0.2-0.6,0.5-1.2,1.3-1.3c0.5-0.1,0.9-0.2,1.3-0.2c0.8,0,1.5,0.1,2.2,0.6
		C57.9,11.6,58,11.6,58.2,11.6z M72.7,16.7c-0.1,0.5,0.1,1,0.7,1.1c0.5,0.1,0.9,0.4,1.4,0.5c0.8,0.1,1.2-0.2,1.5-0.9
		c0.2-0.5,0.1-1.1,0.5-1.6c0.4-0.5,0.1-1.1,0.5-1.5c0-0.1,0-0.2-0.1-0.2c-0.4,0.1-0.5-0.6-0.9-0.3c0-0.4-0.4-0.1-0.6-0.3
		c-0.4-0.4-1.1-0.5-1.7-0.4c-0.5,0.1-0.3,0.5-0.4,0.7C73.2,14.8,72.5,15.6,72.7,16.7z M66.8,16.8c-1,0.1-1.6,0.8-2.3,1.3
		c-0.1,0.1-0.2,0.4-0.4,0.5c-0.2,0.1-0.3,0.5-0.2,0.6c0.3,0.3,0.3,0.7,0.6,1c0.3,0.3,0.4,0.8,1,0.9c0.3,0.1,0.7,0.4,0.9,0.2
		c0.6-0.7,1.7-0.8,2.3-1.6c0.2-0.2,0.3-0.4,0.1-0.6c-0.6-0.7-0.9-1.5-1.6-2.1C67.1,16.9,67,16.8,66.8,16.8z M65.1,9.1
		C64.6,9,64.3,9.3,64,9.5c-0.4,0.3-0.7,0.6-1.1,0.9c-0.2,0.1-0.2,0.1-0.3,0.3c-0.1,0.8,0.4,2,1.1,2.4c0.4,0.2,0.9,0.5,1.4,0
		c0.2-0.2,0.5-0.5,0.7-0.5c0.6-0.1,0.7-0.5,1-0.9c0.2-0.2,0.1-0.4-0.1-0.6c-0.4-0.4-0.5-1.1-1-1.3c-0.1,0-0.1-0.2-0.1-0.3
		C65.6,9.1,65.4,9,65.1,9.1z"/>
	<path d="M102.8,45.4c0.2,0.8,0,1.8-0.2,2.8c-0.2,0.8-0.5,1.6-0.8,2.4c-0.2,0.4-0.7,0.6-1,0.7c-0.7,0.2-1.4,0.7-2.3,0.5
		c-0.2-0.1-0.3-0.2-0.5-0.4c-0.7-0.7-1.4-1.4-1.5-2.4c0,0,0-0.1,0-0.1c-0.6-0.7-0.4-1.4-0.4-2.2c0-0.7,0.4-1.3,0.4-2
		c0-0.4,0.5-0.8,0.6-1.3c0.2-0.5,0.8-0.7,1-1.2c0.1-0.1,0.2-0.1,0.4-0.2c0.4-0.1,0.8,0,1.1-0.4c0,0,0.2,0,0.2,0
		c0.8,0.1,1.4,0.6,2.1,1c0,0,0.1,0,0.1,0.1C102.2,43.5,102.9,44.2,102.8,45.4z"/>
	<path d="M14.1,32.8c0.8,0.4,1.5,0.5,2.1,1.3c0.8,1.2,1,2.7,1.5,3.9c0,0.1,0.2,0.3,0,0.4c-0.4,0.3-0.2,1-0.7,1.2
		c-0.4,0.3-0.7,0.8-1.3,0.8c-0.3,0-0.6,0.1-0.7,0.4c-0.2,0.3-0.4,0.3-0.6,0.2c-0.5-0.4-1.1-0.8-1.6-1.2c-0.5-0.5-1-1.1-1.1-1.8
		c-0.1-0.5-0.3-1-0.3-1.5c0-0.4-0.3-0.6-0.2-1c0-0.7,0.5-1.2,0.8-1.8C12.6,32.9,13.5,33.2,14.1,32.8z"/>
	<path d="M22.2,82.8c0,0.2,0,0.4,0.1,0.6c0.3,0.6,0.3,1.3,0.1,1.9c0,0.1-0.1,0.1,0,0.2c0.3,0.4,0,0.8,0.1,1.1
		c0.1,0.6-0.4,0.7-0.6,1.1c0,0.1-0.1,0.1-0.3,0.1c-0.7-0.1-1.4,0.4-2.1,0.4c-0.3,0-0.5-0.2-0.9-0.2c-0.5,0.1-0.3-0.5-0.3-0.8
		c0-0.4-0.2-0.6-0.2-1c0-0.8-0.1-1.6,0.1-2.4c0.1-0.2,0-0.4,0-0.6c-0.1-0.6,0.3-1,1-0.9c0.3,0,0.5-0.4,0.8-0.2
		c0.1-0.3,0.3-0.2,0.5-0.1c0.4,0.1,0.9,0.2,1.3,0.2C22.1,82.2,22.3,82.4,22.2,82.8z"/>
	<path d="M76.5,70.8c-0.2,0.4,0.3,0.7,0.4,0.9c0.3,0.5,0.3,0.9,0.4,1.4c0.2,0.8,0.4,1.6,0.6,2.3c0.1,0.4,0,0.7-0.3,1
		c-0.3,0.2-0.6,0.5-1.1,0.3c-0.5-0.2-1,0-1.5,0c-0.3,0-0.6,0.1-1,0.1c-1.1,0-2.1,0.2-3.2,0.3c-0.3,0-0.6,0.2-1,0
		c-0.2-0.1-0.7-0.1-0.9,0.1c-0.6,0.5-1.2,0.1-1.8,0.2c-0.4,0.1-0.9,0-1.3-0.1c-0.2-0.1-0.3,0.2-0.4,0.2c-0.3,0.2-0.5,0.2-0.5-0.2
		c-0.2-0.9-0.3-1.9-0.2-2.9c-0.6-0.4-0.2-1.1-0.4-1.7c-0.3-0.8-0.1-1.4,1-1.7c0.4-0.2,0.9-0.2,1.3-0.6c0.4-0.3,1-0.2,1.5-0.3
		c0.5-0.1,1,0,1.4-0.2c0.3-0.1,0.7-0.1,1,0.1c0.1,0.1,0.2,0.1,0.3,0c1-0.3,2,0,2.9-0.2c0.6-0.1,1-0.2,1.5,0.2
		c0.1,0.1,0.3-0.1,0.4-0.1C76.1,69.9,76.6,70.4,76.5,70.8z"/>
	<path d="M53.6,65.7c0.6,0.1,1.1,0.2,1.6,0c0.3-0.1,0.3,0.4,0.6,0.3c0.8-0.2,1.4,0.3,2.1,0.4c0.8,0.1,1.7,0.2,2.5,0.7
		c0.4,0.3,0.7,0.8,0.5,1.3c-0.3,0.7-0.3,1.4-0.5,2c-0.1,0.5-1,1.1-1.5,0.8c-0.5-0.3-1.1-0.3-1.7-0.4c-0.8-0.2-1.7-0.2-2.6-0.5
		c-0.5-0.2-1.1-0.1-1.6-0.2c-0.4-0.1-0.6-0.5-1-0.5c-0.1,0,0-0.2,0-0.3c0.2-0.5,0.3-1,0.1-1.5c0,0,0-0.1,0-0.1
		c0.8-0.4,0.1-1.1,0.4-1.6C52.8,65.8,53.3,66,53.6,65.7z"/>
	<path d="M50.5,67.3c0.2,0.7-0.2,1.6,0,2.5c0.1,0.4,0.1,0.9,0.2,1.4c0,0.5-0.4,0.6-0.5,1c-0.1,0.4-0.6,0.3-1,0.2c0,0-0.1,0-0.2,0.1
		c-0.9,0.5-1.7,0.2-2.6-0.3c-0.1,0-0.2-0.1-0.2-0.2c-0.3-1-0.7-2-0.6-3.2c0.1-0.7,0.1-1.4,0.1-2.2c-0.1-0.5,0.1-1,0.3-1.4
		c0.3-0.4,0.8-0.5,1.4-0.4c0.4,0,0.9,0.1,1.4-0.1c0.6-0.2,1.1,0.3,1.4,0.9C50.4,66.1,50.5,66.5,50.5,67.3z"/>
</g>
</svg>
