<svg xmlns="http://www.w3.org/2000/svg" viewBox="70.66 0 176.64 127.35">
  <defs>
    <clipPath id="a">
      <path fill="none" d="M0 0h247.303v136.637H0z"/>
    </clipPath>
  </defs>
  <g clip-path="url(#a)">
    <path d="M183.763 115.929c-1.91.434-3.837.18-5.377.727-2.284.811-4.637.677-6.955.85-2.464.183-4.89.561-7.323.923a3.976 3.976 0 0 1-3.5-.8c-1.7-1.509-3.478-2.924-5.144-4.464-.754-.7-1.2-1.745-1.989-2.381-1.611-1.3-1.4-3.16-1.776-4.85l-.263-1.179c-2.712-.109-5.292-1.375-8.279-.7.445 2.245-.377 4.133-1.657 6.084a8.737 8.737 0 0 1-4.146.133 3.769 3.769 0 0 0-1.288-.063 2.3 2.3 0 0 1-2.823-2.453c0-2.908.02-5.816-.058-8.722-.067-2.495-.33-4.984-.378-7.478a74.234 74.234 0 0 0-1.95-13.44 26.336 26.336 0 0 0-1.853-4.557 19.791 19.791 0 0 0-2.362-.1c-.994.068-1.358.854-1.421 1.7-.1 1.307-.047 2.624-.1 3.934-.1 2.42-.242 4.838-.366 7.257-.2 3.909-.337 7.823-.625 11.726-.182 2.463-.544 4.917-.905 7.363a270.25 270.25 0 0 1-1.517 9.212 3.138 3.138 0 0 1-2.828 2.274c-1.621-.012-3.305.487-4.856-.464a.961.961 0 0 0-.619-.019c-2.135-1.819-1.52-4-1.265-6.078.431-3.52 1.033-7.021 1.4-10.547a66.342 66.342 0 0 0 .544-9.854 42.632 42.632 0 0 1 .37-5.788 36.508 36.508 0 0 0 .151-6.856c-.27-2.846-.18-5.725-.249-8.591-.014-.593.209-1.276-.5-1.6-1.739 1.036-3.424 2.05-5.12 3.046a2.044 2.044 0 0 1-3.021-1.071 13.022 13.022 0 0 1-1.621-4.456c-.127-1.549-.141-1.944 1.313-2.459 2.24-.793 3.789-2.495 5.988-4.12-1.488-.507-2.555-.93-3.655-1.234-3.351-.928-6.712-1.816-10.075-2.705a21.6 21.6 0 0 1-2.879-.7c-2.228-.939-4.638-1.141-6.921-1.847-.992-.308-2.077-.305-3.091-.558-1.5-.372-2.961-.9-4.464-1.263-2.289-.546-4.6-1-6.9-1.5a4.343 4.343 0 0 1-1.6-.463c-.5-.367-1.152-.991-1.149-1.5a8.148 8.148 0 0 1 .689-3.143 3.114 3.114 0 0 0 .409-1.72 1.391 1.391 0 0 1 1.519-1.673 10.3 10.3 0 0 1 5.1.816 9.574 9.574 0 0 0 2.138.471c1.194.295 2.371.66 3.569.93 1.8.406 3.223-.452 4.66-1.4 2.783-1.835 5.666-3.518 8.432-5.376 3.084-2.072 6.1-4.254 9.118-6.419a58.712 58.712 0 0 1 5.858-4.24c2.383-1.293 4.27-3.413 6.958-4.149a30.843 30.843 0 0 1 9.145-1.313c.916.029 1.836-.216 2.758-.276a10.016 10.016 0 0 1 2.235.016 6.338 6.338 0 0 0 3.322.114c.234-.083.578.147.872.227a13.676 13.676 0 0 0 2.518.629 2.082 2.082 0 0 1 1.652.655c.178.209.549.467.748.411 1.651-.472 2.816.518 4.112 1.213a9.1 9.1 0 0 0 2.137.641 6.738 6.738 0 0 1 4.774 3.7 6.1 6.1 0 0 0 .677.89c.838 1.132 1.565 2.288.85 3.777a.9.9 0 0 0-.063.552c.852 3.433-.061 6.8-.4 10.179-.038.369-.18.727-.235 1.094-.47 3.178-2.63 3.3-4.88 2.784a32.371 32.371 0 0 0-3.314-.429 1.136 1.136 0 0 1-1.1-1.059c-.256-1.348-.753-2.685.291-3.93a.682.682 0 0 0 .123-.349c.247-2.1.555-4.187.707-6.29.134-1.834-.6-2.582-2.423-2.8-.3-.035-.693-.045-.862-.231-.756-.834-1.522-1.495-2.754-.982-.126.052-.373-.068-.507-.177a3.2 3.2 0 0 0-3.105-.856 1.278 1.278 0 0 1-.864-.281 2.316 2.316 0 0 0-2.979.259c1.28 5.666 1.638 11.365 2.565 17.094 1.911.336 3.714 1.268 5.822 1.375a26.893 26.893 0 0 1 6.544 1.263c1.21.377 2.675.7 3.345 2.149a2.7 2.7 0 0 0 1.134.918 2.848 2.848 0 0 1 1.564 3.269 18.528 18.528 0 0 0-.524 4.624c.193 2.484-.418 4.828-.76 7.222a83.661 83.661 0 0 1-.719 4.224 5.576 5.576 0 0 1-4.483 4.43c-1.955.41-3.817.046-5.966.007a9.676 9.676 0 0 0-.133 1.793c.289 2.658.642 5.309.959 7.965q.588 4.919 1.147 9.842c.063.561.222.982.842 1.041 2.253.217 4.507.424 6.722.632.978-1.466.292-2.978.323-4.423a5.284 5.284 0 0 1 1.289-3.44 6.249 6.249 0 0 1 3.845-2.341c.3-.068.648-.234.911-.153 2.285.7 4.411-.454 6.63-.527 1.987-.065 3.964-.373 5.95-.45a3.862 3.862 0 0 0 2.13-.43 1.639 1.639 0 0 1 2.2.257c2.443 2.351 5.431 4.1 7.463 6.919a15.57 15.57 0 0 0 2.408 2.56c1.714 1.5 2.048 3.466 2.169 5.564.116 2.034 1.232 12.4 1.232 14.423 0 1.532-3.4 1.559-3.4 1.559m-54.369-52.011a7.782 7.782 0 0 0 1.326-4.764c.162-2.752.993-3.624 3.788-3.607.062 0 .124.007.188.007a2.516 2.516 0 0 1 2.716 2.786c-.016.616.1 1.235.107 1.853 0 1.782.571 3.67-1.127 5.133 1.392.371 2.569.739 3.769.994 2.4.512 3.5-.3 3.811-2.663.168-1.284.378-2.563.6-3.838.47-2.65-.073-3.424-2.689-3.734a17.471 17.471 0 0 1-2.219-.215c-2.219-.56-4.408-1.239-6.627-1.8-1.265-.317-2.576-.44-3.844-.741-.761-.181-1.479-.758-2.219-.762a15.241 15.241 0 0 1-3.981-.677 1.633 1.633 0 0 0-2.049.9 27.049 27.049 0 0 0-1.289 3.9 6.761 6.761 0 0 0-.148 2.76 3.685 3.685 0 0 0 3.5 2.564 9.26 9.26 0 0 1 2.2.318c1.392.454 2.745 1.034 4.181 1.589m42.929 46.623c1.9-.29 3.809-.554 5.706-.877 1.434-.245 1.617-.506 1.862-1.913.352-2.015-.429-3.913-.594-5.876-.086-1.019-.861-1.4-1.948-1.274-2.277.258-4.548.562-6.819.877-1.9.263-3.795.6-5.7.843a2.052 2.052 0 0 0-1.985 2.521c.054.539-.022 1.093.053 1.627a27.458 27.458 0 0 0 .622 3.466 1.441 1.441 0 0 0 1.037.85c1.92.069 3.846.046 5.767-.031.653-.026 1.98-.3 2-.214m-57.555-76.291a3.96 3.96 0 0 0-1.148.3c-1.98 1.355-3.931 2.75-5.9 4.127-1.517 1.063-3.008 2.167-4.57 3.16-1.3.827-2.7 1.489-4.022 2.287-.315.19-.476.634-.879 1.207a21.494 21.494 0 0 0 3.919 1.148 13.749 13.749 0 0 1 5.272 1.528 1.555 1.555 0 0 0 1.05.22c1-.329 1.826.17 2.715.4.96.254 1.922.515 2.9.7.815.151 1.137-.348 1.117-1.093-.055-2.217-.128-4.433-.194-6.649-.053-1.794-.1-3.587-.159-5.381-.019-.606-.059-1.212-.1-1.958"/>
    <path d="M125.715 0a10.546 10.546 0 0 1 3.055 1.066c1.275.959 2.611 1.782 2.952 3.818a11.422 11.422 0 0 1-.809 7.359c-.513 1.033-.667 2.172-1.618 3.06-1.764 1.645-5.242 1.9-7 .3a8.1 8.1 0 0 1-2.621-7.008c.214-3.063.917-5.746 3.614-7.619A4 4 0 0 1 125.715 0"/>
    <path d="M219.262 107.138c-2.3 1.814-4.429 3.452-6.513 5.144-1.626 1.32-3.235 2.664-4.781 4.075-1.257 1.147-2.966 1.016-4.378 1.7-.224.109-.659-.06-.925-.22a6.162 6.162 0 0 1-2.281-2.874c-.221-.466-.412-.945-.726-1.671.829-2.813 3.765-3.947 5.973-5.8 1.052-.884 2.085-1.79 3.135-2.677.858-.726 1.686-1.5 2.6-2.14 1.5-1.053 2.285-2.649 3.4-3.973-1.877-1.785-3.473-1.671-5.2-.033a104.948 104.948 0 0 1-10.378 9.069 75.884 75.884 0 0 1-7.6 4.509 77.9 77.9 0 0 1-8.549 3.629 1.343 1.343 0 0 1-1.886-.607c-.471-1.721-1.717-3.249-1.364-5.2.059-.325-.2-.707-.387-1.321 1.018-.457 2.019-.878 3-1.349q4.278-2.055 8.539-4.142c2.946-1.438 5.347-3.67 7.758-5.785 1.623-1.423 3.5-2.706 4.606-4.734a30.063 30.063 0 0 1 2.274-2.979 3.451 3.451 0 0 0 .518-1.277q.544-2.51 1.007-5.036c.186-1.009.54-2.059-.338-3.01-1.294.849-2.544 1.647-3.77 2.481a1.28 1.28 0 0 1-1.931-.21c-1.212-1.464-2.414-2.935-3.666-4.458.555-2.67 3.48-3.414 5.079-5.846h-3.225c-2.107 0-4.241.149-6.021-1.355-.228-.194-.622-.189-.939-.279-2.555-.722-3.876-2.837-5.3-4.793a9.646 9.646 0 0 1-1.531-2.945 20.244 20.244 0 0 1-.906-5.043 30.474 30.474 0 0 1 .584-6.125 26.388 26.388 0 0 1 1.563-5.078 12.528 12.528 0 0 1 1.855-2.468c1.207 1.319 2.99 1.31 4.1 2.639.65.78 2.38.386 2.288 1.921-.6 2.219-1.36 4.339-1.732 6.527a7.481 7.481 0 0 0 2.294 7.062 6.722 6.722 0 0 0 5.9 1.646 93.5 93.5 0 0 1 12.9-1.96c1.686-.141 3.318-.841 5-1.1 1.872-.284 3.654-.92 5.638-.843a30.6 30.6 0 0 0 5.867-.817c1.63-.261 3.259-.525 4.88-.836 1.1-.211 2.171-.548 3.269-.754 1.493-.278 3-.486 4.6-.739a3.421 3.421 0 0 1 1.8 2.954c.41 2.813 1.1 5.589 1.758 8.36a4.983 4.983 0 0 1-.387 3.663 12.914 12.914 0 0 0-.665 1.226c-.241.593-.2 1.306-1.052 1.533-.962.258-1.864.687-2.888.189a5.594 5.594 0 0 1-2.74-2.17 19.164 19.164 0 0 0-2.386-2.742 5.08 5.08 0 0 0 .211 1.4c.843 1.538.864 3.262 1.166 4.916.234 1.288.317 2.6.476 3.9a39.765 39.765 0 0 1 .149 10.98 2.545 2.545 0 0 0 .868 2.514 31.605 31.605 0 0 1 3.533 3.162 8.719 8.719 0 0 1 1.852 3.222 21.054 21.054 0 0 1 .9 8.559 16.947 16.947 0 0 1-3.2 8.3c-1.951 2.549-4.071 4.971-6.128 7.44a2.758 2.758 0 0 1-4.27.237c-.486-.445-.97-.893-1.461-1.334s-.978-.863-1.45-1.28c.056-2.6 1.83-4.162 3.394-5.91 2.346-2.621 4.575-5.4 5.239-8.967a6.3 6.3 0 0 0-1.383-5.042 13.911 13.911 0 0 0-7.067-4.9 2.388 2.388 0 0 0-2.791 3.278 19.794 19.794 0 0 1 1.173 5.968 16.539 16.539 0 0 1-.547 7.171 50.456 50.456 0 0 1-6.07 12.313c-1.176 1.688-2.461 1.748-4.024.426a25.556 25.556 0 0 0-2.434-1.623c-1.317-.874-1.5-1.526-.764-2.954a40.855 40.855 0 0 1 2.1-3.791 20.3 20.3 0 0 0 2.791-7.117c.243-1.16.82-2.507.008-3.806m4.194-19.754.548.011a6.864 6.864 0 0 0 1.027-3.9 5.471 5.471 0 0 1 .094-1.766 15.452 15.452 0 0 0 .2-6.277c-.072-.389-.1-.787-.133-1.181-.107-1.24-.126-2.493-.333-3.715-.272-1.609-1.27-2.1-2.758-1.41a15.158 15.158 0 0 0-2.587 1.444c-.562.411-1.16 1.032-.811 1.849.483 1.128 1.094 2.2 1.633 3.306a17.81 17.81 0 0 1 2.044 5.712c.235 1.989.708 3.95 1.077 5.922"/>
    <path d="M206.385 53.333a33.615 33.615 0 0 1 1.631-4.425c1.428-2.695 1.976-2.821 5.053-1.934a8.257 8.257 0 0 0 .982.157 1.89 1.89 0 0 1 1.679 1.661c.559 2.345.844 4.665-.166 6.926-.56 1.255-.924 2.688-2.8 2.888-1.343.143-2.474.635-3.86-.305a5.382 5.382 0 0 1-2.306-4.5c-.012-.132-.013-.265-.02-.4l-.194-.067"/>
    <path d="M230.748 50.687c-.5 2.241-.456 4.546-2.514 5.98-.214.149-.474.512-.6.466-1.416-.535-2.864.372-4.366-.3-1.208-.539-2.319-1.192-2.516-2.331a15.373 15.373 0 0 1 .283-4.26c.063-.559.366-1.088.446-1.647a4.283 4.283 0 0 1 2.611-3.087 3 3 0 0 1 1.87.021 16.244 16.244 0 0 1 3.813 2.508c.628.608.685 1.806.967 2.646"/>
  </g>
</svg>
