<?xml version="1.0" encoding="utf-8"?>
<!-- Generator: Adobe Illustrator 27.6.1, SVG Export Plug-In . SVG Version: 6.00 Build 0)  -->
<svg version="1.1" id="Ebene_1" xmlns="http://www.w3.org/2000/svg" xmlns:xlink="http://www.w3.org/1999/xlink" x="0px" y="0px"
	 viewBox="0 0 164.1 114.9" fill="#fff" style="enable-background:new 0 0 164.1 114.9;" xml:space="preserve">
<g>
	<path d="M128.9,39.3c0.6,0.8,0.9,1.5,0.7,2.4c-0.1,0.2,0,0.5,0.1,0.7c0.3,1,0.1,1.9,0.1,2.9c0,0.9-0.1,1.7-0.2,2.6
		c0,0.2,0,0.4,0.1,0.5c0.5,0.7,0.1,1.5,0.2,2.2c0,0.2-0.1,0.5-0.3,0.7c-0.4,0.4-0.4,0.8-0.3,1.3c0.1,0.4,0.1,0.8-0.2,1.3
		c-0.2,0.3-0.1,0.7-0.2,1.2c-0.2,0.2-0.6,0.4-0.5,1.1c0.1,0.6-0.4,1.3-0.7,1.9c-0.4,0.7-0.5,1.4-0.4,2.1c0,0.3,0,0.6-0.1,0.9
		c-0.3,0.7-0.6,1.3-0.5,2.1c0.1,0.8,0,1.6,0,2.5c0,0.2-0.1,0.4-0.2,0.6c-0.5,0.8-0.3,1.6-0.1,2.5c0.2,1.1,0.3,2.2,0.1,3.2
		c-0.1,0.3,0,0.7,0,1c-0.1,1,0.7,1.9,0.2,3c-0.1,0.2,0.2,0.6,0.4,0.9c-0.3,0.8-0.5,1.7-0.9,2.4c-0.4,0.9-0.5,0.8-1.4,0.5
		c-0.6,0.4-1.3,0.7-1.9,1c-0.4,0.2-0.9,0.3-1.4,0c-0.3-0.2-0.8-0.2-1.2-0.3c0.1-0.1,0.2-0.1,0.2-0.2c-0.4-0.4-0.8-0.8-1.2-1.1
		c-0.1,0.1-0.2,0.2-0.3,0.2c-0.1-0.7,0.4-1.5-0.4-1.9c-0.1-0.7-0.2-1.3-0.3-1.9c0-0.4,0-0.8-0.1-1.2c-0.2-1.4-0.6-2.7-0.2-4.1
		c-0.4-0.9-0.2-1.8-0.2-2.8c0-0.8,0.1-1.7,0.2-2.5c0.1-0.8,0.3-1.7,0.4-2.5c0-0.2,0-0.4,0-0.6c0-0.8,0-1.6,0.4-2.3
		c0.2-0.4,0.2-0.8,0.3-1.2c0.1-0.6,0.2-1.2,0.5-1.9c0.3-0.8,0.3-1.7,0.6-2.5c0.2-0.9,0.6-1.8,0.8-2.6c0-0.1,0.1-0.3,0.1-0.4
		c-1-0.2-1.9-0.4-2.9-0.7c0,0.1-0.3,0.2-0.3,0.4c-0.2,0.8-1,1.4-1,2.3c0,0.1,0,0.2-0.1,0.2c-0.8,0.4-0.6,1-0.7,1.7
		c0,0.5-0.1,1-0.5,1.4c-0.2,0.2-0.3,0.6-0.3,0.8c0.1,1.1,0.2,2.2,0.3,3.3c0.1,0.7,0.2,1.4,0.3,2.1c0,0.3,0.1,0.5,0.2,0.8
		c0,0.2,0.2,0.5,0.1,0.6c-0.4,0.6-0.1,1.1,0.1,1.7c0.1,0.4,0.2,0.7,0.1,1.2c-0.1,0.4-0.2,1.2,0.1,1.4c0.4,0.4,0.1,1,0.5,1.4
		c0.1,0.2-0.1,0.6-0.1,1c0.1,0.6,0.2,1.1,0.3,1.7c0.1,0.7,0.1,1.4,0.1,2.1c0,0.2,0,0.5,0.1,0.7c0.4,0.4,0.3,0.8,0.1,1.3
		c-0.2,0.5-0.4,1-0.1,1.5c0,0.1,0.1,0.2,0,0.3c-0.4,0.9,0.1,1.9,0,2.8c-0.1,0.9-0.2,1.8-0.1,2.6c0.1,1.4-0.1,2.8-0.2,4.2
		c0,2,0,4.1,0,6.1c-0.1,0-0.2,0-0.2-0.1c-0.4,0.7-0.7,1.4-1.1,2.2c-0.3-0.2-0.6-0.3-0.8-0.5c-0.6,0.2-1.2,0.4-1.8,0.6
		c-0.3-0.2-0.5-0.5-0.8-0.7c-0.7,0.4-1.4,0.5-2.2,0c-0.1-0.1-0.3-0.2-0.4-0.3c-0.5-1.1-1.2-2.2-0.6-3.6c0.1-0.1,0.1-0.4,0.1-0.5
		c-0.5-0.9,0.2-1.8-0.3-2.7c0.4-0.9,0.1-1.9,0.3-2.8c0-0.1,0.1-0.3,0.1-0.4c-0.2-1.5,0-3,0-4.5c0-1.1,0.2-2.2,0.2-3.3
		c0-0.4,0.1-0.8,0.2-1.2c0.1-0.7-0.1-1-0.7-1c-0.5,0-0.9-0.2-1.4,0.2c-0.2,0.2-0.8,0.2-1.2,0c-0.7-0.3-1.4-0.3-2.1-0.1
		c-0.7,0.1-1.4,0-2,0c-0.2,0-0.5-0.1-0.6-0.1c-0.7,0.4-1.5,0.3-2.2,0.1c-0.9-0.2-1.8-0.1-2.7,0.1c-0.6,0.1-1.3-0.1-2-0.3
		c-0.8-0.2-1.6-0.1-2.2,0.4c-0.8-0.4-1.6-0.6-2.5-0.2c-0.4,0.2-0.9,0-1.3-0.1c-0.7-0.1-1.4,0.2-2-0.2c-0.1,0-0.2-0.1-0.2,0
		c-0.6,0.4-1.3,0.2-2,0.2c-1.1-0.1-2.2,0-3.2-0.1c-0.5,0-0.9,0-1.2,0.4c-0.1,0.2-0.3,0.2-0.5,0.3c-0.1,0.1-0.3,0.1-0.4,0.2
		c-0.3,0.9-1.3,1.2-1.9,2c-0.3,0.4-0.9,0.7-1.3,1c-0.3,0.3-0.6,0.6-0.9,0.8c-0.1,0.1-0.2,0.4-0.3,0.4c-0.9,0.1-1.4,0.9-2.1,1.4
		c-0.7,0.6-1.4,1.3-2,1.9c-0.1,0.1-0.1,0.3-0.2,0.3c-1.1,0-1.4,1.3-2.4,1.4c-0.1,0-0.3,0.1-0.3,0.2c-0.5,0.6-1.1,1.2-1.6,1.7
		c-0.1,0.1-0.2,0.2-0.3,0.3c-1.6,0.8-2.8,1.9-4.1,3.1c-0.4,0.4-1,0.7-1.6,0.8c-0.4,0.1-0.9-0.2-1.3-0.4c-1-0.6-1.9-1.2-2.8-1.9
		c-0.5-0.4-0.8-1.1-0.8-1.8c0-0.4,0-0.7-0.4-0.8c-0.4-0.1-0.4-0.5-0.5-0.8c-0.5-0.9-1-1.8-1.4-2.7c-0.1-0.2-0.6-0.4-0.9-0.6
		c-0.4-0.9-0.8-1.9-1.3-2.9c-0.1-0.2-0.4-0.4-0.6-0.6c-0.2-0.2-0.3-0.5-0.4-0.8c-0.1-0.1,0-0.3-0.1-0.4c-0.8-0.6-0.9-1.6-1.3-2.3
		c-0.3-0.5-0.7-0.8-1.2-0.8c-0.7,0-1.5-0.1-2.2,0c-0.9,0.1-1.8-0.1-2.7,0c-0.4,0.1-0.9-0.2-1.6-0.3c-0.1,0-0.3,0.4-0.9,0.3
		c-0.5-0.2-1.1,0.1-1.6,0.1c-0.8,0-1.7-0.4-2.5-0.2c-0.6,0.1-1.3-0.1-1.9,0.1c-0.1,0.1-0.3,0-0.4,0c-1.3-0.4-2.7-0.3-4.1-0.2
		c-0.9,0.1-1.9-0.1-2.8-0.2c-0.6,0-1.3,0-2,0c0,0.2-0.1,0.5,0,0.7c0.4,1.1-0.1,2.3,0.3,3.4c0,0.1-0.1,0.3-0.1,0.5
		c-0.3,0.5-0.3,0.9,0,1.4c0.1,0.2,0.1,0.4,0.1,0.6c-0.3,1-0.3,2.1-0.1,3.2c0,0.3-0.1,0.5-0.2,0.8c0,0.1-0.1,0.3-0.1,0.4
		c0.7,0.8-0.1,1.4-0.3,2c0.3,0.8,0.6,1.5,0.9,2.3c0.1,0.5,0.3,1-0.3,1.4c-0.2,0.1-0.3,0.7-0.3,1.1c0,0.5,0,1,0,1.6
		c-0.1,0.7-0.2,1.3-0.3,1.9c0,0.3-0.1,0.6-0.1,0.9c-0.1,0.4,0.1,0.9-0.7,0.7c-0.2,0-0.5,0.4-0.8,0.7c-0.7-0.1-1.6,0-2.3-0.5
		c-0.1-0.1-0.4-0.2-0.5-0.1c-0.8,0.4-1.4-0.2-2-0.4c-0.4-0.1-0.7-0.6-1-0.9c-0.4-0.4-0.5-0.8-0.4-1.3c0.1-0.5,0-1-0.1-1.5
		c-0.1-0.4,0-0.6,0.2-0.8c0.1-0.2,0.2-0.6,0.1-0.8c-0.5-1.2-0.3-2.4-0.4-3.6c0-0.3-0.1-0.5-0.1-0.8c0-0.2,0-0.5,0.1-0.6
		c0.7-0.8,0.3-1.6,0.1-2.5c0.4-0.3,0.7-0.8,0.3-1.4c-0.1-0.2,0-0.5-0.1-0.7c-0.1-0.4-0.1-0.9-0.2-1.4c0.1-0.2,0.3-0.4,0.5-0.7
		c0-0.1-0.1-0.2-0.1-0.3c-0.1-0.2-0.3-0.5-0.2-0.6c0.3-0.5,0-0.9-0.3-1.4c0.5-0.6,0.5-1.1,0.2-1.8c-0.2-0.5-0.2-1.2-0.1-1.7
		c0.1-0.6,0.1-1.2,0-1.7c-0.1-0.9,0.4-1.6,0.8-2.3c0.1-0.2,0.3-0.4,0.2-0.7c0-0.5-0.2-1,0.3-1.4c0.1-0.1,0-0.4,0-0.6
		c0-0.4-0.1-0.8,0.3-1.2c0.1-0.1,0.1-0.3,0.1-0.4c-0.3-0.7,0.2-1.3,0.2-1.9c0.1-0.8,0.3-1.5-0.3-2.1c-0.2-0.2,0-0.8,0-1.2
		c0-0.3,0.1-0.6,0.1-0.9c-0.9-0.1-1.7-0.2-2.5-0.2c-0.5,0-1,0-1.4,0.5c-0.2,0.2-0.6,0.2-0.9,0.3c0,0.1-0.1,0.1-0.1,0.2
		c0.5,0.7,0.2,1.6,0.4,2.4c0,0.1-0.1,0.3-0.1,0.5c-0.5,1-0.3,2-0.3,3.1c-0.1,1.1,0.5,2.1,0.1,3.2c-0.2,0.5,0.1,1.3,0.1,2
		c0,0.2,0.1,0.5,0,0.7c-0.2,1-0.4,2-0.6,3c0,0.2-0.2,0.5-0.1,0.6c0.5,0.7,0.1,1.3,0,1.9c0,0.4-0.2,0.8,0,1.2
		c0.1,0.3-0.3,0.6-0.3,0.9c0,0.6-0.1,1.1-0.7,1.4c-0.1,0-0.1,0.1-0.1,0.2c0.1,1.2-0.8,2.2-0.8,3.4c0,0.5-0.1,1-0.3,1.4
		c-0.1,0.3-0.2,0.8-0.9,0.6c-0.2,0-0.5,0.4-0.8,0.7C7.9,87,7.1,87,6.3,86.6c-0.7-0.4-1.5-0.6-2.2-0.8c-0.2,0-0.4,0.1-0.6,0.2
		c-0.4-0.5-0.7-0.9-1.2-1.5c0-0.2,0.1-0.5,0.1-0.8c0-0.9,0.1-1.8,0.5-2.7c0.3-0.6,0.3-1.3,0.5-2c0.2-0.6,0.6-1.2,0.5-1.7
		c-0.1-0.8,0.1-1.4,0.2-2.2c0.1-0.7-0.1-1.5-0.1-2.3c0-0.2,0-0.5,0.1-0.7c0.6-0.9,0.5-1.9,0.3-2.9c-0.1-0.4,0-0.9,0-1.3
		c-0.1-0.8-0.2-1.5-0.4-2.3c0.4-0.4,0.6-0.9,0.2-1.5c-0.1-0.2,0-0.5,0-0.8c0-0.8,0.1-1.6,0.1-2.4c0-0.1,0-0.2,0-0.2
		c-0.8-0.7-0.2-1.4-0.1-2.1c0-0.2,0.1-0.4,0-0.6c-0.4-1.1,0-2.3-0.2-3.4c0.6-0.6,0-1.5,0.5-2.2c-0.2-0.9,0.6-1.9,0-2.8
		c-0.1-0.2,0-0.4,0-0.6c0.2-0.6,0.4-1.2,0.2-1.8C4.8,47,5,46.8,5,46.6c0.1-0.3,0.3-0.6,0.2-0.8c-0.1-0.6,0.1-1.1,0.3-1.7
		c0.3-0.9,0.7-1.8,0.7-2.7c0-1.3,0.9-2.4,0.9-3.7c0-0.2,0.2-0.4,0.3-0.5c0.6-0.4,0.9-1,0.8-1.8c0.7-0.1,1-0.6,1.1-1.2
		c0.1-0.7,0.5-1.2,1.1-1.7c0.4-0.4,0.6-1,0.9-1.6c0.4,0,0.6-0.5,0.8-1c0.1-0.5,0.3-0.9,0.9-1.1c0.3-0.1,0.9-0.5,0.7-1.1
		c0-0.1,0.1-0.3,0.2-0.3c0.7-0.6,1.3-1.3,1.8-2.2c0.3-0.5,1-0.8,1.5-1.3c0.2-0.2,0.5-0.4,0.5-0.6c0.4-1.2,1.4-1.9,2.4-2.5
		c0.8-0.5,1.9-0.7,2.9-1c0.2-0.1,0.5-0.1,0.7-0.2c0.4-0.2,0.7-0.4,1.2-0.3c0.2,0.1,0.5-0.1,0.7-0.2c0.6-0.2,1.1-0.4,1.8-0.3
		c0.6,0.1,1.2-0.1,1.8-0.3c0.7-0.2,1.1,0.3,1.6,0.5c0.6,0.2,1.2,0.5,1.8,0.2c0.2-0.1,0.5-0.1,0.8,0c0.6,0.2,1.3,0.3,1.9,0.6
		c0.4,0.2,0.8,0.6,0.9,1.2c0.1,0.6,0.2,1.3,1.1,1.2c0.1,0,0.3,0.3,0.4,0.4c0.2,0.4,0.5,0.8,0.7,1.2c-0.1,0.4-0.2,0.9-0.3,1.3
		c0,0.2,0,0.5,0.1,0.7c0.6,0.8,0.6,1.7,0.4,2.6c-0.1,0.3-0.1,0.6-0.1,0.8c0.3,0.8,0.4,1.6,0.6,2.4c0.1,0.5,0.2,1,0.1,1.5
		c-0.1,0.7-0.2,1.4,0.3,2c0.1,0.1,0.2,0.3,0.2,0.4c-0.4,0.8,0.5,1.3,0.5,2c0,0.4,0.2,0.8,0.2,1.2c0,0.5,0.6,1.5,1.1,1.6
		c0.3,0.1,0.7,0.1,1-0.1c0.3-0.2,0.5-0.6,0.3-1c-0.1-0.2-0.1-0.3-0.2-0.5c0.3-0.6,0.7-1.2,0.5-1.9c0-0.1,0-0.3,0-0.4
		c0.7-0.8,0.5-1.9,0.8-2.8c0.2-0.7,0.6-1.3,0.7-2c0.2-0.9,0.8-1.6,1-2.4c0.2-0.9,0.4-1.8,1-2.6c0.6-0.8,1-1.8,1.5-2.7
		c0.1-0.2,0.2-0.4,0.2-0.5c-0.3-0.6,0.3-1.1,0.3-1.6c0-0.1,0.1-0.3,0.1-0.4c0.8-0.2,0.8-1.1,1.4-1.5c0.1-0.1,0.1-0.2,0.2-0.3
		c0.2-0.7,0.4-1.4,0.6-2.1c0.7-0.1,1.2-0.1,1.5-0.9c0.2-0.5,0.5-1.2,1.3-1.3c0.1,0,0.2-0.1,0.3-0.2c0.7-0.6,1.3-1.2,2-1.7
		c0.3-0.3,0.8-0.3,1.2-0.5c0.6-0.2,1.2-0.3,1.7-0.6c0.8-0.5,1.7-0.6,2.6-0.5c0.7,0,1.3-0.1,2-0.3c0.3-0.1,0.7,0,1,0.1
		c0.8,0.3,1.6,0.5,2.3,0.9c0.9,0.6,1.9,0.6,2.8,0.7c0.3,0,0.6,0.1,0.8,0.3c0.5,0.4,1,0.5,1.7,0.4c0.7-0.1,1.1,0.5,1.6,0.8
		c0.5,0.2,0.8,0.6,1.4,0.6c0.3,0,0.6,0.4,1,0.5c0.6,0.1,0.6,0.8,1,1c0.5,0.1,0.9,0.2,1.2,0.6c0.3,0.3,0.8,0.5,1.2,0.8
		c0.8,0.4,0.7,1.4,1.5,1.8c0,0.5,0.3,0.9,0.6,1.3c0.2,0.3,0.1,0.9,0.2,1.4c0.1,0.3,0.2,0.7,0.3,1c0.2,0.6,0.2,3.3-0.3,3.9
		c-0.1,0.1-0.3,0.2-0.4,0.3c-0.6,0.5-1,1-1.2,1.8c-0.1,0.4-0.3,0.9-0.8,1.1c-0.5,0.2-1,0.4-1.2,1c0,0.1-0.1,0.1-0.1,0.1
		c-1.1-0.2-1.4,0.9-2.2,1.2c-0.8,0.3-1.4,0.9-2.2,1.4c-0.6-0.3-1.2-0.3-1.7,0.3c-0.6-0.3-1.1-0.5-1.6-0.8c-0.2-0.9-0.5-1.8-0.7-2.6
		c-0.1-0.3-0.1-0.5-0.2-0.8c-0.4-0.6-0.5-1.2,0.2-1.7c0.5-0.5,0.8-1.3,1.8-1.1c0.1,0,0.3-0.1,0.4-0.2c0.2-0.4,0.7-0.5,1.1-0.6
		c1.1-0.3,1.6-1.3,2.4-2c0.3-0.3,0.2-0.6,0-0.9c-0.4-0.6-0.8-1.1-1.2-1.6c-0.1-0.1-0.2-0.1-0.4-0.2c-0.4-0.2-0.7-0.4-1.1-0.5
		c-0.1-0.1-0.2-0.2-0.3-0.2C71,21.1,70,20.5,69,19.9c-0.4,1.2-0.7,2.3-1,3.5c0.6,0.4,0.5,1.1,0.7,1.8c0,0.1,0.1,0.3,0,0.4
		c-0.4,0.5-0.4,1.1-0.2,1.7c0,0.1,0,0.2,0,0.3C68,29,68.4,30.5,68.5,32c0,0.3,0.1,0.7,0.3,1c0.2,0.3,0.2,0.6,0,1
		c-0.1,0.2,0,0.7,0.1,0.9c0.3,0.4,0.3,0.8,0.4,1.3c0.2,1,0,2,0.5,3c0.1,0.3,0.1,0.7,0.1,1c0.9,0.5,1.9,0,2.8,0.1
		c0.7,0.1,1.5-0.2,2.2-0.3c0.4,0,0.7-0.2,1-0.3c0.8-0.2,1.6-0.3,2.4-0.6c0.7,0.6,1.3,0.1,2-0.1c0.9-0.2,1.8-0.3,2.7-0.5
		c1-0.2,2-0.2,3-0.3c0.1,0,0.1,0,0.2,0c1.1-0.2,2.2-0.3,3.2-0.7c0.9-0.4,1.9-0.6,2.6-1.5c0.2-0.3,0.7-0.5,1-0.6c1.1-0.5,2-1.2,2.9-2
		c0.9-0.7,1.6-1.7,2.7-2c0.1,0,0.2-0.1,0.2-0.1c0.2-0.8,1-0.9,1.5-1.4c0.5-0.5,1.1-0.9,1.5-1.4c0.7-0.7,1.3-1.5,1.9-2.3
		c0.6-0.8,1.2-1.7,2.1-2.2c0.1-0.1,0.3-0.2,0.3-0.4c0-0.8,0.7-1.3,0.9-2c0.1-0.4,0.4-0.9,0.7-1.1c0.7-0.5,0.8-1.5,1.6-1.9
		c0.2-0.1,0.2-0.6,0.4-1c0.2,0,0.5-0.1,0.9-0.1c-0.1-0.2-0.1-0.4-0.2-0.7c1.1,0.2,2.1,0.2,2.9,0.9c0.4,0.3,1,0.4,1.2,0.7
		c0.4,0.6,1.1,0.7,1.6,1.1c0.3,0.3,0.8,0.4,1.1,0.7c0.4,0.3,1,0.5,1,1.2c0,0.1,0.1,0.3,0.2,0.3c1,0.6,1.4,1.8,2.4,2.5
		c0.8,0.5,1.1,1.4,1.6,2.2c0.1,0.1,0.1,0.4,0.2,0.4c1.1,0.5,1.3,1.8,2.1,2.6c0.5,0.6,0.7,1.5,1.5,2c0.3,0.2,0.6,0.8,0.6,1.2
		c0,0.7,0.6,1.2,0.6,1.7c0,1.3,1.3,2,1.2,3.2C129.4,38.3,129.3,38.8,128.9,39.3z M84.6,44.3c-0.3-0.1-0.5-0.1-0.6-0.3
		c-0.3-0.5-0.7-0.6-1.3-0.5c-1.1,0.3-2.3,0.5-3.5,0.8c-0.8,0.2-1.6,0.6-2.3,0.7c-0.8,0.1-1.7,0.2-2.5,0.3c-1,0.2-2,0.1-3,0.5
		c-0.2,0.1-0.5,0.1-0.7,0.2c-1,0.1-1.9,0.1-2.9,0.2c-0.2,0-0.3,0.1-0.5,0.2c-0.7,0.2-1.4,0.4-2.1,0.4c-0.5,0-0.9-0.1-1.4,0.3
		c-0.2,0.1-0.5,0.1-0.7,0.1c-0.6,0-1.2,0-1.7,0.6C61.4,48,61.1,48,60.9,48c-0.2,0-0.4-0.1-0.5,0c-0.4,0.4-1,0.3-1.5,0.3
		c-0.9,0.1-1.3,0.3-1.5,1.2c-0.1,0.4-0.3,0.8,0,1.2c0.2,0.4,0.5,0.8,0.5,1.2c0.3,1.5,1.3,2.7,1.9,4.1c0.1,0.3,0.3,0.6,0.4,0.9
		c0.3,0.6,0.8,1.1,1.1,1.6c0.6,1.1,1,2.3,1.6,3.5c0.3,0.8,0.7,1.5,1.1,2.4c0.2,0,0.5,0.1,0.7,0.2c0.6,1.4,1.4,2.1,2.8,2.1
		c0.5-0.1,1-0.1,1.5-0.2c0.3,0,0.6-0.3,0.8-0.3c0.9,0.1,1.5-0.3,2.3-0.5c1.3-0.3,2.7-0.6,4-0.9c0.5-0.1,1-0.4,1.4-0.3
		c0.8,0.2,1.5,0,2.1-0.3c1.1-0.7,2.4-0.5,3.5-0.6c0.6,0,1-0.1,1.6-0.3c0.8-0.3,1.6-1,2.7-0.7c0.2,0,0.4-0.1,0.6-0.2
		c0.8-0.3,1.6-0.6,2.5-0.4c0.1,0,0.3,0,0.5-0.1c0.6-0.3,1.2-0.6,1.8-0.9c0.1-0.1,0.3-0.1,0.5-0.1c0.6,0.2,1.1,0,1.6-0.4
		c0.1-0.1,0.4-0.1,0.6-0.1c0.4,0.2,0.7,0,1-0.2c0.8-0.5,1.8-0.5,2.7-0.5c0.5,0,0.9-0.1,1.2-0.3c0.6-0.4,1.2-0.7,1.9-0.4
		c0.1,0.1,0.3,0,0.5,0c0.3-0.1,0.7-0.3,1-0.4c1-0.2,1.8-1.3,3.1-0.9c0,0,0.1,0,0.1,0c0.5-0.4,1.2-0.4,1.8-0.4c0.4,0,0.9-0.1,0.9-0.5
		c0.1-0.4,0-1.1-0.3-1.2c-0.6-0.3-0.6-0.9-0.6-1.3c0-1-0.8-1.5-1.2-2.2c-0.1-0.2-0.5-0.2-0.7-0.2c-0.5,0.1-1.1,0.3-1.2,1
		c0,0.2-0.3,0.4-0.4,0.5c-0.5,0.3-0.9,0.6-1.2,1.2c-0.3,0.6-0.8,1-1.6,1c-0.2,0-0.4,0.1-0.5,0.2c-0.3,0.4-0.7,0.3-1.1,0.3
		c-0.6,0.1-0.5-0.5-0.8-0.9c-1.2,0.5-1.2-0.9-2.1-1.2c0.4-1-0.3-1.4-0.7-2.1c0.6-0.5,1.1-1,1.2-1.8c0,0,0.1-0.1,0.2-0.1
		c0.7-0.6,1.4-1.3,2.2-1.8c1.4-0.9,2.2-2.2,3.1-3.4c0.2-0.3,0.2-0.7,0.2-1.1c-0.3,0-0.5-0.1-0.7-0.1c-0.1-0.8-0.9-1.3-0.6-2.2
		c0,0-0.1-0.1-0.1-0.1c-0.5-0.7-0.5-1.2,0.1-1.8c0.2-0.2,0.4-0.4,0.5-0.6c0,0,0,0.1,0.1,0.1c0.5-0.2,1-0.4,1.6-0.6
		c0.4,0.3,0.9,0.6,1.5,0.9c-0.2,0.3-0.3,0.6-0.5,0.9c0.3,0.1,0.5,0.1,0.7,0.1c0.1,0.3,0.3,0.6,0.4,0.9c0.6-0.6,1-1.2,1.6-1.5
		c0.5-0.3,0.6-0.6,0.8-1.1c0.2-0.4,0.3-0.8,0.6-1.2c0.5-0.9,1.1-1.9,1.7-2.8c0.1-0.2,0.3-0.5,0.4-0.7c0.1-0.3,0.2-0.6,0.1-0.9
		c-0.1-0.4-0.2-0.7-0.4-1.1c-0.2-0.4-0.5-0.9-0.7-1.3c-0.4,0.4-0.8,0.7-1,1.1c-0.7,1-1.9,1.4-2.3,2.5c0,0-0.1,0-0.1,0.1
		c-0.3,0.3-0.7,0.6-1,0.9c-0.3,0.3-0.5,0.8-0.8,0.9c-0.7,0.2-1,0.7-1.4,1.2c-0.1,0.1-0.2,0.3-0.4,0.3c-0.6,0.2-0.9,0.6-1.2,1.1
		c-0.2,0.2-0.4,0.3-0.6,0.5c-0.7,0.4-1.5,0.7-2,1.3c-0.4,0.5-1,1-1.5,1.2c-0.7,0.3-1.4,0.6-2,1.1c-0.6,0.4-1.3,0.8-2,1.2
		c-0.9,0.6-1.8,1.1-2.3,2.1c-0.5,0-0.9,0.2-1.2,0.8c-0.1,0.4-0.7,0.6-1.1,0.8c-0.3,0.2-0.7,0.3-1,0.5c-0.5,0.4-1.1,0.4-1.7,0.3
		C87.1,48,87,47.8,87,47.5c-1,0-1.4-0.7-2-1.3c0.2-0.6-0.4-0.7-0.7-1.1C84.4,44.9,84.5,44.6,84.6,44.3z M60.1,74.4
		C60,74,60,73.5,59.8,73.1c-0.2-0.4-0.6-0.8-0.7-1.3c-0.3-1.5-1-2.9-1.6-4.3c-0.1-0.3-0.4-0.5-0.6-0.8c-0.1-0.2-0.3-0.3-0.4-0.5
		c-0.5-0.9-0.8-1.9-1.6-2.6c0-0.9-0.3-1.6-0.8-2.3c0.1-1.1-0.4-1.8-1.5-2c0.2-0.8-0.1-1.2-0.9-1.4c0.3-0.5,0.5-0.9,0.7-1.3
		c-0.5-0.7-0.9-1.4-1.4-2c-1.2-1.5-3-1.4-4,0.2c-0.3,0-0.7,0-0.9-0.2c-0.7-0.4-1.2-0.1-1.7,0.2c-0.2,0.1-0.5,0.3-0.7,0.3
		c-0.7-0.1-1.3,0.2-1.9,0.4c-0.2,0.1-0.5,0.3-0.7,0.2c-0.5-0.3-0.9,0-1.3,0.1c-0.6,0.1-1.1,0.4-1.6,0.7c-0.7,0.5-0.8,1.7-0.3,1.9
		c1.3,0.4,1.8,1.5,2.6,2.4c0.6,0.7,1.3,1.2,2.2,1.3c0.2,0,0.5,0.2,0.7,0.4c1,1,2,1.8,3.5,2c0.2,0.6,0.5,1,1.1,1.1
		c0.2,0,0.3,0.1,0.4,0.2c0.9,0.8,1.7,1.8,2.9,2.2c0.2,0.1,0.3,0.3,0.4,0.5c0.3,0.5,0.5,1.1,1,1.3c0.9,0.5,0.9,1.6,1.7,2.1
		c0.3,1.3,1.4,2.2,1.7,3.5c0.1,0.5,0.3,1,0.7,1.4c0.6,0.6,1.1,1.3,1.4,2.2c0.1,0.2,0.2,0.3,0.3,0.4c0.5,0.5,1,1,1.1,1.7
		c0,0.1,0.2,0.2,0.2,0.3c0.2,0.2,0.4,0.5,0.5,0.7c0.2,0.5,0.4,0.5,0.9,0.2c0.7-0.4,1.2-0.9,1.6-1.5c0.6-0.8,1.6-1,2.3-1.7
		c0.5-0.5,1.4-0.7,2-1.1c0.1,0,0.2-0.1,0.2-0.2c0.4-0.9,1.1-1.5,1.9-1.9c0.2-0.1,0.2-0.3,0.4-0.5c0.1-0.2,0.3-0.3,0.4-0.4
		c0.6-0.5,1.2-0.9,1.8-1.3c0.3-0.2,0.6-0.4,0.9-0.6c-0.3-0.4-0.6-0.6-1-0.4c-0.4,0.2-0.9,0.4-1.4,0.5c-0.7,0.1-1.4,0.3-2,0.3
		c-0.7,0-1.2,0.8-1.9,0.3c0,0-0.2,0.1-0.3,0.1c-0.2,0.4-0.6,0.3-0.9,0.3c-0.8,0.1-1.8,0-2.4,0.4c-0.7,0.4-1.1,0.3-1.7,0
		C60.8,74.6,60.5,74.5,60.1,74.4z M30.3,30.8c-0.5,0.3-0.8,0.5-1.2,0.7c-1.2,0.6-1.9,1.4-2,2.7c0,0.3,0,0.6-0.2,0.8
		c-0.5,0.7-0.6,1.6-0.8,2.4c-0.1,0.5-0.1,1-0.3,1.5c-0.1,0.2,0,0.6,0.1,0.8c0.6,0.9,1.2,1.6,2.4,1.2c0.2-0.1,0.5-0.1,0.7-0.2
		c0.5-0.1,1-0.3,1.4-0.2c0.7,0.2,1.3-0.2,1.9-0.2c0-0.1,0.1-0.2,0-0.3c-0.6-1.1-1-2.2-1.1-3.4c-0.1-1.2-0.5-2.3-0.6-3.5
		c0-0.6-0.4-1.3,0.3-1.9C30.8,31,30.6,30.9,30.3,30.8z M55.1,25.8c-0.6,0.7-0.8,1.7-1.6,2.2c-0.1,0-0.1,0.2-0.1,0.3
		c-0.2,0.5-0.4,1-0.6,1.5c-0.3,0.7-0.8,1.3-0.9,2c-0.1,0.9-0.5,1.7-0.9,2.5c-0.1,0.1-0.1,0.3-0.1,0.4c-0.2,0.9-0.3,1.8-0.5,2.7
		c-0.2,0.9-0.3,1.9-0.5,3c0.8,0,1.5,0.1,2.1,0c0.4,0,0.6-0.1,1,0.1c0.7,0.3,1.1,0,1.2-0.8c0-0.5,0-1,0.3-1.5c0.1-0.1,0-0.4,0-0.6
		c0-0.2-0.1-0.4,0-0.6c0.3-0.4,0.1-0.7,0.1-1.2c-0.1-0.7-0.7-1.5,0.1-2.1c-0.1-0.7-0.5-1.5-0.3-2c0.2-0.6,0.3-1.2,0.3-1.8
		c0.1-0.7,0.3-1.5,0.3-2.2c0-0.5-0.2-1.1,0.4-1.5C55.3,26.3,55.2,26,55.1,25.8z"/>
	<path d="M143.1,42.2c0,0.2,0,0.4,0,0.6c0.8,0.2,1.4,0.6,1.4,1.4c0,0.8,0.8,0.9,1.1,1.4c0.2,0.4,0.7,0.6,1.1,1
		c-0.1,0.4-0.3,0.7-0.4,1c-0.1,0.3-0.3,0.5-0.6,0.6c-0.4,0.1-0.7,0.4-1,0.7c-0.3,0.2-0.5,0.5-0.8,0.7c-0.5,0.4-0.9,0.9-0.9,1.6
		c-0.9,0.3-1.2,0.8-1.2,1.6c0,0.3-0.1,0.5-0.2,0.8c-0.2,0.5-0.2,0.9,0.2,1.4c0.3-0.1,0.7-0.2,1.1-0.4c0.8-0.4,1.5-0.8,2.3-1.2
		c0.1,0,0.1-0.1,0.2-0.1c1.6,0,2.1-1.2,3-2.1c0.6-0.6,0.8-1.5,1.7-1.8c0.1,0,0.1-0.3,0.2-0.4c0.5-0.7,1-1.4,1.6-2.1
		c0.2-0.2,0.6-0.3,0.9-0.5c0.4-0.2,0.9-0.3,1.3-0.5c0.2,0,0.3,0,0.5,0c1.2,0.4,2.3,0.2,3.5-0.2c0,0,0.1,0,0.1,0
		c0.5,0.8,1.5,1.1,2.2,1.7c0.2,0.1,0.4,0.3,0.6,0.3c0.7,0,0.9,0.4,1,1c0.1,0.6,0.3,1,0.7,1.5c0.5,0.5,0.2,1.1,0,1.6
		c-0.3,0.7-0.4,1.3,0.1,1.8c-0.3,0.5-0.8,0.9-0.5,1.6c-0.5,0.8-0.8,1.6-0.8,2.5c-0.6,0.3-0.6,0.9-0.7,1.5c0,0.2-0.3,0.5-0.4,0.7
		c-0.3,0.6-0.8,1.1-0.3,1.8c0,0.1,0,0.2,0,0.3c-0.6,1-0.6,2.2-1,3.3c-0.1,0.2-0.1,0.5-0.3,0.6c-0.4,0.4-0.6,0.8-0.6,1.5
		c0,0.4-0.2,0.8-0.3,1.3c-0.1,0.5-0.1,1.2-0.4,1.6c-0.6,0.9-0.6,1.9-0.9,2.8c-0.5,1.4-0.6,2.9-1.2,4.2c-0.1,0.3-0.1,0.7,0,1
		c0.1,0.5,0,0.8-0.3,1.1c-0.7,0.5-0.8,1.2-0.5,1.9c0.1,0.5,0.1,0.7-0.3,1.1c-0.3,0.3-0.5,0.8-0.6,1.2c-0.2,0.8-0.2,1.6-0.3,2.4
		c0,0.2-0.1,0.4-0.2,0.6c-0.1,0.4-0.1,0.8-0.2,1.2c-0.1,0.5-0.2,1-0.3,1.5c-0.1,0.7-0.3,1.3-0.3,2c0,0.8-0.2,1.7,0.2,2.5
		c0.2,0.3-0.1,0.9-0.1,1.3c0,0.5-0.1,1,0.4,1.3c0.1,0.1,0.1,0.3,0.1,0.5c0.1,0.3,0.1,0.6,0.2,0.9c0,0.3,0.1,0.5,0.1,0.8
		c0,0.2-0.2,0.5-0.1,0.6c0.7,1-0.4,1.8-0.3,2.7c-0.4,0.4-0.8,0.8-1.3,1.1c-0.5,0.2-1.1,0.3-1.6,0.4c-0.8,0-1.5,0.4-2.4,0.4
		c-0.2,0-0.4,0.2-0.6,0.2c-0.4-0.6-0.8-1.2-1.1-1.8c-0.3-0.5-0.5-1.1-0.6-1.7c-0.1-0.8,0.1-1.7-0.5-2.5c0.1-1.2-0.7-2.3-0.4-3.5
		c-0.6-1-0.3-2.1-0.1-3.1c0.1-0.4,0.1-0.9-0.1-1.3c-0.1-0.2,0-0.5,0-0.8c0-0.2,0.2-0.5,0.1-0.7c-0.2-0.4,0-0.5,0.2-0.8
		c0.6-0.9,0.7-2,0.3-3.2c-1.3,0.5-2.5,1.5-4.1,1.2c0.5,1.1-0.5,1.7-0.3,2.7c0.1,0.8,0,1.7,0.2,2.6c-0.2,0.2-0.4,0.5-0.6,0.7
		c0.3,1.3,0.3,2.5-0.1,3.5c0,0.7,0,1.3-0.1,1.8c-0.1,0.7-0.3,1.3,0,2c0.3,0.8,0.3,1.7,0.1,2.5c-0.2,0.5,0,0.8,0.2,1.1
		c0.1,0.2,0.2,0.4,0.1,0.6c-0.6,1,0.1,1.9,0.1,2.8c0,0.3,0,0.7,0,1c0,0.1-0.1,0.3-0.1,0.4c0.3,0.9,0.1,1.9,0.3,2.8
		c0.2,1-0.3,1.6-1,2.2c-0.1,0.1-0.3,0.2-0.4,0.2c-0.5,0.1-1,0.1-1.5,0.2c-1,0-2,0.4-3,0c-0.1,0-0.3,0-0.4,0c-0.7,0-0.9-0.2-1.1-0.9
		c-0.1-0.5-0.5-0.9-0.1-1.5c0.1-0.1,0-0.3-0.1-0.5c-0.3-0.9-0.5-1.9-0.5-2.8c0-0.7-0.4-1.5-0.3-2.2c0-0.8-0.1-1.7,0-2.5
		c0.1-1.2,0.2-2.4-0.3-3.5c0-0.1-0.1-0.3,0-0.4c0.4-0.5,0.1-1.1,0-1.6c0.8-0.6,0.4-1.5,0.5-2.2c-0.6-1-0.1-2,0.1-2.9
		c0.2-0.7,0.4-1.4,0.1-2.1c-0.1-0.4-0.1-1,0.1-1.4c0.3-0.5,0.2-1,0.1-1.5c0-0.1-0.1-0.2,0-0.2c0.6-0.6,0.5-1.4,0.6-2.1
		c0-0.3,0.2-0.5,0.2-0.8c-0.1-1.1,0.1-2,0.6-3c0.1-0.1,0.1-0.3,0-0.4c-0.1-0.4-0.1-0.8,0.3-1.2c0,0,0.1-0.1,0.1-0.2
		c-0.2-1.2,1-2.2,0.6-3.5c-0.1-0.2,0.3-0.6,0.4-0.9c0.3-1,0.5-2.2,1-3.1c0.4-0.7,0.6-1.4,0.9-2.2c0.2-0.4,0.5-0.7,0.5-1.2
		c0-0.2,0.4-0.3,0.5-0.5c0.1-0.2,0.3-0.5,0.2-0.7c-0.1-0.2-0.5-0.6-0.6-0.6c-0.7,0.2-0.9-0.4-1.3-0.7c-0.3-0.3-0.4-0.7-0.6-1.1
		c-0.2-0.4-0.5-0.8-0.6-1.2c-0.1-0.3-0.2-0.6-0.1-0.9c0.4-0.9-0.1-1.7-0.1-2.6c0-0.3-0.2-0.7-0.2-1.1c0-0.2,0-0.5-0.2-0.7
		c-0.4-0.5-0.6-1.2-1-1.7c-0.7-1-0.7-1.9-0.6-2.9c0.1-0.7,0.3-1.2,0.7-1.8c0.3-0.5,0.4-1.2,0.5-1.7c0.1-0.3,0.2-0.5,0.3-0.8
		c0.1-0.2,0.3-0.3,0.3-0.4c0-1.1,0.8-1.7,1.5-2.4c0.4-0.4,0.7-0.9,1.2-1.2c0.4-0.3,0.5-1,0.9-1.4c0.6-0.7,1.3-1.4,2.1-2
		c0.2-0.2,0.7-0.2,1.1-0.2c0.4,0,0.8,0,0.8,0.5C142.5,42.3,142.8,42.2,143.1,42.2z"/>
	<path d="M152.5,32.9c0.2,0.5,0.3,1.1,0.9,1.1c0.1,0,0.2,0.2,0.2,0.3c0.4,1,0.9,2,1.1,3.1c0.1,0.8-0.2,1.6-0.3,2.4
		c0,0.1-0.1,0.1-0.1,0.2c0,1.4-0.9,2.3-1.8,3c-0.7,0.5-1.6,0.6-2.5,0.9c-0.3,0.1-0.7,0.1-1.2,0.2c-0.6-0.4-1.3-0.9-1.9-1.4
		c-0.3-0.2-0.9-1.1-1.2-1.5c-0.7-0.9-0.3-2.1-0.7-3.1c-0.1-0.4-0.1-0.8-0.2-1.1c-0.1-0.5-0.1-0.9,0.3-1.2c0.1-0.1,0.2-0.3,0.3-0.5
		c0.2-0.7,0.3-1.4,1-1.8c0.2-0.1,0.3-0.5,0.4-0.7c0.6,0,1.2,0,1.8-0.5c0.4-0.3,1.1-0.4,1.5,0C151,32.8,151.7,32.9,152.5,32.9z"/>
	<path d="M36.3,8.4c0.8-0.3,1.3-0.5,1.8-0.7c0.6,0.1,1.2,0.2,1.8,0.3c0.6,0.2,1.2,0.4,1.7,0.6c0.1,0,0.1,0.1,0.2,0.1
		c0.4,0.7,1,1.3,1.2,2c0.2,0.6,0,1.4-0.2,2c-0.4,1.3-0.8,2.6-1.4,3.9c-0.5,1-1.3,1.8-2.3,2.2c-0.1,0.1-0.3,0-0.5,0
		c-0.6,0-1.2,0.1-1.7,0.1c-0.2,0-2.5-0.9-2.6-1c-0.2-0.5-0.2-0.9-0.7-1.3c-0.3-0.2-0.4-0.9-0.4-1.3c0.1-0.7-0.2-1.5,0.4-2.3
		c0.5-0.7,0.8-1.7,1.1-2.6c0.2-0.5,0.4-0.9,0.8-1.2C35.7,8.9,36.1,8.6,36.3,8.4z"/>
	<path d="M77,4.7c-0.1,0.6-0.1,1.1-0.3,1.5c-0.4,0.6,0,1.3-0.4,2c-0.4,0.6-0.4,1.3-0.7,1.9c-0.4,0.9-1.3,1.5-2.1,1.8
		c-0.7,0.3-1.7,0.1-2.5,0.1c-0.3,0-0.6-0.2-0.8-0.4c-0.5-0.7-1.2-1.3-1.6-2.2c-0.1,0-0.2,0-0.4,0c0-0.1-0.1-0.2-0.1-0.3
		c0.1-0.6,0.2-1.3-0.1-1.9c0-0.1,0-0.1,0-0.2c0.5-1.3,0.7-2.7,1.5-3.9c0.2-0.3,0.4-0.5,0.6-0.7c0.3-0.3,0.7-0.5,0.9-0.8
		c0.8-0.8,2.1-1,3-0.3c0.6,0.4,1,0.9,1.8,1c0.3,0.1,0.6,0.6,0.7,0.9C76.8,3.7,76.9,4.3,77,4.7z"/>
	<path d="M106.3,17c-0.5,0.4-0.7,1-0.4,1.7c0.1,0.4-0.2,0.6-0.3,0.9c-0.1,0.3-0.3,0.5-0.7,0.6c-0.4,0.1-0.7,0.6-0.9,0.9
		c-0.2,0.3-0.4,0.4-0.7,0.5c-0.2,0-0.5,0.1-0.7,0.2c-0.3,0.2-0.6,0.2-0.9,0c-0.1-0.1-0.3-0.2-0.4-0.1c-1,0.3-1.6-0.5-2.1-1
		c-0.5-0.4-0.7-1-1-1.6c-0.3-0.6-0.7-1.2-0.7-1.9c0-0.3-0.2-0.6,0-0.9c0.1-0.1,0.1-0.3,0.1-0.4c-0.7-0.9,0-1.6,0.4-2.3
		c0.1-0.2,0.1-0.4,0.2-0.6c0-0.1,0.1-0.3,0.1-0.4c0.7-0.2,1.1-1,1.9-1c0.4,0,0.8-0.1,1.1-0.3c0.4-0.2,0.6-0.2,1-0.1
		c1.6,0.3,2.8,1.5,3.2,3.1C105.6,15.2,106,16,106.3,17z"/>
</g>
</svg>
