<svg xmlns="http://www.w3.org/2000/svg" width="105.26" height="59.374">
  <defs>
    <clipPath id="a">
      <path fill="none" d="M0 0h105.26v59.374H0z"/>
    </clipPath>
  </defs>
  <g clip-path="url(#a)">
    <path d="M104.061 43.3a1.377 1.377 0 0 1 .193-1.691c.195-.273.139-1.116 0-1.171-.584-.222-.35-.675-.453-1.026a8.5 8.5 0 0 0-.7-2.26 27.421 27.421 0 0 0-2.549-3.39c-.346-.383-1.007-.461-1.446-.785-.606-.446-1.448-.449-1.933-1.157-.183-.266-.689-.323-.52-.818.071-.209.263-.389.291-.6a8.424 8.424 0 0 0 .055-1.352c0-.08-.255-.132-.3-.236-.278-.664-.48-1.364-.806-2a2.183 2.183 0 0 0-.884-1.013c-1.688-.732-.145-1.842-1.779-2.782-3.593-2.068-5.954 1.332-6.458 1.328a3.161 3.161 0 0 0-2.872 1.319c-.485.647-1.174 1.133-1.322 2.117-.4-.11-.866-.1-1.074-.32-.811-.875-1.535-1.824-2.912-1.765-.158.007-.326-.133-.485-.213a2.684 2.684 0 0 0-.652-.331 2.493 2.493 0 0 0-1.656.493c-.6.322-1.485.014-2 .784-.249.369-.7.593-1 .938a2.127 2.127 0 0 1-1.987.219 5.6 5.6 0 0 0-.983-.528c-.544-.269-1.3-.391-1.592-.825-.47-.7-1.265-.666-1.843-1a4.639 4.639 0 0 0-2.59-.961c-.258.014-.822-.5-1.356-.55-.067-.006-.127-.082-.192-.124-.588-.377-1.157-.791-1.772-1.118a8.364 8.364 0 0 0-1.357-.444c-.658.306-1.444.723-2.267 1.039-.794.305-1.628.507-2.444.754-.026.008-.064.018-.072.037-.449 1.046-1.291.358-2.089.612v-3.535c0-.273.065-.662-.084-.8-.692-.639-.437-1.459-.53-2.213-.029-.237-.036-.64-.149-.677-.595-.195-.429-.69-.514-1.086-.057-.265-.019-.677-.175-.771-.516-.312-.352-.8-.467-1.219-.2-.752-.49-1.483-.748-2.221-.013-.038-.105-.043-.131-.082a4.3 4.3 0 0 1-.408-.671c-.081-.193-.023-.456-.128-.624a8.64 8.64 0 0 1-1.107-1.68 3.319 3.319 0 0 0-1.275-1.778 1.741 1.741 0 0 1-.738-.923c-.143-.929-.764-.941-1.442-.937-.824 0-1.649.012-2.472.04-.212.007-.558.036-.611.157-.338.77-.905.446-1.52.418 0-1.126.008-2.194-.007-3.26a1 1 0 0 0-.164-.591A4.856 4.856 0 0 0 38.464.89c-.494-.292-.843-1.177-1.505-.8a5.271 5.271 0 0 1-2.31.646c-.053 0-.1.111-.146.173-.273.367-.524.753-.82 1.1-.411.479-.827 2.136-.434 2.453.739.6.383 1.349.522 2.025.053.26.017.679.163.756.949.5.442 1.255.5 1.859-.479.141-.868.226-1.232.373-.234.095-.416.318-.649.417-.654.276-1.55.337-1.929.816-.481.608-.984.446-1.5.511s-1.054 0-1.561.1c-.334.067-.615.442-.943.481a16.1 16.1 0 0 1-2.225.059c-.443-.009-.888.056-1.222-.468-.122-.192-.794-.174-1.143-.049a7.477 7.477 0 0 0-1.379.868c-.036.2.019.734-.184.862-.765.48-.483 1.224-.57 1.85a1.836 1.836 0 0 0 .2 1.334 2.682 2.682 0 0 0 1.587.846c1.672.091 3.355 0 5.033-.021.08 0 .2-.007.234-.057.485-.7 1.245-.565 1.873-.479 1.274.174 2.308-.6 3.493-.724a.241.241 0 0 0 .175-.137c.107-.616.622-.385.98-.492a10.3 10.3 0 0 0 .984-.37c.18-.074.344-.19.524-.265.666-.276 1.336-.542 2-.814a.1.1 0 0 0 .056-.056c.252-.856.852-.337 1.4-.417v1.144c.013 1.7 0 3.409.06 5.112.01.32.287.625.413.949.18.465.426.947-.167 1.325-.1.065-.241.181-.242.274 0 1-.676 1.022-1.408 1.027-.4 0-1.056-.042-1.17.166-.555 1.02-1.7 1.118-2.517 1.687a17.64 17.64 0 0 0-2.3 1.926 2.891 2.891 0 0 1-1.016.752 5.232 5.232 0 0 0-2.15 1.825c-.39.425-.611 1-1 1.436-.513.576-1.132 1.057-1.667 1.616a3.045 3.045 0 0 0-.649.968c-.311.809-.546 1.648-.822 2.471a.66.66 0 0 1-.193.252 1.346 1.346 0 0 0 .146 2.118 4.579 4.579 0 0 1 .82.808 1.884 1.884 0 0 0 1.925.439c.389-.277.776-.556 1.147-.823l.761-1.088a7.728 7.728 0 0 0 .728-1.074c.159-.341.046-.744.583-.956.334-.132.484-.7.741-1.056a11.069 11.069 0 0 1 1.146-1.476 15.061 15.061 0 0 1 1.417-1.019c.8-.619 1.338-1.627 2.508-1.718.087-.007.166-.106.252-.158a7.922 7.922 0 0 1 1.806-1.048 8.216 8.216 0 0 1 2.118-.04 24.414 24.414 0 0 1-.027 2.91 7.679 7.679 0 0 1-.684 2.29c-.274.583-.846 1.022-1.154 1.6a16.353 16.353 0 0 0-.789 2.034c-.028.075-.021.178-.07.229a5.237 5.237 0 0 0-1.227 2.467c-.02.079-.031.214-.073.225-.73.192-.488.8-.563 1.276-.03.19.027.458-.08.561-.907.871-.549 1.97-.579 3a.906.906 0 0 0 .068.481 7.178 7.178 0 0 0 2.78 1.292c.8-.19 1.58-.472 2.365-.715.071-.544-.039-1.227.25-1.533a1.805 1.805 0 0 0 .53-1.337c0-.08.013-.215.055-.231.75-.282.46-.962.577-1.482.036-.159-.021-.373.066-.482a6.169 6.169 0 0 0 1.288-2.45.31.31 0 0 1 .053-.151c.721-.685 1.446-1.366 2.218-2.093.453.688.4 1.2-.31 1.633a1.093 1.093 0 0 1 .155 1.86c.2.522.362.921.512 1.323.037.1.014.264.078.306A16.019 16.019 0 0 0 47.39 43.5c.587.256 1.268.06 1.867.645a5.814 5.814 0 0 0 2.1.806c.051.018.142.023.148.05.225.955 1.316.419 1.839 1.1.387.5 1.344.564 2.045.826a1.441 1.441 0 0 1 .195.125 10.88 10.88 0 0 0 1.915 1.071 3.307 3.307 0 0 1 1.627 1.272c.53.2.97.592 1.481.741.857.25 1.557 1 2.558.808.077-.016.2.16.291.252.466.449.863 1 1.61 1.01.129 0 .361.048.372.106.123.656.674.393 1.044.527a5.808 5.808 0 0 1 1 .517 6.066 6.066 0 0 0 1.107.708c.611.2 1.247 0 1.849.626.52.539 1.5.632 2.374.956-.244.525 8.442 4.248 8.9 3.67.562-.712 1.481-.284 1.923-1.03.134-.226.825-.19 1.254-.161.858.058 14.029-1.291 18.211-2.162 4.786.175 1.583-5.347 2.158-6.342.094-.163-.618-6.462-1.191-6.314m-57.136-24.9c-1.02 3.125-.264 6.342-.622 9.491a1.17 1.17 0 0 1-1.146 1.142c-.578.008-1.156.011-1.734.021-.654.012-1.013-.224-1-.96.039-1.9-.359-3.9.127-5.666.837-3.039.137-6.078.616-9.024.215-.207.393-.484.645-.594.3-.131.87-.267.957-.143.564.8 1.437.307 2.23.666 0 .925.006 1.929 0 2.933a7.309 7.309 0 0 1-.072 2.135m18.231 16.705c-.4.188-1.057.559-.957 1.321a5.6 5.6 0 0 1-.079 1.111 2.534 2.534 0 0 1-1.47-.283c-.69-.4-1.389-1.122-2.412-.945a1.4 1.4 0 0 1-1.548-.483c-.408-.5-1.352-.562-2.036-.868-.23-.1-.36-.43-.59-.531-.674-.3-1.4-.48-2.059-.805-.6-.3-1.138-.734-1.717-1.085-.172-.1-.408-.1-.587-.2-.233-.125-.563-.263-.626-.465-.1-.308-.259-.743.377-.873.275-.056.495-.438.714-.695.3-.347.566-.716.848-1.074.031-.04.075-.11.106-.106a4.136 4.136 0 0 0 2.4-.765 5.326 5.326 0 0 1 2.518-.76c.15 0 .3-.466.454-.469.409-.007.963-.319 1.181.359a.3.3 0 0 0 .181.145 8.2 8.2 0 0 1 2.536.857c.6.464 1.516.285 1.89 1.069.037.078.246.069.372.113.72.253 1.458.467 2.15.782a8.876 8.876 0 0 1 1.3.924v2.863a18 18 0 0 0-2.948.86m12.623 16.92a1.247 1.247 0 0 1-1.026-.268 9.613 9.613 0 0 1-1.8-1.713 1.493 1.493 0 0 1 .122-1.254 4.393 4.393 0 0 1 1.029-1.079.837.837 0 0 1 .5-.163c.654-.019 1.31-.007 2-.007.205.555-.066 1.243.7 1.395.04.008.035.2.066.305.13.43.266.86.45 1.446a20.285 20.285 0 0 1-2.057 1.337m19.367-10.8a.661.661 0 0 1-.355.29c-.71.163-1.053.743-1.511 1.217-.348.36-1.055.515-1.2.906-.262.733-.807.567-1.324.7a15.807 15.807 0 0 0-.784 2.125c-.085.374-.2.966.461 1.161.063.019.107.341.092.347-.491.193-.493.984-1.249.918-.48-.041-1.192-.3-1.408.542-.014.054-.265.022-.382.08-.307.15-.593.344-.9.488a2.8 2.8 0 0 1-.609.166c-.5.1-1.064-.109-1.4.574-.178.358-1.124-.033-1.176-.492-.067-.6-.09-1.2-.111-1.808a2.61 2.61 0 0 0-2.295-2.9c-.46-.995-1.877-.193-2.34-1.235-.045-.1-.428-.015-.627-.089a3.82 3.82 0 0 1-.661-.388c-.1-.066-.2-.2-.3-.206-.847-.017-1.263-.593-1.773-1.163a3.124 3.124 0 0 0-1.534-.734c-.187-.047-.52.328-.732.559a7.612 7.612 0 0 0-.849 1.1c-.285.456-.468.977-.768 1.421-.23.341-1.75.138-1.992-.211-.081-.117-.2-.272-.32-.288-.769-.107-1.183-.711-1.719-1.152-.173-.143-.459-.14-.662-.257-.546-.316-1.157-.614-1.189-1.35-.01-.228.207-.47.334-.7.05-.09.163-.149.2-.241.317-.719.622-1.442.954-2.214a4.314 4.314 0 0 1 .437-.064 5.3 5.3 0 0 0 2.829-1.187 2.149 2.149 0 0 1 1.036-.168.744.744 0 0 0 .8-.762 19.834 19.834 0 0 0-.053-2.3c-.018-.2-.321-.366-.556-.614.566-.514 1.107-1.049 1.695-1.527s1.229-.905 1.972-1.445a16.641 16.641 0 0 1 1.383 2.308 4.249 4.249 0 0 0 .75 1.457c.617.674 2.517 1.356 3.247.863a10.857 10.857 0 0 0 2.659-1.935c.347-.433.546-.982.859-1.447a14.408 14.408 0 0 1 .968-1.216c.236-.279.491-.544.749-.8.172-.173.362-.462.549-.466a15.335 15.335 0 0 1 2.628.107c.453.069.5 1.515.135 1.908a4.952 4.952 0 0 0-.494.778l-1.144 1.813a16.451 16.451 0 0 0-.07 2.148c.015.182.5.327.773.485a3.932 3.932 0 0 0 1.046.574 9.3 9.3 0 0 0 1.806.124c.767.005 1.537 0 2.3-.064a2.016 2.016 0 0 1 1.961 1.138 6.836 6.836 0 0 0 1.085 1.085c-.412.693-.807 1.376-1.223 2.047"/>
    <path d="M2.358 15.421 5.3 16.667a27.107 27.107 0 0 1-.056 3.53c-.052.4-.72.663.01 1.136.345.223-.141 1.013.573 1.2.09.023.129.263.184.405.153.4.3.8.479 1.274l-.52.652.136.235c3.245-.124 6.5.245 9.981-.112-.726-.817-1.137-1.446-.266-2.1a.365.365 0 0 0 .067-.311c-.249-1 .678-1.625.8-2.517.034-.243.444-.424.664-.65.444-.456.488.076.707.248a1 1 0 0 0 .546.1c.605.02 1.212 0 1.816.037.379.022.859-.107.994.467.01.04.079.08.128.095a24.935 24.935 0 0 0 2.755.757c.63.105.949.325.955.952.008.8.02 1.594 0 2.391-.033 1.54-.558 2.032-2.126 2.012-.274 0-.547-.039-.821-.058a1.383 1.383 0 0 0-1.691 1.526c-.038 3.077-.057 6.154-.091 9.231-.005.472.146.991-.406 1.325-.11.066-.108.351-.121.538-.107 1.547-.523 1.922-2.094 1.879-.413-.012-.825-.013-1.238-.015a1.316 1.316 0 0 1-1.407-1.43v-4.875c-.928-.723-1.228.5-1.954.482v4.518c0 .55.026 1.1.019 1.649a1.451 1.451 0 0 1-1.584 1.659 9.146 9.146 0 0 0-1.317.068c-.951.186-1.4-.749-2.183-.945-.127-.032-.184-.543-.188-.834-.036-2.336-.044-4.673-.079-7.009-.007-.465.24-1.06-.521-1.251-.085-.021-.1-.339-.146-.535h-1.23c0 1.975-.041 3.893.02 5.807a2.451 2.451 0 0 1-.737 1.948c-.172.167-.557.114-.844.167-.436.079-.872-.125-1.268.452-.212.31-1.11.15-1.468.182A4.7 4.7 0 0 1 .8 37.166c.022-.3.281-.583.377-.89.056-.182.089-.479-.012-.582-.479-.49-.554-.913-.02-1.426a1.129 1.129 0 0 0 .2-.733c.028-1.731 0-3.464.068-5.193.017-.423.391-.822.49-1.257a1.979 1.979 0 0 0 0-1.216c-.2-.388-.654-.642-.995-.958a.233.233 0 0 1-.063-.147C.782 23.482-.179 22.41.031 21.048a6.846 6.846 0 0 0 .023-2.218c-.2-1.089.667-1.772.854-2.7.018-.089.2-.155.323-.21.4-.187.808-.363 1.128-.506"/>
    <path d="M83.308 39.105a20.387 20.387 0 0 1-.035 2.773 6.076 6.076 0 0 1-.855 1.648c-.465 0-1.363.269-1.764-.063-.6-.494-1.509-.274-1.929-1.072-.181-.343-.761-.453-1.041-.773-.357-.41-.931-.657-.969-1.34a3.168 3.168 0 0 1 1.153-2.7 1.955 1.955 0 0 1 1.473-.608c.338-.006.739-.121.817.423.011.075.206.168.323.178.777.065 1.185.668 1.721 1.1a4.023 4.023 0 0 0 1.105.426"/>
    <path d="M89.766 42.485c-.675-.422-1.259-.781-1.836-1.153-.108-.069-.18-.265-.276-.27-.834-.045-1.071-.552-.948-1.264.093-.539-.313-1.105.486-1.614.985-.627 1.418-.824 2.276-.092a.534.534 0 0 0 .292.127c.828.048 1.161.685 1.666 1.2.377.388.577.705.443 1.15a2.047 2.047 0 0 1-.611.909 15.155 15.155 0 0 1-1.492 1"/>
  </g>
</svg>
